<?xml version="1.0" encoding="utf-8"?>
<svg xmlns="http://www.w3.org/2000/svg" xmlns:xlink="http://www.w3.org/1999/xlink" width="400" height="300" viewBox="0 0 1600 1200">
<defs>
  <clipPath id="clip910">
    <rect x="0" y="0" width="1600" height="1200"/>
  </clipPath>
</defs>
<path clip-path="url(#clip910)" d="
M0 1200 L1600 1200 L1600 0 L0 0  Z
  " fill="#ffffff" fill-rule="evenodd" fill-opacity="1"/>
<defs>
  <clipPath id="clip911">
    <rect x="320" y="0" width="1121" height="1121"/>
  </clipPath>
</defs>
<path clip-path="url(#clip910)" d="
M222.806 1016.92 L1552.76 1016.92 L1552.76 47.2441 L222.806 47.2441  Z
  " fill="#ffffff" fill-rule="evenodd" fill-opacity="1"/>
<defs>
  <clipPath id="clip912">
    <rect x="222" y="47" width="1331" height="971"/>
  </clipPath>
</defs>
<polyline clip-path="url(#clip912)" style="stroke:#000000; stroke-width:2; stroke-opacity:0.1; fill:none" points="
  433.504,1016.92 433.504,47.2441 
  "/>
<polyline clip-path="url(#clip912)" style="stroke:#000000; stroke-width:2; stroke-opacity:0.1; fill:none" points="
  649.827,1016.92 649.827,47.2441 
  "/>
<polyline clip-path="url(#clip912)" style="stroke:#000000; stroke-width:2; stroke-opacity:0.1; fill:none" points="
  866.149,1016.92 866.149,47.2441 
  "/>
<polyline clip-path="url(#clip912)" style="stroke:#000000; stroke-width:2; stroke-opacity:0.1; fill:none" points="
  1082.47,1016.92 1082.47,47.2441 
  "/>
<polyline clip-path="url(#clip912)" style="stroke:#000000; stroke-width:2; stroke-opacity:0.1; fill:none" points="
  1298.79,1016.92 1298.79,47.2441 
  "/>
<polyline clip-path="url(#clip912)" style="stroke:#000000; stroke-width:2; stroke-opacity:0.1; fill:none" points="
  1515.12,1016.92 1515.12,47.2441 
  "/>
<polyline clip-path="url(#clip910)" style="stroke:#000000; stroke-width:4; stroke-opacity:1; fill:none" points="
  222.806,1016.92 1552.76,1016.92 
  "/>
<polyline clip-path="url(#clip910)" style="stroke:#000000; stroke-width:4; stroke-opacity:1; fill:none" points="
  433.504,1016.92 433.504,1005.28 
  "/>
<polyline clip-path="url(#clip910)" style="stroke:#000000; stroke-width:4; stroke-opacity:1; fill:none" points="
  649.827,1016.92 649.827,1005.28 
  "/>
<polyline clip-path="url(#clip910)" style="stroke:#000000; stroke-width:4; stroke-opacity:1; fill:none" points="
  866.149,1016.92 866.149,1005.28 
  "/>
<polyline clip-path="url(#clip910)" style="stroke:#000000; stroke-width:4; stroke-opacity:1; fill:none" points="
  1082.47,1016.92 1082.47,1005.28 
  "/>
<polyline clip-path="url(#clip910)" style="stroke:#000000; stroke-width:4; stroke-opacity:1; fill:none" points="
  1298.79,1016.92 1298.79,1005.28 
  "/>
<polyline clip-path="url(#clip910)" style="stroke:#000000; stroke-width:4; stroke-opacity:1; fill:none" points="
  1515.12,1016.92 1515.12,1005.28 
  "/>
<path clip-path="url(#clip910)" d="M 0 0 M423.782 1036.63 L442.138 1036.63 L442.138 1040.57 L428.064 1040.57 L428.064 1049.04 Q429.083 1048.69 430.101 1048.53 Q431.12 1048.34 432.138 1048.34 Q437.925 1048.34 441.305 1051.52 Q444.685 1054.69 444.685 1060.1 Q444.685 1065.68 441.212 1068.78 Q437.74 1071.86 431.421 1071.86 Q429.245 1071.86 426.976 1071.49 Q424.731 1071.12 422.324 1070.38 L422.324 1065.68 Q424.407 1066.82 426.629 1067.37 Q428.851 1067.93 431.328 1067.93 Q435.333 1067.93 437.671 1065.82 Q440.009 1063.72 440.009 1060.1 Q440.009 1056.49 437.671 1054.39 Q435.333 1052.28 431.328 1052.28 Q429.453 1052.28 427.578 1052.7 Q425.726 1053.11 423.782 1053.99 L423.782 1036.63 Z" fill="#000000" fill-rule="evenodd" fill-opacity="1" /><path clip-path="url(#clip910)" d="M 0 0 M626.702 1067.26 L634.34 1067.26 L634.34 1040.89 L626.03 1042.56 L626.03 1038.3 L634.294 1036.63 L638.97 1036.63 L638.97 1067.26 L646.609 1067.26 L646.609 1071.19 L626.702 1071.19 L626.702 1067.26 Z" fill="#000000" fill-rule="evenodd" fill-opacity="1" /><path clip-path="url(#clip910)" d="M 0 0 M661.678 1039.71 Q658.067 1039.71 656.239 1043.28 Q654.433 1046.82 654.433 1053.95 Q654.433 1061.05 656.239 1064.62 Q658.067 1068.16 661.678 1068.16 Q665.313 1068.16 667.118 1064.62 Q668.947 1061.05 668.947 1053.95 Q668.947 1046.82 667.118 1043.28 Q665.313 1039.71 661.678 1039.71 M661.678 1036.01 Q667.488 1036.01 670.544 1040.61 Q673.623 1045.2 673.623 1053.95 Q673.623 1062.67 670.544 1067.28 Q667.488 1071.86 661.678 1071.86 Q655.868 1071.86 652.789 1067.28 Q649.734 1062.67 649.734 1053.95 Q649.734 1045.2 652.789 1040.61 Q655.868 1036.01 661.678 1036.01 Z" fill="#000000" fill-rule="evenodd" fill-opacity="1" /><path clip-path="url(#clip910)" d="M 0 0 M843.522 1067.26 L851.16 1067.26 L851.16 1040.89 L842.85 1042.56 L842.85 1038.3 L851.114 1036.63 L855.79 1036.63 L855.79 1067.26 L863.429 1067.26 L863.429 1071.19 L843.522 1071.19 L843.522 1067.26 Z" fill="#000000" fill-rule="evenodd" fill-opacity="1" /><path clip-path="url(#clip910)" d="M 0 0 M868.545 1036.63 L886.901 1036.63 L886.901 1040.57 L872.827 1040.57 L872.827 1049.04 Q873.846 1048.69 874.864 1048.53 Q875.883 1048.34 876.901 1048.34 Q882.688 1048.34 886.068 1051.52 Q889.447 1054.69 889.447 1060.1 Q889.447 1065.68 885.975 1068.78 Q882.503 1071.86 876.184 1071.86 Q874.008 1071.86 871.739 1071.49 Q869.494 1071.12 867.086 1070.38 L867.086 1065.68 Q869.17 1066.82 871.392 1067.37 Q873.614 1067.93 876.091 1067.93 Q880.096 1067.93 882.433 1065.82 Q884.771 1063.72 884.771 1060.1 Q884.771 1056.49 882.433 1054.39 Q880.096 1052.28 876.091 1052.28 Q874.216 1052.28 872.341 1052.7 Q870.489 1053.11 868.545 1053.99 L868.545 1036.63 Z" fill="#000000" fill-rule="evenodd" fill-opacity="1" /><path clip-path="url(#clip910)" d="M 0 0 M1063.62 1067.26 L1079.94 1067.26 L1079.94 1071.19 L1057.99 1071.19 L1057.99 1067.26 Q1060.65 1064.5 1065.24 1059.87 Q1069.84 1055.22 1071.02 1053.88 Q1073.27 1051.35 1074.15 1049.62 Q1075.05 1047.86 1075.05 1046.17 Q1075.05 1043.41 1073.11 1041.68 Q1071.19 1039.94 1068.08 1039.94 Q1065.89 1039.94 1063.43 1040.71 Q1061 1041.47 1058.22 1043.02 L1058.22 1038.3 Q1061.05 1037.16 1063.5 1036.59 Q1065.96 1036.01 1067.99 1036.01 Q1073.36 1036.01 1076.56 1038.69 Q1079.75 1041.38 1079.75 1045.87 Q1079.75 1048 1078.94 1049.92 Q1078.15 1051.82 1076.05 1054.41 Q1075.47 1055.08 1072.37 1058.3 Q1069.27 1061.49 1063.62 1067.26 Z" fill="#000000" fill-rule="evenodd" fill-opacity="1" /><path clip-path="url(#clip910)" d="M 0 0 M1095.01 1039.71 Q1091.39 1039.71 1089.57 1043.28 Q1087.76 1046.82 1087.76 1053.95 Q1087.76 1061.05 1089.57 1064.62 Q1091.39 1068.16 1095.01 1068.16 Q1098.64 1068.16 1100.45 1064.62 Q1102.27 1061.05 1102.27 1053.95 Q1102.27 1046.82 1100.45 1043.28 Q1098.64 1039.71 1095.01 1039.71 M1095.01 1036.01 Q1100.82 1036.01 1103.87 1040.61 Q1106.95 1045.2 1106.95 1053.95 Q1106.95 1062.67 1103.87 1067.28 Q1100.82 1071.86 1095.01 1071.86 Q1089.2 1071.86 1086.12 1067.28 Q1083.06 1062.67 1083.06 1053.95 Q1083.06 1045.2 1086.12 1040.61 Q1089.2 1036.01 1095.01 1036.01 Z" fill="#000000" fill-rule="evenodd" fill-opacity="1" /><path clip-path="url(#clip910)" d="M 0 0 M1280.44 1067.26 L1296.76 1067.26 L1296.76 1071.19 L1274.81 1071.19 L1274.81 1067.26 Q1277.47 1064.5 1282.06 1059.87 Q1286.66 1055.22 1287.84 1053.88 Q1290.09 1051.35 1290.97 1049.62 Q1291.87 1047.86 1291.87 1046.17 Q1291.87 1043.41 1289.93 1041.68 Q1288.01 1039.94 1284.9 1039.94 Q1282.71 1039.94 1280.25 1040.71 Q1277.82 1041.47 1275.04 1043.02 L1275.04 1038.3 Q1277.87 1037.16 1280.32 1036.59 Q1282.78 1036.01 1284.81 1036.01 Q1290.18 1036.01 1293.38 1038.69 Q1296.57 1041.38 1296.57 1045.87 Q1296.57 1048 1295.76 1049.92 Q1294.97 1051.82 1292.87 1054.41 Q1292.29 1055.08 1289.19 1058.3 Q1286.09 1061.49 1280.44 1067.26 Z" fill="#000000" fill-rule="evenodd" fill-opacity="1" /><path clip-path="url(#clip910)" d="M 0 0 M1301.87 1036.63 L1320.23 1036.63 L1320.23 1040.57 L1306.15 1040.57 L1306.15 1049.04 Q1307.17 1048.69 1308.19 1048.53 Q1309.21 1048.34 1310.23 1048.34 Q1316.02 1048.34 1319.4 1051.52 Q1322.77 1054.69 1322.77 1060.1 Q1322.77 1065.68 1319.3 1068.78 Q1315.83 1071.86 1309.51 1071.86 Q1307.34 1071.86 1305.07 1071.49 Q1302.82 1071.12 1300.41 1070.38 L1300.41 1065.68 Q1302.5 1066.82 1304.72 1067.37 Q1306.94 1067.93 1309.42 1067.93 Q1313.42 1067.93 1315.76 1065.82 Q1318.1 1063.72 1318.1 1060.1 Q1318.1 1056.49 1315.76 1054.39 Q1313.42 1052.28 1309.42 1052.28 Q1307.54 1052.28 1305.67 1052.7 Q1303.82 1053.11 1301.87 1053.99 L1301.87 1036.63 Z" fill="#000000" fill-rule="evenodd" fill-opacity="1" /><path clip-path="url(#clip910)" d="M 0 0 M1505.86 1052.56 Q1509.21 1053.28 1511.09 1055.54 Q1512.99 1057.81 1512.99 1061.15 Q1512.99 1066.26 1509.47 1069.06 Q1505.95 1071.86 1499.47 1071.86 Q1497.29 1071.86 1494.98 1071.42 Q1492.69 1071.01 1490.23 1070.15 L1490.23 1065.64 Q1492.18 1066.77 1494.49 1067.35 Q1496.81 1067.93 1499.33 1067.93 Q1503.73 1067.93 1506.02 1066.19 Q1508.33 1064.46 1508.33 1061.15 Q1508.33 1058.09 1506.18 1056.38 Q1504.05 1054.64 1500.23 1054.64 L1496.2 1054.64 L1496.2 1050.8 L1500.42 1050.8 Q1503.87 1050.8 1505.69 1049.43 Q1507.52 1048.04 1507.52 1045.45 Q1507.52 1042.79 1505.63 1041.38 Q1503.75 1039.94 1500.23 1039.94 Q1498.31 1039.94 1496.11 1040.36 Q1493.91 1040.78 1491.27 1041.65 L1491.27 1037.49 Q1493.94 1036.75 1496.25 1036.38 Q1498.59 1036.01 1500.65 1036.01 Q1505.97 1036.01 1509.07 1038.44 Q1512.18 1040.84 1512.18 1044.97 Q1512.18 1047.84 1510.53 1049.83 Q1508.89 1051.79 1505.86 1052.56 Z" fill="#000000" fill-rule="evenodd" fill-opacity="1" /><path clip-path="url(#clip910)" d="M 0 0 M1528.06 1039.71 Q1524.44 1039.71 1522.62 1043.28 Q1520.81 1046.82 1520.81 1053.95 Q1520.81 1061.05 1522.62 1064.62 Q1524.44 1068.16 1528.06 1068.16 Q1531.69 1068.16 1533.5 1064.62 Q1535.32 1061.05 1535.32 1053.95 Q1535.32 1046.82 1533.5 1043.28 Q1531.69 1039.71 1528.06 1039.71 M1528.06 1036.01 Q1533.87 1036.01 1536.92 1040.61 Q1540 1045.2 1540 1053.95 Q1540 1062.67 1536.92 1067.28 Q1533.87 1071.86 1528.06 1071.86 Q1522.25 1071.86 1519.17 1067.28 Q1516.11 1062.67 1516.11 1053.95 Q1516.11 1045.2 1519.17 1040.61 Q1522.25 1036.01 1528.06 1036.01 Z" fill="#000000" fill-rule="evenodd" fill-opacity="1" /><path clip-path="url(#clip910)" d="M 0 0 M700.406 1102.26 L706.836 1102.26 L706.836 1149.78 L700.406 1149.78 L700.406 1102.26 Z" fill="#000000" fill-rule="evenodd" fill-opacity="1" /><path clip-path="url(#clip910)" d="M 0 0 M742.611 1128.27 L742.611 1149.78 L736.755 1149.78 L736.755 1128.46 Q736.755 1123.4 734.781 1120.88 Q732.808 1118.37 728.861 1118.37 Q724.119 1118.37 721.382 1121.39 Q718.644 1124.42 718.644 1129.64 L718.644 1149.78 L712.756 1149.78 L712.756 1114.14 L718.644 1114.14 L718.644 1119.67 Q720.745 1116.46 723.578 1114.87 Q726.442 1113.28 730.166 1113.28 Q736.309 1113.28 739.46 1117.1 Q742.611 1120.88 742.611 1128.27 Z" fill="#000000" fill-rule="evenodd" fill-opacity="1" /><path clip-path="url(#clip910)" d="M 0 0 M754.42 1144.44 L754.42 1163.34 L748.531 1163.34 L748.531 1114.14 L754.42 1114.14 L754.42 1119.55 Q756.266 1116.36 759.066 1114.84 Q761.899 1113.28 765.814 1113.28 Q772.307 1113.28 776.349 1118.43 Q780.423 1123.59 780.423 1131.99 Q780.423 1140.39 776.349 1145.55 Q772.307 1150.71 765.814 1150.71 Q761.899 1150.71 759.066 1149.18 Q756.266 1147.62 754.42 1144.44 M774.344 1131.99 Q774.344 1125.53 771.671 1121.87 Q769.029 1118.18 764.382 1118.18 Q759.735 1118.18 757.061 1121.87 Q754.42 1125.53 754.42 1131.99 Q754.42 1138.45 757.061 1142.14 Q759.735 1145.81 764.382 1145.81 Q769.029 1145.81 771.671 1142.14 Q774.344 1138.45 774.344 1131.99 Z" fill="#000000" fill-rule="evenodd" fill-opacity="1" /><path clip-path="url(#clip910)" d="M 0 0 M785.962 1135.72 L785.962 1114.14 L791.818 1114.14 L791.818 1135.49 Q791.818 1140.55 793.791 1143.1 Q795.765 1145.61 799.712 1145.61 Q804.454 1145.61 807.191 1142.59 Q809.96 1139.57 809.96 1134.35 L809.96 1114.14 L815.817 1114.14 L815.817 1149.78 L809.96 1149.78 L809.96 1144.31 Q807.828 1147.56 804.995 1149.15 Q802.194 1150.71 798.47 1150.71 Q792.327 1150.71 789.144 1146.89 Q785.962 1143.07 785.962 1135.72 M800.698 1113.28 L800.698 1113.28 Z" fill="#000000" fill-rule="evenodd" fill-opacity="1" /><path clip-path="url(#clip910)" d="M 0 0 M827.752 1104.01 L827.752 1114.14 L839.815 1114.14 L839.815 1118.69 L827.752 1118.69 L827.752 1138.04 Q827.752 1142.4 828.93 1143.64 Q830.14 1144.88 833.8 1144.88 L839.815 1144.88 L839.815 1149.78 L833.8 1149.78 Q827.02 1149.78 824.442 1147.27 Q821.864 1144.72 821.864 1138.04 L821.864 1118.69 L817.567 1118.69 L817.567 1114.14 L821.864 1114.14 L821.864 1104.01 L827.752 1104.01 Z" fill="#000000" fill-rule="evenodd" fill-opacity="1" /><path clip-path="url(#clip910)" d="M 0 0 M892.333 1115.5 L892.333 1120.98 Q889.85 1119.61 887.335 1118.94 Q884.853 1118.24 882.307 1118.24 Q876.609 1118.24 873.458 1121.87 Q870.307 1125.47 870.307 1131.99 Q870.307 1138.52 873.458 1142.14 Q876.609 1145.74 882.307 1145.74 Q884.853 1145.74 887.335 1145.07 Q889.85 1144.37 892.333 1143 L892.333 1148.42 Q889.882 1149.56 887.24 1150.13 Q884.63 1150.71 881.67 1150.71 Q873.617 1150.71 868.875 1145.65 Q864.132 1140.59 864.132 1131.99 Q864.132 1123.27 868.907 1118.27 Q873.713 1113.28 882.052 1113.28 Q884.757 1113.28 887.335 1113.85 Q889.914 1114.39 892.333 1115.5 Z" fill="#000000" fill-rule="evenodd" fill-opacity="1" /><path clip-path="url(#clip910)" d="M 0 0 M897.871 1135.72 L897.871 1114.14 L903.727 1114.14 L903.727 1135.49 Q903.727 1140.55 905.701 1143.1 Q907.674 1145.61 911.621 1145.61 Q916.363 1145.61 919.1 1142.59 Q921.869 1139.57 921.869 1134.35 L921.869 1114.14 L927.726 1114.14 L927.726 1149.78 L921.869 1149.78 L921.869 1144.31 Q919.737 1147.56 916.904 1149.15 Q914.103 1150.71 910.379 1150.71 Q904.236 1150.71 901.054 1146.89 Q897.871 1143.07 897.871 1135.72 M912.607 1113.28 L912.607 1113.28 Z" fill="#000000" fill-rule="evenodd" fill-opacity="1" /><path clip-path="url(#clip910)" d="M 0 0 M954.526 1119.61 Q953.539 1119.04 952.361 1118.78 Q951.215 1118.5 949.815 1118.5 Q944.85 1118.5 942.176 1121.74 Q939.534 1124.96 939.534 1131.01 L939.534 1149.78 L933.646 1149.78 L933.646 1114.14 L939.534 1114.14 L939.534 1119.67 Q941.38 1116.43 944.34 1114.87 Q947.3 1113.28 951.534 1113.28 Q952.138 1113.28 952.87 1113.37 Q953.602 1113.44 954.494 1113.59 L954.526 1119.61 Z" fill="#000000" fill-rule="evenodd" fill-opacity="1" /><path clip-path="url(#clip910)" d="M 0 0 M980.179 1119.61 Q979.193 1119.04 978.015 1118.78 Q976.869 1118.5 975.469 1118.5 Q970.503 1118.5 967.83 1121.74 Q965.188 1124.96 965.188 1131.01 L965.188 1149.78 L959.3 1149.78 L959.3 1114.14 L965.188 1114.14 L965.188 1119.67 Q967.034 1116.43 969.994 1114.87 Q972.954 1113.28 977.187 1113.28 Q977.792 1113.28 978.524 1113.37 Q979.256 1113.44 980.147 1113.59 L980.179 1119.61 Z" fill="#000000" fill-rule="evenodd" fill-opacity="1" /><path clip-path="url(#clip910)" d="M 0 0 M1015.38 1130.5 L1015.38 1133.36 L988.455 1133.36 Q988.837 1139.41 992.083 1142.59 Q995.362 1145.74 1001.19 1145.74 Q1004.56 1145.74 1007.71 1144.91 Q1010.89 1144.09 1014.01 1142.43 L1014.01 1147.97 Q1010.86 1149.31 1007.55 1150.01 Q1004.24 1150.71 1000.84 1150.71 Q992.306 1150.71 987.309 1145.74 Q982.344 1140.78 982.344 1132.31 Q982.344 1123.56 987.054 1118.43 Q991.797 1113.28 999.818 1113.28 Q1007.01 1113.28 1011.18 1117.92 Q1015.38 1122.54 1015.38 1130.5 M1009.53 1128.78 Q1009.46 1123.97 1006.82 1121.11 Q1004.21 1118.24 999.881 1118.24 Q994.98 1118.24 992.02 1121.01 Q989.091 1123.78 988.646 1128.81 L1009.53 1128.78 Z" fill="#000000" fill-rule="evenodd" fill-opacity="1" /><path clip-path="url(#clip910)" d="M 0 0 M1051.16 1128.27 L1051.16 1149.78 L1045.3 1149.78 L1045.3 1128.46 Q1045.3 1123.4 1043.33 1120.88 Q1041.35 1118.37 1037.41 1118.37 Q1032.66 1118.37 1029.93 1121.39 Q1027.19 1124.42 1027.19 1129.64 L1027.19 1149.78 L1021.3 1149.78 L1021.3 1114.14 L1027.19 1114.14 L1027.19 1119.67 Q1029.29 1116.46 1032.12 1114.87 Q1034.99 1113.28 1038.71 1113.28 Q1044.85 1113.28 1048.01 1117.1 Q1051.16 1120.88 1051.16 1128.27 Z" fill="#000000" fill-rule="evenodd" fill-opacity="1" /><path clip-path="url(#clip910)" d="M 0 0 M1063.09 1104.01 L1063.09 1114.14 L1075.16 1114.14 L1075.16 1118.69 L1063.09 1118.69 L1063.09 1138.04 Q1063.09 1142.4 1064.27 1143.64 Q1065.48 1144.88 1069.14 1144.88 L1075.16 1144.88 L1075.16 1149.78 L1069.14 1149.78 Q1062.36 1149.78 1059.78 1147.27 Q1057.2 1144.72 1057.2 1138.04 L1057.2 1118.69 L1052.91 1118.69 L1052.91 1114.14 L1057.2 1114.14 L1057.2 1104.01 L1063.09 1104.01 Z" fill="#000000" fill-rule="evenodd" fill-opacity="1" /><polyline clip-path="url(#clip912)" style="stroke:#000000; stroke-width:2; stroke-opacity:0.1; fill:none" points="
  222.806,989.476 1552.76,989.476 
  "/>
<polyline clip-path="url(#clip912)" style="stroke:#000000; stroke-width:2; stroke-opacity:0.1; fill:none" points="
  222.806,760.779 1552.76,760.779 
  "/>
<polyline clip-path="url(#clip912)" style="stroke:#000000; stroke-width:2; stroke-opacity:0.1; fill:none" points="
  222.806,532.082 1552.76,532.082 
  "/>
<polyline clip-path="url(#clip912)" style="stroke:#000000; stroke-width:2; stroke-opacity:0.1; fill:none" points="
  222.806,303.385 1552.76,303.385 
  "/>
<polyline clip-path="url(#clip912)" style="stroke:#000000; stroke-width:2; stroke-opacity:0.1; fill:none" points="
  222.806,74.6877 1552.76,74.6877 
  "/>
<polyline clip-path="url(#clip910)" style="stroke:#000000; stroke-width:4; stroke-opacity:1; fill:none" points="
  222.806,1016.92 222.806,47.2441 
  "/>
<polyline clip-path="url(#clip910)" style="stroke:#000000; stroke-width:4; stroke-opacity:1; fill:none" points="
  222.806,989.476 238.766,989.476 
  "/>
<polyline clip-path="url(#clip910)" style="stroke:#000000; stroke-width:4; stroke-opacity:1; fill:none" points="
  222.806,760.779 238.766,760.779 
  "/>
<polyline clip-path="url(#clip910)" style="stroke:#000000; stroke-width:4; stroke-opacity:1; fill:none" points="
  222.806,532.082 238.766,532.082 
  "/>
<polyline clip-path="url(#clip910)" style="stroke:#000000; stroke-width:4; stroke-opacity:1; fill:none" points="
  222.806,303.385 238.766,303.385 
  "/>
<polyline clip-path="url(#clip910)" style="stroke:#000000; stroke-width:4; stroke-opacity:1; fill:none" points="
  222.806,74.6877 238.766,74.6877 
  "/>
<path clip-path="url(#clip910)" d="M 0 0 M186.862 975.275 Q183.251 975.275 181.422 978.84 Q179.617 982.381 179.617 989.511 Q179.617 996.617 181.422 1000.18 Q183.251 1003.72 186.862 1003.72 Q190.496 1003.72 192.302 1000.18 Q194.13 996.617 194.13 989.511 Q194.13 982.381 192.302 978.84 Q190.496 975.275 186.862 975.275 M186.862 971.571 Q192.672 971.571 195.728 976.178 Q198.806 980.761 198.806 989.511 Q198.806 998.238 195.728 1002.84 Q192.672 1007.43 186.862 1007.43 Q181.052 1007.43 177.973 1002.84 Q174.917 998.238 174.917 989.511 Q174.917 980.761 177.973 976.178 Q181.052 971.571 186.862 971.571 Z" fill="#000000" fill-rule="evenodd" fill-opacity="1" /><path clip-path="url(#clip910)" d="M 0 0 M156.469 774.124 L172.788 774.124 L172.788 778.059 L150.844 778.059 L150.844 774.124 Q153.506 771.369 158.089 766.74 Q162.695 762.087 163.876 760.744 Q166.121 758.221 167.001 756.485 Q167.904 754.726 167.904 753.036 Q167.904 750.281 165.959 748.545 Q164.038 746.809 160.936 746.809 Q158.737 746.809 156.283 747.573 Q153.853 748.337 151.075 749.888 L151.075 745.166 Q153.899 744.031 156.353 743.453 Q158.806 742.874 160.843 742.874 Q166.214 742.874 169.408 745.559 Q172.603 748.244 172.603 752.735 Q172.603 754.865 171.792 756.786 Q171.005 758.684 168.899 761.277 Q168.32 761.948 165.218 765.166 Q162.117 768.36 156.469 774.124 Z" fill="#000000" fill-rule="evenodd" fill-opacity="1" /><path clip-path="url(#clip910)" d="M 0 0 M177.904 743.499 L196.26 743.499 L196.26 747.434 L182.186 747.434 L182.186 755.906 Q183.204 755.559 184.223 755.397 Q185.241 755.212 186.26 755.212 Q192.047 755.212 195.427 758.383 Q198.806 761.555 198.806 766.971 Q198.806 772.55 195.334 775.652 Q191.862 778.73 185.542 778.73 Q183.367 778.73 181.098 778.36 Q178.853 777.99 176.445 777.249 L176.445 772.55 Q178.529 773.684 180.751 774.24 Q182.973 774.795 185.45 774.795 Q189.454 774.795 191.792 772.689 Q194.13 770.582 194.13 766.971 Q194.13 763.36 191.792 761.254 Q189.454 759.147 185.45 759.147 Q183.575 759.147 181.7 759.564 Q179.848 759.98 177.904 760.86 L177.904 743.499 Z" fill="#000000" fill-rule="evenodd" fill-opacity="1" /><path clip-path="url(#clip910)" d="M 0 0 M150.89 514.802 L169.246 514.802 L169.246 518.737 L155.172 518.737 L155.172 527.209 Q156.191 526.862 157.209 526.7 Q158.228 526.515 159.246 526.515 Q165.033 526.515 168.413 529.686 Q171.792 532.857 171.792 538.274 Q171.792 543.853 168.32 546.955 Q164.848 550.033 158.529 550.033 Q156.353 550.033 154.084 549.663 Q151.839 549.293 149.432 548.552 L149.432 543.853 Q151.515 544.987 153.737 545.543 Q155.959 546.098 158.436 546.098 Q162.441 546.098 164.779 543.992 Q167.117 541.885 167.117 538.274 Q167.117 534.663 164.779 532.557 Q162.441 530.45 158.436 530.45 Q156.561 530.45 154.686 530.867 Q152.834 531.283 150.89 532.163 L150.89 514.802 Z" fill="#000000" fill-rule="evenodd" fill-opacity="1" /><path clip-path="url(#clip910)" d="M 0 0 M186.862 517.881 Q183.251 517.881 181.422 521.445 Q179.617 524.987 179.617 532.117 Q179.617 539.223 181.422 542.788 Q183.251 546.33 186.862 546.33 Q190.496 546.33 192.302 542.788 Q194.13 539.223 194.13 532.117 Q194.13 524.987 192.302 521.445 Q190.496 517.881 186.862 517.881 M186.862 514.177 Q192.672 514.177 195.728 518.783 Q198.806 523.367 198.806 532.117 Q198.806 540.843 195.728 545.45 Q192.672 550.033 186.862 550.033 Q181.052 550.033 177.973 545.45 Q174.917 540.843 174.917 532.117 Q174.917 523.367 177.973 518.783 Q181.052 514.177 186.862 514.177 Z" fill="#000000" fill-rule="evenodd" fill-opacity="1" /><path clip-path="url(#clip910)" d="M 0 0 M150.566 286.105 L172.788 286.105 L172.788 288.096 L160.242 320.665 L155.357 320.665 L167.163 290.04 L150.566 290.04 L150.566 286.105 Z" fill="#000000" fill-rule="evenodd" fill-opacity="1" /><path clip-path="url(#clip910)" d="M 0 0 M177.904 286.105 L196.26 286.105 L196.26 290.04 L182.186 290.04 L182.186 298.512 Q183.204 298.165 184.223 298.003 Q185.241 297.818 186.26 297.818 Q192.047 297.818 195.427 300.989 Q198.806 304.16 198.806 309.577 Q198.806 315.156 195.334 318.257 Q191.862 321.336 185.542 321.336 Q183.367 321.336 181.098 320.966 Q178.853 320.595 176.445 319.855 L176.445 315.156 Q178.529 316.29 180.751 316.845 Q182.973 317.401 185.45 317.401 Q189.454 317.401 191.792 315.295 Q194.13 313.188 194.13 309.577 Q194.13 305.966 191.792 303.859 Q189.454 301.753 185.45 301.753 Q183.575 301.753 181.7 302.17 Q179.848 302.586 177.904 303.466 L177.904 286.105 Z" fill="#000000" fill-rule="evenodd" fill-opacity="1" /><path clip-path="url(#clip910)" d="M 0 0 M124.871 88.0326 L132.51 88.0326 L132.51 61.667 L124.2 63.3336 L124.2 59.0744 L132.464 57.4077 L137.14 57.4077 L137.14 88.0326 L144.779 88.0326 L144.779 91.9677 L124.871 91.9677 L124.871 88.0326 Z" fill="#000000" fill-rule="evenodd" fill-opacity="1" /><path clip-path="url(#clip910)" d="M 0 0 M159.848 60.4864 Q156.237 60.4864 154.408 64.0512 Q152.603 67.5929 152.603 74.7225 Q152.603 81.8289 154.408 85.3937 Q156.237 88.9354 159.848 88.9354 Q163.482 88.9354 165.288 85.3937 Q167.117 81.8289 167.117 74.7225 Q167.117 67.5929 165.288 64.0512 Q163.482 60.4864 159.848 60.4864 M159.848 56.7828 Q165.658 56.7828 168.714 61.3892 Q171.792 65.9725 171.792 74.7225 Q171.792 83.4493 168.714 88.0557 Q165.658 92.639 159.848 92.639 Q154.038 92.639 150.959 88.0557 Q147.904 83.4493 147.904 74.7225 Q147.904 65.9725 150.959 61.3892 Q154.038 56.7828 159.848 56.7828 Z" fill="#000000" fill-rule="evenodd" fill-opacity="1" /><path clip-path="url(#clip910)" d="M 0 0 M186.862 60.4864 Q183.251 60.4864 181.422 64.0512 Q179.617 67.5929 179.617 74.7225 Q179.617 81.8289 181.422 85.3937 Q183.251 88.9354 186.862 88.9354 Q190.496 88.9354 192.302 85.3937 Q194.13 81.8289 194.13 74.7225 Q194.13 67.5929 192.302 64.0512 Q190.496 60.4864 186.862 60.4864 M186.862 56.7828 Q192.672 56.7828 195.728 61.3892 Q198.806 65.9725 198.806 74.7225 Q198.806 83.4493 195.728 88.0557 Q192.672 92.639 186.862 92.639 Q181.052 92.639 177.973 88.0557 Q174.917 83.4493 174.917 74.7225 Q174.917 65.9725 177.973 61.3892 Q181.052 56.7828 186.862 56.7828 Z" fill="#000000" fill-rule="evenodd" fill-opacity="1" /><path clip-path="url(#clip910)" d="M 0 0 M38.4242 742.866 L38.4242 715.558 L43.835 715.558 L43.835 736.437 L57.8396 736.437 L57.8396 717.595 L63.2504 717.595 L63.2504 736.437 L85.9442 736.437 L85.9442 742.866 L38.4242 742.866 Z" fill="#000000" fill-rule="evenodd" fill-opacity="1" /><path clip-path="url(#clip910)" d="M 0 0 M50.2962 714.157 L50.2962 708.301 L85.9442 708.301 L85.9442 714.157 L50.2962 714.157 M36.419 714.157 L36.419 708.301 L43.835 708.301 L43.835 714.157 L36.419 714.157 Z" fill="#000000" fill-rule="evenodd" fill-opacity="1" /><path clip-path="url(#clip910)" d="M 0 0 M55.7707 681.501 Q55.1978 682.488 54.9432 683.665 Q54.6567 684.811 54.6567 686.212 Q54.6567 691.177 57.9032 693.85 Q61.1179 696.492 67.1653 696.492 L85.9442 696.492 L85.9442 702.381 L50.2962 702.381 L50.2962 696.492 L55.8344 696.492 Q52.5879 694.646 51.0283 691.686 Q49.4368 688.726 49.4368 684.493 Q49.4368 683.888 49.5323 683.156 Q49.596 682.424 49.7551 681.533 L55.7707 681.501 Z" fill="#000000" fill-rule="evenodd" fill-opacity="1" /><path clip-path="url(#clip910)" d="M 0 0 M50.2962 675.358 L50.2962 669.502 L85.9442 669.502 L85.9442 675.358 L50.2962 675.358 M36.419 675.358 L36.419 669.502 L43.835 669.502 L43.835 675.358 L36.419 675.358 Z" fill="#000000" fill-rule="evenodd" fill-opacity="1" /><path clip-path="url(#clip910)" d="M 0 0 M64.4281 633.726 L85.9442 633.726 L85.9442 639.583 L64.619 639.583 Q59.5583 639.583 57.0438 641.556 Q54.5294 643.53 54.5294 647.476 Q54.5294 652.219 57.5531 654.956 Q60.5768 657.693 65.7967 657.693 L85.9442 657.693 L85.9442 663.582 L50.2962 663.582 L50.2962 657.693 L55.8344 657.693 Q52.6197 655.593 51.0283 652.76 Q49.4368 649.895 49.4368 646.171 Q49.4368 640.028 53.2563 636.877 Q57.0438 633.726 64.4281 633.726 Z" fill="#000000" fill-rule="evenodd" fill-opacity="1" /><path clip-path="url(#clip910)" d="M 0 0 M67.7064 604.126 Q61.3407 604.126 57.8396 606.768 Q54.3384 609.378 54.3384 614.12 Q54.3384 618.831 57.8396 621.472 Q61.3407 624.082 67.7064 624.082 Q74.0403 624.082 77.5414 621.472 Q81.0426 618.831 81.0426 614.12 Q81.0426 609.378 77.5414 606.768 Q74.0403 604.126 67.7064 604.126 M81.52 598.269 Q90.623 598.269 95.0471 602.312 Q99.5031 606.354 99.5031 614.693 Q99.5031 617.78 99.0257 620.518 Q98.5801 623.255 97.6252 625.833 L91.9279 625.833 Q93.3284 623.255 93.9968 620.74 Q94.6652 618.226 94.6652 615.616 Q94.6652 609.855 91.6415 606.99 Q88.6496 604.126 82.5703 604.126 L79.6739 604.126 Q82.825 605.94 84.3846 608.773 Q85.9442 611.606 85.9442 615.552 Q85.9442 622.109 80.9471 626.119 Q75.95 630.13 67.7064 630.13 Q59.431 630.13 54.4339 626.119 Q49.4368 622.109 49.4368 615.552 Q49.4368 611.606 50.9964 608.773 Q52.556 605.94 55.7071 604.126 L50.2962 604.126 L50.2962 598.269 L81.52 598.269 Z" fill="#000000" fill-rule="evenodd" fill-opacity="1" /><path clip-path="url(#clip910)" d="M 0 0 M55.7707 550.749 Q55.1978 551.736 54.9432 552.914 Q54.6567 554.06 54.6567 555.46 Q54.6567 560.425 57.9032 563.099 Q61.1179 565.741 67.1653 565.741 L85.9442 565.741 L85.9442 571.629 L50.2962 571.629 L50.2962 565.741 L55.8344 565.741 Q52.5879 563.895 51.0283 560.935 Q49.4368 557.974 49.4368 553.741 Q49.4368 553.137 49.5323 552.404 Q49.596 551.672 49.7551 550.781 L55.7707 550.749 Z" fill="#000000" fill-rule="evenodd" fill-opacity="1" /><path clip-path="url(#clip910)" d="M 0 0 M68.0247 528.406 Q68.0247 535.504 69.6479 538.241 Q71.2712 540.978 75.1861 540.978 Q78.3053 540.978 80.1514 538.941 Q81.9656 536.872 81.9656 533.339 Q81.9656 528.469 78.5281 525.541 Q75.0588 522.581 69.3297 522.581 L68.0247 522.581 L68.0247 528.406 M65.6057 516.725 L85.9442 516.725 L85.9442 522.581 L80.5333 522.581 Q83.7798 524.586 85.3394 527.578 Q86.8672 530.57 86.8672 534.899 Q86.8672 540.373 83.8116 543.62 Q80.7243 546.834 75.5681 546.834 Q69.5525 546.834 66.4969 542.824 Q63.4414 538.782 63.4414 530.793 L63.4414 522.581 L62.8685 522.581 Q58.8262 522.581 56.6301 525.255 Q54.4021 527.897 54.4021 532.703 Q54.4021 535.758 55.1341 538.655 Q55.8662 541.551 57.3303 544.225 L51.9195 544.225 Q50.6781 541.01 50.0734 537.986 Q49.4368 534.962 49.4368 532.098 Q49.4368 524.364 53.4472 520.544 Q57.4576 516.725 65.6057 516.725 Z" fill="#000000" fill-rule="evenodd" fill-opacity="1" /><path clip-path="url(#clip910)" d="M 0 0 M40.1747 504.789 L50.2962 504.789 L50.2962 492.726 L54.8477 492.726 L54.8477 504.789 L74.1994 504.789 Q78.5599 504.789 79.8013 503.611 Q81.0426 502.402 81.0426 498.742 L81.0426 492.726 L85.9442 492.726 L85.9442 498.742 Q85.9442 505.521 83.4297 508.099 Q80.8834 510.677 74.1994 510.677 L54.8477 510.677 L54.8477 514.974 L50.2962 514.974 L50.2962 510.677 L40.1747 510.677 L40.1747 504.789 Z" fill="#000000" fill-rule="evenodd" fill-opacity="1" /><path clip-path="url(#clip910)" d="M 0 0 M66.6561 456.091 L69.5206 456.091 L69.5206 483.018 Q75.5681 482.636 78.7509 479.39 Q81.9019 476.111 81.9019 470.287 Q81.9019 466.913 81.0744 463.762 Q80.2469 460.579 78.5918 457.46 L84.1299 457.46 Q85.4667 460.611 86.167 463.921 Q86.8672 467.231 86.8672 470.637 Q86.8672 479.167 81.9019 484.164 Q76.9367 489.129 68.4703 489.129 Q59.7174 489.129 54.5931 484.419 Q49.4368 479.676 49.4368 471.655 Q49.4368 464.462 54.0838 460.293 Q58.6989 456.091 66.6561 456.091 M64.9373 461.948 Q60.1312 462.011 57.2666 464.653 Q54.4021 467.263 54.4021 471.592 Q54.4021 476.493 57.1712 479.453 Q59.9402 482.382 64.9692 482.827 L64.9373 461.948 Z" fill="#000000" fill-rule="evenodd" fill-opacity="1" /><path clip-path="url(#clip910)" d="M 0 0 M36.4826 415.16 Q43.8032 419.425 50.9646 421.494 Q58.126 423.563 65.4784 423.563 Q72.8308 423.563 80.0559 421.494 Q87.2491 419.393 94.5379 415.16 L94.5379 420.252 Q87.0582 425.027 79.8331 427.414 Q72.608 429.769 65.4784 429.769 Q58.3806 429.769 51.1874 427.414 Q43.9942 425.059 36.4826 420.252 L36.4826 415.16 Z" fill="#000000" fill-rule="evenodd" fill-opacity="1" /><path clip-path="url(#clip910)" d="M 0 0 M38.4242 408.762 L38.4242 402.333 L57.9032 402.333 L57.9032 378.971 L38.4242 378.971 L38.4242 372.541 L85.9442 372.541 L85.9442 378.971 L63.3141 378.971 L63.3141 402.333 L85.9442 402.333 L85.9442 408.762 L38.4242 408.762 Z" fill="#000000" fill-rule="evenodd" fill-opacity="1" /><path clip-path="url(#clip910)" d="M 0 0 M50.2962 368.945 L50.2962 341.127 L55.6434 341.127 L81.2654 363.152 L81.2654 341.127 L85.9442 341.127 L85.9442 369.741 L80.597 369.741 L54.975 347.715 L54.975 368.945 L50.2962 368.945 Z" fill="#000000" fill-rule="evenodd" fill-opacity="1" /><path clip-path="url(#clip910)" d="M 0 0 M36.4826 335.907 L36.4826 330.814 Q43.9942 326.04 51.1874 323.685 Q58.3806 321.298 65.4784 321.298 Q72.608 321.298 79.8331 323.685 Q87.0582 326.04 94.5379 330.814 L94.5379 335.907 Q87.2491 331.674 80.0559 329.605 Q72.8308 327.504 65.4784 327.504 Q58.126 327.504 50.9646 329.605 Q43.8032 331.674 36.4826 335.907 Z" fill="#000000" fill-rule="evenodd" fill-opacity="1" /><polyline clip-path="url(#clip912)" style="stroke:#009af9; stroke-width:4; stroke-opacity:1; fill:none" points="
  260.446,989.476 273.12,989.476 285.793,989.476 298.467,989.476 311.14,989.476 323.813,980.328 336.487,980.328 349.16,980.328 361.834,980.328 374.507,980.328 
  387.181,980.328 399.854,980.328 412.527,980.328 425.201,980.328 437.874,980.328 450.548,980.328 463.221,980.328 475.895,971.18 488.568,504.638 501.241,477.195 
  513.915,458.899 526.588,440.603 539.262,431.455 551.935,422.307 564.609,413.159 577.282,404.012 589.955,394.864 602.629,385.716 615.302,376.568 627.976,367.42 
  640.649,367.42 653.323,358.272 665.996,349.124 678.67,339.976 691.343,339.976 704.016,330.829 716.69,321.681 729.363,321.681 742.037,312.533 754.71,303.385 
  767.383,303.385 780.057,294.237 792.73,294.237 805.404,285.089 818.077,285.089 830.751,275.941 843.424,275.941 856.097,266.793 868.771,257.645 881.444,257.645 
  894.118,248.498 906.791,248.498 919.465,239.35 932.138,239.35 944.812,239.35 957.485,230.202 970.158,230.202 982.832,221.054 995.505,221.054 1008.18,211.906 
  1020.85,211.906 1033.53,202.758 1046.2,202.758 1058.87,202.758 1071.55,193.61 1084.22,193.61 1096.89,184.462 1109.57,184.462 1122.24,175.314 1134.91,175.314 
  1147.59,175.314 1160.26,166.167 1172.93,166.167 1185.61,157.019 1198.28,157.019 1210.95,157.019 1223.63,147.871 1236.3,147.871 1248.97,385.716 1261.65,138.723 
  1274.32,138.723 1286.99,129.575 1299.67,129.575 1312.34,129.575 1325.01,120.427 1337.69,120.427 1350.36,120.427 1363.03,111.279 1375.71,111.279 1388.38,111.279 
  1401.05,102.131 1413.73,102.131 1426.4,102.131 1439.08,92.9835 1451.75,92.9835 1464.42,92.9835 1477.1,83.8356 1489.77,83.8356 1502.44,83.8356 1515.12,74.6877 
  
  "/>
</svg>
