<?xml version="1.0" encoding="utf-8"?>
<svg xmlns="http://www.w3.org/2000/svg" xmlns:xlink="http://www.w3.org/1999/xlink" width="400" height="300" viewBox="0 0 1600 1200">
<defs>
  <clipPath id="clip590">
    <rect x="0" y="0" width="1600" height="1200"/>
  </clipPath>
</defs>
<path clip-path="url(#clip590)" d="
M0 1200 L1600 1200 L1600 0 L0 0  Z
  " fill="#ffffff" fill-rule="evenodd" fill-opacity="1"/>
<defs>
  <clipPath id="clip591">
    <rect x="320" y="0" width="1121" height="1121"/>
  </clipPath>
</defs>
<path clip-path="url(#clip590)" d="
M222.806 1016.92 L1552.76 1016.92 L1552.76 47.2441 L222.806 47.2441  Z
  " fill="#ffffff" fill-rule="evenodd" fill-opacity="1"/>
<defs>
  <clipPath id="clip592">
    <rect x="222" y="47" width="1331" height="971"/>
  </clipPath>
</defs>
<polyline clip-path="url(#clip592)" style="stroke:#000000; stroke-width:2; stroke-opacity:0.1; fill:none" points="
  260.446,1016.92 260.446,47.2441 
  "/>
<polyline clip-path="url(#clip592)" style="stroke:#000000; stroke-width:2; stroke-opacity:0.1; fill:none" points="
  511.38,1016.92 511.38,47.2441 
  "/>
<polyline clip-path="url(#clip592)" style="stroke:#000000; stroke-width:2; stroke-opacity:0.1; fill:none" points="
  762.314,1016.92 762.314,47.2441 
  "/>
<polyline clip-path="url(#clip592)" style="stroke:#000000; stroke-width:2; stroke-opacity:0.1; fill:none" points="
  1013.25,1016.92 1013.25,47.2441 
  "/>
<polyline clip-path="url(#clip592)" style="stroke:#000000; stroke-width:2; stroke-opacity:0.1; fill:none" points="
  1264.18,1016.92 1264.18,47.2441 
  "/>
<polyline clip-path="url(#clip592)" style="stroke:#000000; stroke-width:2; stroke-opacity:0.1; fill:none" points="
  1515.12,1016.92 1515.12,47.2441 
  "/>
<polyline clip-path="url(#clip590)" style="stroke:#000000; stroke-width:4; stroke-opacity:1; fill:none" points="
  222.806,1016.92 1552.76,1016.92 
  "/>
<polyline clip-path="url(#clip590)" style="stroke:#000000; stroke-width:4; stroke-opacity:1; fill:none" points="
  260.446,1016.92 260.446,1005.28 
  "/>
<polyline clip-path="url(#clip590)" style="stroke:#000000; stroke-width:4; stroke-opacity:1; fill:none" points="
  511.38,1016.92 511.38,1005.28 
  "/>
<polyline clip-path="url(#clip590)" style="stroke:#000000; stroke-width:4; stroke-opacity:1; fill:none" points="
  762.314,1016.92 762.314,1005.28 
  "/>
<polyline clip-path="url(#clip590)" style="stroke:#000000; stroke-width:4; stroke-opacity:1; fill:none" points="
  1013.25,1016.92 1013.25,1005.28 
  "/>
<polyline clip-path="url(#clip590)" style="stroke:#000000; stroke-width:4; stroke-opacity:1; fill:none" points="
  1264.18,1016.92 1264.18,1005.28 
  "/>
<polyline clip-path="url(#clip590)" style="stroke:#000000; stroke-width:4; stroke-opacity:1; fill:none" points="
  1515.12,1016.92 1515.12,1005.28 
  "/>
<path clip-path="url(#clip590)" d="M 0 0 M237.819 1067.26 L245.458 1067.26 L245.458 1040.89 L237.148 1042.56 L237.148 1038.3 L245.412 1036.63 L250.088 1036.63 L250.088 1067.26 L257.726 1067.26 L257.726 1071.19 L237.819 1071.19 L237.819 1067.26 Z" fill="#000000" fill-rule="evenodd" fill-opacity="1" /><path clip-path="url(#clip590)" d="M 0 0 M262.842 1036.63 L281.199 1036.63 L281.199 1040.57 L267.125 1040.57 L267.125 1049.04 Q268.143 1048.69 269.162 1048.53 Q270.18 1048.34 271.199 1048.34 Q276.986 1048.34 280.365 1051.52 Q283.745 1054.69 283.745 1060.1 Q283.745 1065.68 280.273 1068.78 Q276.8 1071.86 270.481 1071.86 Q268.305 1071.86 266.037 1071.49 Q263.791 1071.12 261.384 1070.38 L261.384 1065.68 Q263.467 1066.82 265.689 1067.37 Q267.912 1067.93 270.388 1067.93 Q274.393 1067.93 276.731 1065.82 Q279.069 1063.72 279.069 1060.1 Q279.069 1056.49 276.731 1054.39 Q274.393 1052.28 270.388 1052.28 Q268.513 1052.28 266.638 1052.7 Q264.787 1053.11 262.842 1053.99 L262.842 1036.63 Z" fill="#000000" fill-rule="evenodd" fill-opacity="1" /><path clip-path="url(#clip590)" d="M 0 0 M492.526 1067.26 L508.846 1067.26 L508.846 1071.19 L486.901 1071.19 L486.901 1067.26 Q489.563 1064.5 494.147 1059.87 Q498.753 1055.22 499.934 1053.88 Q502.179 1051.35 503.059 1049.62 Q503.961 1047.86 503.961 1046.17 Q503.961 1043.41 502.017 1041.68 Q500.096 1039.94 496.994 1039.94 Q494.795 1039.94 492.341 1040.71 Q489.91 1041.47 487.133 1043.02 L487.133 1038.3 Q489.957 1037.16 492.41 1036.59 Q494.864 1036.01 496.901 1036.01 Q502.271 1036.01 505.466 1038.69 Q508.66 1041.38 508.66 1045.87 Q508.66 1048 507.85 1049.92 Q507.063 1051.82 504.957 1054.41 Q504.378 1055.08 501.276 1058.3 Q498.174 1061.49 492.526 1067.26 Z" fill="#000000" fill-rule="evenodd" fill-opacity="1" /><path clip-path="url(#clip590)" d="M 0 0 M523.915 1039.71 Q520.304 1039.71 518.475 1043.28 Q516.67 1046.82 516.67 1053.95 Q516.67 1061.05 518.475 1064.62 Q520.304 1068.16 523.915 1068.16 Q527.549 1068.16 529.355 1064.62 Q531.183 1061.05 531.183 1053.95 Q531.183 1046.82 529.355 1043.28 Q527.549 1039.71 523.915 1039.71 M523.915 1036.01 Q529.725 1036.01 532.781 1040.61 Q535.859 1045.2 535.859 1053.95 Q535.859 1062.67 532.781 1067.28 Q529.725 1071.86 523.915 1071.86 Q518.105 1071.86 515.026 1067.28 Q511.97 1062.67 511.97 1053.95 Q511.97 1045.2 515.026 1040.61 Q518.105 1036.01 523.915 1036.01 Z" fill="#000000" fill-rule="evenodd" fill-opacity="1" /><path clip-path="url(#clip590)" d="M 0 0 M743.958 1067.26 L760.277 1067.26 L760.277 1071.19 L738.333 1071.19 L738.333 1067.26 Q740.995 1064.5 745.578 1059.87 Q750.185 1055.22 751.365 1053.88 Q753.61 1051.35 754.49 1049.62 Q755.393 1047.86 755.393 1046.17 Q755.393 1043.41 753.448 1041.68 Q751.527 1039.94 748.425 1039.94 Q746.226 1039.94 743.773 1040.71 Q741.342 1041.47 738.564 1043.02 L738.564 1038.3 Q741.388 1037.16 743.842 1036.59 Q746.296 1036.01 748.333 1036.01 Q753.703 1036.01 756.897 1038.69 Q760.092 1041.38 760.092 1045.87 Q760.092 1048 759.282 1049.92 Q758.495 1051.82 756.388 1054.41 Q755.81 1055.08 752.708 1058.3 Q749.606 1061.49 743.958 1067.26 Z" fill="#000000" fill-rule="evenodd" fill-opacity="1" /><path clip-path="url(#clip590)" d="M 0 0 M765.393 1036.63 L783.749 1036.63 L783.749 1040.57 L769.675 1040.57 L769.675 1049.04 Q770.694 1048.69 771.712 1048.53 Q772.731 1048.34 773.749 1048.34 Q779.536 1048.34 782.916 1051.52 Q786.295 1054.69 786.295 1060.1 Q786.295 1065.68 782.823 1068.78 Q779.351 1071.86 773.032 1071.86 Q770.856 1071.86 768.587 1071.49 Q766.342 1071.12 763.934 1070.38 L763.934 1065.68 Q766.018 1066.82 768.24 1067.37 Q770.462 1067.93 772.939 1067.93 Q776.944 1067.93 779.282 1065.82 Q781.62 1063.72 781.62 1060.1 Q781.62 1056.49 779.282 1054.39 Q776.944 1052.28 772.939 1052.28 Q771.064 1052.28 769.189 1052.7 Q767.337 1053.11 765.393 1053.99 L765.393 1036.63 Z" fill="#000000" fill-rule="evenodd" fill-opacity="1" /><path clip-path="url(#clip590)" d="M 0 0 M1003.99 1052.56 Q1007.35 1053.28 1009.22 1055.54 Q1011.12 1057.81 1011.12 1061.15 Q1011.12 1066.26 1007.6 1069.06 Q1004.08 1071.86 997.6 1071.86 Q995.424 1071.86 993.109 1071.42 Q990.818 1071.01 988.364 1070.15 L988.364 1065.64 Q990.308 1066.77 992.623 1067.35 Q994.938 1067.93 997.461 1067.93 Q1001.86 1067.93 1004.15 1066.19 Q1006.47 1064.46 1006.47 1061.15 Q1006.47 1058.09 1004.31 1056.38 Q1002.18 1054.64 998.364 1054.64 L994.336 1054.64 L994.336 1050.8 L998.549 1050.8 Q1002 1050.8 1003.83 1049.43 Q1005.66 1048.04 1005.66 1045.45 Q1005.66 1042.79 1003.76 1041.38 Q1001.88 1039.94 998.364 1039.94 Q996.443 1039.94 994.243 1040.36 Q992.044 1040.78 989.406 1041.65 L989.406 1037.49 Q992.068 1036.75 994.382 1036.38 Q996.72 1036.01 998.781 1036.01 Q1004.1 1036.01 1007.21 1038.44 Q1010.31 1040.84 1010.31 1044.97 Q1010.31 1047.84 1008.66 1049.83 Q1007.02 1051.79 1003.99 1052.56 Z" fill="#000000" fill-rule="evenodd" fill-opacity="1" /><path clip-path="url(#clip590)" d="M 0 0 M1026.19 1039.71 Q1022.58 1039.71 1020.75 1043.28 Q1018.94 1046.82 1018.94 1053.95 Q1018.94 1061.05 1020.75 1064.62 Q1022.58 1068.16 1026.19 1068.16 Q1029.82 1068.16 1031.63 1064.62 Q1033.46 1061.05 1033.46 1053.95 Q1033.46 1046.82 1031.63 1043.28 Q1029.82 1039.71 1026.19 1039.71 M1026.19 1036.01 Q1032 1036.01 1035.05 1040.61 Q1038.13 1045.2 1038.13 1053.95 Q1038.13 1062.67 1035.05 1067.28 Q1032 1071.86 1026.19 1071.86 Q1020.38 1071.86 1017.3 1067.28 Q1014.24 1062.67 1014.24 1053.95 Q1014.24 1045.2 1017.3 1040.61 Q1020.38 1036.01 1026.19 1036.01 Z" fill="#000000" fill-rule="evenodd" fill-opacity="1" /><path clip-path="url(#clip590)" d="M 0 0 M1255.42 1052.56 Q1258.78 1053.28 1260.65 1055.54 Q1262.55 1057.81 1262.55 1061.15 Q1262.55 1066.26 1259.03 1069.06 Q1255.51 1071.86 1249.03 1071.86 Q1246.86 1071.86 1244.54 1071.42 Q1242.25 1071.01 1239.8 1070.15 L1239.8 1065.64 Q1241.74 1066.77 1244.05 1067.35 Q1246.37 1067.93 1248.89 1067.93 Q1253.29 1067.93 1255.58 1066.19 Q1257.9 1064.46 1257.9 1061.15 Q1257.9 1058.09 1255.74 1056.38 Q1253.61 1054.64 1249.8 1054.64 L1245.77 1054.64 L1245.77 1050.8 L1249.98 1050.8 Q1253.43 1050.8 1255.26 1049.43 Q1257.09 1048.04 1257.09 1045.45 Q1257.09 1042.79 1255.19 1041.38 Q1253.31 1039.94 1249.8 1039.94 Q1247.87 1039.94 1245.68 1040.36 Q1243.48 1040.78 1240.84 1041.65 L1240.84 1037.49 Q1243.5 1036.75 1245.81 1036.38 Q1248.15 1036.01 1250.21 1036.01 Q1255.54 1036.01 1258.64 1038.44 Q1261.74 1040.84 1261.74 1044.97 Q1261.74 1047.84 1260.1 1049.83 Q1258.45 1051.79 1255.42 1052.56 Z" fill="#000000" fill-rule="evenodd" fill-opacity="1" /><path clip-path="url(#clip590)" d="M 0 0 M1267.67 1036.63 L1286.02 1036.63 L1286.02 1040.57 L1271.95 1040.57 L1271.95 1049.04 Q1272.97 1048.69 1273.99 1048.53 Q1275 1048.34 1276.02 1048.34 Q1281.81 1048.34 1285.19 1051.52 Q1288.57 1054.69 1288.57 1060.1 Q1288.57 1065.68 1285.1 1068.78 Q1281.62 1071.86 1275.3 1071.86 Q1273.13 1071.86 1270.86 1071.49 Q1268.61 1071.12 1266.21 1070.38 L1266.21 1065.68 Q1268.29 1066.82 1270.51 1067.37 Q1272.74 1067.93 1275.21 1067.93 Q1279.22 1067.93 1281.55 1065.82 Q1283.89 1063.72 1283.89 1060.1 Q1283.89 1056.49 1281.55 1054.39 Q1279.22 1052.28 1275.21 1052.28 Q1273.34 1052.28 1271.46 1052.7 Q1269.61 1053.11 1267.67 1053.99 L1267.67 1036.63 Z" fill="#000000" fill-rule="evenodd" fill-opacity="1" /><path clip-path="url(#clip590)" d="M 0 0 M1504.62 1040.71 L1492.81 1059.15 L1504.62 1059.15 L1504.62 1040.71 M1503.39 1036.63 L1509.27 1036.63 L1509.27 1059.15 L1514.2 1059.15 L1514.2 1063.04 L1509.27 1063.04 L1509.27 1071.19 L1504.62 1071.19 L1504.62 1063.04 L1489.02 1063.04 L1489.02 1058.53 L1503.39 1036.63 Z" fill="#000000" fill-rule="evenodd" fill-opacity="1" /><path clip-path="url(#clip590)" d="M 0 0 M1529.27 1039.71 Q1525.66 1039.71 1523.83 1043.28 Q1522.03 1046.82 1522.03 1053.95 Q1522.03 1061.05 1523.83 1064.62 Q1525.66 1068.16 1529.27 1068.16 Q1532.91 1068.16 1534.71 1064.62 Q1536.54 1061.05 1536.54 1053.95 Q1536.54 1046.82 1534.71 1043.28 Q1532.91 1039.71 1529.27 1039.71 M1529.27 1036.01 Q1535.08 1036.01 1538.14 1040.61 Q1541.22 1045.2 1541.22 1053.95 Q1541.22 1062.67 1538.14 1067.28 Q1535.08 1071.86 1529.27 1071.86 Q1523.46 1071.86 1520.38 1067.28 Q1517.33 1062.67 1517.33 1053.95 Q1517.33 1045.2 1520.38 1040.61 Q1523.46 1036.01 1529.27 1036.01 Z" fill="#000000" fill-rule="evenodd" fill-opacity="1" /><path clip-path="url(#clip590)" d="M 0 0 M700.406 1102.26 L706.836 1102.26 L706.836 1149.78 L700.406 1149.78 L700.406 1102.26 Z" fill="#000000" fill-rule="evenodd" fill-opacity="1" /><path clip-path="url(#clip590)" d="M 0 0 M742.611 1128.27 L742.611 1149.78 L736.755 1149.78 L736.755 1128.46 Q736.755 1123.4 734.781 1120.88 Q732.808 1118.37 728.861 1118.37 Q724.119 1118.37 721.382 1121.39 Q718.644 1124.42 718.644 1129.64 L718.644 1149.78 L712.756 1149.78 L712.756 1114.14 L718.644 1114.14 L718.644 1119.67 Q720.745 1116.46 723.578 1114.87 Q726.442 1113.28 730.166 1113.28 Q736.309 1113.28 739.46 1117.1 Q742.611 1120.88 742.611 1128.27 Z" fill="#000000" fill-rule="evenodd" fill-opacity="1" /><path clip-path="url(#clip590)" d="M 0 0 M754.42 1144.44 L754.42 1163.34 L748.531 1163.34 L748.531 1114.14 L754.42 1114.14 L754.42 1119.55 Q756.266 1116.36 759.066 1114.84 Q761.899 1113.28 765.814 1113.28 Q772.307 1113.28 776.349 1118.43 Q780.423 1123.59 780.423 1131.99 Q780.423 1140.39 776.349 1145.55 Q772.307 1150.71 765.814 1150.71 Q761.899 1150.71 759.066 1149.18 Q756.266 1147.62 754.42 1144.44 M774.344 1131.99 Q774.344 1125.53 771.671 1121.87 Q769.029 1118.18 764.382 1118.18 Q759.735 1118.18 757.061 1121.87 Q754.42 1125.53 754.42 1131.99 Q754.42 1138.45 757.061 1142.14 Q759.735 1145.81 764.382 1145.81 Q769.029 1145.81 771.671 1142.14 Q774.344 1138.45 774.344 1131.99 Z" fill="#000000" fill-rule="evenodd" fill-opacity="1" /><path clip-path="url(#clip590)" d="M 0 0 M785.962 1135.72 L785.962 1114.14 L791.818 1114.14 L791.818 1135.49 Q791.818 1140.55 793.791 1143.1 Q795.765 1145.61 799.712 1145.61 Q804.454 1145.61 807.191 1142.59 Q809.96 1139.57 809.96 1134.35 L809.96 1114.14 L815.817 1114.14 L815.817 1149.78 L809.96 1149.78 L809.96 1144.31 Q807.828 1147.56 804.995 1149.15 Q802.194 1150.71 798.47 1150.71 Q792.327 1150.71 789.144 1146.89 Q785.962 1143.07 785.962 1135.72 M800.698 1113.28 L800.698 1113.28 Z" fill="#000000" fill-rule="evenodd" fill-opacity="1" /><path clip-path="url(#clip590)" d="M 0 0 M827.752 1104.01 L827.752 1114.14 L839.815 1114.14 L839.815 1118.69 L827.752 1118.69 L827.752 1138.04 Q827.752 1142.4 828.93 1143.64 Q830.14 1144.88 833.8 1144.88 L839.815 1144.88 L839.815 1149.78 L833.8 1149.78 Q827.02 1149.78 824.442 1147.27 Q821.864 1144.72 821.864 1138.04 L821.864 1118.69 L817.567 1118.69 L817.567 1114.14 L821.864 1114.14 L821.864 1104.01 L827.752 1104.01 Z" fill="#000000" fill-rule="evenodd" fill-opacity="1" /><path clip-path="url(#clip590)" d="M 0 0 M892.333 1115.5 L892.333 1120.98 Q889.85 1119.61 887.335 1118.94 Q884.853 1118.24 882.307 1118.24 Q876.609 1118.24 873.458 1121.87 Q870.307 1125.47 870.307 1131.99 Q870.307 1138.52 873.458 1142.14 Q876.609 1145.74 882.307 1145.74 Q884.853 1145.74 887.335 1145.07 Q889.85 1144.37 892.333 1143 L892.333 1148.42 Q889.882 1149.56 887.24 1150.13 Q884.63 1150.71 881.67 1150.71 Q873.617 1150.71 868.875 1145.65 Q864.132 1140.59 864.132 1131.99 Q864.132 1123.27 868.907 1118.27 Q873.713 1113.28 882.052 1113.28 Q884.757 1113.28 887.335 1113.85 Q889.914 1114.39 892.333 1115.5 Z" fill="#000000" fill-rule="evenodd" fill-opacity="1" /><path clip-path="url(#clip590)" d="M 0 0 M897.871 1135.72 L897.871 1114.14 L903.727 1114.14 L903.727 1135.49 Q903.727 1140.55 905.701 1143.1 Q907.674 1145.61 911.621 1145.61 Q916.363 1145.61 919.1 1142.59 Q921.869 1139.57 921.869 1134.35 L921.869 1114.14 L927.726 1114.14 L927.726 1149.78 L921.869 1149.78 L921.869 1144.31 Q919.737 1147.56 916.904 1149.15 Q914.103 1150.71 910.379 1150.71 Q904.236 1150.71 901.054 1146.89 Q897.871 1143.07 897.871 1135.72 M912.607 1113.28 L912.607 1113.28 Z" fill="#000000" fill-rule="evenodd" fill-opacity="1" /><path clip-path="url(#clip590)" d="M 0 0 M954.526 1119.61 Q953.539 1119.04 952.361 1118.78 Q951.215 1118.5 949.815 1118.5 Q944.85 1118.5 942.176 1121.74 Q939.534 1124.96 939.534 1131.01 L939.534 1149.78 L933.646 1149.78 L933.646 1114.14 L939.534 1114.14 L939.534 1119.67 Q941.38 1116.43 944.34 1114.87 Q947.3 1113.28 951.534 1113.28 Q952.138 1113.28 952.87 1113.37 Q953.602 1113.44 954.494 1113.59 L954.526 1119.61 Z" fill="#000000" fill-rule="evenodd" fill-opacity="1" /><path clip-path="url(#clip590)" d="M 0 0 M980.179 1119.61 Q979.193 1119.04 978.015 1118.78 Q976.869 1118.5 975.469 1118.5 Q970.503 1118.5 967.83 1121.74 Q965.188 1124.96 965.188 1131.01 L965.188 1149.78 L959.3 1149.78 L959.3 1114.14 L965.188 1114.14 L965.188 1119.67 Q967.034 1116.43 969.994 1114.87 Q972.954 1113.28 977.187 1113.28 Q977.792 1113.28 978.524 1113.37 Q979.256 1113.44 980.147 1113.59 L980.179 1119.61 Z" fill="#000000" fill-rule="evenodd" fill-opacity="1" /><path clip-path="url(#clip590)" d="M 0 0 M1015.38 1130.5 L1015.38 1133.36 L988.455 1133.36 Q988.837 1139.41 992.083 1142.59 Q995.362 1145.74 1001.19 1145.74 Q1004.56 1145.74 1007.71 1144.91 Q1010.89 1144.09 1014.01 1142.43 L1014.01 1147.97 Q1010.86 1149.31 1007.55 1150.01 Q1004.24 1150.71 1000.84 1150.71 Q992.306 1150.71 987.309 1145.74 Q982.344 1140.78 982.344 1132.31 Q982.344 1123.56 987.054 1118.43 Q991.797 1113.28 999.818 1113.28 Q1007.01 1113.28 1011.18 1117.92 Q1015.38 1122.54 1015.38 1130.5 M1009.53 1128.78 Q1009.46 1123.97 1006.82 1121.11 Q1004.21 1118.24 999.881 1118.24 Q994.98 1118.24 992.02 1121.01 Q989.091 1123.78 988.646 1128.81 L1009.53 1128.78 Z" fill="#000000" fill-rule="evenodd" fill-opacity="1" /><path clip-path="url(#clip590)" d="M 0 0 M1051.16 1128.27 L1051.16 1149.78 L1045.3 1149.78 L1045.3 1128.46 Q1045.3 1123.4 1043.33 1120.88 Q1041.35 1118.37 1037.41 1118.37 Q1032.66 1118.37 1029.93 1121.39 Q1027.19 1124.42 1027.19 1129.64 L1027.19 1149.78 L1021.3 1149.78 L1021.3 1114.14 L1027.19 1114.14 L1027.19 1119.67 Q1029.29 1116.46 1032.12 1114.87 Q1034.99 1113.28 1038.71 1113.28 Q1044.85 1113.28 1048.01 1117.1 Q1051.16 1120.88 1051.16 1128.27 Z" fill="#000000" fill-rule="evenodd" fill-opacity="1" /><path clip-path="url(#clip590)" d="M 0 0 M1063.09 1104.01 L1063.09 1114.14 L1075.16 1114.14 L1075.16 1118.69 L1063.09 1118.69 L1063.09 1138.04 Q1063.09 1142.4 1064.27 1143.64 Q1065.48 1144.88 1069.14 1144.88 L1075.16 1144.88 L1075.16 1149.78 L1069.14 1149.78 Q1062.36 1149.78 1059.78 1147.27 Q1057.2 1144.72 1057.2 1138.04 L1057.2 1118.69 L1052.91 1118.69 L1052.91 1114.14 L1057.2 1114.14 L1057.2 1104.01 L1063.09 1104.01 Z" fill="#000000" fill-rule="evenodd" fill-opacity="1" /><polyline clip-path="url(#clip592)" style="stroke:#000000; stroke-width:2; stroke-opacity:0.1; fill:none" points="
  222.806,989.476 1552.76,989.476 
  "/>
<polyline clip-path="url(#clip592)" style="stroke:#000000; stroke-width:2; stroke-opacity:0.1; fill:none" points="
  222.806,785.216 1552.76,785.216 
  "/>
<polyline clip-path="url(#clip592)" style="stroke:#000000; stroke-width:2; stroke-opacity:0.1; fill:none" points="
  222.806,580.956 1552.76,580.956 
  "/>
<polyline clip-path="url(#clip592)" style="stroke:#000000; stroke-width:2; stroke-opacity:0.1; fill:none" points="
  222.806,376.696 1552.76,376.696 
  "/>
<polyline clip-path="url(#clip592)" style="stroke:#000000; stroke-width:2; stroke-opacity:0.1; fill:none" points="
  222.806,172.435 1552.76,172.435 
  "/>
<polyline clip-path="url(#clip590)" style="stroke:#000000; stroke-width:4; stroke-opacity:1; fill:none" points="
  222.806,1016.92 222.806,47.2441 
  "/>
<polyline clip-path="url(#clip590)" style="stroke:#000000; stroke-width:4; stroke-opacity:1; fill:none" points="
  222.806,989.476 238.766,989.476 
  "/>
<polyline clip-path="url(#clip590)" style="stroke:#000000; stroke-width:4; stroke-opacity:1; fill:none" points="
  222.806,785.216 238.766,785.216 
  "/>
<polyline clip-path="url(#clip590)" style="stroke:#000000; stroke-width:4; stroke-opacity:1; fill:none" points="
  222.806,580.956 238.766,580.956 
  "/>
<polyline clip-path="url(#clip590)" style="stroke:#000000; stroke-width:4; stroke-opacity:1; fill:none" points="
  222.806,376.696 238.766,376.696 
  "/>
<polyline clip-path="url(#clip590)" style="stroke:#000000; stroke-width:4; stroke-opacity:1; fill:none" points="
  222.806,172.435 238.766,172.435 
  "/>
<path clip-path="url(#clip590)" d="M 0 0 M186.862 975.275 Q183.251 975.275 181.422 978.84 Q179.617 982.381 179.617 989.511 Q179.617 996.617 181.422 1000.18 Q183.251 1003.72 186.862 1003.72 Q190.496 1003.72 192.302 1000.18 Q194.13 996.617 194.13 989.511 Q194.13 982.381 192.302 978.84 Q190.496 975.275 186.862 975.275 M186.862 971.571 Q192.672 971.571 195.728 976.178 Q198.806 980.761 198.806 989.511 Q198.806 998.238 195.728 1002.84 Q192.672 1007.43 186.862 1007.43 Q181.052 1007.43 177.973 1002.84 Q174.917 998.238 174.917 989.511 Q174.917 980.761 177.973 976.178 Q181.052 971.571 186.862 971.571 Z" fill="#000000" fill-rule="evenodd" fill-opacity="1" /><path clip-path="url(#clip590)" d="M 0 0 M156.469 798.561 L172.788 798.561 L172.788 802.496 L150.844 802.496 L150.844 798.561 Q153.506 795.806 158.089 791.177 Q162.695 786.524 163.876 785.181 Q166.121 782.658 167.001 780.922 Q167.904 779.163 167.904 777.473 Q167.904 774.718 165.959 772.982 Q164.038 771.246 160.936 771.246 Q158.737 771.246 156.283 772.01 Q153.853 772.774 151.075 774.325 L151.075 769.603 Q153.899 768.468 156.353 767.89 Q158.806 767.311 160.843 767.311 Q166.214 767.311 169.408 769.996 Q172.603 772.681 172.603 777.172 Q172.603 779.302 171.792 781.223 Q171.005 783.121 168.899 785.714 Q168.32 786.385 165.218 789.603 Q162.117 792.797 156.469 798.561 Z" fill="#000000" fill-rule="evenodd" fill-opacity="1" /><path clip-path="url(#clip590)" d="M 0 0 M177.904 767.936 L196.26 767.936 L196.26 771.871 L182.186 771.871 L182.186 780.343 Q183.204 779.996 184.223 779.834 Q185.241 779.649 186.26 779.649 Q192.047 779.649 195.427 782.82 Q198.806 785.991 198.806 791.408 Q198.806 796.987 195.334 800.089 Q191.862 803.167 185.542 803.167 Q183.367 803.167 181.098 802.797 Q178.853 802.427 176.445 801.686 L176.445 796.987 Q178.529 798.121 180.751 798.677 Q182.973 799.232 185.45 799.232 Q189.454 799.232 191.792 797.126 Q194.13 795.019 194.13 791.408 Q194.13 787.797 191.792 785.691 Q189.454 783.584 185.45 783.584 Q183.575 783.584 181.7 784.001 Q179.848 784.417 177.904 785.297 L177.904 767.936 Z" fill="#000000" fill-rule="evenodd" fill-opacity="1" /><path clip-path="url(#clip590)" d="M 0 0 M150.89 563.676 L169.246 563.676 L169.246 567.611 L155.172 567.611 L155.172 576.083 Q156.191 575.736 157.209 575.574 Q158.228 575.389 159.246 575.389 Q165.033 575.389 168.413 578.56 Q171.792 581.731 171.792 587.148 Q171.792 592.727 168.32 595.828 Q164.848 598.907 158.529 598.907 Q156.353 598.907 154.084 598.537 Q151.839 598.166 149.432 597.426 L149.432 592.727 Q151.515 593.861 153.737 594.416 Q155.959 594.972 158.436 594.972 Q162.441 594.972 164.779 592.865 Q167.117 590.759 167.117 587.148 Q167.117 583.537 164.779 581.43 Q162.441 579.324 158.436 579.324 Q156.561 579.324 154.686 579.741 Q152.834 580.157 150.89 581.037 L150.89 563.676 Z" fill="#000000" fill-rule="evenodd" fill-opacity="1" /><path clip-path="url(#clip590)" d="M 0 0 M186.862 566.755 Q183.251 566.755 181.422 570.319 Q179.617 573.861 179.617 580.991 Q179.617 588.097 181.422 591.662 Q183.251 595.203 186.862 595.203 Q190.496 595.203 192.302 591.662 Q194.13 588.097 194.13 580.991 Q194.13 573.861 192.302 570.319 Q190.496 566.755 186.862 566.755 M186.862 563.051 Q192.672 563.051 195.728 567.657 Q198.806 572.241 198.806 580.991 Q198.806 589.717 195.728 594.324 Q192.672 598.907 186.862 598.907 Q181.052 598.907 177.973 594.324 Q174.917 589.717 174.917 580.991 Q174.917 572.241 177.973 567.657 Q181.052 563.051 186.862 563.051 Z" fill="#000000" fill-rule="evenodd" fill-opacity="1" /><path clip-path="url(#clip590)" d="M 0 0 M150.566 359.416 L172.788 359.416 L172.788 361.406 L160.242 393.976 L155.357 393.976 L167.163 363.351 L150.566 363.351 L150.566 359.416 Z" fill="#000000" fill-rule="evenodd" fill-opacity="1" /><path clip-path="url(#clip590)" d="M 0 0 M177.904 359.416 L196.26 359.416 L196.26 363.351 L182.186 363.351 L182.186 371.823 Q183.204 371.476 184.223 371.314 Q185.241 371.129 186.26 371.129 Q192.047 371.129 195.427 374.3 Q198.806 377.471 198.806 382.888 Q198.806 388.466 195.334 391.568 Q191.862 394.647 185.542 394.647 Q183.367 394.647 181.098 394.277 Q178.853 393.906 176.445 393.165 L176.445 388.466 Q178.529 389.601 180.751 390.156 Q182.973 390.712 185.45 390.712 Q189.454 390.712 191.792 388.605 Q194.13 386.499 194.13 382.888 Q194.13 379.277 191.792 377.17 Q189.454 375.064 185.45 375.064 Q183.575 375.064 181.7 375.48 Q179.848 375.897 177.904 376.777 L177.904 359.416 Z" fill="#000000" fill-rule="evenodd" fill-opacity="1" /><path clip-path="url(#clip590)" d="M 0 0 M124.871 185.78 L132.51 185.78 L132.51 159.415 L124.2 161.081 L124.2 156.822 L132.464 155.155 L137.14 155.155 L137.14 185.78 L144.779 185.78 L144.779 189.715 L124.871 189.715 L124.871 185.78 Z" fill="#000000" fill-rule="evenodd" fill-opacity="1" /><path clip-path="url(#clip590)" d="M 0 0 M159.848 158.234 Q156.237 158.234 154.408 161.799 Q152.603 165.341 152.603 172.47 Q152.603 179.577 154.408 183.141 Q156.237 186.683 159.848 186.683 Q163.482 186.683 165.288 183.141 Q167.117 179.577 167.117 172.47 Q167.117 165.341 165.288 161.799 Q163.482 158.234 159.848 158.234 M159.848 154.53 Q165.658 154.53 168.714 159.137 Q171.792 163.72 171.792 172.47 Q171.792 181.197 168.714 185.803 Q165.658 190.387 159.848 190.387 Q154.038 190.387 150.959 185.803 Q147.904 181.197 147.904 172.47 Q147.904 163.72 150.959 159.137 Q154.038 154.53 159.848 154.53 Z" fill="#000000" fill-rule="evenodd" fill-opacity="1" /><path clip-path="url(#clip590)" d="M 0 0 M186.862 158.234 Q183.251 158.234 181.422 161.799 Q179.617 165.341 179.617 172.47 Q179.617 179.577 181.422 183.141 Q183.251 186.683 186.862 186.683 Q190.496 186.683 192.302 183.141 Q194.13 179.577 194.13 172.47 Q194.13 165.341 192.302 161.799 Q190.496 158.234 186.862 158.234 M186.862 154.53 Q192.672 154.53 195.728 159.137 Q198.806 163.72 198.806 172.47 Q198.806 181.197 195.728 185.803 Q192.672 190.387 186.862 190.387 Q181.052 190.387 177.973 185.803 Q174.917 181.197 174.917 172.47 Q174.917 163.72 177.973 159.137 Q181.052 154.53 186.862 154.53 Z" fill="#000000" fill-rule="evenodd" fill-opacity="1" /><path clip-path="url(#clip590)" d="M 0 0 M38.4242 742.866 L38.4242 715.558 L43.835 715.558 L43.835 736.437 L57.8396 736.437 L57.8396 717.595 L63.2504 717.595 L63.2504 736.437 L85.9442 736.437 L85.9442 742.866 L38.4242 742.866 Z" fill="#000000" fill-rule="evenodd" fill-opacity="1" /><path clip-path="url(#clip590)" d="M 0 0 M50.2962 714.157 L50.2962 708.301 L85.9442 708.301 L85.9442 714.157 L50.2962 714.157 M36.419 714.157 L36.419 708.301 L43.835 708.301 L43.835 714.157 L36.419 714.157 Z" fill="#000000" fill-rule="evenodd" fill-opacity="1" /><path clip-path="url(#clip590)" d="M 0 0 M55.7707 681.501 Q55.1978 682.488 54.9432 683.665 Q54.6567 684.811 54.6567 686.212 Q54.6567 691.177 57.9032 693.85 Q61.1179 696.492 67.1653 696.492 L85.9442 696.492 L85.9442 702.381 L50.2962 702.381 L50.2962 696.492 L55.8344 696.492 Q52.5879 694.646 51.0283 691.686 Q49.4368 688.726 49.4368 684.493 Q49.4368 683.888 49.5323 683.156 Q49.596 682.424 49.7551 681.533 L55.7707 681.501 Z" fill="#000000" fill-rule="evenodd" fill-opacity="1" /><path clip-path="url(#clip590)" d="M 0 0 M50.2962 675.358 L50.2962 669.502 L85.9442 669.502 L85.9442 675.358 L50.2962 675.358 M36.419 675.358 L36.419 669.502 L43.835 669.502 L43.835 675.358 L36.419 675.358 Z" fill="#000000" fill-rule="evenodd" fill-opacity="1" /><path clip-path="url(#clip590)" d="M 0 0 M64.4281 633.726 L85.9442 633.726 L85.9442 639.583 L64.619 639.583 Q59.5583 639.583 57.0438 641.556 Q54.5294 643.53 54.5294 647.476 Q54.5294 652.219 57.5531 654.956 Q60.5768 657.693 65.7967 657.693 L85.9442 657.693 L85.9442 663.582 L50.2962 663.582 L50.2962 657.693 L55.8344 657.693 Q52.6197 655.593 51.0283 652.76 Q49.4368 649.895 49.4368 646.171 Q49.4368 640.028 53.2563 636.877 Q57.0438 633.726 64.4281 633.726 Z" fill="#000000" fill-rule="evenodd" fill-opacity="1" /><path clip-path="url(#clip590)" d="M 0 0 M67.7064 604.126 Q61.3407 604.126 57.8396 606.768 Q54.3384 609.378 54.3384 614.12 Q54.3384 618.831 57.8396 621.472 Q61.3407 624.082 67.7064 624.082 Q74.0403 624.082 77.5414 621.472 Q81.0426 618.831 81.0426 614.12 Q81.0426 609.378 77.5414 606.768 Q74.0403 604.126 67.7064 604.126 M81.52 598.269 Q90.623 598.269 95.0471 602.312 Q99.5031 606.354 99.5031 614.693 Q99.5031 617.78 99.0257 620.518 Q98.5801 623.255 97.6252 625.833 L91.9279 625.833 Q93.3284 623.255 93.9968 620.74 Q94.6652 618.226 94.6652 615.616 Q94.6652 609.855 91.6415 606.99 Q88.6496 604.126 82.5703 604.126 L79.6739 604.126 Q82.825 605.94 84.3846 608.773 Q85.9442 611.606 85.9442 615.552 Q85.9442 622.109 80.9471 626.119 Q75.95 630.13 67.7064 630.13 Q59.431 630.13 54.4339 626.119 Q49.4368 622.109 49.4368 615.552 Q49.4368 611.606 50.9964 608.773 Q52.556 605.94 55.7071 604.126 L50.2962 604.126 L50.2962 598.269 L81.52 598.269 Z" fill="#000000" fill-rule="evenodd" fill-opacity="1" /><path clip-path="url(#clip590)" d="M 0 0 M55.7707 550.749 Q55.1978 551.736 54.9432 552.914 Q54.6567 554.06 54.6567 555.46 Q54.6567 560.425 57.9032 563.099 Q61.1179 565.741 67.1653 565.741 L85.9442 565.741 L85.9442 571.629 L50.2962 571.629 L50.2962 565.741 L55.8344 565.741 Q52.5879 563.895 51.0283 560.935 Q49.4368 557.974 49.4368 553.741 Q49.4368 553.137 49.5323 552.404 Q49.596 551.672 49.7551 550.781 L55.7707 550.749 Z" fill="#000000" fill-rule="evenodd" fill-opacity="1" /><path clip-path="url(#clip590)" d="M 0 0 M68.0247 528.406 Q68.0247 535.504 69.6479 538.241 Q71.2712 540.978 75.1861 540.978 Q78.3053 540.978 80.1514 538.941 Q81.9656 536.872 81.9656 533.339 Q81.9656 528.469 78.5281 525.541 Q75.0588 522.581 69.3297 522.581 L68.0247 522.581 L68.0247 528.406 M65.6057 516.725 L85.9442 516.725 L85.9442 522.581 L80.5333 522.581 Q83.7798 524.586 85.3394 527.578 Q86.8672 530.57 86.8672 534.899 Q86.8672 540.373 83.8116 543.62 Q80.7243 546.834 75.5681 546.834 Q69.5525 546.834 66.4969 542.824 Q63.4414 538.782 63.4414 530.793 L63.4414 522.581 L62.8685 522.581 Q58.8262 522.581 56.6301 525.255 Q54.4021 527.897 54.4021 532.703 Q54.4021 535.758 55.1341 538.655 Q55.8662 541.551 57.3303 544.225 L51.9195 544.225 Q50.6781 541.01 50.0734 537.986 Q49.4368 534.962 49.4368 532.098 Q49.4368 524.364 53.4472 520.544 Q57.4576 516.725 65.6057 516.725 Z" fill="#000000" fill-rule="evenodd" fill-opacity="1" /><path clip-path="url(#clip590)" d="M 0 0 M40.1747 504.789 L50.2962 504.789 L50.2962 492.726 L54.8477 492.726 L54.8477 504.789 L74.1994 504.789 Q78.5599 504.789 79.8013 503.611 Q81.0426 502.402 81.0426 498.742 L81.0426 492.726 L85.9442 492.726 L85.9442 498.742 Q85.9442 505.521 83.4297 508.099 Q80.8834 510.677 74.1994 510.677 L54.8477 510.677 L54.8477 514.974 L50.2962 514.974 L50.2962 510.677 L40.1747 510.677 L40.1747 504.789 Z" fill="#000000" fill-rule="evenodd" fill-opacity="1" /><path clip-path="url(#clip590)" d="M 0 0 M66.6561 456.091 L69.5206 456.091 L69.5206 483.018 Q75.5681 482.636 78.7509 479.39 Q81.9019 476.111 81.9019 470.287 Q81.9019 466.913 81.0744 463.762 Q80.2469 460.579 78.5918 457.46 L84.1299 457.46 Q85.4667 460.611 86.167 463.921 Q86.8672 467.231 86.8672 470.637 Q86.8672 479.167 81.9019 484.164 Q76.9367 489.129 68.4703 489.129 Q59.7174 489.129 54.5931 484.419 Q49.4368 479.676 49.4368 471.655 Q49.4368 464.462 54.0838 460.293 Q58.6989 456.091 66.6561 456.091 M64.9373 461.948 Q60.1312 462.011 57.2666 464.653 Q54.4021 467.263 54.4021 471.592 Q54.4021 476.493 57.1712 479.453 Q59.9402 482.382 64.9692 482.827 L64.9373 461.948 Z" fill="#000000" fill-rule="evenodd" fill-opacity="1" /><path clip-path="url(#clip590)" d="M 0 0 M36.4826 415.16 Q43.8032 419.425 50.9646 421.494 Q58.126 423.563 65.4784 423.563 Q72.8308 423.563 80.0559 421.494 Q87.2491 419.393 94.5379 415.16 L94.5379 420.252 Q87.0582 425.027 79.8331 427.414 Q72.608 429.769 65.4784 429.769 Q58.3806 429.769 51.1874 427.414 Q43.9942 425.059 36.4826 420.252 L36.4826 415.16 Z" fill="#000000" fill-rule="evenodd" fill-opacity="1" /><path clip-path="url(#clip590)" d="M 0 0 M38.4242 408.762 L38.4242 402.333 L57.9032 402.333 L57.9032 378.971 L38.4242 378.971 L38.4242 372.541 L85.9442 372.541 L85.9442 378.971 L63.3141 378.971 L63.3141 402.333 L85.9442 402.333 L85.9442 408.762 L38.4242 408.762 Z" fill="#000000" fill-rule="evenodd" fill-opacity="1" /><path clip-path="url(#clip590)" d="M 0 0 M50.2962 368.945 L50.2962 341.127 L55.6434 341.127 L81.2654 363.152 L81.2654 341.127 L85.9442 341.127 L85.9442 369.741 L80.597 369.741 L54.975 347.715 L54.975 368.945 L50.2962 368.945 Z" fill="#000000" fill-rule="evenodd" fill-opacity="1" /><path clip-path="url(#clip590)" d="M 0 0 M36.4826 335.907 L36.4826 330.814 Q43.9942 326.04 51.1874 323.685 Q58.3806 321.298 65.4784 321.298 Q72.608 321.298 79.8331 323.685 Q87.0582 326.04 94.5379 330.814 L94.5379 335.907 Q87.2491 331.674 80.0559 329.605 Q72.8308 327.504 65.4784 327.504 Q58.126 327.504 50.9646 329.605 Q43.8032 331.674 36.4826 335.907 Z" fill="#000000" fill-rule="evenodd" fill-opacity="1" /><polyline clip-path="url(#clip592)" style="stroke:#009af9; stroke-width:4; stroke-opacity:1; fill:none" points="
  260.446,989.476 273.12,989.476 285.793,989.476 298.467,989.476 311.14,989.476 323.813,989.476 336.487,989.476 349.16,989.476 361.834,989.476 374.507,989.476 
  387.181,989.476 399.854,989.476 412.528,989.476 425.201,989.476 437.874,989.476 450.548,989.476 463.221,989.476 475.895,989.476 488.568,989.476 501.241,989.476 
  513.915,857.353 526.588,803.983 539.262,775.081 551.935,752.545 564.609,733.235 577.282,715.936 589.955,700.032 602.629,685.167 615.302,671.111 627.976,657.706 
  640.649,644.84 653.323,632.43 665.996,620.411 678.67,608.733 691.343,597.356 704.016,586.247 716.69,575.379 729.363,564.73 742.037,554.279 754.71,544.011 
  767.383,533.912 780.057,523.969 792.73,514.171 805.404,504.509 818.077,494.975 830.751,485.561 843.424,476.261 856.097,467.068 868.771,457.977 881.444,448.984 
  894.118,440.083 906.791,431.271 919.465,422.544 932.138,413.898 944.812,405.331 957.485,396.84 970.158,388.422 982.832,380.073 995.505,371.793 1008.18,363.579 
  1020.85,355.429 1033.53,347.341 1046.2,339.313 1058.87,331.344 1071.55,323.432 1084.22,315.575 1096.89,307.773 1109.57,300.024 1122.24,292.326 1134.91,284.679 
  1147.59,277.081 1160.26,269.532 1172.93,262.03 1185.61,254.575 1198.28,247.165 1210.95,239.8 1223.63,232.478 1236.3,225.2 1248.97,217.963 1261.65,210.769 
  1274.32,203.615 1286.99,196.501 1299.67,189.427 1312.34,182.391 1325.01,175.394 1337.69,168.435 1350.36,161.513 1363.03,154.628 1375.71,147.778 1388.38,140.965 
  1401.05,134.186 1413.73,127.442 1426.4,120.732 1439.08,114.057 1451.75,107.414 1464.42,100.804 1477.1,94.2274 1489.77,87.6825 1502.44,81.1694 1515.12,74.6877 
  
  "/>
</svg>
