<?xml version="1.0" encoding="utf-8"?>
<svg xmlns="http://www.w3.org/2000/svg" xmlns:xlink="http://www.w3.org/1999/xlink" width="500" height="200" viewBox="0 0 2000 800">
<defs>
  <clipPath id="clip900">
    <rect x="0" y="0" width="2000" height="800"/>
  </clipPath>
</defs>
<path clip-path="url(#clip900)" d="
M0 800 L2000 800 L2000 0 L0 0  Z
  " fill="#ffffff" fill-rule="evenodd" fill-opacity="1"/>
<defs>
  <clipPath id="clip901">
    <rect x="400" y="0" width="1401" height="800"/>
  </clipPath>
</defs>
<path clip-path="url(#clip900)" d="
M174.844 664.012 L1952.76 664.012 L1952.76 47.2441 L174.844 47.2441  Z
  " fill="#ffffff" fill-rule="evenodd" fill-opacity="1"/>
<defs>
  <clipPath id="clip902">
    <rect x="174" y="47" width="1779" height="618"/>
  </clipPath>
</defs>
<polyline clip-path="url(#clip902)" style="stroke:#000000; stroke-width:2; stroke-opacity:0.1; fill:none" points="
  204.75,664.012 204.75,47.2441 
  "/>
<polyline clip-path="url(#clip902)" style="stroke:#000000; stroke-width:2; stroke-opacity:0.1; fill:none" points="
  630.022,664.012 630.022,47.2441 
  "/>
<polyline clip-path="url(#clip902)" style="stroke:#000000; stroke-width:2; stroke-opacity:0.1; fill:none" points="
  1055.29,664.012 1055.29,47.2441 
  "/>
<polyline clip-path="url(#clip902)" style="stroke:#000000; stroke-width:2; stroke-opacity:0.1; fill:none" points="
  1480.57,664.012 1480.57,47.2441 
  "/>
<polyline clip-path="url(#clip902)" style="stroke:#000000; stroke-width:2; stroke-opacity:0.1; fill:none" points="
  1905.84,664.012 1905.84,47.2441 
  "/>
<polyline clip-path="url(#clip900)" style="stroke:#000000; stroke-width:4; stroke-opacity:1; fill:none" points="
  174.844,664.012 1952.76,664.012 
  "/>
<polyline clip-path="url(#clip900)" style="stroke:#000000; stroke-width:4; stroke-opacity:1; fill:none" points="
  204.75,664.012 204.75,656.611 
  "/>
<polyline clip-path="url(#clip900)" style="stroke:#000000; stroke-width:4; stroke-opacity:1; fill:none" points="
  630.022,664.012 630.022,656.611 
  "/>
<polyline clip-path="url(#clip900)" style="stroke:#000000; stroke-width:4; stroke-opacity:1; fill:none" points="
  1055.29,664.012 1055.29,656.611 
  "/>
<polyline clip-path="url(#clip900)" style="stroke:#000000; stroke-width:4; stroke-opacity:1; fill:none" points="
  1480.57,664.012 1480.57,656.611 
  "/>
<polyline clip-path="url(#clip900)" style="stroke:#000000; stroke-width:4; stroke-opacity:1; fill:none" points="
  1905.84,664.012 1905.84,656.611 
  "/>
<path clip-path="url(#clip900)" d="M 0 0 M204.75 690.003 Q201.139 690.003 199.31 693.567 Q197.504 697.109 197.504 704.239 Q197.504 711.345 199.31 714.91 Q201.139 718.451 204.75 718.451 Q208.384 718.451 210.189 714.91 Q212.018 711.345 212.018 704.239 Q212.018 697.109 210.189 693.567 Q208.384 690.003 204.75 690.003 M204.75 686.299 Q210.56 686.299 213.615 690.905 Q216.694 695.489 216.694 704.239 Q216.694 712.965 213.615 717.572 Q210.56 722.155 204.75 722.155 Q198.94 722.155 195.861 717.572 Q192.805 712.965 192.805 704.239 Q192.805 695.489 195.861 690.905 Q198.94 686.299 204.75 686.299 Z" fill="#000000" fill-rule="evenodd" fill-opacity="1" /><path clip-path="url(#clip900)" d="M 0 0 M598.159 717.549 L614.478 717.549 L614.478 721.484 L592.534 721.484 L592.534 717.549 Q595.196 714.794 599.779 710.164 Q604.386 705.512 605.566 704.169 Q607.812 701.646 608.691 699.91 Q609.594 698.151 609.594 696.461 Q609.594 693.706 607.65 691.97 Q605.728 690.234 602.627 690.234 Q600.427 690.234 597.974 690.998 Q595.543 691.762 592.765 693.313 L592.765 688.591 Q595.59 687.456 598.043 686.878 Q600.497 686.299 602.534 686.299 Q607.904 686.299 611.099 688.984 Q614.293 691.669 614.293 696.16 Q614.293 698.29 613.483 700.211 Q612.696 702.109 610.589 704.702 Q610.011 705.373 606.909 708.59 Q603.807 711.785 598.159 717.549 Z" fill="#000000" fill-rule="evenodd" fill-opacity="1" /><path clip-path="url(#clip900)" d="M 0 0 M619.594 686.924 L637.95 686.924 L637.95 690.859 L623.876 690.859 L623.876 699.331 Q624.895 698.984 625.913 698.822 Q626.932 698.637 627.95 698.637 Q633.737 698.637 637.117 701.808 Q640.497 704.979 640.497 710.396 Q640.497 715.975 637.024 719.076 Q633.552 722.155 627.233 722.155 Q625.057 722.155 622.788 721.785 Q620.543 721.414 618.136 720.674 L618.136 715.975 Q620.219 717.109 622.441 717.664 Q624.663 718.22 627.14 718.22 Q631.145 718.22 633.483 716.114 Q635.821 714.007 635.821 710.396 Q635.821 706.785 633.483 704.678 Q631.145 702.572 627.14 702.572 Q625.265 702.572 623.39 702.989 Q621.538 703.405 619.594 704.285 L619.594 686.924 Z" fill="#000000" fill-rule="evenodd" fill-opacity="1" /><path clip-path="url(#clip900)" d="M 0 0 M655.566 690.003 Q651.955 690.003 650.126 693.567 Q648.321 697.109 648.321 704.239 Q648.321 711.345 650.126 714.91 Q651.955 718.451 655.566 718.451 Q659.2 718.451 661.006 714.91 Q662.835 711.345 662.835 704.239 Q662.835 697.109 661.006 693.567 Q659.2 690.003 655.566 690.003 M655.566 686.299 Q661.376 686.299 664.432 690.905 Q667.51 695.489 667.51 704.239 Q667.51 712.965 664.432 717.572 Q661.376 722.155 655.566 722.155 Q649.756 722.155 646.677 717.572 Q643.622 712.965 643.622 704.239 Q643.622 695.489 646.677 690.905 Q649.756 686.299 655.566 686.299 Z" fill="#000000" fill-rule="evenodd" fill-opacity="1" /><path clip-path="url(#clip900)" d="M 0 0 M1018.56 686.924 L1036.92 686.924 L1036.92 690.859 L1022.84 690.859 L1022.84 699.331 Q1023.86 698.984 1024.88 698.822 Q1025.9 698.637 1026.92 698.637 Q1032.7 698.637 1036.08 701.808 Q1039.46 704.979 1039.46 710.396 Q1039.46 715.975 1035.99 719.076 Q1032.52 722.155 1026.2 722.155 Q1024.02 722.155 1021.75 721.785 Q1019.51 721.414 1017.1 720.674 L1017.1 715.975 Q1019.18 717.109 1021.41 717.664 Q1023.63 718.22 1026.11 718.22 Q1030.11 718.22 1032.45 716.114 Q1034.79 714.007 1034.79 710.396 Q1034.79 706.785 1032.45 704.678 Q1030.11 702.572 1026.11 702.572 Q1024.23 702.572 1022.36 702.989 Q1020.5 703.405 1018.56 704.285 L1018.56 686.924 Z" fill="#000000" fill-rule="evenodd" fill-opacity="1" /><path clip-path="url(#clip900)" d="M 0 0 M1054.53 690.003 Q1050.92 690.003 1049.09 693.567 Q1047.29 697.109 1047.29 704.239 Q1047.29 711.345 1049.09 714.91 Q1050.92 718.451 1054.53 718.451 Q1058.17 718.451 1059.97 714.91 Q1061.8 711.345 1061.8 704.239 Q1061.8 697.109 1059.97 693.567 Q1058.17 690.003 1054.53 690.003 M1054.53 686.299 Q1060.34 686.299 1063.4 690.905 Q1066.48 695.489 1066.48 704.239 Q1066.48 712.965 1063.4 717.572 Q1060.34 722.155 1054.53 722.155 Q1048.72 722.155 1045.64 717.572 Q1042.59 712.965 1042.59 704.239 Q1042.59 695.489 1045.64 690.905 Q1048.72 686.299 1054.53 686.299 Z" fill="#000000" fill-rule="evenodd" fill-opacity="1" /><path clip-path="url(#clip900)" d="M 0 0 M1081.54 690.003 Q1077.93 690.003 1076.1 693.567 Q1074.3 697.109 1074.3 704.239 Q1074.3 711.345 1076.1 714.91 Q1077.93 718.451 1081.54 718.451 Q1085.18 718.451 1086.98 714.91 Q1088.81 711.345 1088.81 704.239 Q1088.81 697.109 1086.98 693.567 Q1085.18 690.003 1081.54 690.003 M1081.54 686.299 Q1087.35 686.299 1090.41 690.905 Q1093.49 695.489 1093.49 704.239 Q1093.49 712.965 1090.41 717.572 Q1087.35 722.155 1081.54 722.155 Q1075.73 722.155 1072.66 717.572 Q1069.6 712.965 1069.6 704.239 Q1069.6 695.489 1072.66 690.905 Q1075.73 686.299 1081.54 686.299 Z" fill="#000000" fill-rule="evenodd" fill-opacity="1" /><path clip-path="url(#clip900)" d="M 0 0 M1442.94 686.924 L1465.16 686.924 L1465.16 688.915 L1452.62 721.484 L1447.73 721.484 L1459.54 690.859 L1442.94 690.859 L1442.94 686.924 Z" fill="#000000" fill-rule="evenodd" fill-opacity="1" /><path clip-path="url(#clip900)" d="M 0 0 M1470.28 686.924 L1488.63 686.924 L1488.63 690.859 L1474.56 690.859 L1474.56 699.331 Q1475.58 698.984 1476.6 698.822 Q1477.62 698.637 1478.63 698.637 Q1484.42 698.637 1487.8 701.808 Q1491.18 704.979 1491.18 710.396 Q1491.18 715.975 1487.71 719.076 Q1484.24 722.155 1477.92 722.155 Q1475.74 722.155 1473.47 721.785 Q1471.23 721.414 1468.82 720.674 L1468.82 715.975 Q1470.9 717.109 1473.13 717.664 Q1475.35 718.22 1477.82 718.22 Q1481.83 718.22 1484.17 716.114 Q1486.5 714.007 1486.5 710.396 Q1486.5 706.785 1484.17 704.678 Q1481.83 702.572 1477.82 702.572 Q1475.95 702.572 1474.07 702.989 Q1472.22 703.405 1470.28 704.285 L1470.28 686.924 Z" fill="#000000" fill-rule="evenodd" fill-opacity="1" /><path clip-path="url(#clip900)" d="M 0 0 M1506.25 690.003 Q1502.64 690.003 1500.81 693.567 Q1499 697.109 1499 704.239 Q1499 711.345 1500.81 714.91 Q1502.64 718.451 1506.25 718.451 Q1509.88 718.451 1511.69 714.91 Q1513.52 711.345 1513.52 704.239 Q1513.52 697.109 1511.69 693.567 Q1509.88 690.003 1506.25 690.003 M1506.25 686.299 Q1512.06 686.299 1515.12 690.905 Q1518.19 695.489 1518.19 704.239 Q1518.19 712.965 1515.12 717.572 Q1512.06 722.155 1506.25 722.155 Q1500.44 722.155 1497.36 717.572 Q1494.31 712.965 1494.31 704.239 Q1494.31 695.489 1497.36 690.905 Q1500.44 686.299 1506.25 686.299 Z" fill="#000000" fill-rule="evenodd" fill-opacity="1" /><path clip-path="url(#clip900)" d="M 0 0 M1855.7 717.549 L1863.34 717.549 L1863.34 691.183 L1855.03 692.85 L1855.03 688.591 L1863.29 686.924 L1867.97 686.924 L1867.97 717.549 L1875.61 717.549 L1875.61 721.484 L1855.7 721.484 L1855.7 717.549 Z" fill="#000000" fill-rule="evenodd" fill-opacity="1" /><path clip-path="url(#clip900)" d="M 0 0 M1890.68 690.003 Q1887.07 690.003 1885.24 693.567 Q1883.43 697.109 1883.43 704.239 Q1883.43 711.345 1885.24 714.91 Q1887.07 718.451 1890.68 718.451 Q1894.31 718.451 1896.12 714.91 Q1897.95 711.345 1897.95 704.239 Q1897.95 697.109 1896.12 693.567 Q1894.31 690.003 1890.68 690.003 M1890.68 686.299 Q1896.49 686.299 1899.54 690.905 Q1902.62 695.489 1902.62 704.239 Q1902.62 712.965 1899.54 717.572 Q1896.49 722.155 1890.68 722.155 Q1884.87 722.155 1881.79 717.572 Q1878.73 712.965 1878.73 704.239 Q1878.73 695.489 1881.79 690.905 Q1884.87 686.299 1890.68 686.299 Z" fill="#000000" fill-rule="evenodd" fill-opacity="1" /><path clip-path="url(#clip900)" d="M 0 0 M1917.69 690.003 Q1914.08 690.003 1912.25 693.567 Q1910.45 697.109 1910.45 704.239 Q1910.45 711.345 1912.25 714.91 Q1914.08 718.451 1917.69 718.451 Q1921.33 718.451 1923.13 714.91 Q1924.96 711.345 1924.96 704.239 Q1924.96 697.109 1923.13 693.567 Q1921.33 690.003 1917.69 690.003 M1917.69 686.299 Q1923.5 686.299 1926.56 690.905 Q1929.64 695.489 1929.64 704.239 Q1929.64 712.965 1926.56 717.572 Q1923.5 722.155 1917.69 722.155 Q1911.88 722.155 1908.8 717.572 Q1905.75 712.965 1905.75 704.239 Q1905.75 695.489 1908.8 690.905 Q1911.88 686.299 1917.69 686.299 Z" fill="#000000" fill-rule="evenodd" fill-opacity="1" /><path clip-path="url(#clip900)" d="M 0 0 M1944.71 690.003 Q1941.09 690.003 1939.27 693.567 Q1937.46 697.109 1937.46 704.239 Q1937.46 711.345 1939.27 714.91 Q1941.09 718.451 1944.71 718.451 Q1948.34 718.451 1950.15 714.91 Q1951.97 711.345 1951.97 704.239 Q1951.97 697.109 1950.15 693.567 Q1948.34 690.003 1944.71 690.003 M1944.71 686.299 Q1950.52 686.299 1953.57 690.905 Q1956.65 695.489 1956.65 704.239 Q1956.65 712.965 1953.57 717.572 Q1950.52 722.155 1944.71 722.155 Q1938.9 722.155 1935.82 717.572 Q1932.76 712.965 1932.76 704.239 Q1932.76 695.489 1935.82 690.905 Q1938.9 686.299 1944.71 686.299 Z" fill="#000000" fill-rule="evenodd" fill-opacity="1" /><path clip-path="url(#clip900)" d="M 0 0 M916.657 755.356 L956.856 755.356 L956.856 760.767 L939.987 760.767 L939.987 802.876 L933.526 802.876 L933.526 760.767 L916.657 760.767 L916.657 755.356 Z" fill="#000000" fill-rule="evenodd" fill-opacity="1" /><path clip-path="url(#clip900)" d="M 0 0 M960.994 767.228 L966.85 767.228 L966.85 802.876 L960.994 802.876 L960.994 767.228 M960.994 753.351 L966.85 753.351 L966.85 760.767 L960.994 760.767 L960.994 753.351 Z" fill="#000000" fill-rule="evenodd" fill-opacity="1" /><path clip-path="url(#clip900)" d="M 0 0 M1000.75 774.071 Q1002.94 770.124 1006 768.246 Q1009.06 766.369 1013.19 766.369 Q1018.76 766.369 1021.79 770.283 Q1024.81 774.167 1024.81 781.36 L1024.81 802.876 L1018.92 802.876 L1018.92 781.551 Q1018.92 776.426 1017.11 773.944 Q1015.29 771.461 1011.57 771.461 Q1007.02 771.461 1004.38 774.485 Q1001.73 777.509 1001.73 782.728 L1001.73 802.876 L995.846 802.876 L995.846 781.551 Q995.846 776.395 994.032 773.944 Q992.218 771.461 988.43 771.461 Q983.942 771.461 981.301 774.517 Q978.659 777.54 978.659 782.728 L978.659 802.876 L972.771 802.876 L972.771 767.228 L978.659 767.228 L978.659 772.766 Q980.664 769.488 983.465 767.928 Q986.266 766.369 990.117 766.369 Q994 766.369 996.706 768.342 Q999.443 770.315 1000.75 774.071 Z" fill="#000000" fill-rule="evenodd" fill-opacity="1" /><path clip-path="url(#clip900)" d="M 0 0 M1061.44 783.588 L1061.44 786.452 L1034.52 786.452 Q1034.9 792.5 1038.15 795.683 Q1041.42 798.834 1047.25 798.834 Q1050.62 798.834 1053.77 798.006 Q1056.96 797.179 1060.08 795.523 L1060.08 801.062 Q1056.93 802.398 1053.62 803.099 Q1050.3 803.799 1046.9 803.799 Q1038.37 803.799 1033.37 798.834 Q1028.41 793.868 1028.41 785.402 Q1028.41 776.649 1033.12 771.525 Q1037.86 766.369 1045.88 766.369 Q1053.07 766.369 1057.24 771.015 Q1061.44 775.631 1061.44 783.588 M1055.59 781.869 Q1055.52 777.063 1052.88 774.198 Q1050.27 771.334 1045.94 771.334 Q1041.04 771.334 1038.08 774.103 Q1035.15 776.872 1034.71 781.901 L1055.59 781.869 Z" fill="#000000" fill-rule="evenodd" fill-opacity="1" /><path clip-path="url(#clip900)" d="M 0 0 M1102.38 753.414 Q1098.11 760.735 1096.04 767.896 Q1093.97 775.058 1093.97 782.41 Q1093.97 789.762 1096.04 796.988 Q1098.14 804.181 1102.38 811.47 L1097.28 811.47 Q1092.51 803.99 1090.12 796.765 Q1087.77 789.54 1087.77 782.41 Q1087.77 775.312 1090.12 768.119 Q1092.48 760.926 1097.28 753.414 L1102.38 753.414 Z" fill="#000000" fill-rule="evenodd" fill-opacity="1" /><path clip-path="url(#clip900)" d="M 0 0 M1136.27 774.071 Q1138.47 770.124 1141.53 768.246 Q1144.58 766.369 1148.72 766.369 Q1154.29 766.369 1157.31 770.283 Q1160.34 774.167 1160.34 781.36 L1160.34 802.876 L1154.45 802.876 L1154.45 781.551 Q1154.45 776.426 1152.63 773.944 Q1150.82 771.461 1147.1 771.461 Q1142.54 771.461 1139.9 774.485 Q1137.26 777.509 1137.26 782.728 L1137.26 802.876 L1131.37 802.876 L1131.37 781.551 Q1131.37 776.395 1129.56 773.944 Q1127.74 771.461 1123.96 771.461 Q1119.47 771.461 1116.83 774.517 Q1114.18 777.54 1114.18 782.728 L1114.18 802.876 L1108.3 802.876 L1108.3 767.228 L1114.18 767.228 L1114.18 772.766 Q1116.19 769.488 1118.99 767.928 Q1121.79 766.369 1125.64 766.369 Q1129.53 766.369 1132.23 768.342 Q1134.97 770.315 1136.27 774.071 Z" fill="#000000" fill-rule="evenodd" fill-opacity="1" /><path clip-path="url(#clip900)" d="M 0 0 M1189.2 768.278 L1189.2 773.816 Q1186.72 772.543 1184.05 771.907 Q1181.37 771.27 1178.51 771.27 Q1174.15 771.27 1171.95 772.607 Q1169.79 773.944 1169.79 776.617 Q1169.79 778.654 1171.35 779.832 Q1172.91 780.978 1177.62 782.028 L1179.62 782.474 Q1185.86 783.811 1188.47 786.261 Q1191.11 788.68 1191.11 793.041 Q1191.11 798.006 1187.17 800.902 Q1183.25 803.799 1176.38 803.799 Q1173.51 803.799 1170.39 803.226 Q1167.31 802.685 1163.87 801.571 L1163.87 795.523 Q1167.12 797.21 1170.27 798.07 Q1173.42 798.897 1176.51 798.897 Q1180.64 798.897 1182.87 797.497 Q1185.1 796.065 1185.1 793.486 Q1185.1 791.099 1183.48 789.826 Q1181.88 788.553 1176.44 787.375 L1174.4 786.898 Q1168.96 785.752 1166.54 783.397 Q1164.12 781.01 1164.12 776.872 Q1164.12 771.843 1167.69 769.106 Q1171.25 766.369 1177.81 766.369 Q1181.06 766.369 1183.92 766.846 Q1186.79 767.323 1189.2 768.278 Z" fill="#000000" fill-rule="evenodd" fill-opacity="1" /><path clip-path="url(#clip900)" d="M 0 0 M1196.33 753.414 L1201.43 753.414 Q1206.2 760.926 1208.56 768.119 Q1210.94 775.312 1210.94 782.41 Q1210.94 789.54 1208.56 796.765 Q1206.2 803.99 1201.43 811.47 L1196.33 811.47 Q1200.57 804.181 1202.64 796.988 Q1204.74 789.762 1204.74 782.41 Q1204.74 775.058 1202.64 767.896 Q1200.57 760.735 1196.33 753.414 Z" fill="#000000" fill-rule="evenodd" fill-opacity="1" /><polyline clip-path="url(#clip902)" style="stroke:#000000; stroke-width:2; stroke-opacity:0.1; fill:none" points="
  174.844,581.905 1952.76,581.905 
  "/>
<polyline clip-path="url(#clip902)" style="stroke:#000000; stroke-width:2; stroke-opacity:0.1; fill:none" points="
  174.844,452.604 1952.76,452.604 
  "/>
<polyline clip-path="url(#clip902)" style="stroke:#000000; stroke-width:2; stroke-opacity:0.1; fill:none" points="
  174.844,323.303 1952.76,323.303 
  "/>
<polyline clip-path="url(#clip902)" style="stroke:#000000; stroke-width:2; stroke-opacity:0.1; fill:none" points="
  174.844,194.001 1952.76,194.001 
  "/>
<polyline clip-path="url(#clip902)" style="stroke:#000000; stroke-width:2; stroke-opacity:0.1; fill:none" points="
  174.844,64.6998 1952.76,64.6998 
  "/>
<polyline clip-path="url(#clip900)" style="stroke:#000000; stroke-width:4; stroke-opacity:1; fill:none" points="
  174.844,664.012 174.844,47.2441 
  "/>
<polyline clip-path="url(#clip900)" style="stroke:#000000; stroke-width:4; stroke-opacity:1; fill:none" points="
  174.844,581.905 196.179,581.905 
  "/>
<polyline clip-path="url(#clip900)" style="stroke:#000000; stroke-width:4; stroke-opacity:1; fill:none" points="
  174.844,452.604 196.179,452.604 
  "/>
<polyline clip-path="url(#clip900)" style="stroke:#000000; stroke-width:4; stroke-opacity:1; fill:none" points="
  174.844,323.303 196.179,323.303 
  "/>
<polyline clip-path="url(#clip900)" style="stroke:#000000; stroke-width:4; stroke-opacity:1; fill:none" points="
  174.844,194.001 196.179,194.001 
  "/>
<polyline clip-path="url(#clip900)" style="stroke:#000000; stroke-width:4; stroke-opacity:1; fill:none" points="
  174.844,64.6998 196.179,64.6998 
  "/>
<path clip-path="url(#clip900)" d="M 0 0 M128.525 595.25 L144.844 595.25 L144.844 599.185 L122.9 599.185 L122.9 595.25 Q125.562 592.496 130.145 587.866 Q134.752 583.213 135.933 581.871 Q138.178 579.348 139.057 577.611 Q139.96 575.852 139.96 574.162 Q139.96 571.408 138.016 569.672 Q136.095 567.936 132.993 567.936 Q130.794 567.936 128.34 568.699 Q125.909 569.463 123.132 571.014 L123.132 566.292 Q125.956 565.158 128.409 564.579 Q130.863 564 132.9 564 Q138.27 564 141.465 566.686 Q144.659 569.371 144.659 573.862 Q144.659 575.991 143.849 577.912 Q143.062 579.811 140.956 582.403 Q140.377 583.074 137.275 586.292 Q134.173 589.486 128.525 595.25 Z" fill="#000000" fill-rule="evenodd" fill-opacity="1" /><path clip-path="url(#clip900)" d="M 0 0 M135.261 439.398 L123.456 457.847 L135.261 457.847 L135.261 439.398 M134.034 435.324 L139.914 435.324 L139.914 457.847 L144.844 457.847 L144.844 461.736 L139.914 461.736 L139.914 469.884 L135.261 469.884 L135.261 461.736 L119.659 461.736 L119.659 457.222 L134.034 435.324 Z" fill="#000000" fill-rule="evenodd" fill-opacity="1" /><path clip-path="url(#clip900)" d="M 0 0 M133.317 321.439 Q130.169 321.439 128.317 323.592 Q126.488 325.745 126.488 329.495 Q126.488 333.222 128.317 335.397 Q130.169 337.55 133.317 337.55 Q136.465 337.55 138.294 335.397 Q140.145 333.222 140.145 329.495 Q140.145 325.745 138.294 323.592 Q136.465 321.439 133.317 321.439 M142.599 306.786 L142.599 311.046 Q140.84 310.212 139.034 309.773 Q137.252 309.333 135.493 309.333 Q130.863 309.333 128.409 312.458 Q125.979 315.583 125.632 321.902 Q126.997 319.888 129.058 318.823 Q131.118 317.736 133.595 317.736 Q138.803 317.736 141.812 320.907 Q144.844 324.055 144.844 329.495 Q144.844 334.819 141.696 338.036 Q138.548 341.254 133.317 341.254 Q127.321 341.254 124.15 336.671 Q120.979 332.064 120.979 323.337 Q120.979 315.143 124.868 310.282 Q128.757 305.398 135.308 305.398 Q137.067 305.398 138.849 305.745 Q140.655 306.092 142.599 306.786 Z" fill="#000000" fill-rule="evenodd" fill-opacity="1" /><path clip-path="url(#clip900)" d="M 0 0 M132.993 194.869 Q129.659 194.869 127.738 196.652 Q125.84 198.434 125.84 201.559 Q125.84 204.684 127.738 206.466 Q129.659 208.249 132.993 208.249 Q136.326 208.249 138.247 206.466 Q140.169 204.661 140.169 201.559 Q140.169 198.434 138.247 196.652 Q136.349 194.869 132.993 194.869 M128.317 192.879 Q125.308 192.138 123.618 190.078 Q121.951 188.017 121.951 185.054 Q121.951 180.911 124.891 178.504 Q127.854 176.096 132.993 176.096 Q138.155 176.096 141.095 178.504 Q144.034 180.911 144.034 185.054 Q144.034 188.017 142.345 190.078 Q140.678 192.138 137.692 192.879 Q141.071 193.666 142.946 195.957 Q144.844 198.249 144.844 201.559 Q144.844 206.582 141.766 209.267 Q138.71 211.952 132.993 211.952 Q127.275 211.952 124.196 209.267 Q121.141 206.582 121.141 201.559 Q121.141 198.249 123.039 195.957 Q124.937 193.666 128.317 192.879 M126.604 185.494 Q126.604 188.179 128.271 189.684 Q129.96 191.189 132.993 191.189 Q136.002 191.189 137.692 189.684 Q139.405 188.179 139.405 185.494 Q139.405 182.809 137.692 181.305 Q136.002 179.8 132.993 179.8 Q129.96 179.8 128.271 181.305 Q126.604 182.809 126.604 185.494 Z" fill="#000000" fill-rule="evenodd" fill-opacity="1" /><path clip-path="url(#clip900)" d="M 0 0 M97.9235 78.0446 L105.562 78.0446 L105.562 51.679 L97.2522 53.3457 L97.2522 49.0864 L105.516 47.4198 L110.192 47.4198 L110.192 78.0446 L117.831 78.0446 L117.831 81.9798 L97.9235 81.9798 L97.9235 78.0446 Z" fill="#000000" fill-rule="evenodd" fill-opacity="1" /><path clip-path="url(#clip900)" d="M 0 0 M132.9 50.4985 Q129.289 50.4985 127.46 54.0633 Q125.655 57.6049 125.655 64.7345 Q125.655 71.841 127.46 75.4057 Q129.289 78.9474 132.9 78.9474 Q136.534 78.9474 138.34 75.4057 Q140.169 71.841 140.169 64.7345 Q140.169 57.6049 138.34 54.0633 Q136.534 50.4985 132.9 50.4985 M132.9 46.7948 Q138.71 46.7948 141.766 51.4012 Q144.844 55.9846 144.844 64.7345 Q144.844 73.4613 141.766 78.0678 Q138.71 82.6511 132.9 82.6511 Q127.09 82.6511 124.011 78.0678 Q120.956 73.4613 120.956 64.7345 Q120.956 55.9846 124.011 51.4012 Q127.09 46.7948 132.9 46.7948 Z" fill="#000000" fill-rule="evenodd" fill-opacity="1" /><path clip-path="url(#clip900)" d="M 0 0 M5.47616 546.297 L5.47616 537.639 L45.23 516.569 L5.47616 516.569 L5.47616 510.331 L52.9962 510.331 L52.9962 518.988 L13.2423 540.058 L52.9962 540.058 L52.9962 546.297 L5.47616 546.297 Z" fill="#000000" fill-rule="evenodd" fill-opacity="1" /><path clip-path="url(#clip900)" d="M 0 0 M33.7081 473.696 L36.5726 473.696 L36.5726 500.623 Q42.6201 500.241 45.8029 496.994 Q48.9539 493.716 48.9539 487.891 Q48.9539 484.518 48.1264 481.367 Q47.2989 478.184 45.6438 475.065 L51.1819 475.065 Q52.5187 478.216 53.219 481.526 Q53.9192 484.836 53.9192 488.242 Q53.9192 496.772 48.9539 501.769 Q43.9887 506.734 35.5223 506.734 Q26.7694 506.734 21.6451 502.023 Q16.4888 497.281 16.4888 489.26 Q16.4888 482.067 21.1358 477.897 Q25.7509 473.696 33.7081 473.696 M31.9893 479.552 Q27.1832 479.616 24.3186 482.258 Q21.4541 484.868 21.4541 489.196 Q21.4541 494.098 24.2232 497.058 Q26.9922 499.986 32.0212 500.432 L31.9893 479.552 Z" fill="#000000" fill-rule="evenodd" fill-opacity="1" /><path clip-path="url(#clip900)" d="M 0 0 M38.9279 468.158 L17.3482 468.158 L17.3482 462.301 L38.7051 462.301 Q43.7659 462.301 46.3122 460.328 Q48.8266 458.355 48.8266 454.408 Q48.8266 449.665 45.8029 446.928 Q42.7792 444.159 37.5593 444.159 L17.3482 444.159 L17.3482 438.303 L52.9962 438.303 L52.9962 444.159 L47.5216 444.159 Q50.7682 446.292 52.3596 449.124 Q53.9192 451.925 53.9192 455.649 Q53.9192 461.792 50.0998 464.975 Q46.2803 468.158 38.9279 468.158 M16.4888 453.421 L16.4888 453.421 Z" fill="#000000" fill-rule="evenodd" fill-opacity="1" /><path clip-path="url(#clip900)" d="M 0 0 M22.8227 411.503 Q22.2498 412.49 21.9952 413.667 Q21.7087 414.813 21.7087 416.214 Q21.7087 421.179 24.9552 423.852 Q28.1699 426.494 34.2173 426.494 L52.9962 426.494 L52.9962 432.382 L17.3482 432.382 L17.3482 426.494 L22.8864 426.494 Q19.6399 424.648 18.0803 421.688 Q16.4888 418.728 16.4888 414.495 Q16.4888 413.89 16.5843 413.158 Q16.648 412.426 16.8071 411.535 L22.8227 411.503 Z" fill="#000000" fill-rule="evenodd" fill-opacity="1" /><path clip-path="url(#clip900)" d="M 0 0 M21.4541 392.979 Q21.4541 397.689 25.1462 400.427 Q28.8065 403.164 35.204 403.164 Q41.6015 403.164 45.2937 400.458 Q48.9539 397.721 48.9539 392.979 Q48.9539 388.3 45.2618 385.563 Q41.5697 382.825 35.204 382.825 Q28.8701 382.825 25.178 385.563 Q21.4541 388.3 21.4541 392.979 M16.4888 392.979 Q16.4888 385.34 21.4541 380.979 Q26.4193 376.619 35.204 376.619 Q43.9569 376.619 48.9539 380.979 Q53.9192 385.34 53.9192 392.979 Q53.9192 400.649 48.9539 405.01 Q43.9569 409.339 35.204 409.339 Q26.4193 409.339 21.4541 405.01 Q16.4888 400.649 16.4888 392.979 Z" fill="#000000" fill-rule="evenodd" fill-opacity="1" /><path clip-path="url(#clip900)" d="M 0 0 M31.4801 340.844 L52.9962 340.844 L52.9962 346.7 L31.671 346.7 Q26.6103 346.7 24.0958 348.673 Q21.5814 350.647 21.5814 354.594 Q21.5814 359.336 24.6051 362.073 Q27.6288 364.811 32.8487 364.811 L52.9962 364.811 L52.9962 370.699 L17.3482 370.699 L17.3482 364.811 L22.8864 364.811 Q19.6717 362.71 18.0803 359.877 Q16.4888 357.013 16.4888 353.289 Q16.4888 347.146 20.3083 343.995 Q24.0958 340.844 31.4801 340.844 Z" fill="#000000" fill-rule="evenodd" fill-opacity="1" /><path clip-path="url(#clip900)" d="M 0 0 M17.3482 313.98 L17.3482 308.124 L52.9962 308.124 L52.9962 313.98 L17.3482 313.98 M3.47096 313.98 L3.47096 308.124 L10.887 308.124 L10.887 313.98 L3.47096 313.98 Z" fill="#000000" fill-rule="evenodd" fill-opacity="1" /><path clip-path="url(#clip900)" d="M 0 0 M31.4801 272.349 L52.9962 272.349 L52.9962 278.205 L31.671 278.205 Q26.6103 278.205 24.0958 280.178 Q21.5814 282.152 21.5814 286.099 Q21.5814 290.841 24.6051 293.578 Q27.6288 296.315 32.8487 296.315 L52.9962 296.315 L52.9962 302.204 L17.3482 302.204 L17.3482 296.315 L22.8864 296.315 Q19.6717 294.215 18.0803 291.382 Q16.4888 288.518 16.4888 284.794 Q16.4888 278.651 20.3083 275.5 Q24.0958 272.349 31.4801 272.349 Z" fill="#000000" fill-rule="evenodd" fill-opacity="1" /><path clip-path="url(#clip900)" d="M 0 0 M22.7591 242.748 L3.47096 242.748 L3.47096 236.892 L52.9962 236.892 L52.9962 242.748 L47.649 242.748 Q50.8318 244.594 52.3914 247.427 Q53.9192 250.228 53.9192 254.175 Q53.9192 260.636 48.763 264.71 Q43.6067 268.752 35.204 268.752 Q26.8013 268.752 21.6451 264.71 Q16.4888 260.636 16.4888 254.175 Q16.4888 250.228 18.0484 247.427 Q19.5762 244.594 22.7591 242.748 M35.204 262.705 Q41.6652 262.705 45.3573 260.063 Q49.0176 257.389 49.0176 252.742 Q49.0176 248.095 45.3573 245.422 Q41.6652 242.748 35.204 242.748 Q28.7428 242.748 25.0825 245.422 Q21.3904 248.095 21.3904 252.742 Q21.3904 257.389 25.0825 260.063 Q28.7428 262.705 35.204 262.705 Z" fill="#000000" fill-rule="evenodd" fill-opacity="1" /><path clip-path="url(#clip900)" d="M 0 0 M33.7081 200.257 L36.5726 200.257 L36.5726 227.184 Q42.6201 226.802 45.8029 223.555 Q48.9539 220.277 48.9539 214.453 Q48.9539 211.079 48.1264 207.928 Q47.2989 204.745 45.6438 201.626 L51.1819 201.626 Q52.5187 204.777 53.219 208.087 Q53.9192 211.397 53.9192 214.803 Q53.9192 223.333 48.9539 228.33 Q43.9887 233.295 35.5223 233.295 Q26.7694 233.295 21.6451 228.584 Q16.4888 223.842 16.4888 215.821 Q16.4888 208.628 21.1358 204.458 Q25.7509 200.257 33.7081 200.257 M31.9893 206.113 Q27.1832 206.177 24.3186 208.819 Q21.4541 211.429 21.4541 215.757 Q21.4541 220.659 24.2232 223.619 Q26.9922 226.547 32.0212 226.993 L31.9893 206.113 Z" fill="#000000" fill-rule="evenodd" fill-opacity="1" /><path clip-path="url(#clip900)" d="M 0 0 M17.3482 165.628 L34.6948 178.518 L52.9962 164.959 L52.9962 171.866 L38.9916 182.242 L52.9962 192.618 L52.9962 199.525 L34.3446 185.68 L17.3482 198.347 L17.3482 191.44 L30.0478 181.987 L17.3482 172.534 L17.3482 165.628 Z" fill="#000000" fill-rule="evenodd" fill-opacity="1" /><line clip-path="url(#clip902)" x1="247.277" y1="662.556" x2="247.277" y2="630.556" style="stroke:#000000; stroke-width:1.6; stroke-opacity:1"/>
<line clip-path="url(#clip902)" x1="383.364" y1="662.556" x2="383.364" y2="630.556" style="stroke:#000000; stroke-width:1.6; stroke-opacity:1"/>
<line clip-path="url(#clip902)" x1="434.397" y1="662.556" x2="434.397" y2="630.556" style="stroke:#000000; stroke-width:1.6; stroke-opacity:1"/>
<line clip-path="url(#clip902)" x1="453.109" y1="662.556" x2="453.109" y2="630.556" style="stroke:#000000; stroke-width:1.6; stroke-opacity:1"/>
<line clip-path="url(#clip902)" x1="497.337" y1="662.556" x2="497.337" y2="630.556" style="stroke:#000000; stroke-width:1.6; stroke-opacity:1"/>
<line clip-path="url(#clip902)" x1="509.245" y1="662.556" x2="509.245" y2="630.556" style="stroke:#000000; stroke-width:1.6; stroke-opacity:1"/>
<line clip-path="url(#clip902)" x1="556.875" y1="662.556" x2="556.875" y2="630.556" style="stroke:#000000; stroke-width:1.6; stroke-opacity:1"/>
<line clip-path="url(#clip902)" x1="575.587" y1="662.556" x2="575.587" y2="630.556" style="stroke:#000000; stroke-width:1.6; stroke-opacity:1"/>
<line clip-path="url(#clip902)" x1="618.115" y1="662.556" x2="618.115" y2="630.556" style="stroke:#000000; stroke-width:1.6; stroke-opacity:1"/>
<line clip-path="url(#clip902)" x1="696.365" y1="662.556" x2="696.365" y2="630.556" style="stroke:#000000; stroke-width:1.6; stroke-opacity:1"/>
<line clip-path="url(#clip902)" x1="779.718" y1="662.556" x2="779.718" y2="630.556" style="stroke:#000000; stroke-width:1.6; stroke-opacity:1"/>
<line clip-path="url(#clip902)" x1="903.898" y1="662.556" x2="903.898" y2="630.556" style="stroke:#000000; stroke-width:1.6; stroke-opacity:1"/>
<line clip-path="url(#clip902)" x1="960.034" y1="662.556" x2="960.034" y2="630.556" style="stroke:#000000; stroke-width:1.6; stroke-opacity:1"/>
<line clip-path="url(#clip902)" x1="999.159" y1="662.556" x2="999.159" y2="630.556" style="stroke:#000000; stroke-width:1.6; stroke-opacity:1"/>
<line clip-path="url(#clip902)" x1="1019.57" y1="662.556" x2="1019.57" y2="630.556" style="stroke:#000000; stroke-width:1.6; stroke-opacity:1"/>
<line clip-path="url(#clip902)" x1="1097.82" y1="662.556" x2="1097.82" y2="630.556" style="stroke:#000000; stroke-width:1.6; stroke-opacity:1"/>
<line clip-path="url(#clip902)" x1="1135.25" y1="662.556" x2="1135.25" y2="630.556" style="stroke:#000000; stroke-width:1.6; stroke-opacity:1"/>
<line clip-path="url(#clip902)" x1="1147.15" y1="662.556" x2="1147.15" y2="630.556" style="stroke:#000000; stroke-width:1.6; stroke-opacity:1"/>
<line clip-path="url(#clip902)" x1="1230.51" y1="662.556" x2="1230.51" y2="630.556" style="stroke:#000000; stroke-width:1.6; stroke-opacity:1"/>
<line clip-path="url(#clip902)" x1="1259.43" y1="662.556" x2="1259.43" y2="630.556" style="stroke:#000000; stroke-width:1.6; stroke-opacity:1"/>
<line clip-path="url(#clip902)" x1="1312.16" y1="662.556" x2="1312.16" y2="630.556" style="stroke:#000000; stroke-width:1.6; stroke-opacity:1"/>
<line clip-path="url(#clip902)" x1="1351.28" y1="662.556" x2="1351.28" y2="630.556" style="stroke:#000000; stroke-width:1.6; stroke-opacity:1"/>
<line clip-path="url(#clip902)" x1="1483.97" y1="662.556" x2="1483.97" y2="630.556" style="stroke:#000000; stroke-width:1.6; stroke-opacity:1"/>
<line clip-path="url(#clip902)" x1="1557.12" y1="662.556" x2="1557.12" y2="630.556" style="stroke:#000000; stroke-width:1.6; stroke-opacity:1"/>
<line clip-path="url(#clip902)" x1="1597.94" y1="662.556" x2="1597.94" y2="630.556" style="stroke:#000000; stroke-width:1.6; stroke-opacity:1"/>
<line clip-path="url(#clip902)" x1="1705.11" y1="662.556" x2="1705.11" y2="630.556" style="stroke:#000000; stroke-width:1.6; stroke-opacity:1"/>
<line clip-path="url(#clip902)" x1="1739.13" y1="662.556" x2="1739.13" y2="630.556" style="stroke:#000000; stroke-width:1.6; stroke-opacity:1"/>
<line clip-path="url(#clip902)" x1="1819.08" y1="662.556" x2="1819.08" y2="630.556" style="stroke:#000000; stroke-width:1.6; stroke-opacity:1"/>
<line clip-path="url(#clip902)" x1="1868.42" y1="662.556" x2="1868.42" y2="630.556" style="stroke:#000000; stroke-width:1.6; stroke-opacity:1"/>
<line clip-path="url(#clip902)" x1="237.07" y1="597.905" x2="237.07" y2="565.905" style="stroke:#000000; stroke-width:1.6; stroke-opacity:1"/>
<line clip-path="url(#clip902)" x1="252.38" y1="597.905" x2="252.38" y2="565.905" style="stroke:#000000; stroke-width:1.6; stroke-opacity:1"/>
<line clip-path="url(#clip902)" x1="444.603" y1="597.905" x2="444.603" y2="565.905" style="stroke:#000000; stroke-width:1.6; stroke-opacity:1"/>
<line clip-path="url(#clip902)" x1="521.152" y1="597.905" x2="521.152" y2="565.905" style="stroke:#000000; stroke-width:1.6; stroke-opacity:1"/>
<line clip-path="url(#clip902)" x1="578.989" y1="597.905" x2="578.989" y2="565.905" style="stroke:#000000; stroke-width:1.6; stroke-opacity:1"/>
<line clip-path="url(#clip902)" x1="619.816" y1="597.905" x2="619.816" y2="565.905" style="stroke:#000000; stroke-width:1.6; stroke-opacity:1"/>
<line clip-path="url(#clip902)" x1="653.837" y1="597.905" x2="653.837" y2="565.905" style="stroke:#000000; stroke-width:1.6; stroke-opacity:1"/>
<line clip-path="url(#clip902)" x1="677.653" y1="597.905" x2="677.653" y2="565.905" style="stroke:#000000; stroke-width:1.6; stroke-opacity:1"/>
<line clip-path="url(#clip902)" x1="730.387" y1="597.905" x2="730.387" y2="565.905" style="stroke:#000000; stroke-width:1.6; stroke-opacity:1"/>
<line clip-path="url(#clip902)" x1="767.811" y1="597.905" x2="767.811" y2="565.905" style="stroke:#000000; stroke-width:1.6; stroke-opacity:1"/>
<line clip-path="url(#clip902)" x1="798.43" y1="597.905" x2="798.43" y2="565.905" style="stroke:#000000; stroke-width:1.6; stroke-opacity:1"/>
<line clip-path="url(#clip902)" x1="812.039" y1="597.905" x2="812.039" y2="565.905" style="stroke:#000000; stroke-width:1.6; stroke-opacity:1"/>
<line clip-path="url(#clip902)" x1="902.197" y1="597.905" x2="902.197" y2="565.905" style="stroke:#000000; stroke-width:1.6; stroke-opacity:1"/>
<line clip-path="url(#clip902)" x1="926.012" y1="597.905" x2="926.012" y2="565.905" style="stroke:#000000; stroke-width:1.6; stroke-opacity:1"/>
<line clip-path="url(#clip902)" x1="946.425" y1="597.905" x2="946.425" y2="565.905" style="stroke:#000000; stroke-width:1.6; stroke-opacity:1"/>
<line clip-path="url(#clip902)" x1="994.056" y1="597.905" x2="994.056" y2="565.905" style="stroke:#000000; stroke-width:1.6; stroke-opacity:1"/>
<line clip-path="url(#clip902)" x1="1038.28" y1="597.905" x2="1038.28" y2="565.905" style="stroke:#000000; stroke-width:1.6; stroke-opacity:1"/>
<line clip-path="url(#clip902)" x1="1087.62" y1="597.905" x2="1087.62" y2="565.905" style="stroke:#000000; stroke-width:1.6; stroke-opacity:1"/>
<line clip-path="url(#clip902)" x1="1104.63" y1="597.905" x2="1104.63" y2="565.905" style="stroke:#000000; stroke-width:1.6; stroke-opacity:1"/>
<line clip-path="url(#clip902)" x1="1130.14" y1="597.905" x2="1130.14" y2="565.905" style="stroke:#000000; stroke-width:1.6; stroke-opacity:1"/>
<line clip-path="url(#clip902)" x1="1145.45" y1="597.905" x2="1145.45" y2="565.905" style="stroke:#000000; stroke-width:1.6; stroke-opacity:1"/>
<line clip-path="url(#clip902)" x1="1222" y1="597.905" x2="1222" y2="565.905" style="stroke:#000000; stroke-width:1.6; stroke-opacity:1"/>
<line clip-path="url(#clip902)" x1="1240.71" y1="597.905" x2="1240.71" y2="565.905" style="stroke:#000000; stroke-width:1.6; stroke-opacity:1"/>
<line clip-path="url(#clip902)" x1="1324.07" y1="597.905" x2="1324.07" y2="565.905" style="stroke:#000000; stroke-width:1.6; stroke-opacity:1"/>
<line clip-path="url(#clip902)" x1="1368.3" y1="597.905" x2="1368.3" y2="565.905" style="stroke:#000000; stroke-width:1.6; stroke-opacity:1"/>
<line clip-path="url(#clip902)" x1="1392.11" y1="597.905" x2="1392.11" y2="565.905" style="stroke:#000000; stroke-width:1.6; stroke-opacity:1"/>
<line clip-path="url(#clip902)" x1="1460.15" y1="597.905" x2="1460.15" y2="565.905" style="stroke:#000000; stroke-width:1.6; stroke-opacity:1"/>
<line clip-path="url(#clip902)" x1="1596.24" y1="597.905" x2="1596.24" y2="565.905" style="stroke:#000000; stroke-width:1.6; stroke-opacity:1"/>
<line clip-path="url(#clip902)" x1="1788.46" y1="597.905" x2="1788.46" y2="565.905" style="stroke:#000000; stroke-width:1.6; stroke-opacity:1"/>
<line clip-path="url(#clip902)" x1="1834.39" y1="597.905" x2="1834.39" y2="565.905" style="stroke:#000000; stroke-width:1.6; stroke-opacity:1"/>
<line clip-path="url(#clip902)" x1="1887.13" y1="597.905" x2="1887.13" y2="565.905" style="stroke:#000000; stroke-width:1.6; stroke-opacity:1"/>
<line clip-path="url(#clip902)" x1="325.527" y1="533.255" x2="325.527" y2="501.255" style="stroke:#000000; stroke-width:1.6; stroke-opacity:1"/>
<line clip-path="url(#clip902)" x1="354.446" y1="533.255" x2="354.446" y2="501.255" style="stroke:#000000; stroke-width:1.6; stroke-opacity:1"/>
<line clip-path="url(#clip902)" x1="449.707" y1="533.255" x2="449.707" y2="501.255" style="stroke:#000000; stroke-width:1.6; stroke-opacity:1"/>
<line clip-path="url(#clip902)" x1="463.315" y1="533.255" x2="463.315" y2="501.255" style="stroke:#000000; stroke-width:1.6; stroke-opacity:1"/>
<line clip-path="url(#clip902)" x1="534.761" y1="533.255" x2="534.761" y2="501.255" style="stroke:#000000; stroke-width:1.6; stroke-opacity:1"/>
<line clip-path="url(#clip902)" x1="544.968" y1="533.255" x2="544.968" y2="501.255" style="stroke:#000000; stroke-width:1.6; stroke-opacity:1"/>
<line clip-path="url(#clip902)" x1="573.886" y1="533.255" x2="573.886" y2="501.255" style="stroke:#000000; stroke-width:1.6; stroke-opacity:1"/>
<line clip-path="url(#clip902)" x1="609.609" y1="533.255" x2="609.609" y2="501.255" style="stroke:#000000; stroke-width:1.6; stroke-opacity:1"/>
<line clip-path="url(#clip902)" x1="793.327" y1="533.255" x2="793.327" y2="501.255" style="stroke:#000000; stroke-width:1.6; stroke-opacity:1"/>
<line clip-path="url(#clip902)" x1="920.909" y1="533.255" x2="920.909" y2="501.255" style="stroke:#000000; stroke-width:1.6; stroke-opacity:1"/>
<line clip-path="url(#clip902)" x1="956.632" y1="533.255" x2="956.632" y2="501.255" style="stroke:#000000; stroke-width:1.6; stroke-opacity:1"/>
<line clip-path="url(#clip902)" x1="1009.37" y1="533.255" x2="1009.37" y2="501.255" style="stroke:#000000; stroke-width:1.6; stroke-opacity:1"/>
<line clip-path="url(#clip902)" x1="1043.39" y1="533.255" x2="1043.39" y2="501.255" style="stroke:#000000; stroke-width:1.6; stroke-opacity:1"/>
<line clip-path="url(#clip902)" x1="1162.46" y1="533.255" x2="1162.46" y2="501.255" style="stroke:#000000; stroke-width:1.6; stroke-opacity:1"/>
<line clip-path="url(#clip902)" x1="1198.19" y1="533.255" x2="1198.19" y2="501.255" style="stroke:#000000; stroke-width:1.6; stroke-opacity:1"/>
<line clip-path="url(#clip902)" x1="1210.09" y1="533.255" x2="1210.09" y2="501.255" style="stroke:#000000; stroke-width:1.6; stroke-opacity:1"/>
<line clip-path="url(#clip902)" x1="1244.12" y1="533.255" x2="1244.12" y2="501.255" style="stroke:#000000; stroke-width:1.6; stroke-opacity:1"/>
<line clip-path="url(#clip902)" x1="1279.84" y1="533.255" x2="1279.84" y2="501.255" style="stroke:#000000; stroke-width:1.6; stroke-opacity:1"/>
<line clip-path="url(#clip902)" x1="1312.16" y1="533.255" x2="1312.16" y2="501.255" style="stroke:#000000; stroke-width:1.6; stroke-opacity:1"/>
<line clip-path="url(#clip902)" x1="1341.08" y1="533.255" x2="1341.08" y2="501.255" style="stroke:#000000; stroke-width:1.6; stroke-opacity:1"/>
<line clip-path="url(#clip902)" x1="1352.99" y1="533.255" x2="1352.99" y2="501.255" style="stroke:#000000; stroke-width:1.6; stroke-opacity:1"/>
<line clip-path="url(#clip902)" x1="1375.1" y1="533.255" x2="1375.1" y2="501.255" style="stroke:#000000; stroke-width:1.6; stroke-opacity:1"/>
<line clip-path="url(#clip902)" x1="1392.11" y1="533.255" x2="1392.11" y2="501.255" style="stroke:#000000; stroke-width:1.6; stroke-opacity:1"/>
<line clip-path="url(#clip902)" x1="1468.66" y1="533.255" x2="1468.66" y2="501.255" style="stroke:#000000; stroke-width:1.6; stroke-opacity:1"/>
<line clip-path="url(#clip902)" x1="1609.85" y1="533.255" x2="1609.85" y2="501.255" style="stroke:#000000; stroke-width:1.6; stroke-opacity:1"/>
<line clip-path="url(#clip902)" x1="1689.8" y1="533.255" x2="1689.8" y2="501.255" style="stroke:#000000; stroke-width:1.6; stroke-opacity:1"/>
<line clip-path="url(#clip902)" x1="1839.5" y1="533.255" x2="1839.5" y2="501.255" style="stroke:#000000; stroke-width:1.6; stroke-opacity:1"/>
<line clip-path="url(#clip902)" x1="1875.22" y1="533.255" x2="1875.22" y2="501.255" style="stroke:#000000; stroke-width:1.6; stroke-opacity:1"/>
<line clip-path="url(#clip902)" x1="288.103" y1="468.604" x2="288.103" y2="436.604" style="stroke:#000000; stroke-width:1.6; stroke-opacity:1"/>
<line clip-path="url(#clip902)" x1="388.467" y1="468.604" x2="388.467" y2="436.604" style="stroke:#000000; stroke-width:1.6; stroke-opacity:1"/>
<line clip-path="url(#clip902)" x1="449.707" y1="468.604" x2="449.707" y2="436.604" style="stroke:#000000; stroke-width:1.6; stroke-opacity:1"/>
<line clip-path="url(#clip902)" x1="493.935" y1="468.604" x2="493.935" y2="436.604" style="stroke:#000000; stroke-width:1.6; stroke-opacity:1"/>
<line clip-path="url(#clip902)" x1="524.555" y1="468.604" x2="524.555" y2="436.604" style="stroke:#000000; stroke-width:1.6; stroke-opacity:1"/>
<line clip-path="url(#clip902)" x1="638.528" y1="468.604" x2="638.528" y2="436.604" style="stroke:#000000; stroke-width:1.6; stroke-opacity:1"/>
<line clip-path="url(#clip902)" x1="696.365" y1="468.604" x2="696.365" y2="436.604" style="stroke:#000000; stroke-width:1.6; stroke-opacity:1"/>
<line clip-path="url(#clip902)" x1="715.077" y1="468.604" x2="715.077" y2="436.604" style="stroke:#000000; stroke-width:1.6; stroke-opacity:1"/>
<line clip-path="url(#clip902)" x1="762.707" y1="468.604" x2="762.707" y2="436.604" style="stroke:#000000; stroke-width:1.6; stroke-opacity:1"/>
<line clip-path="url(#clip902)" x1="815.441" y1="468.604" x2="815.441" y2="436.604" style="stroke:#000000; stroke-width:1.6; stroke-opacity:1"/>
<line clip-path="url(#clip902)" x1="886.887" y1="468.604" x2="886.887" y2="436.604" style="stroke:#000000; stroke-width:1.6; stroke-opacity:1"/>
<line clip-path="url(#clip902)" x1="1065.5" y1="468.604" x2="1065.5" y2="436.604" style="stroke:#000000; stroke-width:1.6; stroke-opacity:1"/>
<line clip-path="url(#clip902)" x1="1089.32" y1="468.604" x2="1089.32" y2="436.604" style="stroke:#000000; stroke-width:1.6; stroke-opacity:1"/>
<line clip-path="url(#clip902)" x1="1193.08" y1="468.604" x2="1193.08" y2="436.604" style="stroke:#000000; stroke-width:1.6; stroke-opacity:1"/>
<line clip-path="url(#clip902)" x1="1461.86" y1="468.604" x2="1461.86" y2="436.604" style="stroke:#000000; stroke-width:1.6; stroke-opacity:1"/>
<line clip-path="url(#clip902)" x1="1478.87" y1="468.604" x2="1478.87" y2="436.604" style="stroke:#000000; stroke-width:1.6; stroke-opacity:1"/>
<line clip-path="url(#clip902)" x1="1586.03" y1="468.604" x2="1586.03" y2="436.604" style="stroke:#000000; stroke-width:1.6; stroke-opacity:1"/>
<line clip-path="url(#clip902)" x1="1603.05" y1="468.604" x2="1603.05" y2="436.604" style="stroke:#000000; stroke-width:1.6; stroke-opacity:1"/>
<line clip-path="url(#clip902)" x1="1684.7" y1="468.604" x2="1684.7" y2="436.604" style="stroke:#000000; stroke-width:1.6; stroke-opacity:1"/>
<line clip-path="url(#clip902)" x1="1696.61" y1="468.604" x2="1696.61" y2="436.604" style="stroke:#000000; stroke-width:1.6; stroke-opacity:1"/>
<line clip-path="url(#clip902)" x1="1739.13" y1="468.604" x2="1739.13" y2="436.604" style="stroke:#000000; stroke-width:1.6; stroke-opacity:1"/>
<line clip-path="url(#clip902)" x1="1803.77" y1="468.604" x2="1803.77" y2="436.604" style="stroke:#000000; stroke-width:1.6; stroke-opacity:1"/>
<line clip-path="url(#clip902)" x1="1825.89" y1="468.604" x2="1825.89" y2="436.604" style="stroke:#000000; stroke-width:1.6; stroke-opacity:1"/>
<line clip-path="url(#clip902)" x1="1863.31" y1="468.604" x2="1863.31" y2="436.604" style="stroke:#000000; stroke-width:1.6; stroke-opacity:1"/>
<line clip-path="url(#clip902)" x1="289.804" y1="403.953" x2="289.804" y2="371.953" style="stroke:#000000; stroke-width:1.6; stroke-opacity:1"/>
<line clip-path="url(#clip902)" x1="301.712" y1="403.953" x2="301.712" y2="371.953" style="stroke:#000000; stroke-width:1.6; stroke-opacity:1"/>
<line clip-path="url(#clip902)" x1="339.136" y1="403.953" x2="339.136" y2="371.953" style="stroke:#000000; stroke-width:1.6; stroke-opacity:1"/>
<line clip-path="url(#clip902)" x1="354.446" y1="403.953" x2="354.446" y2="371.953" style="stroke:#000000; stroke-width:1.6; stroke-opacity:1"/>
<line clip-path="url(#clip902)" x1="395.272" y1="403.953" x2="395.272" y2="371.953" style="stroke:#000000; stroke-width:1.6; stroke-opacity:1"/>
<line clip-path="url(#clip902)" x1="480.326" y1="403.953" x2="480.326" y2="371.953" style="stroke:#000000; stroke-width:1.6; stroke-opacity:1"/>
<line clip-path="url(#clip902)" x1="504.142" y1="403.953" x2="504.142" y2="371.953" style="stroke:#000000; stroke-width:1.6; stroke-opacity:1"/>
<line clip-path="url(#clip902)" x1="536.462" y1="403.953" x2="536.462" y2="371.953" style="stroke:#000000; stroke-width:1.6; stroke-opacity:1"/>
<line clip-path="url(#clip902)" x1="619.816" y1="403.953" x2="619.816" y2="371.953" style="stroke:#000000; stroke-width:1.6; stroke-opacity:1"/>
<line clip-path="url(#clip902)" x1="641.93" y1="403.953" x2="641.93" y2="371.953" style="stroke:#000000; stroke-width:1.6; stroke-opacity:1"/>
<line clip-path="url(#clip902)" x1="664.044" y1="403.953" x2="664.044" y2="371.953" style="stroke:#000000; stroke-width:1.6; stroke-opacity:1"/>
<line clip-path="url(#clip902)" x1="687.859" y1="403.953" x2="687.859" y2="371.953" style="stroke:#000000; stroke-width:1.6; stroke-opacity:1"/>
<line clip-path="url(#clip902)" x1="701.468" y1="403.953" x2="701.468" y2="371.953" style="stroke:#000000; stroke-width:1.6; stroke-opacity:1"/>
<line clip-path="url(#clip902)" x1="738.892" y1="403.953" x2="738.892" y2="371.953" style="stroke:#000000; stroke-width:1.6; stroke-opacity:1"/>
<line clip-path="url(#clip902)" x1="805.234" y1="403.953" x2="805.234" y2="371.953" style="stroke:#000000; stroke-width:1.6; stroke-opacity:1"/>
<line clip-path="url(#clip902)" x1="869.876" y1="403.953" x2="869.876" y2="371.953" style="stroke:#000000; stroke-width:1.6; stroke-opacity:1"/>
<line clip-path="url(#clip902)" x1="966.838" y1="403.953" x2="966.838" y2="371.953" style="stroke:#000000; stroke-width:1.6; stroke-opacity:1"/>
<line clip-path="url(#clip902)" x1="1257.72" y1="403.953" x2="1257.72" y2="371.953" style="stroke:#000000; stroke-width:1.6; stroke-opacity:1"/>
<line clip-path="url(#clip902)" x1="1305.36" y1="403.953" x2="1305.36" y2="371.953" style="stroke:#000000; stroke-width:1.6; stroke-opacity:1"/>
<line clip-path="url(#clip902)" x1="1385.31" y1="403.953" x2="1385.31" y2="371.953" style="stroke:#000000; stroke-width:1.6; stroke-opacity:1"/>
<line clip-path="url(#clip902)" x1="1404.02" y1="403.953" x2="1404.02" y2="371.953" style="stroke:#000000; stroke-width:1.6; stroke-opacity:1"/>
<line clip-path="url(#clip902)" x1="1422.73" y1="403.953" x2="1422.73" y2="371.953" style="stroke:#000000; stroke-width:1.6; stroke-opacity:1"/>
<line clip-path="url(#clip902)" x1="1456.75" y1="403.953" x2="1456.75" y2="371.953" style="stroke:#000000; stroke-width:1.6; stroke-opacity:1"/>
<line clip-path="url(#clip902)" x1="1500.98" y1="403.953" x2="1500.98" y2="371.953" style="stroke:#000000; stroke-width:1.6; stroke-opacity:1"/>
<line clip-path="url(#clip902)" x1="1609.85" y1="403.953" x2="1609.85" y2="371.953" style="stroke:#000000; stroke-width:1.6; stroke-opacity:1"/>
<line clip-path="url(#clip902)" x1="1625.16" y1="403.953" x2="1625.16" y2="371.953" style="stroke:#000000; stroke-width:1.6; stroke-opacity:1"/>
<line clip-path="url(#clip902)" x1="1689.8" y1="403.953" x2="1689.8" y2="371.953" style="stroke:#000000; stroke-width:1.6; stroke-opacity:1"/>
<line clip-path="url(#clip902)" x1="1863.31" y1="403.953" x2="1863.31" y2="371.953" style="stroke:#000000; stroke-width:1.6; stroke-opacity:1"/>
<line clip-path="url(#clip902)" x1="1902.44" y1="403.953" x2="1902.44" y2="371.953" style="stroke:#000000; stroke-width:1.6; stroke-opacity:1"/>
<line clip-path="url(#clip902)" x1="235.369" y1="339.303" x2="235.369" y2="307.303" style="stroke:#000000; stroke-width:1.6; stroke-opacity:1"/>
<line clip-path="url(#clip902)" x1="311.918" y1="339.303" x2="311.918" y2="307.303" style="stroke:#000000; stroke-width:1.6; stroke-opacity:1"/>
<line clip-path="url(#clip902)" x1="492.234" y1="339.303" x2="492.234" y2="307.303" style="stroke:#000000; stroke-width:1.6; stroke-opacity:1"/>
<line clip-path="url(#clip902)" x1="507.544" y1="339.303" x2="507.544" y2="307.303" style="stroke:#000000; stroke-width:1.6; stroke-opacity:1"/>
<line clip-path="url(#clip902)" x1="534.761" y1="339.303" x2="534.761" y2="307.303" style="stroke:#000000; stroke-width:1.6; stroke-opacity:1"/>
<line clip-path="url(#clip902)" x1="558.576" y1="339.303" x2="558.576" y2="307.303" style="stroke:#000000; stroke-width:1.6; stroke-opacity:1"/>
<line clip-path="url(#clip902)" x1="626.62" y1="339.303" x2="626.62" y2="307.303" style="stroke:#000000; stroke-width:1.6; stroke-opacity:1"/>
<line clip-path="url(#clip902)" x1="662.343" y1="339.303" x2="662.343" y2="307.303" style="stroke:#000000; stroke-width:1.6; stroke-opacity:1"/>
<line clip-path="url(#clip902)" x1="709.973" y1="339.303" x2="709.973" y2="307.303" style="stroke:#000000; stroke-width:1.6; stroke-opacity:1"/>
<line clip-path="url(#clip902)" x1="732.088" y1="339.303" x2="732.088" y2="307.303" style="stroke:#000000; stroke-width:1.6; stroke-opacity:1"/>
<line clip-path="url(#clip902)" x1="806.936" y1="339.303" x2="806.936" y2="307.303" style="stroke:#000000; stroke-width:1.6; stroke-opacity:1"/>
<line clip-path="url(#clip902)" x1="915.805" y1="339.303" x2="915.805" y2="307.303" style="stroke:#000000; stroke-width:1.6; stroke-opacity:1"/>
<line clip-path="url(#clip902)" x1="932.816" y1="339.303" x2="932.816" y2="307.303" style="stroke:#000000; stroke-width:1.6; stroke-opacity:1"/>
<line clip-path="url(#clip902)" x1="992.354" y1="339.303" x2="992.354" y2="307.303" style="stroke:#000000; stroke-width:1.6; stroke-opacity:1"/>
<line clip-path="url(#clip902)" x1="1041.69" y1="339.303" x2="1041.69" y2="307.303" style="stroke:#000000; stroke-width:1.6; stroke-opacity:1"/>
<line clip-path="url(#clip902)" x1="1094.42" y1="339.303" x2="1094.42" y2="307.303" style="stroke:#000000; stroke-width:1.6; stroke-opacity:1"/>
<line clip-path="url(#clip902)" x1="1126.74" y1="339.303" x2="1126.74" y2="307.303" style="stroke:#000000; stroke-width:1.6; stroke-opacity:1"/>
<line clip-path="url(#clip902)" x1="1232.21" y1="339.303" x2="1232.21" y2="307.303" style="stroke:#000000; stroke-width:1.6; stroke-opacity:1"/>
<line clip-path="url(#clip902)" x1="1359.79" y1="339.303" x2="1359.79" y2="307.303" style="stroke:#000000; stroke-width:1.6; stroke-opacity:1"/>
<line clip-path="url(#clip902)" x1="1492.47" y1="339.303" x2="1492.47" y2="307.303" style="stroke:#000000; stroke-width:1.6; stroke-opacity:1"/>
<line clip-path="url(#clip902)" x1="1533.3" y1="339.303" x2="1533.3" y2="307.303" style="stroke:#000000; stroke-width:1.6; stroke-opacity:1"/>
<line clip-path="url(#clip902)" x1="1562.22" y1="339.303" x2="1562.22" y2="307.303" style="stroke:#000000; stroke-width:1.6; stroke-opacity:1"/>
<line clip-path="url(#clip902)" x1="1582.63" y1="339.303" x2="1582.63" y2="307.303" style="stroke:#000000; stroke-width:1.6; stroke-opacity:1"/>
<line clip-path="url(#clip902)" x1="1652.38" y1="339.303" x2="1652.38" y2="307.303" style="stroke:#000000; stroke-width:1.6; stroke-opacity:1"/>
<line clip-path="url(#clip902)" x1="1727.23" y1="339.303" x2="1727.23" y2="307.303" style="stroke:#000000; stroke-width:1.6; stroke-opacity:1"/>
<line clip-path="url(#clip902)" x1="1796.97" y1="339.303" x2="1796.97" y2="307.303" style="stroke:#000000; stroke-width:1.6; stroke-opacity:1"/>
<line clip-path="url(#clip902)" x1="1834.39" y1="339.303" x2="1834.39" y2="307.303" style="stroke:#000000; stroke-width:1.6; stroke-opacity:1"/>
<line clip-path="url(#clip902)" x1="1882.02" y1="339.303" x2="1882.02" y2="307.303" style="stroke:#000000; stroke-width:1.6; stroke-opacity:1"/>
<line clip-path="url(#clip902)" x1="439.5" y1="274.652" x2="439.5" y2="242.652" style="stroke:#000000; stroke-width:1.6; stroke-opacity:1"/>
<line clip-path="url(#clip902)" x1="534.761" y1="274.652" x2="534.761" y2="242.652" style="stroke:#000000; stroke-width:1.6; stroke-opacity:1"/>
<line clip-path="url(#clip902)" x1="563.68" y1="274.652" x2="563.68" y2="242.652" style="stroke:#000000; stroke-width:1.6; stroke-opacity:1"/>
<line clip-path="url(#clip902)" x1="647.033" y1="274.652" x2="647.033" y2="242.652" style="stroke:#000000; stroke-width:1.6; stroke-opacity:1"/>
<line clip-path="url(#clip902)" x1="730.387" y1="274.652" x2="730.387" y2="242.652" style="stroke:#000000; stroke-width:1.6; stroke-opacity:1"/>
<line clip-path="url(#clip902)" x1="761.006" y1="274.652" x2="761.006" y2="242.652" style="stroke:#000000; stroke-width:1.6; stroke-opacity:1"/>
<line clip-path="url(#clip902)" x1="818.843" y1="274.652" x2="818.843" y2="242.652" style="stroke:#000000; stroke-width:1.6; stroke-opacity:1"/>
<line clip-path="url(#clip902)" x1="871.577" y1="274.652" x2="871.577" y2="242.652" style="stroke:#000000; stroke-width:1.6; stroke-opacity:1"/>
<line clip-path="url(#clip902)" x1="932.816" y1="274.652" x2="932.816" y2="242.652" style="stroke:#000000; stroke-width:1.6; stroke-opacity:1"/>
<line clip-path="url(#clip902)" x1="1000.86" y1="274.652" x2="1000.86" y2="242.652" style="stroke:#000000; stroke-width:1.6; stroke-opacity:1"/>
<line clip-path="url(#clip902)" x1="1028.08" y1="274.652" x2="1028.08" y2="242.652" style="stroke:#000000; stroke-width:1.6; stroke-opacity:1"/>
<line clip-path="url(#clip902)" x1="1041.69" y1="274.652" x2="1041.69" y2="242.652" style="stroke:#000000; stroke-width:1.6; stroke-opacity:1"/>
<line clip-path="url(#clip902)" x1="1094.42" y1="274.652" x2="1094.42" y2="242.652" style="stroke:#000000; stroke-width:1.6; stroke-opacity:1"/>
<line clip-path="url(#clip902)" x1="1108.03" y1="274.652" x2="1108.03" y2="242.652" style="stroke:#000000; stroke-width:1.6; stroke-opacity:1"/>
<line clip-path="url(#clip902)" x1="1191.38" y1="274.652" x2="1191.38" y2="242.652" style="stroke:#000000; stroke-width:1.6; stroke-opacity:1"/>
<line clip-path="url(#clip902)" x1="1218.6" y1="274.652" x2="1218.6" y2="242.652" style="stroke:#000000; stroke-width:1.6; stroke-opacity:1"/>
<line clip-path="url(#clip902)" x1="1228.81" y1="274.652" x2="1228.81" y2="242.652" style="stroke:#000000; stroke-width:1.6; stroke-opacity:1"/>
<line clip-path="url(#clip902)" x1="1250.92" y1="274.652" x2="1250.92" y2="242.652" style="stroke:#000000; stroke-width:1.6; stroke-opacity:1"/>
<line clip-path="url(#clip902)" x1="1286.64" y1="274.652" x2="1286.64" y2="242.652" style="stroke:#000000; stroke-width:1.6; stroke-opacity:1"/>
<line clip-path="url(#clip902)" x1="1359.79" y1="274.652" x2="1359.79" y2="242.652" style="stroke:#000000; stroke-width:1.6; stroke-opacity:1"/>
<line clip-path="url(#clip902)" x1="1572.43" y1="274.652" x2="1572.43" y2="242.652" style="stroke:#000000; stroke-width:1.6; stroke-opacity:1"/>
<line clip-path="url(#clip902)" x1="1616.65" y1="274.652" x2="1616.65" y2="242.652" style="stroke:#000000; stroke-width:1.6; stroke-opacity:1"/>
<line clip-path="url(#clip902)" x1="1659.18" y1="274.652" x2="1659.18" y2="242.652" style="stroke:#000000; stroke-width:1.6; stroke-opacity:1"/>
<line clip-path="url(#clip902)" x1="1825.89" y1="274.652" x2="1825.89" y2="242.652" style="stroke:#000000; stroke-width:1.6; stroke-opacity:1"/>
<line clip-path="url(#clip902)" x1="225.163" y1="210.001" x2="225.163" y2="178.001" style="stroke:#000000; stroke-width:1.6; stroke-opacity:1"/>
<line clip-path="url(#clip902)" x1="283" y1="210.001" x2="283" y2="178.001" style="stroke:#000000; stroke-width:1.6; stroke-opacity:1"/>
<line clip-path="url(#clip902)" x1="310.217" y1="210.001" x2="310.217" y2="178.001" style="stroke:#000000; stroke-width:1.6; stroke-opacity:1"/>
<line clip-path="url(#clip902)" x1="470.12" y1="210.001" x2="470.12" y2="178.001" style="stroke:#000000; stroke-width:1.6; stroke-opacity:1"/>
<line clip-path="url(#clip902)" x1="762.707" y1="210.001" x2="762.707" y2="178.001" style="stroke:#000000; stroke-width:1.6; stroke-opacity:1"/>
<line clip-path="url(#clip902)" x1="876.68" y1="210.001" x2="876.68" y2="178.001" style="stroke:#000000; stroke-width:1.6; stroke-opacity:1"/>
<line clip-path="url(#clip902)" x1="948.126" y1="210.001" x2="948.126" y2="178.001" style="stroke:#000000; stroke-width:1.6; stroke-opacity:1"/>
<line clip-path="url(#clip902)" x1="975.344" y1="210.001" x2="975.344" y2="178.001" style="stroke:#000000; stroke-width:1.6; stroke-opacity:1"/>
<line clip-path="url(#clip902)" x1="990.653" y1="210.001" x2="990.653" y2="178.001" style="stroke:#000000; stroke-width:1.6; stroke-opacity:1"/>
<line clip-path="url(#clip902)" x1="1065.5" y1="210.001" x2="1065.5" y2="178.001" style="stroke:#000000; stroke-width:1.6; stroke-opacity:1"/>
<line clip-path="url(#clip902)" x1="1109.73" y1="210.001" x2="1109.73" y2="178.001" style="stroke:#000000; stroke-width:1.6; stroke-opacity:1"/>
<line clip-path="url(#clip902)" x1="1142.05" y1="210.001" x2="1142.05" y2="178.001" style="stroke:#000000; stroke-width:1.6; stroke-opacity:1"/>
<line clip-path="url(#clip902)" x1="1296.85" y1="210.001" x2="1296.85" y2="178.001" style="stroke:#000000; stroke-width:1.6; stroke-opacity:1"/>
<line clip-path="url(#clip902)" x1="1313.86" y1="210.001" x2="1313.86" y2="178.001" style="stroke:#000000; stroke-width:1.6; stroke-opacity:1"/>
<line clip-path="url(#clip902)" x1="1364.89" y1="210.001" x2="1364.89" y2="178.001" style="stroke:#000000; stroke-width:1.6; stroke-opacity:1"/>
<line clip-path="url(#clip902)" x1="1409.12" y1="210.001" x2="1409.12" y2="178.001" style="stroke:#000000; stroke-width:1.6; stroke-opacity:1"/>
<line clip-path="url(#clip902)" x1="1449.95" y1="210.001" x2="1449.95" y2="178.001" style="stroke:#000000; stroke-width:1.6; stroke-opacity:1"/>
<line clip-path="url(#clip902)" x1="1485.67" y1="210.001" x2="1485.67" y2="178.001" style="stroke:#000000; stroke-width:1.6; stroke-opacity:1"/>
<line clip-path="url(#clip902)" x1="1535" y1="210.001" x2="1535" y2="178.001" style="stroke:#000000; stroke-width:1.6; stroke-opacity:1"/>
<line clip-path="url(#clip902)" x1="1572.43" y1="210.001" x2="1572.43" y2="178.001" style="stroke:#000000; stroke-width:1.6; stroke-opacity:1"/>
<line clip-path="url(#clip902)" x1="1603.05" y1="210.001" x2="1603.05" y2="178.001" style="stroke:#000000; stroke-width:1.6; stroke-opacity:1"/>
<line clip-path="url(#clip902)" x1="1630.26" y1="210.001" x2="1630.26" y2="178.001" style="stroke:#000000; stroke-width:1.6; stroke-opacity:1"/>
<line clip-path="url(#clip902)" x1="1717.02" y1="210.001" x2="1717.02" y2="178.001" style="stroke:#000000; stroke-width:1.6; stroke-opacity:1"/>
<line clip-path="url(#clip902)" x1="1759.55" y1="210.001" x2="1759.55" y2="178.001" style="stroke:#000000; stroke-width:1.6; stroke-opacity:1"/>
<line clip-path="url(#clip902)" x1="1819.08" y1="210.001" x2="1819.08" y2="178.001" style="stroke:#000000; stroke-width:1.6; stroke-opacity:1"/>
<line clip-path="url(#clip902)" x1="1873.52" y1="210.001" x2="1873.52" y2="178.001" style="stroke:#000000; stroke-width:1.6; stroke-opacity:1"/>
<line clip-path="url(#clip902)" x1="1885.43" y1="210.001" x2="1885.43" y2="178.001" style="stroke:#000000; stroke-width:1.6; stroke-opacity:1"/>
<line clip-path="url(#clip902)" x1="303.413" y1="145.35" x2="303.413" y2="113.35" style="stroke:#000000; stroke-width:1.6; stroke-opacity:1"/>
<line clip-path="url(#clip902)" x1="344.239" y1="145.35" x2="344.239" y2="113.35" style="stroke:#000000; stroke-width:1.6; stroke-opacity:1"/>
<line clip-path="url(#clip902)" x1="419.087" y1="145.35" x2="419.087" y2="113.35" style="stroke:#000000; stroke-width:1.6; stroke-opacity:1"/>
<line clip-path="url(#clip902)" x1="504.142" y1="145.35" x2="504.142" y2="113.35" style="stroke:#000000; stroke-width:1.6; stroke-opacity:1"/>
<line clip-path="url(#clip902)" x1="543.267" y1="145.35" x2="543.267" y2="113.35" style="stroke:#000000; stroke-width:1.6; stroke-opacity:1"/>
<line clip-path="url(#clip902)" x1="665.745" y1="145.35" x2="665.745" y2="113.35" style="stroke:#000000; stroke-width:1.6; stroke-opacity:1"/>
<line clip-path="url(#clip902)" x1="745.696" y1="145.35" x2="745.696" y2="113.35" style="stroke:#000000; stroke-width:1.6; stroke-opacity:1"/>
<line clip-path="url(#clip902)" x1="776.316" y1="145.35" x2="776.316" y2="113.35" style="stroke:#000000; stroke-width:1.6; stroke-opacity:1"/>
<line clip-path="url(#clip902)" x1="868.175" y1="145.35" x2="868.175" y2="113.35" style="stroke:#000000; stroke-width:1.6; stroke-opacity:1"/>
<line clip-path="url(#clip902)" x1="893.691" y1="145.35" x2="893.691" y2="113.35" style="stroke:#000000; stroke-width:1.6; stroke-opacity:1"/>
<line clip-path="url(#clip902)" x1="909.001" y1="145.35" x2="909.001" y2="113.35" style="stroke:#000000; stroke-width:1.6; stroke-opacity:1"/>
<line clip-path="url(#clip902)" x1="995.757" y1="145.35" x2="995.757" y2="113.35" style="stroke:#000000; stroke-width:1.6; stroke-opacity:1"/>
<line clip-path="url(#clip902)" x1="1060.4" y1="145.35" x2="1060.4" y2="113.35" style="stroke:#000000; stroke-width:1.6; stroke-opacity:1"/>
<line clip-path="url(#clip902)" x1="1080.81" y1="145.35" x2="1080.81" y2="113.35" style="stroke:#000000; stroke-width:1.6; stroke-opacity:1"/>
<line clip-path="url(#clip902)" x1="1148.85" y1="145.35" x2="1148.85" y2="113.35" style="stroke:#000000; stroke-width:1.6; stroke-opacity:1"/>
<line clip-path="url(#clip902)" x1="1169.27" y1="145.35" x2="1169.27" y2="113.35" style="stroke:#000000; stroke-width:1.6; stroke-opacity:1"/>
<line clip-path="url(#clip902)" x1="1244.12" y1="145.35" x2="1244.12" y2="113.35" style="stroke:#000000; stroke-width:1.6; stroke-opacity:1"/>
<line clip-path="url(#clip902)" x1="1358.09" y1="145.35" x2="1358.09" y2="113.35" style="stroke:#000000; stroke-width:1.6; stroke-opacity:1"/>
<line clip-path="url(#clip902)" x1="1392.11" y1="145.35" x2="1392.11" y2="113.35" style="stroke:#000000; stroke-width:1.6; stroke-opacity:1"/>
<line clip-path="url(#clip902)" x1="1424.43" y1="145.35" x2="1424.43" y2="113.35" style="stroke:#000000; stroke-width:1.6; stroke-opacity:1"/>
<line clip-path="url(#clip902)" x1="1492.47" y1="145.35" x2="1492.47" y2="113.35" style="stroke:#000000; stroke-width:1.6; stroke-opacity:1"/>
<line clip-path="url(#clip902)" x1="1521.39" y1="145.35" x2="1521.39" y2="113.35" style="stroke:#000000; stroke-width:1.6; stroke-opacity:1"/>
<line clip-path="url(#clip902)" x1="1538.4" y1="145.35" x2="1538.4" y2="113.35" style="stroke:#000000; stroke-width:1.6; stroke-opacity:1"/>
<line clip-path="url(#clip902)" x1="1587.74" y1="145.35" x2="1587.74" y2="113.35" style="stroke:#000000; stroke-width:1.6; stroke-opacity:1"/>
<line clip-path="url(#clip902)" x1="1597.94" y1="145.35" x2="1597.94" y2="113.35" style="stroke:#000000; stroke-width:1.6; stroke-opacity:1"/>
<line clip-path="url(#clip902)" x1="1665.99" y1="145.35" x2="1665.99" y2="113.35" style="stroke:#000000; stroke-width:1.6; stroke-opacity:1"/>
<line clip-path="url(#clip902)" x1="1711.92" y1="145.35" x2="1711.92" y2="113.35" style="stroke:#000000; stroke-width:1.6; stroke-opacity:1"/>
<line clip-path="url(#clip902)" x1="1827.59" y1="145.35" x2="1827.59" y2="113.35" style="stroke:#000000; stroke-width:1.6; stroke-opacity:1"/>
<line clip-path="url(#clip902)" x1="283" y1="80.6998" x2="283" y2="48.6998" style="stroke:#000000; stroke-width:1.6; stroke-opacity:1"/>
<line clip-path="url(#clip902)" x1="337.435" y1="80.6998" x2="337.435" y2="48.6998" style="stroke:#000000; stroke-width:1.6; stroke-opacity:1"/>
<line clip-path="url(#clip902)" x1="371.456" y1="80.6998" x2="371.456" y2="48.6998" style="stroke:#000000; stroke-width:1.6; stroke-opacity:1"/>
<line clip-path="url(#clip902)" x1="546.669" y1="80.6998" x2="546.669" y2="48.6998" style="stroke:#000000; stroke-width:1.6; stroke-opacity:1"/>
<line clip-path="url(#clip902)" x1="613.011" y1="80.6998" x2="613.011" y2="48.6998" style="stroke:#000000; stroke-width:1.6; stroke-opacity:1"/>
<line clip-path="url(#clip902)" x1="730.387" y1="80.6998" x2="730.387" y2="48.6998" style="stroke:#000000; stroke-width:1.6; stroke-opacity:1"/>
<line clip-path="url(#clip902)" x1="783.12" y1="80.6998" x2="783.12" y2="48.6998" style="stroke:#000000; stroke-width:1.6; stroke-opacity:1"/>
<line clip-path="url(#clip902)" x1="857.968" y1="80.6998" x2="857.968" y2="48.6998" style="stroke:#000000; stroke-width:1.6; stroke-opacity:1"/>
<line clip-path="url(#clip902)" x1="891.99" y1="80.6998" x2="891.99" y2="48.6998" style="stroke:#000000; stroke-width:1.6; stroke-opacity:1"/>
<line clip-path="url(#clip902)" x1="968.539" y1="80.6998" x2="968.539" y2="48.6998" style="stroke:#000000; stroke-width:1.6; stroke-opacity:1"/>
<line clip-path="url(#clip902)" x1="1094.42" y1="80.6998" x2="1094.42" y2="48.6998" style="stroke:#000000; stroke-width:1.6; stroke-opacity:1"/>
<line clip-path="url(#clip902)" x1="1208.39" y1="80.6998" x2="1208.39" y2="48.6998" style="stroke:#000000; stroke-width:1.6; stroke-opacity:1"/>
<line clip-path="url(#clip902)" x1="1278.14" y1="80.6998" x2="1278.14" y2="48.6998" style="stroke:#000000; stroke-width:1.6; stroke-opacity:1"/>
<line clip-path="url(#clip902)" x1="1310.46" y1="80.6998" x2="1310.46" y2="48.6998" style="stroke:#000000; stroke-width:1.6; stroke-opacity:1"/>
<line clip-path="url(#clip902)" x1="1359.79" y1="80.6998" x2="1359.79" y2="48.6998" style="stroke:#000000; stroke-width:1.6; stroke-opacity:1"/>
<line clip-path="url(#clip902)" x1="1478.87" y1="80.6998" x2="1478.87" y2="48.6998" style="stroke:#000000; stroke-width:1.6; stroke-opacity:1"/>
<line clip-path="url(#clip902)" x1="1660.88" y1="80.6998" x2="1660.88" y2="48.6998" style="stroke:#000000; stroke-width:1.6; stroke-opacity:1"/>
<line clip-path="url(#clip902)" x1="1744.24" y1="80.6998" x2="1744.24" y2="48.6998" style="stroke:#000000; stroke-width:1.6; stroke-opacity:1"/>
<line clip-path="url(#clip902)" x1="1878.62" y1="80.6998" x2="1878.62" y2="48.6998" style="stroke:#000000; stroke-width:1.6; stroke-opacity:1"/>
</svg>
