<?xml version="1.0" encoding="utf-8"?>
<svg xmlns="http://www.w3.org/2000/svg" xmlns:xlink="http://www.w3.org/1999/xlink" width="500" height="200" viewBox="0 0 2000 800">
<defs>
  <clipPath id="clip850">
    <rect x="0" y="0" width="2000" height="800"/>
  </clipPath>
</defs>
<path clip-path="url(#clip850)" d="
M0 800 L2000 800 L2000 0 L0 0  Z
  " fill="#ffffff" fill-rule="evenodd" fill-opacity="1"/>
<defs>
  <clipPath id="clip851">
    <rect x="400" y="0" width="1401" height="800"/>
  </clipPath>
</defs>
<path clip-path="url(#clip850)" d="
M174.844 664.012 L1952.76 664.012 L1952.76 47.2441 L174.844 47.2441  Z
  " fill="#ffffff" fill-rule="evenodd" fill-opacity="1"/>
<defs>
  <clipPath id="clip852">
    <rect x="174" y="47" width="1779" height="618"/>
  </clipPath>
</defs>
<polyline clip-path="url(#clip852)" style="stroke:#000000; stroke-width:2; stroke-opacity:0.1; fill:none" points="
  204.75,664.012 204.75,47.2441 
  "/>
<polyline clip-path="url(#clip852)" style="stroke:#000000; stroke-width:2; stroke-opacity:0.1; fill:none" points="
  630.022,664.012 630.022,47.2441 
  "/>
<polyline clip-path="url(#clip852)" style="stroke:#000000; stroke-width:2; stroke-opacity:0.1; fill:none" points="
  1055.29,664.012 1055.29,47.2441 
  "/>
<polyline clip-path="url(#clip852)" style="stroke:#000000; stroke-width:2; stroke-opacity:0.1; fill:none" points="
  1480.57,664.012 1480.57,47.2441 
  "/>
<polyline clip-path="url(#clip852)" style="stroke:#000000; stroke-width:2; stroke-opacity:0.1; fill:none" points="
  1905.84,664.012 1905.84,47.2441 
  "/>
<polyline clip-path="url(#clip852)" style="stroke:#000000; stroke-width:2; stroke-opacity:0.1; fill:none" points="
  174.844,581.905 1952.76,581.905 
  "/>
<polyline clip-path="url(#clip852)" style="stroke:#000000; stroke-width:2; stroke-opacity:0.1; fill:none" points="
  174.844,452.604 1952.76,452.604 
  "/>
<polyline clip-path="url(#clip852)" style="stroke:#000000; stroke-width:2; stroke-opacity:0.1; fill:none" points="
  174.844,323.303 1952.76,323.303 
  "/>
<polyline clip-path="url(#clip852)" style="stroke:#000000; stroke-width:2; stroke-opacity:0.1; fill:none" points="
  174.844,194.001 1952.76,194.001 
  "/>
<polyline clip-path="url(#clip852)" style="stroke:#000000; stroke-width:2; stroke-opacity:0.1; fill:none" points="
  174.844,64.6998 1952.76,64.6998 
  "/>
<polyline clip-path="url(#clip850)" style="stroke:#000000; stroke-width:4; stroke-opacity:1; fill:none" points="
  174.844,664.012 1952.76,664.012 
  "/>
<polyline clip-path="url(#clip850)" style="stroke:#000000; stroke-width:4; stroke-opacity:1; fill:none" points="
  174.844,664.012 174.844,47.2441 
  "/>
<polyline clip-path="url(#clip850)" style="stroke:#000000; stroke-width:4; stroke-opacity:1; fill:none" points="
  204.75,664.012 204.75,656.611 
  "/>
<polyline clip-path="url(#clip850)" style="stroke:#000000; stroke-width:4; stroke-opacity:1; fill:none" points="
  630.022,664.012 630.022,656.611 
  "/>
<polyline clip-path="url(#clip850)" style="stroke:#000000; stroke-width:4; stroke-opacity:1; fill:none" points="
  1055.29,664.012 1055.29,656.611 
  "/>
<polyline clip-path="url(#clip850)" style="stroke:#000000; stroke-width:4; stroke-opacity:1; fill:none" points="
  1480.57,664.012 1480.57,656.611 
  "/>
<polyline clip-path="url(#clip850)" style="stroke:#000000; stroke-width:4; stroke-opacity:1; fill:none" points="
  1905.84,664.012 1905.84,656.611 
  "/>
<polyline clip-path="url(#clip850)" style="stroke:#000000; stroke-width:4; stroke-opacity:1; fill:none" points="
  174.844,581.905 196.179,581.905 
  "/>
<polyline clip-path="url(#clip850)" style="stroke:#000000; stroke-width:4; stroke-opacity:1; fill:none" points="
  174.844,452.604 196.179,452.604 
  "/>
<polyline clip-path="url(#clip850)" style="stroke:#000000; stroke-width:4; stroke-opacity:1; fill:none" points="
  174.844,323.303 196.179,323.303 
  "/>
<polyline clip-path="url(#clip850)" style="stroke:#000000; stroke-width:4; stroke-opacity:1; fill:none" points="
  174.844,194.001 196.179,194.001 
  "/>
<polyline clip-path="url(#clip850)" style="stroke:#000000; stroke-width:4; stroke-opacity:1; fill:none" points="
  174.844,64.6998 196.179,64.6998 
  "/>
<path clip-path="url(#clip850)" d="M 0 0 M204.75 684.003 Q201.139 684.003 199.31 687.567 Q197.504 691.109 197.504 698.239 Q197.504 705.345 199.31 708.91 Q201.139 712.451 204.75 712.451 Q208.384 712.451 210.189 708.91 Q212.018 705.345 212.018 698.239 Q212.018 691.109 210.189 687.567 Q208.384 684.003 204.75 684.003 M204.75 680.299 Q210.56 680.299 213.615 684.905 Q216.694 689.489 216.694 698.239 Q216.694 706.965 213.615 711.572 Q210.56 716.155 204.75 716.155 Q198.94 716.155 195.861 711.572 Q192.805 706.965 192.805 698.239 Q192.805 689.489 195.861 684.905 Q198.94 680.299 204.75 680.299 Z" fill="#000000" fill-rule="evenodd" fill-opacity="1" /><path clip-path="url(#clip850)" d="M 0 0 M598.159 711.549 L614.478 711.549 L614.478 715.484 L592.534 715.484 L592.534 711.549 Q595.196 708.794 599.779 704.164 Q604.386 699.512 605.566 698.169 Q607.812 695.646 608.691 693.91 Q609.594 692.151 609.594 690.461 Q609.594 687.706 607.65 685.97 Q605.728 684.234 602.627 684.234 Q600.427 684.234 597.974 684.998 Q595.543 685.762 592.765 687.313 L592.765 682.591 Q595.59 681.456 598.043 680.878 Q600.497 680.299 602.534 680.299 Q607.904 680.299 611.099 682.984 Q614.293 685.669 614.293 690.16 Q614.293 692.29 613.483 694.211 Q612.696 696.109 610.589 698.702 Q610.011 699.373 606.909 702.59 Q603.807 705.785 598.159 711.549 Z" fill="#000000" fill-rule="evenodd" fill-opacity="1" /><path clip-path="url(#clip850)" d="M 0 0 M619.594 680.924 L637.95 680.924 L637.95 684.859 L623.876 684.859 L623.876 693.331 Q624.895 692.984 625.913 692.822 Q626.932 692.637 627.95 692.637 Q633.737 692.637 637.117 695.808 Q640.497 698.979 640.497 704.396 Q640.497 709.975 637.024 713.076 Q633.552 716.155 627.233 716.155 Q625.057 716.155 622.788 715.785 Q620.543 715.414 618.136 714.674 L618.136 709.975 Q620.219 711.109 622.441 711.664 Q624.663 712.22 627.14 712.22 Q631.145 712.22 633.483 710.114 Q635.821 708.007 635.821 704.396 Q635.821 700.785 633.483 698.678 Q631.145 696.572 627.14 696.572 Q625.265 696.572 623.39 696.989 Q621.538 697.405 619.594 698.285 L619.594 680.924 Z" fill="#000000" fill-rule="evenodd" fill-opacity="1" /><path clip-path="url(#clip850)" d="M 0 0 M655.566 684.003 Q651.955 684.003 650.126 687.567 Q648.321 691.109 648.321 698.239 Q648.321 705.345 650.126 708.91 Q651.955 712.451 655.566 712.451 Q659.2 712.451 661.006 708.91 Q662.835 705.345 662.835 698.239 Q662.835 691.109 661.006 687.567 Q659.2 684.003 655.566 684.003 M655.566 680.299 Q661.376 680.299 664.432 684.905 Q667.51 689.489 667.51 698.239 Q667.51 706.965 664.432 711.572 Q661.376 716.155 655.566 716.155 Q649.756 716.155 646.677 711.572 Q643.622 706.965 643.622 698.239 Q643.622 689.489 646.677 684.905 Q649.756 680.299 655.566 680.299 Z" fill="#000000" fill-rule="evenodd" fill-opacity="1" /><path clip-path="url(#clip850)" d="M 0 0 M1018.56 680.924 L1036.92 680.924 L1036.92 684.859 L1022.84 684.859 L1022.84 693.331 Q1023.86 692.984 1024.88 692.822 Q1025.9 692.637 1026.92 692.637 Q1032.7 692.637 1036.08 695.808 Q1039.46 698.979 1039.46 704.396 Q1039.46 709.975 1035.99 713.076 Q1032.52 716.155 1026.2 716.155 Q1024.02 716.155 1021.75 715.785 Q1019.51 715.414 1017.1 714.674 L1017.1 709.975 Q1019.18 711.109 1021.41 711.664 Q1023.63 712.22 1026.11 712.22 Q1030.11 712.22 1032.45 710.114 Q1034.79 708.007 1034.79 704.396 Q1034.79 700.785 1032.45 698.678 Q1030.11 696.572 1026.11 696.572 Q1024.23 696.572 1022.36 696.989 Q1020.5 697.405 1018.56 698.285 L1018.56 680.924 Z" fill="#000000" fill-rule="evenodd" fill-opacity="1" /><path clip-path="url(#clip850)" d="M 0 0 M1054.53 684.003 Q1050.92 684.003 1049.09 687.567 Q1047.29 691.109 1047.29 698.239 Q1047.29 705.345 1049.09 708.91 Q1050.92 712.451 1054.53 712.451 Q1058.17 712.451 1059.97 708.91 Q1061.8 705.345 1061.8 698.239 Q1061.8 691.109 1059.97 687.567 Q1058.17 684.003 1054.53 684.003 M1054.53 680.299 Q1060.34 680.299 1063.4 684.905 Q1066.48 689.489 1066.48 698.239 Q1066.48 706.965 1063.4 711.572 Q1060.34 716.155 1054.53 716.155 Q1048.72 716.155 1045.64 711.572 Q1042.59 706.965 1042.59 698.239 Q1042.59 689.489 1045.64 684.905 Q1048.72 680.299 1054.53 680.299 Z" fill="#000000" fill-rule="evenodd" fill-opacity="1" /><path clip-path="url(#clip850)" d="M 0 0 M1081.54 684.003 Q1077.93 684.003 1076.1 687.567 Q1074.3 691.109 1074.3 698.239 Q1074.3 705.345 1076.1 708.91 Q1077.93 712.451 1081.54 712.451 Q1085.18 712.451 1086.98 708.91 Q1088.81 705.345 1088.81 698.239 Q1088.81 691.109 1086.98 687.567 Q1085.18 684.003 1081.54 684.003 M1081.54 680.299 Q1087.35 680.299 1090.41 684.905 Q1093.49 689.489 1093.49 698.239 Q1093.49 706.965 1090.41 711.572 Q1087.35 716.155 1081.54 716.155 Q1075.73 716.155 1072.66 711.572 Q1069.6 706.965 1069.6 698.239 Q1069.6 689.489 1072.66 684.905 Q1075.73 680.299 1081.54 680.299 Z" fill="#000000" fill-rule="evenodd" fill-opacity="1" /><path clip-path="url(#clip850)" d="M 0 0 M1442.94 680.924 L1465.16 680.924 L1465.16 682.915 L1452.62 715.484 L1447.73 715.484 L1459.54 684.859 L1442.94 684.859 L1442.94 680.924 Z" fill="#000000" fill-rule="evenodd" fill-opacity="1" /><path clip-path="url(#clip850)" d="M 0 0 M1470.28 680.924 L1488.63 680.924 L1488.63 684.859 L1474.56 684.859 L1474.56 693.331 Q1475.58 692.984 1476.6 692.822 Q1477.62 692.637 1478.63 692.637 Q1484.42 692.637 1487.8 695.808 Q1491.18 698.979 1491.18 704.396 Q1491.18 709.975 1487.71 713.076 Q1484.24 716.155 1477.92 716.155 Q1475.74 716.155 1473.47 715.785 Q1471.23 715.414 1468.82 714.674 L1468.82 709.975 Q1470.9 711.109 1473.13 711.664 Q1475.35 712.22 1477.82 712.22 Q1481.83 712.22 1484.17 710.114 Q1486.5 708.007 1486.5 704.396 Q1486.5 700.785 1484.17 698.678 Q1481.83 696.572 1477.82 696.572 Q1475.95 696.572 1474.07 696.989 Q1472.22 697.405 1470.28 698.285 L1470.28 680.924 Z" fill="#000000" fill-rule="evenodd" fill-opacity="1" /><path clip-path="url(#clip850)" d="M 0 0 M1506.25 684.003 Q1502.64 684.003 1500.81 687.567 Q1499 691.109 1499 698.239 Q1499 705.345 1500.81 708.91 Q1502.64 712.451 1506.25 712.451 Q1509.88 712.451 1511.69 708.91 Q1513.52 705.345 1513.52 698.239 Q1513.52 691.109 1511.69 687.567 Q1509.88 684.003 1506.25 684.003 M1506.25 680.299 Q1512.06 680.299 1515.12 684.905 Q1518.19 689.489 1518.19 698.239 Q1518.19 706.965 1515.12 711.572 Q1512.06 716.155 1506.25 716.155 Q1500.44 716.155 1497.36 711.572 Q1494.31 706.965 1494.31 698.239 Q1494.31 689.489 1497.36 684.905 Q1500.44 680.299 1506.25 680.299 Z" fill="#000000" fill-rule="evenodd" fill-opacity="1" /><path clip-path="url(#clip850)" d="M 0 0 M1855.7 711.549 L1863.34 711.549 L1863.34 685.183 L1855.03 686.85 L1855.03 682.591 L1863.29 680.924 L1867.97 680.924 L1867.97 711.549 L1875.61 711.549 L1875.61 715.484 L1855.7 715.484 L1855.7 711.549 Z" fill="#000000" fill-rule="evenodd" fill-opacity="1" /><path clip-path="url(#clip850)" d="M 0 0 M1890.68 684.003 Q1887.07 684.003 1885.24 687.567 Q1883.43 691.109 1883.43 698.239 Q1883.43 705.345 1885.24 708.91 Q1887.07 712.451 1890.68 712.451 Q1894.31 712.451 1896.12 708.91 Q1897.95 705.345 1897.95 698.239 Q1897.95 691.109 1896.12 687.567 Q1894.31 684.003 1890.68 684.003 M1890.68 680.299 Q1896.49 680.299 1899.54 684.905 Q1902.62 689.489 1902.62 698.239 Q1902.62 706.965 1899.54 711.572 Q1896.49 716.155 1890.68 716.155 Q1884.87 716.155 1881.79 711.572 Q1878.73 706.965 1878.73 698.239 Q1878.73 689.489 1881.79 684.905 Q1884.87 680.299 1890.68 680.299 Z" fill="#000000" fill-rule="evenodd" fill-opacity="1" /><path clip-path="url(#clip850)" d="M 0 0 M1917.69 684.003 Q1914.08 684.003 1912.25 687.567 Q1910.45 691.109 1910.45 698.239 Q1910.45 705.345 1912.25 708.91 Q1914.08 712.451 1917.69 712.451 Q1921.33 712.451 1923.13 708.91 Q1924.96 705.345 1924.96 698.239 Q1924.96 691.109 1923.13 687.567 Q1921.33 684.003 1917.69 684.003 M1917.69 680.299 Q1923.5 680.299 1926.56 684.905 Q1929.64 689.489 1929.64 698.239 Q1929.64 706.965 1926.56 711.572 Q1923.5 716.155 1917.69 716.155 Q1911.88 716.155 1908.8 711.572 Q1905.75 706.965 1905.75 698.239 Q1905.75 689.489 1908.8 684.905 Q1911.88 680.299 1917.69 680.299 Z" fill="#000000" fill-rule="evenodd" fill-opacity="1" /><path clip-path="url(#clip850)" d="M 0 0 M1944.71 684.003 Q1941.09 684.003 1939.27 687.567 Q1937.46 691.109 1937.46 698.239 Q1937.46 705.345 1939.27 708.91 Q1941.09 712.451 1944.71 712.451 Q1948.34 712.451 1950.15 708.91 Q1951.97 705.345 1951.97 698.239 Q1951.97 691.109 1950.15 687.567 Q1948.34 684.003 1944.71 684.003 M1944.71 680.299 Q1950.52 680.299 1953.57 684.905 Q1956.65 689.489 1956.65 698.239 Q1956.65 706.965 1953.57 711.572 Q1950.52 716.155 1944.71 716.155 Q1938.9 716.155 1935.82 711.572 Q1932.76 706.965 1932.76 698.239 Q1932.76 689.489 1935.82 684.905 Q1938.9 680.299 1944.71 680.299 Z" fill="#000000" fill-rule="evenodd" fill-opacity="1" /><path clip-path="url(#clip850)" d="M 0 0 M138.525 595.25 L154.844 595.25 L154.844 599.185 L132.9 599.185 L132.9 595.25 Q135.562 592.496 140.145 587.866 Q144.752 583.213 145.933 581.871 Q148.178 579.348 149.057 577.611 Q149.96 575.852 149.96 574.162 Q149.96 571.408 148.016 569.672 Q146.095 567.936 142.993 567.936 Q140.794 567.936 138.34 568.699 Q135.909 569.463 133.132 571.014 L133.132 566.292 Q135.956 565.158 138.409 564.579 Q140.863 564 142.9 564 Q148.27 564 151.465 566.686 Q154.659 569.371 154.659 573.862 Q154.659 575.991 153.849 577.912 Q153.062 579.811 150.956 582.403 Q150.377 583.074 147.275 586.292 Q144.173 589.486 138.525 595.25 Z" fill="#000000" fill-rule="evenodd" fill-opacity="1" /><path clip-path="url(#clip850)" d="M 0 0 M145.261 439.398 L133.456 457.847 L145.261 457.847 L145.261 439.398 M144.034 435.324 L149.914 435.324 L149.914 457.847 L154.844 457.847 L154.844 461.736 L149.914 461.736 L149.914 469.884 L145.261 469.884 L145.261 461.736 L129.659 461.736 L129.659 457.222 L144.034 435.324 Z" fill="#000000" fill-rule="evenodd" fill-opacity="1" /><path clip-path="url(#clip850)" d="M 0 0 M143.317 321.439 Q140.169 321.439 138.317 323.592 Q136.488 325.745 136.488 329.495 Q136.488 333.222 138.317 335.397 Q140.169 337.55 143.317 337.55 Q146.465 337.55 148.294 335.397 Q150.145 333.222 150.145 329.495 Q150.145 325.745 148.294 323.592 Q146.465 321.439 143.317 321.439 M152.599 306.786 L152.599 311.046 Q150.84 310.212 149.034 309.773 Q147.252 309.333 145.493 309.333 Q140.863 309.333 138.409 312.458 Q135.979 315.583 135.632 321.902 Q136.997 319.888 139.058 318.823 Q141.118 317.736 143.595 317.736 Q148.803 317.736 151.812 320.907 Q154.844 324.055 154.844 329.495 Q154.844 334.819 151.696 338.036 Q148.548 341.254 143.317 341.254 Q137.321 341.254 134.15 336.671 Q130.979 332.064 130.979 323.337 Q130.979 315.143 134.868 310.282 Q138.757 305.398 145.308 305.398 Q147.067 305.398 148.849 305.745 Q150.655 306.092 152.599 306.786 Z" fill="#000000" fill-rule="evenodd" fill-opacity="1" /><path clip-path="url(#clip850)" d="M 0 0 M142.993 194.869 Q139.659 194.869 137.738 196.652 Q135.84 198.434 135.84 201.559 Q135.84 204.684 137.738 206.466 Q139.659 208.249 142.993 208.249 Q146.326 208.249 148.247 206.466 Q150.169 204.661 150.169 201.559 Q150.169 198.434 148.247 196.652 Q146.349 194.869 142.993 194.869 M138.317 192.879 Q135.308 192.138 133.618 190.078 Q131.951 188.017 131.951 185.054 Q131.951 180.911 134.891 178.504 Q137.854 176.096 142.993 176.096 Q148.155 176.096 151.095 178.504 Q154.034 180.911 154.034 185.054 Q154.034 188.017 152.345 190.078 Q150.678 192.138 147.692 192.879 Q151.071 193.666 152.946 195.957 Q154.844 198.249 154.844 201.559 Q154.844 206.582 151.766 209.267 Q148.71 211.952 142.993 211.952 Q137.275 211.952 134.196 209.267 Q131.141 206.582 131.141 201.559 Q131.141 198.249 133.039 195.957 Q134.937 193.666 138.317 192.879 M136.604 185.494 Q136.604 188.179 138.271 189.684 Q139.96 191.189 142.993 191.189 Q146.002 191.189 147.692 189.684 Q149.405 188.179 149.405 185.494 Q149.405 182.809 147.692 181.305 Q146.002 179.8 142.993 179.8 Q139.96 179.8 138.271 181.305 Q136.604 182.809 136.604 185.494 Z" fill="#000000" fill-rule="evenodd" fill-opacity="1" /><path clip-path="url(#clip850)" d="M 0 0 M107.923 78.0446 L115.562 78.0446 L115.562 51.679 L107.252 53.3457 L107.252 49.0864 L115.516 47.4198 L120.192 47.4198 L120.192 78.0446 L127.831 78.0446 L127.831 81.9798 L107.923 81.9798 L107.923 78.0446 Z" fill="#000000" fill-rule="evenodd" fill-opacity="1" /><path clip-path="url(#clip850)" d="M 0 0 M142.9 50.4985 Q139.289 50.4985 137.46 54.0633 Q135.655 57.6049 135.655 64.7345 Q135.655 71.841 137.46 75.4057 Q139.289 78.9474 142.9 78.9474 Q146.534 78.9474 148.34 75.4057 Q150.169 71.841 150.169 64.7345 Q150.169 57.6049 148.34 54.0633 Q146.534 50.4985 142.9 50.4985 M142.9 46.7948 Q148.71 46.7948 151.766 51.4012 Q154.844 55.9846 154.844 64.7345 Q154.844 73.4613 151.766 78.0678 Q148.71 82.6511 142.9 82.6511 Q137.09 82.6511 134.011 78.0678 Q130.956 73.4613 130.956 64.7345 Q130.956 55.9846 134.011 51.4012 Q137.09 46.7948 142.9 46.7948 Z" fill="#000000" fill-rule="evenodd" fill-opacity="1" /><path clip-path="url(#clip850)" d="M 0 0 M916.657 745.356 L956.856 745.356 L956.856 750.767 L939.987 750.767 L939.987 792.876 L933.526 792.876 L933.526 750.767 L916.657 750.767 L916.657 745.356 Z" fill="#000000" fill-rule="evenodd" fill-opacity="1" /><path clip-path="url(#clip850)" d="M 0 0 M960.994 757.228 L966.85 757.228 L966.85 792.876 L960.994 792.876 L960.994 757.228 M960.994 743.351 L966.85 743.351 L966.85 750.767 L960.994 750.767 L960.994 743.351 Z" fill="#000000" fill-rule="evenodd" fill-opacity="1" /><path clip-path="url(#clip850)" d="M 0 0 M1000.75 764.071 Q1002.94 760.124 1006 758.246 Q1009.06 756.369 1013.19 756.369 Q1018.76 756.369 1021.79 760.283 Q1024.81 764.167 1024.81 771.36 L1024.81 792.876 L1018.92 792.876 L1018.92 771.551 Q1018.92 766.426 1017.11 763.944 Q1015.29 761.461 1011.57 761.461 Q1007.02 761.461 1004.38 764.485 Q1001.73 767.509 1001.73 772.728 L1001.73 792.876 L995.846 792.876 L995.846 771.551 Q995.846 766.395 994.032 763.944 Q992.218 761.461 988.43 761.461 Q983.942 761.461 981.301 764.517 Q978.659 767.54 978.659 772.728 L978.659 792.876 L972.771 792.876 L972.771 757.228 L978.659 757.228 L978.659 762.766 Q980.664 759.488 983.465 757.928 Q986.266 756.369 990.117 756.369 Q994 756.369 996.706 758.342 Q999.443 760.315 1000.75 764.071 Z" fill="#000000" fill-rule="evenodd" fill-opacity="1" /><path clip-path="url(#clip850)" d="M 0 0 M1061.44 773.588 L1061.44 776.452 L1034.52 776.452 Q1034.9 782.5 1038.15 785.683 Q1041.42 788.834 1047.25 788.834 Q1050.62 788.834 1053.77 788.006 Q1056.96 787.179 1060.08 785.523 L1060.08 791.062 Q1056.93 792.398 1053.62 793.099 Q1050.3 793.799 1046.9 793.799 Q1038.37 793.799 1033.37 788.834 Q1028.41 783.868 1028.41 775.402 Q1028.41 766.649 1033.12 761.525 Q1037.86 756.369 1045.88 756.369 Q1053.07 756.369 1057.24 761.015 Q1061.44 765.631 1061.44 773.588 M1055.59 771.869 Q1055.52 767.063 1052.88 764.198 Q1050.27 761.334 1045.94 761.334 Q1041.04 761.334 1038.08 764.103 Q1035.15 766.872 1034.71 771.901 L1055.59 771.869 Z" fill="#000000" fill-rule="evenodd" fill-opacity="1" /><path clip-path="url(#clip850)" d="M 0 0 M1102.38 743.414 Q1098.11 750.735 1096.04 757.896 Q1093.97 765.058 1093.97 772.41 Q1093.97 779.762 1096.04 786.988 Q1098.14 794.181 1102.38 801.47 L1097.28 801.47 Q1092.51 793.99 1090.12 786.765 Q1087.77 779.54 1087.77 772.41 Q1087.77 765.312 1090.12 758.119 Q1092.48 750.926 1097.28 743.414 L1102.38 743.414 Z" fill="#000000" fill-rule="evenodd" fill-opacity="1" /><path clip-path="url(#clip850)" d="M 0 0 M1136.27 764.071 Q1138.47 760.124 1141.53 758.246 Q1144.58 756.369 1148.72 756.369 Q1154.29 756.369 1157.31 760.283 Q1160.34 764.167 1160.34 771.36 L1160.34 792.876 L1154.45 792.876 L1154.45 771.551 Q1154.45 766.426 1152.63 763.944 Q1150.82 761.461 1147.1 761.461 Q1142.54 761.461 1139.9 764.485 Q1137.26 767.509 1137.26 772.728 L1137.26 792.876 L1131.37 792.876 L1131.37 771.551 Q1131.37 766.395 1129.56 763.944 Q1127.74 761.461 1123.96 761.461 Q1119.47 761.461 1116.83 764.517 Q1114.18 767.54 1114.18 772.728 L1114.18 792.876 L1108.3 792.876 L1108.3 757.228 L1114.18 757.228 L1114.18 762.766 Q1116.19 759.488 1118.99 757.928 Q1121.79 756.369 1125.64 756.369 Q1129.53 756.369 1132.23 758.342 Q1134.97 760.315 1136.27 764.071 Z" fill="#000000" fill-rule="evenodd" fill-opacity="1" /><path clip-path="url(#clip850)" d="M 0 0 M1189.2 758.278 L1189.2 763.816 Q1186.72 762.543 1184.05 761.907 Q1181.37 761.27 1178.51 761.27 Q1174.15 761.27 1171.95 762.607 Q1169.79 763.944 1169.79 766.617 Q1169.79 768.654 1171.35 769.832 Q1172.91 770.978 1177.62 772.028 L1179.62 772.474 Q1185.86 773.811 1188.47 776.261 Q1191.11 778.68 1191.11 783.041 Q1191.11 788.006 1187.17 790.902 Q1183.25 793.799 1176.38 793.799 Q1173.51 793.799 1170.39 793.226 Q1167.31 792.685 1163.87 791.571 L1163.87 785.523 Q1167.12 787.21 1170.27 788.07 Q1173.42 788.897 1176.51 788.897 Q1180.64 788.897 1182.87 787.497 Q1185.1 786.065 1185.1 783.486 Q1185.1 781.099 1183.48 779.826 Q1181.88 778.553 1176.44 777.375 L1174.4 776.898 Q1168.96 775.752 1166.54 773.397 Q1164.12 771.01 1164.12 766.872 Q1164.12 761.843 1167.69 759.106 Q1171.25 756.369 1177.81 756.369 Q1181.06 756.369 1183.92 756.846 Q1186.79 757.323 1189.2 758.278 Z" fill="#000000" fill-rule="evenodd" fill-opacity="1" /><path clip-path="url(#clip850)" d="M 0 0 M1196.33 743.414 L1201.43 743.414 Q1206.2 750.926 1208.56 758.119 Q1210.94 765.312 1210.94 772.41 Q1210.94 779.54 1208.56 786.765 Q1206.2 793.99 1201.43 801.47 L1196.33 801.47 Q1200.57 794.181 1202.64 786.988 Q1204.74 779.762 1204.74 772.41 Q1204.74 765.058 1202.64 757.896 Q1200.57 750.735 1196.33 743.414 Z" fill="#000000" fill-rule="evenodd" fill-opacity="1" /><path clip-path="url(#clip850)" d="M 0 0 M25.4762 546.297 L25.4762 537.639 L65.23 516.569 L25.4762 516.569 L25.4762 510.331 L72.9962 510.331 L72.9962 518.988 L33.2423 540.058 L72.9962 540.058 L72.9962 546.297 L25.4762 546.297 Z" fill="#000000" fill-rule="evenodd" fill-opacity="1" /><path clip-path="url(#clip850)" d="M 0 0 M53.7081 473.696 L56.5726 473.696 L56.5726 500.623 Q62.6201 500.241 65.8029 496.994 Q68.9539 493.716 68.9539 487.891 Q68.9539 484.518 68.1264 481.367 Q67.2989 478.184 65.6438 475.065 L71.1819 475.065 Q72.5187 478.216 73.219 481.526 Q73.9192 484.836 73.9192 488.242 Q73.9192 496.772 68.9539 501.769 Q63.9887 506.734 55.5223 506.734 Q46.7694 506.734 41.6451 502.023 Q36.4888 497.281 36.4888 489.26 Q36.4888 482.067 41.1358 477.897 Q45.7509 473.696 53.7081 473.696 M51.9893 479.552 Q47.1832 479.616 44.3186 482.258 Q41.4541 484.868 41.4541 489.196 Q41.4541 494.098 44.2232 497.058 Q46.9922 499.986 52.0212 500.432 L51.9893 479.552 Z" fill="#000000" fill-rule="evenodd" fill-opacity="1" /><path clip-path="url(#clip850)" d="M 0 0 M58.9279 468.158 L37.3482 468.158 L37.3482 462.301 L58.7051 462.301 Q63.7659 462.301 66.3122 460.328 Q68.8266 458.355 68.8266 454.408 Q68.8266 449.665 65.8029 446.928 Q62.7792 444.159 57.5593 444.159 L37.3482 444.159 L37.3482 438.303 L72.9962 438.303 L72.9962 444.159 L67.5216 444.159 Q70.7682 446.292 72.3596 449.124 Q73.9192 451.925 73.9192 455.649 Q73.9192 461.792 70.0998 464.975 Q66.2803 468.158 58.9279 468.158 M36.4888 453.421 L36.4888 453.421 Z" fill="#000000" fill-rule="evenodd" fill-opacity="1" /><path clip-path="url(#clip850)" d="M 0 0 M42.8227 411.503 Q42.2498 412.49 41.9952 413.667 Q41.7087 414.813 41.7087 416.214 Q41.7087 421.179 44.9552 423.852 Q48.1699 426.494 54.2173 426.494 L72.9962 426.494 L72.9962 432.382 L37.3482 432.382 L37.3482 426.494 L42.8864 426.494 Q39.6399 424.648 38.0803 421.688 Q36.4888 418.728 36.4888 414.495 Q36.4888 413.89 36.5843 413.158 Q36.648 412.426 36.8071 411.535 L42.8227 411.503 Z" fill="#000000" fill-rule="evenodd" fill-opacity="1" /><path clip-path="url(#clip850)" d="M 0 0 M41.4541 392.979 Q41.4541 397.689 45.1462 400.427 Q48.8065 403.164 55.204 403.164 Q61.6015 403.164 65.2937 400.458 Q68.9539 397.721 68.9539 392.979 Q68.9539 388.3 65.2618 385.563 Q61.5697 382.825 55.204 382.825 Q48.8701 382.825 45.178 385.563 Q41.4541 388.3 41.4541 392.979 M36.4888 392.979 Q36.4888 385.34 41.4541 380.979 Q46.4193 376.619 55.204 376.619 Q63.9569 376.619 68.9539 380.979 Q73.9192 385.34 73.9192 392.979 Q73.9192 400.649 68.9539 405.01 Q63.9569 409.339 55.204 409.339 Q46.4193 409.339 41.4541 405.01 Q36.4888 400.649 36.4888 392.979 Z" fill="#000000" fill-rule="evenodd" fill-opacity="1" /><path clip-path="url(#clip850)" d="M 0 0 M51.4801 340.844 L72.9962 340.844 L72.9962 346.7 L51.671 346.7 Q46.6103 346.7 44.0958 348.673 Q41.5814 350.647 41.5814 354.594 Q41.5814 359.336 44.6051 362.073 Q47.6288 364.811 52.8487 364.811 L72.9962 364.811 L72.9962 370.699 L37.3482 370.699 L37.3482 364.811 L42.8864 364.811 Q39.6717 362.71 38.0803 359.877 Q36.4888 357.013 36.4888 353.289 Q36.4888 347.146 40.3083 343.995 Q44.0958 340.844 51.4801 340.844 Z" fill="#000000" fill-rule="evenodd" fill-opacity="1" /><path clip-path="url(#clip850)" d="M 0 0 M37.3482 313.98 L37.3482 308.124 L72.9962 308.124 L72.9962 313.98 L37.3482 313.98 M23.471 313.98 L23.471 308.124 L30.887 308.124 L30.887 313.98 L23.471 313.98 Z" fill="#000000" fill-rule="evenodd" fill-opacity="1" /><path clip-path="url(#clip850)" d="M 0 0 M51.4801 272.349 L72.9962 272.349 L72.9962 278.205 L51.671 278.205 Q46.6103 278.205 44.0958 280.178 Q41.5814 282.152 41.5814 286.099 Q41.5814 290.841 44.6051 293.578 Q47.6288 296.315 52.8487 296.315 L72.9962 296.315 L72.9962 302.204 L37.3482 302.204 L37.3482 296.315 L42.8864 296.315 Q39.6717 294.215 38.0803 291.382 Q36.4888 288.518 36.4888 284.794 Q36.4888 278.651 40.3083 275.5 Q44.0958 272.349 51.4801 272.349 Z" fill="#000000" fill-rule="evenodd" fill-opacity="1" /><path clip-path="url(#clip850)" d="M 0 0 M42.7591 242.748 L23.471 242.748 L23.471 236.892 L72.9962 236.892 L72.9962 242.748 L67.649 242.748 Q70.8318 244.594 72.3914 247.427 Q73.9192 250.228 73.9192 254.175 Q73.9192 260.636 68.763 264.71 Q63.6067 268.752 55.204 268.752 Q46.8013 268.752 41.6451 264.71 Q36.4888 260.636 36.4888 254.175 Q36.4888 250.228 38.0484 247.427 Q39.5762 244.594 42.7591 242.748 M55.204 262.705 Q61.6652 262.705 65.3573 260.063 Q69.0176 257.389 69.0176 252.742 Q69.0176 248.095 65.3573 245.422 Q61.6652 242.748 55.204 242.748 Q48.7428 242.748 45.0825 245.422 Q41.3904 248.095 41.3904 252.742 Q41.3904 257.389 45.0825 260.063 Q48.7428 262.705 55.204 262.705 Z" fill="#000000" fill-rule="evenodd" fill-opacity="1" /><path clip-path="url(#clip850)" d="M 0 0 M53.7081 200.257 L56.5726 200.257 L56.5726 227.184 Q62.6201 226.802 65.8029 223.555 Q68.9539 220.277 68.9539 214.453 Q68.9539 211.079 68.1264 207.928 Q67.2989 204.745 65.6438 201.626 L71.1819 201.626 Q72.5187 204.777 73.219 208.087 Q73.9192 211.397 73.9192 214.803 Q73.9192 223.333 68.9539 228.33 Q63.9887 233.295 55.5223 233.295 Q46.7694 233.295 41.6451 228.584 Q36.4888 223.842 36.4888 215.821 Q36.4888 208.628 41.1358 204.458 Q45.7509 200.257 53.7081 200.257 M51.9893 206.113 Q47.1832 206.177 44.3186 208.819 Q41.4541 211.429 41.4541 215.757 Q41.4541 220.659 44.2232 223.619 Q46.9922 226.547 52.0212 226.993 L51.9893 206.113 Z" fill="#000000" fill-rule="evenodd" fill-opacity="1" /><path clip-path="url(#clip850)" d="M 0 0 M37.3482 165.628 L54.6948 178.518 L72.9962 164.959 L72.9962 171.866 L58.9916 182.242 L72.9962 192.618 L72.9962 199.525 L54.3446 185.68 L37.3482 198.347 L37.3482 191.44 L50.0478 181.987 L37.3482 172.534 L37.3482 165.628 Z" fill="#000000" fill-rule="evenodd" fill-opacity="1" /><line clip-path="url(#clip852)" x1="247.277" y1="662.556" x2="247.277" y2="630.556" style="stroke:#000000; stroke-width:1.6; stroke-opacity:1"/>
<line clip-path="url(#clip852)" x1="383.364" y1="662.556" x2="383.364" y2="630.556" style="stroke:#000000; stroke-width:1.6; stroke-opacity:1"/>
<line clip-path="url(#clip852)" x1="434.397" y1="662.556" x2="434.397" y2="630.556" style="stroke:#000000; stroke-width:1.6; stroke-opacity:1"/>
<line clip-path="url(#clip852)" x1="453.109" y1="662.556" x2="453.109" y2="630.556" style="stroke:#000000; stroke-width:1.6; stroke-opacity:1"/>
<line clip-path="url(#clip852)" x1="497.337" y1="662.556" x2="497.337" y2="630.556" style="stroke:#000000; stroke-width:1.6; stroke-opacity:1"/>
<line clip-path="url(#clip852)" x1="509.245" y1="662.556" x2="509.245" y2="630.556" style="stroke:#000000; stroke-width:1.6; stroke-opacity:1"/>
<line clip-path="url(#clip852)" x1="556.875" y1="662.556" x2="556.875" y2="630.556" style="stroke:#000000; stroke-width:1.6; stroke-opacity:1"/>
<line clip-path="url(#clip852)" x1="575.587" y1="662.556" x2="575.587" y2="630.556" style="stroke:#000000; stroke-width:1.6; stroke-opacity:1"/>
<line clip-path="url(#clip852)" x1="618.115" y1="662.556" x2="618.115" y2="630.556" style="stroke:#000000; stroke-width:1.6; stroke-opacity:1"/>
<line clip-path="url(#clip852)" x1="696.365" y1="662.556" x2="696.365" y2="630.556" style="stroke:#000000; stroke-width:1.6; stroke-opacity:1"/>
<line clip-path="url(#clip852)" x1="779.718" y1="662.556" x2="779.718" y2="630.556" style="stroke:#000000; stroke-width:1.6; stroke-opacity:1"/>
<line clip-path="url(#clip852)" x1="903.898" y1="662.556" x2="903.898" y2="630.556" style="stroke:#000000; stroke-width:1.6; stroke-opacity:1"/>
<line clip-path="url(#clip852)" x1="960.034" y1="662.556" x2="960.034" y2="630.556" style="stroke:#000000; stroke-width:1.6; stroke-opacity:1"/>
<line clip-path="url(#clip852)" x1="999.159" y1="662.556" x2="999.159" y2="630.556" style="stroke:#000000; stroke-width:1.6; stroke-opacity:1"/>
<line clip-path="url(#clip852)" x1="1019.57" y1="662.556" x2="1019.57" y2="630.556" style="stroke:#000000; stroke-width:1.6; stroke-opacity:1"/>
<line clip-path="url(#clip852)" x1="1097.82" y1="662.556" x2="1097.82" y2="630.556" style="stroke:#000000; stroke-width:1.6; stroke-opacity:1"/>
<line clip-path="url(#clip852)" x1="1135.25" y1="662.556" x2="1135.25" y2="630.556" style="stroke:#000000; stroke-width:1.6; stroke-opacity:1"/>
<line clip-path="url(#clip852)" x1="1147.15" y1="662.556" x2="1147.15" y2="630.556" style="stroke:#000000; stroke-width:1.6; stroke-opacity:1"/>
<line clip-path="url(#clip852)" x1="1230.51" y1="662.556" x2="1230.51" y2="630.556" style="stroke:#000000; stroke-width:1.6; stroke-opacity:1"/>
<line clip-path="url(#clip852)" x1="1259.43" y1="662.556" x2="1259.43" y2="630.556" style="stroke:#000000; stroke-width:1.6; stroke-opacity:1"/>
<line clip-path="url(#clip852)" x1="1312.16" y1="662.556" x2="1312.16" y2="630.556" style="stroke:#000000; stroke-width:1.6; stroke-opacity:1"/>
<line clip-path="url(#clip852)" x1="1351.28" y1="662.556" x2="1351.28" y2="630.556" style="stroke:#000000; stroke-width:1.6; stroke-opacity:1"/>
<line clip-path="url(#clip852)" x1="1483.97" y1="662.556" x2="1483.97" y2="630.556" style="stroke:#000000; stroke-width:1.6; stroke-opacity:1"/>
<line clip-path="url(#clip852)" x1="1557.12" y1="662.556" x2="1557.12" y2="630.556" style="stroke:#000000; stroke-width:1.6; stroke-opacity:1"/>
<line clip-path="url(#clip852)" x1="1597.94" y1="662.556" x2="1597.94" y2="630.556" style="stroke:#000000; stroke-width:1.6; stroke-opacity:1"/>
<line clip-path="url(#clip852)" x1="1705.11" y1="662.556" x2="1705.11" y2="630.556" style="stroke:#000000; stroke-width:1.6; stroke-opacity:1"/>
<line clip-path="url(#clip852)" x1="1739.13" y1="662.556" x2="1739.13" y2="630.556" style="stroke:#000000; stroke-width:1.6; stroke-opacity:1"/>
<line clip-path="url(#clip852)" x1="1819.08" y1="662.556" x2="1819.08" y2="630.556" style="stroke:#000000; stroke-width:1.6; stroke-opacity:1"/>
<line clip-path="url(#clip852)" x1="1868.42" y1="662.556" x2="1868.42" y2="630.556" style="stroke:#000000; stroke-width:1.6; stroke-opacity:1"/>
<line clip-path="url(#clip852)" x1="237.07" y1="597.905" x2="237.07" y2="565.905" style="stroke:#000000; stroke-width:1.6; stroke-opacity:1"/>
<line clip-path="url(#clip852)" x1="252.38" y1="597.905" x2="252.38" y2="565.905" style="stroke:#000000; stroke-width:1.6; stroke-opacity:1"/>
<line clip-path="url(#clip852)" x1="444.603" y1="597.905" x2="444.603" y2="565.905" style="stroke:#000000; stroke-width:1.6; stroke-opacity:1"/>
<line clip-path="url(#clip852)" x1="521.152" y1="597.905" x2="521.152" y2="565.905" style="stroke:#000000; stroke-width:1.6; stroke-opacity:1"/>
<line clip-path="url(#clip852)" x1="578.989" y1="597.905" x2="578.989" y2="565.905" style="stroke:#000000; stroke-width:1.6; stroke-opacity:1"/>
<line clip-path="url(#clip852)" x1="619.816" y1="597.905" x2="619.816" y2="565.905" style="stroke:#000000; stroke-width:1.6; stroke-opacity:1"/>
<line clip-path="url(#clip852)" x1="653.837" y1="597.905" x2="653.837" y2="565.905" style="stroke:#000000; stroke-width:1.6; stroke-opacity:1"/>
<line clip-path="url(#clip852)" x1="677.653" y1="597.905" x2="677.653" y2="565.905" style="stroke:#000000; stroke-width:1.6; stroke-opacity:1"/>
<line clip-path="url(#clip852)" x1="730.387" y1="597.905" x2="730.387" y2="565.905" style="stroke:#000000; stroke-width:1.6; stroke-opacity:1"/>
<line clip-path="url(#clip852)" x1="767.811" y1="597.905" x2="767.811" y2="565.905" style="stroke:#000000; stroke-width:1.6; stroke-opacity:1"/>
<line clip-path="url(#clip852)" x1="798.43" y1="597.905" x2="798.43" y2="565.905" style="stroke:#000000; stroke-width:1.6; stroke-opacity:1"/>
<line clip-path="url(#clip852)" x1="812.039" y1="597.905" x2="812.039" y2="565.905" style="stroke:#000000; stroke-width:1.6; stroke-opacity:1"/>
<line clip-path="url(#clip852)" x1="902.197" y1="597.905" x2="902.197" y2="565.905" style="stroke:#000000; stroke-width:1.6; stroke-opacity:1"/>
<line clip-path="url(#clip852)" x1="926.012" y1="597.905" x2="926.012" y2="565.905" style="stroke:#000000; stroke-width:1.6; stroke-opacity:1"/>
<line clip-path="url(#clip852)" x1="946.425" y1="597.905" x2="946.425" y2="565.905" style="stroke:#000000; stroke-width:1.6; stroke-opacity:1"/>
<line clip-path="url(#clip852)" x1="994.056" y1="597.905" x2="994.056" y2="565.905" style="stroke:#000000; stroke-width:1.6; stroke-opacity:1"/>
<line clip-path="url(#clip852)" x1="1038.28" y1="597.905" x2="1038.28" y2="565.905" style="stroke:#000000; stroke-width:1.6; stroke-opacity:1"/>
<line clip-path="url(#clip852)" x1="1087.62" y1="597.905" x2="1087.62" y2="565.905" style="stroke:#000000; stroke-width:1.6; stroke-opacity:1"/>
<line clip-path="url(#clip852)" x1="1104.63" y1="597.905" x2="1104.63" y2="565.905" style="stroke:#000000; stroke-width:1.6; stroke-opacity:1"/>
<line clip-path="url(#clip852)" x1="1130.14" y1="597.905" x2="1130.14" y2="565.905" style="stroke:#000000; stroke-width:1.6; stroke-opacity:1"/>
<line clip-path="url(#clip852)" x1="1145.45" y1="597.905" x2="1145.45" y2="565.905" style="stroke:#000000; stroke-width:1.6; stroke-opacity:1"/>
<line clip-path="url(#clip852)" x1="1222" y1="597.905" x2="1222" y2="565.905" style="stroke:#000000; stroke-width:1.6; stroke-opacity:1"/>
<line clip-path="url(#clip852)" x1="1240.71" y1="597.905" x2="1240.71" y2="565.905" style="stroke:#000000; stroke-width:1.6; stroke-opacity:1"/>
<line clip-path="url(#clip852)" x1="1324.07" y1="597.905" x2="1324.07" y2="565.905" style="stroke:#000000; stroke-width:1.6; stroke-opacity:1"/>
<line clip-path="url(#clip852)" x1="1368.3" y1="597.905" x2="1368.3" y2="565.905" style="stroke:#000000; stroke-width:1.6; stroke-opacity:1"/>
<line clip-path="url(#clip852)" x1="1392.11" y1="597.905" x2="1392.11" y2="565.905" style="stroke:#000000; stroke-width:1.6; stroke-opacity:1"/>
<line clip-path="url(#clip852)" x1="1460.15" y1="597.905" x2="1460.15" y2="565.905" style="stroke:#000000; stroke-width:1.6; stroke-opacity:1"/>
<line clip-path="url(#clip852)" x1="1596.24" y1="597.905" x2="1596.24" y2="565.905" style="stroke:#000000; stroke-width:1.6; stroke-opacity:1"/>
<line clip-path="url(#clip852)" x1="1788.46" y1="597.905" x2="1788.46" y2="565.905" style="stroke:#000000; stroke-width:1.6; stroke-opacity:1"/>
<line clip-path="url(#clip852)" x1="1834.39" y1="597.905" x2="1834.39" y2="565.905" style="stroke:#000000; stroke-width:1.6; stroke-opacity:1"/>
<line clip-path="url(#clip852)" x1="1887.13" y1="597.905" x2="1887.13" y2="565.905" style="stroke:#000000; stroke-width:1.6; stroke-opacity:1"/>
<line clip-path="url(#clip852)" x1="325.527" y1="533.255" x2="325.527" y2="501.255" style="stroke:#000000; stroke-width:1.6; stroke-opacity:1"/>
<line clip-path="url(#clip852)" x1="354.446" y1="533.255" x2="354.446" y2="501.255" style="stroke:#000000; stroke-width:1.6; stroke-opacity:1"/>
<line clip-path="url(#clip852)" x1="449.707" y1="533.255" x2="449.707" y2="501.255" style="stroke:#000000; stroke-width:1.6; stroke-opacity:1"/>
<line clip-path="url(#clip852)" x1="463.315" y1="533.255" x2="463.315" y2="501.255" style="stroke:#000000; stroke-width:1.6; stroke-opacity:1"/>
<line clip-path="url(#clip852)" x1="534.761" y1="533.255" x2="534.761" y2="501.255" style="stroke:#000000; stroke-width:1.6; stroke-opacity:1"/>
<line clip-path="url(#clip852)" x1="544.968" y1="533.255" x2="544.968" y2="501.255" style="stroke:#000000; stroke-width:1.6; stroke-opacity:1"/>
<line clip-path="url(#clip852)" x1="573.886" y1="533.255" x2="573.886" y2="501.255" style="stroke:#000000; stroke-width:1.6; stroke-opacity:1"/>
<line clip-path="url(#clip852)" x1="609.609" y1="533.255" x2="609.609" y2="501.255" style="stroke:#000000; stroke-width:1.6; stroke-opacity:1"/>
<line clip-path="url(#clip852)" x1="793.327" y1="533.255" x2="793.327" y2="501.255" style="stroke:#000000; stroke-width:1.6; stroke-opacity:1"/>
<line clip-path="url(#clip852)" x1="920.909" y1="533.255" x2="920.909" y2="501.255" style="stroke:#000000; stroke-width:1.6; stroke-opacity:1"/>
<line clip-path="url(#clip852)" x1="956.632" y1="533.255" x2="956.632" y2="501.255" style="stroke:#000000; stroke-width:1.6; stroke-opacity:1"/>
<line clip-path="url(#clip852)" x1="1009.37" y1="533.255" x2="1009.37" y2="501.255" style="stroke:#000000; stroke-width:1.6; stroke-opacity:1"/>
<line clip-path="url(#clip852)" x1="1043.39" y1="533.255" x2="1043.39" y2="501.255" style="stroke:#000000; stroke-width:1.6; stroke-opacity:1"/>
<line clip-path="url(#clip852)" x1="1162.46" y1="533.255" x2="1162.46" y2="501.255" style="stroke:#000000; stroke-width:1.6; stroke-opacity:1"/>
<line clip-path="url(#clip852)" x1="1198.19" y1="533.255" x2="1198.19" y2="501.255" style="stroke:#000000; stroke-width:1.6; stroke-opacity:1"/>
<line clip-path="url(#clip852)" x1="1210.09" y1="533.255" x2="1210.09" y2="501.255" style="stroke:#000000; stroke-width:1.6; stroke-opacity:1"/>
<line clip-path="url(#clip852)" x1="1244.12" y1="533.255" x2="1244.12" y2="501.255" style="stroke:#000000; stroke-width:1.6; stroke-opacity:1"/>
<line clip-path="url(#clip852)" x1="1279.84" y1="533.255" x2="1279.84" y2="501.255" style="stroke:#000000; stroke-width:1.6; stroke-opacity:1"/>
<line clip-path="url(#clip852)" x1="1312.16" y1="533.255" x2="1312.16" y2="501.255" style="stroke:#000000; stroke-width:1.6; stroke-opacity:1"/>
<line clip-path="url(#clip852)" x1="1341.08" y1="533.255" x2="1341.08" y2="501.255" style="stroke:#000000; stroke-width:1.6; stroke-opacity:1"/>
<line clip-path="url(#clip852)" x1="1352.99" y1="533.255" x2="1352.99" y2="501.255" style="stroke:#000000; stroke-width:1.6; stroke-opacity:1"/>
<line clip-path="url(#clip852)" x1="1375.1" y1="533.255" x2="1375.1" y2="501.255" style="stroke:#000000; stroke-width:1.6; stroke-opacity:1"/>
<line clip-path="url(#clip852)" x1="1392.11" y1="533.255" x2="1392.11" y2="501.255" style="stroke:#000000; stroke-width:1.6; stroke-opacity:1"/>
<line clip-path="url(#clip852)" x1="1468.66" y1="533.255" x2="1468.66" y2="501.255" style="stroke:#000000; stroke-width:1.6; stroke-opacity:1"/>
<line clip-path="url(#clip852)" x1="1609.85" y1="533.255" x2="1609.85" y2="501.255" style="stroke:#000000; stroke-width:1.6; stroke-opacity:1"/>
<line clip-path="url(#clip852)" x1="1689.8" y1="533.255" x2="1689.8" y2="501.255" style="stroke:#000000; stroke-width:1.6; stroke-opacity:1"/>
<line clip-path="url(#clip852)" x1="1839.5" y1="533.255" x2="1839.5" y2="501.255" style="stroke:#000000; stroke-width:1.6; stroke-opacity:1"/>
<line clip-path="url(#clip852)" x1="1875.22" y1="533.255" x2="1875.22" y2="501.255" style="stroke:#000000; stroke-width:1.6; stroke-opacity:1"/>
<line clip-path="url(#clip852)" x1="288.103" y1="468.604" x2="288.103" y2="436.604" style="stroke:#000000; stroke-width:1.6; stroke-opacity:1"/>
<line clip-path="url(#clip852)" x1="388.467" y1="468.604" x2="388.467" y2="436.604" style="stroke:#000000; stroke-width:1.6; stroke-opacity:1"/>
<line clip-path="url(#clip852)" x1="449.707" y1="468.604" x2="449.707" y2="436.604" style="stroke:#000000; stroke-width:1.6; stroke-opacity:1"/>
<line clip-path="url(#clip852)" x1="493.935" y1="468.604" x2="493.935" y2="436.604" style="stroke:#000000; stroke-width:1.6; stroke-opacity:1"/>
<line clip-path="url(#clip852)" x1="524.555" y1="468.604" x2="524.555" y2="436.604" style="stroke:#000000; stroke-width:1.6; stroke-opacity:1"/>
<line clip-path="url(#clip852)" x1="638.528" y1="468.604" x2="638.528" y2="436.604" style="stroke:#000000; stroke-width:1.6; stroke-opacity:1"/>
<line clip-path="url(#clip852)" x1="696.365" y1="468.604" x2="696.365" y2="436.604" style="stroke:#000000; stroke-width:1.6; stroke-opacity:1"/>
<line clip-path="url(#clip852)" x1="715.077" y1="468.604" x2="715.077" y2="436.604" style="stroke:#000000; stroke-width:1.6; stroke-opacity:1"/>
<line clip-path="url(#clip852)" x1="762.707" y1="468.604" x2="762.707" y2="436.604" style="stroke:#000000; stroke-width:1.6; stroke-opacity:1"/>
<line clip-path="url(#clip852)" x1="815.441" y1="468.604" x2="815.441" y2="436.604" style="stroke:#000000; stroke-width:1.6; stroke-opacity:1"/>
<line clip-path="url(#clip852)" x1="886.887" y1="468.604" x2="886.887" y2="436.604" style="stroke:#000000; stroke-width:1.6; stroke-opacity:1"/>
<line clip-path="url(#clip852)" x1="1065.5" y1="468.604" x2="1065.5" y2="436.604" style="stroke:#000000; stroke-width:1.6; stroke-opacity:1"/>
<line clip-path="url(#clip852)" x1="1089.32" y1="468.604" x2="1089.32" y2="436.604" style="stroke:#000000; stroke-width:1.6; stroke-opacity:1"/>
<line clip-path="url(#clip852)" x1="1193.08" y1="468.604" x2="1193.08" y2="436.604" style="stroke:#000000; stroke-width:1.6; stroke-opacity:1"/>
<line clip-path="url(#clip852)" x1="1461.86" y1="468.604" x2="1461.86" y2="436.604" style="stroke:#000000; stroke-width:1.6; stroke-opacity:1"/>
<line clip-path="url(#clip852)" x1="1478.87" y1="468.604" x2="1478.87" y2="436.604" style="stroke:#000000; stroke-width:1.6; stroke-opacity:1"/>
<line clip-path="url(#clip852)" x1="1586.03" y1="468.604" x2="1586.03" y2="436.604" style="stroke:#000000; stroke-width:1.6; stroke-opacity:1"/>
<line clip-path="url(#clip852)" x1="1603.05" y1="468.604" x2="1603.05" y2="436.604" style="stroke:#000000; stroke-width:1.6; stroke-opacity:1"/>
<line clip-path="url(#clip852)" x1="1684.7" y1="468.604" x2="1684.7" y2="436.604" style="stroke:#000000; stroke-width:1.6; stroke-opacity:1"/>
<line clip-path="url(#clip852)" x1="1696.61" y1="468.604" x2="1696.61" y2="436.604" style="stroke:#000000; stroke-width:1.6; stroke-opacity:1"/>
<line clip-path="url(#clip852)" x1="1739.13" y1="468.604" x2="1739.13" y2="436.604" style="stroke:#000000; stroke-width:1.6; stroke-opacity:1"/>
<line clip-path="url(#clip852)" x1="1803.77" y1="468.604" x2="1803.77" y2="436.604" style="stroke:#000000; stroke-width:1.6; stroke-opacity:1"/>
<line clip-path="url(#clip852)" x1="1825.89" y1="468.604" x2="1825.89" y2="436.604" style="stroke:#000000; stroke-width:1.6; stroke-opacity:1"/>
<line clip-path="url(#clip852)" x1="1863.31" y1="468.604" x2="1863.31" y2="436.604" style="stroke:#000000; stroke-width:1.6; stroke-opacity:1"/>
<line clip-path="url(#clip852)" x1="289.804" y1="403.953" x2="289.804" y2="371.953" style="stroke:#000000; stroke-width:1.6; stroke-opacity:1"/>
<line clip-path="url(#clip852)" x1="301.712" y1="403.953" x2="301.712" y2="371.953" style="stroke:#000000; stroke-width:1.6; stroke-opacity:1"/>
<line clip-path="url(#clip852)" x1="339.136" y1="403.953" x2="339.136" y2="371.953" style="stroke:#000000; stroke-width:1.6; stroke-opacity:1"/>
<line clip-path="url(#clip852)" x1="354.446" y1="403.953" x2="354.446" y2="371.953" style="stroke:#000000; stroke-width:1.6; stroke-opacity:1"/>
<line clip-path="url(#clip852)" x1="395.272" y1="403.953" x2="395.272" y2="371.953" style="stroke:#000000; stroke-width:1.6; stroke-opacity:1"/>
<line clip-path="url(#clip852)" x1="480.326" y1="403.953" x2="480.326" y2="371.953" style="stroke:#000000; stroke-width:1.6; stroke-opacity:1"/>
<line clip-path="url(#clip852)" x1="504.142" y1="403.953" x2="504.142" y2="371.953" style="stroke:#000000; stroke-width:1.6; stroke-opacity:1"/>
<line clip-path="url(#clip852)" x1="536.462" y1="403.953" x2="536.462" y2="371.953" style="stroke:#000000; stroke-width:1.6; stroke-opacity:1"/>
<line clip-path="url(#clip852)" x1="619.816" y1="403.953" x2="619.816" y2="371.953" style="stroke:#000000; stroke-width:1.6; stroke-opacity:1"/>
<line clip-path="url(#clip852)" x1="641.93" y1="403.953" x2="641.93" y2="371.953" style="stroke:#000000; stroke-width:1.6; stroke-opacity:1"/>
<line clip-path="url(#clip852)" x1="664.044" y1="403.953" x2="664.044" y2="371.953" style="stroke:#000000; stroke-width:1.6; stroke-opacity:1"/>
<line clip-path="url(#clip852)" x1="687.859" y1="403.953" x2="687.859" y2="371.953" style="stroke:#000000; stroke-width:1.6; stroke-opacity:1"/>
<line clip-path="url(#clip852)" x1="701.468" y1="403.953" x2="701.468" y2="371.953" style="stroke:#000000; stroke-width:1.6; stroke-opacity:1"/>
<line clip-path="url(#clip852)" x1="738.892" y1="403.953" x2="738.892" y2="371.953" style="stroke:#000000; stroke-width:1.6; stroke-opacity:1"/>
<line clip-path="url(#clip852)" x1="805.234" y1="403.953" x2="805.234" y2="371.953" style="stroke:#000000; stroke-width:1.6; stroke-opacity:1"/>
<line clip-path="url(#clip852)" x1="869.876" y1="403.953" x2="869.876" y2="371.953" style="stroke:#000000; stroke-width:1.6; stroke-opacity:1"/>
<line clip-path="url(#clip852)" x1="966.838" y1="403.953" x2="966.838" y2="371.953" style="stroke:#000000; stroke-width:1.6; stroke-opacity:1"/>
<line clip-path="url(#clip852)" x1="1257.72" y1="403.953" x2="1257.72" y2="371.953" style="stroke:#000000; stroke-width:1.6; stroke-opacity:1"/>
<line clip-path="url(#clip852)" x1="1305.36" y1="403.953" x2="1305.36" y2="371.953" style="stroke:#000000; stroke-width:1.6; stroke-opacity:1"/>
<line clip-path="url(#clip852)" x1="1385.31" y1="403.953" x2="1385.31" y2="371.953" style="stroke:#000000; stroke-width:1.6; stroke-opacity:1"/>
<line clip-path="url(#clip852)" x1="1404.02" y1="403.953" x2="1404.02" y2="371.953" style="stroke:#000000; stroke-width:1.6; stroke-opacity:1"/>
<line clip-path="url(#clip852)" x1="1422.73" y1="403.953" x2="1422.73" y2="371.953" style="stroke:#000000; stroke-width:1.6; stroke-opacity:1"/>
<line clip-path="url(#clip852)" x1="1456.75" y1="403.953" x2="1456.75" y2="371.953" style="stroke:#000000; stroke-width:1.6; stroke-opacity:1"/>
<line clip-path="url(#clip852)" x1="1500.98" y1="403.953" x2="1500.98" y2="371.953" style="stroke:#000000; stroke-width:1.6; stroke-opacity:1"/>
<line clip-path="url(#clip852)" x1="1609.85" y1="403.953" x2="1609.85" y2="371.953" style="stroke:#000000; stroke-width:1.6; stroke-opacity:1"/>
<line clip-path="url(#clip852)" x1="1625.16" y1="403.953" x2="1625.16" y2="371.953" style="stroke:#000000; stroke-width:1.6; stroke-opacity:1"/>
<line clip-path="url(#clip852)" x1="1689.8" y1="403.953" x2="1689.8" y2="371.953" style="stroke:#000000; stroke-width:1.6; stroke-opacity:1"/>
<line clip-path="url(#clip852)" x1="1863.31" y1="403.953" x2="1863.31" y2="371.953" style="stroke:#000000; stroke-width:1.6; stroke-opacity:1"/>
<line clip-path="url(#clip852)" x1="1902.44" y1="403.953" x2="1902.44" y2="371.953" style="stroke:#000000; stroke-width:1.6; stroke-opacity:1"/>
<line clip-path="url(#clip852)" x1="235.369" y1="339.303" x2="235.369" y2="307.303" style="stroke:#000000; stroke-width:1.6; stroke-opacity:1"/>
<line clip-path="url(#clip852)" x1="311.918" y1="339.303" x2="311.918" y2="307.303" style="stroke:#000000; stroke-width:1.6; stroke-opacity:1"/>
<line clip-path="url(#clip852)" x1="492.234" y1="339.303" x2="492.234" y2="307.303" style="stroke:#000000; stroke-width:1.6; stroke-opacity:1"/>
<line clip-path="url(#clip852)" x1="507.544" y1="339.303" x2="507.544" y2="307.303" style="stroke:#000000; stroke-width:1.6; stroke-opacity:1"/>
<line clip-path="url(#clip852)" x1="534.761" y1="339.303" x2="534.761" y2="307.303" style="stroke:#000000; stroke-width:1.6; stroke-opacity:1"/>
<line clip-path="url(#clip852)" x1="558.576" y1="339.303" x2="558.576" y2="307.303" style="stroke:#000000; stroke-width:1.6; stroke-opacity:1"/>
<line clip-path="url(#clip852)" x1="626.62" y1="339.303" x2="626.62" y2="307.303" style="stroke:#000000; stroke-width:1.6; stroke-opacity:1"/>
<line clip-path="url(#clip852)" x1="662.343" y1="339.303" x2="662.343" y2="307.303" style="stroke:#000000; stroke-width:1.6; stroke-opacity:1"/>
<line clip-path="url(#clip852)" x1="709.973" y1="339.303" x2="709.973" y2="307.303" style="stroke:#000000; stroke-width:1.6; stroke-opacity:1"/>
<line clip-path="url(#clip852)" x1="732.088" y1="339.303" x2="732.088" y2="307.303" style="stroke:#000000; stroke-width:1.6; stroke-opacity:1"/>
<line clip-path="url(#clip852)" x1="806.936" y1="339.303" x2="806.936" y2="307.303" style="stroke:#000000; stroke-width:1.6; stroke-opacity:1"/>
<line clip-path="url(#clip852)" x1="915.805" y1="339.303" x2="915.805" y2="307.303" style="stroke:#000000; stroke-width:1.6; stroke-opacity:1"/>
<line clip-path="url(#clip852)" x1="932.816" y1="339.303" x2="932.816" y2="307.303" style="stroke:#000000; stroke-width:1.6; stroke-opacity:1"/>
<line clip-path="url(#clip852)" x1="992.354" y1="339.303" x2="992.354" y2="307.303" style="stroke:#000000; stroke-width:1.6; stroke-opacity:1"/>
<line clip-path="url(#clip852)" x1="1041.69" y1="339.303" x2="1041.69" y2="307.303" style="stroke:#000000; stroke-width:1.6; stroke-opacity:1"/>
<line clip-path="url(#clip852)" x1="1094.42" y1="339.303" x2="1094.42" y2="307.303" style="stroke:#000000; stroke-width:1.6; stroke-opacity:1"/>
<line clip-path="url(#clip852)" x1="1126.74" y1="339.303" x2="1126.74" y2="307.303" style="stroke:#000000; stroke-width:1.6; stroke-opacity:1"/>
<line clip-path="url(#clip852)" x1="1232.21" y1="339.303" x2="1232.21" y2="307.303" style="stroke:#000000; stroke-width:1.6; stroke-opacity:1"/>
<line clip-path="url(#clip852)" x1="1359.79" y1="339.303" x2="1359.79" y2="307.303" style="stroke:#000000; stroke-width:1.6; stroke-opacity:1"/>
<line clip-path="url(#clip852)" x1="1492.47" y1="339.303" x2="1492.47" y2="307.303" style="stroke:#000000; stroke-width:1.6; stroke-opacity:1"/>
<line clip-path="url(#clip852)" x1="1533.3" y1="339.303" x2="1533.3" y2="307.303" style="stroke:#000000; stroke-width:1.6; stroke-opacity:1"/>
<line clip-path="url(#clip852)" x1="1562.22" y1="339.303" x2="1562.22" y2="307.303" style="stroke:#000000; stroke-width:1.6; stroke-opacity:1"/>
<line clip-path="url(#clip852)" x1="1582.63" y1="339.303" x2="1582.63" y2="307.303" style="stroke:#000000; stroke-width:1.6; stroke-opacity:1"/>
<line clip-path="url(#clip852)" x1="1652.38" y1="339.303" x2="1652.38" y2="307.303" style="stroke:#000000; stroke-width:1.6; stroke-opacity:1"/>
<line clip-path="url(#clip852)" x1="1727.23" y1="339.303" x2="1727.23" y2="307.303" style="stroke:#000000; stroke-width:1.6; stroke-opacity:1"/>
<line clip-path="url(#clip852)" x1="1796.97" y1="339.303" x2="1796.97" y2="307.303" style="stroke:#000000; stroke-width:1.6; stroke-opacity:1"/>
<line clip-path="url(#clip852)" x1="1834.39" y1="339.303" x2="1834.39" y2="307.303" style="stroke:#000000; stroke-width:1.6; stroke-opacity:1"/>
<line clip-path="url(#clip852)" x1="1882.02" y1="339.303" x2="1882.02" y2="307.303" style="stroke:#000000; stroke-width:1.6; stroke-opacity:1"/>
<line clip-path="url(#clip852)" x1="439.5" y1="274.652" x2="439.5" y2="242.652" style="stroke:#000000; stroke-width:1.6; stroke-opacity:1"/>
<line clip-path="url(#clip852)" x1="534.761" y1="274.652" x2="534.761" y2="242.652" style="stroke:#000000; stroke-width:1.6; stroke-opacity:1"/>
<line clip-path="url(#clip852)" x1="563.68" y1="274.652" x2="563.68" y2="242.652" style="stroke:#000000; stroke-width:1.6; stroke-opacity:1"/>
<line clip-path="url(#clip852)" x1="647.033" y1="274.652" x2="647.033" y2="242.652" style="stroke:#000000; stroke-width:1.6; stroke-opacity:1"/>
<line clip-path="url(#clip852)" x1="730.387" y1="274.652" x2="730.387" y2="242.652" style="stroke:#000000; stroke-width:1.6; stroke-opacity:1"/>
<line clip-path="url(#clip852)" x1="761.006" y1="274.652" x2="761.006" y2="242.652" style="stroke:#000000; stroke-width:1.6; stroke-opacity:1"/>
<line clip-path="url(#clip852)" x1="818.843" y1="274.652" x2="818.843" y2="242.652" style="stroke:#000000; stroke-width:1.6; stroke-opacity:1"/>
<line clip-path="url(#clip852)" x1="871.577" y1="274.652" x2="871.577" y2="242.652" style="stroke:#000000; stroke-width:1.6; stroke-opacity:1"/>
<line clip-path="url(#clip852)" x1="932.816" y1="274.652" x2="932.816" y2="242.652" style="stroke:#000000; stroke-width:1.6; stroke-opacity:1"/>
<line clip-path="url(#clip852)" x1="1000.86" y1="274.652" x2="1000.86" y2="242.652" style="stroke:#000000; stroke-width:1.6; stroke-opacity:1"/>
<line clip-path="url(#clip852)" x1="1028.08" y1="274.652" x2="1028.08" y2="242.652" style="stroke:#000000; stroke-width:1.6; stroke-opacity:1"/>
<line clip-path="url(#clip852)" x1="1041.69" y1="274.652" x2="1041.69" y2="242.652" style="stroke:#000000; stroke-width:1.6; stroke-opacity:1"/>
<line clip-path="url(#clip852)" x1="1094.42" y1="274.652" x2="1094.42" y2="242.652" style="stroke:#000000; stroke-width:1.6; stroke-opacity:1"/>
<line clip-path="url(#clip852)" x1="1108.03" y1="274.652" x2="1108.03" y2="242.652" style="stroke:#000000; stroke-width:1.6; stroke-opacity:1"/>
<line clip-path="url(#clip852)" x1="1191.38" y1="274.652" x2="1191.38" y2="242.652" style="stroke:#000000; stroke-width:1.6; stroke-opacity:1"/>
<line clip-path="url(#clip852)" x1="1218.6" y1="274.652" x2="1218.6" y2="242.652" style="stroke:#000000; stroke-width:1.6; stroke-opacity:1"/>
<line clip-path="url(#clip852)" x1="1228.81" y1="274.652" x2="1228.81" y2="242.652" style="stroke:#000000; stroke-width:1.6; stroke-opacity:1"/>
<line clip-path="url(#clip852)" x1="1250.92" y1="274.652" x2="1250.92" y2="242.652" style="stroke:#000000; stroke-width:1.6; stroke-opacity:1"/>
<line clip-path="url(#clip852)" x1="1286.64" y1="274.652" x2="1286.64" y2="242.652" style="stroke:#000000; stroke-width:1.6; stroke-opacity:1"/>
<line clip-path="url(#clip852)" x1="1359.79" y1="274.652" x2="1359.79" y2="242.652" style="stroke:#000000; stroke-width:1.6; stroke-opacity:1"/>
<line clip-path="url(#clip852)" x1="1572.43" y1="274.652" x2="1572.43" y2="242.652" style="stroke:#000000; stroke-width:1.6; stroke-opacity:1"/>
<line clip-path="url(#clip852)" x1="1616.65" y1="274.652" x2="1616.65" y2="242.652" style="stroke:#000000; stroke-width:1.6; stroke-opacity:1"/>
<line clip-path="url(#clip852)" x1="1659.18" y1="274.652" x2="1659.18" y2="242.652" style="stroke:#000000; stroke-width:1.6; stroke-opacity:1"/>
<line clip-path="url(#clip852)" x1="1825.89" y1="274.652" x2="1825.89" y2="242.652" style="stroke:#000000; stroke-width:1.6; stroke-opacity:1"/>
<line clip-path="url(#clip852)" x1="225.163" y1="210.001" x2="225.163" y2="178.001" style="stroke:#000000; stroke-width:1.6; stroke-opacity:1"/>
<line clip-path="url(#clip852)" x1="283" y1="210.001" x2="283" y2="178.001" style="stroke:#000000; stroke-width:1.6; stroke-opacity:1"/>
<line clip-path="url(#clip852)" x1="310.217" y1="210.001" x2="310.217" y2="178.001" style="stroke:#000000; stroke-width:1.6; stroke-opacity:1"/>
<line clip-path="url(#clip852)" x1="470.12" y1="210.001" x2="470.12" y2="178.001" style="stroke:#000000; stroke-width:1.6; stroke-opacity:1"/>
<line clip-path="url(#clip852)" x1="762.707" y1="210.001" x2="762.707" y2="178.001" style="stroke:#000000; stroke-width:1.6; stroke-opacity:1"/>
<line clip-path="url(#clip852)" x1="876.68" y1="210.001" x2="876.68" y2="178.001" style="stroke:#000000; stroke-width:1.6; stroke-opacity:1"/>
<line clip-path="url(#clip852)" x1="948.126" y1="210.001" x2="948.126" y2="178.001" style="stroke:#000000; stroke-width:1.6; stroke-opacity:1"/>
<line clip-path="url(#clip852)" x1="975.344" y1="210.001" x2="975.344" y2="178.001" style="stroke:#000000; stroke-width:1.6; stroke-opacity:1"/>
<line clip-path="url(#clip852)" x1="990.653" y1="210.001" x2="990.653" y2="178.001" style="stroke:#000000; stroke-width:1.6; stroke-opacity:1"/>
<line clip-path="url(#clip852)" x1="1065.5" y1="210.001" x2="1065.5" y2="178.001" style="stroke:#000000; stroke-width:1.6; stroke-opacity:1"/>
<line clip-path="url(#clip852)" x1="1109.73" y1="210.001" x2="1109.73" y2="178.001" style="stroke:#000000; stroke-width:1.6; stroke-opacity:1"/>
<line clip-path="url(#clip852)" x1="1142.05" y1="210.001" x2="1142.05" y2="178.001" style="stroke:#000000; stroke-width:1.6; stroke-opacity:1"/>
<line clip-path="url(#clip852)" x1="1296.85" y1="210.001" x2="1296.85" y2="178.001" style="stroke:#000000; stroke-width:1.6; stroke-opacity:1"/>
<line clip-path="url(#clip852)" x1="1313.86" y1="210.001" x2="1313.86" y2="178.001" style="stroke:#000000; stroke-width:1.6; stroke-opacity:1"/>
<line clip-path="url(#clip852)" x1="1364.89" y1="210.001" x2="1364.89" y2="178.001" style="stroke:#000000; stroke-width:1.6; stroke-opacity:1"/>
<line clip-path="url(#clip852)" x1="1409.12" y1="210.001" x2="1409.12" y2="178.001" style="stroke:#000000; stroke-width:1.6; stroke-opacity:1"/>
<line clip-path="url(#clip852)" x1="1449.95" y1="210.001" x2="1449.95" y2="178.001" style="stroke:#000000; stroke-width:1.6; stroke-opacity:1"/>
<line clip-path="url(#clip852)" x1="1485.67" y1="210.001" x2="1485.67" y2="178.001" style="stroke:#000000; stroke-width:1.6; stroke-opacity:1"/>
<line clip-path="url(#clip852)" x1="1535" y1="210.001" x2="1535" y2="178.001" style="stroke:#000000; stroke-width:1.6; stroke-opacity:1"/>
<line clip-path="url(#clip852)" x1="1572.43" y1="210.001" x2="1572.43" y2="178.001" style="stroke:#000000; stroke-width:1.6; stroke-opacity:1"/>
<line clip-path="url(#clip852)" x1="1603.05" y1="210.001" x2="1603.05" y2="178.001" style="stroke:#000000; stroke-width:1.6; stroke-opacity:1"/>
<line clip-path="url(#clip852)" x1="1630.26" y1="210.001" x2="1630.26" y2="178.001" style="stroke:#000000; stroke-width:1.6; stroke-opacity:1"/>
<line clip-path="url(#clip852)" x1="1717.02" y1="210.001" x2="1717.02" y2="178.001" style="stroke:#000000; stroke-width:1.6; stroke-opacity:1"/>
<line clip-path="url(#clip852)" x1="1759.55" y1="210.001" x2="1759.55" y2="178.001" style="stroke:#000000; stroke-width:1.6; stroke-opacity:1"/>
<line clip-path="url(#clip852)" x1="1819.08" y1="210.001" x2="1819.08" y2="178.001" style="stroke:#000000; stroke-width:1.6; stroke-opacity:1"/>
<line clip-path="url(#clip852)" x1="1873.52" y1="210.001" x2="1873.52" y2="178.001" style="stroke:#000000; stroke-width:1.6; stroke-opacity:1"/>
<line clip-path="url(#clip852)" x1="1885.43" y1="210.001" x2="1885.43" y2="178.001" style="stroke:#000000; stroke-width:1.6; stroke-opacity:1"/>
<line clip-path="url(#clip852)" x1="303.413" y1="145.35" x2="303.413" y2="113.35" style="stroke:#000000; stroke-width:1.6; stroke-opacity:1"/>
<line clip-path="url(#clip852)" x1="344.239" y1="145.35" x2="344.239" y2="113.35" style="stroke:#000000; stroke-width:1.6; stroke-opacity:1"/>
<line clip-path="url(#clip852)" x1="419.087" y1="145.35" x2="419.087" y2="113.35" style="stroke:#000000; stroke-width:1.6; stroke-opacity:1"/>
<line clip-path="url(#clip852)" x1="504.142" y1="145.35" x2="504.142" y2="113.35" style="stroke:#000000; stroke-width:1.6; stroke-opacity:1"/>
<line clip-path="url(#clip852)" x1="543.267" y1="145.35" x2="543.267" y2="113.35" style="stroke:#000000; stroke-width:1.6; stroke-opacity:1"/>
<line clip-path="url(#clip852)" x1="665.745" y1="145.35" x2="665.745" y2="113.35" style="stroke:#000000; stroke-width:1.6; stroke-opacity:1"/>
<line clip-path="url(#clip852)" x1="745.696" y1="145.35" x2="745.696" y2="113.35" style="stroke:#000000; stroke-width:1.6; stroke-opacity:1"/>
<line clip-path="url(#clip852)" x1="776.316" y1="145.35" x2="776.316" y2="113.35" style="stroke:#000000; stroke-width:1.6; stroke-opacity:1"/>
<line clip-path="url(#clip852)" x1="868.175" y1="145.35" x2="868.175" y2="113.35" style="stroke:#000000; stroke-width:1.6; stroke-opacity:1"/>
<line clip-path="url(#clip852)" x1="893.691" y1="145.35" x2="893.691" y2="113.35" style="stroke:#000000; stroke-width:1.6; stroke-opacity:1"/>
<line clip-path="url(#clip852)" x1="909.001" y1="145.35" x2="909.001" y2="113.35" style="stroke:#000000; stroke-width:1.6; stroke-opacity:1"/>
<line clip-path="url(#clip852)" x1="995.757" y1="145.35" x2="995.757" y2="113.35" style="stroke:#000000; stroke-width:1.6; stroke-opacity:1"/>
<line clip-path="url(#clip852)" x1="1060.4" y1="145.35" x2="1060.4" y2="113.35" style="stroke:#000000; stroke-width:1.6; stroke-opacity:1"/>
<line clip-path="url(#clip852)" x1="1080.81" y1="145.35" x2="1080.81" y2="113.35" style="stroke:#000000; stroke-width:1.6; stroke-opacity:1"/>
<line clip-path="url(#clip852)" x1="1148.85" y1="145.35" x2="1148.85" y2="113.35" style="stroke:#000000; stroke-width:1.6; stroke-opacity:1"/>
<line clip-path="url(#clip852)" x1="1169.27" y1="145.35" x2="1169.27" y2="113.35" style="stroke:#000000; stroke-width:1.6; stroke-opacity:1"/>
<line clip-path="url(#clip852)" x1="1244.12" y1="145.35" x2="1244.12" y2="113.35" style="stroke:#000000; stroke-width:1.6; stroke-opacity:1"/>
<line clip-path="url(#clip852)" x1="1358.09" y1="145.35" x2="1358.09" y2="113.35" style="stroke:#000000; stroke-width:1.6; stroke-opacity:1"/>
<line clip-path="url(#clip852)" x1="1392.11" y1="145.35" x2="1392.11" y2="113.35" style="stroke:#000000; stroke-width:1.6; stroke-opacity:1"/>
<line clip-path="url(#clip852)" x1="1424.43" y1="145.35" x2="1424.43" y2="113.35" style="stroke:#000000; stroke-width:1.6; stroke-opacity:1"/>
<line clip-path="url(#clip852)" x1="1492.47" y1="145.35" x2="1492.47" y2="113.35" style="stroke:#000000; stroke-width:1.6; stroke-opacity:1"/>
<line clip-path="url(#clip852)" x1="1521.39" y1="145.35" x2="1521.39" y2="113.35" style="stroke:#000000; stroke-width:1.6; stroke-opacity:1"/>
<line clip-path="url(#clip852)" x1="1538.4" y1="145.35" x2="1538.4" y2="113.35" style="stroke:#000000; stroke-width:1.6; stroke-opacity:1"/>
<line clip-path="url(#clip852)" x1="1587.74" y1="145.35" x2="1587.74" y2="113.35" style="stroke:#000000; stroke-width:1.6; stroke-opacity:1"/>
<line clip-path="url(#clip852)" x1="1597.94" y1="145.35" x2="1597.94" y2="113.35" style="stroke:#000000; stroke-width:1.6; stroke-opacity:1"/>
<line clip-path="url(#clip852)" x1="1665.99" y1="145.35" x2="1665.99" y2="113.35" style="stroke:#000000; stroke-width:1.6; stroke-opacity:1"/>
<line clip-path="url(#clip852)" x1="1711.92" y1="145.35" x2="1711.92" y2="113.35" style="stroke:#000000; stroke-width:1.6; stroke-opacity:1"/>
<line clip-path="url(#clip852)" x1="1827.59" y1="145.35" x2="1827.59" y2="113.35" style="stroke:#000000; stroke-width:1.6; stroke-opacity:1"/>
<line clip-path="url(#clip852)" x1="283" y1="80.6998" x2="283" y2="48.6998" style="stroke:#000000; stroke-width:1.6; stroke-opacity:1"/>
<line clip-path="url(#clip852)" x1="337.435" y1="80.6998" x2="337.435" y2="48.6998" style="stroke:#000000; stroke-width:1.6; stroke-opacity:1"/>
<line clip-path="url(#clip852)" x1="371.456" y1="80.6998" x2="371.456" y2="48.6998" style="stroke:#000000; stroke-width:1.6; stroke-opacity:1"/>
<line clip-path="url(#clip852)" x1="546.669" y1="80.6998" x2="546.669" y2="48.6998" style="stroke:#000000; stroke-width:1.6; stroke-opacity:1"/>
<line clip-path="url(#clip852)" x1="613.011" y1="80.6998" x2="613.011" y2="48.6998" style="stroke:#000000; stroke-width:1.6; stroke-opacity:1"/>
<line clip-path="url(#clip852)" x1="730.387" y1="80.6998" x2="730.387" y2="48.6998" style="stroke:#000000; stroke-width:1.6; stroke-opacity:1"/>
<line clip-path="url(#clip852)" x1="783.12" y1="80.6998" x2="783.12" y2="48.6998" style="stroke:#000000; stroke-width:1.6; stroke-opacity:1"/>
<line clip-path="url(#clip852)" x1="857.968" y1="80.6998" x2="857.968" y2="48.6998" style="stroke:#000000; stroke-width:1.6; stroke-opacity:1"/>
<line clip-path="url(#clip852)" x1="891.99" y1="80.6998" x2="891.99" y2="48.6998" style="stroke:#000000; stroke-width:1.6; stroke-opacity:1"/>
<line clip-path="url(#clip852)" x1="968.539" y1="80.6998" x2="968.539" y2="48.6998" style="stroke:#000000; stroke-width:1.6; stroke-opacity:1"/>
<line clip-path="url(#clip852)" x1="1094.42" y1="80.6998" x2="1094.42" y2="48.6998" style="stroke:#000000; stroke-width:1.6; stroke-opacity:1"/>
<line clip-path="url(#clip852)" x1="1208.39" y1="80.6998" x2="1208.39" y2="48.6998" style="stroke:#000000; stroke-width:1.6; stroke-opacity:1"/>
<line clip-path="url(#clip852)" x1="1278.14" y1="80.6998" x2="1278.14" y2="48.6998" style="stroke:#000000; stroke-width:1.6; stroke-opacity:1"/>
<line clip-path="url(#clip852)" x1="1310.46" y1="80.6998" x2="1310.46" y2="48.6998" style="stroke:#000000; stroke-width:1.6; stroke-opacity:1"/>
<line clip-path="url(#clip852)" x1="1359.79" y1="80.6998" x2="1359.79" y2="48.6998" style="stroke:#000000; stroke-width:1.6; stroke-opacity:1"/>
<line clip-path="url(#clip852)" x1="1478.87" y1="80.6998" x2="1478.87" y2="48.6998" style="stroke:#000000; stroke-width:1.6; stroke-opacity:1"/>
<line clip-path="url(#clip852)" x1="1660.88" y1="80.6998" x2="1660.88" y2="48.6998" style="stroke:#000000; stroke-width:1.6; stroke-opacity:1"/>
<line clip-path="url(#clip852)" x1="1744.24" y1="80.6998" x2="1744.24" y2="48.6998" style="stroke:#000000; stroke-width:1.6; stroke-opacity:1"/>
<line clip-path="url(#clip852)" x1="1878.62" y1="80.6998" x2="1878.62" y2="48.6998" style="stroke:#000000; stroke-width:1.6; stroke-opacity:1"/>
</svg>
