<?xml version="1.0" encoding="utf-8"?>
<svg xmlns="http://www.w3.org/2000/svg" xmlns:xlink="http://www.w3.org/1999/xlink" width="500" height="200" viewBox="0 0 2000 800">
<defs>
  <clipPath id="clip400">
    <rect x="0" y="0" width="2000" height="800"/>
  </clipPath>
</defs>
<path clip-path="url(#clip400)" d="
M0 800 L2000 800 L2000 0 L0 0  Z
  " fill="#ffffff" fill-rule="evenodd" fill-opacity="1"/>
<defs>
  <clipPath id="clip401">
    <rect x="400" y="0" width="1401" height="800"/>
  </clipPath>
</defs>
<path clip-path="url(#clip400)" d="
M174.844 664.012 L1952.76 664.012 L1952.76 47.2441 L174.844 47.2441  Z
  " fill="#ffffff" fill-rule="evenodd" fill-opacity="1"/>
<defs>
  <clipPath id="clip402">
    <rect x="174" y="47" width="1779" height="618"/>
  </clipPath>
</defs>
<polyline clip-path="url(#clip402)" style="stroke:#000000; stroke-width:2; stroke-opacity:0.1; fill:none" points="
  174.844,664.012 174.844,47.2441 
  "/>
<polyline clip-path="url(#clip402)" style="stroke:#000000; stroke-width:2; stroke-opacity:0.1; fill:none" points="
  614.922,664.012 614.922,47.2441 
  "/>
<polyline clip-path="url(#clip402)" style="stroke:#000000; stroke-width:2; stroke-opacity:0.1; fill:none" points="
  1055,664.012 1055,47.2441 
  "/>
<polyline clip-path="url(#clip402)" style="stroke:#000000; stroke-width:2; stroke-opacity:0.1; fill:none" points="
  1495.08,664.012 1495.08,47.2441 
  "/>
<polyline clip-path="url(#clip402)" style="stroke:#000000; stroke-width:2; stroke-opacity:0.1; fill:none" points="
  1935.15,664.012 1935.15,47.2441 
  "/>
<polyline clip-path="url(#clip400)" style="stroke:#000000; stroke-width:4; stroke-opacity:1; fill:none" points="
  174.844,664.012 1952.76,664.012 
  "/>
<polyline clip-path="url(#clip400)" style="stroke:#000000; stroke-width:4; stroke-opacity:1; fill:none" points="
  174.844,664.012 174.844,656.611 
  "/>
<polyline clip-path="url(#clip400)" style="stroke:#000000; stroke-width:4; stroke-opacity:1; fill:none" points="
  614.922,664.012 614.922,656.611 
  "/>
<polyline clip-path="url(#clip400)" style="stroke:#000000; stroke-width:4; stroke-opacity:1; fill:none" points="
  1055,664.012 1055,656.611 
  "/>
<polyline clip-path="url(#clip400)" style="stroke:#000000; stroke-width:4; stroke-opacity:1; fill:none" points="
  1495.08,664.012 1495.08,656.611 
  "/>
<polyline clip-path="url(#clip400)" style="stroke:#000000; stroke-width:4; stroke-opacity:1; fill:none" points="
  1935.15,664.012 1935.15,656.611 
  "/>
<path clip-path="url(#clip400)" d="M 0 0 M174.844 690.003 Q171.233 690.003 169.405 693.567 Q167.599 697.109 167.599 704.239 Q167.599 711.345 169.405 714.91 Q171.233 718.451 174.844 718.451 Q178.479 718.451 180.284 714.91 Q182.113 711.345 182.113 704.239 Q182.113 697.109 180.284 693.567 Q178.479 690.003 174.844 690.003 M174.844 686.299 Q180.655 686.299 183.71 690.905 Q186.789 695.489 186.789 704.239 Q186.789 712.965 183.71 717.572 Q180.655 722.155 174.844 722.155 Q169.034 722.155 165.956 717.572 Q162.9 712.965 162.9 704.239 Q162.9 695.489 165.956 690.905 Q169.034 686.299 174.844 686.299 Z" fill="#000000" fill-rule="evenodd" fill-opacity="1" /><path clip-path="url(#clip400)" d="M 0 0 M583.058 717.549 L599.378 717.549 L599.378 721.484 L577.433 721.484 L577.433 717.549 Q580.095 714.794 584.679 710.164 Q589.285 705.512 590.466 704.169 Q592.711 701.646 593.591 699.91 Q594.493 698.151 594.493 696.461 Q594.493 693.706 592.549 691.97 Q590.628 690.234 587.526 690.234 Q585.327 690.234 582.873 690.998 Q580.443 691.762 577.665 693.313 L577.665 688.591 Q580.489 687.456 582.943 686.878 Q585.396 686.299 587.433 686.299 Q592.804 686.299 595.998 688.984 Q599.192 691.669 599.192 696.16 Q599.192 698.29 598.382 700.211 Q597.595 702.109 595.489 704.702 Q594.91 705.373 591.808 708.59 Q588.706 711.785 583.058 717.549 Z" fill="#000000" fill-rule="evenodd" fill-opacity="1" /><path clip-path="url(#clip400)" d="M 0 0 M604.493 686.924 L622.85 686.924 L622.85 690.859 L608.776 690.859 L608.776 699.331 Q609.794 698.984 610.813 698.822 Q611.831 698.637 612.85 698.637 Q618.637 698.637 622.016 701.808 Q625.396 704.979 625.396 710.396 Q625.396 715.975 621.924 719.076 Q618.452 722.155 612.132 722.155 Q609.956 722.155 607.688 721.785 Q605.442 721.414 603.035 720.674 L603.035 715.975 Q605.118 717.109 607.341 717.664 Q609.563 718.22 612.04 718.22 Q616.044 718.22 618.382 716.114 Q620.72 714.007 620.72 710.396 Q620.72 706.785 618.382 704.678 Q616.044 702.572 612.04 702.572 Q610.165 702.572 608.29 702.989 Q606.438 703.405 604.493 704.285 L604.493 686.924 Z" fill="#000000" fill-rule="evenodd" fill-opacity="1" /><path clip-path="url(#clip400)" d="M 0 0 M640.465 690.003 Q636.854 690.003 635.026 693.567 Q633.22 697.109 633.22 704.239 Q633.22 711.345 635.026 714.91 Q636.854 718.451 640.465 718.451 Q644.1 718.451 645.905 714.91 Q647.734 711.345 647.734 704.239 Q647.734 697.109 645.905 693.567 Q644.1 690.003 640.465 690.003 M640.465 686.299 Q646.276 686.299 649.331 690.905 Q652.41 695.489 652.41 704.239 Q652.41 712.965 649.331 717.572 Q646.276 722.155 640.465 722.155 Q634.655 722.155 631.577 717.572 Q628.521 712.965 628.521 704.239 Q628.521 695.489 631.577 690.905 Q634.655 686.299 640.465 686.299 Z" fill="#000000" fill-rule="evenodd" fill-opacity="1" /><path clip-path="url(#clip400)" d="M 0 0 M1018.26 686.924 L1036.62 686.924 L1036.62 690.859 L1022.55 690.859 L1022.55 699.331 Q1023.56 698.984 1024.58 698.822 Q1025.6 698.637 1026.62 698.637 Q1032.41 698.637 1035.79 701.808 Q1039.17 704.979 1039.17 710.396 Q1039.17 715.975 1035.69 719.076 Q1032.22 722.155 1025.9 722.155 Q1023.73 722.155 1021.46 721.785 Q1019.21 721.414 1016.8 720.674 L1016.8 715.975 Q1018.89 717.109 1021.11 717.664 Q1023.33 718.22 1025.81 718.22 Q1029.81 718.22 1032.15 716.114 Q1034.49 714.007 1034.49 710.396 Q1034.49 706.785 1032.15 704.678 Q1029.81 702.572 1025.81 702.572 Q1023.93 702.572 1022.06 702.989 Q1020.21 703.405 1018.26 704.285 L1018.26 686.924 Z" fill="#000000" fill-rule="evenodd" fill-opacity="1" /><path clip-path="url(#clip400)" d="M 0 0 M1054.23 690.003 Q1050.62 690.003 1048.79 693.567 Q1046.99 697.109 1046.99 704.239 Q1046.99 711.345 1048.79 714.91 Q1050.62 718.451 1054.23 718.451 Q1057.87 718.451 1059.67 714.91 Q1061.5 711.345 1061.5 704.239 Q1061.5 697.109 1059.67 693.567 Q1057.87 690.003 1054.23 690.003 M1054.23 686.299 Q1060.04 686.299 1063.1 690.905 Q1066.18 695.489 1066.18 704.239 Q1066.18 712.965 1063.1 717.572 Q1060.04 722.155 1054.23 722.155 Q1048.42 722.155 1045.35 717.572 Q1042.29 712.965 1042.29 704.239 Q1042.29 695.489 1045.35 690.905 Q1048.42 686.299 1054.23 686.299 Z" fill="#000000" fill-rule="evenodd" fill-opacity="1" /><path clip-path="url(#clip400)" d="M 0 0 M1081.25 690.003 Q1077.64 690.003 1075.81 693.567 Q1074 697.109 1074 704.239 Q1074 711.345 1075.81 714.91 Q1077.64 718.451 1081.25 718.451 Q1084.88 718.451 1086.69 714.91 Q1088.52 711.345 1088.52 704.239 Q1088.52 697.109 1086.69 693.567 Q1084.88 690.003 1081.25 690.003 M1081.25 686.299 Q1087.06 686.299 1090.11 690.905 Q1093.19 695.489 1093.19 704.239 Q1093.19 712.965 1090.11 717.572 Q1087.06 722.155 1081.25 722.155 Q1075.44 722.155 1072.36 717.572 Q1069.3 712.965 1069.3 704.239 Q1069.3 695.489 1072.36 690.905 Q1075.44 686.299 1081.25 686.299 Z" fill="#000000" fill-rule="evenodd" fill-opacity="1" /><path clip-path="url(#clip400)" d="M 0 0 M1457.45 686.924 L1479.67 686.924 L1479.67 688.915 L1467.12 721.484 L1462.24 721.484 L1474.05 690.859 L1457.45 690.859 L1457.45 686.924 Z" fill="#000000" fill-rule="evenodd" fill-opacity="1" /><path clip-path="url(#clip400)" d="M 0 0 M1484.79 686.924 L1503.14 686.924 L1503.14 690.859 L1489.07 690.859 L1489.07 699.331 Q1490.09 698.984 1491.11 698.822 Q1492.12 698.637 1493.14 698.637 Q1498.93 698.637 1502.31 701.808 Q1505.69 704.979 1505.69 710.396 Q1505.69 715.975 1502.22 719.076 Q1498.74 722.155 1492.43 722.155 Q1490.25 722.155 1487.98 721.785 Q1485.74 721.414 1483.33 720.674 L1483.33 715.975 Q1485.41 717.109 1487.63 717.664 Q1489.86 718.22 1492.33 718.22 Q1496.34 718.22 1498.68 716.114 Q1501.01 714.007 1501.01 710.396 Q1501.01 706.785 1498.68 704.678 Q1496.34 702.572 1492.33 702.572 Q1490.46 702.572 1488.58 702.989 Q1486.73 703.405 1484.79 704.285 L1484.79 686.924 Z" fill="#000000" fill-rule="evenodd" fill-opacity="1" /><path clip-path="url(#clip400)" d="M 0 0 M1520.76 690.003 Q1517.15 690.003 1515.32 693.567 Q1513.51 697.109 1513.51 704.239 Q1513.51 711.345 1515.32 714.91 Q1517.15 718.451 1520.76 718.451 Q1524.39 718.451 1526.2 714.91 Q1528.03 711.345 1528.03 704.239 Q1528.03 697.109 1526.2 693.567 Q1524.39 690.003 1520.76 690.003 M1520.76 686.299 Q1526.57 686.299 1529.62 690.905 Q1532.7 695.489 1532.7 704.239 Q1532.7 712.965 1529.62 717.572 Q1526.57 722.155 1520.76 722.155 Q1514.95 722.155 1511.87 717.572 Q1508.81 712.965 1508.81 704.239 Q1508.81 695.489 1511.87 690.905 Q1514.95 686.299 1520.76 686.299 Z" fill="#000000" fill-rule="evenodd" fill-opacity="1" /><path clip-path="url(#clip400)" d="M 0 0 M1885.01 717.549 L1892.65 717.549 L1892.65 691.183 L1884.34 692.85 L1884.34 688.591 L1892.61 686.924 L1897.28 686.924 L1897.28 717.549 L1904.92 717.549 L1904.92 721.484 L1885.01 721.484 L1885.01 717.549 Z" fill="#000000" fill-rule="evenodd" fill-opacity="1" /><path clip-path="url(#clip400)" d="M 0 0 M1919.99 690.003 Q1916.38 690.003 1914.55 693.567 Q1912.75 697.109 1912.75 704.239 Q1912.75 711.345 1914.55 714.91 Q1916.38 718.451 1919.99 718.451 Q1923.63 718.451 1925.43 714.91 Q1927.26 711.345 1927.26 704.239 Q1927.26 697.109 1925.43 693.567 Q1923.63 690.003 1919.99 690.003 M1919.99 686.299 Q1925.8 686.299 1928.86 690.905 Q1931.94 695.489 1931.94 704.239 Q1931.94 712.965 1928.86 717.572 Q1925.8 722.155 1919.99 722.155 Q1914.18 722.155 1911.1 717.572 Q1908.05 712.965 1908.05 704.239 Q1908.05 695.489 1911.1 690.905 Q1914.18 686.299 1919.99 686.299 Z" fill="#000000" fill-rule="evenodd" fill-opacity="1" /><path clip-path="url(#clip400)" d="M 0 0 M1947 690.003 Q1943.39 690.003 1941.56 693.567 Q1939.76 697.109 1939.76 704.239 Q1939.76 711.345 1941.56 714.91 Q1943.39 718.451 1947 718.451 Q1950.64 718.451 1952.44 714.91 Q1954.27 711.345 1954.27 704.239 Q1954.27 697.109 1952.44 693.567 Q1950.64 690.003 1947 690.003 M1947 686.299 Q1952.81 686.299 1955.87 690.905 Q1958.95 695.489 1958.95 704.239 Q1958.95 712.965 1955.87 717.572 Q1952.81 722.155 1947 722.155 Q1941.19 722.155 1938.12 717.572 Q1935.06 712.965 1935.06 704.239 Q1935.06 695.489 1938.12 690.905 Q1941.19 686.299 1947 686.299 Z" fill="#000000" fill-rule="evenodd" fill-opacity="1" /><path clip-path="url(#clip400)" d="M 0 0 M1974.02 690.003 Q1970.41 690.003 1968.58 693.567 Q1966.77 697.109 1966.77 704.239 Q1966.77 711.345 1968.58 714.91 Q1970.41 718.451 1974.02 718.451 Q1977.65 718.451 1979.46 714.91 Q1981.29 711.345 1981.29 704.239 Q1981.29 697.109 1979.46 693.567 Q1977.65 690.003 1974.02 690.003 M1974.02 686.299 Q1979.83 686.299 1982.88 690.905 Q1985.96 695.489 1985.96 704.239 Q1985.96 712.965 1982.88 717.572 Q1979.83 722.155 1974.02 722.155 Q1968.21 722.155 1965.13 717.572 Q1962.07 712.965 1962.07 704.239 Q1962.07 695.489 1965.13 690.905 Q1968.21 686.299 1974.02 686.299 Z" fill="#000000" fill-rule="evenodd" fill-opacity="1" /><path clip-path="url(#clip400)" d="M 0 0 M916.657 755.356 L956.856 755.356 L956.856 760.767 L939.987 760.767 L939.987 802.876 L933.526 802.876 L933.526 760.767 L916.657 760.767 L916.657 755.356 Z" fill="#000000" fill-rule="evenodd" fill-opacity="1" /><path clip-path="url(#clip400)" d="M 0 0 M960.994 767.228 L966.85 767.228 L966.85 802.876 L960.994 802.876 L960.994 767.228 M960.994 753.351 L966.85 753.351 L966.85 760.767 L960.994 760.767 L960.994 753.351 Z" fill="#000000" fill-rule="evenodd" fill-opacity="1" /><path clip-path="url(#clip400)" d="M 0 0 M1000.75 774.071 Q1002.94 770.124 1006 768.246 Q1009.06 766.369 1013.19 766.369 Q1018.76 766.369 1021.79 770.283 Q1024.81 774.167 1024.81 781.36 L1024.81 802.876 L1018.92 802.876 L1018.92 781.551 Q1018.92 776.426 1017.11 773.944 Q1015.29 771.461 1011.57 771.461 Q1007.02 771.461 1004.38 774.485 Q1001.73 777.509 1001.73 782.728 L1001.73 802.876 L995.846 802.876 L995.846 781.551 Q995.846 776.395 994.032 773.944 Q992.218 771.461 988.43 771.461 Q983.942 771.461 981.301 774.517 Q978.659 777.54 978.659 782.728 L978.659 802.876 L972.771 802.876 L972.771 767.228 L978.659 767.228 L978.659 772.766 Q980.664 769.488 983.465 767.928 Q986.266 766.369 990.117 766.369 Q994 766.369 996.706 768.342 Q999.443 770.315 1000.75 774.071 Z" fill="#000000" fill-rule="evenodd" fill-opacity="1" /><path clip-path="url(#clip400)" d="M 0 0 M1061.44 783.588 L1061.44 786.452 L1034.52 786.452 Q1034.9 792.5 1038.15 795.683 Q1041.42 798.834 1047.25 798.834 Q1050.62 798.834 1053.77 798.006 Q1056.96 797.179 1060.08 795.523 L1060.08 801.062 Q1056.93 802.398 1053.62 803.099 Q1050.3 803.799 1046.9 803.799 Q1038.37 803.799 1033.37 798.834 Q1028.41 793.868 1028.41 785.402 Q1028.41 776.649 1033.12 771.525 Q1037.86 766.369 1045.88 766.369 Q1053.07 766.369 1057.24 771.015 Q1061.44 775.631 1061.44 783.588 M1055.59 781.869 Q1055.52 777.063 1052.88 774.198 Q1050.27 771.334 1045.94 771.334 Q1041.04 771.334 1038.08 774.103 Q1035.15 776.872 1034.71 781.901 L1055.59 781.869 Z" fill="#000000" fill-rule="evenodd" fill-opacity="1" /><path clip-path="url(#clip400)" d="M 0 0 M1102.38 753.414 Q1098.11 760.735 1096.04 767.896 Q1093.97 775.058 1093.97 782.41 Q1093.97 789.762 1096.04 796.988 Q1098.14 804.181 1102.38 811.47 L1097.28 811.47 Q1092.51 803.99 1090.12 796.765 Q1087.77 789.54 1087.77 782.41 Q1087.77 775.312 1090.12 768.119 Q1092.48 760.926 1097.28 753.414 L1102.38 753.414 Z" fill="#000000" fill-rule="evenodd" fill-opacity="1" /><path clip-path="url(#clip400)" d="M 0 0 M1136.27 774.071 Q1138.47 770.124 1141.53 768.246 Q1144.58 766.369 1148.72 766.369 Q1154.29 766.369 1157.31 770.283 Q1160.34 774.167 1160.34 781.36 L1160.34 802.876 L1154.45 802.876 L1154.45 781.551 Q1154.45 776.426 1152.63 773.944 Q1150.82 771.461 1147.1 771.461 Q1142.54 771.461 1139.9 774.485 Q1137.26 777.509 1137.26 782.728 L1137.26 802.876 L1131.37 802.876 L1131.37 781.551 Q1131.37 776.395 1129.56 773.944 Q1127.74 771.461 1123.96 771.461 Q1119.47 771.461 1116.83 774.517 Q1114.18 777.54 1114.18 782.728 L1114.18 802.876 L1108.3 802.876 L1108.3 767.228 L1114.18 767.228 L1114.18 772.766 Q1116.19 769.488 1118.99 767.928 Q1121.79 766.369 1125.64 766.369 Q1129.53 766.369 1132.23 768.342 Q1134.97 770.315 1136.27 774.071 Z" fill="#000000" fill-rule="evenodd" fill-opacity="1" /><path clip-path="url(#clip400)" d="M 0 0 M1189.2 768.278 L1189.2 773.816 Q1186.72 772.543 1184.05 771.907 Q1181.37 771.27 1178.51 771.27 Q1174.15 771.27 1171.95 772.607 Q1169.79 773.944 1169.79 776.617 Q1169.79 778.654 1171.35 779.832 Q1172.91 780.978 1177.62 782.028 L1179.62 782.474 Q1185.86 783.811 1188.47 786.261 Q1191.11 788.68 1191.11 793.041 Q1191.11 798.006 1187.17 800.902 Q1183.25 803.799 1176.38 803.799 Q1173.51 803.799 1170.39 803.226 Q1167.31 802.685 1163.87 801.571 L1163.87 795.523 Q1167.12 797.21 1170.27 798.07 Q1173.42 798.897 1176.51 798.897 Q1180.64 798.897 1182.87 797.497 Q1185.1 796.065 1185.1 793.486 Q1185.1 791.099 1183.48 789.826 Q1181.88 788.553 1176.44 787.375 L1174.4 786.898 Q1168.96 785.752 1166.54 783.397 Q1164.12 781.01 1164.12 776.872 Q1164.12 771.843 1167.69 769.106 Q1171.25 766.369 1177.81 766.369 Q1181.06 766.369 1183.92 766.846 Q1186.79 767.323 1189.2 768.278 Z" fill="#000000" fill-rule="evenodd" fill-opacity="1" /><path clip-path="url(#clip400)" d="M 0 0 M1196.33 753.414 L1201.43 753.414 Q1206.2 760.926 1208.56 768.119 Q1210.94 775.312 1210.94 782.41 Q1210.94 789.54 1208.56 796.765 Q1206.2 803.99 1201.43 811.47 L1196.33 811.47 Q1200.57 804.181 1202.64 796.988 Q1204.74 789.762 1204.74 782.41 Q1204.74 775.058 1202.64 767.896 Q1200.57 760.735 1196.33 753.414 Z" fill="#000000" fill-rule="evenodd" fill-opacity="1" /><polyline clip-path="url(#clip402)" style="stroke:#000000; stroke-width:2; stroke-opacity:0.1; fill:none" points="
  174.844,581.905 1952.76,581.905 
  "/>
<polyline clip-path="url(#clip402)" style="stroke:#000000; stroke-width:2; stroke-opacity:0.1; fill:none" points="
  174.844,452.604 1952.76,452.604 
  "/>
<polyline clip-path="url(#clip402)" style="stroke:#000000; stroke-width:2; stroke-opacity:0.1; fill:none" points="
  174.844,323.303 1952.76,323.303 
  "/>
<polyline clip-path="url(#clip402)" style="stroke:#000000; stroke-width:2; stroke-opacity:0.1; fill:none" points="
  174.844,194.001 1952.76,194.001 
  "/>
<polyline clip-path="url(#clip402)" style="stroke:#000000; stroke-width:2; stroke-opacity:0.1; fill:none" points="
  174.844,64.6998 1952.76,64.6998 
  "/>
<polyline clip-path="url(#clip400)" style="stroke:#000000; stroke-width:4; stroke-opacity:1; fill:none" points="
  174.844,664.012 174.844,47.2441 
  "/>
<polyline clip-path="url(#clip400)" style="stroke:#000000; stroke-width:4; stroke-opacity:1; fill:none" points="
  174.844,581.905 196.179,581.905 
  "/>
<polyline clip-path="url(#clip400)" style="stroke:#000000; stroke-width:4; stroke-opacity:1; fill:none" points="
  174.844,452.604 196.179,452.604 
  "/>
<polyline clip-path="url(#clip400)" style="stroke:#000000; stroke-width:4; stroke-opacity:1; fill:none" points="
  174.844,323.303 196.179,323.303 
  "/>
<polyline clip-path="url(#clip400)" style="stroke:#000000; stroke-width:4; stroke-opacity:1; fill:none" points="
  174.844,194.001 196.179,194.001 
  "/>
<polyline clip-path="url(#clip400)" style="stroke:#000000; stroke-width:4; stroke-opacity:1; fill:none" points="
  174.844,64.6998 196.179,64.6998 
  "/>
<path clip-path="url(#clip400)" d="M 0 0 M128.525 595.25 L144.844 595.25 L144.844 599.185 L122.9 599.185 L122.9 595.25 Q125.562 592.496 130.145 587.866 Q134.752 583.213 135.933 581.871 Q138.178 579.348 139.057 577.611 Q139.96 575.852 139.96 574.162 Q139.96 571.408 138.016 569.672 Q136.095 567.936 132.993 567.936 Q130.794 567.936 128.34 568.699 Q125.909 569.463 123.132 571.014 L123.132 566.292 Q125.956 565.158 128.409 564.579 Q130.863 564 132.9 564 Q138.27 564 141.465 566.686 Q144.659 569.371 144.659 573.862 Q144.659 575.991 143.849 577.912 Q143.062 579.811 140.956 582.403 Q140.377 583.074 137.275 586.292 Q134.173 589.486 128.525 595.25 Z" fill="#000000" fill-rule="evenodd" fill-opacity="1" /><path clip-path="url(#clip400)" d="M 0 0 M135.261 439.398 L123.456 457.847 L135.261 457.847 L135.261 439.398 M134.034 435.324 L139.914 435.324 L139.914 457.847 L144.844 457.847 L144.844 461.736 L139.914 461.736 L139.914 469.884 L135.261 469.884 L135.261 461.736 L119.659 461.736 L119.659 457.222 L134.034 435.324 Z" fill="#000000" fill-rule="evenodd" fill-opacity="1" /><path clip-path="url(#clip400)" d="M 0 0 M133.317 321.439 Q130.169 321.439 128.317 323.592 Q126.488 325.745 126.488 329.495 Q126.488 333.222 128.317 335.397 Q130.169 337.55 133.317 337.55 Q136.465 337.55 138.294 335.397 Q140.145 333.222 140.145 329.495 Q140.145 325.745 138.294 323.592 Q136.465 321.439 133.317 321.439 M142.599 306.786 L142.599 311.046 Q140.84 310.212 139.034 309.773 Q137.252 309.333 135.493 309.333 Q130.863 309.333 128.409 312.458 Q125.979 315.583 125.632 321.902 Q126.997 319.888 129.058 318.823 Q131.118 317.736 133.595 317.736 Q138.803 317.736 141.812 320.907 Q144.844 324.055 144.844 329.495 Q144.844 334.819 141.696 338.036 Q138.548 341.254 133.317 341.254 Q127.321 341.254 124.15 336.671 Q120.979 332.064 120.979 323.337 Q120.979 315.143 124.868 310.282 Q128.757 305.398 135.308 305.398 Q137.067 305.398 138.849 305.745 Q140.655 306.092 142.599 306.786 Z" fill="#000000" fill-rule="evenodd" fill-opacity="1" /><path clip-path="url(#clip400)" d="M 0 0 M132.993 194.869 Q129.659 194.869 127.738 196.652 Q125.84 198.434 125.84 201.559 Q125.84 204.684 127.738 206.466 Q129.659 208.249 132.993 208.249 Q136.326 208.249 138.247 206.466 Q140.169 204.661 140.169 201.559 Q140.169 198.434 138.247 196.652 Q136.349 194.869 132.993 194.869 M128.317 192.879 Q125.308 192.138 123.618 190.078 Q121.951 188.017 121.951 185.054 Q121.951 180.911 124.891 178.504 Q127.854 176.096 132.993 176.096 Q138.155 176.096 141.095 178.504 Q144.034 180.911 144.034 185.054 Q144.034 188.017 142.345 190.078 Q140.678 192.138 137.692 192.879 Q141.071 193.666 142.946 195.957 Q144.844 198.249 144.844 201.559 Q144.844 206.582 141.766 209.267 Q138.71 211.952 132.993 211.952 Q127.275 211.952 124.196 209.267 Q121.141 206.582 121.141 201.559 Q121.141 198.249 123.039 195.957 Q124.937 193.666 128.317 192.879 M126.604 185.494 Q126.604 188.179 128.271 189.684 Q129.96 191.189 132.993 191.189 Q136.002 191.189 137.692 189.684 Q139.405 188.179 139.405 185.494 Q139.405 182.809 137.692 181.305 Q136.002 179.8 132.993 179.8 Q129.96 179.8 128.271 181.305 Q126.604 182.809 126.604 185.494 Z" fill="#000000" fill-rule="evenodd" fill-opacity="1" /><path clip-path="url(#clip400)" d="M 0 0 M97.9235 78.0446 L105.562 78.0446 L105.562 51.679 L97.2522 53.3457 L97.2522 49.0864 L105.516 47.4198 L110.192 47.4198 L110.192 78.0446 L117.831 78.0446 L117.831 81.9798 L97.9235 81.9798 L97.9235 78.0446 Z" fill="#000000" fill-rule="evenodd" fill-opacity="1" /><path clip-path="url(#clip400)" d="M 0 0 M132.9 50.4985 Q129.289 50.4985 127.46 54.0633 Q125.655 57.6049 125.655 64.7345 Q125.655 71.841 127.46 75.4057 Q129.289 78.9474 132.9 78.9474 Q136.534 78.9474 138.34 75.4057 Q140.169 71.841 140.169 64.7345 Q140.169 57.6049 138.34 54.0633 Q136.534 50.4985 132.9 50.4985 M132.9 46.7948 Q138.71 46.7948 141.766 51.4012 Q144.844 55.9846 144.844 64.7345 Q144.844 73.4613 141.766 78.0678 Q138.71 82.6511 132.9 82.6511 Q127.09 82.6511 124.011 78.0678 Q120.956 73.4613 120.956 64.7345 Q120.956 55.9846 124.011 51.4012 Q127.09 46.7948 132.9 46.7948 Z" fill="#000000" fill-rule="evenodd" fill-opacity="1" /><path clip-path="url(#clip400)" d="M 0 0 M5.47616 546.297 L5.47616 537.639 L45.23 516.569 L5.47616 516.569 L5.47616 510.331 L52.9962 510.331 L52.9962 518.988 L13.2423 540.058 L52.9962 540.058 L52.9962 546.297 L5.47616 546.297 Z" fill="#000000" fill-rule="evenodd" fill-opacity="1" /><path clip-path="url(#clip400)" d="M 0 0 M33.7081 473.696 L36.5726 473.696 L36.5726 500.623 Q42.6201 500.241 45.8029 496.994 Q48.9539 493.716 48.9539 487.891 Q48.9539 484.518 48.1264 481.367 Q47.2989 478.184 45.6438 475.065 L51.1819 475.065 Q52.5187 478.216 53.219 481.526 Q53.9192 484.836 53.9192 488.242 Q53.9192 496.772 48.9539 501.769 Q43.9887 506.734 35.5223 506.734 Q26.7694 506.734 21.6451 502.023 Q16.4888 497.281 16.4888 489.26 Q16.4888 482.067 21.1358 477.897 Q25.7509 473.696 33.7081 473.696 M31.9893 479.552 Q27.1832 479.616 24.3186 482.258 Q21.4541 484.868 21.4541 489.196 Q21.4541 494.098 24.2232 497.058 Q26.9922 499.986 32.0212 500.432 L31.9893 479.552 Z" fill="#000000" fill-rule="evenodd" fill-opacity="1" /><path clip-path="url(#clip400)" d="M 0 0 M38.9279 468.158 L17.3482 468.158 L17.3482 462.301 L38.7051 462.301 Q43.7659 462.301 46.3122 460.328 Q48.8266 458.355 48.8266 454.408 Q48.8266 449.665 45.8029 446.928 Q42.7792 444.159 37.5593 444.159 L17.3482 444.159 L17.3482 438.303 L52.9962 438.303 L52.9962 444.159 L47.5216 444.159 Q50.7682 446.292 52.3596 449.124 Q53.9192 451.925 53.9192 455.649 Q53.9192 461.792 50.0998 464.975 Q46.2803 468.158 38.9279 468.158 M16.4888 453.421 L16.4888 453.421 Z" fill="#000000" fill-rule="evenodd" fill-opacity="1" /><path clip-path="url(#clip400)" d="M 0 0 M22.8227 411.503 Q22.2498 412.49 21.9952 413.667 Q21.7087 414.813 21.7087 416.214 Q21.7087 421.179 24.9552 423.852 Q28.1699 426.494 34.2173 426.494 L52.9962 426.494 L52.9962 432.382 L17.3482 432.382 L17.3482 426.494 L22.8864 426.494 Q19.6399 424.648 18.0803 421.688 Q16.4888 418.728 16.4888 414.495 Q16.4888 413.89 16.5843 413.158 Q16.648 412.426 16.8071 411.535 L22.8227 411.503 Z" fill="#000000" fill-rule="evenodd" fill-opacity="1" /><path clip-path="url(#clip400)" d="M 0 0 M21.4541 392.979 Q21.4541 397.689 25.1462 400.427 Q28.8065 403.164 35.204 403.164 Q41.6015 403.164 45.2937 400.458 Q48.9539 397.721 48.9539 392.979 Q48.9539 388.3 45.2618 385.563 Q41.5697 382.825 35.204 382.825 Q28.8701 382.825 25.178 385.563 Q21.4541 388.3 21.4541 392.979 M16.4888 392.979 Q16.4888 385.34 21.4541 380.979 Q26.4193 376.619 35.204 376.619 Q43.9569 376.619 48.9539 380.979 Q53.9192 385.34 53.9192 392.979 Q53.9192 400.649 48.9539 405.01 Q43.9569 409.339 35.204 409.339 Q26.4193 409.339 21.4541 405.01 Q16.4888 400.649 16.4888 392.979 Z" fill="#000000" fill-rule="evenodd" fill-opacity="1" /><path clip-path="url(#clip400)" d="M 0 0 M31.4801 340.844 L52.9962 340.844 L52.9962 346.7 L31.671 346.7 Q26.6103 346.7 24.0958 348.673 Q21.5814 350.647 21.5814 354.594 Q21.5814 359.336 24.6051 362.073 Q27.6288 364.811 32.8487 364.811 L52.9962 364.811 L52.9962 370.699 L17.3482 370.699 L17.3482 364.811 L22.8864 364.811 Q19.6717 362.71 18.0803 359.877 Q16.4888 357.013 16.4888 353.289 Q16.4888 347.146 20.3083 343.995 Q24.0958 340.844 31.4801 340.844 Z" fill="#000000" fill-rule="evenodd" fill-opacity="1" /><path clip-path="url(#clip400)" d="M 0 0 M17.3482 313.98 L17.3482 308.124 L52.9962 308.124 L52.9962 313.98 L17.3482 313.98 M3.47096 313.98 L3.47096 308.124 L10.887 308.124 L10.887 313.98 L3.47096 313.98 Z" fill="#000000" fill-rule="evenodd" fill-opacity="1" /><path clip-path="url(#clip400)" d="M 0 0 M31.4801 272.349 L52.9962 272.349 L52.9962 278.205 L31.671 278.205 Q26.6103 278.205 24.0958 280.178 Q21.5814 282.152 21.5814 286.099 Q21.5814 290.841 24.6051 293.578 Q27.6288 296.315 32.8487 296.315 L52.9962 296.315 L52.9962 302.204 L17.3482 302.204 L17.3482 296.315 L22.8864 296.315 Q19.6717 294.215 18.0803 291.382 Q16.4888 288.518 16.4888 284.794 Q16.4888 278.651 20.3083 275.5 Q24.0958 272.349 31.4801 272.349 Z" fill="#000000" fill-rule="evenodd" fill-opacity="1" /><path clip-path="url(#clip400)" d="M 0 0 M22.7591 242.748 L3.47096 242.748 L3.47096 236.892 L52.9962 236.892 L52.9962 242.748 L47.649 242.748 Q50.8318 244.594 52.3914 247.427 Q53.9192 250.228 53.9192 254.175 Q53.9192 260.636 48.763 264.71 Q43.6067 268.752 35.204 268.752 Q26.8013 268.752 21.6451 264.71 Q16.4888 260.636 16.4888 254.175 Q16.4888 250.228 18.0484 247.427 Q19.5762 244.594 22.7591 242.748 M35.204 262.705 Q41.6652 262.705 45.3573 260.063 Q49.0176 257.389 49.0176 252.742 Q49.0176 248.095 45.3573 245.422 Q41.6652 242.748 35.204 242.748 Q28.7428 242.748 25.0825 245.422 Q21.3904 248.095 21.3904 252.742 Q21.3904 257.389 25.0825 260.063 Q28.7428 262.705 35.204 262.705 Z" fill="#000000" fill-rule="evenodd" fill-opacity="1" /><path clip-path="url(#clip400)" d="M 0 0 M33.7081 200.257 L36.5726 200.257 L36.5726 227.184 Q42.6201 226.802 45.8029 223.555 Q48.9539 220.277 48.9539 214.453 Q48.9539 211.079 48.1264 207.928 Q47.2989 204.745 45.6438 201.626 L51.1819 201.626 Q52.5187 204.777 53.219 208.087 Q53.9192 211.397 53.9192 214.803 Q53.9192 223.333 48.9539 228.33 Q43.9887 233.295 35.5223 233.295 Q26.7694 233.295 21.6451 228.584 Q16.4888 223.842 16.4888 215.821 Q16.4888 208.628 21.1358 204.458 Q25.7509 200.257 33.7081 200.257 M31.9893 206.113 Q27.1832 206.177 24.3186 208.819 Q21.4541 211.429 21.4541 215.757 Q21.4541 220.659 24.2232 223.619 Q26.9922 226.547 32.0212 226.993 L31.9893 206.113 Z" fill="#000000" fill-rule="evenodd" fill-opacity="1" /><path clip-path="url(#clip400)" d="M 0 0 M17.3482 165.628 L34.6948 178.518 L52.9962 164.959 L52.9962 171.866 L38.9916 182.242 L52.9962 192.618 L52.9962 199.525 L34.3446 185.68 L17.3482 198.347 L17.3482 191.44 L30.0478 181.987 L17.3482 172.534 L17.3482 165.628 Z" fill="#000000" fill-rule="evenodd" fill-opacity="1" /><line clip-path="url(#clip402)" x1="220.753" y1="662.556" x2="220.753" y2="630.556" style="stroke:#000000; stroke-width:1.6; stroke-opacity:1"/>
<line clip-path="url(#clip402)" x1="281.79" y1="662.556" x2="281.79" y2="630.556" style="stroke:#000000; stroke-width:1.6; stroke-opacity:1"/>
<line clip-path="url(#clip402)" x1="301.17" y1="662.556" x2="301.17" y2="630.556" style="stroke:#000000; stroke-width:1.6; stroke-opacity:1"/>
<line clip-path="url(#clip402)" x1="309.823" y1="662.556" x2="309.823" y2="630.556" style="stroke:#000000; stroke-width:1.6; stroke-opacity:1"/>
<line clip-path="url(#clip402)" x1="340.582" y1="662.556" x2="340.582" y2="630.556" style="stroke:#000000; stroke-width:1.6; stroke-opacity:1"/>
<line clip-path="url(#clip402)" x1="389.343" y1="662.556" x2="389.343" y2="630.556" style="stroke:#000000; stroke-width:1.6; stroke-opacity:1"/>
<line clip-path="url(#clip402)" x1="410.931" y1="662.556" x2="410.931" y2="630.556" style="stroke:#000000; stroke-width:1.6; stroke-opacity:1"/>
<line clip-path="url(#clip402)" x1="412.651" y1="662.556" x2="412.651" y2="630.556" style="stroke:#000000; stroke-width:1.6; stroke-opacity:1"/>
<line clip-path="url(#clip402)" x1="488.421" y1="662.556" x2="488.421" y2="630.556" style="stroke:#000000; stroke-width:1.6; stroke-opacity:1"/>
<line clip-path="url(#clip402)" x1="516.767" y1="662.556" x2="516.767" y2="630.556" style="stroke:#000000; stroke-width:1.6; stroke-opacity:1"/>
<line clip-path="url(#clip402)" x1="584.758" y1="662.556" x2="584.758" y2="630.556" style="stroke:#000000; stroke-width:1.6; stroke-opacity:1"/>
<line clip-path="url(#clip402)" x1="695.284" y1="662.556" x2="695.284" y2="630.556" style="stroke:#000000; stroke-width:1.6; stroke-opacity:1"/>
<line clip-path="url(#clip402)" x1="801.191" y1="662.556" x2="801.191" y2="630.556" style="stroke:#000000; stroke-width:1.6; stroke-opacity:1"/>
<line clip-path="url(#clip402)" x1="859.91" y1="662.556" x2="859.91" y2="630.556" style="stroke:#000000; stroke-width:1.6; stroke-opacity:1"/>
<line clip-path="url(#clip402)" x1="877.671" y1="662.556" x2="877.671" y2="630.556" style="stroke:#000000; stroke-width:1.6; stroke-opacity:1"/>
<line clip-path="url(#clip402)" x1="884.977" y1="662.556" x2="884.977" y2="630.556" style="stroke:#000000; stroke-width:1.6; stroke-opacity:1"/>
<line clip-path="url(#clip402)" x1="1017.54" y1="662.556" x2="1017.54" y2="630.556" style="stroke:#000000; stroke-width:1.6; stroke-opacity:1"/>
<line clip-path="url(#clip402)" x1="1228.59" y1="662.556" x2="1228.59" y2="630.556" style="stroke:#000000; stroke-width:1.6; stroke-opacity:1"/>
<line clip-path="url(#clip402)" x1="1374.23" y1="662.556" x2="1374.23" y2="630.556" style="stroke:#000000; stroke-width:1.6; stroke-opacity:1"/>
<line clip-path="url(#clip402)" x1="1381.67" y1="662.556" x2="1381.67" y2="630.556" style="stroke:#000000; stroke-width:1.6; stroke-opacity:1"/>
<line clip-path="url(#clip402)" x1="1470.45" y1="662.556" x2="1470.45" y2="630.556" style="stroke:#000000; stroke-width:1.6; stroke-opacity:1"/>
<line clip-path="url(#clip402)" x1="1475.15" y1="662.556" x2="1475.15" y2="630.556" style="stroke:#000000; stroke-width:1.6; stroke-opacity:1"/>
<line clip-path="url(#clip402)" x1="1491.48" y1="662.556" x2="1491.48" y2="630.556" style="stroke:#000000; stroke-width:1.6; stroke-opacity:1"/>
<line clip-path="url(#clip402)" x1="1700.67" y1="662.556" x2="1700.67" y2="630.556" style="stroke:#000000; stroke-width:1.6; stroke-opacity:1"/>
<line clip-path="url(#clip402)" x1="1705.13" y1="662.556" x2="1705.13" y2="630.556" style="stroke:#000000; stroke-width:1.6; stroke-opacity:1"/>
<line clip-path="url(#clip402)" x1="1728.72" y1="662.556" x2="1728.72" y2="630.556" style="stroke:#000000; stroke-width:1.6; stroke-opacity:1"/>
<line clip-path="url(#clip402)" x1="1731.33" y1="662.556" x2="1731.33" y2="630.556" style="stroke:#000000; stroke-width:1.6; stroke-opacity:1"/>
<line clip-path="url(#clip402)" x1="1753.34" y1="662.556" x2="1753.34" y2="630.556" style="stroke:#000000; stroke-width:1.6; stroke-opacity:1"/>
<line clip-path="url(#clip402)" x1="1784.03" y1="662.556" x2="1784.03" y2="630.556" style="stroke:#000000; stroke-width:1.6; stroke-opacity:1"/>
<line clip-path="url(#clip402)" x1="1801.35" y1="662.556" x2="1801.35" y2="630.556" style="stroke:#000000; stroke-width:1.6; stroke-opacity:1"/>
<line clip-path="url(#clip402)" x1="1858.07" y1="662.556" x2="1858.07" y2="630.556" style="stroke:#000000; stroke-width:1.6; stroke-opacity:1"/>
<line clip-path="url(#clip402)" x1="1869.49" y1="662.556" x2="1869.49" y2="630.556" style="stroke:#000000; stroke-width:1.6; stroke-opacity:1"/>
<line clip-path="url(#clip402)" x1="1921.81" y1="662.556" x2="1921.81" y2="630.556" style="stroke:#000000; stroke-width:1.6; stroke-opacity:1"/>
<line clip-path="url(#clip402)" x1="195.576" y1="597.905" x2="195.576" y2="565.905" style="stroke:#000000; stroke-width:1.6; stroke-opacity:1"/>
<line clip-path="url(#clip402)" x1="228.498" y1="597.905" x2="228.498" y2="565.905" style="stroke:#000000; stroke-width:1.6; stroke-opacity:1"/>
<line clip-path="url(#clip402)" x1="342.682" y1="597.905" x2="342.682" y2="565.905" style="stroke:#000000; stroke-width:1.6; stroke-opacity:1"/>
<line clip-path="url(#clip402)" x1="444.524" y1="597.905" x2="444.524" y2="565.905" style="stroke:#000000; stroke-width:1.6; stroke-opacity:1"/>
<line clip-path="url(#clip402)" x1="489.764" y1="597.905" x2="489.764" y2="565.905" style="stroke:#000000; stroke-width:1.6; stroke-opacity:1"/>
<line clip-path="url(#clip402)" x1="578.873" y1="597.905" x2="578.873" y2="565.905" style="stroke:#000000; stroke-width:1.6; stroke-opacity:1"/>
<line clip-path="url(#clip402)" x1="615.291" y1="597.905" x2="615.291" y2="565.905" style="stroke:#000000; stroke-width:1.6; stroke-opacity:1"/>
<line clip-path="url(#clip402)" x1="659.96" y1="597.905" x2="659.96" y2="565.905" style="stroke:#000000; stroke-width:1.6; stroke-opacity:1"/>
<line clip-path="url(#clip402)" x1="743.327" y1="597.905" x2="743.327" y2="565.905" style="stroke:#000000; stroke-width:1.6; stroke-opacity:1"/>
<line clip-path="url(#clip402)" x1="804" y1="597.905" x2="804" y2="565.905" style="stroke:#000000; stroke-width:1.6; stroke-opacity:1"/>
<line clip-path="url(#clip402)" x1="805.682" y1="597.905" x2="805.682" y2="565.905" style="stroke:#000000; stroke-width:1.6; stroke-opacity:1"/>
<line clip-path="url(#clip402)" x1="911.469" y1="597.905" x2="911.469" y2="565.905" style="stroke:#000000; stroke-width:1.6; stroke-opacity:1"/>
<line clip-path="url(#clip402)" x1="941.377" y1="597.905" x2="941.377" y2="565.905" style="stroke:#000000; stroke-width:1.6; stroke-opacity:1"/>
<line clip-path="url(#clip402)" x1="1094.9" y1="597.905" x2="1094.9" y2="565.905" style="stroke:#000000; stroke-width:1.6; stroke-opacity:1"/>
<line clip-path="url(#clip402)" x1="1118.66" y1="597.905" x2="1118.66" y2="565.905" style="stroke:#000000; stroke-width:1.6; stroke-opacity:1"/>
<line clip-path="url(#clip402)" x1="1346.85" y1="597.905" x2="1346.85" y2="565.905" style="stroke:#000000; stroke-width:1.6; stroke-opacity:1"/>
<line clip-path="url(#clip402)" x1="1416.41" y1="597.905" x2="1416.41" y2="565.905" style="stroke:#000000; stroke-width:1.6; stroke-opacity:1"/>
<line clip-path="url(#clip402)" x1="1499.52" y1="597.905" x2="1499.52" y2="565.905" style="stroke:#000000; stroke-width:1.6; stroke-opacity:1"/>
<line clip-path="url(#clip402)" x1="1688.68" y1="597.905" x2="1688.68" y2="565.905" style="stroke:#000000; stroke-width:1.6; stroke-opacity:1"/>
<line clip-path="url(#clip402)" x1="1691.15" y1="597.905" x2="1691.15" y2="565.905" style="stroke:#000000; stroke-width:1.6; stroke-opacity:1"/>
<line clip-path="url(#clip402)" x1="1724.36" y1="597.905" x2="1724.36" y2="565.905" style="stroke:#000000; stroke-width:1.6; stroke-opacity:1"/>
<line clip-path="url(#clip402)" x1="1736.69" y1="597.905" x2="1736.69" y2="565.905" style="stroke:#000000; stroke-width:1.6; stroke-opacity:1"/>
<line clip-path="url(#clip402)" x1="1818.79" y1="597.905" x2="1818.79" y2="565.905" style="stroke:#000000; stroke-width:1.6; stroke-opacity:1"/>
<line clip-path="url(#clip402)" x1="1840.65" y1="597.905" x2="1840.65" y2="565.905" style="stroke:#000000; stroke-width:1.6; stroke-opacity:1"/>
<line clip-path="url(#clip402)" x1="1849.61" y1="597.905" x2="1849.61" y2="565.905" style="stroke:#000000; stroke-width:1.6; stroke-opacity:1"/>
<line clip-path="url(#clip402)" x1="1869.31" y1="597.905" x2="1869.31" y2="565.905" style="stroke:#000000; stroke-width:1.6; stroke-opacity:1"/>
<line clip-path="url(#clip402)" x1="208.806" y1="533.255" x2="208.806" y2="501.255" style="stroke:#000000; stroke-width:1.6; stroke-opacity:1"/>
<line clip-path="url(#clip402)" x1="222.263" y1="533.255" x2="222.263" y2="501.255" style="stroke:#000000; stroke-width:1.6; stroke-opacity:1"/>
<line clip-path="url(#clip402)" x1="289.338" y1="533.255" x2="289.338" y2="501.255" style="stroke:#000000; stroke-width:1.6; stroke-opacity:1"/>
<line clip-path="url(#clip402)" x1="321.936" y1="533.255" x2="321.936" y2="501.255" style="stroke:#000000; stroke-width:1.6; stroke-opacity:1"/>
<line clip-path="url(#clip402)" x1="330.86" y1="533.255" x2="330.86" y2="501.255" style="stroke:#000000; stroke-width:1.6; stroke-opacity:1"/>
<line clip-path="url(#clip402)" x1="336.747" y1="533.255" x2="336.747" y2="501.255" style="stroke:#000000; stroke-width:1.6; stroke-opacity:1"/>
<line clip-path="url(#clip402)" x1="348.436" y1="533.255" x2="348.436" y2="501.255" style="stroke:#000000; stroke-width:1.6; stroke-opacity:1"/>
<line clip-path="url(#clip402)" x1="489.224" y1="533.255" x2="489.224" y2="501.255" style="stroke:#000000; stroke-width:1.6; stroke-opacity:1"/>
<line clip-path="url(#clip402)" x1="555.86" y1="533.255" x2="555.86" y2="501.255" style="stroke:#000000; stroke-width:1.6; stroke-opacity:1"/>
<line clip-path="url(#clip402)" x1="711.412" y1="533.255" x2="711.412" y2="501.255" style="stroke:#000000; stroke-width:1.6; stroke-opacity:1"/>
<line clip-path="url(#clip402)" x1="816.703" y1="533.255" x2="816.703" y2="501.255" style="stroke:#000000; stroke-width:1.6; stroke-opacity:1"/>
<line clip-path="url(#clip402)" x1="843.458" y1="533.255" x2="843.458" y2="501.255" style="stroke:#000000; stroke-width:1.6; stroke-opacity:1"/>
<line clip-path="url(#clip402)" x1="877.276" y1="533.255" x2="877.276" y2="501.255" style="stroke:#000000; stroke-width:1.6; stroke-opacity:1"/>
<line clip-path="url(#clip402)" x1="908.51" y1="533.255" x2="908.51" y2="501.255" style="stroke:#000000; stroke-width:1.6; stroke-opacity:1"/>
<line clip-path="url(#clip402)" x1="1012.12" y1="533.255" x2="1012.12" y2="501.255" style="stroke:#000000; stroke-width:1.6; stroke-opacity:1"/>
<line clip-path="url(#clip402)" x1="1039.6" y1="533.255" x2="1039.6" y2="501.255" style="stroke:#000000; stroke-width:1.6; stroke-opacity:1"/>
<line clip-path="url(#clip402)" x1="1116.73" y1="533.255" x2="1116.73" y2="501.255" style="stroke:#000000; stroke-width:1.6; stroke-opacity:1"/>
<line clip-path="url(#clip402)" x1="1116.75" y1="533.255" x2="1116.75" y2="501.255" style="stroke:#000000; stroke-width:1.6; stroke-opacity:1"/>
<line clip-path="url(#clip402)" x1="1174.33" y1="533.255" x2="1174.33" y2="501.255" style="stroke:#000000; stroke-width:1.6; stroke-opacity:1"/>
<line clip-path="url(#clip402)" x1="1414.93" y1="533.255" x2="1414.93" y2="501.255" style="stroke:#000000; stroke-width:1.6; stroke-opacity:1"/>
<line clip-path="url(#clip402)" x1="1451.76" y1="533.255" x2="1451.76" y2="501.255" style="stroke:#000000; stroke-width:1.6; stroke-opacity:1"/>
<line clip-path="url(#clip402)" x1="1496.11" y1="533.255" x2="1496.11" y2="501.255" style="stroke:#000000; stroke-width:1.6; stroke-opacity:1"/>
<line clip-path="url(#clip402)" x1="1679.53" y1="533.255" x2="1679.53" y2="501.255" style="stroke:#000000; stroke-width:1.6; stroke-opacity:1"/>
<line clip-path="url(#clip402)" x1="1718.45" y1="533.255" x2="1718.45" y2="501.255" style="stroke:#000000; stroke-width:1.6; stroke-opacity:1"/>
<line clip-path="url(#clip402)" x1="1727.45" y1="533.255" x2="1727.45" y2="501.255" style="stroke:#000000; stroke-width:1.6; stroke-opacity:1"/>
<line clip-path="url(#clip402)" x1="1796.68" y1="533.255" x2="1796.68" y2="501.255" style="stroke:#000000; stroke-width:1.6; stroke-opacity:1"/>
<line clip-path="url(#clip402)" x1="1856.8" y1="533.255" x2="1856.8" y2="501.255" style="stroke:#000000; stroke-width:1.6; stroke-opacity:1"/>
<line clip-path="url(#clip402)" x1="1878.03" y1="533.255" x2="1878.03" y2="501.255" style="stroke:#000000; stroke-width:1.6; stroke-opacity:1"/>
<line clip-path="url(#clip402)" x1="1882.96" y1="533.255" x2="1882.96" y2="501.255" style="stroke:#000000; stroke-width:1.6; stroke-opacity:1"/>
<line clip-path="url(#clip402)" x1="1891.37" y1="533.255" x2="1891.37" y2="501.255" style="stroke:#000000; stroke-width:1.6; stroke-opacity:1"/>
<line clip-path="url(#clip402)" x1="197.041" y1="468.604" x2="197.041" y2="436.604" style="stroke:#000000; stroke-width:1.6; stroke-opacity:1"/>
<line clip-path="url(#clip402)" x1="262.309" y1="468.604" x2="262.309" y2="436.604" style="stroke:#000000; stroke-width:1.6; stroke-opacity:1"/>
<line clip-path="url(#clip402)" x1="366.348" y1="468.604" x2="366.348" y2="436.604" style="stroke:#000000; stroke-width:1.6; stroke-opacity:1"/>
<line clip-path="url(#clip402)" x1="382.003" y1="468.604" x2="382.003" y2="436.604" style="stroke:#000000; stroke-width:1.6; stroke-opacity:1"/>
<line clip-path="url(#clip402)" x1="403.694" y1="468.604" x2="403.694" y2="436.604" style="stroke:#000000; stroke-width:1.6; stroke-opacity:1"/>
<line clip-path="url(#clip402)" x1="427.707" y1="468.604" x2="427.707" y2="436.604" style="stroke:#000000; stroke-width:1.6; stroke-opacity:1"/>
<line clip-path="url(#clip402)" x1="458.609" y1="468.604" x2="458.609" y2="436.604" style="stroke:#000000; stroke-width:1.6; stroke-opacity:1"/>
<line clip-path="url(#clip402)" x1="492.139" y1="468.604" x2="492.139" y2="436.604" style="stroke:#000000; stroke-width:1.6; stroke-opacity:1"/>
<line clip-path="url(#clip402)" x1="584.478" y1="468.604" x2="584.478" y2="436.604" style="stroke:#000000; stroke-width:1.6; stroke-opacity:1"/>
<line clip-path="url(#clip402)" x1="694.47" y1="468.604" x2="694.47" y2="436.604" style="stroke:#000000; stroke-width:1.6; stroke-opacity:1"/>
<line clip-path="url(#clip402)" x1="740.921" y1="468.604" x2="740.921" y2="436.604" style="stroke:#000000; stroke-width:1.6; stroke-opacity:1"/>
<line clip-path="url(#clip402)" x1="746.999" y1="468.604" x2="746.999" y2="436.604" style="stroke:#000000; stroke-width:1.6; stroke-opacity:1"/>
<line clip-path="url(#clip402)" x1="846.091" y1="468.604" x2="846.091" y2="436.604" style="stroke:#000000; stroke-width:1.6; stroke-opacity:1"/>
<line clip-path="url(#clip402)" x1="894.55" y1="468.604" x2="894.55" y2="436.604" style="stroke:#000000; stroke-width:1.6; stroke-opacity:1"/>
<line clip-path="url(#clip402)" x1="900.591" y1="468.604" x2="900.591" y2="436.604" style="stroke:#000000; stroke-width:1.6; stroke-opacity:1"/>
<line clip-path="url(#clip402)" x1="989.612" y1="468.604" x2="989.612" y2="436.604" style="stroke:#000000; stroke-width:1.6; stroke-opacity:1"/>
<line clip-path="url(#clip402)" x1="1099.6" y1="468.604" x2="1099.6" y2="436.604" style="stroke:#000000; stroke-width:1.6; stroke-opacity:1"/>
<line clip-path="url(#clip402)" x1="1129.78" y1="468.604" x2="1129.78" y2="436.604" style="stroke:#000000; stroke-width:1.6; stroke-opacity:1"/>
<line clip-path="url(#clip402)" x1="1143.41" y1="468.604" x2="1143.41" y2="436.604" style="stroke:#000000; stroke-width:1.6; stroke-opacity:1"/>
<line clip-path="url(#clip402)" x1="1182.2" y1="468.604" x2="1182.2" y2="436.604" style="stroke:#000000; stroke-width:1.6; stroke-opacity:1"/>
<line clip-path="url(#clip402)" x1="1221.79" y1="468.604" x2="1221.79" y2="436.604" style="stroke:#000000; stroke-width:1.6; stroke-opacity:1"/>
<line clip-path="url(#clip402)" x1="1256.78" y1="468.604" x2="1256.78" y2="436.604" style="stroke:#000000; stroke-width:1.6; stroke-opacity:1"/>
<line clip-path="url(#clip402)" x1="1272.13" y1="468.604" x2="1272.13" y2="436.604" style="stroke:#000000; stroke-width:1.6; stroke-opacity:1"/>
<line clip-path="url(#clip402)" x1="1420.93" y1="468.604" x2="1420.93" y2="436.604" style="stroke:#000000; stroke-width:1.6; stroke-opacity:1"/>
<line clip-path="url(#clip402)" x1="1606.01" y1="468.604" x2="1606.01" y2="436.604" style="stroke:#000000; stroke-width:1.6; stroke-opacity:1"/>
<line clip-path="url(#clip402)" x1="1608.31" y1="468.604" x2="1608.31" y2="436.604" style="stroke:#000000; stroke-width:1.6; stroke-opacity:1"/>
<line clip-path="url(#clip402)" x1="1678.47" y1="468.604" x2="1678.47" y2="436.604" style="stroke:#000000; stroke-width:1.6; stroke-opacity:1"/>
<line clip-path="url(#clip402)" x1="1692.34" y1="468.604" x2="1692.34" y2="436.604" style="stroke:#000000; stroke-width:1.6; stroke-opacity:1"/>
<line clip-path="url(#clip402)" x1="1698.95" y1="468.604" x2="1698.95" y2="436.604" style="stroke:#000000; stroke-width:1.6; stroke-opacity:1"/>
<line clip-path="url(#clip402)" x1="1729.06" y1="468.604" x2="1729.06" y2="436.604" style="stroke:#000000; stroke-width:1.6; stroke-opacity:1"/>
<line clip-path="url(#clip402)" x1="1935.02" y1="468.604" x2="1935.02" y2="436.604" style="stroke:#000000; stroke-width:1.6; stroke-opacity:1"/>
<line clip-path="url(#clip402)" x1="1939.84" y1="468.604" x2="1939.84" y2="436.604" style="stroke:#000000; stroke-width:1.6; stroke-opacity:1"/>
<line clip-path="url(#clip402)" x1="243.031" y1="403.953" x2="243.031" y2="371.953" style="stroke:#000000; stroke-width:1.6; stroke-opacity:1"/>
<line clip-path="url(#clip402)" x1="456.735" y1="403.953" x2="456.735" y2="371.953" style="stroke:#000000; stroke-width:1.6; stroke-opacity:1"/>
<line clip-path="url(#clip402)" x1="651.031" y1="403.953" x2="651.031" y2="371.953" style="stroke:#000000; stroke-width:1.6; stroke-opacity:1"/>
<line clip-path="url(#clip402)" x1="799.925" y1="403.953" x2="799.925" y2="371.953" style="stroke:#000000; stroke-width:1.6; stroke-opacity:1"/>
<line clip-path="url(#clip402)" x1="872.955" y1="403.953" x2="872.955" y2="371.953" style="stroke:#000000; stroke-width:1.6; stroke-opacity:1"/>
<line clip-path="url(#clip402)" x1="906.263" y1="403.953" x2="906.263" y2="371.953" style="stroke:#000000; stroke-width:1.6; stroke-opacity:1"/>
<line clip-path="url(#clip402)" x1="1019.67" y1="403.953" x2="1019.67" y2="371.953" style="stroke:#000000; stroke-width:1.6; stroke-opacity:1"/>
<line clip-path="url(#clip402)" x1="1050.12" y1="403.953" x2="1050.12" y2="371.953" style="stroke:#000000; stroke-width:1.6; stroke-opacity:1"/>
<line clip-path="url(#clip402)" x1="1052.69" y1="403.953" x2="1052.69" y2="371.953" style="stroke:#000000; stroke-width:1.6; stroke-opacity:1"/>
<line clip-path="url(#clip402)" x1="1086.42" y1="403.953" x2="1086.42" y2="371.953" style="stroke:#000000; stroke-width:1.6; stroke-opacity:1"/>
<line clip-path="url(#clip402)" x1="1123.12" y1="403.953" x2="1123.12" y2="371.953" style="stroke:#000000; stroke-width:1.6; stroke-opacity:1"/>
<line clip-path="url(#clip402)" x1="1151.73" y1="403.953" x2="1151.73" y2="371.953" style="stroke:#000000; stroke-width:1.6; stroke-opacity:1"/>
<line clip-path="url(#clip402)" x1="1186.17" y1="403.953" x2="1186.17" y2="371.953" style="stroke:#000000; stroke-width:1.6; stroke-opacity:1"/>
<line clip-path="url(#clip402)" x1="1331.17" y1="403.953" x2="1331.17" y2="371.953" style="stroke:#000000; stroke-width:1.6; stroke-opacity:1"/>
<line clip-path="url(#clip402)" x1="1458.17" y1="403.953" x2="1458.17" y2="371.953" style="stroke:#000000; stroke-width:1.6; stroke-opacity:1"/>
<line clip-path="url(#clip402)" x1="1497.41" y1="403.953" x2="1497.41" y2="371.953" style="stroke:#000000; stroke-width:1.6; stroke-opacity:1"/>
<line clip-path="url(#clip402)" x1="1529.86" y1="403.953" x2="1529.86" y2="371.953" style="stroke:#000000; stroke-width:1.6; stroke-opacity:1"/>
<line clip-path="url(#clip402)" x1="1532.51" y1="403.953" x2="1532.51" y2="371.953" style="stroke:#000000; stroke-width:1.6; stroke-opacity:1"/>
<line clip-path="url(#clip402)" x1="1557.57" y1="403.953" x2="1557.57" y2="371.953" style="stroke:#000000; stroke-width:1.6; stroke-opacity:1"/>
<line clip-path="url(#clip402)" x1="1733.71" y1="403.953" x2="1733.71" y2="371.953" style="stroke:#000000; stroke-width:1.6; stroke-opacity:1"/>
<line clip-path="url(#clip402)" x1="1806.43" y1="403.953" x2="1806.43" y2="371.953" style="stroke:#000000; stroke-width:1.6; stroke-opacity:1"/>
<line clip-path="url(#clip402)" x1="1944.08" y1="403.953" x2="1944.08" y2="371.953" style="stroke:#000000; stroke-width:1.6; stroke-opacity:1"/>
<line clip-path="url(#clip402)" x1="237.551" y1="339.303" x2="237.551" y2="307.303" style="stroke:#000000; stroke-width:1.6; stroke-opacity:1"/>
<line clip-path="url(#clip402)" x1="240.898" y1="339.303" x2="240.898" y2="307.303" style="stroke:#000000; stroke-width:1.6; stroke-opacity:1"/>
<line clip-path="url(#clip402)" x1="268.179" y1="339.303" x2="268.179" y2="307.303" style="stroke:#000000; stroke-width:1.6; stroke-opacity:1"/>
<line clip-path="url(#clip402)" x1="275.261" y1="339.303" x2="275.261" y2="307.303" style="stroke:#000000; stroke-width:1.6; stroke-opacity:1"/>
<line clip-path="url(#clip402)" x1="307.433" y1="339.303" x2="307.433" y2="307.303" style="stroke:#000000; stroke-width:1.6; stroke-opacity:1"/>
<line clip-path="url(#clip402)" x1="308.291" y1="339.303" x2="308.291" y2="307.303" style="stroke:#000000; stroke-width:1.6; stroke-opacity:1"/>
<line clip-path="url(#clip402)" x1="350.956" y1="339.303" x2="350.956" y2="307.303" style="stroke:#000000; stroke-width:1.6; stroke-opacity:1"/>
<line clip-path="url(#clip402)" x1="390.926" y1="339.303" x2="390.926" y2="307.303" style="stroke:#000000; stroke-width:1.6; stroke-opacity:1"/>
<line clip-path="url(#clip402)" x1="395.291" y1="339.303" x2="395.291" y2="307.303" style="stroke:#000000; stroke-width:1.6; stroke-opacity:1"/>
<line clip-path="url(#clip402)" x1="434.771" y1="339.303" x2="434.771" y2="307.303" style="stroke:#000000; stroke-width:1.6; stroke-opacity:1"/>
<line clip-path="url(#clip402)" x1="478.15" y1="339.303" x2="478.15" y2="307.303" style="stroke:#000000; stroke-width:1.6; stroke-opacity:1"/>
<line clip-path="url(#clip402)" x1="489.765" y1="339.303" x2="489.765" y2="307.303" style="stroke:#000000; stroke-width:1.6; stroke-opacity:1"/>
<line clip-path="url(#clip402)" x1="492.504" y1="339.303" x2="492.504" y2="307.303" style="stroke:#000000; stroke-width:1.6; stroke-opacity:1"/>
<line clip-path="url(#clip402)" x1="499.929" y1="339.303" x2="499.929" y2="307.303" style="stroke:#000000; stroke-width:1.6; stroke-opacity:1"/>
<line clip-path="url(#clip402)" x1="528.639" y1="339.303" x2="528.639" y2="307.303" style="stroke:#000000; stroke-width:1.6; stroke-opacity:1"/>
<line clip-path="url(#clip402)" x1="594.682" y1="339.303" x2="594.682" y2="307.303" style="stroke:#000000; stroke-width:1.6; stroke-opacity:1"/>
<line clip-path="url(#clip402)" x1="682.829" y1="339.303" x2="682.829" y2="307.303" style="stroke:#000000; stroke-width:1.6; stroke-opacity:1"/>
<line clip-path="url(#clip402)" x1="706.737" y1="339.303" x2="706.737" y2="307.303" style="stroke:#000000; stroke-width:1.6; stroke-opacity:1"/>
<line clip-path="url(#clip402)" x1="740.943" y1="339.303" x2="740.943" y2="307.303" style="stroke:#000000; stroke-width:1.6; stroke-opacity:1"/>
<line clip-path="url(#clip402)" x1="813.98" y1="339.303" x2="813.98" y2="307.303" style="stroke:#000000; stroke-width:1.6; stroke-opacity:1"/>
<line clip-path="url(#clip402)" x1="880.69" y1="339.303" x2="880.69" y2="307.303" style="stroke:#000000; stroke-width:1.6; stroke-opacity:1"/>
<line clip-path="url(#clip402)" x1="882.537" y1="339.303" x2="882.537" y2="307.303" style="stroke:#000000; stroke-width:1.6; stroke-opacity:1"/>
<line clip-path="url(#clip402)" x1="911.566" y1="339.303" x2="911.566" y2="307.303" style="stroke:#000000; stroke-width:1.6; stroke-opacity:1"/>
<line clip-path="url(#clip402)" x1="933.397" y1="339.303" x2="933.397" y2="307.303" style="stroke:#000000; stroke-width:1.6; stroke-opacity:1"/>
<line clip-path="url(#clip402)" x1="1104.96" y1="339.303" x2="1104.96" y2="307.303" style="stroke:#000000; stroke-width:1.6; stroke-opacity:1"/>
<line clip-path="url(#clip402)" x1="1289.52" y1="339.303" x2="1289.52" y2="307.303" style="stroke:#000000; stroke-width:1.6; stroke-opacity:1"/>
<line clip-path="url(#clip402)" x1="1540.33" y1="339.303" x2="1540.33" y2="307.303" style="stroke:#000000; stroke-width:1.6; stroke-opacity:1"/>
<line clip-path="url(#clip402)" x1="1580.82" y1="339.303" x2="1580.82" y2="307.303" style="stroke:#000000; stroke-width:1.6; stroke-opacity:1"/>
<line clip-path="url(#clip402)" x1="1612.74" y1="339.303" x2="1612.74" y2="307.303" style="stroke:#000000; stroke-width:1.6; stroke-opacity:1"/>
<line clip-path="url(#clip402)" x1="1671" y1="339.303" x2="1671" y2="307.303" style="stroke:#000000; stroke-width:1.6; stroke-opacity:1"/>
<line clip-path="url(#clip402)" x1="1728.31" y1="339.303" x2="1728.31" y2="307.303" style="stroke:#000000; stroke-width:1.6; stroke-opacity:1"/>
<line clip-path="url(#clip402)" x1="1880.1" y1="339.303" x2="1880.1" y2="307.303" style="stroke:#000000; stroke-width:1.6; stroke-opacity:1"/>
<line clip-path="url(#clip402)" x1="1925.73" y1="339.303" x2="1925.73" y2="307.303" style="stroke:#000000; stroke-width:1.6; stroke-opacity:1"/>
<line clip-path="url(#clip402)" x1="1931.98" y1="339.303" x2="1931.98" y2="307.303" style="stroke:#000000; stroke-width:1.6; stroke-opacity:1"/>
<line clip-path="url(#clip402)" x1="1947.69" y1="339.303" x2="1947.69" y2="307.303" style="stroke:#000000; stroke-width:1.6; stroke-opacity:1"/>
<line clip-path="url(#clip402)" x1="197.894" y1="274.652" x2="197.894" y2="242.652" style="stroke:#000000; stroke-width:1.6; stroke-opacity:1"/>
<line clip-path="url(#clip402)" x1="202.455" y1="274.652" x2="202.455" y2="242.652" style="stroke:#000000; stroke-width:1.6; stroke-opacity:1"/>
<line clip-path="url(#clip402)" x1="208.849" y1="274.652" x2="208.849" y2="242.652" style="stroke:#000000; stroke-width:1.6; stroke-opacity:1"/>
<line clip-path="url(#clip402)" x1="262.156" y1="274.652" x2="262.156" y2="242.652" style="stroke:#000000; stroke-width:1.6; stroke-opacity:1"/>
<line clip-path="url(#clip402)" x1="278.419" y1="274.652" x2="278.419" y2="242.652" style="stroke:#000000; stroke-width:1.6; stroke-opacity:1"/>
<line clip-path="url(#clip402)" x1="403.699" y1="274.652" x2="403.699" y2="242.652" style="stroke:#000000; stroke-width:1.6; stroke-opacity:1"/>
<line clip-path="url(#clip402)" x1="491.537" y1="274.652" x2="491.537" y2="242.652" style="stroke:#000000; stroke-width:1.6; stroke-opacity:1"/>
<line clip-path="url(#clip402)" x1="546.662" y1="274.652" x2="546.662" y2="242.652" style="stroke:#000000; stroke-width:1.6; stroke-opacity:1"/>
<line clip-path="url(#clip402)" x1="613.52" y1="274.652" x2="613.52" y2="242.652" style="stroke:#000000; stroke-width:1.6; stroke-opacity:1"/>
<line clip-path="url(#clip402)" x1="621.455" y1="274.652" x2="621.455" y2="242.652" style="stroke:#000000; stroke-width:1.6; stroke-opacity:1"/>
<line clip-path="url(#clip402)" x1="775.85" y1="274.652" x2="775.85" y2="242.652" style="stroke:#000000; stroke-width:1.6; stroke-opacity:1"/>
<line clip-path="url(#clip402)" x1="836.722" y1="274.652" x2="836.722" y2="242.652" style="stroke:#000000; stroke-width:1.6; stroke-opacity:1"/>
<line clip-path="url(#clip402)" x1="845.767" y1="274.652" x2="845.767" y2="242.652" style="stroke:#000000; stroke-width:1.6; stroke-opacity:1"/>
<line clip-path="url(#clip402)" x1="884.74" y1="274.652" x2="884.74" y2="242.652" style="stroke:#000000; stroke-width:1.6; stroke-opacity:1"/>
<line clip-path="url(#clip402)" x1="899.917" y1="274.652" x2="899.917" y2="242.652" style="stroke:#000000; stroke-width:1.6; stroke-opacity:1"/>
<line clip-path="url(#clip402)" x1="901.693" y1="274.652" x2="901.693" y2="242.652" style="stroke:#000000; stroke-width:1.6; stroke-opacity:1"/>
<line clip-path="url(#clip402)" x1="945.127" y1="274.652" x2="945.127" y2="242.652" style="stroke:#000000; stroke-width:1.6; stroke-opacity:1"/>
<line clip-path="url(#clip402)" x1="1032.85" y1="274.652" x2="1032.85" y2="242.652" style="stroke:#000000; stroke-width:1.6; stroke-opacity:1"/>
<line clip-path="url(#clip402)" x1="1066.83" y1="274.652" x2="1066.83" y2="242.652" style="stroke:#000000; stroke-width:1.6; stroke-opacity:1"/>
<line clip-path="url(#clip402)" x1="1117.44" y1="274.652" x2="1117.44" y2="242.652" style="stroke:#000000; stroke-width:1.6; stroke-opacity:1"/>
<line clip-path="url(#clip402)" x1="1386.78" y1="274.652" x2="1386.78" y2="242.652" style="stroke:#000000; stroke-width:1.6; stroke-opacity:1"/>
<line clip-path="url(#clip402)" x1="1786.69" y1="274.652" x2="1786.69" y2="242.652" style="stroke:#000000; stroke-width:1.6; stroke-opacity:1"/>
<line clip-path="url(#clip402)" x1="1798.2" y1="274.652" x2="1798.2" y2="242.652" style="stroke:#000000; stroke-width:1.6; stroke-opacity:1"/>
<line clip-path="url(#clip402)" x1="1862.57" y1="274.652" x2="1862.57" y2="242.652" style="stroke:#000000; stroke-width:1.6; stroke-opacity:1"/>
<line clip-path="url(#clip402)" x1="1886.63" y1="274.652" x2="1886.63" y2="242.652" style="stroke:#000000; stroke-width:1.6; stroke-opacity:1"/>
<line clip-path="url(#clip402)" x1="1899.46" y1="274.652" x2="1899.46" y2="242.652" style="stroke:#000000; stroke-width:1.6; stroke-opacity:1"/>
<line clip-path="url(#clip402)" x1="1916.48" y1="274.652" x2="1916.48" y2="242.652" style="stroke:#000000; stroke-width:1.6; stroke-opacity:1"/>
<line clip-path="url(#clip402)" x1="202.548" y1="210.001" x2="202.548" y2="178.001" style="stroke:#000000; stroke-width:1.6; stroke-opacity:1"/>
<line clip-path="url(#clip402)" x1="358.211" y1="210.001" x2="358.211" y2="178.001" style="stroke:#000000; stroke-width:1.6; stroke-opacity:1"/>
<line clip-path="url(#clip402)" x1="529.334" y1="210.001" x2="529.334" y2="178.001" style="stroke:#000000; stroke-width:1.6; stroke-opacity:1"/>
<line clip-path="url(#clip402)" x1="589.537" y1="210.001" x2="589.537" y2="178.001" style="stroke:#000000; stroke-width:1.6; stroke-opacity:1"/>
<line clip-path="url(#clip402)" x1="604.805" y1="210.001" x2="604.805" y2="178.001" style="stroke:#000000; stroke-width:1.6; stroke-opacity:1"/>
<line clip-path="url(#clip402)" x1="679.774" y1="210.001" x2="679.774" y2="178.001" style="stroke:#000000; stroke-width:1.6; stroke-opacity:1"/>
<line clip-path="url(#clip402)" x1="701.42" y1="210.001" x2="701.42" y2="178.001" style="stroke:#000000; stroke-width:1.6; stroke-opacity:1"/>
<line clip-path="url(#clip402)" x1="710.612" y1="210.001" x2="710.612" y2="178.001" style="stroke:#000000; stroke-width:1.6; stroke-opacity:1"/>
<line clip-path="url(#clip402)" x1="752.756" y1="210.001" x2="752.756" y2="178.001" style="stroke:#000000; stroke-width:1.6; stroke-opacity:1"/>
<line clip-path="url(#clip402)" x1="774.783" y1="210.001" x2="774.783" y2="178.001" style="stroke:#000000; stroke-width:1.6; stroke-opacity:1"/>
<line clip-path="url(#clip402)" x1="876.228" y1="210.001" x2="876.228" y2="178.001" style="stroke:#000000; stroke-width:1.6; stroke-opacity:1"/>
<line clip-path="url(#clip402)" x1="916.252" y1="210.001" x2="916.252" y2="178.001" style="stroke:#000000; stroke-width:1.6; stroke-opacity:1"/>
<line clip-path="url(#clip402)" x1="1018.88" y1="210.001" x2="1018.88" y2="178.001" style="stroke:#000000; stroke-width:1.6; stroke-opacity:1"/>
<line clip-path="url(#clip402)" x1="1095.97" y1="210.001" x2="1095.97" y2="178.001" style="stroke:#000000; stroke-width:1.6; stroke-opacity:1"/>
<line clip-path="url(#clip402)" x1="1145.31" y1="210.001" x2="1145.31" y2="178.001" style="stroke:#000000; stroke-width:1.6; stroke-opacity:1"/>
<line clip-path="url(#clip402)" x1="1178.14" y1="210.001" x2="1178.14" y2="178.001" style="stroke:#000000; stroke-width:1.6; stroke-opacity:1"/>
<line clip-path="url(#clip402)" x1="1225.38" y1="210.001" x2="1225.38" y2="178.001" style="stroke:#000000; stroke-width:1.6; stroke-opacity:1"/>
<line clip-path="url(#clip402)" x1="1355.08" y1="210.001" x2="1355.08" y2="178.001" style="stroke:#000000; stroke-width:1.6; stroke-opacity:1"/>
<line clip-path="url(#clip402)" x1="1394.16" y1="210.001" x2="1394.16" y2="178.001" style="stroke:#000000; stroke-width:1.6; stroke-opacity:1"/>
<line clip-path="url(#clip402)" x1="1406.48" y1="210.001" x2="1406.48" y2="178.001" style="stroke:#000000; stroke-width:1.6; stroke-opacity:1"/>
<line clip-path="url(#clip402)" x1="1410.76" y1="210.001" x2="1410.76" y2="178.001" style="stroke:#000000; stroke-width:1.6; stroke-opacity:1"/>
<line clip-path="url(#clip402)" x1="1417.8" y1="210.001" x2="1417.8" y2="178.001" style="stroke:#000000; stroke-width:1.6; stroke-opacity:1"/>
<line clip-path="url(#clip402)" x1="1468.05" y1="210.001" x2="1468.05" y2="178.001" style="stroke:#000000; stroke-width:1.6; stroke-opacity:1"/>
<line clip-path="url(#clip402)" x1="1475.65" y1="210.001" x2="1475.65" y2="178.001" style="stroke:#000000; stroke-width:1.6; stroke-opacity:1"/>
<line clip-path="url(#clip402)" x1="1546.16" y1="210.001" x2="1546.16" y2="178.001" style="stroke:#000000; stroke-width:1.6; stroke-opacity:1"/>
<line clip-path="url(#clip402)" x1="1563.05" y1="210.001" x2="1563.05" y2="178.001" style="stroke:#000000; stroke-width:1.6; stroke-opacity:1"/>
<line clip-path="url(#clip402)" x1="1712.04" y1="210.001" x2="1712.04" y2="178.001" style="stroke:#000000; stroke-width:1.6; stroke-opacity:1"/>
<line clip-path="url(#clip402)" x1="1729.42" y1="210.001" x2="1729.42" y2="178.001" style="stroke:#000000; stroke-width:1.6; stroke-opacity:1"/>
<line clip-path="url(#clip402)" x1="1798.86" y1="210.001" x2="1798.86" y2="178.001" style="stroke:#000000; stroke-width:1.6; stroke-opacity:1"/>
<line clip-path="url(#clip402)" x1="1804.27" y1="210.001" x2="1804.27" y2="178.001" style="stroke:#000000; stroke-width:1.6; stroke-opacity:1"/>
<line clip-path="url(#clip402)" x1="1842.94" y1="210.001" x2="1842.94" y2="178.001" style="stroke:#000000; stroke-width:1.6; stroke-opacity:1"/>
<line clip-path="url(#clip402)" x1="1881.72" y1="210.001" x2="1881.72" y2="178.001" style="stroke:#000000; stroke-width:1.6; stroke-opacity:1"/>
<line clip-path="url(#clip402)" x1="1911.27" y1="210.001" x2="1911.27" y2="178.001" style="stroke:#000000; stroke-width:1.6; stroke-opacity:1"/>
<line clip-path="url(#clip402)" x1="256.895" y1="145.35" x2="256.895" y2="113.35" style="stroke:#000000; stroke-width:1.6; stroke-opacity:1"/>
<line clip-path="url(#clip402)" x1="470.555" y1="145.35" x2="470.555" y2="113.35" style="stroke:#000000; stroke-width:1.6; stroke-opacity:1"/>
<line clip-path="url(#clip402)" x1="500.209" y1="145.35" x2="500.209" y2="113.35" style="stroke:#000000; stroke-width:1.6; stroke-opacity:1"/>
<line clip-path="url(#clip402)" x1="629.47" y1="145.35" x2="629.47" y2="113.35" style="stroke:#000000; stroke-width:1.6; stroke-opacity:1"/>
<line clip-path="url(#clip402)" x1="793.861" y1="145.35" x2="793.861" y2="113.35" style="stroke:#000000; stroke-width:1.6; stroke-opacity:1"/>
<line clip-path="url(#clip402)" x1="829.704" y1="145.35" x2="829.704" y2="113.35" style="stroke:#000000; stroke-width:1.6; stroke-opacity:1"/>
<line clip-path="url(#clip402)" x1="852.35" y1="145.35" x2="852.35" y2="113.35" style="stroke:#000000; stroke-width:1.6; stroke-opacity:1"/>
<line clip-path="url(#clip402)" x1="902.339" y1="145.35" x2="902.339" y2="113.35" style="stroke:#000000; stroke-width:1.6; stroke-opacity:1"/>
<line clip-path="url(#clip402)" x1="985.26" y1="145.35" x2="985.26" y2="113.35" style="stroke:#000000; stroke-width:1.6; stroke-opacity:1"/>
<line clip-path="url(#clip402)" x1="1092.74" y1="145.35" x2="1092.74" y2="113.35" style="stroke:#000000; stroke-width:1.6; stroke-opacity:1"/>
<line clip-path="url(#clip402)" x1="1119.37" y1="145.35" x2="1119.37" y2="113.35" style="stroke:#000000; stroke-width:1.6; stroke-opacity:1"/>
<line clip-path="url(#clip402)" x1="1209.94" y1="145.35" x2="1209.94" y2="113.35" style="stroke:#000000; stroke-width:1.6; stroke-opacity:1"/>
<line clip-path="url(#clip402)" x1="1259.86" y1="145.35" x2="1259.86" y2="113.35" style="stroke:#000000; stroke-width:1.6; stroke-opacity:1"/>
<line clip-path="url(#clip402)" x1="1415.17" y1="145.35" x2="1415.17" y2="113.35" style="stroke:#000000; stroke-width:1.6; stroke-opacity:1"/>
<line clip-path="url(#clip402)" x1="1514.67" y1="145.35" x2="1514.67" y2="113.35" style="stroke:#000000; stroke-width:1.6; stroke-opacity:1"/>
<line clip-path="url(#clip402)" x1="1585.76" y1="145.35" x2="1585.76" y2="113.35" style="stroke:#000000; stroke-width:1.6; stroke-opacity:1"/>
<line clip-path="url(#clip402)" x1="1602.43" y1="145.35" x2="1602.43" y2="113.35" style="stroke:#000000; stroke-width:1.6; stroke-opacity:1"/>
<line clip-path="url(#clip402)" x1="1612.35" y1="145.35" x2="1612.35" y2="113.35" style="stroke:#000000; stroke-width:1.6; stroke-opacity:1"/>
<line clip-path="url(#clip402)" x1="1873.38" y1="145.35" x2="1873.38" y2="113.35" style="stroke:#000000; stroke-width:1.6; stroke-opacity:1"/>
<line clip-path="url(#clip402)" x1="461.702" y1="80.6998" x2="461.702" y2="48.6998" style="stroke:#000000; stroke-width:1.6; stroke-opacity:1"/>
<line clip-path="url(#clip402)" x1="476.22" y1="80.6998" x2="476.22" y2="48.6998" style="stroke:#000000; stroke-width:1.6; stroke-opacity:1"/>
<line clip-path="url(#clip402)" x1="500.337" y1="80.6998" x2="500.337" y2="48.6998" style="stroke:#000000; stroke-width:1.6; stroke-opacity:1"/>
<line clip-path="url(#clip402)" x1="531.614" y1="80.6998" x2="531.614" y2="48.6998" style="stroke:#000000; stroke-width:1.6; stroke-opacity:1"/>
<line clip-path="url(#clip402)" x1="534.664" y1="80.6998" x2="534.664" y2="48.6998" style="stroke:#000000; stroke-width:1.6; stroke-opacity:1"/>
<line clip-path="url(#clip402)" x1="539.365" y1="80.6998" x2="539.365" y2="48.6998" style="stroke:#000000; stroke-width:1.6; stroke-opacity:1"/>
<line clip-path="url(#clip402)" x1="548.936" y1="80.6998" x2="548.936" y2="48.6998" style="stroke:#000000; stroke-width:1.6; stroke-opacity:1"/>
<line clip-path="url(#clip402)" x1="550.228" y1="80.6998" x2="550.228" y2="48.6998" style="stroke:#000000; stroke-width:1.6; stroke-opacity:1"/>
<line clip-path="url(#clip402)" x1="557.491" y1="80.6998" x2="557.491" y2="48.6998" style="stroke:#000000; stroke-width:1.6; stroke-opacity:1"/>
<line clip-path="url(#clip402)" x1="559.579" y1="80.6998" x2="559.579" y2="48.6998" style="stroke:#000000; stroke-width:1.6; stroke-opacity:1"/>
<line clip-path="url(#clip402)" x1="575.245" y1="80.6998" x2="575.245" y2="48.6998" style="stroke:#000000; stroke-width:1.6; stroke-opacity:1"/>
<line clip-path="url(#clip402)" x1="662.565" y1="80.6998" x2="662.565" y2="48.6998" style="stroke:#000000; stroke-width:1.6; stroke-opacity:1"/>
<line clip-path="url(#clip402)" x1="696.094" y1="80.6998" x2="696.094" y2="48.6998" style="stroke:#000000; stroke-width:1.6; stroke-opacity:1"/>
<line clip-path="url(#clip402)" x1="709.344" y1="80.6998" x2="709.344" y2="48.6998" style="stroke:#000000; stroke-width:1.6; stroke-opacity:1"/>
<line clip-path="url(#clip402)" x1="754.994" y1="80.6998" x2="754.994" y2="48.6998" style="stroke:#000000; stroke-width:1.6; stroke-opacity:1"/>
<line clip-path="url(#clip402)" x1="860.187" y1="80.6998" x2="860.187" y2="48.6998" style="stroke:#000000; stroke-width:1.6; stroke-opacity:1"/>
<line clip-path="url(#clip402)" x1="910.621" y1="80.6998" x2="910.621" y2="48.6998" style="stroke:#000000; stroke-width:1.6; stroke-opacity:1"/>
<line clip-path="url(#clip402)" x1="916.886" y1="80.6998" x2="916.886" y2="48.6998" style="stroke:#000000; stroke-width:1.6; stroke-opacity:1"/>
<line clip-path="url(#clip402)" x1="994.942" y1="80.6998" x2="994.942" y2="48.6998" style="stroke:#000000; stroke-width:1.6; stroke-opacity:1"/>
<line clip-path="url(#clip402)" x1="1082.42" y1="80.6998" x2="1082.42" y2="48.6998" style="stroke:#000000; stroke-width:1.6; stroke-opacity:1"/>
<line clip-path="url(#clip402)" x1="1157.49" y1="80.6998" x2="1157.49" y2="48.6998" style="stroke:#000000; stroke-width:1.6; stroke-opacity:1"/>
<line clip-path="url(#clip402)" x1="1326.1" y1="80.6998" x2="1326.1" y2="48.6998" style="stroke:#000000; stroke-width:1.6; stroke-opacity:1"/>
<line clip-path="url(#clip402)" x1="1351.8" y1="80.6998" x2="1351.8" y2="48.6998" style="stroke:#000000; stroke-width:1.6; stroke-opacity:1"/>
<line clip-path="url(#clip402)" x1="1382.44" y1="80.6998" x2="1382.44" y2="48.6998" style="stroke:#000000; stroke-width:1.6; stroke-opacity:1"/>
<line clip-path="url(#clip402)" x1="1410.41" y1="80.6998" x2="1410.41" y2="48.6998" style="stroke:#000000; stroke-width:1.6; stroke-opacity:1"/>
<line clip-path="url(#clip402)" x1="1469.24" y1="80.6998" x2="1469.24" y2="48.6998" style="stroke:#000000; stroke-width:1.6; stroke-opacity:1"/>
<line clip-path="url(#clip402)" x1="1567.97" y1="80.6998" x2="1567.97" y2="48.6998" style="stroke:#000000; stroke-width:1.6; stroke-opacity:1"/>
<line clip-path="url(#clip402)" x1="1622.45" y1="80.6998" x2="1622.45" y2="48.6998" style="stroke:#000000; stroke-width:1.6; stroke-opacity:1"/>
<line clip-path="url(#clip402)" x1="1663.46" y1="80.6998" x2="1663.46" y2="48.6998" style="stroke:#000000; stroke-width:1.6; stroke-opacity:1"/>
<line clip-path="url(#clip402)" x1="1691.42" y1="80.6998" x2="1691.42" y2="48.6998" style="stroke:#000000; stroke-width:1.6; stroke-opacity:1"/>
<line clip-path="url(#clip402)" x1="1722.83" y1="80.6998" x2="1722.83" y2="48.6998" style="stroke:#000000; stroke-width:1.6; stroke-opacity:1"/>
<line clip-path="url(#clip402)" x1="1807.18" y1="80.6998" x2="1807.18" y2="48.6998" style="stroke:#000000; stroke-width:1.6; stroke-opacity:1"/>
<line clip-path="url(#clip402)" x1="1930.68" y1="80.6998" x2="1930.68" y2="48.6998" style="stroke:#000000; stroke-width:1.6; stroke-opacity:1"/>
<line clip-path="url(#clip402)" x1="1933.91" y1="80.6998" x2="1933.91" y2="48.6998" style="stroke:#000000; stroke-width:1.6; stroke-opacity:1"/>
<line clip-path="url(#clip402)" x1="1952.69" y1="80.6998" x2="1952.69" y2="48.6998" style="stroke:#000000; stroke-width:1.6; stroke-opacity:1"/>
</svg>
