<?xml version="1.0" encoding="utf-8"?>
<svg xmlns="http://www.w3.org/2000/svg" xmlns:xlink="http://www.w3.org/1999/xlink" width="500" height="200" viewBox="0 0 2000 800">
<defs>
  <clipPath id="clip680">
    <rect x="0" y="0" width="2000" height="800"/>
  </clipPath>
</defs>
<path clip-path="url(#clip680)" d="
M0 800 L2000 800 L2000 0 L0 0  Z
  " fill="#ffffff" fill-rule="evenodd" fill-opacity="1"/>
<defs>
  <clipPath id="clip681">
    <rect x="400" y="0" width="1401" height="800"/>
  </clipPath>
</defs>
<path clip-path="url(#clip680)" d="
M174.844 664.012 L1952.76 664.012 L1952.76 47.2441 L174.844 47.2441  Z
  " fill="#ffffff" fill-rule="evenodd" fill-opacity="1"/>
<defs>
  <clipPath id="clip682">
    <rect x="174" y="47" width="1779" height="618"/>
  </clipPath>
</defs>
<polyline clip-path="url(#clip682)" style="stroke:#000000; stroke-width:2; stroke-opacity:0.1; fill:none" points="
  218.386,664.012 218.386,47.2441 
  "/>
<polyline clip-path="url(#clip682)" style="stroke:#000000; stroke-width:2; stroke-opacity:0.1; fill:none" points="
  641.94,664.012 641.94,47.2441 
  "/>
<polyline clip-path="url(#clip682)" style="stroke:#000000; stroke-width:2; stroke-opacity:0.1; fill:none" points="
  1065.49,664.012 1065.49,47.2441 
  "/>
<polyline clip-path="url(#clip682)" style="stroke:#000000; stroke-width:2; stroke-opacity:0.1; fill:none" points="
  1489.05,664.012 1489.05,47.2441 
  "/>
<polyline clip-path="url(#clip682)" style="stroke:#000000; stroke-width:2; stroke-opacity:0.1; fill:none" points="
  1912.6,664.012 1912.6,47.2441 
  "/>
<polyline clip-path="url(#clip680)" style="stroke:#000000; stroke-width:4; stroke-opacity:1; fill:none" points="
  174.844,664.012 1952.76,664.012 
  "/>
<polyline clip-path="url(#clip680)" style="stroke:#000000; stroke-width:4; stroke-opacity:1; fill:none" points="
  218.386,664.012 218.386,656.611 
  "/>
<polyline clip-path="url(#clip680)" style="stroke:#000000; stroke-width:4; stroke-opacity:1; fill:none" points="
  641.94,664.012 641.94,656.611 
  "/>
<polyline clip-path="url(#clip680)" style="stroke:#000000; stroke-width:4; stroke-opacity:1; fill:none" points="
  1065.49,664.012 1065.49,656.611 
  "/>
<polyline clip-path="url(#clip680)" style="stroke:#000000; stroke-width:4; stroke-opacity:1; fill:none" points="
  1489.05,664.012 1489.05,656.611 
  "/>
<polyline clip-path="url(#clip680)" style="stroke:#000000; stroke-width:4; stroke-opacity:1; fill:none" points="
  1912.6,664.012 1912.6,656.611 
  "/>
<path clip-path="url(#clip680)" d="M 0 0 M218.386 690.003 Q214.775 690.003 212.946 693.567 Q211.141 697.109 211.141 704.239 Q211.141 711.345 212.946 714.91 Q214.775 718.451 218.386 718.451 Q222.02 718.451 223.826 714.91 Q225.654 711.345 225.654 704.239 Q225.654 697.109 223.826 693.567 Q222.02 690.003 218.386 690.003 M218.386 686.299 Q224.196 686.299 227.252 690.905 Q230.33 695.489 230.33 704.239 Q230.33 712.965 227.252 717.572 Q224.196 722.155 218.386 722.155 Q212.576 722.155 209.497 717.572 Q206.441 712.965 206.441 704.239 Q206.441 695.489 209.497 690.905 Q212.576 686.299 218.386 686.299 Z" fill="#000000" fill-rule="evenodd" fill-opacity="1" /><path clip-path="url(#clip680)" d="M 0 0 M610.077 717.549 L626.396 717.549 L626.396 721.484 L604.452 721.484 L604.452 717.549 Q607.114 714.794 611.697 710.164 Q616.304 705.512 617.484 704.169 Q619.73 701.646 620.609 699.91 Q621.512 698.151 621.512 696.461 Q621.512 693.706 619.568 691.97 Q617.646 690.234 614.544 690.234 Q612.345 690.234 609.892 690.998 Q607.461 691.762 604.683 693.313 L604.683 688.591 Q607.507 687.456 609.961 686.878 Q612.415 686.299 614.452 686.299 Q619.822 686.299 623.017 688.984 Q626.211 691.669 626.211 696.16 Q626.211 698.29 625.401 700.211 Q624.614 702.109 622.507 704.702 Q621.929 705.373 618.827 708.59 Q615.725 711.785 610.077 717.549 Z" fill="#000000" fill-rule="evenodd" fill-opacity="1" /><path clip-path="url(#clip680)" d="M 0 0 M631.512 686.924 L649.868 686.924 L649.868 690.859 L635.794 690.859 L635.794 699.331 Q636.813 698.984 637.831 698.822 Q638.85 698.637 639.868 698.637 Q645.655 698.637 649.035 701.808 Q652.415 704.979 652.415 710.396 Q652.415 715.975 648.942 719.076 Q645.47 722.155 639.151 722.155 Q636.975 722.155 634.706 721.785 Q632.461 721.414 630.054 720.674 L630.054 715.975 Q632.137 717.109 634.359 717.664 Q636.581 718.22 639.058 718.22 Q643.063 718.22 645.401 716.114 Q647.739 714.007 647.739 710.396 Q647.739 706.785 645.401 704.678 Q643.063 702.572 639.058 702.572 Q637.183 702.572 635.308 702.989 Q633.456 703.405 631.512 704.285 L631.512 686.924 Z" fill="#000000" fill-rule="evenodd" fill-opacity="1" /><path clip-path="url(#clip680)" d="M 0 0 M667.484 690.003 Q663.873 690.003 662.044 693.567 Q660.239 697.109 660.239 704.239 Q660.239 711.345 662.044 714.91 Q663.873 718.451 667.484 718.451 Q671.118 718.451 672.924 714.91 Q674.752 711.345 674.752 704.239 Q674.752 697.109 672.924 693.567 Q671.118 690.003 667.484 690.003 M667.484 686.299 Q673.294 686.299 676.35 690.905 Q679.428 695.489 679.428 704.239 Q679.428 712.965 676.35 717.572 Q673.294 722.155 667.484 722.155 Q661.674 722.155 658.595 717.572 Q655.54 712.965 655.54 704.239 Q655.54 695.489 658.595 690.905 Q661.674 686.299 667.484 686.299 Z" fill="#000000" fill-rule="evenodd" fill-opacity="1" /><path clip-path="url(#clip680)" d="M 0 0 M1028.76 686.924 L1047.11 686.924 L1047.11 690.859 L1033.04 690.859 L1033.04 699.331 Q1034.06 698.984 1035.08 698.822 Q1036.1 698.637 1037.11 698.637 Q1042.9 698.637 1046.28 701.808 Q1049.66 704.979 1049.66 710.396 Q1049.66 715.975 1046.19 719.076 Q1042.72 722.155 1036.4 722.155 Q1034.22 722.155 1031.95 721.785 Q1029.71 721.414 1027.3 720.674 L1027.3 715.975 Q1029.38 717.109 1031.61 717.664 Q1033.83 718.22 1036.3 718.22 Q1040.31 718.22 1042.65 716.114 Q1044.99 714.007 1044.99 710.396 Q1044.99 706.785 1042.65 704.678 Q1040.31 702.572 1036.3 702.572 Q1034.43 702.572 1032.55 702.989 Q1030.7 703.405 1028.76 704.285 L1028.76 686.924 Z" fill="#000000" fill-rule="evenodd" fill-opacity="1" /><path clip-path="url(#clip680)" d="M 0 0 M1064.73 690.003 Q1061.12 690.003 1059.29 693.567 Q1057.49 697.109 1057.49 704.239 Q1057.49 711.345 1059.29 714.91 Q1061.12 718.451 1064.73 718.451 Q1068.36 718.451 1070.17 714.91 Q1072 711.345 1072 704.239 Q1072 697.109 1070.17 693.567 Q1068.36 690.003 1064.73 690.003 M1064.73 686.299 Q1070.54 686.299 1073.6 690.905 Q1076.67 695.489 1076.67 704.239 Q1076.67 712.965 1073.6 717.572 Q1070.54 722.155 1064.73 722.155 Q1058.92 722.155 1055.84 717.572 Q1052.79 712.965 1052.79 704.239 Q1052.79 695.489 1055.84 690.905 Q1058.92 686.299 1064.73 686.299 Z" fill="#000000" fill-rule="evenodd" fill-opacity="1" /><path clip-path="url(#clip680)" d="M 0 0 M1091.74 690.003 Q1088.13 690.003 1086.3 693.567 Q1084.5 697.109 1084.5 704.239 Q1084.5 711.345 1086.3 714.91 Q1088.13 718.451 1091.74 718.451 Q1095.38 718.451 1097.18 714.91 Q1099.01 711.345 1099.01 704.239 Q1099.01 697.109 1097.18 693.567 Q1095.38 690.003 1091.74 690.003 M1091.74 686.299 Q1097.55 686.299 1100.61 690.905 Q1103.69 695.489 1103.69 704.239 Q1103.69 712.965 1100.61 717.572 Q1097.55 722.155 1091.74 722.155 Q1085.93 722.155 1082.86 717.572 Q1079.8 712.965 1079.8 704.239 Q1079.8 695.489 1082.86 690.905 Q1085.93 686.299 1091.74 686.299 Z" fill="#000000" fill-rule="evenodd" fill-opacity="1" /><path clip-path="url(#clip680)" d="M 0 0 M1451.42 686.924 L1473.64 686.924 L1473.64 688.915 L1461.1 721.484 L1456.21 721.484 L1468.02 690.859 L1451.42 690.859 L1451.42 686.924 Z" fill="#000000" fill-rule="evenodd" fill-opacity="1" /><path clip-path="url(#clip680)" d="M 0 0 M1478.76 686.924 L1497.12 686.924 L1497.12 690.859 L1483.04 690.859 L1483.04 699.331 Q1484.06 698.984 1485.08 698.822 Q1486.1 698.637 1487.12 698.637 Q1492.9 698.637 1496.28 701.808 Q1499.66 704.979 1499.66 710.396 Q1499.66 715.975 1496.19 719.076 Q1492.72 722.155 1486.4 722.155 Q1484.22 722.155 1481.95 721.785 Q1479.71 721.414 1477.3 720.674 L1477.3 715.975 Q1479.38 717.109 1481.61 717.664 Q1483.83 718.22 1486.31 718.22 Q1490.31 718.22 1492.65 716.114 Q1494.99 714.007 1494.99 710.396 Q1494.99 706.785 1492.65 704.678 Q1490.31 702.572 1486.31 702.572 Q1484.43 702.572 1482.56 702.989 Q1480.7 703.405 1478.76 704.285 L1478.76 686.924 Z" fill="#000000" fill-rule="evenodd" fill-opacity="1" /><path clip-path="url(#clip680)" d="M 0 0 M1514.73 690.003 Q1511.12 690.003 1509.29 693.567 Q1507.49 697.109 1507.49 704.239 Q1507.49 711.345 1509.29 714.91 Q1511.12 718.451 1514.73 718.451 Q1518.37 718.451 1520.17 714.91 Q1522 711.345 1522 704.239 Q1522 697.109 1520.17 693.567 Q1518.37 690.003 1514.73 690.003 M1514.73 686.299 Q1520.54 686.299 1523.6 690.905 Q1526.68 695.489 1526.68 704.239 Q1526.68 712.965 1523.6 717.572 Q1520.54 722.155 1514.73 722.155 Q1508.92 722.155 1505.84 717.572 Q1502.79 712.965 1502.79 704.239 Q1502.79 695.489 1505.84 690.905 Q1508.92 686.299 1514.73 686.299 Z" fill="#000000" fill-rule="evenodd" fill-opacity="1" /><path clip-path="url(#clip680)" d="M 0 0 M1862.46 717.549 L1870.1 717.549 L1870.1 691.183 L1861.79 692.85 L1861.79 688.591 L1870.06 686.924 L1874.73 686.924 L1874.73 717.549 L1882.37 717.549 L1882.37 721.484 L1862.46 721.484 L1862.46 717.549 Z" fill="#000000" fill-rule="evenodd" fill-opacity="1" /><path clip-path="url(#clip680)" d="M 0 0 M1897.44 690.003 Q1893.83 690.003 1892 693.567 Q1890.2 697.109 1890.2 704.239 Q1890.2 711.345 1892 714.91 Q1893.83 718.451 1897.44 718.451 Q1901.08 718.451 1902.88 714.91 Q1904.71 711.345 1904.71 704.239 Q1904.71 697.109 1902.88 693.567 Q1901.08 690.003 1897.44 690.003 M1897.44 686.299 Q1903.25 686.299 1906.31 690.905 Q1909.39 695.489 1909.39 704.239 Q1909.39 712.965 1906.31 717.572 Q1903.25 722.155 1897.44 722.155 Q1891.63 722.155 1888.55 717.572 Q1885.5 712.965 1885.5 704.239 Q1885.5 695.489 1888.55 690.905 Q1891.63 686.299 1897.44 686.299 Z" fill="#000000" fill-rule="evenodd" fill-opacity="1" /><path clip-path="url(#clip680)" d="M 0 0 M1924.45 690.003 Q1920.84 690.003 1919.01 693.567 Q1917.21 697.109 1917.21 704.239 Q1917.21 711.345 1919.01 714.91 Q1920.84 718.451 1924.45 718.451 Q1928.09 718.451 1929.89 714.91 Q1931.72 711.345 1931.72 704.239 Q1931.72 697.109 1929.89 693.567 Q1928.09 690.003 1924.45 690.003 M1924.45 686.299 Q1930.26 686.299 1933.32 690.905 Q1936.4 695.489 1936.4 704.239 Q1936.4 712.965 1933.32 717.572 Q1930.26 722.155 1924.45 722.155 Q1918.64 722.155 1915.57 717.572 Q1912.51 712.965 1912.51 704.239 Q1912.51 695.489 1915.57 690.905 Q1918.64 686.299 1924.45 686.299 Z" fill="#000000" fill-rule="evenodd" fill-opacity="1" /><path clip-path="url(#clip680)" d="M 0 0 M1951.47 690.003 Q1947.86 690.003 1946.03 693.567 Q1944.22 697.109 1944.22 704.239 Q1944.22 711.345 1946.03 714.91 Q1947.86 718.451 1951.47 718.451 Q1955.1 718.451 1956.91 714.91 Q1958.74 711.345 1958.74 704.239 Q1958.74 697.109 1956.91 693.567 Q1955.1 690.003 1951.47 690.003 M1951.47 686.299 Q1957.28 686.299 1960.33 690.905 Q1963.41 695.489 1963.41 704.239 Q1963.41 712.965 1960.33 717.572 Q1957.28 722.155 1951.47 722.155 Q1945.66 722.155 1942.58 717.572 Q1939.52 712.965 1939.52 704.239 Q1939.52 695.489 1942.58 690.905 Q1945.66 686.299 1951.47 686.299 Z" fill="#000000" fill-rule="evenodd" fill-opacity="1" /><path clip-path="url(#clip680)" d="M 0 0 M916.657 755.356 L956.856 755.356 L956.856 760.767 L939.987 760.767 L939.987 802.876 L933.526 802.876 L933.526 760.767 L916.657 760.767 L916.657 755.356 Z" fill="#000000" fill-rule="evenodd" fill-opacity="1" /><path clip-path="url(#clip680)" d="M 0 0 M960.994 767.228 L966.85 767.228 L966.85 802.876 L960.994 802.876 L960.994 767.228 M960.994 753.351 L966.85 753.351 L966.85 760.767 L960.994 760.767 L960.994 753.351 Z" fill="#000000" fill-rule="evenodd" fill-opacity="1" /><path clip-path="url(#clip680)" d="M 0 0 M1000.75 774.071 Q1002.94 770.124 1006 768.246 Q1009.06 766.369 1013.19 766.369 Q1018.76 766.369 1021.79 770.283 Q1024.81 774.167 1024.81 781.36 L1024.81 802.876 L1018.92 802.876 L1018.92 781.551 Q1018.92 776.426 1017.11 773.944 Q1015.29 771.461 1011.57 771.461 Q1007.02 771.461 1004.38 774.485 Q1001.73 777.509 1001.73 782.728 L1001.73 802.876 L995.846 802.876 L995.846 781.551 Q995.846 776.395 994.032 773.944 Q992.218 771.461 988.43 771.461 Q983.942 771.461 981.301 774.517 Q978.659 777.54 978.659 782.728 L978.659 802.876 L972.771 802.876 L972.771 767.228 L978.659 767.228 L978.659 772.766 Q980.664 769.488 983.465 767.928 Q986.266 766.369 990.117 766.369 Q994 766.369 996.706 768.342 Q999.443 770.315 1000.75 774.071 Z" fill="#000000" fill-rule="evenodd" fill-opacity="1" /><path clip-path="url(#clip680)" d="M 0 0 M1061.44 783.588 L1061.44 786.452 L1034.52 786.452 Q1034.9 792.5 1038.15 795.683 Q1041.42 798.834 1047.25 798.834 Q1050.62 798.834 1053.77 798.006 Q1056.96 797.179 1060.08 795.523 L1060.08 801.062 Q1056.93 802.398 1053.62 803.099 Q1050.3 803.799 1046.9 803.799 Q1038.37 803.799 1033.37 798.834 Q1028.41 793.868 1028.41 785.402 Q1028.41 776.649 1033.12 771.525 Q1037.86 766.369 1045.88 766.369 Q1053.07 766.369 1057.24 771.015 Q1061.44 775.631 1061.44 783.588 M1055.59 781.869 Q1055.52 777.063 1052.88 774.198 Q1050.27 771.334 1045.94 771.334 Q1041.04 771.334 1038.08 774.103 Q1035.15 776.872 1034.71 781.901 L1055.59 781.869 Z" fill="#000000" fill-rule="evenodd" fill-opacity="1" /><path clip-path="url(#clip680)" d="M 0 0 M1102.38 753.414 Q1098.11 760.735 1096.04 767.896 Q1093.97 775.058 1093.97 782.41 Q1093.97 789.762 1096.04 796.988 Q1098.14 804.181 1102.38 811.47 L1097.28 811.47 Q1092.51 803.99 1090.12 796.765 Q1087.77 789.54 1087.77 782.41 Q1087.77 775.312 1090.12 768.119 Q1092.48 760.926 1097.28 753.414 L1102.38 753.414 Z" fill="#000000" fill-rule="evenodd" fill-opacity="1" /><path clip-path="url(#clip680)" d="M 0 0 M1136.27 774.071 Q1138.47 770.124 1141.53 768.246 Q1144.58 766.369 1148.72 766.369 Q1154.29 766.369 1157.31 770.283 Q1160.34 774.167 1160.34 781.36 L1160.34 802.876 L1154.45 802.876 L1154.45 781.551 Q1154.45 776.426 1152.63 773.944 Q1150.82 771.461 1147.1 771.461 Q1142.54 771.461 1139.9 774.485 Q1137.26 777.509 1137.26 782.728 L1137.26 802.876 L1131.37 802.876 L1131.37 781.551 Q1131.37 776.395 1129.56 773.944 Q1127.74 771.461 1123.96 771.461 Q1119.47 771.461 1116.83 774.517 Q1114.18 777.54 1114.18 782.728 L1114.18 802.876 L1108.3 802.876 L1108.3 767.228 L1114.18 767.228 L1114.18 772.766 Q1116.19 769.488 1118.99 767.928 Q1121.79 766.369 1125.64 766.369 Q1129.53 766.369 1132.23 768.342 Q1134.97 770.315 1136.27 774.071 Z" fill="#000000" fill-rule="evenodd" fill-opacity="1" /><path clip-path="url(#clip680)" d="M 0 0 M1189.2 768.278 L1189.2 773.816 Q1186.72 772.543 1184.05 771.907 Q1181.37 771.27 1178.51 771.27 Q1174.15 771.27 1171.95 772.607 Q1169.79 773.944 1169.79 776.617 Q1169.79 778.654 1171.35 779.832 Q1172.91 780.978 1177.62 782.028 L1179.62 782.474 Q1185.86 783.811 1188.47 786.261 Q1191.11 788.68 1191.11 793.041 Q1191.11 798.006 1187.17 800.902 Q1183.25 803.799 1176.38 803.799 Q1173.51 803.799 1170.39 803.226 Q1167.31 802.685 1163.87 801.571 L1163.87 795.523 Q1167.12 797.21 1170.27 798.07 Q1173.42 798.897 1176.51 798.897 Q1180.64 798.897 1182.87 797.497 Q1185.1 796.065 1185.1 793.486 Q1185.1 791.099 1183.48 789.826 Q1181.88 788.553 1176.44 787.375 L1174.4 786.898 Q1168.96 785.752 1166.54 783.397 Q1164.12 781.01 1164.12 776.872 Q1164.12 771.843 1167.69 769.106 Q1171.25 766.369 1177.81 766.369 Q1181.06 766.369 1183.92 766.846 Q1186.79 767.323 1189.2 768.278 Z" fill="#000000" fill-rule="evenodd" fill-opacity="1" /><path clip-path="url(#clip680)" d="M 0 0 M1196.33 753.414 L1201.43 753.414 Q1206.2 760.926 1208.56 768.119 Q1210.94 775.312 1210.94 782.41 Q1210.94 789.54 1208.56 796.765 Q1206.2 803.99 1201.43 811.47 L1196.33 811.47 Q1200.57 804.181 1202.64 796.988 Q1204.74 789.762 1204.74 782.41 Q1204.74 775.058 1202.64 767.896 Q1200.57 760.735 1196.33 753.414 Z" fill="#000000" fill-rule="evenodd" fill-opacity="1" /><polyline clip-path="url(#clip682)" style="stroke:#000000; stroke-width:2; stroke-opacity:0.1; fill:none" points="
  174.844,581.905 1952.76,581.905 
  "/>
<polyline clip-path="url(#clip682)" style="stroke:#000000; stroke-width:2; stroke-opacity:0.1; fill:none" points="
  174.844,452.604 1952.76,452.604 
  "/>
<polyline clip-path="url(#clip682)" style="stroke:#000000; stroke-width:2; stroke-opacity:0.1; fill:none" points="
  174.844,323.303 1952.76,323.303 
  "/>
<polyline clip-path="url(#clip682)" style="stroke:#000000; stroke-width:2; stroke-opacity:0.1; fill:none" points="
  174.844,194.001 1952.76,194.001 
  "/>
<polyline clip-path="url(#clip682)" style="stroke:#000000; stroke-width:2; stroke-opacity:0.1; fill:none" points="
  174.844,64.6998 1952.76,64.6998 
  "/>
<polyline clip-path="url(#clip680)" style="stroke:#000000; stroke-width:4; stroke-opacity:1; fill:none" points="
  174.844,664.012 174.844,47.2441 
  "/>
<polyline clip-path="url(#clip680)" style="stroke:#000000; stroke-width:4; stroke-opacity:1; fill:none" points="
  174.844,581.905 196.179,581.905 
  "/>
<polyline clip-path="url(#clip680)" style="stroke:#000000; stroke-width:4; stroke-opacity:1; fill:none" points="
  174.844,452.604 196.179,452.604 
  "/>
<polyline clip-path="url(#clip680)" style="stroke:#000000; stroke-width:4; stroke-opacity:1; fill:none" points="
  174.844,323.303 196.179,323.303 
  "/>
<polyline clip-path="url(#clip680)" style="stroke:#000000; stroke-width:4; stroke-opacity:1; fill:none" points="
  174.844,194.001 196.179,194.001 
  "/>
<polyline clip-path="url(#clip680)" style="stroke:#000000; stroke-width:4; stroke-opacity:1; fill:none" points="
  174.844,64.6998 196.179,64.6998 
  "/>
<path clip-path="url(#clip680)" d="M 0 0 M128.525 595.25 L144.844 595.25 L144.844 599.185 L122.9 599.185 L122.9 595.25 Q125.562 592.496 130.145 587.866 Q134.752 583.213 135.933 581.871 Q138.178 579.348 139.057 577.611 Q139.96 575.852 139.96 574.162 Q139.96 571.408 138.016 569.672 Q136.095 567.936 132.993 567.936 Q130.794 567.936 128.34 568.699 Q125.909 569.463 123.132 571.014 L123.132 566.292 Q125.956 565.158 128.409 564.579 Q130.863 564 132.9 564 Q138.27 564 141.465 566.686 Q144.659 569.371 144.659 573.862 Q144.659 575.991 143.849 577.912 Q143.062 579.811 140.956 582.403 Q140.377 583.074 137.275 586.292 Q134.173 589.486 128.525 595.25 Z" fill="#000000" fill-rule="evenodd" fill-opacity="1" /><path clip-path="url(#clip680)" d="M 0 0 M135.261 439.398 L123.456 457.847 L135.261 457.847 L135.261 439.398 M134.034 435.324 L139.914 435.324 L139.914 457.847 L144.844 457.847 L144.844 461.736 L139.914 461.736 L139.914 469.884 L135.261 469.884 L135.261 461.736 L119.659 461.736 L119.659 457.222 L134.034 435.324 Z" fill="#000000" fill-rule="evenodd" fill-opacity="1" /><path clip-path="url(#clip680)" d="M 0 0 M133.317 321.439 Q130.169 321.439 128.317 323.592 Q126.488 325.745 126.488 329.495 Q126.488 333.222 128.317 335.397 Q130.169 337.55 133.317 337.55 Q136.465 337.55 138.294 335.397 Q140.145 333.222 140.145 329.495 Q140.145 325.745 138.294 323.592 Q136.465 321.439 133.317 321.439 M142.599 306.786 L142.599 311.046 Q140.84 310.212 139.034 309.773 Q137.252 309.333 135.493 309.333 Q130.863 309.333 128.409 312.458 Q125.979 315.583 125.632 321.902 Q126.997 319.888 129.058 318.823 Q131.118 317.736 133.595 317.736 Q138.803 317.736 141.812 320.907 Q144.844 324.055 144.844 329.495 Q144.844 334.819 141.696 338.036 Q138.548 341.254 133.317 341.254 Q127.321 341.254 124.15 336.671 Q120.979 332.064 120.979 323.337 Q120.979 315.143 124.868 310.282 Q128.757 305.398 135.308 305.398 Q137.067 305.398 138.849 305.745 Q140.655 306.092 142.599 306.786 Z" fill="#000000" fill-rule="evenodd" fill-opacity="1" /><path clip-path="url(#clip680)" d="M 0 0 M132.993 194.869 Q129.659 194.869 127.738 196.652 Q125.84 198.434 125.84 201.559 Q125.84 204.684 127.738 206.466 Q129.659 208.249 132.993 208.249 Q136.326 208.249 138.247 206.466 Q140.169 204.661 140.169 201.559 Q140.169 198.434 138.247 196.652 Q136.349 194.869 132.993 194.869 M128.317 192.879 Q125.308 192.138 123.618 190.078 Q121.951 188.017 121.951 185.054 Q121.951 180.911 124.891 178.504 Q127.854 176.096 132.993 176.096 Q138.155 176.096 141.095 178.504 Q144.034 180.911 144.034 185.054 Q144.034 188.017 142.345 190.078 Q140.678 192.138 137.692 192.879 Q141.071 193.666 142.946 195.957 Q144.844 198.249 144.844 201.559 Q144.844 206.582 141.766 209.267 Q138.71 211.952 132.993 211.952 Q127.275 211.952 124.196 209.267 Q121.141 206.582 121.141 201.559 Q121.141 198.249 123.039 195.957 Q124.937 193.666 128.317 192.879 M126.604 185.494 Q126.604 188.179 128.271 189.684 Q129.96 191.189 132.993 191.189 Q136.002 191.189 137.692 189.684 Q139.405 188.179 139.405 185.494 Q139.405 182.809 137.692 181.305 Q136.002 179.8 132.993 179.8 Q129.96 179.8 128.271 181.305 Q126.604 182.809 126.604 185.494 Z" fill="#000000" fill-rule="evenodd" fill-opacity="1" /><path clip-path="url(#clip680)" d="M 0 0 M97.9235 78.0446 L105.562 78.0446 L105.562 51.679 L97.2522 53.3457 L97.2522 49.0864 L105.516 47.4198 L110.192 47.4198 L110.192 78.0446 L117.831 78.0446 L117.831 81.9798 L97.9235 81.9798 L97.9235 78.0446 Z" fill="#000000" fill-rule="evenodd" fill-opacity="1" /><path clip-path="url(#clip680)" d="M 0 0 M132.9 50.4985 Q129.289 50.4985 127.46 54.0633 Q125.655 57.6049 125.655 64.7345 Q125.655 71.841 127.46 75.4057 Q129.289 78.9474 132.9 78.9474 Q136.534 78.9474 138.34 75.4057 Q140.169 71.841 140.169 64.7345 Q140.169 57.6049 138.34 54.0633 Q136.534 50.4985 132.9 50.4985 M132.9 46.7948 Q138.71 46.7948 141.766 51.4012 Q144.844 55.9846 144.844 64.7345 Q144.844 73.4613 141.766 78.0678 Q138.71 82.6511 132.9 82.6511 Q127.09 82.6511 124.011 78.0678 Q120.956 73.4613 120.956 64.7345 Q120.956 55.9846 124.011 51.4012 Q127.09 46.7948 132.9 46.7948 Z" fill="#000000" fill-rule="evenodd" fill-opacity="1" /><path clip-path="url(#clip680)" d="M 0 0 M5.47616 546.297 L5.47616 537.639 L45.23 516.569 L5.47616 516.569 L5.47616 510.331 L52.9962 510.331 L52.9962 518.988 L13.2423 540.058 L52.9962 540.058 L52.9962 546.297 L5.47616 546.297 Z" fill="#000000" fill-rule="evenodd" fill-opacity="1" /><path clip-path="url(#clip680)" d="M 0 0 M33.7081 473.696 L36.5726 473.696 L36.5726 500.623 Q42.6201 500.241 45.8029 496.994 Q48.9539 493.716 48.9539 487.891 Q48.9539 484.518 48.1264 481.367 Q47.2989 478.184 45.6438 475.065 L51.1819 475.065 Q52.5187 478.216 53.219 481.526 Q53.9192 484.836 53.9192 488.242 Q53.9192 496.772 48.9539 501.769 Q43.9887 506.734 35.5223 506.734 Q26.7694 506.734 21.6451 502.023 Q16.4888 497.281 16.4888 489.26 Q16.4888 482.067 21.1358 477.897 Q25.7509 473.696 33.7081 473.696 M31.9893 479.552 Q27.1832 479.616 24.3186 482.258 Q21.4541 484.868 21.4541 489.196 Q21.4541 494.098 24.2232 497.058 Q26.9922 499.986 32.0212 500.432 L31.9893 479.552 Z" fill="#000000" fill-rule="evenodd" fill-opacity="1" /><path clip-path="url(#clip680)" d="M 0 0 M38.9279 468.158 L17.3482 468.158 L17.3482 462.301 L38.7051 462.301 Q43.7659 462.301 46.3122 460.328 Q48.8266 458.355 48.8266 454.408 Q48.8266 449.665 45.8029 446.928 Q42.7792 444.159 37.5593 444.159 L17.3482 444.159 L17.3482 438.303 L52.9962 438.303 L52.9962 444.159 L47.5216 444.159 Q50.7682 446.292 52.3596 449.124 Q53.9192 451.925 53.9192 455.649 Q53.9192 461.792 50.0998 464.975 Q46.2803 468.158 38.9279 468.158 M16.4888 453.421 L16.4888 453.421 Z" fill="#000000" fill-rule="evenodd" fill-opacity="1" /><path clip-path="url(#clip680)" d="M 0 0 M22.8227 411.503 Q22.2498 412.49 21.9952 413.667 Q21.7087 414.813 21.7087 416.214 Q21.7087 421.179 24.9552 423.852 Q28.1699 426.494 34.2173 426.494 L52.9962 426.494 L52.9962 432.382 L17.3482 432.382 L17.3482 426.494 L22.8864 426.494 Q19.6399 424.648 18.0803 421.688 Q16.4888 418.728 16.4888 414.495 Q16.4888 413.89 16.5843 413.158 Q16.648 412.426 16.8071 411.535 L22.8227 411.503 Z" fill="#000000" fill-rule="evenodd" fill-opacity="1" /><path clip-path="url(#clip680)" d="M 0 0 M21.4541 392.979 Q21.4541 397.689 25.1462 400.427 Q28.8065 403.164 35.204 403.164 Q41.6015 403.164 45.2937 400.458 Q48.9539 397.721 48.9539 392.979 Q48.9539 388.3 45.2618 385.563 Q41.5697 382.825 35.204 382.825 Q28.8701 382.825 25.178 385.563 Q21.4541 388.3 21.4541 392.979 M16.4888 392.979 Q16.4888 385.34 21.4541 380.979 Q26.4193 376.619 35.204 376.619 Q43.9569 376.619 48.9539 380.979 Q53.9192 385.34 53.9192 392.979 Q53.9192 400.649 48.9539 405.01 Q43.9569 409.339 35.204 409.339 Q26.4193 409.339 21.4541 405.01 Q16.4888 400.649 16.4888 392.979 Z" fill="#000000" fill-rule="evenodd" fill-opacity="1" /><path clip-path="url(#clip680)" d="M 0 0 M31.4801 340.844 L52.9962 340.844 L52.9962 346.7 L31.671 346.7 Q26.6103 346.7 24.0958 348.673 Q21.5814 350.647 21.5814 354.594 Q21.5814 359.336 24.6051 362.073 Q27.6288 364.811 32.8487 364.811 L52.9962 364.811 L52.9962 370.699 L17.3482 370.699 L17.3482 364.811 L22.8864 364.811 Q19.6717 362.71 18.0803 359.877 Q16.4888 357.013 16.4888 353.289 Q16.4888 347.146 20.3083 343.995 Q24.0958 340.844 31.4801 340.844 Z" fill="#000000" fill-rule="evenodd" fill-opacity="1" /><path clip-path="url(#clip680)" d="M 0 0 M17.3482 313.98 L17.3482 308.124 L52.9962 308.124 L52.9962 313.98 L17.3482 313.98 M3.47096 313.98 L3.47096 308.124 L10.887 308.124 L10.887 313.98 L3.47096 313.98 Z" fill="#000000" fill-rule="evenodd" fill-opacity="1" /><path clip-path="url(#clip680)" d="M 0 0 M31.4801 272.349 L52.9962 272.349 L52.9962 278.205 L31.671 278.205 Q26.6103 278.205 24.0958 280.178 Q21.5814 282.152 21.5814 286.099 Q21.5814 290.841 24.6051 293.578 Q27.6288 296.315 32.8487 296.315 L52.9962 296.315 L52.9962 302.204 L17.3482 302.204 L17.3482 296.315 L22.8864 296.315 Q19.6717 294.215 18.0803 291.382 Q16.4888 288.518 16.4888 284.794 Q16.4888 278.651 20.3083 275.5 Q24.0958 272.349 31.4801 272.349 Z" fill="#000000" fill-rule="evenodd" fill-opacity="1" /><path clip-path="url(#clip680)" d="M 0 0 M22.7591 242.748 L3.47096 242.748 L3.47096 236.892 L52.9962 236.892 L52.9962 242.748 L47.649 242.748 Q50.8318 244.594 52.3914 247.427 Q53.9192 250.228 53.9192 254.175 Q53.9192 260.636 48.763 264.71 Q43.6067 268.752 35.204 268.752 Q26.8013 268.752 21.6451 264.71 Q16.4888 260.636 16.4888 254.175 Q16.4888 250.228 18.0484 247.427 Q19.5762 244.594 22.7591 242.748 M35.204 262.705 Q41.6652 262.705 45.3573 260.063 Q49.0176 257.389 49.0176 252.742 Q49.0176 248.095 45.3573 245.422 Q41.6652 242.748 35.204 242.748 Q28.7428 242.748 25.0825 245.422 Q21.3904 248.095 21.3904 252.742 Q21.3904 257.389 25.0825 260.063 Q28.7428 262.705 35.204 262.705 Z" fill="#000000" fill-rule="evenodd" fill-opacity="1" /><path clip-path="url(#clip680)" d="M 0 0 M33.7081 200.257 L36.5726 200.257 L36.5726 227.184 Q42.6201 226.802 45.8029 223.555 Q48.9539 220.277 48.9539 214.453 Q48.9539 211.079 48.1264 207.928 Q47.2989 204.745 45.6438 201.626 L51.1819 201.626 Q52.5187 204.777 53.219 208.087 Q53.9192 211.397 53.9192 214.803 Q53.9192 223.333 48.9539 228.33 Q43.9887 233.295 35.5223 233.295 Q26.7694 233.295 21.6451 228.584 Q16.4888 223.842 16.4888 215.821 Q16.4888 208.628 21.1358 204.458 Q25.7509 200.257 33.7081 200.257 M31.9893 206.113 Q27.1832 206.177 24.3186 208.819 Q21.4541 211.429 21.4541 215.757 Q21.4541 220.659 24.2232 223.619 Q26.9922 226.547 32.0212 226.993 L31.9893 206.113 Z" fill="#000000" fill-rule="evenodd" fill-opacity="1" /><path clip-path="url(#clip680)" d="M 0 0 M17.3482 165.628 L34.6948 178.518 L52.9962 164.959 L52.9962 171.866 L38.9916 182.242 L52.9962 192.618 L52.9962 199.525 L34.3446 185.68 L17.3482 198.347 L17.3482 191.44 L30.0478 181.987 L17.3482 172.534 L17.3482 165.628 Z" fill="#000000" fill-rule="evenodd" fill-opacity="1" /><line clip-path="url(#clip682)" x1="418.303" y1="662.556" x2="418.303" y2="630.556" style="stroke:#000000; stroke-width:1.6; stroke-opacity:1"/>
<line clip-path="url(#clip682)" x1="516.568" y1="662.556" x2="516.568" y2="630.556" style="stroke:#000000; stroke-width:1.6; stroke-opacity:1"/>
<line clip-path="url(#clip682)" x1="526.733" y1="662.556" x2="526.733" y2="630.556" style="stroke:#000000; stroke-width:1.6; stroke-opacity:1"/>
<line clip-path="url(#clip682)" x1="626.692" y1="662.556" x2="626.692" y2="630.556" style="stroke:#000000; stroke-width:1.6; stroke-opacity:1"/>
<line clip-path="url(#clip682)" x1="679.213" y1="662.556" x2="679.213" y2="630.556" style="stroke:#000000; stroke-width:1.6; stroke-opacity:1"/>
<line clip-path="url(#clip682)" x1="994.337" y1="662.556" x2="994.337" y2="630.556" style="stroke:#000000; stroke-width:1.6; stroke-opacity:1"/>
<line clip-path="url(#clip682)" x1="997.726" y1="662.556" x2="997.726" y2="630.556" style="stroke:#000000; stroke-width:1.6; stroke-opacity:1"/>
<line clip-path="url(#clip682)" x1="1038.39" y1="662.556" x2="1038.39" y2="630.556" style="stroke:#000000; stroke-width:1.6; stroke-opacity:1"/>
<line clip-path="url(#clip682)" x1="1057.02" y1="662.556" x2="1057.02" y2="630.556" style="stroke:#000000; stroke-width:1.6; stroke-opacity:1"/>
<line clip-path="url(#clip682)" x1="1175.62" y1="662.556" x2="1175.62" y2="630.556" style="stroke:#000000; stroke-width:1.6; stroke-opacity:1"/>
<line clip-path="url(#clip682)" x1="1199.34" y1="662.556" x2="1199.34" y2="630.556" style="stroke:#000000; stroke-width:1.6; stroke-opacity:1"/>
<line clip-path="url(#clip682)" x1="1265.41" y1="662.556" x2="1265.41" y2="630.556" style="stroke:#000000; stroke-width:1.6; stroke-opacity:1"/>
<line clip-path="url(#clip682)" x1="1278.97" y1="662.556" x2="1278.97" y2="630.556" style="stroke:#000000; stroke-width:1.6; stroke-opacity:1"/>
<line clip-path="url(#clip682)" x1="1409.42" y1="662.556" x2="1409.42" y2="630.556" style="stroke:#000000; stroke-width:1.6; stroke-opacity:1"/>
<line clip-path="url(#clip682)" x1="1539.88" y1="662.556" x2="1539.88" y2="630.556" style="stroke:#000000; stroke-width:1.6; stroke-opacity:1"/>
<line clip-path="url(#clip682)" x1="1548.35" y1="662.556" x2="1548.35" y2="630.556" style="stroke:#000000; stroke-width:1.6; stroke-opacity:1"/>
<line clip-path="url(#clip682)" x1="1582.23" y1="662.556" x2="1582.23" y2="630.556" style="stroke:#000000; stroke-width:1.6; stroke-opacity:1"/>
<line clip-path="url(#clip682)" x1="1605.95" y1="662.556" x2="1605.95" y2="630.556" style="stroke:#000000; stroke-width:1.6; stroke-opacity:1"/>
<line clip-path="url(#clip682)" x1="1697.44" y1="662.556" x2="1697.44" y2="630.556" style="stroke:#000000; stroke-width:1.6; stroke-opacity:1"/>
<line clip-path="url(#clip682)" x1="1700.83" y1="662.556" x2="1700.83" y2="630.556" style="stroke:#000000; stroke-width:1.6; stroke-opacity:1"/>
<line clip-path="url(#clip682)" x1="1748.26" y1="662.556" x2="1748.26" y2="630.556" style="stroke:#000000; stroke-width:1.6; stroke-opacity:1"/>
<line clip-path="url(#clip682)" x1="1878.72" y1="662.556" x2="1878.72" y2="630.556" style="stroke:#000000; stroke-width:1.6; stroke-opacity:1"/>
<line clip-path="url(#clip682)" x1="287.849" y1="597.905" x2="287.849" y2="565.905" style="stroke:#000000; stroke-width:1.6; stroke-opacity:1"/>
<line clip-path="url(#clip682)" x1="343.758" y1="597.905" x2="343.758" y2="565.905" style="stroke:#000000; stroke-width:1.6; stroke-opacity:1"/>
<line clip-path="url(#clip682)" x1="413.221" y1="597.905" x2="413.221" y2="565.905" style="stroke:#000000; stroke-width:1.6; stroke-opacity:1"/>
<line clip-path="url(#clip682)" x1="657.188" y1="597.905" x2="657.188" y2="565.905" style="stroke:#000000; stroke-width:1.6; stroke-opacity:1"/>
<line clip-path="url(#clip682)" x1="796.114" y1="597.905" x2="796.114" y2="565.905" style="stroke:#000000; stroke-width:1.6; stroke-opacity:1"/>
<line clip-path="url(#clip682)" x1="857.106" y1="597.905" x2="857.106" y2="565.905" style="stroke:#000000; stroke-width:1.6; stroke-opacity:1"/>
<line clip-path="url(#clip682)" x1="899.461" y1="597.905" x2="899.461" y2="565.905" style="stroke:#000000; stroke-width:1.6; stroke-opacity:1"/>
<line clip-path="url(#clip682)" x1="950.288" y1="597.905" x2="950.288" y2="565.905" style="stroke:#000000; stroke-width:1.6; stroke-opacity:1"/>
<line clip-path="url(#clip682)" x1="951.982" y1="597.905" x2="951.982" y2="565.905" style="stroke:#000000; stroke-width:1.6; stroke-opacity:1"/>
<line clip-path="url(#clip682)" x1="953.676" y1="597.905" x2="953.676" y2="565.905" style="stroke:#000000; stroke-width:1.6; stroke-opacity:1"/>
<line clip-path="url(#clip682)" x1="982.478" y1="597.905" x2="982.478" y2="565.905" style="stroke:#000000; stroke-width:1.6; stroke-opacity:1"/>
<line clip-path="url(#clip682)" x1="1035" y1="597.905" x2="1035" y2="565.905" style="stroke:#000000; stroke-width:1.6; stroke-opacity:1"/>
<line clip-path="url(#clip682)" x1="1067.19" y1="597.905" x2="1067.19" y2="565.905" style="stroke:#000000; stroke-width:1.6; stroke-opacity:1"/>
<line clip-path="url(#clip682)" x1="1087.52" y1="597.905" x2="1087.52" y2="565.905" style="stroke:#000000; stroke-width:1.6; stroke-opacity:1"/>
<line clip-path="url(#clip682)" x1="1163.76" y1="597.905" x2="1163.76" y2="565.905" style="stroke:#000000; stroke-width:1.6; stroke-opacity:1"/>
<line clip-path="url(#clip682)" x1="1260.33" y1="597.905" x2="1260.33" y2="565.905" style="stroke:#000000; stroke-width:1.6; stroke-opacity:1"/>
<line clip-path="url(#clip682)" x1="1380.62" y1="597.905" x2="1380.62" y2="565.905" style="stroke:#000000; stroke-width:1.6; stroke-opacity:1"/>
<line clip-path="url(#clip682)" x1="1394.17" y1="597.905" x2="1394.17" y2="565.905" style="stroke:#000000; stroke-width:1.6; stroke-opacity:1"/>
<line clip-path="url(#clip682)" x1="1422.97" y1="597.905" x2="1422.97" y2="565.905" style="stroke:#000000; stroke-width:1.6; stroke-opacity:1"/>
<line clip-path="url(#clip682)" x1="1497.52" y1="597.905" x2="1497.52" y2="565.905" style="stroke:#000000; stroke-width:1.6; stroke-opacity:1"/>
<line clip-path="url(#clip682)" x1="1504.3" y1="597.905" x2="1504.3" y2="565.905" style="stroke:#000000; stroke-width:1.6; stroke-opacity:1"/>
<line clip-path="url(#clip682)" x1="1533.1" y1="597.905" x2="1533.1" y2="565.905" style="stroke:#000000; stroke-width:1.6; stroke-opacity:1"/>
<line clip-path="url(#clip682)" x1="1541.57" y1="597.905" x2="1541.57" y2="565.905" style="stroke:#000000; stroke-width:1.6; stroke-opacity:1"/>
<line clip-path="url(#clip682)" x1="1558.51" y1="597.905" x2="1558.51" y2="565.905" style="stroke:#000000; stroke-width:1.6; stroke-opacity:1"/>
<line clip-path="url(#clip682)" x1="1661.86" y1="597.905" x2="1661.86" y2="565.905" style="stroke:#000000; stroke-width:1.6; stroke-opacity:1"/>
<line clip-path="url(#clip682)" x1="1699.13" y1="597.905" x2="1699.13" y2="565.905" style="stroke:#000000; stroke-width:1.6; stroke-opacity:1"/>
<line clip-path="url(#clip682)" x1="1799.09" y1="597.905" x2="1799.09" y2="565.905" style="stroke:#000000; stroke-width:1.6; stroke-opacity:1"/>
<line clip-path="url(#clip682)" x1="1804.17" y1="597.905" x2="1804.17" y2="565.905" style="stroke:#000000; stroke-width:1.6; stroke-opacity:1"/>
<line clip-path="url(#clip682)" x1="1805.87" y1="597.905" x2="1805.87" y2="565.905" style="stroke:#000000; stroke-width:1.6; stroke-opacity:1"/>
<line clip-path="url(#clip682)" x1="1819.42" y1="597.905" x2="1819.42" y2="565.905" style="stroke:#000000; stroke-width:1.6; stroke-opacity:1"/>
<line clip-path="url(#clip682)" x1="1893.97" y1="597.905" x2="1893.97" y2="565.905" style="stroke:#000000; stroke-width:1.6; stroke-opacity:1"/>
<line clip-path="url(#clip682)" x1="1900.74" y1="597.905" x2="1900.74" y2="565.905" style="stroke:#000000; stroke-width:1.6; stroke-opacity:1"/>
<line clip-path="url(#clip682)" x1="235.328" y1="533.255" x2="235.328" y2="501.255" style="stroke:#000000; stroke-width:1.6; stroke-opacity:1"/>
<line clip-path="url(#clip682)" x1="321.733" y1="533.255" x2="321.733" y2="501.255" style="stroke:#000000; stroke-width:1.6; stroke-opacity:1"/>
<line clip-path="url(#clip682)" x1="338.675" y1="533.255" x2="338.675" y2="501.255" style="stroke:#000000; stroke-width:1.6; stroke-opacity:1"/>
<line clip-path="url(#clip682)" x1="347.146" y1="533.255" x2="347.146" y2="501.255" style="stroke:#000000; stroke-width:1.6; stroke-opacity:1"/>
<line clip-path="url(#clip682)" x1="399.667" y1="533.255" x2="399.667" y2="501.255" style="stroke:#000000; stroke-width:1.6; stroke-opacity:1"/>
<line clip-path="url(#clip682)" x1="494.543" y1="533.255" x2="494.543" y2="501.255" style="stroke:#000000; stroke-width:1.6; stroke-opacity:1"/>
<line clip-path="url(#clip682)" x1="508.097" y1="533.255" x2="508.097" y2="501.255" style="stroke:#000000; stroke-width:1.6; stroke-opacity:1"/>
<line clip-path="url(#clip682)" x1="543.676" y1="533.255" x2="543.676" y2="501.255" style="stroke:#000000; stroke-width:1.6; stroke-opacity:1"/>
<line clip-path="url(#clip682)" x1="562.312" y1="533.255" x2="562.312" y2="501.255" style="stroke:#000000; stroke-width:1.6; stroke-opacity:1"/>
<line clip-path="url(#clip682)" x1="628.386" y1="533.255" x2="628.386" y2="501.255" style="stroke:#000000; stroke-width:1.6; stroke-opacity:1"/>
<line clip-path="url(#clip682)" x1="850.329" y1="533.255" x2="850.329" y2="501.255" style="stroke:#000000; stroke-width:1.6; stroke-opacity:1"/>
<line clip-path="url(#clip682)" x1="896.073" y1="533.255" x2="896.073" y2="501.255" style="stroke:#000000; stroke-width:1.6; stroke-opacity:1"/>
<line clip-path="url(#clip682)" x1="931.651" y1="533.255" x2="931.651" y2="501.255" style="stroke:#000000; stroke-width:1.6; stroke-opacity:1"/>
<line clip-path="url(#clip682)" x1="950.288" y1="533.255" x2="950.288" y2="501.255" style="stroke:#000000; stroke-width:1.6; stroke-opacity:1"/>
<line clip-path="url(#clip682)" x1="955.37" y1="533.255" x2="955.37" y2="501.255" style="stroke:#000000; stroke-width:1.6; stroke-opacity:1"/>
<line clip-path="url(#clip682)" x1="1024.83" y1="533.255" x2="1024.83" y2="501.255" style="stroke:#000000; stroke-width:1.6; stroke-opacity:1"/>
<line clip-path="url(#clip682)" x1="1140.04" y1="533.255" x2="1140.04" y2="501.255" style="stroke:#000000; stroke-width:1.6; stroke-opacity:1"/>
<line clip-path="url(#clip682)" x1="1175.62" y1="533.255" x2="1175.62" y2="501.255" style="stroke:#000000; stroke-width:1.6; stroke-opacity:1"/>
<line clip-path="url(#clip682)" x1="1229.83" y1="533.255" x2="1229.83" y2="501.255" style="stroke:#000000; stroke-width:1.6; stroke-opacity:1"/>
<line clip-path="url(#clip682)" x1="1289.13" y1="533.255" x2="1289.13" y2="501.255" style="stroke:#000000; stroke-width:1.6; stroke-opacity:1"/>
<line clip-path="url(#clip682)" x1="1380.62" y1="533.255" x2="1380.62" y2="501.255" style="stroke:#000000; stroke-width:1.6; stroke-opacity:1"/>
<line clip-path="url(#clip682)" x1="1395.87" y1="533.255" x2="1395.87" y2="501.255" style="stroke:#000000; stroke-width:1.6; stroke-opacity:1"/>
<line clip-path="url(#clip682)" x1="1419.59" y1="533.255" x2="1419.59" y2="501.255" style="stroke:#000000; stroke-width:1.6; stroke-opacity:1"/>
<line clip-path="url(#clip682)" x1="1526.32" y1="533.255" x2="1526.32" y2="501.255" style="stroke:#000000; stroke-width:1.6; stroke-opacity:1"/>
<line clip-path="url(#clip682)" x1="1633.06" y1="533.255" x2="1633.06" y2="501.255" style="stroke:#000000; stroke-width:1.6; stroke-opacity:1"/>
<line clip-path="url(#clip682)" x1="1666.94" y1="533.255" x2="1666.94" y2="501.255" style="stroke:#000000; stroke-width:1.6; stroke-opacity:1"/>
<line clip-path="url(#clip682)" x1="1710.99" y1="533.255" x2="1710.99" y2="501.255" style="stroke:#000000; stroke-width:1.6; stroke-opacity:1"/>
<line clip-path="url(#clip682)" x1="1716.07" y1="533.255" x2="1716.07" y2="501.255" style="stroke:#000000; stroke-width:1.6; stroke-opacity:1"/>
<line clip-path="url(#clip682)" x1="1749.96" y1="533.255" x2="1749.96" y2="501.255" style="stroke:#000000; stroke-width:1.6; stroke-opacity:1"/>
<line clip-path="url(#clip682)" x1="1768.59" y1="533.255" x2="1768.59" y2="501.255" style="stroke:#000000; stroke-width:1.6; stroke-opacity:1"/>
<line clip-path="url(#clip682)" x1="1785.54" y1="533.255" x2="1785.54" y2="501.255" style="stroke:#000000; stroke-width:1.6; stroke-opacity:1"/>
<line clip-path="url(#clip682)" x1="1855" y1="533.255" x2="1855" y2="501.255" style="stroke:#000000; stroke-width:1.6; stroke-opacity:1"/>
<line clip-path="url(#clip682)" x1="1870.25" y1="533.255" x2="1870.25" y2="501.255" style="stroke:#000000; stroke-width:1.6; stroke-opacity:1"/>
<line clip-path="url(#clip682)" x1="1888.88" y1="533.255" x2="1888.88" y2="501.255" style="stroke:#000000; stroke-width:1.6; stroke-opacity:1"/>
<line clip-path="url(#clip682)" x1="1902.44" y1="533.255" x2="1902.44" y2="501.255" style="stroke:#000000; stroke-width:1.6; stroke-opacity:1"/>
<line clip-path="url(#clip682)" x1="357.312" y1="468.604" x2="357.312" y2="436.604" style="stroke:#000000; stroke-width:1.6; stroke-opacity:1"/>
<line clip-path="url(#clip682)" x1="365.783" y1="468.604" x2="365.783" y2="436.604" style="stroke:#000000; stroke-width:1.6; stroke-opacity:1"/>
<line clip-path="url(#clip682)" x1="370.865" y1="468.604" x2="370.865" y2="436.604" style="stroke:#000000; stroke-width:1.6; stroke-opacity:1"/>
<line clip-path="url(#clip682)" x1="381.031" y1="468.604" x2="381.031" y2="436.604" style="stroke:#000000; stroke-width:1.6; stroke-opacity:1"/>
<line clip-path="url(#clip682)" x1="425.08" y1="468.604" x2="425.08" y2="436.604" style="stroke:#000000; stroke-width:1.6; stroke-opacity:1"/>
<line clip-path="url(#clip682)" x1="447.105" y1="468.604" x2="447.105" y2="436.604" style="stroke:#000000; stroke-width:1.6; stroke-opacity:1"/>
<line clip-path="url(#clip682)" x1="521.651" y1="468.604" x2="521.651" y2="436.604" style="stroke:#000000; stroke-width:1.6; stroke-opacity:1"/>
<line clip-path="url(#clip682)" x1="670.742" y1="468.604" x2="670.742" y2="436.604" style="stroke:#000000; stroke-width:1.6; stroke-opacity:1"/>
<line clip-path="url(#clip682)" x1="682.601" y1="468.604" x2="682.601" y2="436.604" style="stroke:#000000; stroke-width:1.6; stroke-opacity:1"/>
<line clip-path="url(#clip682)" x1="689.378" y1="468.604" x2="689.378" y2="436.604" style="stroke:#000000; stroke-width:1.6; stroke-opacity:1"/>
<line clip-path="url(#clip682)" x1="730.039" y1="468.604" x2="730.039" y2="436.604" style="stroke:#000000; stroke-width:1.6; stroke-opacity:1"/>
<line clip-path="url(#clip682)" x1="826.61" y1="468.604" x2="826.61" y2="436.604" style="stroke:#000000; stroke-width:1.6; stroke-opacity:1"/>
<line clip-path="url(#clip682)" x1="846.94" y1="468.604" x2="846.94" y2="436.604" style="stroke:#000000; stroke-width:1.6; stroke-opacity:1"/>
<line clip-path="url(#clip682)" x1="896.073" y1="468.604" x2="896.073" y2="436.604" style="stroke:#000000; stroke-width:1.6; stroke-opacity:1"/>
<line clip-path="url(#clip682)" x1="985.866" y1="468.604" x2="985.866" y2="436.604" style="stroke:#000000; stroke-width:1.6; stroke-opacity:1"/>
<line clip-path="url(#clip682)" x1="1035" y1="468.604" x2="1035" y2="436.604" style="stroke:#000000; stroke-width:1.6; stroke-opacity:1"/>
<line clip-path="url(#clip682)" x1="1107.85" y1="468.604" x2="1107.85" y2="436.604" style="stroke:#000000; stroke-width:1.6; stroke-opacity:1"/>
<line clip-path="url(#clip682)" x1="1126.49" y1="468.604" x2="1126.49" y2="436.604" style="stroke:#000000; stroke-width:1.6; stroke-opacity:1"/>
<line clip-path="url(#clip682)" x1="1170.54" y1="468.604" x2="1170.54" y2="436.604" style="stroke:#000000; stroke-width:1.6; stroke-opacity:1"/>
<line clip-path="url(#clip682)" x1="1207.81" y1="468.604" x2="1207.81" y2="436.604" style="stroke:#000000; stroke-width:1.6; stroke-opacity:1"/>
<line clip-path="url(#clip682)" x1="1221.36" y1="468.604" x2="1221.36" y2="436.604" style="stroke:#000000; stroke-width:1.6; stroke-opacity:1"/>
<line clip-path="url(#clip682)" x1="1246.78" y1="468.604" x2="1246.78" y2="436.604" style="stroke:#000000; stroke-width:1.6; stroke-opacity:1"/>
<line clip-path="url(#clip682)" x1="1272.19" y1="468.604" x2="1272.19" y2="436.604" style="stroke:#000000; stroke-width:1.6; stroke-opacity:1"/>
<line clip-path="url(#clip682)" x1="1641.53" y1="468.604" x2="1641.53" y2="436.604" style="stroke:#000000; stroke-width:1.6; stroke-opacity:1"/>
<line clip-path="url(#clip682)" x1="1726.24" y1="468.604" x2="1726.24" y2="436.604" style="stroke:#000000; stroke-width:1.6; stroke-opacity:1"/>
<line clip-path="url(#clip682)" x1="1741.49" y1="468.604" x2="1741.49" y2="436.604" style="stroke:#000000; stroke-width:1.6; stroke-opacity:1"/>
<line clip-path="url(#clip682)" x1="1751.65" y1="468.604" x2="1751.65" y2="436.604" style="stroke:#000000; stroke-width:1.6; stroke-opacity:1"/>
<line clip-path="url(#clip682)" x1="1771.98" y1="468.604" x2="1771.98" y2="436.604" style="stroke:#000000; stroke-width:1.6; stroke-opacity:1"/>
<line clip-path="url(#clip682)" x1="1785.54" y1="468.604" x2="1785.54" y2="436.604" style="stroke:#000000; stroke-width:1.6; stroke-opacity:1"/>
<line clip-path="url(#clip682)" x1="1824.5" y1="468.604" x2="1824.5" y2="436.604" style="stroke:#000000; stroke-width:1.6; stroke-opacity:1"/>
<line clip-path="url(#clip682)" x1="1841.45" y1="468.604" x2="1841.45" y2="436.604" style="stroke:#000000; stroke-width:1.6; stroke-opacity:1"/>
<line clip-path="url(#clip682)" x1="225.163" y1="403.953" x2="225.163" y2="371.953" style="stroke:#000000; stroke-width:1.6; stroke-opacity:1"/>
<line clip-path="url(#clip682)" x1="286.155" y1="403.953" x2="286.155" y2="371.953" style="stroke:#000000; stroke-width:1.6; stroke-opacity:1"/>
<line clip-path="url(#clip682)" x1="301.403" y1="403.953" x2="301.403" y2="371.953" style="stroke:#000000; stroke-width:1.6; stroke-opacity:1"/>
<line clip-path="url(#clip682)" x1="374.254" y1="403.953" x2="374.254" y2="371.953" style="stroke:#000000; stroke-width:1.6; stroke-opacity:1"/>
<line clip-path="url(#clip682)" x1="389.502" y1="403.953" x2="389.502" y2="371.953" style="stroke:#000000; stroke-width:1.6; stroke-opacity:1"/>
<line clip-path="url(#clip682)" x1="453.882" y1="403.953" x2="453.882" y2="371.953" style="stroke:#000000; stroke-width:1.6; stroke-opacity:1"/>
<line clip-path="url(#clip682)" x1="516.568" y1="403.953" x2="516.568" y2="371.953" style="stroke:#000000; stroke-width:1.6; stroke-opacity:1"/>
<line clip-path="url(#clip682)" x1="562.312" y1="403.953" x2="562.312" y2="371.953" style="stroke:#000000; stroke-width:1.6; stroke-opacity:1"/>
<line clip-path="url(#clip682)" x1="611.444" y1="403.953" x2="611.444" y2="371.953" style="stroke:#000000; stroke-width:1.6; stroke-opacity:1"/>
<line clip-path="url(#clip682)" x1="685.99" y1="403.953" x2="685.99" y2="371.953" style="stroke:#000000; stroke-width:1.6; stroke-opacity:1"/>
<line clip-path="url(#clip682)" x1="687.684" y1="403.953" x2="687.684" y2="371.953" style="stroke:#000000; stroke-width:1.6; stroke-opacity:1"/>
<line clip-path="url(#clip682)" x1="814.75" y1="403.953" x2="814.75" y2="371.953" style="stroke:#000000; stroke-width:1.6; stroke-opacity:1"/>
<line clip-path="url(#clip682)" x1="841.858" y1="403.953" x2="841.858" y2="371.953" style="stroke:#000000; stroke-width:1.6; stroke-opacity:1"/>
<line clip-path="url(#clip682)" x1="918.098" y1="403.953" x2="918.098" y2="371.953" style="stroke:#000000; stroke-width:1.6; stroke-opacity:1"/>
<line clip-path="url(#clip682)" x1="948.593" y1="403.953" x2="948.593" y2="371.953" style="stroke:#000000; stroke-width:1.6; stroke-opacity:1"/>
<line clip-path="url(#clip682)" x1="1023.14" y1="403.953" x2="1023.14" y2="371.953" style="stroke:#000000; stroke-width:1.6; stroke-opacity:1"/>
<line clip-path="url(#clip682)" x1="1048.55" y1="403.953" x2="1048.55" y2="371.953" style="stroke:#000000; stroke-width:1.6; stroke-opacity:1"/>
<line clip-path="url(#clip682)" x1="1112.93" y1="403.953" x2="1112.93" y2="371.953" style="stroke:#000000; stroke-width:1.6; stroke-opacity:1"/>
<line clip-path="url(#clip682)" x1="1265.41" y1="403.953" x2="1265.41" y2="371.953" style="stroke:#000000; stroke-width:1.6; stroke-opacity:1"/>
<line clip-path="url(#clip682)" x1="1278.97" y1="403.953" x2="1278.97" y2="371.953" style="stroke:#000000; stroke-width:1.6; stroke-opacity:1"/>
<line clip-path="url(#clip682)" x1="1289.13" y1="403.953" x2="1289.13" y2="371.953" style="stroke:#000000; stroke-width:1.6; stroke-opacity:1"/>
<line clip-path="url(#clip682)" x1="1317.93" y1="403.953" x2="1317.93" y2="371.953" style="stroke:#000000; stroke-width:1.6; stroke-opacity:1"/>
<line clip-path="url(#clip682)" x1="1338.26" y1="403.953" x2="1338.26" y2="371.953" style="stroke:#000000; stroke-width:1.6; stroke-opacity:1"/>
<line clip-path="url(#clip682)" x1="1365.37" y1="403.953" x2="1365.37" y2="371.953" style="stroke:#000000; stroke-width:1.6; stroke-opacity:1"/>
<line clip-path="url(#clip682)" x1="1443.3" y1="403.953" x2="1443.3" y2="371.953" style="stroke:#000000; stroke-width:1.6; stroke-opacity:1"/>
<line clip-path="url(#clip682)" x1="1541.57" y1="403.953" x2="1541.57" y2="371.953" style="stroke:#000000; stroke-width:1.6; stroke-opacity:1"/>
<line clip-path="url(#clip682)" x1="1636.45" y1="403.953" x2="1636.45" y2="371.953" style="stroke:#000000; stroke-width:1.6; stroke-opacity:1"/>
<line clip-path="url(#clip682)" x1="1729.63" y1="403.953" x2="1729.63" y2="371.953" style="stroke:#000000; stroke-width:1.6; stroke-opacity:1"/>
<line clip-path="url(#clip682)" x1="1770.29" y1="403.953" x2="1770.29" y2="371.953" style="stroke:#000000; stroke-width:1.6; stroke-opacity:1"/>
<line clip-path="url(#clip682)" x1="1771.98" y1="403.953" x2="1771.98" y2="371.953" style="stroke:#000000; stroke-width:1.6; stroke-opacity:1"/>
<line clip-path="url(#clip682)" x1="1782.15" y1="403.953" x2="1782.15" y2="371.953" style="stroke:#000000; stroke-width:1.6; stroke-opacity:1"/>
<line clip-path="url(#clip682)" x1="1849.92" y1="403.953" x2="1849.92" y2="371.953" style="stroke:#000000; stroke-width:1.6; stroke-opacity:1"/>
<line clip-path="url(#clip682)" x1="267.518" y1="339.303" x2="267.518" y2="307.303" style="stroke:#000000; stroke-width:1.6; stroke-opacity:1"/>
<line clip-path="url(#clip682)" x1="309.874" y1="339.303" x2="309.874" y2="307.303" style="stroke:#000000; stroke-width:1.6; stroke-opacity:1"/>
<line clip-path="url(#clip682)" x1="316.65" y1="339.303" x2="316.65" y2="307.303" style="stroke:#000000; stroke-width:1.6; stroke-opacity:1"/>
<line clip-path="url(#clip682)" x1="350.535" y1="339.303" x2="350.535" y2="307.303" style="stroke:#000000; stroke-width:1.6; stroke-opacity:1"/>
<line clip-path="url(#clip682)" x1="470.824" y1="339.303" x2="470.824" y2="307.303" style="stroke:#000000; stroke-width:1.6; stroke-opacity:1"/>
<line clip-path="url(#clip682)" x1="526.733" y1="339.303" x2="526.733" y2="307.303" style="stroke:#000000; stroke-width:1.6; stroke-opacity:1"/>
<line clip-path="url(#clip682)" x1="547.064" y1="339.303" x2="547.064" y2="307.303" style="stroke:#000000; stroke-width:1.6; stroke-opacity:1"/>
<line clip-path="url(#clip682)" x1="601.279" y1="339.303" x2="601.279" y2="307.303" style="stroke:#000000; stroke-width:1.6; stroke-opacity:1"/>
<line clip-path="url(#clip682)" x1="602.973" y1="339.303" x2="602.973" y2="307.303" style="stroke:#000000; stroke-width:1.6; stroke-opacity:1"/>
<line clip-path="url(#clip682)" x1="608.056" y1="339.303" x2="608.056" y2="307.303" style="stroke:#000000; stroke-width:1.6; stroke-opacity:1"/>
<line clip-path="url(#clip682)" x1="626.692" y1="339.303" x2="626.692" y2="307.303" style="stroke:#000000; stroke-width:1.6; stroke-opacity:1"/>
<line clip-path="url(#clip682)" x1="696.155" y1="339.303" x2="696.155" y2="307.303" style="stroke:#000000; stroke-width:1.6; stroke-opacity:1"/>
<line clip-path="url(#clip682)" x1="738.511" y1="339.303" x2="738.511" y2="307.303" style="stroke:#000000; stroke-width:1.6; stroke-opacity:1"/>
<line clip-path="url(#clip682)" x1="757.147" y1="339.303" x2="757.147" y2="307.303" style="stroke:#000000; stroke-width:1.6; stroke-opacity:1"/>
<line clip-path="url(#clip682)" x1="923.18" y1="339.303" x2="923.18" y2="307.303" style="stroke:#000000; stroke-width:1.6; stroke-opacity:1"/>
<line clip-path="url(#clip682)" x1="950.288" y1="339.303" x2="950.288" y2="307.303" style="stroke:#000000; stroke-width:1.6; stroke-opacity:1"/>
<line clip-path="url(#clip682)" x1="999.42" y1="339.303" x2="999.42" y2="307.303" style="stroke:#000000; stroke-width:1.6; stroke-opacity:1"/>
<line clip-path="url(#clip682)" x1="1079.05" y1="339.303" x2="1079.05" y2="307.303" style="stroke:#000000; stroke-width:1.6; stroke-opacity:1"/>
<line clip-path="url(#clip682)" x1="1102.77" y1="339.303" x2="1102.77" y2="307.303" style="stroke:#000000; stroke-width:1.6; stroke-opacity:1"/>
<line clip-path="url(#clip682)" x1="1118.02" y1="339.303" x2="1118.02" y2="307.303" style="stroke:#000000; stroke-width:1.6; stroke-opacity:1"/>
<line clip-path="url(#clip682)" x1="1148.51" y1="339.303" x2="1148.51" y2="307.303" style="stroke:#000000; stroke-width:1.6; stroke-opacity:1"/>
<line clip-path="url(#clip682)" x1="1233.22" y1="339.303" x2="1233.22" y2="307.303" style="stroke:#000000; stroke-width:1.6; stroke-opacity:1"/>
<line clip-path="url(#clip682)" x1="1273.88" y1="339.303" x2="1273.88" y2="307.303" style="stroke:#000000; stroke-width:1.6; stroke-opacity:1"/>
<line clip-path="url(#clip682)" x1="1351.82" y1="339.303" x2="1351.82" y2="307.303" style="stroke:#000000; stroke-width:1.6; stroke-opacity:1"/>
<line clip-path="url(#clip682)" x1="1568.68" y1="339.303" x2="1568.68" y2="307.303" style="stroke:#000000; stroke-width:1.6; stroke-opacity:1"/>
<line clip-path="url(#clip682)" x1="1580.54" y1="339.303" x2="1580.54" y2="307.303" style="stroke:#000000; stroke-width:1.6; stroke-opacity:1"/>
<line clip-path="url(#clip682)" x1="1629.67" y1="339.303" x2="1629.67" y2="307.303" style="stroke:#000000; stroke-width:1.6; stroke-opacity:1"/>
<line clip-path="url(#clip682)" x1="1665.25" y1="339.303" x2="1665.25" y2="307.303" style="stroke:#000000; stroke-width:1.6; stroke-opacity:1"/>
<line clip-path="url(#clip682)" x1="1743.18" y1="339.303" x2="1743.18" y2="307.303" style="stroke:#000000; stroke-width:1.6; stroke-opacity:1"/>
<line clip-path="url(#clip682)" x1="1748.26" y1="339.303" x2="1748.26" y2="307.303" style="stroke:#000000; stroke-width:1.6; stroke-opacity:1"/>
<line clip-path="url(#clip682)" x1="1839.75" y1="339.303" x2="1839.75" y2="307.303" style="stroke:#000000; stroke-width:1.6; stroke-opacity:1"/>
<line clip-path="url(#clip682)" x1="1865.16" y1="339.303" x2="1865.16" y2="307.303" style="stroke:#000000; stroke-width:1.6; stroke-opacity:1"/>
<line clip-path="url(#clip682)" x1="247.188" y1="274.652" x2="247.188" y2="242.652" style="stroke:#000000; stroke-width:1.6; stroke-opacity:1"/>
<line clip-path="url(#clip682)" x1="253.964" y1="274.652" x2="253.964" y2="242.652" style="stroke:#000000; stroke-width:1.6; stroke-opacity:1"/>
<line clip-path="url(#clip682)" x1="279.378" y1="274.652" x2="279.378" y2="242.652" style="stroke:#000000; stroke-width:1.6; stroke-opacity:1"/>
<line clip-path="url(#clip682)" x1="357.312" y1="274.652" x2="357.312" y2="242.652" style="stroke:#000000; stroke-width:1.6; stroke-opacity:1"/>
<line clip-path="url(#clip682)" x1="364.089" y1="274.652" x2="364.089" y2="242.652" style="stroke:#000000; stroke-width:1.6; stroke-opacity:1"/>
<line clip-path="url(#clip682)" x1="392.89" y1="274.652" x2="392.89" y2="242.652" style="stroke:#000000; stroke-width:1.6; stroke-opacity:1"/>
<line clip-path="url(#clip682)" x1="403.056" y1="274.652" x2="403.056" y2="242.652" style="stroke:#000000; stroke-width:1.6; stroke-opacity:1"/>
<line clip-path="url(#clip682)" x1="467.436" y1="274.652" x2="467.436" y2="242.652" style="stroke:#000000; stroke-width:1.6; stroke-opacity:1"/>
<line clip-path="url(#clip682)" x1="531.816" y1="274.652" x2="531.816" y2="242.652" style="stroke:#000000; stroke-width:1.6; stroke-opacity:1"/>
<line clip-path="url(#clip682)" x1="541.981" y1="274.652" x2="541.981" y2="242.652" style="stroke:#000000; stroke-width:1.6; stroke-opacity:1"/>
<line clip-path="url(#clip682)" x1="743.593" y1="274.652" x2="743.593" y2="242.652" style="stroke:#000000; stroke-width:1.6; stroke-opacity:1"/>
<line clip-path="url(#clip682)" x1="748.676" y1="274.652" x2="748.676" y2="242.652" style="stroke:#000000; stroke-width:1.6; stroke-opacity:1"/>
<line clip-path="url(#clip682)" x1="823.221" y1="274.652" x2="823.221" y2="242.652" style="stroke:#000000; stroke-width:1.6; stroke-opacity:1"/>
<line clip-path="url(#clip682)" x1="926.569" y1="274.652" x2="926.569" y2="242.652" style="stroke:#000000; stroke-width:1.6; stroke-opacity:1"/>
<line clip-path="url(#clip682)" x1="1006.2" y1="274.652" x2="1006.2" y2="242.652" style="stroke:#000000; stroke-width:1.6; stroke-opacity:1"/>
<line clip-path="url(#clip682)" x1="1065.49" y1="274.652" x2="1065.49" y2="242.652" style="stroke:#000000; stroke-width:1.6; stroke-opacity:1"/>
<line clip-path="url(#clip682)" x1="1067.19" y1="274.652" x2="1067.19" y2="242.652" style="stroke:#000000; stroke-width:1.6; stroke-opacity:1"/>
<line clip-path="url(#clip682)" x1="1070.58" y1="274.652" x2="1070.58" y2="242.652" style="stroke:#000000; stroke-width:1.6; stroke-opacity:1"/>
<line clip-path="url(#clip682)" x1="1095.99" y1="274.652" x2="1095.99" y2="242.652" style="stroke:#000000; stroke-width:1.6; stroke-opacity:1"/>
<line clip-path="url(#clip682)" x1="1146.82" y1="274.652" x2="1146.82" y2="242.652" style="stroke:#000000; stroke-width:1.6; stroke-opacity:1"/>
<line clip-path="url(#clip682)" x1="1187.48" y1="274.652" x2="1187.48" y2="242.652" style="stroke:#000000; stroke-width:1.6; stroke-opacity:1"/>
<line clip-path="url(#clip682)" x1="1358.59" y1="274.652" x2="1358.59" y2="242.652" style="stroke:#000000; stroke-width:1.6; stroke-opacity:1"/>
<line clip-path="url(#clip682)" x1="1456.86" y1="274.652" x2="1456.86" y2="242.652" style="stroke:#000000; stroke-width:1.6; stroke-opacity:1"/>
<line clip-path="url(#clip682)" x1="1477.19" y1="274.652" x2="1477.19" y2="242.652" style="stroke:#000000; stroke-width:1.6; stroke-opacity:1"/>
<line clip-path="url(#clip682)" x1="1538.18" y1="274.652" x2="1538.18" y2="242.652" style="stroke:#000000; stroke-width:1.6; stroke-opacity:1"/>
<line clip-path="url(#clip682)" x1="1550.04" y1="274.652" x2="1550.04" y2="242.652" style="stroke:#000000; stroke-width:1.6; stroke-opacity:1"/>
<line clip-path="url(#clip682)" x1="1551.73" y1="274.652" x2="1551.73" y2="242.652" style="stroke:#000000; stroke-width:1.6; stroke-opacity:1"/>
<line clip-path="url(#clip682)" x1="1556.82" y1="274.652" x2="1556.82" y2="242.652" style="stroke:#000000; stroke-width:1.6; stroke-opacity:1"/>
<line clip-path="url(#clip682)" x1="1585.62" y1="274.652" x2="1585.62" y2="242.652" style="stroke:#000000; stroke-width:1.6; stroke-opacity:1"/>
<line clip-path="url(#clip682)" x1="1604.26" y1="274.652" x2="1604.26" y2="242.652" style="stroke:#000000; stroke-width:1.6; stroke-opacity:1"/>
<line clip-path="url(#clip682)" x1="1627.97" y1="274.652" x2="1627.97" y2="242.652" style="stroke:#000000; stroke-width:1.6; stroke-opacity:1"/>
<line clip-path="url(#clip682)" x1="1697.44" y1="274.652" x2="1697.44" y2="242.652" style="stroke:#000000; stroke-width:1.6; stroke-opacity:1"/>
<line clip-path="url(#clip682)" x1="1802.48" y1="274.652" x2="1802.48" y2="242.652" style="stroke:#000000; stroke-width:1.6; stroke-opacity:1"/>
<line clip-path="url(#clip682)" x1="1865.16" y1="274.652" x2="1865.16" y2="242.652" style="stroke:#000000; stroke-width:1.6; stroke-opacity:1"/>
<line clip-path="url(#clip682)" x1="1866.86" y1="274.652" x2="1866.86" y2="242.652" style="stroke:#000000; stroke-width:1.6; stroke-opacity:1"/>
<line clip-path="url(#clip682)" x1="1877.02" y1="274.652" x2="1877.02" y2="242.652" style="stroke:#000000; stroke-width:1.6; stroke-opacity:1"/>
<line clip-path="url(#clip682)" x1="238.716" y1="210.001" x2="238.716" y2="178.001" style="stroke:#000000; stroke-width:1.6; stroke-opacity:1"/>
<line clip-path="url(#clip682)" x1="294.626" y1="210.001" x2="294.626" y2="178.001" style="stroke:#000000; stroke-width:1.6; stroke-opacity:1"/>
<line clip-path="url(#clip682)" x1="350.535" y1="210.001" x2="350.535" y2="178.001" style="stroke:#000000; stroke-width:1.6; stroke-opacity:1"/>
<line clip-path="url(#clip682)" x1="480.99" y1="210.001" x2="480.99" y2="178.001" style="stroke:#000000; stroke-width:1.6; stroke-opacity:1"/>
<line clip-path="url(#clip682)" x1="504.709" y1="210.001" x2="504.709" y2="178.001" style="stroke:#000000; stroke-width:1.6; stroke-opacity:1"/>
<line clip-path="url(#clip682)" x1="521.651" y1="210.001" x2="521.651" y2="178.001" style="stroke:#000000; stroke-width:1.6; stroke-opacity:1"/>
<line clip-path="url(#clip682)" x1="757.147" y1="210.001" x2="757.147" y2="178.001" style="stroke:#000000; stroke-width:1.6; stroke-opacity:1"/>
<line clip-path="url(#clip682)" x1="819.833" y1="210.001" x2="819.833" y2="178.001" style="stroke:#000000; stroke-width:1.6; stroke-opacity:1"/>
<line clip-path="url(#clip682)" x1="848.635" y1="210.001" x2="848.635" y2="178.001" style="stroke:#000000; stroke-width:1.6; stroke-opacity:1"/>
<line clip-path="url(#clip682)" x1="868.965" y1="210.001" x2="868.965" y2="178.001" style="stroke:#000000; stroke-width:1.6; stroke-opacity:1"/>
<line clip-path="url(#clip682)" x1="935.04" y1="210.001" x2="935.04" y2="178.001" style="stroke:#000000; stroke-width:1.6; stroke-opacity:1"/>
<line clip-path="url(#clip682)" x1="1019.75" y1="210.001" x2="1019.75" y2="178.001" style="stroke:#000000; stroke-width:1.6; stroke-opacity:1"/>
<line clip-path="url(#clip682)" x1="1038.39" y1="210.001" x2="1038.39" y2="178.001" style="stroke:#000000; stroke-width:1.6; stroke-opacity:1"/>
<line clip-path="url(#clip682)" x1="1048.55" y1="210.001" x2="1048.55" y2="178.001" style="stroke:#000000; stroke-width:1.6; stroke-opacity:1"/>
<line clip-path="url(#clip682)" x1="1084.13" y1="210.001" x2="1084.13" y2="178.001" style="stroke:#000000; stroke-width:1.6; stroke-opacity:1"/>
<line clip-path="url(#clip682)" x1="1112.93" y1="210.001" x2="1112.93" y2="178.001" style="stroke:#000000; stroke-width:1.6; stroke-opacity:1"/>
<line clip-path="url(#clip682)" x1="1151.9" y1="210.001" x2="1151.9" y2="178.001" style="stroke:#000000; stroke-width:1.6; stroke-opacity:1"/>
<line clip-path="url(#clip682)" x1="1177.31" y1="210.001" x2="1177.31" y2="178.001" style="stroke:#000000; stroke-width:1.6; stroke-opacity:1"/>
<line clip-path="url(#clip682)" x1="1182.4" y1="210.001" x2="1182.4" y2="178.001" style="stroke:#000000; stroke-width:1.6; stroke-opacity:1"/>
<line clip-path="url(#clip682)" x1="1260.33" y1="210.001" x2="1260.33" y2="178.001" style="stroke:#000000; stroke-width:1.6; stroke-opacity:1"/>
<line clip-path="url(#clip682)" x1="1470.41" y1="210.001" x2="1470.41" y2="178.001" style="stroke:#000000; stroke-width:1.6; stroke-opacity:1"/>
<line clip-path="url(#clip682)" x1="1583.92" y1="210.001" x2="1583.92" y2="178.001" style="stroke:#000000; stroke-width:1.6; stroke-opacity:1"/>
<line clip-path="url(#clip682)" x1="1604.26" y1="210.001" x2="1604.26" y2="178.001" style="stroke:#000000; stroke-width:1.6; stroke-opacity:1"/>
<line clip-path="url(#clip682)" x1="1639.83" y1="210.001" x2="1639.83" y2="178.001" style="stroke:#000000; stroke-width:1.6; stroke-opacity:1"/>
<line clip-path="url(#clip682)" x1="1656.78" y1="210.001" x2="1656.78" y2="178.001" style="stroke:#000000; stroke-width:1.6; stroke-opacity:1"/>
<line clip-path="url(#clip682)" x1="1812.64" y1="210.001" x2="1812.64" y2="178.001" style="stroke:#000000; stroke-width:1.6; stroke-opacity:1"/>
<line clip-path="url(#clip682)" x1="1871.94" y1="210.001" x2="1871.94" y2="178.001" style="stroke:#000000; stroke-width:1.6; stroke-opacity:1"/>
<line clip-path="url(#clip682)" x1="281.072" y1="145.35" x2="281.072" y2="113.35" style="stroke:#000000; stroke-width:1.6; stroke-opacity:1"/>
<line clip-path="url(#clip682)" x1="282.766" y1="145.35" x2="282.766" y2="113.35" style="stroke:#000000; stroke-width:1.6; stroke-opacity:1"/>
<line clip-path="url(#clip682)" x1="381.031" y1="145.35" x2="381.031" y2="113.35" style="stroke:#000000; stroke-width:1.6; stroke-opacity:1"/>
<line clip-path="url(#clip682)" x1="411.527" y1="145.35" x2="411.527" y2="113.35" style="stroke:#000000; stroke-width:1.6; stroke-opacity:1"/>
<line clip-path="url(#clip682)" x1="436.94" y1="145.35" x2="436.94" y2="113.35" style="stroke:#000000; stroke-width:1.6; stroke-opacity:1"/>
<line clip-path="url(#clip682)" x1="509.791" y1="145.35" x2="509.791" y2="113.35" style="stroke:#000000; stroke-width:1.6; stroke-opacity:1"/>
<line clip-path="url(#clip682)" x1="525.039" y1="145.35" x2="525.039" y2="113.35" style="stroke:#000000; stroke-width:1.6; stroke-opacity:1"/>
<line clip-path="url(#clip682)" x1="538.593" y1="145.35" x2="538.593" y2="113.35" style="stroke:#000000; stroke-width:1.6; stroke-opacity:1"/>
<line clip-path="url(#clip682)" x1="577.56" y1="145.35" x2="577.56" y2="113.35" style="stroke:#000000; stroke-width:1.6; stroke-opacity:1"/>
<line clip-path="url(#clip682)" x1="580.948" y1="145.35" x2="580.948" y2="113.35" style="stroke:#000000; stroke-width:1.6; stroke-opacity:1"/>
<line clip-path="url(#clip682)" x1="587.725" y1="145.35" x2="587.725" y2="113.35" style="stroke:#000000; stroke-width:1.6; stroke-opacity:1"/>
<line clip-path="url(#clip682)" x1="647.023" y1="145.35" x2="647.023" y2="113.35" style="stroke:#000000; stroke-width:1.6; stroke-opacity:1"/>
<line clip-path="url(#clip682)" x1="650.411" y1="145.35" x2="650.411" y2="113.35" style="stroke:#000000; stroke-width:1.6; stroke-opacity:1"/>
<line clip-path="url(#clip682)" x1="721.568" y1="145.35" x2="721.568" y2="113.35" style="stroke:#000000; stroke-width:1.6; stroke-opacity:1"/>
<line clip-path="url(#clip682)" x1="802.891" y1="145.35" x2="802.891" y2="113.35" style="stroke:#000000; stroke-width:1.6; stroke-opacity:1"/>
<line clip-path="url(#clip682)" x1="858.8" y1="145.35" x2="858.8" y2="113.35" style="stroke:#000000; stroke-width:1.6; stroke-opacity:1"/>
<line clip-path="url(#clip682)" x1="1075.66" y1="145.35" x2="1075.66" y2="113.35" style="stroke:#000000; stroke-width:1.6; stroke-opacity:1"/>
<line clip-path="url(#clip682)" x1="1145.12" y1="145.35" x2="1145.12" y2="113.35" style="stroke:#000000; stroke-width:1.6; stroke-opacity:1"/>
<line clip-path="url(#clip682)" x1="1167.15" y1="145.35" x2="1167.15" y2="113.35" style="stroke:#000000; stroke-width:1.6; stroke-opacity:1"/>
<line clip-path="url(#clip682)" x1="1216.28" y1="145.35" x2="1216.28" y2="113.35" style="stroke:#000000; stroke-width:1.6; stroke-opacity:1"/>
<line clip-path="url(#clip682)" x1="1394.17" y1="145.35" x2="1394.17" y2="113.35" style="stroke:#000000; stroke-width:1.6; stroke-opacity:1"/>
<line clip-path="url(#clip682)" x1="1443.3" y1="145.35" x2="1443.3" y2="113.35" style="stroke:#000000; stroke-width:1.6; stroke-opacity:1"/>
<line clip-path="url(#clip682)" x1="1446.69" y1="145.35" x2="1446.69" y2="113.35" style="stroke:#000000; stroke-width:1.6; stroke-opacity:1"/>
<line clip-path="url(#clip682)" x1="1512.77" y1="145.35" x2="1512.77" y2="113.35" style="stroke:#000000; stroke-width:1.6; stroke-opacity:1"/>
<line clip-path="url(#clip682)" x1="1529.71" y1="145.35" x2="1529.71" y2="113.35" style="stroke:#000000; stroke-width:1.6; stroke-opacity:1"/>
<line clip-path="url(#clip682)" x1="1592.4" y1="145.35" x2="1592.4" y2="113.35" style="stroke:#000000; stroke-width:1.6; stroke-opacity:1"/>
<line clip-path="url(#clip682)" x1="1673.72" y1="145.35" x2="1673.72" y2="113.35" style="stroke:#000000; stroke-width:1.6; stroke-opacity:1"/>
<line clip-path="url(#clip682)" x1="1722.85" y1="145.35" x2="1722.85" y2="113.35" style="stroke:#000000; stroke-width:1.6; stroke-opacity:1"/>
<line clip-path="url(#clip682)" x1="1821.12" y1="145.35" x2="1821.12" y2="113.35" style="stroke:#000000; stroke-width:1.6; stroke-opacity:1"/>
<line clip-path="url(#clip682)" x1="237.022" y1="80.6998" x2="237.022" y2="48.6998" style="stroke:#000000; stroke-width:1.6; stroke-opacity:1"/>
<line clip-path="url(#clip682)" x1="242.105" y1="80.6998" x2="242.105" y2="48.6998" style="stroke:#000000; stroke-width:1.6; stroke-opacity:1"/>
<line clip-path="url(#clip682)" x1="303.097" y1="80.6998" x2="303.097" y2="48.6998" style="stroke:#000000; stroke-width:1.6; stroke-opacity:1"/>
<line clip-path="url(#clip682)" x1="326.816" y1="80.6998" x2="326.816" y2="48.6998" style="stroke:#000000; stroke-width:1.6; stroke-opacity:1"/>
<line clip-path="url(#clip682)" x1="452.188" y1="80.6998" x2="452.188" y2="48.6998" style="stroke:#000000; stroke-width:1.6; stroke-opacity:1"/>
<line clip-path="url(#clip682)" x1="730.039" y1="80.6998" x2="730.039" y2="48.6998" style="stroke:#000000; stroke-width:1.6; stroke-opacity:1"/>
<line clip-path="url(#clip682)" x1="821.527" y1="80.6998" x2="821.527" y2="48.6998" style="stroke:#000000; stroke-width:1.6; stroke-opacity:1"/>
<line clip-path="url(#clip682)" x1="885.907" y1="80.6998" x2="885.907" y2="48.6998" style="stroke:#000000; stroke-width:1.6; stroke-opacity:1"/>
<line clip-path="url(#clip682)" x1="1033.3" y1="80.6998" x2="1033.3" y2="48.6998" style="stroke:#000000; stroke-width:1.6; stroke-opacity:1"/>
<line clip-path="url(#clip682)" x1="1045.16" y1="80.6998" x2="1045.16" y2="48.6998" style="stroke:#000000; stroke-width:1.6; stroke-opacity:1"/>
<line clip-path="url(#clip682)" x1="1106.16" y1="80.6998" x2="1106.16" y2="48.6998" style="stroke:#000000; stroke-width:1.6; stroke-opacity:1"/>
<line clip-path="url(#clip682)" x1="1111.24" y1="80.6998" x2="1111.24" y2="48.6998" style="stroke:#000000; stroke-width:1.6; stroke-opacity:1"/>
<line clip-path="url(#clip682)" x1="1131.57" y1="80.6998" x2="1131.57" y2="48.6998" style="stroke:#000000; stroke-width:1.6; stroke-opacity:1"/>
<line clip-path="url(#clip682)" x1="1187.48" y1="80.6998" x2="1187.48" y2="48.6998" style="stroke:#000000; stroke-width:1.6; stroke-opacity:1"/>
<line clip-path="url(#clip682)" x1="1194.25" y1="80.6998" x2="1194.25" y2="48.6998" style="stroke:#000000; stroke-width:1.6; stroke-opacity:1"/>
<line clip-path="url(#clip682)" x1="1240" y1="80.6998" x2="1240" y2="48.6998" style="stroke:#000000; stroke-width:1.6; stroke-opacity:1"/>
<line clip-path="url(#clip682)" x1="1478.88" y1="80.6998" x2="1478.88" y2="48.6998" style="stroke:#000000; stroke-width:1.6; stroke-opacity:1"/>
<line clip-path="url(#clip682)" x1="1480.58" y1="80.6998" x2="1480.58" y2="48.6998" style="stroke:#000000; stroke-width:1.6; stroke-opacity:1"/>
<line clip-path="url(#clip682)" x1="1524.63" y1="80.6998" x2="1524.63" y2="48.6998" style="stroke:#000000; stroke-width:1.6; stroke-opacity:1"/>
<line clip-path="url(#clip682)" x1="1563.59" y1="80.6998" x2="1563.59" y2="48.6998" style="stroke:#000000; stroke-width:1.6; stroke-opacity:1"/>
<line clip-path="url(#clip682)" x1="1587.31" y1="80.6998" x2="1587.31" y2="48.6998" style="stroke:#000000; stroke-width:1.6; stroke-opacity:1"/>
<line clip-path="url(#clip682)" x1="1595.78" y1="80.6998" x2="1595.78" y2="48.6998" style="stroke:#000000; stroke-width:1.6; stroke-opacity:1"/>
<line clip-path="url(#clip682)" x1="1641.53" y1="80.6998" x2="1641.53" y2="48.6998" style="stroke:#000000; stroke-width:1.6; stroke-opacity:1"/>
<line clip-path="url(#clip682)" x1="1668.64" y1="80.6998" x2="1668.64" y2="48.6998" style="stroke:#000000; stroke-width:1.6; stroke-opacity:1"/>
<line clip-path="url(#clip682)" x1="1680.5" y1="80.6998" x2="1680.5" y2="48.6998" style="stroke:#000000; stroke-width:1.6; stroke-opacity:1"/>
<line clip-path="url(#clip682)" x1="1705.91" y1="80.6998" x2="1705.91" y2="48.6998" style="stroke:#000000; stroke-width:1.6; stroke-opacity:1"/>
<line clip-path="url(#clip682)" x1="1712.69" y1="80.6998" x2="1712.69" y2="48.6998" style="stroke:#000000; stroke-width:1.6; stroke-opacity:1"/>
<line clip-path="url(#clip682)" x1="1870.25" y1="80.6998" x2="1870.25" y2="48.6998" style="stroke:#000000; stroke-width:1.6; stroke-opacity:1"/>
</svg>
