<?xml version"1.0" encoding="UTF-8"?>
<!DOCTYPE svg PUBLIC "-//W3C//DTD SVG 1.1//EN"
 "http://www.w3.org/Graphics/SVG/1.1/DTD/svg11.dtd">
<svg xmlns="http://www.w3.org/2000/svg" version="1.1"
     width="149.0mm" height="5.5mm"
     shape-rendering="crispEdges">
<text x="129.0mm" y="3.8mm" font-size="3mm">turbo</text><rect x="0.0mm" y="0.0mm" width="0.5mm" height="5mm" fill="#30123B" stroke="none" /><rect x="0.5mm" y="0.0mm" width="0.5mm" height="5mm" fill="#321543" stroke="none" /><rect x="1.0mm" y="0.0mm" width="0.5mm" height="5mm" fill="#33184A" stroke="none" /><rect x="1.5mm" y="0.0mm" width="0.5mm" height="5mm" fill="#341B51" stroke="none" /><rect x="2.0mm" y="0.0mm" width="0.5mm" height="5mm" fill="#351E58" stroke="none" /><rect x="2.5mm" y="0.0mm" width="0.5mm" height="5mm" fill="#36215F" stroke="none" /><rect x="3.0mm" y="0.0mm" width="0.5mm" height="5mm" fill="#372466" stroke="none" /><rect x="3.5mm" y="0.0mm" width="0.5mm" height="5mm" fill="#38276D" stroke="none" /><rect x="4.0mm" y="0.0mm" width="0.5mm" height="5mm" fill="#392A73" stroke="none" /><rect x="4.5mm" y="0.0mm" width="0.5mm" height="5mm" fill="#3A2D79" stroke="none" /><rect x="5.0mm" y="0.0mm" width="0.5mm" height="5mm" fill="#3B2F80" stroke="none" /><rect x="5.5mm" y="0.0mm" width="0.5mm" height="5mm" fill="#3C3286" stroke="none" /><rect x="6.0mm" y="0.0mm" width="0.5mm" height="5mm" fill="#3D358B" stroke="none" /><rect x="6.5mm" y="0.0mm" width="0.5mm" height="5mm" fill="#3E3891" stroke="none" /><rect x="7.0mm" y="0.0mm" width="0.5mm" height="5mm" fill="#3F3B97" stroke="none" /><rect x="7.5mm" y="0.0mm" width="0.5mm" height="5mm" fill="#3F3E9C" stroke="none" /><rect x="8.0mm" y="0.0mm" width="0.5mm" height="5mm" fill="#4040A2" stroke="none" /><rect x="8.5mm" y="0.0mm" width="0.5mm" height="5mm" fill="#4143A7" stroke="none" /><rect x="9.0mm" y="0.0mm" width="0.5mm" height="5mm" fill="#4146AC" stroke="none" /><rect x="9.5mm" y="0.0mm" width="0.5mm" height="5mm" fill="#4249B1" stroke="none" /><rect x="10.0mm" y="0.0mm" width="0.5mm" height="5mm" fill="#424BB5" stroke="none" /><rect x="10.5mm" y="0.0mm" width="0.5mm" height="5mm" fill="#434EBA" stroke="none" /><rect x="11.0mm" y="0.0mm" width="0.5mm" height="5mm" fill="#4451BF" stroke="none" /><rect x="11.5mm" y="0.0mm" width="0.5mm" height="5mm" fill="#4454C3" stroke="none" /><rect x="12.0mm" y="0.0mm" width="0.5mm" height="5mm" fill="#4456C7" stroke="none" /><rect x="12.5mm" y="0.0mm" width="0.5mm" height="5mm" fill="#4559CB" stroke="none" /><rect x="13.0mm" y="0.0mm" width="0.5mm" height="5mm" fill="#455CCF" stroke="none" /><rect x="13.5mm" y="0.0mm" width="0.5mm" height="5mm" fill="#455ED3" stroke="none" /><rect x="14.0mm" y="0.0mm" width="0.5mm" height="5mm" fill="#4661D6" stroke="none" /><rect x="14.5mm" y="0.0mm" width="0.5mm" height="5mm" fill="#4664DA" stroke="none" /><rect x="15.0mm" y="0.0mm" width="0.5mm" height="5mm" fill="#4666DD" stroke="none" /><rect x="15.5mm" y="0.0mm" width="0.5mm" height="5mm" fill="#4669E0" stroke="none" /><rect x="16.0mm" y="0.0mm" width="0.5mm" height="5mm" fill="#466BE3" stroke="none" /><rect x="16.5mm" y="0.0mm" width="0.5mm" height="5mm" fill="#476EE6" stroke="none" /><rect x="17.0mm" y="0.0mm" width="0.5mm" height="5mm" fill="#4771E9" stroke="none" /><rect x="17.5mm" y="0.0mm" width="0.5mm" height="5mm" fill="#4773EB" stroke="none" /><rect x="18.0mm" y="0.0mm" width="0.5mm" height="5mm" fill="#4776EE" stroke="none" /><rect x="18.5mm" y="0.0mm" width="0.5mm" height="5mm" fill="#4778F0" stroke="none" /><rect x="19.0mm" y="0.0mm" width="0.5mm" height="5mm" fill="#477BF2" stroke="none" /><rect x="19.5mm" y="0.0mm" width="0.5mm" height="5mm" fill="#467DF4" stroke="none" /><rect x="20.0mm" y="0.0mm" width="0.5mm" height="5mm" fill="#4680F6" stroke="none" /><rect x="20.5mm" y="0.0mm" width="0.5mm" height="5mm" fill="#4682F8" stroke="none" /><rect x="21.0mm" y="0.0mm" width="0.5mm" height="5mm" fill="#4685FA" stroke="none" /><rect x="21.5mm" y="0.0mm" width="0.5mm" height="5mm" fill="#4687FB" stroke="none" /><rect x="22.0mm" y="0.0mm" width="0.5mm" height="5mm" fill="#458AFC" stroke="none" /><rect x="22.5mm" y="0.0mm" width="0.5mm" height="5mm" fill="#458CFD" stroke="none" /><rect x="23.0mm" y="0.0mm" width="0.5mm" height="5mm" fill="#448FFE" stroke="none" /><rect x="23.5mm" y="0.0mm" width="0.5mm" height="5mm" fill="#4391FE" stroke="none" /><rect x="24.0mm" y="0.0mm" width="0.5mm" height="5mm" fill="#4294FF" stroke="none" /><rect x="24.5mm" y="0.0mm" width="0.5mm" height="5mm" fill="#4196FF" stroke="none" /><rect x="25.0mm" y="0.0mm" width="0.5mm" height="5mm" fill="#4099FF" stroke="none" /><rect x="25.5mm" y="0.0mm" width="0.5mm" height="5mm" fill="#3E9BFE" stroke="none" /><rect x="26.0mm" y="0.0mm" width="0.5mm" height="5mm" fill="#3D9EFE" stroke="none" /><rect x="26.5mm" y="0.0mm" width="0.5mm" height="5mm" fill="#3BA0FD" stroke="none" /><rect x="27.0mm" y="0.0mm" width="0.5mm" height="5mm" fill="#3AA3FC" stroke="none" /><rect x="27.5mm" y="0.0mm" width="0.5mm" height="5mm" fill="#38A5FB" stroke="none" /><rect x="28.0mm" y="0.0mm" width="0.5mm" height="5mm" fill="#37A8FA" stroke="none" /><rect x="28.5mm" y="0.0mm" width="0.5mm" height="5mm" fill="#35ABF8" stroke="none" /><rect x="29.0mm" y="0.0mm" width="0.5mm" height="5mm" fill="#33ADF7" stroke="none" /><rect x="29.5mm" y="0.0mm" width="0.5mm" height="5mm" fill="#31AFF5" stroke="none" /><rect x="30.0mm" y="0.0mm" width="0.5mm" height="5mm" fill="#2FB2F4" stroke="none" /><rect x="30.5mm" y="0.0mm" width="0.5mm" height="5mm" fill="#2EB4F2" stroke="none" /><rect x="31.0mm" y="0.0mm" width="0.5mm" height="5mm" fill="#2CB7F0" stroke="none" /><rect x="31.5mm" y="0.0mm" width="0.5mm" height="5mm" fill="#2AB9EE" stroke="none" /><rect x="32.0mm" y="0.0mm" width="0.5mm" height="5mm" fill="#28BCEB" stroke="none" /><rect x="32.5mm" y="0.0mm" width="0.5mm" height="5mm" fill="#27BEE9" stroke="none" /><rect x="33.0mm" y="0.0mm" width="0.5mm" height="5mm" fill="#25C0E7" stroke="none" /><rect x="33.5mm" y="0.0mm" width="0.5mm" height="5mm" fill="#23C3E4" stroke="none" /><rect x="34.0mm" y="0.0mm" width="0.5mm" height="5mm" fill="#22C5E2" stroke="none" /><rect x="34.5mm" y="0.0mm" width="0.5mm" height="5mm" fill="#20C7DF" stroke="none" /><rect x="35.0mm" y="0.0mm" width="0.5mm" height="5mm" fill="#1FC9DD" stroke="none" /><rect x="35.5mm" y="0.0mm" width="0.5mm" height="5mm" fill="#1ECBDA" stroke="none" /><rect x="36.0mm" y="0.0mm" width="0.5mm" height="5mm" fill="#1CCDD8" stroke="none" /><rect x="36.5mm" y="0.0mm" width="0.5mm" height="5mm" fill="#1BD0D5" stroke="none" /><rect x="37.0mm" y="0.0mm" width="0.5mm" height="5mm" fill="#1AD2D2" stroke="none" /><rect x="37.5mm" y="0.0mm" width="0.5mm" height="5mm" fill="#1AD4D0" stroke="none" /><rect x="38.0mm" y="0.0mm" width="0.5mm" height="5mm" fill="#19D5CD" stroke="none" /><rect x="38.5mm" y="0.0mm" width="0.5mm" height="5mm" fill="#18D7CA" stroke="none" /><rect x="39.0mm" y="0.0mm" width="0.5mm" height="5mm" fill="#18D9C8" stroke="none" /><rect x="39.5mm" y="0.0mm" width="0.5mm" height="5mm" fill="#18DBC5" stroke="none" /><rect x="40.0mm" y="0.0mm" width="0.5mm" height="5mm" fill="#18DDC2" stroke="none" /><rect x="40.5mm" y="0.0mm" width="0.5mm" height="5mm" fill="#18DEC0" stroke="none" /><rect x="41.0mm" y="0.0mm" width="0.5mm" height="5mm" fill="#18E0BD" stroke="none" /><rect x="41.5mm" y="0.0mm" width="0.5mm" height="5mm" fill="#19E2BB" stroke="none" /><rect x="42.0mm" y="0.0mm" width="0.5mm" height="5mm" fill="#19E3B9" stroke="none" /><rect x="42.5mm" y="0.0mm" width="0.5mm" height="5mm" fill="#1AE4B6" stroke="none" /><rect x="43.0mm" y="0.0mm" width="0.5mm" height="5mm" fill="#1CE6B4" stroke="none" /><rect x="43.5mm" y="0.0mm" width="0.5mm" height="5mm" fill="#1DE7B2" stroke="none" /><rect x="44.0mm" y="0.0mm" width="0.5mm" height="5mm" fill="#1FE9AF" stroke="none" /><rect x="44.5mm" y="0.0mm" width="0.5mm" height="5mm" fill="#20EAAC" stroke="none" /><rect x="45.0mm" y="0.0mm" width="0.5mm" height="5mm" fill="#22EBAA" stroke="none" /><rect x="45.5mm" y="0.0mm" width="0.5mm" height="5mm" fill="#25ECA7" stroke="none" /><rect x="46.0mm" y="0.0mm" width="0.5mm" height="5mm" fill="#27EEA4" stroke="none" /><rect x="46.5mm" y="0.0mm" width="0.5mm" height="5mm" fill="#2AEFA1" stroke="none" /><rect x="47.0mm" y="0.0mm" width="0.5mm" height="5mm" fill="#2CF09E" stroke="none" /><rect x="47.5mm" y="0.0mm" width="0.5mm" height="5mm" fill="#2FF19B" stroke="none" /><rect x="48.0mm" y="0.0mm" width="0.5mm" height="5mm" fill="#32F298" stroke="none" /><rect x="48.5mm" y="0.0mm" width="0.5mm" height="5mm" fill="#35F394" stroke="none" /><rect x="49.0mm" y="0.0mm" width="0.5mm" height="5mm" fill="#38F491" stroke="none" /><rect x="49.5mm" y="0.0mm" width="0.5mm" height="5mm" fill="#3CF58E" stroke="none" /><rect x="50.0mm" y="0.0mm" width="0.5mm" height="5mm" fill="#3FF68A" stroke="none" /><rect x="50.5mm" y="0.0mm" width="0.5mm" height="5mm" fill="#43F787" stroke="none" /><rect x="51.0mm" y="0.0mm" width="0.5mm" height="5mm" fill="#46F884" stroke="none" /><rect x="51.5mm" y="0.0mm" width="0.5mm" height="5mm" fill="#4AF880" stroke="none" /><rect x="52.0mm" y="0.0mm" width="0.5mm" height="5mm" fill="#4EF97D" stroke="none" /><rect x="52.5mm" y="0.0mm" width="0.5mm" height="5mm" fill="#52FA7A" stroke="none" /><rect x="53.0mm" y="0.0mm" width="0.5mm" height="5mm" fill="#55FA76" stroke="none" /><rect x="53.5mm" y="0.0mm" width="0.5mm" height="5mm" fill="#59FB73" stroke="none" /><rect x="54.0mm" y="0.0mm" width="0.5mm" height="5mm" fill="#5DFC6F" stroke="none" /><rect x="54.5mm" y="0.0mm" width="0.5mm" height="5mm" fill="#61FC6C" stroke="none" /><rect x="55.0mm" y="0.0mm" width="0.5mm" height="5mm" fill="#65FD69" stroke="none" /><rect x="55.5mm" y="0.0mm" width="0.5mm" height="5mm" fill="#69FD66" stroke="none" /><rect x="56.0mm" y="0.0mm" width="0.5mm" height="5mm" fill="#6DFE62" stroke="none" /><rect x="56.5mm" y="0.0mm" width="0.5mm" height="5mm" fill="#71FE5F" stroke="none" /><rect x="57.0mm" y="0.0mm" width="0.5mm" height="5mm" fill="#75FE5C" stroke="none" /><rect x="57.5mm" y="0.0mm" width="0.5mm" height="5mm" fill="#79FE59" stroke="none" /><rect x="58.0mm" y="0.0mm" width="0.5mm" height="5mm" fill="#7DFF56" stroke="none" /><rect x="58.5mm" y="0.0mm" width="0.5mm" height="5mm" fill="#80FF53" stroke="none" /><rect x="59.0mm" y="0.0mm" width="0.5mm" height="5mm" fill="#84FF51" stroke="none" /><rect x="59.5mm" y="0.0mm" width="0.5mm" height="5mm" fill="#88FF4E" stroke="none" /><rect x="60.0mm" y="0.0mm" width="0.5mm" height="5mm" fill="#8BFF4B" stroke="none" /><rect x="60.5mm" y="0.0mm" width="0.5mm" height="5mm" fill="#8FFF49" stroke="none" /><rect x="61.0mm" y="0.0mm" width="0.5mm" height="5mm" fill="#92FF47" stroke="none" /><rect x="61.5mm" y="0.0mm" width="0.5mm" height="5mm" fill="#96FE44" stroke="none" /><rect x="62.0mm" y="0.0mm" width="0.5mm" height="5mm" fill="#99FE42" stroke="none" /><rect x="62.5mm" y="0.0mm" width="0.5mm" height="5mm" fill="#9CFE40" stroke="none" /><rect x="63.0mm" y="0.0mm" width="0.5mm" height="5mm" fill="#9FFD3F" stroke="none" /><rect x="63.5mm" y="0.0mm" width="0.5mm" height="5mm" fill="#A1FD3D" stroke="none" /><rect x="64.0mm" y="0.0mm" width="0.5mm" height="5mm" fill="#A4FC3C" stroke="none" /><rect x="64.5mm" y="0.0mm" width="0.5mm" height="5mm" fill="#A7FC3A" stroke="none" /><rect x="65.0mm" y="0.0mm" width="0.5mm" height="5mm" fill="#A9FB39" stroke="none" /><rect x="65.5mm" y="0.0mm" width="0.5mm" height="5mm" fill="#ACFB38" stroke="none" /><rect x="66.0mm" y="0.0mm" width="0.5mm" height="5mm" fill="#AFFA37" stroke="none" /><rect x="66.5mm" y="0.0mm" width="0.5mm" height="5mm" fill="#B1F936" stroke="none" /><rect x="67.0mm" y="0.0mm" width="0.5mm" height="5mm" fill="#B4F836" stroke="none" /><rect x="67.5mm" y="0.0mm" width="0.5mm" height="5mm" fill="#B7F735" stroke="none" /><rect x="68.0mm" y="0.0mm" width="0.5mm" height="5mm" fill="#B9F635" stroke="none" /><rect x="68.5mm" y="0.0mm" width="0.5mm" height="5mm" fill="#BCF534" stroke="none" /><rect x="69.0mm" y="0.0mm" width="0.5mm" height="5mm" fill="#BEF434" stroke="none" /><rect x="69.5mm" y="0.0mm" width="0.5mm" height="5mm" fill="#C1F334" stroke="none" /><rect x="70.0mm" y="0.0mm" width="0.5mm" height="5mm" fill="#C3F134" stroke="none" /><rect x="70.5mm" y="0.0mm" width="0.5mm" height="5mm" fill="#C6F034" stroke="none" /><rect x="71.0mm" y="0.0mm" width="0.5mm" height="5mm" fill="#C8EF34" stroke="none" /><rect x="71.5mm" y="0.0mm" width="0.5mm" height="5mm" fill="#CBED34" stroke="none" /><rect x="72.0mm" y="0.0mm" width="0.5mm" height="5mm" fill="#CDEC34" stroke="none" /><rect x="72.5mm" y="0.0mm" width="0.5mm" height="5mm" fill="#D0EA34" stroke="none" /><rect x="73.0mm" y="0.0mm" width="0.5mm" height="5mm" fill="#D2E935" stroke="none" /><rect x="73.5mm" y="0.0mm" width="0.5mm" height="5mm" fill="#D4E735" stroke="none" /><rect x="74.0mm" y="0.0mm" width="0.5mm" height="5mm" fill="#D7E535" stroke="none" /><rect x="74.5mm" y="0.0mm" width="0.5mm" height="5mm" fill="#D9E436" stroke="none" /><rect x="75.0mm" y="0.0mm" width="0.5mm" height="5mm" fill="#DBE236" stroke="none" /><rect x="75.5mm" y="0.0mm" width="0.5mm" height="5mm" fill="#DDE037" stroke="none" /><rect x="76.0mm" y="0.0mm" width="0.5mm" height="5mm" fill="#DFDF37" stroke="none" /><rect x="76.5mm" y="0.0mm" width="0.5mm" height="5mm" fill="#E1DD37" stroke="none" /><rect x="77.0mm" y="0.0mm" width="0.5mm" height="5mm" fill="#E3DB38" stroke="none" /><rect x="77.5mm" y="0.0mm" width="0.5mm" height="5mm" fill="#E5D938" stroke="none" /><rect x="78.0mm" y="0.0mm" width="0.5mm" height="5mm" fill="#E7D739" stroke="none" /><rect x="78.5mm" y="0.0mm" width="0.5mm" height="5mm" fill="#E9D539" stroke="none" /><rect x="79.0mm" y="0.0mm" width="0.5mm" height="5mm" fill="#EBD339" stroke="none" /><rect x="79.5mm" y="0.0mm" width="0.5mm" height="5mm" fill="#ECD13A" stroke="none" /><rect x="80.0mm" y="0.0mm" width="0.5mm" height="5mm" fill="#EECF3A" stroke="none" /><rect x="80.5mm" y="0.0mm" width="0.5mm" height="5mm" fill="#EFCD3A" stroke="none" /><rect x="81.0mm" y="0.0mm" width="0.5mm" height="5mm" fill="#F1CB3A" stroke="none" /><rect x="81.5mm" y="0.0mm" width="0.5mm" height="5mm" fill="#F2C93A" stroke="none" /><rect x="82.0mm" y="0.0mm" width="0.5mm" height="5mm" fill="#F4C73A" stroke="none" /><rect x="82.5mm" y="0.0mm" width="0.5mm" height="5mm" fill="#F5C53A" stroke="none" /><rect x="83.0mm" y="0.0mm" width="0.5mm" height="5mm" fill="#F6C33A" stroke="none" /><rect x="83.5mm" y="0.0mm" width="0.5mm" height="5mm" fill="#F7C13A" stroke="none" /><rect x="84.0mm" y="0.0mm" width="0.5mm" height="5mm" fill="#F8BE39" stroke="none" /><rect x="84.5mm" y="0.0mm" width="0.5mm" height="5mm" fill="#F9BC39" stroke="none" /><rect x="85.0mm" y="0.0mm" width="0.5mm" height="5mm" fill="#FABA39" stroke="none" /><rect x="85.5mm" y="0.0mm" width="0.5mm" height="5mm" fill="#FBB838" stroke="none" /><rect x="86.0mm" y="0.0mm" width="0.5mm" height="5mm" fill="#FBB637" stroke="none" /><rect x="86.5mm" y="0.0mm" width="0.5mm" height="5mm" fill="#FCB336" stroke="none" /><rect x="87.0mm" y="0.0mm" width="0.5mm" height="5mm" fill="#FCB136" stroke="none" /><rect x="87.5mm" y="0.0mm" width="0.5mm" height="5mm" fill="#FDAE35" stroke="none" /><rect x="88.0mm" y="0.0mm" width="0.5mm" height="5mm" fill="#FDAC34" stroke="none" /><rect x="88.5mm" y="0.0mm" width="0.5mm" height="5mm" fill="#FEA933" stroke="none" /><rect x="89.0mm" y="0.0mm" width="0.5mm" height="5mm" fill="#FEA732" stroke="none" /><rect x="89.5mm" y="0.0mm" width="0.5mm" height="5mm" fill="#FEA431" stroke="none" /><rect x="90.0mm" y="0.0mm" width="0.5mm" height="5mm" fill="#FEA130" stroke="none" /><rect x="90.5mm" y="0.0mm" width="0.5mm" height="5mm" fill="#FE9E2F" stroke="none" /><rect x="91.0mm" y="0.0mm" width="0.5mm" height="5mm" fill="#FE9B2D" stroke="none" /><rect x="91.5mm" y="0.0mm" width="0.5mm" height="5mm" fill="#FE992C" stroke="none" /><rect x="92.0mm" y="0.0mm" width="0.5mm" height="5mm" fill="#FE962B" stroke="none" /><rect x="92.5mm" y="0.0mm" width="0.5mm" height="5mm" fill="#FE932A" stroke="none" /><rect x="93.0mm" y="0.0mm" width="0.5mm" height="5mm" fill="#FE9029" stroke="none" /><rect x="93.5mm" y="0.0mm" width="0.5mm" height="5mm" fill="#FD8D27" stroke="none" /><rect x="94.0mm" y="0.0mm" width="0.5mm" height="5mm" fill="#FD8A26" stroke="none" /><rect x="94.5mm" y="0.0mm" width="0.5mm" height="5mm" fill="#FC8725" stroke="none" /><rect x="95.0mm" y="0.0mm" width="0.5mm" height="5mm" fill="#FC8423" stroke="none" /><rect x="95.5mm" y="0.0mm" width="0.5mm" height="5mm" fill="#FB8122" stroke="none" /><rect x="96.0mm" y="0.0mm" width="0.5mm" height="5mm" fill="#FB7E21" stroke="none" /><rect x="96.5mm" y="0.0mm" width="0.5mm" height="5mm" fill="#FA7B1F" stroke="none" /><rect x="97.0mm" y="0.0mm" width="0.5mm" height="5mm" fill="#F9781E" stroke="none" /><rect x="97.5mm" y="0.0mm" width="0.5mm" height="5mm" fill="#F9751D" stroke="none" /><rect x="98.0mm" y="0.0mm" width="0.5mm" height="5mm" fill="#F8721C" stroke="none" /><rect x="98.5mm" y="0.0mm" width="0.5mm" height="5mm" fill="#F76F1A" stroke="none" /><rect x="99.0mm" y="0.0mm" width="0.5mm" height="5mm" fill="#F66C19" stroke="none" /><rect x="99.5mm" y="0.0mm" width="0.5mm" height="5mm" fill="#F56918" stroke="none" /><rect x="100.0mm" y="0.0mm" width="0.5mm" height="5mm" fill="#F46617" stroke="none" /><rect x="100.5mm" y="0.0mm" width="0.5mm" height="5mm" fill="#F36315" stroke="none" /><rect x="101.0mm" y="0.0mm" width="0.5mm" height="5mm" fill="#F26014" stroke="none" /><rect x="101.5mm" y="0.0mm" width="0.5mm" height="5mm" fill="#F15D13" stroke="none" /><rect x="102.0mm" y="0.0mm" width="0.5mm" height="5mm" fill="#F05B12" stroke="none" /><rect x="102.5mm" y="0.0mm" width="0.5mm" height="5mm" fill="#EF5811" stroke="none" /><rect x="103.0mm" y="0.0mm" width="0.5mm" height="5mm" fill="#ED5510" stroke="none" /><rect x="103.5mm" y="0.0mm" width="0.5mm" height="5mm" fill="#EC530F" stroke="none" /><rect x="104.0mm" y="0.0mm" width="0.5mm" height="5mm" fill="#EB500E" stroke="none" /><rect x="104.5mm" y="0.0mm" width="0.5mm" height="5mm" fill="#EA4E0D" stroke="none" /><rect x="105.0mm" y="0.0mm" width="0.5mm" height="5mm" fill="#E84B0C" stroke="none" /><rect x="105.5mm" y="0.0mm" width="0.5mm" height="5mm" fill="#E7490C" stroke="none" /><rect x="106.0mm" y="0.0mm" width="0.5mm" height="5mm" fill="#E5470B" stroke="none" /><rect x="106.5mm" y="0.0mm" width="0.5mm" height="5mm" fill="#E4450A" stroke="none" /><rect x="107.0mm" y="0.0mm" width="0.5mm" height="5mm" fill="#E2430A" stroke="none" /><rect x="107.5mm" y="0.0mm" width="0.5mm" height="5mm" fill="#E14109" stroke="none" /><rect x="108.0mm" y="0.0mm" width="0.5mm" height="5mm" fill="#DF3F08" stroke="none" /><rect x="108.5mm" y="0.0mm" width="0.5mm" height="5mm" fill="#DD3D08" stroke="none" /><rect x="109.0mm" y="0.0mm" width="0.5mm" height="5mm" fill="#DC3B07" stroke="none" /><rect x="109.5mm" y="0.0mm" width="0.5mm" height="5mm" fill="#DA3907" stroke="none" /><rect x="110.0mm" y="0.0mm" width="0.5mm" height="5mm" fill="#D83706" stroke="none" /><rect x="110.5mm" y="0.0mm" width="0.5mm" height="5mm" fill="#D63506" stroke="none" /><rect x="111.0mm" y="0.0mm" width="0.5mm" height="5mm" fill="#D43305" stroke="none" /><rect x="111.5mm" y="0.0mm" width="0.5mm" height="5mm" fill="#D23105" stroke="none" /><rect x="112.0mm" y="0.0mm" width="0.5mm" height="5mm" fill="#D02F05" stroke="none" /><rect x="112.5mm" y="0.0mm" width="0.5mm" height="5mm" fill="#CE2D04" stroke="none" /><rect x="113.0mm" y="0.0mm" width="0.5mm" height="5mm" fill="#CC2B04" stroke="none" /><rect x="113.5mm" y="0.0mm" width="0.5mm" height="5mm" fill="#CA2A04" stroke="none" /><rect x="114.0mm" y="0.0mm" width="0.5mm" height="5mm" fill="#C82803" stroke="none" /><rect x="114.5mm" y="0.0mm" width="0.5mm" height="5mm" fill="#C52603" stroke="none" /><rect x="115.0mm" y="0.0mm" width="0.5mm" height="5mm" fill="#C32503" stroke="none" /><rect x="115.5mm" y="0.0mm" width="0.5mm" height="5mm" fill="#C12302" stroke="none" /><rect x="116.0mm" y="0.0mm" width="0.5mm" height="5mm" fill="#BE2102" stroke="none" /><rect x="116.5mm" y="0.0mm" width="0.5mm" height="5mm" fill="#BC2002" stroke="none" /><rect x="117.0mm" y="0.0mm" width="0.5mm" height="5mm" fill="#B91E02" stroke="none" /><rect x="117.5mm" y="0.0mm" width="0.5mm" height="5mm" fill="#B71D02" stroke="none" /><rect x="118.0mm" y="0.0mm" width="0.5mm" height="5mm" fill="#B41B01" stroke="none" /><rect x="118.5mm" y="0.0mm" width="0.5mm" height="5mm" fill="#B21A01" stroke="none" /><rect x="119.0mm" y="0.0mm" width="0.5mm" height="5mm" fill="#AF1801" stroke="none" /><rect x="119.5mm" y="0.0mm" width="0.5mm" height="5mm" fill="#AC1701" stroke="none" /><rect x="120.0mm" y="0.0mm" width="0.5mm" height="5mm" fill="#A91601" stroke="none" /><rect x="120.5mm" y="0.0mm" width="0.5mm" height="5mm" fill="#A71401" stroke="none" /><rect x="121.0mm" y="0.0mm" width="0.5mm" height="5mm" fill="#A41301" stroke="none" /><rect x="121.5mm" y="0.0mm" width="0.5mm" height="5mm" fill="#A11201" stroke="none" /><rect x="122.0mm" y="0.0mm" width="0.5mm" height="5mm" fill="#9E1001" stroke="none" /><rect x="122.5mm" y="0.0mm" width="0.5mm" height="5mm" fill="#9B0F01" stroke="none" /><rect x="123.0mm" y="0.0mm" width="0.5mm" height="5mm" fill="#980E01" stroke="none" /><rect x="123.5mm" y="0.0mm" width="0.5mm" height="5mm" fill="#950D01" stroke="none" /><rect x="124.0mm" y="0.0mm" width="0.5mm" height="5mm" fill="#920B01" stroke="none" /><rect x="124.5mm" y="0.0mm" width="0.5mm" height="5mm" fill="#8E0A01" stroke="none" /><rect x="125.0mm" y="0.0mm" width="0.5mm" height="5mm" fill="#8B0902" stroke="none" /><rect x="125.5mm" y="0.0mm" width="0.5mm" height="5mm" fill="#880802" stroke="none" /><rect x="126.0mm" y="0.0mm" width="0.5mm" height="5mm" fill="#850702" stroke="none" /><rect x="126.5mm" y="0.0mm" width="0.5mm" height="5mm" fill="#810602" stroke="none" /><rect x="127.0mm" y="0.0mm" width="0.5mm" height="5mm" fill="#7E0502" stroke="none" /><rect x="127.5mm" y="0.0mm" width="0.5mm" height="5mm" fill="#7A0403" stroke="none" /></svg>