<?xml version="1.0" encoding="utf-8"?>
<svg xmlns="http://www.w3.org/2000/svg" xmlns:xlink="http://www.w3.org/1999/xlink" width="400" height="300" viewBox="0 0 1600 1200">
<defs>
  <clipPath id="clip2300">
    <rect x="0" y="0" width="1600" height="1200"/>
  </clipPath>
</defs>
<path clip-path="url(#clip2300)" d="
M0 1200 L1600 1200 L1600 0 L0 0  Z
  " fill="#ffffff" fill-rule="evenodd" fill-opacity="1"/>
<defs>
  <clipPath id="clip2301">
    <rect x="320" y="0" width="1121" height="1121"/>
  </clipPath>
</defs>
<path clip-path="url(#clip2300)" d="
M226.899 1019.66 L1552.76 1019.66 L1552.76 47.2441 L226.899 47.2441  Z
  " fill="#ffffff" fill-rule="evenodd" fill-opacity="1"/>
<defs>
  <clipPath id="clip2302">
    <rect x="226" y="47" width="1327" height="973"/>
  </clipPath>
</defs>
<polyline clip-path="url(#clip2302)" style="stroke:#000000; stroke-width:2; stroke-opacity:0.1; fill:none" points="
  264.423,1019.66 264.423,47.2441 
  "/>
<polyline clip-path="url(#clip2302)" style="stroke:#000000; stroke-width:2; stroke-opacity:0.1; fill:none" points="
  514.585,1019.66 514.585,47.2441 
  "/>
<polyline clip-path="url(#clip2302)" style="stroke:#000000; stroke-width:2; stroke-opacity:0.1; fill:none" points="
  764.746,1019.66 764.746,47.2441 
  "/>
<polyline clip-path="url(#clip2302)" style="stroke:#000000; stroke-width:2; stroke-opacity:0.1; fill:none" points="
  1014.91,1019.66 1014.91,47.2441 
  "/>
<polyline clip-path="url(#clip2302)" style="stroke:#000000; stroke-width:2; stroke-opacity:0.1; fill:none" points="
  1265.07,1019.66 1265.07,47.2441 
  "/>
<polyline clip-path="url(#clip2302)" style="stroke:#000000; stroke-width:2; stroke-opacity:0.1; fill:none" points="
  1515.23,1019.66 1515.23,47.2441 
  "/>
<polyline clip-path="url(#clip2302)" style="stroke:#000000; stroke-width:2; stroke-opacity:0.1; fill:none" points="
  226.899,992.142 1552.76,992.142 
  "/>
<polyline clip-path="url(#clip2302)" style="stroke:#000000; stroke-width:2; stroke-opacity:0.1; fill:none" points="
  226.899,787.304 1552.76,787.304 
  "/>
<polyline clip-path="url(#clip2302)" style="stroke:#000000; stroke-width:2; stroke-opacity:0.1; fill:none" points="
  226.899,582.466 1552.76,582.466 
  "/>
<polyline clip-path="url(#clip2302)" style="stroke:#000000; stroke-width:2; stroke-opacity:0.1; fill:none" points="
  226.899,377.628 1552.76,377.628 
  "/>
<polyline clip-path="url(#clip2302)" style="stroke:#000000; stroke-width:2; stroke-opacity:0.1; fill:none" points="
  226.899,172.79 1552.76,172.79 
  "/>
<polyline clip-path="url(#clip2300)" style="stroke:#000000; stroke-width:4; stroke-opacity:1; fill:none" points="
  226.899,1019.66 1552.76,1019.66 
  "/>
<polyline clip-path="url(#clip2300)" style="stroke:#000000; stroke-width:4; stroke-opacity:1; fill:none" points="
  226.899,1019.66 226.899,47.2441 
  "/>
<polyline clip-path="url(#clip2300)" style="stroke:#000000; stroke-width:4; stroke-opacity:1; fill:none" points="
  264.423,1019.66 264.423,1007.99 
  "/>
<polyline clip-path="url(#clip2300)" style="stroke:#000000; stroke-width:4; stroke-opacity:1; fill:none" points="
  514.585,1019.66 514.585,1007.99 
  "/>
<polyline clip-path="url(#clip2300)" style="stroke:#000000; stroke-width:4; stroke-opacity:1; fill:none" points="
  764.746,1019.66 764.746,1007.99 
  "/>
<polyline clip-path="url(#clip2300)" style="stroke:#000000; stroke-width:4; stroke-opacity:1; fill:none" points="
  1014.91,1019.66 1014.91,1007.99 
  "/>
<polyline clip-path="url(#clip2300)" style="stroke:#000000; stroke-width:4; stroke-opacity:1; fill:none" points="
  1265.07,1019.66 1265.07,1007.99 
  "/>
<polyline clip-path="url(#clip2300)" style="stroke:#000000; stroke-width:4; stroke-opacity:1; fill:none" points="
  1515.23,1019.66 1515.23,1007.99 
  "/>
<polyline clip-path="url(#clip2300)" style="stroke:#000000; stroke-width:4; stroke-opacity:1; fill:none" points="
  226.899,992.142 242.809,992.142 
  "/>
<polyline clip-path="url(#clip2300)" style="stroke:#000000; stroke-width:4; stroke-opacity:1; fill:none" points="
  226.899,787.304 242.809,787.304 
  "/>
<polyline clip-path="url(#clip2300)" style="stroke:#000000; stroke-width:4; stroke-opacity:1; fill:none" points="
  226.899,582.466 242.809,582.466 
  "/>
<polyline clip-path="url(#clip2300)" style="stroke:#000000; stroke-width:4; stroke-opacity:1; fill:none" points="
  226.899,377.628 242.809,377.628 
  "/>
<polyline clip-path="url(#clip2300)" style="stroke:#000000; stroke-width:4; stroke-opacity:1; fill:none" points="
  226.899,172.79 242.809,172.79 
  "/>
<g clip-path="url(#clip2300)">
<text style="fill:#000000; fill-opacity:1; font-family:Arial,Helvetica Neue,Helvetica,sans-serif; font-size:48px; text-anchor:middle;" transform="rotate(0, 264.423, 1069.66)" x="264.423" y="1069.66">15</text>
</g>
<g clip-path="url(#clip2300)">
<text style="fill:#000000; fill-opacity:1; font-family:Arial,Helvetica Neue,Helvetica,sans-serif; font-size:48px; text-anchor:middle;" transform="rotate(0, 514.585, 1069.66)" x="514.585" y="1069.66">20</text>
</g>
<g clip-path="url(#clip2300)">
<text style="fill:#000000; fill-opacity:1; font-family:Arial,Helvetica Neue,Helvetica,sans-serif; font-size:48px; text-anchor:middle;" transform="rotate(0, 764.746, 1069.66)" x="764.746" y="1069.66">25</text>
</g>
<g clip-path="url(#clip2300)">
<text style="fill:#000000; fill-opacity:1; font-family:Arial,Helvetica Neue,Helvetica,sans-serif; font-size:48px; text-anchor:middle;" transform="rotate(0, 1014.91, 1069.66)" x="1014.91" y="1069.66">30</text>
</g>
<g clip-path="url(#clip2300)">
<text style="fill:#000000; fill-opacity:1; font-family:Arial,Helvetica Neue,Helvetica,sans-serif; font-size:48px; text-anchor:middle;" transform="rotate(0, 1265.07, 1069.66)" x="1265.07" y="1069.66">35</text>
</g>
<g clip-path="url(#clip2300)">
<text style="fill:#000000; fill-opacity:1; font-family:Arial,Helvetica Neue,Helvetica,sans-serif; font-size:48px; text-anchor:middle;" transform="rotate(0, 1515.23, 1069.66)" x="1515.23" y="1069.66">40</text>
</g>
<g clip-path="url(#clip2300)">
<text style="fill:#000000; fill-opacity:1; font-family:Arial,Helvetica Neue,Helvetica,sans-serif; font-size:48px; text-anchor:end;" transform="rotate(0, 210.899, 1009.64)" x="210.899" y="1009.64">0</text>
</g>
<g clip-path="url(#clip2300)">
<text style="fill:#000000; fill-opacity:1; font-family:Arial,Helvetica Neue,Helvetica,sans-serif; font-size:48px; text-anchor:end;" transform="rotate(0, 210.899, 804.804)" x="210.899" y="804.804">25</text>
</g>
<g clip-path="url(#clip2300)">
<text style="fill:#000000; fill-opacity:1; font-family:Arial,Helvetica Neue,Helvetica,sans-serif; font-size:48px; text-anchor:end;" transform="rotate(0, 210.899, 599.966)" x="210.899" y="599.966">50</text>
</g>
<g clip-path="url(#clip2300)">
<text style="fill:#000000; fill-opacity:1; font-family:Arial,Helvetica Neue,Helvetica,sans-serif; font-size:48px; text-anchor:end;" transform="rotate(0, 210.899, 395.128)" x="210.899" y="395.128">75</text>
</g>
<g clip-path="url(#clip2300)">
<text style="fill:#000000; fill-opacity:1; font-family:Arial,Helvetica Neue,Helvetica,sans-serif; font-size:48px; text-anchor:end;" transform="rotate(0, 210.899, 190.29)" x="210.899" y="190.29">100</text>
</g>
<g clip-path="url(#clip2300)">
<text style="fill:#000000; fill-opacity:1; font-family:Arial,Helvetica Neue,Helvetica,sans-serif; font-size:66px; text-anchor:middle;" transform="rotate(0, 889.827, 1145.53)" x="889.827" y="1145.53">Input current</text>
</g>
<g clip-path="url(#clip2300)">
<text style="fill:#000000; fill-opacity:1; font-family:Arial,Helvetica Neue,Helvetica,sans-serif; font-size:66px; text-anchor:middle;" transform="rotate(-90, 103.05, 533.454)" x="103.05" y="533.454">Firing rate (Hz)</text>
</g>
<polyline clip-path="url(#clip2302)" style="stroke:#009af9; stroke-width:4; stroke-opacity:1; fill:none" points="
  264.423,992.142 277.057,992.142 289.692,992.142 302.326,992.142 314.961,992.142 327.595,992.142 340.23,992.142 352.864,992.142 365.498,992.142 378.133,992.142 
  390.767,992.142 403.402,992.142 416.036,992.142 428.671,992.142 441.305,992.142 453.939,992.142 466.574,992.142 479.208,992.142 491.843,992.142 504.477,992.142 
  517.112,859.645 529.746,806.124 542.38,777.141 555.015,754.541 567.649,735.176 580.284,717.828 592.918,701.88 605.553,686.972 618.187,672.876 630.822,659.433 
  643.456,646.531 656.09,634.085 668.725,622.032 681.359,610.322 693.994,598.913 706.628,587.772 719.263,576.874 731.897,566.194 744.531,555.714 757.166,545.417 
  769.8,535.289 782.435,525.318 795.069,515.492 807.704,505.803 820.338,496.242 832.972,486.801 845.607,477.475 858.241,468.256 870.876,459.139 883.51,450.12 
  896.145,441.194 908.779,432.357 921.413,423.606 934.048,414.936 946.682,406.345 959.317,397.829 971.951,389.387 984.586,381.015 997.22,372.712 1009.85,364.474 
  1022.49,356.301 1035.12,348.19 1047.76,340.14 1060.39,332.148 1073.03,324.213 1085.66,316.335 1098.3,308.51 1110.93,300.739 1123.56,293.02 1136.2,285.351 
  1148.83,277.732 1161.47,270.161 1174.1,262.638 1186.74,255.161 1199.37,247.73 1212.01,240.344 1224.64,233.002 1237.27,225.703 1249.91,218.446 1262.54,211.231 
  1275.18,204.057 1287.81,196.923 1300.45,189.829 1313.08,182.774 1325.72,175.757 1338.35,168.778 1350.98,161.836 1363.62,154.931 1376.25,148.063 1388.89,141.23 
  1401.52,134.432 1414.16,127.669 1426.79,120.94 1439.43,114.246 1452.06,107.584 1464.69,100.956 1477.33,94.3604 1489.96,87.797 1502.6,81.2654 1515.23,74.7654 
  
  "/>
</svg>
