<?xml version="1.0" encoding="utf-8"?>
<svg xmlns="http://www.w3.org/2000/svg" xmlns:xlink="http://www.w3.org/1999/xlink" width="400" height="300" viewBox="0 0 1600 1200">
<defs>
  <clipPath id="clip940">
    <rect x="0" y="0" width="1600" height="1200"/>
  </clipPath>
</defs>
<path clip-path="url(#clip940)" d="
M0 1200 L1600 1200 L1600 0 L0 0  Z
  " fill="#ffffff" fill-rule="evenodd" fill-opacity="1"/>
<defs>
  <clipPath id="clip941">
    <rect x="320" y="0" width="1121" height="1121"/>
  </clipPath>
</defs>
<path clip-path="url(#clip940)" d="
M222.806 1016.92 L1552.76 1016.92 L1552.76 47.2441 L222.806 47.2441  Z
  " fill="#ffffff" fill-rule="evenodd" fill-opacity="1"/>
<defs>
  <clipPath id="clip942">
    <rect x="222" y="47" width="1331" height="971"/>
  </clipPath>
</defs>
<polyline clip-path="url(#clip942)" style="stroke:#000000; stroke-width:2; stroke-opacity:0.1; fill:none" points="
  433.504,1016.92 433.504,47.2441 
  "/>
<polyline clip-path="url(#clip942)" style="stroke:#000000; stroke-width:2; stroke-opacity:0.1; fill:none" points="
  649.827,1016.92 649.827,47.2441 
  "/>
<polyline clip-path="url(#clip942)" style="stroke:#000000; stroke-width:2; stroke-opacity:0.1; fill:none" points="
  866.149,1016.92 866.149,47.2441 
  "/>
<polyline clip-path="url(#clip942)" style="stroke:#000000; stroke-width:2; stroke-opacity:0.1; fill:none" points="
  1082.47,1016.92 1082.47,47.2441 
  "/>
<polyline clip-path="url(#clip942)" style="stroke:#000000; stroke-width:2; stroke-opacity:0.1; fill:none" points="
  1298.79,1016.92 1298.79,47.2441 
  "/>
<polyline clip-path="url(#clip942)" style="stroke:#000000; stroke-width:2; stroke-opacity:0.1; fill:none" points="
  1515.12,1016.92 1515.12,47.2441 
  "/>
<polyline clip-path="url(#clip942)" style="stroke:#000000; stroke-width:2; stroke-opacity:0.1; fill:none" points="
  222.806,989.476 1552.76,989.476 
  "/>
<polyline clip-path="url(#clip942)" style="stroke:#000000; stroke-width:2; stroke-opacity:0.1; fill:none" points="
  222.806,760.779 1552.76,760.779 
  "/>
<polyline clip-path="url(#clip942)" style="stroke:#000000; stroke-width:2; stroke-opacity:0.1; fill:none" points="
  222.806,532.082 1552.76,532.082 
  "/>
<polyline clip-path="url(#clip942)" style="stroke:#000000; stroke-width:2; stroke-opacity:0.1; fill:none" points="
  222.806,303.385 1552.76,303.385 
  "/>
<polyline clip-path="url(#clip942)" style="stroke:#000000; stroke-width:2; stroke-opacity:0.1; fill:none" points="
  222.806,74.6877 1552.76,74.6877 
  "/>
<polyline clip-path="url(#clip940)" style="stroke:#000000; stroke-width:4; stroke-opacity:1; fill:none" points="
  222.806,1016.92 1552.76,1016.92 
  "/>
<polyline clip-path="url(#clip940)" style="stroke:#000000; stroke-width:4; stroke-opacity:1; fill:none" points="
  222.806,1016.92 222.806,47.2441 
  "/>
<polyline clip-path="url(#clip940)" style="stroke:#000000; stroke-width:4; stroke-opacity:1; fill:none" points="
  433.504,1016.92 433.504,1005.28 
  "/>
<polyline clip-path="url(#clip940)" style="stroke:#000000; stroke-width:4; stroke-opacity:1; fill:none" points="
  649.827,1016.92 649.827,1005.28 
  "/>
<polyline clip-path="url(#clip940)" style="stroke:#000000; stroke-width:4; stroke-opacity:1; fill:none" points="
  866.149,1016.92 866.149,1005.28 
  "/>
<polyline clip-path="url(#clip940)" style="stroke:#000000; stroke-width:4; stroke-opacity:1; fill:none" points="
  1082.47,1016.92 1082.47,1005.28 
  "/>
<polyline clip-path="url(#clip940)" style="stroke:#000000; stroke-width:4; stroke-opacity:1; fill:none" points="
  1298.79,1016.92 1298.79,1005.28 
  "/>
<polyline clip-path="url(#clip940)" style="stroke:#000000; stroke-width:4; stroke-opacity:1; fill:none" points="
  1515.12,1016.92 1515.12,1005.28 
  "/>
<polyline clip-path="url(#clip940)" style="stroke:#000000; stroke-width:4; stroke-opacity:1; fill:none" points="
  222.806,989.476 238.766,989.476 
  "/>
<polyline clip-path="url(#clip940)" style="stroke:#000000; stroke-width:4; stroke-opacity:1; fill:none" points="
  222.806,760.779 238.766,760.779 
  "/>
<polyline clip-path="url(#clip940)" style="stroke:#000000; stroke-width:4; stroke-opacity:1; fill:none" points="
  222.806,532.082 238.766,532.082 
  "/>
<polyline clip-path="url(#clip940)" style="stroke:#000000; stroke-width:4; stroke-opacity:1; fill:none" points="
  222.806,303.385 238.766,303.385 
  "/>
<polyline clip-path="url(#clip940)" style="stroke:#000000; stroke-width:4; stroke-opacity:1; fill:none" points="
  222.806,74.6877 238.766,74.6877 
  "/>
<path clip-path="url(#clip940)" d="M 0 0 M423.782 1031.83 L442.138 1031.83 L442.138 1035.77 L428.064 1035.77 L428.064 1044.24 Q429.083 1043.89 430.101 1043.73 Q431.12 1043.54 432.138 1043.54 Q437.925 1043.54 441.305 1046.72 Q444.685 1049.89 444.685 1055.3 Q444.685 1060.88 441.212 1063.98 Q437.74 1067.06 431.421 1067.06 Q429.245 1067.06 426.976 1066.69 Q424.731 1066.32 422.324 1065.58 L422.324 1060.88 Q424.407 1062.02 426.629 1062.57 Q428.851 1063.13 431.328 1063.13 Q435.333 1063.13 437.671 1061.02 Q440.009 1058.92 440.009 1055.3 Q440.009 1051.69 437.671 1049.59 Q435.333 1047.48 431.328 1047.48 Q429.453 1047.48 427.578 1047.9 Q425.726 1048.31 423.782 1049.19 L423.782 1031.83 Z" fill="#000000" fill-rule="evenodd" fill-opacity="1" /><path clip-path="url(#clip940)" d="M 0 0 M626.702 1062.46 L634.34 1062.46 L634.34 1036.09 L626.03 1037.76 L626.03 1033.5 L634.294 1031.83 L638.97 1031.83 L638.97 1062.46 L646.609 1062.46 L646.609 1066.39 L626.702 1066.39 L626.702 1062.46 Z" fill="#000000" fill-rule="evenodd" fill-opacity="1" /><path clip-path="url(#clip940)" d="M 0 0 M661.678 1034.91 Q658.067 1034.91 656.239 1038.48 Q654.433 1042.02 654.433 1049.15 Q654.433 1056.25 656.239 1059.82 Q658.067 1063.36 661.678 1063.36 Q665.313 1063.36 667.118 1059.82 Q668.947 1056.25 668.947 1049.15 Q668.947 1042.02 667.118 1038.48 Q665.313 1034.91 661.678 1034.91 M661.678 1031.21 Q667.488 1031.21 670.544 1035.81 Q673.623 1040.4 673.623 1049.15 Q673.623 1057.87 670.544 1062.48 Q667.488 1067.06 661.678 1067.06 Q655.868 1067.06 652.789 1062.48 Q649.734 1057.87 649.734 1049.15 Q649.734 1040.4 652.789 1035.81 Q655.868 1031.21 661.678 1031.21 Z" fill="#000000" fill-rule="evenodd" fill-opacity="1" /><path clip-path="url(#clip940)" d="M 0 0 M843.522 1062.46 L851.16 1062.46 L851.16 1036.09 L842.85 1037.76 L842.85 1033.5 L851.114 1031.83 L855.79 1031.83 L855.79 1062.46 L863.429 1062.46 L863.429 1066.39 L843.522 1066.39 L843.522 1062.46 Z" fill="#000000" fill-rule="evenodd" fill-opacity="1" /><path clip-path="url(#clip940)" d="M 0 0 M868.545 1031.83 L886.901 1031.83 L886.901 1035.77 L872.827 1035.77 L872.827 1044.24 Q873.846 1043.89 874.864 1043.73 Q875.883 1043.54 876.901 1043.54 Q882.688 1043.54 886.068 1046.72 Q889.447 1049.89 889.447 1055.3 Q889.447 1060.88 885.975 1063.98 Q882.503 1067.06 876.184 1067.06 Q874.008 1067.06 871.739 1066.69 Q869.494 1066.32 867.086 1065.58 L867.086 1060.88 Q869.17 1062.02 871.392 1062.57 Q873.614 1063.13 876.091 1063.13 Q880.096 1063.13 882.433 1061.02 Q884.771 1058.92 884.771 1055.3 Q884.771 1051.69 882.433 1049.59 Q880.096 1047.48 876.091 1047.48 Q874.216 1047.48 872.341 1047.9 Q870.489 1048.31 868.545 1049.19 L868.545 1031.83 Z" fill="#000000" fill-rule="evenodd" fill-opacity="1" /><path clip-path="url(#clip940)" d="M 0 0 M1063.62 1062.46 L1079.94 1062.46 L1079.94 1066.39 L1057.99 1066.39 L1057.99 1062.46 Q1060.65 1059.7 1065.24 1055.07 Q1069.84 1050.42 1071.02 1049.08 Q1073.27 1046.55 1074.15 1044.82 Q1075.05 1043.06 1075.05 1041.37 Q1075.05 1038.61 1073.11 1036.88 Q1071.19 1035.14 1068.08 1035.14 Q1065.89 1035.14 1063.43 1035.91 Q1061 1036.67 1058.22 1038.22 L1058.22 1033.5 Q1061.05 1032.36 1063.5 1031.79 Q1065.96 1031.21 1067.99 1031.21 Q1073.36 1031.21 1076.56 1033.89 Q1079.75 1036.58 1079.75 1041.07 Q1079.75 1043.2 1078.94 1045.12 Q1078.15 1047.02 1076.05 1049.61 Q1075.47 1050.28 1072.37 1053.5 Q1069.27 1056.69 1063.62 1062.46 Z" fill="#000000" fill-rule="evenodd" fill-opacity="1" /><path clip-path="url(#clip940)" d="M 0 0 M1095.01 1034.91 Q1091.39 1034.91 1089.57 1038.48 Q1087.76 1042.02 1087.76 1049.15 Q1087.76 1056.25 1089.57 1059.82 Q1091.39 1063.36 1095.01 1063.36 Q1098.64 1063.36 1100.45 1059.82 Q1102.27 1056.25 1102.27 1049.15 Q1102.27 1042.02 1100.45 1038.48 Q1098.64 1034.91 1095.01 1034.91 M1095.01 1031.21 Q1100.82 1031.21 1103.87 1035.81 Q1106.95 1040.4 1106.95 1049.15 Q1106.95 1057.87 1103.87 1062.48 Q1100.82 1067.06 1095.01 1067.06 Q1089.2 1067.06 1086.12 1062.48 Q1083.06 1057.87 1083.06 1049.15 Q1083.06 1040.4 1086.12 1035.81 Q1089.2 1031.21 1095.01 1031.21 Z" fill="#000000" fill-rule="evenodd" fill-opacity="1" /><path clip-path="url(#clip940)" d="M 0 0 M1280.44 1062.46 L1296.76 1062.46 L1296.76 1066.39 L1274.81 1066.39 L1274.81 1062.46 Q1277.47 1059.7 1282.06 1055.07 Q1286.66 1050.42 1287.84 1049.08 Q1290.09 1046.55 1290.97 1044.82 Q1291.87 1043.06 1291.87 1041.37 Q1291.87 1038.61 1289.93 1036.88 Q1288.01 1035.14 1284.9 1035.14 Q1282.71 1035.14 1280.25 1035.91 Q1277.82 1036.67 1275.04 1038.22 L1275.04 1033.5 Q1277.87 1032.36 1280.32 1031.79 Q1282.78 1031.21 1284.81 1031.21 Q1290.18 1031.21 1293.38 1033.89 Q1296.57 1036.58 1296.57 1041.07 Q1296.57 1043.2 1295.76 1045.12 Q1294.97 1047.02 1292.87 1049.61 Q1292.29 1050.28 1289.19 1053.5 Q1286.09 1056.69 1280.44 1062.46 Z" fill="#000000" fill-rule="evenodd" fill-opacity="1" /><path clip-path="url(#clip940)" d="M 0 0 M1301.87 1031.83 L1320.23 1031.83 L1320.23 1035.77 L1306.15 1035.77 L1306.15 1044.24 Q1307.17 1043.89 1308.19 1043.73 Q1309.21 1043.54 1310.23 1043.54 Q1316.02 1043.54 1319.4 1046.72 Q1322.77 1049.89 1322.77 1055.3 Q1322.77 1060.88 1319.3 1063.98 Q1315.83 1067.06 1309.51 1067.06 Q1307.34 1067.06 1305.07 1066.69 Q1302.82 1066.32 1300.41 1065.58 L1300.41 1060.88 Q1302.5 1062.02 1304.72 1062.57 Q1306.94 1063.13 1309.42 1063.13 Q1313.42 1063.13 1315.76 1061.02 Q1318.1 1058.92 1318.1 1055.3 Q1318.1 1051.69 1315.76 1049.59 Q1313.42 1047.48 1309.42 1047.48 Q1307.54 1047.48 1305.67 1047.9 Q1303.82 1048.31 1301.87 1049.19 L1301.87 1031.83 Z" fill="#000000" fill-rule="evenodd" fill-opacity="1" /><path clip-path="url(#clip940)" d="M 0 0 M1505.86 1047.76 Q1509.21 1048.48 1511.09 1050.74 Q1512.99 1053.01 1512.99 1056.35 Q1512.99 1061.46 1509.47 1064.26 Q1505.95 1067.06 1499.47 1067.06 Q1497.29 1067.06 1494.98 1066.62 Q1492.69 1066.21 1490.23 1065.35 L1490.23 1060.84 Q1492.18 1061.97 1494.49 1062.55 Q1496.81 1063.13 1499.33 1063.13 Q1503.73 1063.13 1506.02 1061.39 Q1508.33 1059.66 1508.33 1056.35 Q1508.33 1053.29 1506.18 1051.58 Q1504.05 1049.84 1500.23 1049.84 L1496.2 1049.84 L1496.2 1046 L1500.42 1046 Q1503.87 1046 1505.69 1044.63 Q1507.52 1043.24 1507.52 1040.65 Q1507.52 1037.99 1505.63 1036.58 Q1503.75 1035.14 1500.23 1035.14 Q1498.31 1035.14 1496.11 1035.56 Q1493.91 1035.98 1491.27 1036.85 L1491.27 1032.69 Q1493.94 1031.95 1496.25 1031.58 Q1498.59 1031.21 1500.65 1031.21 Q1505.97 1031.21 1509.07 1033.64 Q1512.18 1036.04 1512.18 1040.17 Q1512.18 1043.04 1510.53 1045.03 Q1508.89 1046.99 1505.86 1047.76 Z" fill="#000000" fill-rule="evenodd" fill-opacity="1" /><path clip-path="url(#clip940)" d="M 0 0 M1528.06 1034.91 Q1524.44 1034.91 1522.62 1038.48 Q1520.81 1042.02 1520.81 1049.15 Q1520.81 1056.25 1522.62 1059.82 Q1524.44 1063.36 1528.06 1063.36 Q1531.69 1063.36 1533.5 1059.82 Q1535.32 1056.25 1535.32 1049.15 Q1535.32 1042.02 1533.5 1038.48 Q1531.69 1034.91 1528.06 1034.91 M1528.06 1031.21 Q1533.87 1031.21 1536.92 1035.81 Q1540 1040.4 1540 1049.15 Q1540 1057.87 1536.92 1062.48 Q1533.87 1067.06 1528.06 1067.06 Q1522.25 1067.06 1519.17 1062.48 Q1516.11 1057.87 1516.11 1049.15 Q1516.11 1040.4 1519.17 1035.81 Q1522.25 1031.21 1528.06 1031.21 Z" fill="#000000" fill-rule="evenodd" fill-opacity="1" /><path clip-path="url(#clip940)" d="M 0 0 M194.862 975.275 Q191.251 975.275 189.422 978.84 Q187.617 982.381 187.617 989.511 Q187.617 996.617 189.422 1000.18 Q191.251 1003.72 194.862 1003.72 Q198.496 1003.72 200.302 1000.18 Q202.13 996.617 202.13 989.511 Q202.13 982.381 200.302 978.84 Q198.496 975.275 194.862 975.275 M194.862 971.571 Q200.672 971.571 203.728 976.178 Q206.806 980.761 206.806 989.511 Q206.806 998.238 203.728 1002.84 Q200.672 1007.43 194.862 1007.43 Q189.052 1007.43 185.973 1002.84 Q182.917 998.238 182.917 989.511 Q182.917 980.761 185.973 976.178 Q189.052 971.571 194.862 971.571 Z" fill="#000000" fill-rule="evenodd" fill-opacity="1" /><path clip-path="url(#clip940)" d="M 0 0 M164.469 774.124 L180.788 774.124 L180.788 778.059 L158.844 778.059 L158.844 774.124 Q161.506 771.369 166.089 766.74 Q170.695 762.087 171.876 760.744 Q174.121 758.221 175.001 756.485 Q175.904 754.726 175.904 753.036 Q175.904 750.281 173.959 748.545 Q172.038 746.809 168.936 746.809 Q166.737 746.809 164.283 747.573 Q161.853 748.337 159.075 749.888 L159.075 745.166 Q161.899 744.031 164.353 743.453 Q166.806 742.874 168.843 742.874 Q174.214 742.874 177.408 745.559 Q180.603 748.244 180.603 752.735 Q180.603 754.865 179.792 756.786 Q179.005 758.684 176.899 761.277 Q176.32 761.948 173.218 765.166 Q170.117 768.36 164.469 774.124 Z" fill="#000000" fill-rule="evenodd" fill-opacity="1" /><path clip-path="url(#clip940)" d="M 0 0 M185.904 743.499 L204.26 743.499 L204.26 747.434 L190.186 747.434 L190.186 755.906 Q191.204 755.559 192.223 755.397 Q193.241 755.212 194.26 755.212 Q200.047 755.212 203.427 758.383 Q206.806 761.555 206.806 766.971 Q206.806 772.55 203.334 775.652 Q199.862 778.73 193.542 778.73 Q191.367 778.73 189.098 778.36 Q186.853 777.99 184.445 777.249 L184.445 772.55 Q186.529 773.684 188.751 774.24 Q190.973 774.795 193.45 774.795 Q197.454 774.795 199.792 772.689 Q202.13 770.582 202.13 766.971 Q202.13 763.36 199.792 761.254 Q197.454 759.147 193.45 759.147 Q191.575 759.147 189.7 759.564 Q187.848 759.98 185.904 760.86 L185.904 743.499 Z" fill="#000000" fill-rule="evenodd" fill-opacity="1" /><path clip-path="url(#clip940)" d="M 0 0 M158.89 514.802 L177.246 514.802 L177.246 518.737 L163.172 518.737 L163.172 527.209 Q164.191 526.862 165.209 526.7 Q166.228 526.515 167.246 526.515 Q173.033 526.515 176.413 529.686 Q179.792 532.857 179.792 538.274 Q179.792 543.853 176.32 546.955 Q172.848 550.033 166.529 550.033 Q164.353 550.033 162.084 549.663 Q159.839 549.293 157.432 548.552 L157.432 543.853 Q159.515 544.987 161.737 545.543 Q163.959 546.098 166.436 546.098 Q170.441 546.098 172.779 543.992 Q175.117 541.885 175.117 538.274 Q175.117 534.663 172.779 532.557 Q170.441 530.45 166.436 530.45 Q164.561 530.45 162.686 530.867 Q160.834 531.283 158.89 532.163 L158.89 514.802 Z" fill="#000000" fill-rule="evenodd" fill-opacity="1" /><path clip-path="url(#clip940)" d="M 0 0 M194.862 517.881 Q191.251 517.881 189.422 521.445 Q187.617 524.987 187.617 532.117 Q187.617 539.223 189.422 542.788 Q191.251 546.33 194.862 546.33 Q198.496 546.33 200.302 542.788 Q202.13 539.223 202.13 532.117 Q202.13 524.987 200.302 521.445 Q198.496 517.881 194.862 517.881 M194.862 514.177 Q200.672 514.177 203.728 518.783 Q206.806 523.367 206.806 532.117 Q206.806 540.843 203.728 545.45 Q200.672 550.033 194.862 550.033 Q189.052 550.033 185.973 545.45 Q182.917 540.843 182.917 532.117 Q182.917 523.367 185.973 518.783 Q189.052 514.177 194.862 514.177 Z" fill="#000000" fill-rule="evenodd" fill-opacity="1" /><path clip-path="url(#clip940)" d="M 0 0 M158.566 286.105 L180.788 286.105 L180.788 288.096 L168.242 320.665 L163.357 320.665 L175.163 290.04 L158.566 290.04 L158.566 286.105 Z" fill="#000000" fill-rule="evenodd" fill-opacity="1" /><path clip-path="url(#clip940)" d="M 0 0 M185.904 286.105 L204.26 286.105 L204.26 290.04 L190.186 290.04 L190.186 298.512 Q191.204 298.165 192.223 298.003 Q193.241 297.818 194.26 297.818 Q200.047 297.818 203.427 300.989 Q206.806 304.16 206.806 309.577 Q206.806 315.156 203.334 318.257 Q199.862 321.336 193.542 321.336 Q191.367 321.336 189.098 320.966 Q186.853 320.595 184.445 319.855 L184.445 315.156 Q186.529 316.29 188.751 316.845 Q190.973 317.401 193.45 317.401 Q197.454 317.401 199.792 315.295 Q202.13 313.188 202.13 309.577 Q202.13 305.966 199.792 303.859 Q197.454 301.753 193.45 301.753 Q191.575 301.753 189.7 302.17 Q187.848 302.586 185.904 303.466 L185.904 286.105 Z" fill="#000000" fill-rule="evenodd" fill-opacity="1" /><path clip-path="url(#clip940)" d="M 0 0 M132.871 88.0326 L140.51 88.0326 L140.51 61.667 L132.2 63.3336 L132.2 59.0744 L140.464 57.4077 L145.14 57.4077 L145.14 88.0326 L152.779 88.0326 L152.779 91.9677 L132.871 91.9677 L132.871 88.0326 Z" fill="#000000" fill-rule="evenodd" fill-opacity="1" /><path clip-path="url(#clip940)" d="M 0 0 M167.848 60.4864 Q164.237 60.4864 162.408 64.0512 Q160.603 67.5929 160.603 74.7225 Q160.603 81.8289 162.408 85.3937 Q164.237 88.9354 167.848 88.9354 Q171.482 88.9354 173.288 85.3937 Q175.117 81.8289 175.117 74.7225 Q175.117 67.5929 173.288 64.0512 Q171.482 60.4864 167.848 60.4864 M167.848 56.7828 Q173.658 56.7828 176.714 61.3892 Q179.792 65.9725 179.792 74.7225 Q179.792 83.4493 176.714 88.0557 Q173.658 92.639 167.848 92.639 Q162.038 92.639 158.959 88.0557 Q155.904 83.4493 155.904 74.7225 Q155.904 65.9725 158.959 61.3892 Q162.038 56.7828 167.848 56.7828 Z" fill="#000000" fill-rule="evenodd" fill-opacity="1" /><path clip-path="url(#clip940)" d="M 0 0 M194.862 60.4864 Q191.251 60.4864 189.422 64.0512 Q187.617 67.5929 187.617 74.7225 Q187.617 81.8289 189.422 85.3937 Q191.251 88.9354 194.862 88.9354 Q198.496 88.9354 200.302 85.3937 Q202.13 81.8289 202.13 74.7225 Q202.13 67.5929 200.302 64.0512 Q198.496 60.4864 194.862 60.4864 M194.862 56.7828 Q200.672 56.7828 203.728 61.3892 Q206.806 65.9725 206.806 74.7225 Q206.806 83.4493 203.728 88.0557 Q200.672 92.639 194.862 92.639 Q189.052 92.639 185.973 88.0557 Q182.917 83.4493 182.917 74.7225 Q182.917 65.9725 185.973 61.3892 Q189.052 56.7828 194.862 56.7828 Z" fill="#000000" fill-rule="evenodd" fill-opacity="1" /><path clip-path="url(#clip940)" d="M 0 0 M700.406 1094.26 L706.836 1094.26 L706.836 1141.78 L700.406 1141.78 L700.406 1094.26 Z" fill="#000000" fill-rule="evenodd" fill-opacity="1" /><path clip-path="url(#clip940)" d="M 0 0 M742.611 1120.27 L742.611 1141.78 L736.755 1141.78 L736.755 1120.46 Q736.755 1115.4 734.781 1112.88 Q732.808 1110.37 728.861 1110.37 Q724.119 1110.37 721.382 1113.39 Q718.644 1116.42 718.644 1121.64 L718.644 1141.78 L712.756 1141.78 L712.756 1106.14 L718.644 1106.14 L718.644 1111.67 Q720.745 1108.46 723.578 1106.87 Q726.442 1105.28 730.166 1105.28 Q736.309 1105.28 739.46 1109.1 Q742.611 1112.88 742.611 1120.27 Z" fill="#000000" fill-rule="evenodd" fill-opacity="1" /><path clip-path="url(#clip940)" d="M 0 0 M754.42 1136.44 L754.42 1155.34 L748.531 1155.34 L748.531 1106.14 L754.42 1106.14 L754.42 1111.55 Q756.266 1108.36 759.066 1106.84 Q761.899 1105.28 765.814 1105.28 Q772.307 1105.28 776.349 1110.43 Q780.423 1115.59 780.423 1123.99 Q780.423 1132.39 776.349 1137.55 Q772.307 1142.71 765.814 1142.71 Q761.899 1142.71 759.066 1141.18 Q756.266 1139.62 754.42 1136.44 M774.344 1123.99 Q774.344 1117.53 771.671 1113.87 Q769.029 1110.18 764.382 1110.18 Q759.735 1110.18 757.061 1113.87 Q754.42 1117.53 754.42 1123.99 Q754.42 1130.45 757.061 1134.14 Q759.735 1137.81 764.382 1137.81 Q769.029 1137.81 771.671 1134.14 Q774.344 1130.45 774.344 1123.99 Z" fill="#000000" fill-rule="evenodd" fill-opacity="1" /><path clip-path="url(#clip940)" d="M 0 0 M785.962 1127.72 L785.962 1106.14 L791.818 1106.14 L791.818 1127.49 Q791.818 1132.55 793.791 1135.1 Q795.765 1137.61 799.712 1137.61 Q804.454 1137.61 807.191 1134.59 Q809.96 1131.57 809.96 1126.35 L809.96 1106.14 L815.817 1106.14 L815.817 1141.78 L809.96 1141.78 L809.96 1136.31 Q807.828 1139.56 804.995 1141.15 Q802.194 1142.71 798.47 1142.71 Q792.327 1142.71 789.144 1138.89 Q785.962 1135.07 785.962 1127.72 M800.698 1105.28 L800.698 1105.28 Z" fill="#000000" fill-rule="evenodd" fill-opacity="1" /><path clip-path="url(#clip940)" d="M 0 0 M827.752 1096.01 L827.752 1106.14 L839.815 1106.14 L839.815 1110.69 L827.752 1110.69 L827.752 1130.04 Q827.752 1134.4 828.93 1135.64 Q830.14 1136.88 833.8 1136.88 L839.815 1136.88 L839.815 1141.78 L833.8 1141.78 Q827.02 1141.78 824.442 1139.27 Q821.864 1136.72 821.864 1130.04 L821.864 1110.69 L817.567 1110.69 L817.567 1106.14 L821.864 1106.14 L821.864 1096.01 L827.752 1096.01 Z" fill="#000000" fill-rule="evenodd" fill-opacity="1" /><path clip-path="url(#clip940)" d="M 0 0 M892.333 1107.5 L892.333 1112.98 Q889.85 1111.61 887.335 1110.94 Q884.853 1110.24 882.307 1110.24 Q876.609 1110.24 873.458 1113.87 Q870.307 1117.47 870.307 1123.99 Q870.307 1130.52 873.458 1134.14 Q876.609 1137.74 882.307 1137.74 Q884.853 1137.74 887.335 1137.07 Q889.85 1136.37 892.333 1135 L892.333 1140.42 Q889.882 1141.56 887.24 1142.13 Q884.63 1142.71 881.67 1142.71 Q873.617 1142.71 868.875 1137.65 Q864.132 1132.59 864.132 1123.99 Q864.132 1115.27 868.907 1110.27 Q873.713 1105.28 882.052 1105.28 Q884.757 1105.28 887.335 1105.85 Q889.914 1106.39 892.333 1107.5 Z" fill="#000000" fill-rule="evenodd" fill-opacity="1" /><path clip-path="url(#clip940)" d="M 0 0 M897.871 1127.72 L897.871 1106.14 L903.727 1106.14 L903.727 1127.49 Q903.727 1132.55 905.701 1135.1 Q907.674 1137.61 911.621 1137.61 Q916.363 1137.61 919.1 1134.59 Q921.869 1131.57 921.869 1126.35 L921.869 1106.14 L927.726 1106.14 L927.726 1141.78 L921.869 1141.78 L921.869 1136.31 Q919.737 1139.56 916.904 1141.15 Q914.103 1142.71 910.379 1142.71 Q904.236 1142.71 901.054 1138.89 Q897.871 1135.07 897.871 1127.72 M912.607 1105.28 L912.607 1105.28 Z" fill="#000000" fill-rule="evenodd" fill-opacity="1" /><path clip-path="url(#clip940)" d="M 0 0 M954.526 1111.61 Q953.539 1111.04 952.361 1110.78 Q951.215 1110.5 949.815 1110.5 Q944.85 1110.5 942.176 1113.74 Q939.534 1116.96 939.534 1123.01 L939.534 1141.78 L933.646 1141.78 L933.646 1106.14 L939.534 1106.14 L939.534 1111.67 Q941.38 1108.43 944.34 1106.87 Q947.3 1105.28 951.534 1105.28 Q952.138 1105.28 952.87 1105.37 Q953.602 1105.44 954.494 1105.59 L954.526 1111.61 Z" fill="#000000" fill-rule="evenodd" fill-opacity="1" /><path clip-path="url(#clip940)" d="M 0 0 M980.179 1111.61 Q979.193 1111.04 978.015 1110.78 Q976.869 1110.5 975.469 1110.5 Q970.503 1110.5 967.83 1113.74 Q965.188 1116.96 965.188 1123.01 L965.188 1141.78 L959.3 1141.78 L959.3 1106.14 L965.188 1106.14 L965.188 1111.67 Q967.034 1108.43 969.994 1106.87 Q972.954 1105.28 977.187 1105.28 Q977.792 1105.28 978.524 1105.37 Q979.256 1105.44 980.147 1105.59 L980.179 1111.61 Z" fill="#000000" fill-rule="evenodd" fill-opacity="1" /><path clip-path="url(#clip940)" d="M 0 0 M1015.38 1122.5 L1015.38 1125.36 L988.455 1125.36 Q988.837 1131.41 992.083 1134.59 Q995.362 1137.74 1001.19 1137.74 Q1004.56 1137.74 1007.71 1136.91 Q1010.89 1136.09 1014.01 1134.43 L1014.01 1139.97 Q1010.86 1141.31 1007.55 1142.01 Q1004.24 1142.71 1000.84 1142.71 Q992.306 1142.71 987.309 1137.74 Q982.344 1132.78 982.344 1124.31 Q982.344 1115.56 987.054 1110.43 Q991.797 1105.28 999.818 1105.28 Q1007.01 1105.28 1011.18 1109.92 Q1015.38 1114.54 1015.38 1122.5 M1009.53 1120.78 Q1009.46 1115.97 1006.82 1113.11 Q1004.21 1110.24 999.881 1110.24 Q994.98 1110.24 992.02 1113.01 Q989.091 1115.78 988.646 1120.81 L1009.53 1120.78 Z" fill="#000000" fill-rule="evenodd" fill-opacity="1" /><path clip-path="url(#clip940)" d="M 0 0 M1051.16 1120.27 L1051.16 1141.78 L1045.3 1141.78 L1045.3 1120.46 Q1045.3 1115.4 1043.33 1112.88 Q1041.35 1110.37 1037.41 1110.37 Q1032.66 1110.37 1029.93 1113.39 Q1027.19 1116.42 1027.19 1121.64 L1027.19 1141.78 L1021.3 1141.78 L1021.3 1106.14 L1027.19 1106.14 L1027.19 1111.67 Q1029.29 1108.46 1032.12 1106.87 Q1034.99 1105.28 1038.71 1105.28 Q1044.85 1105.28 1048.01 1109.1 Q1051.16 1112.88 1051.16 1120.27 Z" fill="#000000" fill-rule="evenodd" fill-opacity="1" /><path clip-path="url(#clip940)" d="M 0 0 M1063.09 1096.01 L1063.09 1106.14 L1075.16 1106.14 L1075.16 1110.69 L1063.09 1110.69 L1063.09 1130.04 Q1063.09 1134.4 1064.27 1135.64 Q1065.48 1136.88 1069.14 1136.88 L1075.16 1136.88 L1075.16 1141.78 L1069.14 1141.78 Q1062.36 1141.78 1059.78 1139.27 Q1057.2 1136.72 1057.2 1130.04 L1057.2 1110.69 L1052.91 1110.69 L1052.91 1106.14 L1057.2 1106.14 L1057.2 1096.01 L1063.09 1096.01 Z" fill="#000000" fill-rule="evenodd" fill-opacity="1" /><path clip-path="url(#clip940)" d="M 0 0 M54.4242 742.866 L54.4242 715.558 L59.835 715.558 L59.835 736.437 L73.8396 736.437 L73.8396 717.595 L79.2504 717.595 L79.2504 736.437 L101.944 736.437 L101.944 742.866 L54.4242 742.866 Z" fill="#000000" fill-rule="evenodd" fill-opacity="1" /><path clip-path="url(#clip940)" d="M 0 0 M66.2962 714.157 L66.2962 708.301 L101.944 708.301 L101.944 714.157 L66.2962 714.157 M52.419 714.157 L52.419 708.301 L59.835 708.301 L59.835 714.157 L52.419 714.157 Z" fill="#000000" fill-rule="evenodd" fill-opacity="1" /><path clip-path="url(#clip940)" d="M 0 0 M71.7707 681.501 Q71.1978 682.488 70.9432 683.665 Q70.6567 684.811 70.6567 686.212 Q70.6567 691.177 73.9032 693.85 Q77.1179 696.492 83.1653 696.492 L101.944 696.492 L101.944 702.381 L66.2962 702.381 L66.2962 696.492 L71.8344 696.492 Q68.5879 694.646 67.0283 691.686 Q65.4368 688.726 65.4368 684.493 Q65.4368 683.888 65.5323 683.156 Q65.596 682.424 65.7551 681.533 L71.7707 681.501 Z" fill="#000000" fill-rule="evenodd" fill-opacity="1" /><path clip-path="url(#clip940)" d="M 0 0 M66.2962 675.358 L66.2962 669.502 L101.944 669.502 L101.944 675.358 L66.2962 675.358 M52.419 675.358 L52.419 669.502 L59.835 669.502 L59.835 675.358 L52.419 675.358 Z" fill="#000000" fill-rule="evenodd" fill-opacity="1" /><path clip-path="url(#clip940)" d="M 0 0 M80.4281 633.726 L101.944 633.726 L101.944 639.583 L80.619 639.583 Q75.5583 639.583 73.0438 641.556 Q70.5294 643.53 70.5294 647.476 Q70.5294 652.219 73.5531 654.956 Q76.5768 657.693 81.7967 657.693 L101.944 657.693 L101.944 663.582 L66.2962 663.582 L66.2962 657.693 L71.8344 657.693 Q68.6197 655.593 67.0283 652.76 Q65.4368 649.895 65.4368 646.171 Q65.4368 640.028 69.2563 636.877 Q73.0438 633.726 80.4281 633.726 Z" fill="#000000" fill-rule="evenodd" fill-opacity="1" /><path clip-path="url(#clip940)" d="M 0 0 M83.7064 604.126 Q77.3407 604.126 73.8396 606.768 Q70.3384 609.378 70.3384 614.12 Q70.3384 618.831 73.8396 621.472 Q77.3407 624.082 83.7064 624.082 Q90.0403 624.082 93.5414 621.472 Q97.0426 618.831 97.0426 614.12 Q97.0426 609.378 93.5414 606.768 Q90.0403 604.126 83.7064 604.126 M97.52 598.269 Q106.623 598.269 111.047 602.312 Q115.503 606.354 115.503 614.693 Q115.503 617.78 115.026 620.518 Q114.58 623.255 113.625 625.833 L107.928 625.833 Q109.328 623.255 109.997 620.74 Q110.665 618.226 110.665 615.616 Q110.665 609.855 107.641 606.99 Q104.65 604.126 98.5703 604.126 L95.6739 604.126 Q98.825 605.94 100.385 608.773 Q101.944 611.606 101.944 615.552 Q101.944 622.109 96.9471 626.119 Q91.95 630.13 83.7064 630.13 Q75.431 630.13 70.4339 626.119 Q65.4368 622.109 65.4368 615.552 Q65.4368 611.606 66.9964 608.773 Q68.556 605.94 71.7071 604.126 L66.2962 604.126 L66.2962 598.269 L97.52 598.269 Z" fill="#000000" fill-rule="evenodd" fill-opacity="1" /><path clip-path="url(#clip940)" d="M 0 0 M71.7707 550.749 Q71.1978 551.736 70.9432 552.914 Q70.6567 554.06 70.6567 555.46 Q70.6567 560.425 73.9032 563.099 Q77.1179 565.741 83.1653 565.741 L101.944 565.741 L101.944 571.629 L66.2962 571.629 L66.2962 565.741 L71.8344 565.741 Q68.5879 563.895 67.0283 560.935 Q65.4368 557.974 65.4368 553.741 Q65.4368 553.137 65.5323 552.404 Q65.596 551.672 65.7551 550.781 L71.7707 550.749 Z" fill="#000000" fill-rule="evenodd" fill-opacity="1" /><path clip-path="url(#clip940)" d="M 0 0 M84.0247 528.406 Q84.0247 535.504 85.6479 538.241 Q87.2712 540.978 91.1861 540.978 Q94.3053 540.978 96.1514 538.941 Q97.9656 536.872 97.9656 533.339 Q97.9656 528.469 94.5281 525.541 Q91.0588 522.581 85.3297 522.581 L84.0247 522.581 L84.0247 528.406 M81.6057 516.725 L101.944 516.725 L101.944 522.581 L96.5333 522.581 Q99.7798 524.586 101.339 527.578 Q102.867 530.57 102.867 534.899 Q102.867 540.373 99.8116 543.62 Q96.7243 546.834 91.5681 546.834 Q85.5525 546.834 82.4969 542.824 Q79.4414 538.782 79.4414 530.793 L79.4414 522.581 L78.8685 522.581 Q74.8262 522.581 72.6301 525.255 Q70.4021 527.897 70.4021 532.703 Q70.4021 535.758 71.1341 538.655 Q71.8662 541.551 73.3303 544.225 L67.9195 544.225 Q66.6781 541.01 66.0734 537.986 Q65.4368 534.962 65.4368 532.098 Q65.4368 524.364 69.4472 520.544 Q73.4576 516.725 81.6057 516.725 Z" fill="#000000" fill-rule="evenodd" fill-opacity="1" /><path clip-path="url(#clip940)" d="M 0 0 M56.1747 504.789 L66.2962 504.789 L66.2962 492.726 L70.8477 492.726 L70.8477 504.789 L90.1994 504.789 Q94.5599 504.789 95.8013 503.611 Q97.0426 502.402 97.0426 498.742 L97.0426 492.726 L101.944 492.726 L101.944 498.742 Q101.944 505.521 99.4297 508.099 Q96.8834 510.677 90.1994 510.677 L70.8477 510.677 L70.8477 514.974 L66.2962 514.974 L66.2962 510.677 L56.1747 510.677 L56.1747 504.789 Z" fill="#000000" fill-rule="evenodd" fill-opacity="1" /><path clip-path="url(#clip940)" d="M 0 0 M82.6561 456.091 L85.5206 456.091 L85.5206 483.018 Q91.5681 482.636 94.7509 479.39 Q97.9019 476.111 97.9019 470.287 Q97.9019 466.913 97.0744 463.762 Q96.2469 460.579 94.5918 457.46 L100.13 457.46 Q101.467 460.611 102.167 463.921 Q102.867 467.231 102.867 470.637 Q102.867 479.167 97.9019 484.164 Q92.9367 489.129 84.4703 489.129 Q75.7174 489.129 70.5931 484.419 Q65.4368 479.676 65.4368 471.655 Q65.4368 464.462 70.0838 460.293 Q74.6989 456.091 82.6561 456.091 M80.9373 461.948 Q76.1312 462.011 73.2666 464.653 Q70.4021 467.263 70.4021 471.592 Q70.4021 476.493 73.1712 479.453 Q75.9402 482.382 80.9692 482.827 L80.9373 461.948 Z" fill="#000000" fill-rule="evenodd" fill-opacity="1" /><path clip-path="url(#clip940)" d="M 0 0 M52.4826 415.16 Q59.8032 419.425 66.9646 421.494 Q74.126 423.563 81.4784 423.563 Q88.8308 423.563 96.0559 421.494 Q103.249 419.393 110.538 415.16 L110.538 420.252 Q103.058 425.027 95.8331 427.414 Q88.608 429.769 81.4784 429.769 Q74.3806 429.769 67.1874 427.414 Q59.9942 425.059 52.4826 420.252 L52.4826 415.16 Z" fill="#000000" fill-rule="evenodd" fill-opacity="1" /><path clip-path="url(#clip940)" d="M 0 0 M54.4242 408.762 L54.4242 402.333 L73.9032 402.333 L73.9032 378.971 L54.4242 378.971 L54.4242 372.541 L101.944 372.541 L101.944 378.971 L79.3141 378.971 L79.3141 402.333 L101.944 402.333 L101.944 408.762 L54.4242 408.762 Z" fill="#000000" fill-rule="evenodd" fill-opacity="1" /><path clip-path="url(#clip940)" d="M 0 0 M66.2962 368.945 L66.2962 341.127 L71.6434 341.127 L97.2654 363.152 L97.2654 341.127 L101.944 341.127 L101.944 369.741 L96.597 369.741 L70.975 347.715 L70.975 368.945 L66.2962 368.945 Z" fill="#000000" fill-rule="evenodd" fill-opacity="1" /><path clip-path="url(#clip940)" d="M 0 0 M52.4826 335.907 L52.4826 330.814 Q59.9942 326.04 67.1874 323.685 Q74.3806 321.298 81.4784 321.298 Q88.608 321.298 95.8331 323.685 Q103.058 326.04 110.538 330.814 L110.538 335.907 Q103.249 331.674 96.0559 329.605 Q88.8308 327.504 81.4784 327.504 Q74.126 327.504 66.9646 329.605 Q59.8032 331.674 52.4826 335.907 Z" fill="#000000" fill-rule="evenodd" fill-opacity="1" /><polyline clip-path="url(#clip942)" style="stroke:#009af9; stroke-width:4; stroke-opacity:1; fill:none" points="
  260.446,989.476 273.12,989.476 285.793,989.476 298.467,989.476 311.14,989.476 323.813,980.328 336.487,980.328 349.16,980.328 361.834,980.328 374.507,980.328 
  387.181,980.328 399.854,980.328 412.527,980.328 425.201,980.328 437.874,980.328 450.548,980.328 463.221,980.328 475.895,971.18 488.568,504.638 501.241,477.195 
  513.915,458.899 526.588,440.603 539.262,431.455 551.935,422.307 564.609,413.159 577.282,404.012 589.955,394.864 602.629,385.716 615.302,376.568 627.976,367.42 
  640.649,367.42 653.323,358.272 665.996,349.124 678.67,339.976 691.343,339.976 704.016,330.829 716.69,321.681 729.363,321.681 742.037,312.533 754.71,303.385 
  767.383,303.385 780.057,294.237 792.73,294.237 805.404,285.089 818.077,285.089 830.751,275.941 843.424,275.941 856.097,266.793 868.771,257.645 881.444,257.645 
  894.118,248.498 906.791,248.498 919.465,239.35 932.138,239.35 944.812,239.35 957.485,230.202 970.158,230.202 982.832,221.054 995.505,221.054 1008.18,211.906 
  1020.85,211.906 1033.53,202.758 1046.2,202.758 1058.87,202.758 1071.55,193.61 1084.22,193.61 1096.89,184.462 1109.57,184.462 1122.24,175.314 1134.91,175.314 
  1147.59,175.314 1160.26,166.167 1172.93,166.167 1185.61,157.019 1198.28,157.019 1210.95,157.019 1223.63,147.871 1236.3,147.871 1248.97,147.871 1261.65,138.723 
  1274.32,138.723 1286.99,129.575 1299.67,129.575 1312.34,129.575 1325.01,120.427 1337.69,120.427 1350.36,120.427 1363.03,111.279 1375.71,111.279 1388.38,111.279 
  1401.05,102.131 1413.73,102.131 1426.4,102.131 1439.08,92.9835 1451.75,92.9835 1464.42,92.9835 1477.1,83.8356 1489.77,83.8356 1502.44,83.8356 1515.12,74.6877 
  
  "/>
</svg>
