<?xml version="1.0" encoding="utf-8"?>
<svg xmlns="http://www.w3.org/2000/svg" xmlns:xlink="http://www.w3.org/1999/xlink" width="400" height="300" viewBox="0 0 1600 1200">
<defs>
  <clipPath id="clip410">
    <rect x="0" y="0" width="1600" height="1200"/>
  </clipPath>
</defs>
<path clip-path="url(#clip410)" d="
M0 1200 L1600 1200 L1600 0 L0 0  Z
  " fill="#ffffff" fill-rule="evenodd" fill-opacity="1"/>
<defs>
  <clipPath id="clip411">
    <rect x="320" y="0" width="1121" height="1121"/>
  </clipPath>
</defs>
<path clip-path="url(#clip410)" d="
M222.806 1016.92 L1552.76 1016.92 L1552.76 47.2441 L222.806 47.2441  Z
  " fill="#ffffff" fill-rule="evenodd" fill-opacity="1"/>
<defs>
  <clipPath id="clip412">
    <rect x="222" y="47" width="1331" height="971"/>
  </clipPath>
</defs>
<polyline clip-path="url(#clip412)" style="stroke:#000000; stroke-width:2; stroke-opacity:0.1; fill:none" points="
  260.446,1016.92 260.446,47.2441 
  "/>
<polyline clip-path="url(#clip412)" style="stroke:#000000; stroke-width:2; stroke-opacity:0.1; fill:none" points="
  511.38,1016.92 511.38,47.2441 
  "/>
<polyline clip-path="url(#clip412)" style="stroke:#000000; stroke-width:2; stroke-opacity:0.1; fill:none" points="
  762.314,1016.92 762.314,47.2441 
  "/>
<polyline clip-path="url(#clip412)" style="stroke:#000000; stroke-width:2; stroke-opacity:0.1; fill:none" points="
  1013.25,1016.92 1013.25,47.2441 
  "/>
<polyline clip-path="url(#clip412)" style="stroke:#000000; stroke-width:2; stroke-opacity:0.1; fill:none" points="
  1264.18,1016.92 1264.18,47.2441 
  "/>
<polyline clip-path="url(#clip412)" style="stroke:#000000; stroke-width:2; stroke-opacity:0.1; fill:none" points="
  1515.12,1016.92 1515.12,47.2441 
  "/>
<polyline clip-path="url(#clip412)" style="stroke:#000000; stroke-width:2; stroke-opacity:0.1; fill:none" points="
  222.806,989.476 1552.76,989.476 
  "/>
<polyline clip-path="url(#clip412)" style="stroke:#000000; stroke-width:2; stroke-opacity:0.1; fill:none" points="
  222.806,785.216 1552.76,785.216 
  "/>
<polyline clip-path="url(#clip412)" style="stroke:#000000; stroke-width:2; stroke-opacity:0.1; fill:none" points="
  222.806,580.956 1552.76,580.956 
  "/>
<polyline clip-path="url(#clip412)" style="stroke:#000000; stroke-width:2; stroke-opacity:0.1; fill:none" points="
  222.806,376.696 1552.76,376.696 
  "/>
<polyline clip-path="url(#clip412)" style="stroke:#000000; stroke-width:2; stroke-opacity:0.1; fill:none" points="
  222.806,172.435 1552.76,172.435 
  "/>
<polyline clip-path="url(#clip410)" style="stroke:#000000; stroke-width:4; stroke-opacity:1; fill:none" points="
  222.806,1016.92 1552.76,1016.92 
  "/>
<polyline clip-path="url(#clip410)" style="stroke:#000000; stroke-width:4; stroke-opacity:1; fill:none" points="
  222.806,1016.92 222.806,47.2441 
  "/>
<polyline clip-path="url(#clip410)" style="stroke:#000000; stroke-width:4; stroke-opacity:1; fill:none" points="
  260.446,1016.92 260.446,1005.28 
  "/>
<polyline clip-path="url(#clip410)" style="stroke:#000000; stroke-width:4; stroke-opacity:1; fill:none" points="
  511.38,1016.92 511.38,1005.28 
  "/>
<polyline clip-path="url(#clip410)" style="stroke:#000000; stroke-width:4; stroke-opacity:1; fill:none" points="
  762.314,1016.92 762.314,1005.28 
  "/>
<polyline clip-path="url(#clip410)" style="stroke:#000000; stroke-width:4; stroke-opacity:1; fill:none" points="
  1013.25,1016.92 1013.25,1005.28 
  "/>
<polyline clip-path="url(#clip410)" style="stroke:#000000; stroke-width:4; stroke-opacity:1; fill:none" points="
  1264.18,1016.92 1264.18,1005.28 
  "/>
<polyline clip-path="url(#clip410)" style="stroke:#000000; stroke-width:4; stroke-opacity:1; fill:none" points="
  1515.12,1016.92 1515.12,1005.28 
  "/>
<polyline clip-path="url(#clip410)" style="stroke:#000000; stroke-width:4; stroke-opacity:1; fill:none" points="
  222.806,989.476 238.766,989.476 
  "/>
<polyline clip-path="url(#clip410)" style="stroke:#000000; stroke-width:4; stroke-opacity:1; fill:none" points="
  222.806,785.216 238.766,785.216 
  "/>
<polyline clip-path="url(#clip410)" style="stroke:#000000; stroke-width:4; stroke-opacity:1; fill:none" points="
  222.806,580.956 238.766,580.956 
  "/>
<polyline clip-path="url(#clip410)" style="stroke:#000000; stroke-width:4; stroke-opacity:1; fill:none" points="
  222.806,376.696 238.766,376.696 
  "/>
<polyline clip-path="url(#clip410)" style="stroke:#000000; stroke-width:4; stroke-opacity:1; fill:none" points="
  222.806,172.435 238.766,172.435 
  "/>
<path clip-path="url(#clip410)" d="M 0 0 M237.819 1062.46 L245.458 1062.46 L245.458 1036.09 L237.148 1037.76 L237.148 1033.5 L245.412 1031.83 L250.088 1031.83 L250.088 1062.46 L257.726 1062.46 L257.726 1066.39 L237.819 1066.39 L237.819 1062.46 Z" fill="#000000" fill-rule="evenodd" fill-opacity="1" /><path clip-path="url(#clip410)" d="M 0 0 M262.842 1031.83 L281.199 1031.83 L281.199 1035.77 L267.125 1035.77 L267.125 1044.24 Q268.143 1043.89 269.162 1043.73 Q270.18 1043.54 271.199 1043.54 Q276.986 1043.54 280.365 1046.72 Q283.745 1049.89 283.745 1055.3 Q283.745 1060.88 280.273 1063.98 Q276.8 1067.06 270.481 1067.06 Q268.305 1067.06 266.037 1066.69 Q263.791 1066.32 261.384 1065.58 L261.384 1060.88 Q263.467 1062.02 265.689 1062.57 Q267.912 1063.13 270.388 1063.13 Q274.393 1063.13 276.731 1061.02 Q279.069 1058.92 279.069 1055.3 Q279.069 1051.69 276.731 1049.59 Q274.393 1047.48 270.388 1047.48 Q268.513 1047.48 266.638 1047.9 Q264.787 1048.31 262.842 1049.19 L262.842 1031.83 Z" fill="#000000" fill-rule="evenodd" fill-opacity="1" /><path clip-path="url(#clip410)" d="M 0 0 M492.526 1062.46 L508.846 1062.46 L508.846 1066.39 L486.901 1066.39 L486.901 1062.46 Q489.563 1059.7 494.147 1055.07 Q498.753 1050.42 499.934 1049.08 Q502.179 1046.55 503.059 1044.82 Q503.961 1043.06 503.961 1041.37 Q503.961 1038.61 502.017 1036.88 Q500.096 1035.14 496.994 1035.14 Q494.795 1035.14 492.341 1035.91 Q489.91 1036.67 487.133 1038.22 L487.133 1033.5 Q489.957 1032.36 492.41 1031.79 Q494.864 1031.21 496.901 1031.21 Q502.271 1031.21 505.466 1033.89 Q508.66 1036.58 508.66 1041.07 Q508.66 1043.2 507.85 1045.12 Q507.063 1047.02 504.957 1049.61 Q504.378 1050.28 501.276 1053.5 Q498.174 1056.69 492.526 1062.46 Z" fill="#000000" fill-rule="evenodd" fill-opacity="1" /><path clip-path="url(#clip410)" d="M 0 0 M523.915 1034.91 Q520.304 1034.91 518.475 1038.48 Q516.67 1042.02 516.67 1049.15 Q516.67 1056.25 518.475 1059.82 Q520.304 1063.36 523.915 1063.36 Q527.549 1063.36 529.355 1059.82 Q531.183 1056.25 531.183 1049.15 Q531.183 1042.02 529.355 1038.48 Q527.549 1034.91 523.915 1034.91 M523.915 1031.21 Q529.725 1031.21 532.781 1035.81 Q535.859 1040.4 535.859 1049.15 Q535.859 1057.87 532.781 1062.48 Q529.725 1067.06 523.915 1067.06 Q518.105 1067.06 515.026 1062.48 Q511.97 1057.87 511.97 1049.15 Q511.97 1040.4 515.026 1035.81 Q518.105 1031.21 523.915 1031.21 Z" fill="#000000" fill-rule="evenodd" fill-opacity="1" /><path clip-path="url(#clip410)" d="M 0 0 M743.958 1062.46 L760.277 1062.46 L760.277 1066.39 L738.333 1066.39 L738.333 1062.46 Q740.995 1059.7 745.578 1055.07 Q750.185 1050.42 751.365 1049.08 Q753.61 1046.55 754.49 1044.82 Q755.393 1043.06 755.393 1041.37 Q755.393 1038.61 753.448 1036.88 Q751.527 1035.14 748.425 1035.14 Q746.226 1035.14 743.773 1035.91 Q741.342 1036.67 738.564 1038.22 L738.564 1033.5 Q741.388 1032.36 743.842 1031.79 Q746.296 1031.21 748.333 1031.21 Q753.703 1031.21 756.897 1033.89 Q760.092 1036.58 760.092 1041.07 Q760.092 1043.2 759.282 1045.12 Q758.495 1047.02 756.388 1049.61 Q755.81 1050.28 752.708 1053.5 Q749.606 1056.69 743.958 1062.46 Z" fill="#000000" fill-rule="evenodd" fill-opacity="1" /><path clip-path="url(#clip410)" d="M 0 0 M765.393 1031.83 L783.749 1031.83 L783.749 1035.77 L769.675 1035.77 L769.675 1044.24 Q770.694 1043.89 771.712 1043.73 Q772.731 1043.54 773.749 1043.54 Q779.536 1043.54 782.916 1046.72 Q786.295 1049.89 786.295 1055.3 Q786.295 1060.88 782.823 1063.98 Q779.351 1067.06 773.032 1067.06 Q770.856 1067.06 768.587 1066.69 Q766.342 1066.32 763.934 1065.58 L763.934 1060.88 Q766.018 1062.02 768.24 1062.57 Q770.462 1063.13 772.939 1063.13 Q776.944 1063.13 779.282 1061.02 Q781.62 1058.92 781.62 1055.3 Q781.62 1051.69 779.282 1049.59 Q776.944 1047.48 772.939 1047.48 Q771.064 1047.48 769.189 1047.9 Q767.337 1048.31 765.393 1049.19 L765.393 1031.83 Z" fill="#000000" fill-rule="evenodd" fill-opacity="1" /><path clip-path="url(#clip410)" d="M 0 0 M1003.99 1047.76 Q1007.35 1048.48 1009.22 1050.74 Q1011.12 1053.01 1011.12 1056.35 Q1011.12 1061.46 1007.6 1064.26 Q1004.08 1067.06 997.6 1067.06 Q995.424 1067.06 993.109 1066.62 Q990.818 1066.21 988.364 1065.35 L988.364 1060.84 Q990.308 1061.97 992.623 1062.55 Q994.938 1063.13 997.461 1063.13 Q1001.86 1063.13 1004.15 1061.39 Q1006.47 1059.66 1006.47 1056.35 Q1006.47 1053.29 1004.31 1051.58 Q1002.18 1049.84 998.364 1049.84 L994.336 1049.84 L994.336 1046 L998.549 1046 Q1002 1046 1003.83 1044.63 Q1005.66 1043.24 1005.66 1040.65 Q1005.66 1037.99 1003.76 1036.58 Q1001.88 1035.14 998.364 1035.14 Q996.443 1035.14 994.243 1035.56 Q992.044 1035.98 989.406 1036.85 L989.406 1032.69 Q992.068 1031.95 994.382 1031.58 Q996.72 1031.21 998.781 1031.21 Q1004.1 1031.21 1007.21 1033.64 Q1010.31 1036.04 1010.31 1040.17 Q1010.31 1043.04 1008.66 1045.03 Q1007.02 1046.99 1003.99 1047.76 Z" fill="#000000" fill-rule="evenodd" fill-opacity="1" /><path clip-path="url(#clip410)" d="M 0 0 M1026.19 1034.91 Q1022.58 1034.91 1020.75 1038.48 Q1018.94 1042.02 1018.94 1049.15 Q1018.94 1056.25 1020.75 1059.82 Q1022.58 1063.36 1026.19 1063.36 Q1029.82 1063.36 1031.63 1059.82 Q1033.46 1056.25 1033.46 1049.15 Q1033.46 1042.02 1031.63 1038.48 Q1029.82 1034.91 1026.19 1034.91 M1026.19 1031.21 Q1032 1031.21 1035.05 1035.81 Q1038.13 1040.4 1038.13 1049.15 Q1038.13 1057.87 1035.05 1062.48 Q1032 1067.06 1026.19 1067.06 Q1020.38 1067.06 1017.3 1062.48 Q1014.24 1057.87 1014.24 1049.15 Q1014.24 1040.4 1017.3 1035.81 Q1020.38 1031.21 1026.19 1031.21 Z" fill="#000000" fill-rule="evenodd" fill-opacity="1" /><path clip-path="url(#clip410)" d="M 0 0 M1255.42 1047.76 Q1258.78 1048.48 1260.65 1050.74 Q1262.55 1053.01 1262.55 1056.35 Q1262.55 1061.46 1259.03 1064.26 Q1255.51 1067.06 1249.03 1067.06 Q1246.86 1067.06 1244.54 1066.62 Q1242.25 1066.21 1239.8 1065.35 L1239.8 1060.84 Q1241.74 1061.97 1244.05 1062.55 Q1246.37 1063.13 1248.89 1063.13 Q1253.29 1063.13 1255.58 1061.39 Q1257.9 1059.66 1257.9 1056.35 Q1257.9 1053.29 1255.74 1051.58 Q1253.61 1049.84 1249.8 1049.84 L1245.77 1049.84 L1245.77 1046 L1249.98 1046 Q1253.43 1046 1255.26 1044.63 Q1257.09 1043.24 1257.09 1040.65 Q1257.09 1037.99 1255.19 1036.58 Q1253.31 1035.14 1249.8 1035.14 Q1247.87 1035.14 1245.68 1035.56 Q1243.48 1035.98 1240.84 1036.85 L1240.84 1032.69 Q1243.5 1031.95 1245.81 1031.58 Q1248.15 1031.21 1250.21 1031.21 Q1255.54 1031.21 1258.64 1033.64 Q1261.74 1036.04 1261.74 1040.17 Q1261.74 1043.04 1260.1 1045.03 Q1258.45 1046.99 1255.42 1047.76 Z" fill="#000000" fill-rule="evenodd" fill-opacity="1" /><path clip-path="url(#clip410)" d="M 0 0 M1267.67 1031.83 L1286.02 1031.83 L1286.02 1035.77 L1271.95 1035.77 L1271.95 1044.24 Q1272.97 1043.89 1273.99 1043.73 Q1275 1043.54 1276.02 1043.54 Q1281.81 1043.54 1285.19 1046.72 Q1288.57 1049.89 1288.57 1055.3 Q1288.57 1060.88 1285.1 1063.98 Q1281.62 1067.06 1275.3 1067.06 Q1273.13 1067.06 1270.86 1066.69 Q1268.61 1066.32 1266.21 1065.58 L1266.21 1060.88 Q1268.29 1062.02 1270.51 1062.57 Q1272.74 1063.13 1275.21 1063.13 Q1279.22 1063.13 1281.55 1061.02 Q1283.89 1058.92 1283.89 1055.3 Q1283.89 1051.69 1281.55 1049.59 Q1279.22 1047.48 1275.21 1047.48 Q1273.34 1047.48 1271.46 1047.9 Q1269.61 1048.31 1267.67 1049.19 L1267.67 1031.83 Z" fill="#000000" fill-rule="evenodd" fill-opacity="1" /><path clip-path="url(#clip410)" d="M 0 0 M1504.62 1035.91 L1492.81 1054.35 L1504.62 1054.35 L1504.62 1035.91 M1503.39 1031.83 L1509.27 1031.83 L1509.27 1054.35 L1514.2 1054.35 L1514.2 1058.24 L1509.27 1058.24 L1509.27 1066.39 L1504.62 1066.39 L1504.62 1058.24 L1489.02 1058.24 L1489.02 1053.73 L1503.39 1031.83 Z" fill="#000000" fill-rule="evenodd" fill-opacity="1" /><path clip-path="url(#clip410)" d="M 0 0 M1529.27 1034.91 Q1525.66 1034.91 1523.83 1038.48 Q1522.03 1042.02 1522.03 1049.15 Q1522.03 1056.25 1523.83 1059.82 Q1525.66 1063.36 1529.27 1063.36 Q1532.91 1063.36 1534.71 1059.82 Q1536.54 1056.25 1536.54 1049.15 Q1536.54 1042.02 1534.71 1038.48 Q1532.91 1034.91 1529.27 1034.91 M1529.27 1031.21 Q1535.08 1031.21 1538.14 1035.81 Q1541.22 1040.4 1541.22 1049.15 Q1541.22 1057.87 1538.14 1062.48 Q1535.08 1067.06 1529.27 1067.06 Q1523.46 1067.06 1520.38 1062.48 Q1517.33 1057.87 1517.33 1049.15 Q1517.33 1040.4 1520.38 1035.81 Q1523.46 1031.21 1529.27 1031.21 Z" fill="#000000" fill-rule="evenodd" fill-opacity="1" /><path clip-path="url(#clip410)" d="M 0 0 M194.862 975.275 Q191.251 975.275 189.422 978.84 Q187.617 982.381 187.617 989.511 Q187.617 996.617 189.422 1000.18 Q191.251 1003.72 194.862 1003.72 Q198.496 1003.72 200.302 1000.18 Q202.13 996.617 202.13 989.511 Q202.13 982.381 200.302 978.84 Q198.496 975.275 194.862 975.275 M194.862 971.571 Q200.672 971.571 203.728 976.178 Q206.806 980.761 206.806 989.511 Q206.806 998.238 203.728 1002.84 Q200.672 1007.43 194.862 1007.43 Q189.052 1007.43 185.973 1002.84 Q182.917 998.238 182.917 989.511 Q182.917 980.761 185.973 976.178 Q189.052 971.571 194.862 971.571 Z" fill="#000000" fill-rule="evenodd" fill-opacity="1" /><path clip-path="url(#clip410)" d="M 0 0 M164.469 798.561 L180.788 798.561 L180.788 802.496 L158.844 802.496 L158.844 798.561 Q161.506 795.806 166.089 791.177 Q170.695 786.524 171.876 785.181 Q174.121 782.658 175.001 780.922 Q175.904 779.163 175.904 777.473 Q175.904 774.718 173.959 772.982 Q172.038 771.246 168.936 771.246 Q166.737 771.246 164.283 772.01 Q161.853 772.774 159.075 774.325 L159.075 769.603 Q161.899 768.468 164.353 767.89 Q166.806 767.311 168.843 767.311 Q174.214 767.311 177.408 769.996 Q180.603 772.681 180.603 777.172 Q180.603 779.302 179.792 781.223 Q179.005 783.121 176.899 785.714 Q176.32 786.385 173.218 789.603 Q170.117 792.797 164.469 798.561 Z" fill="#000000" fill-rule="evenodd" fill-opacity="1" /><path clip-path="url(#clip410)" d="M 0 0 M185.904 767.936 L204.26 767.936 L204.26 771.871 L190.186 771.871 L190.186 780.343 Q191.204 779.996 192.223 779.834 Q193.241 779.649 194.26 779.649 Q200.047 779.649 203.427 782.82 Q206.806 785.991 206.806 791.408 Q206.806 796.987 203.334 800.089 Q199.862 803.167 193.542 803.167 Q191.367 803.167 189.098 802.797 Q186.853 802.427 184.445 801.686 L184.445 796.987 Q186.529 798.121 188.751 798.677 Q190.973 799.232 193.45 799.232 Q197.454 799.232 199.792 797.126 Q202.13 795.019 202.13 791.408 Q202.13 787.797 199.792 785.691 Q197.454 783.584 193.45 783.584 Q191.575 783.584 189.7 784.001 Q187.848 784.417 185.904 785.297 L185.904 767.936 Z" fill="#000000" fill-rule="evenodd" fill-opacity="1" /><path clip-path="url(#clip410)" d="M 0 0 M158.89 563.676 L177.246 563.676 L177.246 567.611 L163.172 567.611 L163.172 576.083 Q164.191 575.736 165.209 575.574 Q166.228 575.389 167.246 575.389 Q173.033 575.389 176.413 578.56 Q179.792 581.731 179.792 587.148 Q179.792 592.727 176.32 595.828 Q172.848 598.907 166.529 598.907 Q164.353 598.907 162.084 598.537 Q159.839 598.166 157.432 597.426 L157.432 592.727 Q159.515 593.861 161.737 594.416 Q163.959 594.972 166.436 594.972 Q170.441 594.972 172.779 592.865 Q175.117 590.759 175.117 587.148 Q175.117 583.537 172.779 581.43 Q170.441 579.324 166.436 579.324 Q164.561 579.324 162.686 579.741 Q160.834 580.157 158.89 581.037 L158.89 563.676 Z" fill="#000000" fill-rule="evenodd" fill-opacity="1" /><path clip-path="url(#clip410)" d="M 0 0 M194.862 566.755 Q191.251 566.755 189.422 570.319 Q187.617 573.861 187.617 580.991 Q187.617 588.097 189.422 591.662 Q191.251 595.203 194.862 595.203 Q198.496 595.203 200.302 591.662 Q202.13 588.097 202.13 580.991 Q202.13 573.861 200.302 570.319 Q198.496 566.755 194.862 566.755 M194.862 563.051 Q200.672 563.051 203.728 567.657 Q206.806 572.241 206.806 580.991 Q206.806 589.717 203.728 594.324 Q200.672 598.907 194.862 598.907 Q189.052 598.907 185.973 594.324 Q182.917 589.717 182.917 580.991 Q182.917 572.241 185.973 567.657 Q189.052 563.051 194.862 563.051 Z" fill="#000000" fill-rule="evenodd" fill-opacity="1" /><path clip-path="url(#clip410)" d="M 0 0 M158.566 359.416 L180.788 359.416 L180.788 361.406 L168.242 393.976 L163.357 393.976 L175.163 363.351 L158.566 363.351 L158.566 359.416 Z" fill="#000000" fill-rule="evenodd" fill-opacity="1" /><path clip-path="url(#clip410)" d="M 0 0 M185.904 359.416 L204.26 359.416 L204.26 363.351 L190.186 363.351 L190.186 371.823 Q191.204 371.476 192.223 371.314 Q193.241 371.129 194.26 371.129 Q200.047 371.129 203.427 374.3 Q206.806 377.471 206.806 382.888 Q206.806 388.466 203.334 391.568 Q199.862 394.647 193.542 394.647 Q191.367 394.647 189.098 394.277 Q186.853 393.906 184.445 393.165 L184.445 388.466 Q186.529 389.601 188.751 390.156 Q190.973 390.712 193.45 390.712 Q197.454 390.712 199.792 388.605 Q202.13 386.499 202.13 382.888 Q202.13 379.277 199.792 377.17 Q197.454 375.064 193.45 375.064 Q191.575 375.064 189.7 375.48 Q187.848 375.897 185.904 376.777 L185.904 359.416 Z" fill="#000000" fill-rule="evenodd" fill-opacity="1" /><path clip-path="url(#clip410)" d="M 0 0 M132.871 185.78 L140.51 185.78 L140.51 159.415 L132.2 161.081 L132.2 156.822 L140.464 155.155 L145.14 155.155 L145.14 185.78 L152.779 185.78 L152.779 189.715 L132.871 189.715 L132.871 185.78 Z" fill="#000000" fill-rule="evenodd" fill-opacity="1" /><path clip-path="url(#clip410)" d="M 0 0 M167.848 158.234 Q164.237 158.234 162.408 161.799 Q160.603 165.341 160.603 172.47 Q160.603 179.577 162.408 183.141 Q164.237 186.683 167.848 186.683 Q171.482 186.683 173.288 183.141 Q175.117 179.577 175.117 172.47 Q175.117 165.341 173.288 161.799 Q171.482 158.234 167.848 158.234 M167.848 154.53 Q173.658 154.53 176.714 159.137 Q179.792 163.72 179.792 172.47 Q179.792 181.197 176.714 185.803 Q173.658 190.387 167.848 190.387 Q162.038 190.387 158.959 185.803 Q155.904 181.197 155.904 172.47 Q155.904 163.72 158.959 159.137 Q162.038 154.53 167.848 154.53 Z" fill="#000000" fill-rule="evenodd" fill-opacity="1" /><path clip-path="url(#clip410)" d="M 0 0 M194.862 158.234 Q191.251 158.234 189.422 161.799 Q187.617 165.341 187.617 172.47 Q187.617 179.577 189.422 183.141 Q191.251 186.683 194.862 186.683 Q198.496 186.683 200.302 183.141 Q202.13 179.577 202.13 172.47 Q202.13 165.341 200.302 161.799 Q198.496 158.234 194.862 158.234 M194.862 154.53 Q200.672 154.53 203.728 159.137 Q206.806 163.72 206.806 172.47 Q206.806 181.197 203.728 185.803 Q200.672 190.387 194.862 190.387 Q189.052 190.387 185.973 185.803 Q182.917 181.197 182.917 172.47 Q182.917 163.72 185.973 159.137 Q189.052 154.53 194.862 154.53 Z" fill="#000000" fill-rule="evenodd" fill-opacity="1" /><path clip-path="url(#clip410)" d="M 0 0 M700.406 1094.26 L706.836 1094.26 L706.836 1141.78 L700.406 1141.78 L700.406 1094.26 Z" fill="#000000" fill-rule="evenodd" fill-opacity="1" /><path clip-path="url(#clip410)" d="M 0 0 M742.611 1120.27 L742.611 1141.78 L736.755 1141.78 L736.755 1120.46 Q736.755 1115.4 734.781 1112.88 Q732.808 1110.37 728.861 1110.37 Q724.119 1110.37 721.382 1113.39 Q718.644 1116.42 718.644 1121.64 L718.644 1141.78 L712.756 1141.78 L712.756 1106.14 L718.644 1106.14 L718.644 1111.67 Q720.745 1108.46 723.578 1106.87 Q726.442 1105.28 730.166 1105.28 Q736.309 1105.28 739.46 1109.1 Q742.611 1112.88 742.611 1120.27 Z" fill="#000000" fill-rule="evenodd" fill-opacity="1" /><path clip-path="url(#clip410)" d="M 0 0 M754.42 1136.44 L754.42 1155.34 L748.531 1155.34 L748.531 1106.14 L754.42 1106.14 L754.42 1111.55 Q756.266 1108.36 759.066 1106.84 Q761.899 1105.28 765.814 1105.28 Q772.307 1105.28 776.349 1110.43 Q780.423 1115.59 780.423 1123.99 Q780.423 1132.39 776.349 1137.55 Q772.307 1142.71 765.814 1142.71 Q761.899 1142.71 759.066 1141.18 Q756.266 1139.62 754.42 1136.44 M774.344 1123.99 Q774.344 1117.53 771.671 1113.87 Q769.029 1110.18 764.382 1110.18 Q759.735 1110.18 757.061 1113.87 Q754.42 1117.53 754.42 1123.99 Q754.42 1130.45 757.061 1134.14 Q759.735 1137.81 764.382 1137.81 Q769.029 1137.81 771.671 1134.14 Q774.344 1130.45 774.344 1123.99 Z" fill="#000000" fill-rule="evenodd" fill-opacity="1" /><path clip-path="url(#clip410)" d="M 0 0 M785.962 1127.72 L785.962 1106.14 L791.818 1106.14 L791.818 1127.49 Q791.818 1132.55 793.791 1135.1 Q795.765 1137.61 799.712 1137.61 Q804.454 1137.61 807.191 1134.59 Q809.96 1131.57 809.96 1126.35 L809.96 1106.14 L815.817 1106.14 L815.817 1141.78 L809.96 1141.78 L809.96 1136.31 Q807.828 1139.56 804.995 1141.15 Q802.194 1142.71 798.47 1142.71 Q792.327 1142.71 789.144 1138.89 Q785.962 1135.07 785.962 1127.72 M800.698 1105.28 L800.698 1105.28 Z" fill="#000000" fill-rule="evenodd" fill-opacity="1" /><path clip-path="url(#clip410)" d="M 0 0 M827.752 1096.01 L827.752 1106.14 L839.815 1106.14 L839.815 1110.69 L827.752 1110.69 L827.752 1130.04 Q827.752 1134.4 828.93 1135.64 Q830.14 1136.88 833.8 1136.88 L839.815 1136.88 L839.815 1141.78 L833.8 1141.78 Q827.02 1141.78 824.442 1139.27 Q821.864 1136.72 821.864 1130.04 L821.864 1110.69 L817.567 1110.69 L817.567 1106.14 L821.864 1106.14 L821.864 1096.01 L827.752 1096.01 Z" fill="#000000" fill-rule="evenodd" fill-opacity="1" /><path clip-path="url(#clip410)" d="M 0 0 M892.333 1107.5 L892.333 1112.98 Q889.85 1111.61 887.335 1110.94 Q884.853 1110.24 882.307 1110.24 Q876.609 1110.24 873.458 1113.87 Q870.307 1117.47 870.307 1123.99 Q870.307 1130.52 873.458 1134.14 Q876.609 1137.74 882.307 1137.74 Q884.853 1137.74 887.335 1137.07 Q889.85 1136.37 892.333 1135 L892.333 1140.42 Q889.882 1141.56 887.24 1142.13 Q884.63 1142.71 881.67 1142.71 Q873.617 1142.71 868.875 1137.65 Q864.132 1132.59 864.132 1123.99 Q864.132 1115.27 868.907 1110.27 Q873.713 1105.28 882.052 1105.28 Q884.757 1105.28 887.335 1105.85 Q889.914 1106.39 892.333 1107.5 Z" fill="#000000" fill-rule="evenodd" fill-opacity="1" /><path clip-path="url(#clip410)" d="M 0 0 M897.871 1127.72 L897.871 1106.14 L903.727 1106.14 L903.727 1127.49 Q903.727 1132.55 905.701 1135.1 Q907.674 1137.61 911.621 1137.61 Q916.363 1137.61 919.1 1134.59 Q921.869 1131.57 921.869 1126.35 L921.869 1106.14 L927.726 1106.14 L927.726 1141.78 L921.869 1141.78 L921.869 1136.31 Q919.737 1139.56 916.904 1141.15 Q914.103 1142.71 910.379 1142.71 Q904.236 1142.71 901.054 1138.89 Q897.871 1135.07 897.871 1127.72 M912.607 1105.28 L912.607 1105.28 Z" fill="#000000" fill-rule="evenodd" fill-opacity="1" /><path clip-path="url(#clip410)" d="M 0 0 M954.526 1111.61 Q953.539 1111.04 952.361 1110.78 Q951.215 1110.5 949.815 1110.5 Q944.85 1110.5 942.176 1113.74 Q939.534 1116.96 939.534 1123.01 L939.534 1141.78 L933.646 1141.78 L933.646 1106.14 L939.534 1106.14 L939.534 1111.67 Q941.38 1108.43 944.34 1106.87 Q947.3 1105.28 951.534 1105.28 Q952.138 1105.28 952.87 1105.37 Q953.602 1105.44 954.494 1105.59 L954.526 1111.61 Z" fill="#000000" fill-rule="evenodd" fill-opacity="1" /><path clip-path="url(#clip410)" d="M 0 0 M980.179 1111.61 Q979.193 1111.04 978.015 1110.78 Q976.869 1110.5 975.469 1110.5 Q970.503 1110.5 967.83 1113.74 Q965.188 1116.96 965.188 1123.01 L965.188 1141.78 L959.3 1141.78 L959.3 1106.14 L965.188 1106.14 L965.188 1111.67 Q967.034 1108.43 969.994 1106.87 Q972.954 1105.28 977.187 1105.28 Q977.792 1105.28 978.524 1105.37 Q979.256 1105.44 980.147 1105.59 L980.179 1111.61 Z" fill="#000000" fill-rule="evenodd" fill-opacity="1" /><path clip-path="url(#clip410)" d="M 0 0 M1015.38 1122.5 L1015.38 1125.36 L988.455 1125.36 Q988.837 1131.41 992.083 1134.59 Q995.362 1137.74 1001.19 1137.74 Q1004.56 1137.74 1007.71 1136.91 Q1010.89 1136.09 1014.01 1134.43 L1014.01 1139.97 Q1010.86 1141.31 1007.55 1142.01 Q1004.24 1142.71 1000.84 1142.71 Q992.306 1142.71 987.309 1137.74 Q982.344 1132.78 982.344 1124.31 Q982.344 1115.56 987.054 1110.43 Q991.797 1105.28 999.818 1105.28 Q1007.01 1105.28 1011.18 1109.92 Q1015.38 1114.54 1015.38 1122.5 M1009.53 1120.78 Q1009.46 1115.97 1006.82 1113.11 Q1004.21 1110.24 999.881 1110.24 Q994.98 1110.24 992.02 1113.01 Q989.091 1115.78 988.646 1120.81 L1009.53 1120.78 Z" fill="#000000" fill-rule="evenodd" fill-opacity="1" /><path clip-path="url(#clip410)" d="M 0 0 M1051.16 1120.27 L1051.16 1141.78 L1045.3 1141.78 L1045.3 1120.46 Q1045.3 1115.4 1043.33 1112.88 Q1041.35 1110.37 1037.41 1110.37 Q1032.66 1110.37 1029.93 1113.39 Q1027.19 1116.42 1027.19 1121.64 L1027.19 1141.78 L1021.3 1141.78 L1021.3 1106.14 L1027.19 1106.14 L1027.19 1111.67 Q1029.29 1108.46 1032.12 1106.87 Q1034.99 1105.28 1038.71 1105.28 Q1044.85 1105.28 1048.01 1109.1 Q1051.16 1112.88 1051.16 1120.27 Z" fill="#000000" fill-rule="evenodd" fill-opacity="1" /><path clip-path="url(#clip410)" d="M 0 0 M1063.09 1096.01 L1063.09 1106.14 L1075.16 1106.14 L1075.16 1110.69 L1063.09 1110.69 L1063.09 1130.04 Q1063.09 1134.4 1064.27 1135.64 Q1065.48 1136.88 1069.14 1136.88 L1075.16 1136.88 L1075.16 1141.78 L1069.14 1141.78 Q1062.36 1141.78 1059.78 1139.27 Q1057.2 1136.72 1057.2 1130.04 L1057.2 1110.69 L1052.91 1110.69 L1052.91 1106.14 L1057.2 1106.14 L1057.2 1096.01 L1063.09 1096.01 Z" fill="#000000" fill-rule="evenodd" fill-opacity="1" /><path clip-path="url(#clip410)" d="M 0 0 M54.4242 742.866 L54.4242 715.558 L59.835 715.558 L59.835 736.437 L73.8396 736.437 L73.8396 717.595 L79.2504 717.595 L79.2504 736.437 L101.944 736.437 L101.944 742.866 L54.4242 742.866 Z" fill="#000000" fill-rule="evenodd" fill-opacity="1" /><path clip-path="url(#clip410)" d="M 0 0 M66.2962 714.157 L66.2962 708.301 L101.944 708.301 L101.944 714.157 L66.2962 714.157 M52.419 714.157 L52.419 708.301 L59.835 708.301 L59.835 714.157 L52.419 714.157 Z" fill="#000000" fill-rule="evenodd" fill-opacity="1" /><path clip-path="url(#clip410)" d="M 0 0 M71.7707 681.501 Q71.1978 682.488 70.9432 683.665 Q70.6567 684.811 70.6567 686.212 Q70.6567 691.177 73.9032 693.85 Q77.1179 696.492 83.1653 696.492 L101.944 696.492 L101.944 702.381 L66.2962 702.381 L66.2962 696.492 L71.8344 696.492 Q68.5879 694.646 67.0283 691.686 Q65.4368 688.726 65.4368 684.493 Q65.4368 683.888 65.5323 683.156 Q65.596 682.424 65.7551 681.533 L71.7707 681.501 Z" fill="#000000" fill-rule="evenodd" fill-opacity="1" /><path clip-path="url(#clip410)" d="M 0 0 M66.2962 675.358 L66.2962 669.502 L101.944 669.502 L101.944 675.358 L66.2962 675.358 M52.419 675.358 L52.419 669.502 L59.835 669.502 L59.835 675.358 L52.419 675.358 Z" fill="#000000" fill-rule="evenodd" fill-opacity="1" /><path clip-path="url(#clip410)" d="M 0 0 M80.4281 633.726 L101.944 633.726 L101.944 639.583 L80.619 639.583 Q75.5583 639.583 73.0438 641.556 Q70.5294 643.53 70.5294 647.476 Q70.5294 652.219 73.5531 654.956 Q76.5768 657.693 81.7967 657.693 L101.944 657.693 L101.944 663.582 L66.2962 663.582 L66.2962 657.693 L71.8344 657.693 Q68.6197 655.593 67.0283 652.76 Q65.4368 649.895 65.4368 646.171 Q65.4368 640.028 69.2563 636.877 Q73.0438 633.726 80.4281 633.726 Z" fill="#000000" fill-rule="evenodd" fill-opacity="1" /><path clip-path="url(#clip410)" d="M 0 0 M83.7064 604.126 Q77.3407 604.126 73.8396 606.768 Q70.3384 609.378 70.3384 614.12 Q70.3384 618.831 73.8396 621.472 Q77.3407 624.082 83.7064 624.082 Q90.0403 624.082 93.5414 621.472 Q97.0426 618.831 97.0426 614.12 Q97.0426 609.378 93.5414 606.768 Q90.0403 604.126 83.7064 604.126 M97.52 598.269 Q106.623 598.269 111.047 602.312 Q115.503 606.354 115.503 614.693 Q115.503 617.78 115.026 620.518 Q114.58 623.255 113.625 625.833 L107.928 625.833 Q109.328 623.255 109.997 620.74 Q110.665 618.226 110.665 615.616 Q110.665 609.855 107.641 606.99 Q104.65 604.126 98.5703 604.126 L95.6739 604.126 Q98.825 605.94 100.385 608.773 Q101.944 611.606 101.944 615.552 Q101.944 622.109 96.9471 626.119 Q91.95 630.13 83.7064 630.13 Q75.431 630.13 70.4339 626.119 Q65.4368 622.109 65.4368 615.552 Q65.4368 611.606 66.9964 608.773 Q68.556 605.94 71.7071 604.126 L66.2962 604.126 L66.2962 598.269 L97.52 598.269 Z" fill="#000000" fill-rule="evenodd" fill-opacity="1" /><path clip-path="url(#clip410)" d="M 0 0 M71.7707 550.749 Q71.1978 551.736 70.9432 552.914 Q70.6567 554.06 70.6567 555.46 Q70.6567 560.425 73.9032 563.099 Q77.1179 565.741 83.1653 565.741 L101.944 565.741 L101.944 571.629 L66.2962 571.629 L66.2962 565.741 L71.8344 565.741 Q68.5879 563.895 67.0283 560.935 Q65.4368 557.974 65.4368 553.741 Q65.4368 553.137 65.5323 552.404 Q65.596 551.672 65.7551 550.781 L71.7707 550.749 Z" fill="#000000" fill-rule="evenodd" fill-opacity="1" /><path clip-path="url(#clip410)" d="M 0 0 M84.0247 528.406 Q84.0247 535.504 85.6479 538.241 Q87.2712 540.978 91.1861 540.978 Q94.3053 540.978 96.1514 538.941 Q97.9656 536.872 97.9656 533.339 Q97.9656 528.469 94.5281 525.541 Q91.0588 522.581 85.3297 522.581 L84.0247 522.581 L84.0247 528.406 M81.6057 516.725 L101.944 516.725 L101.944 522.581 L96.5333 522.581 Q99.7798 524.586 101.339 527.578 Q102.867 530.57 102.867 534.899 Q102.867 540.373 99.8116 543.62 Q96.7243 546.834 91.5681 546.834 Q85.5525 546.834 82.4969 542.824 Q79.4414 538.782 79.4414 530.793 L79.4414 522.581 L78.8685 522.581 Q74.8262 522.581 72.6301 525.255 Q70.4021 527.897 70.4021 532.703 Q70.4021 535.758 71.1341 538.655 Q71.8662 541.551 73.3303 544.225 L67.9195 544.225 Q66.6781 541.01 66.0734 537.986 Q65.4368 534.962 65.4368 532.098 Q65.4368 524.364 69.4472 520.544 Q73.4576 516.725 81.6057 516.725 Z" fill="#000000" fill-rule="evenodd" fill-opacity="1" /><path clip-path="url(#clip410)" d="M 0 0 M56.1747 504.789 L66.2962 504.789 L66.2962 492.726 L70.8477 492.726 L70.8477 504.789 L90.1994 504.789 Q94.5599 504.789 95.8013 503.611 Q97.0426 502.402 97.0426 498.742 L97.0426 492.726 L101.944 492.726 L101.944 498.742 Q101.944 505.521 99.4297 508.099 Q96.8834 510.677 90.1994 510.677 L70.8477 510.677 L70.8477 514.974 L66.2962 514.974 L66.2962 510.677 L56.1747 510.677 L56.1747 504.789 Z" fill="#000000" fill-rule="evenodd" fill-opacity="1" /><path clip-path="url(#clip410)" d="M 0 0 M82.6561 456.091 L85.5206 456.091 L85.5206 483.018 Q91.5681 482.636 94.7509 479.39 Q97.9019 476.111 97.9019 470.287 Q97.9019 466.913 97.0744 463.762 Q96.2469 460.579 94.5918 457.46 L100.13 457.46 Q101.467 460.611 102.167 463.921 Q102.867 467.231 102.867 470.637 Q102.867 479.167 97.9019 484.164 Q92.9367 489.129 84.4703 489.129 Q75.7174 489.129 70.5931 484.419 Q65.4368 479.676 65.4368 471.655 Q65.4368 464.462 70.0838 460.293 Q74.6989 456.091 82.6561 456.091 M80.9373 461.948 Q76.1312 462.011 73.2666 464.653 Q70.4021 467.263 70.4021 471.592 Q70.4021 476.493 73.1712 479.453 Q75.9402 482.382 80.9692 482.827 L80.9373 461.948 Z" fill="#000000" fill-rule="evenodd" fill-opacity="1" /><path clip-path="url(#clip410)" d="M 0 0 M52.4826 415.16 Q59.8032 419.425 66.9646 421.494 Q74.126 423.563 81.4784 423.563 Q88.8308 423.563 96.0559 421.494 Q103.249 419.393 110.538 415.16 L110.538 420.252 Q103.058 425.027 95.8331 427.414 Q88.608 429.769 81.4784 429.769 Q74.3806 429.769 67.1874 427.414 Q59.9942 425.059 52.4826 420.252 L52.4826 415.16 Z" fill="#000000" fill-rule="evenodd" fill-opacity="1" /><path clip-path="url(#clip410)" d="M 0 0 M54.4242 408.762 L54.4242 402.333 L73.9032 402.333 L73.9032 378.971 L54.4242 378.971 L54.4242 372.541 L101.944 372.541 L101.944 378.971 L79.3141 378.971 L79.3141 402.333 L101.944 402.333 L101.944 408.762 L54.4242 408.762 Z" fill="#000000" fill-rule="evenodd" fill-opacity="1" /><path clip-path="url(#clip410)" d="M 0 0 M66.2962 368.945 L66.2962 341.127 L71.6434 341.127 L97.2654 363.152 L97.2654 341.127 L101.944 341.127 L101.944 369.741 L96.597 369.741 L70.975 347.715 L70.975 368.945 L66.2962 368.945 Z" fill="#000000" fill-rule="evenodd" fill-opacity="1" /><path clip-path="url(#clip410)" d="M 0 0 M52.4826 335.907 L52.4826 330.814 Q59.9942 326.04 67.1874 323.685 Q74.3806 321.298 81.4784 321.298 Q88.608 321.298 95.8331 323.685 Q103.058 326.04 110.538 330.814 L110.538 335.907 Q103.249 331.674 96.0559 329.605 Q88.8308 327.504 81.4784 327.504 Q74.126 327.504 66.9646 329.605 Q59.8032 331.674 52.4826 335.907 Z" fill="#000000" fill-rule="evenodd" fill-opacity="1" /><polyline clip-path="url(#clip412)" style="stroke:#009af9; stroke-width:4; stroke-opacity:1; fill:none" points="
  260.446,989.476 273.12,989.476 285.793,989.476 298.467,989.476 311.14,989.476 323.813,989.476 336.487,989.476 349.16,989.476 361.834,989.476 374.507,989.476 
  387.181,989.476 399.854,989.476 412.528,989.476 425.201,989.476 437.874,989.476 450.548,989.476 463.221,989.476 475.895,989.476 488.568,989.476 501.241,989.476 
  513.915,857.353 526.588,803.983 539.262,775.081 551.935,752.545 564.609,733.235 577.282,715.936 589.955,700.032 602.629,685.167 615.302,671.111 627.976,657.706 
  640.649,644.84 653.323,632.43 665.996,620.411 678.67,608.733 691.343,597.356 704.016,586.247 716.69,575.379 729.363,564.73 742.037,554.279 754.71,544.011 
  767.383,533.912 780.057,523.969 792.73,514.171 805.404,504.509 818.077,494.975 830.751,485.561 843.424,476.261 856.097,467.068 868.771,457.977 881.444,448.984 
  894.118,440.083 906.791,431.271 919.465,422.544 932.138,413.898 944.812,405.331 957.485,396.84 970.158,388.422 982.832,380.073 995.505,371.793 1008.18,363.579 
  1020.85,355.429 1033.53,347.341 1046.2,339.313 1058.87,331.344 1071.55,323.432 1084.22,315.575 1096.89,307.773 1109.57,300.024 1122.24,292.326 1134.91,284.679 
  1147.59,277.081 1160.26,269.532 1172.93,262.03 1185.61,254.575 1198.28,247.165 1210.95,239.8 1223.63,232.478 1236.3,225.2 1248.97,217.963 1261.65,210.769 
  1274.32,203.615 1286.99,196.501 1299.67,189.427 1312.34,182.391 1325.01,175.394 1337.69,168.435 1350.36,161.513 1363.03,154.628 1375.71,147.778 1388.38,140.965 
  1401.05,134.186 1413.73,127.442 1426.4,120.732 1439.08,114.057 1451.75,107.414 1464.42,100.804 1477.1,94.2274 1489.77,87.6825 1502.44,81.1694 1515.12,74.6877 
  
  "/>
</svg>
