<?xml version="1.0" encoding="utf-8"?>
<svg xmlns="http://www.w3.org/2000/svg" xmlns:xlink="http://www.w3.org/1999/xlink" width="500" height="200" viewBox="0 0 2000 800">
<defs>
  <clipPath id="clip1000">
    <rect x="0" y="0" width="2000" height="800"/>
  </clipPath>
</defs>
<path clip-path="url(#clip1000)" d="
M0 800 L2000 800 L2000 0 L0 0  Z
  " fill="#ffffff" fill-rule="evenodd" fill-opacity="1"/>
<defs>
  <clipPath id="clip1001">
    <rect x="400" y="0" width="1401" height="800"/>
  </clipPath>
</defs>
<path clip-path="url(#clip1000)" d="
M202.373 625.619 L1952.76 625.619 L1952.76 47.2441 L202.373 47.2441  Z
  " fill="#ffffff" fill-rule="evenodd" fill-opacity="1"/>
<defs>
  <clipPath id="clip1002">
    <rect x="202" y="47" width="1751" height="579"/>
  </clipPath>
</defs>
<polyline clip-path="url(#clip1002)" style="stroke:#000000; stroke-width:2; stroke-opacity:0.1; fill:none" points="
  202.373,625.619 202.373,47.2441 
  "/>
<polyline clip-path="url(#clip1002)" style="stroke:#000000; stroke-width:2; stroke-opacity:0.1; fill:none" points="
  635.636,625.619 635.636,47.2441 
  "/>
<polyline clip-path="url(#clip1002)" style="stroke:#000000; stroke-width:2; stroke-opacity:0.1; fill:none" points="
  1068.9,625.619 1068.9,47.2441 
  "/>
<polyline clip-path="url(#clip1002)" style="stroke:#000000; stroke-width:2; stroke-opacity:0.1; fill:none" points="
  1502.16,625.619 1502.16,47.2441 
  "/>
<polyline clip-path="url(#clip1002)" style="stroke:#000000; stroke-width:2; stroke-opacity:0.1; fill:none" points="
  1935.43,625.619 1935.43,47.2441 
  "/>
<polyline clip-path="url(#clip1002)" style="stroke:#000000; stroke-width:2; stroke-opacity:0.1; fill:none" points="
  202.373,548.623 1952.76,548.623 
  "/>
<polyline clip-path="url(#clip1002)" style="stroke:#000000; stroke-width:2; stroke-opacity:0.1; fill:none" points="
  202.373,427.371 1952.76,427.371 
  "/>
<polyline clip-path="url(#clip1002)" style="stroke:#000000; stroke-width:2; stroke-opacity:0.1; fill:none" points="
  202.373,306.118 1952.76,306.118 
  "/>
<polyline clip-path="url(#clip1002)" style="stroke:#000000; stroke-width:2; stroke-opacity:0.1; fill:none" points="
  202.373,184.866 1952.76,184.866 
  "/>
<polyline clip-path="url(#clip1002)" style="stroke:#000000; stroke-width:2; stroke-opacity:0.1; fill:none" points="
  202.373,63.6132 1952.76,63.6132 
  "/>
<polyline clip-path="url(#clip1000)" style="stroke:#000000; stroke-width:4; stroke-opacity:1; fill:none" points="
  202.373,625.619 1952.76,625.619 
  "/>
<polyline clip-path="url(#clip1000)" style="stroke:#000000; stroke-width:4; stroke-opacity:1; fill:none" points="
  202.373,625.619 202.373,47.2441 
  "/>
<polyline clip-path="url(#clip1000)" style="stroke:#000000; stroke-width:4; stroke-opacity:1; fill:none" points="
  202.373,625.619 202.373,618.678 
  "/>
<polyline clip-path="url(#clip1000)" style="stroke:#000000; stroke-width:4; stroke-opacity:1; fill:none" points="
  635.636,625.619 635.636,618.678 
  "/>
<polyline clip-path="url(#clip1000)" style="stroke:#000000; stroke-width:4; stroke-opacity:1; fill:none" points="
  1068.9,625.619 1068.9,618.678 
  "/>
<polyline clip-path="url(#clip1000)" style="stroke:#000000; stroke-width:4; stroke-opacity:1; fill:none" points="
  1502.16,625.619 1502.16,618.678 
  "/>
<polyline clip-path="url(#clip1000)" style="stroke:#000000; stroke-width:4; stroke-opacity:1; fill:none" points="
  1935.43,625.619 1935.43,618.678 
  "/>
<polyline clip-path="url(#clip1000)" style="stroke:#000000; stroke-width:4; stroke-opacity:1; fill:none" points="
  202.373,548.623 223.378,548.623 
  "/>
<polyline clip-path="url(#clip1000)" style="stroke:#000000; stroke-width:4; stroke-opacity:1; fill:none" points="
  202.373,427.371 223.378,427.371 
  "/>
<polyline clip-path="url(#clip1000)" style="stroke:#000000; stroke-width:4; stroke-opacity:1; fill:none" points="
  202.373,306.118 223.378,306.118 
  "/>
<polyline clip-path="url(#clip1000)" style="stroke:#000000; stroke-width:4; stroke-opacity:1; fill:none" points="
  202.373,184.866 223.378,184.866 
  "/>
<polyline clip-path="url(#clip1000)" style="stroke:#000000; stroke-width:4; stroke-opacity:1; fill:none" points="
  202.373,63.6132 223.378,63.6132 
  "/>
<g clip-path="url(#clip1000)">
<text style="fill:#000000; fill-opacity:1; font-family:Arial,Helvetica Neue,Helvetica,sans-serif; font-size:48px; text-anchor:middle;" transform="rotate(0, 202.373, 677.619)" x="202.373" y="677.619">0</text>
</g>
<g clip-path="url(#clip1000)">
<text style="fill:#000000; fill-opacity:1; font-family:Arial,Helvetica Neue,Helvetica,sans-serif; font-size:48px; text-anchor:middle;" transform="rotate(0, 635.636, 677.619)" x="635.636" y="677.619">250</text>
</g>
<g clip-path="url(#clip1000)">
<text style="fill:#000000; fill-opacity:1; font-family:Arial,Helvetica Neue,Helvetica,sans-serif; font-size:48px; text-anchor:middle;" transform="rotate(0, 1068.9, 677.619)" x="1068.9" y="677.619">500</text>
</g>
<g clip-path="url(#clip1000)">
<text style="fill:#000000; fill-opacity:1; font-family:Arial,Helvetica Neue,Helvetica,sans-serif; font-size:48px; text-anchor:middle;" transform="rotate(0, 1502.16, 677.619)" x="1502.16" y="677.619">750</text>
</g>
<g clip-path="url(#clip1000)">
<text style="fill:#000000; fill-opacity:1; font-family:Arial,Helvetica Neue,Helvetica,sans-serif; font-size:48px; text-anchor:middle;" transform="rotate(0, 1935.43, 677.619)" x="1935.43" y="677.619">1000</text>
</g>
<g clip-path="url(#clip1000)">
<text style="fill:#000000; fill-opacity:1; font-family:Arial,Helvetica Neue,Helvetica,sans-serif; font-size:48px; text-anchor:end;" transform="rotate(0, 182.373, 566.123)" x="182.373" y="566.123">2</text>
</g>
<g clip-path="url(#clip1000)">
<text style="fill:#000000; fill-opacity:1; font-family:Arial,Helvetica Neue,Helvetica,sans-serif; font-size:48px; text-anchor:end;" transform="rotate(0, 182.373, 444.871)" x="182.373" y="444.871">4</text>
</g>
<g clip-path="url(#clip1000)">
<text style="fill:#000000; fill-opacity:1; font-family:Arial,Helvetica Neue,Helvetica,sans-serif; font-size:48px; text-anchor:end;" transform="rotate(0, 182.373, 323.618)" x="182.373" y="323.618">6</text>
</g>
<g clip-path="url(#clip1000)">
<text style="fill:#000000; fill-opacity:1; font-family:Arial,Helvetica Neue,Helvetica,sans-serif; font-size:48px; text-anchor:end;" transform="rotate(0, 182.373, 202.366)" x="182.373" y="202.366">8</text>
</g>
<g clip-path="url(#clip1000)">
<text style="fill:#000000; fill-opacity:1; font-family:Arial,Helvetica Neue,Helvetica,sans-serif; font-size:48px; text-anchor:end;" transform="rotate(0, 182.373, 81.1132)" x="182.373" y="81.1132">10</text>
</g>
<g clip-path="url(#clip1000)">
<text style="fill:#000000; fill-opacity:1; font-family:Arial,Helvetica Neue,Helvetica,sans-serif; font-size:66px; text-anchor:middle;" transform="rotate(0, 1077.56, 755.48)" x="1077.56" y="755.48">Time (ms)</text>
</g>
<g clip-path="url(#clip1000)">
<text style="fill:#000000; fill-opacity:1; font-family:Arial,Helvetica Neue,Helvetica,sans-serif; font-size:66px; text-anchor:middle;" transform="rotate(-90, 97.2861, 336.431)" x="97.2861" y="336.431">Neuron index</text>
</g>
<line clip-path="url(#clip1002)" x1="247.571" y1="625.25" x2="247.571" y2="593.25" style="stroke:#000000; stroke-width:1.6; stroke-opacity:1"/>
<line clip-path="url(#clip1002)" x1="307.663" y1="625.25" x2="307.663" y2="593.25" style="stroke:#000000; stroke-width:1.6; stroke-opacity:1"/>
<line clip-path="url(#clip1002)" x1="326.742" y1="625.25" x2="326.742" y2="593.25" style="stroke:#000000; stroke-width:1.6; stroke-opacity:1"/>
<line clip-path="url(#clip1002)" x1="335.262" y1="625.25" x2="335.262" y2="593.25" style="stroke:#000000; stroke-width:1.6; stroke-opacity:1"/>
<line clip-path="url(#clip1002)" x1="365.544" y1="625.25" x2="365.544" y2="593.25" style="stroke:#000000; stroke-width:1.6; stroke-opacity:1"/>
<line clip-path="url(#clip1002)" x1="413.55" y1="625.25" x2="413.55" y2="593.25" style="stroke:#000000; stroke-width:1.6; stroke-opacity:1"/>
<line clip-path="url(#clip1002)" x1="434.804" y1="625.25" x2="434.804" y2="593.25" style="stroke:#000000; stroke-width:1.6; stroke-opacity:1"/>
<line clip-path="url(#clip1002)" x1="436.498" y1="625.25" x2="436.498" y2="593.25" style="stroke:#000000; stroke-width:1.6; stroke-opacity:1"/>
<line clip-path="url(#clip1002)" x1="511.094" y1="625.25" x2="511.094" y2="593.25" style="stroke:#000000; stroke-width:1.6; stroke-opacity:1"/>
<line clip-path="url(#clip1002)" x1="539.002" y1="625.25" x2="539.002" y2="593.25" style="stroke:#000000; stroke-width:1.6; stroke-opacity:1"/>
<line clip-path="url(#clip1002)" x1="605.939" y1="625.25" x2="605.939" y2="593.25" style="stroke:#000000; stroke-width:1.6; stroke-opacity:1"/>
<line clip-path="url(#clip1002)" x1="714.755" y1="625.25" x2="714.755" y2="593.25" style="stroke:#000000; stroke-width:1.6; stroke-opacity:1"/>
<line clip-path="url(#clip1002)" x1="819.022" y1="625.25" x2="819.022" y2="593.25" style="stroke:#000000; stroke-width:1.6; stroke-opacity:1"/>
<line clip-path="url(#clip1002)" x1="876.831" y1="625.25" x2="876.831" y2="593.25" style="stroke:#000000; stroke-width:1.6; stroke-opacity:1"/>
<line clip-path="url(#clip1002)" x1="894.317" y1="625.25" x2="894.317" y2="593.25" style="stroke:#000000; stroke-width:1.6; stroke-opacity:1"/>
<line clip-path="url(#clip1002)" x1="901.51" y1="625.25" x2="901.51" y2="593.25" style="stroke:#000000; stroke-width:1.6; stroke-opacity:1"/>
<line clip-path="url(#clip1002)" x1="1032.02" y1="625.25" x2="1032.02" y2="593.25" style="stroke:#000000; stroke-width:1.6; stroke-opacity:1"/>
<line clip-path="url(#clip1002)" x1="1239.8" y1="625.25" x2="1239.8" y2="593.25" style="stroke:#000000; stroke-width:1.6; stroke-opacity:1"/>
<line clip-path="url(#clip1002)" x1="1383.19" y1="625.25" x2="1383.19" y2="593.25" style="stroke:#000000; stroke-width:1.6; stroke-opacity:1"/>
<line clip-path="url(#clip1002)" x1="1390.51" y1="625.25" x2="1390.51" y2="593.25" style="stroke:#000000; stroke-width:1.6; stroke-opacity:1"/>
<line clip-path="url(#clip1002)" x1="1477.92" y1="625.25" x2="1477.92" y2="593.25" style="stroke:#000000; stroke-width:1.6; stroke-opacity:1"/>
<line clip-path="url(#clip1002)" x1="1482.55" y1="625.25" x2="1482.55" y2="593.25" style="stroke:#000000; stroke-width:1.6; stroke-opacity:1"/>
<line clip-path="url(#clip1002)" x1="1498.62" y1="625.25" x2="1498.62" y2="593.25" style="stroke:#000000; stroke-width:1.6; stroke-opacity:1"/>
<line clip-path="url(#clip1002)" x1="1704.57" y1="625.25" x2="1704.57" y2="593.25" style="stroke:#000000; stroke-width:1.6; stroke-opacity:1"/>
<line clip-path="url(#clip1002)" x1="1708.96" y1="625.25" x2="1708.96" y2="593.25" style="stroke:#000000; stroke-width:1.6; stroke-opacity:1"/>
<line clip-path="url(#clip1002)" x1="1732.19" y1="625.25" x2="1732.19" y2="593.25" style="stroke:#000000; stroke-width:1.6; stroke-opacity:1"/>
<line clip-path="url(#clip1002)" x1="1734.76" y1="625.25" x2="1734.76" y2="593.25" style="stroke:#000000; stroke-width:1.6; stroke-opacity:1"/>
<line clip-path="url(#clip1002)" x1="1756.43" y1="625.25" x2="1756.43" y2="593.25" style="stroke:#000000; stroke-width:1.6; stroke-opacity:1"/>
<line clip-path="url(#clip1002)" x1="1786.64" y1="625.25" x2="1786.64" y2="593.25" style="stroke:#000000; stroke-width:1.6; stroke-opacity:1"/>
<line clip-path="url(#clip1002)" x1="1803.69" y1="625.25" x2="1803.69" y2="593.25" style="stroke:#000000; stroke-width:1.6; stroke-opacity:1"/>
<line clip-path="url(#clip1002)" x1="1859.54" y1="625.25" x2="1859.54" y2="593.25" style="stroke:#000000; stroke-width:1.6; stroke-opacity:1"/>
<line clip-path="url(#clip1002)" x1="1870.78" y1="625.25" x2="1870.78" y2="593.25" style="stroke:#000000; stroke-width:1.6; stroke-opacity:1"/>
<line clip-path="url(#clip1002)" x1="1909.55" y1="625.25" x2="1909.55" y2="593.25" style="stroke:#000000; stroke-width:1.6; stroke-opacity:1"/>
<line clip-path="url(#clip1002)" x1="1929.91" y1="625.25" x2="1929.91" y2="593.25" style="stroke:#000000; stroke-width:1.6; stroke-opacity:1"/>
<line clip-path="url(#clip1002)" x1="234.785" y1="564.623" x2="234.785" y2="532.623" style="stroke:#000000; stroke-width:1.6; stroke-opacity:1"/>
<line clip-path="url(#clip1002)" x1="347.201" y1="564.623" x2="347.201" y2="532.623" style="stroke:#000000; stroke-width:1.6; stroke-opacity:1"/>
<line clip-path="url(#clip1002)" x1="434.931" y1="564.623" x2="434.931" y2="532.623" style="stroke:#000000; stroke-width:1.6; stroke-opacity:1"/>
<line clip-path="url(#clip1002)" x1="470.785" y1="564.623" x2="470.785" y2="532.623" style="stroke:#000000; stroke-width:1.6; stroke-opacity:1"/>
<line clip-path="url(#clip1002)" x1="514.762" y1="564.623" x2="514.762" y2="532.623" style="stroke:#000000; stroke-width:1.6; stroke-opacity:1"/>
<line clip-path="url(#clip1002)" x1="596.839" y1="564.623" x2="596.839" y2="532.623" style="stroke:#000000; stroke-width:1.6; stroke-opacity:1"/>
<line clip-path="url(#clip1002)" x1="656.572" y1="564.623" x2="656.572" y2="532.623" style="stroke:#000000; stroke-width:1.6; stroke-opacity:1"/>
<line clip-path="url(#clip1002)" x1="658.228" y1="564.623" x2="658.228" y2="532.623" style="stroke:#000000; stroke-width:1.6; stroke-opacity:1"/>
<line clip-path="url(#clip1002)" x1="762.378" y1="564.623" x2="762.378" y2="532.623" style="stroke:#000000; stroke-width:1.6; stroke-opacity:1"/>
<line clip-path="url(#clip1002)" x1="791.822" y1="564.623" x2="791.822" y2="532.623" style="stroke:#000000; stroke-width:1.6; stroke-opacity:1"/>
<line clip-path="url(#clip1002)" x1="942.966" y1="564.623" x2="942.966" y2="532.623" style="stroke:#000000; stroke-width:1.6; stroke-opacity:1"/>
<line clip-path="url(#clip1002)" x1="966.356" y1="564.623" x2="966.356" y2="532.623" style="stroke:#000000; stroke-width:1.6; stroke-opacity:1"/>
<line clip-path="url(#clip1002)" x1="1191.02" y1="564.623" x2="1191.02" y2="532.623" style="stroke:#000000; stroke-width:1.6; stroke-opacity:1"/>
<line clip-path="url(#clip1002)" x1="1259.5" y1="564.623" x2="1259.5" y2="532.623" style="stroke:#000000; stroke-width:1.6; stroke-opacity:1"/>
<line clip-path="url(#clip1002)" x1="1341.33" y1="564.623" x2="1341.33" y2="532.623" style="stroke:#000000; stroke-width:1.6; stroke-opacity:1"/>
<line clip-path="url(#clip1002)" x1="1527.55" y1="564.623" x2="1527.55" y2="532.623" style="stroke:#000000; stroke-width:1.6; stroke-opacity:1"/>
<line clip-path="url(#clip1002)" x1="1529.99" y1="564.623" x2="1529.99" y2="532.623" style="stroke:#000000; stroke-width:1.6; stroke-opacity:1"/>
<line clip-path="url(#clip1002)" x1="1562.68" y1="564.623" x2="1562.68" y2="532.623" style="stroke:#000000; stroke-width:1.6; stroke-opacity:1"/>
<line clip-path="url(#clip1002)" x1="1574.82" y1="564.623" x2="1574.82" y2="532.623" style="stroke:#000000; stroke-width:1.6; stroke-opacity:1"/>
<line clip-path="url(#clip1002)" x1="1655.65" y1="564.623" x2="1655.65" y2="532.623" style="stroke:#000000; stroke-width:1.6; stroke-opacity:1"/>
<line clip-path="url(#clip1002)" x1="1677.17" y1="564.623" x2="1677.17" y2="532.623" style="stroke:#000000; stroke-width:1.6; stroke-opacity:1"/>
<line clip-path="url(#clip1002)" x1="1686" y1="564.623" x2="1686" y2="532.623" style="stroke:#000000; stroke-width:1.6; stroke-opacity:1"/>
<line clip-path="url(#clip1002)" x1="1705.39" y1="564.623" x2="1705.39" y2="532.623" style="stroke:#000000; stroke-width:1.6; stroke-opacity:1"/>
<line clip-path="url(#clip1002)" x1="1836.16" y1="564.623" x2="1836.16" y2="532.623" style="stroke:#000000; stroke-width:1.6; stroke-opacity:1"/>
<line clip-path="url(#clip1002)" x1="1870.89" y1="564.623" x2="1870.89" y2="532.623" style="stroke:#000000; stroke-width:1.6; stroke-opacity:1"/>
<line clip-path="url(#clip1002)" x1="1899.82" y1="564.623" x2="1899.82" y2="532.623" style="stroke:#000000; stroke-width:1.6; stroke-opacity:1"/>
<line clip-path="url(#clip1002)" x1="1910.35" y1="564.623" x2="1910.35" y2="532.623" style="stroke:#000000; stroke-width:1.6; stroke-opacity:1"/>
<line clip-path="url(#clip1002)" x1="1936.82" y1="564.623" x2="1936.82" y2="532.623" style="stroke:#000000; stroke-width:1.6; stroke-opacity:1"/>
<line clip-path="url(#clip1002)" x1="208.169" y1="503.997" x2="208.169" y2="471.997" style="stroke:#000000; stroke-width:1.6; stroke-opacity:1"/>
<line clip-path="url(#clip1002)" x1="219.677" y1="503.997" x2="219.677" y2="471.997" style="stroke:#000000; stroke-width:1.6; stroke-opacity:1"/>
<line clip-path="url(#clip1002)" x1="358.285" y1="503.997" x2="358.285" y2="471.997" style="stroke:#000000; stroke-width:1.6; stroke-opacity:1"/>
<line clip-path="url(#clip1002)" x1="423.889" y1="503.997" x2="423.889" y2="471.997" style="stroke:#000000; stroke-width:1.6; stroke-opacity:1"/>
<line clip-path="url(#clip1002)" x1="577.032" y1="503.997" x2="577.032" y2="471.997" style="stroke:#000000; stroke-width:1.6; stroke-opacity:1"/>
<line clip-path="url(#clip1002)" x1="680.693" y1="503.997" x2="680.693" y2="471.997" style="stroke:#000000; stroke-width:1.6; stroke-opacity:1"/>
<line clip-path="url(#clip1002)" x1="707.034" y1="503.997" x2="707.034" y2="471.997" style="stroke:#000000; stroke-width:1.6; stroke-opacity:1"/>
<line clip-path="url(#clip1002)" x1="740.329" y1="503.997" x2="740.329" y2="471.997" style="stroke:#000000; stroke-width:1.6; stroke-opacity:1"/>
<line clip-path="url(#clip1002)" x1="771.079" y1="503.997" x2="771.079" y2="471.997" style="stroke:#000000; stroke-width:1.6; stroke-opacity:1"/>
<line clip-path="url(#clip1002)" x1="873.083" y1="503.997" x2="873.083" y2="471.997" style="stroke:#000000; stroke-width:1.6; stroke-opacity:1"/>
<line clip-path="url(#clip1002)" x1="900.136" y1="503.997" x2="900.136" y2="471.997" style="stroke:#000000; stroke-width:1.6; stroke-opacity:1"/>
<line clip-path="url(#clip1002)" x1="976.071" y1="503.997" x2="976.071" y2="471.997" style="stroke:#000000; stroke-width:1.6; stroke-opacity:1"/>
<line clip-path="url(#clip1002)" x1="976.09" y1="503.997" x2="976.09" y2="471.997" style="stroke:#000000; stroke-width:1.6; stroke-opacity:1"/>
<line clip-path="url(#clip1002)" x1="1032.78" y1="503.997" x2="1032.78" y2="471.997" style="stroke:#000000; stroke-width:1.6; stroke-opacity:1"/>
<line clip-path="url(#clip1002)" x1="1269.66" y1="503.997" x2="1269.66" y2="471.997" style="stroke:#000000; stroke-width:1.6; stroke-opacity:1"/>
<line clip-path="url(#clip1002)" x1="1305.92" y1="503.997" x2="1305.92" y2="471.997" style="stroke:#000000; stroke-width:1.6; stroke-opacity:1"/>
<line clip-path="url(#clip1002)" x1="1344.23" y1="503.997" x2="1344.23" y2="471.997" style="stroke:#000000; stroke-width:1.6; stroke-opacity:1"/>
<line clip-path="url(#clip1002)" x1="1353.09" y1="503.997" x2="1353.09" y2="471.997" style="stroke:#000000; stroke-width:1.6; stroke-opacity:1"/>
<line clip-path="url(#clip1002)" x1="1421.25" y1="503.997" x2="1421.25" y2="471.997" style="stroke:#000000; stroke-width:1.6; stroke-opacity:1"/>
<line clip-path="url(#clip1002)" x1="1480.44" y1="503.997" x2="1480.44" y2="471.997" style="stroke:#000000; stroke-width:1.6; stroke-opacity:1"/>
<line clip-path="url(#clip1002)" x1="1501.35" y1="503.997" x2="1501.35" y2="471.997" style="stroke:#000000; stroke-width:1.6; stroke-opacity:1"/>
<line clip-path="url(#clip1002)" x1="1506.19" y1="503.997" x2="1506.19" y2="471.997" style="stroke:#000000; stroke-width:1.6; stroke-opacity:1"/>
<line clip-path="url(#clip1002)" x1="1514.48" y1="503.997" x2="1514.48" y2="471.997" style="stroke:#000000; stroke-width:1.6; stroke-opacity:1"/>
<line clip-path="url(#clip1002)" x1="1745.35" y1="503.997" x2="1745.35" y2="471.997" style="stroke:#000000; stroke-width:1.6; stroke-opacity:1"/>
<line clip-path="url(#clip1002)" x1="1802.33" y1="503.997" x2="1802.33" y2="471.997" style="stroke:#000000; stroke-width:1.6; stroke-opacity:1"/>
<line clip-path="url(#clip1002)" x1="1806.15" y1="503.997" x2="1806.15" y2="471.997" style="stroke:#000000; stroke-width:1.6; stroke-opacity:1"/>
<line clip-path="url(#clip1002)" x1="1839.64" y1="503.997" x2="1839.64" y2="471.997" style="stroke:#000000; stroke-width:1.6; stroke-opacity:1"/>
<line clip-path="url(#clip1002)" x1="1945.79" y1="503.997" x2="1945.79" y2="471.997" style="stroke:#000000; stroke-width:1.6; stroke-opacity:1"/>
<line clip-path="url(#clip1002)" x1="235.384" y1="443.371" x2="235.384" y2="411.371" style="stroke:#000000; stroke-width:1.6; stroke-opacity:1"/>
<line clip-path="url(#clip1002)" x1="326.293" y1="443.371" x2="326.293" y2="411.371" style="stroke:#000000; stroke-width:1.6; stroke-opacity:1"/>
<line clip-path="url(#clip1002)" x1="434.582" y1="443.371" x2="434.582" y2="411.371" style="stroke:#000000; stroke-width:1.6; stroke-opacity:1"/>
<line clip-path="url(#clip1002)" x1="480.314" y1="443.371" x2="480.314" y2="411.371" style="stroke:#000000; stroke-width:1.6; stroke-opacity:1"/>
<line clip-path="url(#clip1002)" x1="486.298" y1="443.371" x2="486.298" y2="411.371" style="stroke:#000000; stroke-width:1.6; stroke-opacity:1"/>
<line clip-path="url(#clip1002)" x1="583.856" y1="443.371" x2="583.856" y2="411.371" style="stroke:#000000; stroke-width:1.6; stroke-opacity:1"/>
<line clip-path="url(#clip1002)" x1="631.564" y1="443.371" x2="631.564" y2="411.371" style="stroke:#000000; stroke-width:1.6; stroke-opacity:1"/>
<line clip-path="url(#clip1002)" x1="637.512" y1="443.371" x2="637.512" y2="411.371" style="stroke:#000000; stroke-width:1.6; stroke-opacity:1"/>
<line clip-path="url(#clip1002)" x1="725.154" y1="443.371" x2="725.154" y2="411.371" style="stroke:#000000; stroke-width:1.6; stroke-opacity:1"/>
<line clip-path="url(#clip1002)" x1="833.437" y1="443.371" x2="833.437" y2="411.371" style="stroke:#000000; stroke-width:1.6; stroke-opacity:1"/>
<line clip-path="url(#clip1002)" x1="863.148" y1="443.371" x2="863.148" y2="411.371" style="stroke:#000000; stroke-width:1.6; stroke-opacity:1"/>
<line clip-path="url(#clip1002)" x1="876.567" y1="443.371" x2="876.567" y2="411.371" style="stroke:#000000; stroke-width:1.6; stroke-opacity:1"/>
<line clip-path="url(#clip1002)" x1="914.761" y1="443.371" x2="914.761" y2="411.371" style="stroke:#000000; stroke-width:1.6; stroke-opacity:1"/>
<line clip-path="url(#clip1002)" x1="953.734" y1="443.371" x2="953.734" y2="411.371" style="stroke:#000000; stroke-width:1.6; stroke-opacity:1"/>
<line clip-path="url(#clip1002)" x1="988.185" y1="443.371" x2="988.185" y2="411.371" style="stroke:#000000; stroke-width:1.6; stroke-opacity:1"/>
<line clip-path="url(#clip1002)" x1="1003.3" y1="443.371" x2="1003.3" y2="411.371" style="stroke:#000000; stroke-width:1.6; stroke-opacity:1"/>
<line clip-path="url(#clip1002)" x1="1149.79" y1="443.371" x2="1149.79" y2="411.371" style="stroke:#000000; stroke-width:1.6; stroke-opacity:1"/>
<line clip-path="url(#clip1002)" x1="1332" y1="443.371" x2="1332" y2="411.371" style="stroke:#000000; stroke-width:1.6; stroke-opacity:1"/>
<line clip-path="url(#clip1002)" x1="1334.27" y1="443.371" x2="1334.27" y2="411.371" style="stroke:#000000; stroke-width:1.6; stroke-opacity:1"/>
<line clip-path="url(#clip1002)" x1="1403.34" y1="443.371" x2="1403.34" y2="411.371" style="stroke:#000000; stroke-width:1.6; stroke-opacity:1"/>
<line clip-path="url(#clip1002)" x1="1417" y1="443.371" x2="1417" y2="411.371" style="stroke:#000000; stroke-width:1.6; stroke-opacity:1"/>
<line clip-path="url(#clip1002)" x1="1423.51" y1="443.371" x2="1423.51" y2="411.371" style="stroke:#000000; stroke-width:1.6; stroke-opacity:1"/>
<line clip-path="url(#clip1002)" x1="1453.15" y1="443.371" x2="1453.15" y2="411.371" style="stroke:#000000; stroke-width:1.6; stroke-opacity:1"/>
<line clip-path="url(#clip1002)" x1="1655.92" y1="443.371" x2="1655.92" y2="411.371" style="stroke:#000000; stroke-width:1.6; stroke-opacity:1"/>
<line clip-path="url(#clip1002)" x1="1660.67" y1="443.371" x2="1660.67" y2="411.371" style="stroke:#000000; stroke-width:1.6; stroke-opacity:1"/>
<line clip-path="url(#clip1002)" x1="1702.68" y1="443.371" x2="1702.68" y2="411.371" style="stroke:#000000; stroke-width:1.6; stroke-opacity:1"/>
<line clip-path="url(#clip1002)" x1="1767.04" y1="443.371" x2="1767.04" y2="411.371" style="stroke:#000000; stroke-width:1.6; stroke-opacity:1"/>
<line clip-path="url(#clip1002)" x1="1821.77" y1="443.371" x2="1821.77" y2="411.371" style="stroke:#000000; stroke-width:1.6; stroke-opacity:1"/>
<line clip-path="url(#clip1002)" x1="1829.86" y1="443.371" x2="1829.86" y2="411.371" style="stroke:#000000; stroke-width:1.6; stroke-opacity:1"/>
<line clip-path="url(#clip1002)" x1="1857.24" y1="443.371" x2="1857.24" y2="411.371" style="stroke:#000000; stroke-width:1.6; stroke-opacity:1"/>
<line clip-path="url(#clip1002)" x1="1866.52" y1="443.371" x2="1866.52" y2="411.371" style="stroke:#000000; stroke-width:1.6; stroke-opacity:1"/>
<line clip-path="url(#clip1002)" x1="1920.1" y1="443.371" x2="1920.1" y2="411.371" style="stroke:#000000; stroke-width:1.6; stroke-opacity:1"/>
<line clip-path="url(#clip1002)" x1="1943.84" y1="443.371" x2="1943.84" y2="411.371" style="stroke:#000000; stroke-width:1.6; stroke-opacity:1"/>
<line clip-path="url(#clip1002)" x1="235.583" y1="382.744" x2="235.583" y2="350.744" style="stroke:#000000; stroke-width:1.6; stroke-opacity:1"/>
<line clip-path="url(#clip1002)" x1="271.71" y1="382.744" x2="271.71" y2="350.744" style="stroke:#000000; stroke-width:1.6; stroke-opacity:1"/>
<line clip-path="url(#clip1002)" x1="299.877" y1="382.744" x2="299.877" y2="350.744" style="stroke:#000000; stroke-width:1.6; stroke-opacity:1"/>
<line clip-path="url(#clip1002)" x1="333.785" y1="382.744" x2="333.785" y2="350.744" style="stroke:#000000; stroke-width:1.6; stroke-opacity:1"/>
<line clip-path="url(#clip1002)" x1="476.542" y1="382.744" x2="476.542" y2="350.744" style="stroke:#000000; stroke-width:1.6; stroke-opacity:1"/>
<line clip-path="url(#clip1002)" x1="601.572" y1="382.744" x2="601.572" y2="350.744" style="stroke:#000000; stroke-width:1.6; stroke-opacity:1"/>
<line clip-path="url(#clip1002)" x1="640.209" y1="382.744" x2="640.209" y2="350.744" style="stroke:#000000; stroke-width:1.6; stroke-opacity:1"/>
<line clip-path="url(#clip1002)" x1="672.157" y1="382.744" x2="672.157" y2="350.744" style="stroke:#000000; stroke-width:1.6; stroke-opacity:1"/>
<line clip-path="url(#clip1002)" x1="674.765" y1="382.744" x2="674.765" y2="350.744" style="stroke:#000000; stroke-width:1.6; stroke-opacity:1"/>
<line clip-path="url(#clip1002)" x1="699.437" y1="382.744" x2="699.437" y2="350.744" style="stroke:#000000; stroke-width:1.6; stroke-opacity:1"/>
<line clip-path="url(#clip1002)" x1="872.854" y1="382.744" x2="872.854" y2="350.744" style="stroke:#000000; stroke-width:1.6; stroke-opacity:1"/>
<line clip-path="url(#clip1002)" x1="944.448" y1="382.744" x2="944.448" y2="350.744" style="stroke:#000000; stroke-width:1.6; stroke-opacity:1"/>
<line clip-path="url(#clip1002)" x1="1079.96" y1="382.744" x2="1079.96" y2="350.744" style="stroke:#000000; stroke-width:1.6; stroke-opacity:1"/>
<line clip-path="url(#clip1002)" x1="1096.39" y1="382.744" x2="1096.39" y2="350.744" style="stroke:#000000; stroke-width:1.6; stroke-opacity:1"/>
<line clip-path="url(#clip1002)" x1="1119.78" y1="382.744" x2="1119.78" y2="350.744" style="stroke:#000000; stroke-width:1.6; stroke-opacity:1"/>
<line clip-path="url(#clip1002)" x1="1179.29" y1="382.744" x2="1179.29" y2="350.744" style="stroke:#000000; stroke-width:1.6; stroke-opacity:1"/>
<line clip-path="url(#clip1002)" x1="1187.71" y1="382.744" x2="1187.71" y2="350.744" style="stroke:#000000; stroke-width:1.6; stroke-opacity:1"/>
<line clip-path="url(#clip1002)" x1="1310.05" y1="382.744" x2="1310.05" y2="350.744" style="stroke:#000000; stroke-width:1.6; stroke-opacity:1"/>
<line clip-path="url(#clip1002)" x1="1328.19" y1="382.744" x2="1328.19" y2="350.744" style="stroke:#000000; stroke-width:1.6; stroke-opacity:1"/>
<line clip-path="url(#clip1002)" x1="1386.1" y1="382.744" x2="1386.1" y2="350.744" style="stroke:#000000; stroke-width:1.6; stroke-opacity:1"/>
<line clip-path="url(#clip1002)" x1="1426.17" y1="382.744" x2="1426.17" y2="350.744" style="stroke:#000000; stroke-width:1.6; stroke-opacity:1"/>
<line clip-path="url(#clip1002)" x1="1504.03" y1="382.744" x2="1504.03" y2="350.744" style="stroke:#000000; stroke-width:1.6; stroke-opacity:1"/>
<line clip-path="url(#clip1002)" x1="1613.38" y1="382.744" x2="1613.38" y2="350.744" style="stroke:#000000; stroke-width:1.6; stroke-opacity:1"/>
<line clip-path="url(#clip1002)" x1="1654.25" y1="382.744" x2="1654.25" y2="350.744" style="stroke:#000000; stroke-width:1.6; stroke-opacity:1"/>
<line clip-path="url(#clip1002)" x1="1713.48" y1="382.744" x2="1713.48" y2="350.744" style="stroke:#000000; stroke-width:1.6; stroke-opacity:1"/>
<line clip-path="url(#clip1002)" x1="1808.82" y1="382.744" x2="1808.82" y2="350.744" style="stroke:#000000; stroke-width:1.6; stroke-opacity:1"/>
<line clip-path="url(#clip1002)" x1="1852.93" y1="382.744" x2="1852.93" y2="350.744" style="stroke:#000000; stroke-width:1.6; stroke-opacity:1"/>
<line clip-path="url(#clip1002)" x1="1878.83" y1="382.744" x2="1878.83" y2="350.744" style="stroke:#000000; stroke-width:1.6; stroke-opacity:1"/>
<line clip-path="url(#clip1002)" x1="245.081" y1="322.118" x2="245.081" y2="290.118" style="stroke:#000000; stroke-width:1.6; stroke-opacity:1"/>
<line clip-path="url(#clip1002)" x1="256.516" y1="322.118" x2="256.516" y2="290.118" style="stroke:#000000; stroke-width:1.6; stroke-opacity:1"/>
<line clip-path="url(#clip1002)" x1="259.212" y1="322.118" x2="259.212" y2="290.118" style="stroke:#000000; stroke-width:1.6; stroke-opacity:1"/>
<line clip-path="url(#clip1002)" x1="266.523" y1="322.118" x2="266.523" y2="290.118" style="stroke:#000000; stroke-width:1.6; stroke-opacity:1"/>
<line clip-path="url(#clip1002)" x1="294.788" y1="322.118" x2="294.788" y2="290.118" style="stroke:#000000; stroke-width:1.6; stroke-opacity:1"/>
<line clip-path="url(#clip1002)" x1="359.808" y1="322.118" x2="359.808" y2="290.118" style="stroke:#000000; stroke-width:1.6; stroke-opacity:1"/>
<line clip-path="url(#clip1002)" x1="446.59" y1="322.118" x2="446.59" y2="290.118" style="stroke:#000000; stroke-width:1.6; stroke-opacity:1"/>
<line clip-path="url(#clip1002)" x1="470.128" y1="322.118" x2="470.128" y2="290.118" style="stroke:#000000; stroke-width:1.6; stroke-opacity:1"/>
<line clip-path="url(#clip1002)" x1="503.804" y1="322.118" x2="503.804" y2="290.118" style="stroke:#000000; stroke-width:1.6; stroke-opacity:1"/>
<line clip-path="url(#clip1002)" x1="575.711" y1="322.118" x2="575.711" y2="290.118" style="stroke:#000000; stroke-width:1.6; stroke-opacity:1"/>
<line clip-path="url(#clip1002)" x1="641.388" y1="322.118" x2="641.388" y2="290.118" style="stroke:#000000; stroke-width:1.6; stroke-opacity:1"/>
<line clip-path="url(#clip1002)" x1="643.206" y1="322.118" x2="643.206" y2="290.118" style="stroke:#000000; stroke-width:1.6; stroke-opacity:1"/>
<line clip-path="url(#clip1002)" x1="671.786" y1="322.118" x2="671.786" y2="290.118" style="stroke:#000000; stroke-width:1.6; stroke-opacity:1"/>
<line clip-path="url(#clip1002)" x1="693.279" y1="322.118" x2="693.279" y2="290.118" style="stroke:#000000; stroke-width:1.6; stroke-opacity:1"/>
<line clip-path="url(#clip1002)" x1="862.188" y1="322.118" x2="862.188" y2="290.118" style="stroke:#000000; stroke-width:1.6; stroke-opacity:1"/>
<line clip-path="url(#clip1002)" x1="1043.89" y1="322.118" x2="1043.89" y2="290.118" style="stroke:#000000; stroke-width:1.6; stroke-opacity:1"/>
<line clip-path="url(#clip1002)" x1="1290.81" y1="322.118" x2="1290.81" y2="290.118" style="stroke:#000000; stroke-width:1.6; stroke-opacity:1"/>
<line clip-path="url(#clip1002)" x1="1330.68" y1="322.118" x2="1330.68" y2="290.118" style="stroke:#000000; stroke-width:1.6; stroke-opacity:1"/>
<line clip-path="url(#clip1002)" x1="1362.1" y1="322.118" x2="1362.1" y2="290.118" style="stroke:#000000; stroke-width:1.6; stroke-opacity:1"/>
<line clip-path="url(#clip1002)" x1="1419.46" y1="322.118" x2="1419.46" y2="290.118" style="stroke:#000000; stroke-width:1.6; stroke-opacity:1"/>
<line clip-path="url(#clip1002)" x1="1475.88" y1="322.118" x2="1475.88" y2="290.118" style="stroke:#000000; stroke-width:1.6; stroke-opacity:1"/>
<line clip-path="url(#clip1002)" x1="1625.32" y1="322.118" x2="1625.32" y2="290.118" style="stroke:#000000; stroke-width:1.6; stroke-opacity:1"/>
<line clip-path="url(#clip1002)" x1="1670.24" y1="322.118" x2="1670.24" y2="290.118" style="stroke:#000000; stroke-width:1.6; stroke-opacity:1"/>
<line clip-path="url(#clip1002)" x1="1676.4" y1="322.118" x2="1676.4" y2="290.118" style="stroke:#000000; stroke-width:1.6; stroke-opacity:1"/>
<line clip-path="url(#clip1002)" x1="1691.87" y1="322.118" x2="1691.87" y2="290.118" style="stroke:#000000; stroke-width:1.6; stroke-opacity:1"/>
<line clip-path="url(#clip1002)" x1="1910.19" y1="322.118" x2="1910.19" y2="290.118" style="stroke:#000000; stroke-width:1.6; stroke-opacity:1"/>
<line clip-path="url(#clip1002)" x1="354.377" y1="261.492" x2="354.377" y2="229.492" style="stroke:#000000; stroke-width:1.6; stroke-opacity:1"/>
<line clip-path="url(#clip1002)" x1="414.306" y1="261.492" x2="414.306" y2="229.492" style="stroke:#000000; stroke-width:1.6; stroke-opacity:1"/>
<line clip-path="url(#clip1002)" x1="423.211" y1="261.492" x2="423.211" y2="229.492" style="stroke:#000000; stroke-width:1.6; stroke-opacity:1"/>
<line clip-path="url(#clip1002)" x1="461.581" y1="261.492" x2="461.581" y2="229.492" style="stroke:#000000; stroke-width:1.6; stroke-opacity:1"/>
<line clip-path="url(#clip1002)" x1="476.523" y1="261.492" x2="476.523" y2="229.492" style="stroke:#000000; stroke-width:1.6; stroke-opacity:1"/>
<line clip-path="url(#clip1002)" x1="478.271" y1="261.492" x2="478.271" y2="229.492" style="stroke:#000000; stroke-width:1.6; stroke-opacity:1"/>
<line clip-path="url(#clip1002)" x1="521.033" y1="261.492" x2="521.033" y2="229.492" style="stroke:#000000; stroke-width:1.6; stroke-opacity:1"/>
<line clip-path="url(#clip1002)" x1="607.4" y1="261.492" x2="607.4" y2="229.492" style="stroke:#000000; stroke-width:1.6; stroke-opacity:1"/>
<line clip-path="url(#clip1002)" x1="640.853" y1="261.492" x2="640.853" y2="229.492" style="stroke:#000000; stroke-width:1.6; stroke-opacity:1"/>
<line clip-path="url(#clip1002)" x1="690.683" y1="261.492" x2="690.683" y2="229.492" style="stroke:#000000; stroke-width:1.6; stroke-opacity:1"/>
<line clip-path="url(#clip1002)" x1="955.846" y1="261.492" x2="955.846" y2="229.492" style="stroke:#000000; stroke-width:1.6; stroke-opacity:1"/>
<line clip-path="url(#clip1002)" x1="1349.57" y1="261.492" x2="1349.57" y2="229.492" style="stroke:#000000; stroke-width:1.6; stroke-opacity:1"/>
<line clip-path="url(#clip1002)" x1="1360.89" y1="261.492" x2="1360.89" y2="229.492" style="stroke:#000000; stroke-width:1.6; stroke-opacity:1"/>
<line clip-path="url(#clip1002)" x1="1424.27" y1="261.492" x2="1424.27" y2="229.492" style="stroke:#000000; stroke-width:1.6; stroke-opacity:1"/>
<line clip-path="url(#clip1002)" x1="1447.96" y1="261.492" x2="1447.96" y2="229.492" style="stroke:#000000; stroke-width:1.6; stroke-opacity:1"/>
<line clip-path="url(#clip1002)" x1="1460.59" y1="261.492" x2="1460.59" y2="229.492" style="stroke:#000000; stroke-width:1.6; stroke-opacity:1"/>
<line clip-path="url(#clip1002)" x1="1477.35" y1="261.492" x2="1477.35" y2="229.492" style="stroke:#000000; stroke-width:1.6; stroke-opacity:1"/>
<line clip-path="url(#clip1002)" x1="1549.11" y1="261.492" x2="1549.11" y2="229.492" style="stroke:#000000; stroke-width:1.6; stroke-opacity:1"/>
<line clip-path="url(#clip1002)" x1="1620.12" y1="261.492" x2="1620.12" y2="229.492" style="stroke:#000000; stroke-width:1.6; stroke-opacity:1"/>
<line clip-path="url(#clip1002)" x1="1655.2" y1="261.492" x2="1655.2" y2="229.492" style="stroke:#000000; stroke-width:1.6; stroke-opacity:1"/>
<line clip-path="url(#clip1002)" x1="1831.09" y1="261.492" x2="1831.09" y2="229.492" style="stroke:#000000; stroke-width:1.6; stroke-opacity:1"/>
<line clip-path="url(#clip1002)" x1="1842.96" y1="261.492" x2="1842.96" y2="229.492" style="stroke:#000000; stroke-width:1.6; stroke-opacity:1"/>
<line clip-path="url(#clip1002)" x1="1950.43" y1="261.492" x2="1950.43" y2="229.492" style="stroke:#000000; stroke-width:1.6; stroke-opacity:1"/>
<line clip-path="url(#clip1002)" x1="241.778" y1="200.866" x2="241.778" y2="168.866" style="stroke:#000000; stroke-width:1.6; stroke-opacity:1"/>
<line clip-path="url(#clip1002)" x1="342.813" y1="200.866" x2="342.813" y2="168.866" style="stroke:#000000; stroke-width:1.6; stroke-opacity:1"/>
<line clip-path="url(#clip1002)" x1="418.71" y1="200.866" x2="418.71" y2="168.866" style="stroke:#000000; stroke-width:1.6; stroke-opacity:1"/>
<line clip-path="url(#clip1002)" x1="467.285" y1="200.866" x2="467.285" y2="168.866" style="stroke:#000000; stroke-width:1.6; stroke-opacity:1"/>
<line clip-path="url(#clip1002)" x1="499.613" y1="200.866" x2="499.613" y2="168.866" style="stroke:#000000; stroke-width:1.6; stroke-opacity:1"/>
<line clip-path="url(#clip1002)" x1="546.121" y1="200.866" x2="546.121" y2="168.866" style="stroke:#000000; stroke-width:1.6; stroke-opacity:1"/>
<line clip-path="url(#clip1002)" x1="673.816" y1="200.866" x2="673.816" y2="168.866" style="stroke:#000000; stroke-width:1.6; stroke-opacity:1"/>
<line clip-path="url(#clip1002)" x1="712.288" y1="200.866" x2="712.288" y2="168.866" style="stroke:#000000; stroke-width:1.6; stroke-opacity:1"/>
<line clip-path="url(#clip1002)" x1="724.411" y1="200.866" x2="724.411" y2="168.866" style="stroke:#000000; stroke-width:1.6; stroke-opacity:1"/>
<line clip-path="url(#clip1002)" x1="728.629" y1="200.866" x2="728.629" y2="168.866" style="stroke:#000000; stroke-width:1.6; stroke-opacity:1"/>
<line clip-path="url(#clip1002)" x1="735.564" y1="200.866" x2="735.564" y2="168.866" style="stroke:#000000; stroke-width:1.6; stroke-opacity:1"/>
<line clip-path="url(#clip1002)" x1="785.031" y1="200.866" x2="785.031" y2="168.866" style="stroke:#000000; stroke-width:1.6; stroke-opacity:1"/>
<line clip-path="url(#clip1002)" x1="792.517" y1="200.866" x2="792.517" y2="168.866" style="stroke:#000000; stroke-width:1.6; stroke-opacity:1"/>
<line clip-path="url(#clip1002)" x1="861.932" y1="200.866" x2="861.932" y2="168.866" style="stroke:#000000; stroke-width:1.6; stroke-opacity:1"/>
<line clip-path="url(#clip1002)" x1="878.56" y1="200.866" x2="878.56" y2="168.866" style="stroke:#000000; stroke-width:1.6; stroke-opacity:1"/>
<line clip-path="url(#clip1002)" x1="1025.25" y1="200.866" x2="1025.25" y2="168.866" style="stroke:#000000; stroke-width:1.6; stroke-opacity:1"/>
<line clip-path="url(#clip1002)" x1="1042.36" y1="200.866" x2="1042.36" y2="168.866" style="stroke:#000000; stroke-width:1.6; stroke-opacity:1"/>
<line clip-path="url(#clip1002)" x1="1110.72" y1="200.866" x2="1110.72" y2="168.866" style="stroke:#000000; stroke-width:1.6; stroke-opacity:1"/>
<line clip-path="url(#clip1002)" x1="1116.05" y1="200.866" x2="1116.05" y2="168.866" style="stroke:#000000; stroke-width:1.6; stroke-opacity:1"/>
<line clip-path="url(#clip1002)" x1="1154.11" y1="200.866" x2="1154.11" y2="168.866" style="stroke:#000000; stroke-width:1.6; stroke-opacity:1"/>
<line clip-path="url(#clip1002)" x1="1192.29" y1="200.866" x2="1192.29" y2="168.866" style="stroke:#000000; stroke-width:1.6; stroke-opacity:1"/>
<line clip-path="url(#clip1002)" x1="1221.39" y1="200.866" x2="1221.39" y2="168.866" style="stroke:#000000; stroke-width:1.6; stroke-opacity:1"/>
<line clip-path="url(#clip1002)" x1="1438.82" y1="200.866" x2="1438.82" y2="168.866" style="stroke:#000000; stroke-width:1.6; stroke-opacity:1"/>
<line clip-path="url(#clip1002)" x1="1457.31" y1="200.866" x2="1457.31" y2="168.866" style="stroke:#000000; stroke-width:1.6; stroke-opacity:1"/>
<line clip-path="url(#clip1002)" x1="1496.38" y1="200.866" x2="1496.38" y2="168.866" style="stroke:#000000; stroke-width:1.6; stroke-opacity:1"/>
<line clip-path="url(#clip1002)" x1="1507.52" y1="200.866" x2="1507.52" y2="168.866" style="stroke:#000000; stroke-width:1.6; stroke-opacity:1"/>
<line clip-path="url(#clip1002)" x1="1570.21" y1="200.866" x2="1570.21" y2="168.866" style="stroke:#000000; stroke-width:1.6; stroke-opacity:1"/>
<line clip-path="url(#clip1002)" x1="1630.29" y1="200.866" x2="1630.29" y2="168.866" style="stroke:#000000; stroke-width:1.6; stroke-opacity:1"/>
<line clip-path="url(#clip1002)" x1="1947.64" y1="200.866" x2="1947.64" y2="168.866" style="stroke:#000000; stroke-width:1.6; stroke-opacity:1"/>
<line clip-path="url(#clip1002)" x1="355.287" y1="140.239" x2="355.287" y2="108.239" style="stroke:#000000; stroke-width:1.6; stroke-opacity:1"/>
<line clip-path="url(#clip1002)" x1="453.24" y1="140.239" x2="453.24" y2="108.239" style="stroke:#000000; stroke-width:1.6; stroke-opacity:1"/>
<line clip-path="url(#clip1002)" x1="523.233" y1="140.239" x2="523.233" y2="108.239" style="stroke:#000000; stroke-width:1.6; stroke-opacity:1"/>
<line clip-path="url(#clip1002)" x1="780.223" y1="140.239" x2="780.223" y2="108.239" style="stroke:#000000; stroke-width:1.6; stroke-opacity:1"/>
<line clip-path="url(#clip1002)" x1="861" y1="140.239" x2="861" y2="108.239" style="stroke:#000000; stroke-width:1.6; stroke-opacity:1"/>
<line clip-path="url(#clip1002)" x1="891.311" y1="140.239" x2="891.311" y2="108.239" style="stroke:#000000; stroke-width:1.6; stroke-opacity:1"/>
<line clip-path="url(#clip1002)" x1="922.08" y1="140.239" x2="922.08" y2="108.239" style="stroke:#000000; stroke-width:1.6; stroke-opacity:1"/>
<line clip-path="url(#clip1002)" x1="975.838" y1="140.239" x2="975.838" y2="108.239" style="stroke:#000000; stroke-width:1.6; stroke-opacity:1"/>
<line clip-path="url(#clip1002)" x1="978.846" y1="140.239" x2="978.846" y2="108.239" style="stroke:#000000; stroke-width:1.6; stroke-opacity:1"/>
<line clip-path="url(#clip1002)" x1="981.584" y1="140.239" x2="981.584" y2="108.239" style="stroke:#000000; stroke-width:1.6; stroke-opacity:1"/>
<line clip-path="url(#clip1002)" x1="985.002" y1="140.239" x2="985.002" y2="108.239" style="stroke:#000000; stroke-width:1.6; stroke-opacity:1"/>
<line clip-path="url(#clip1002)" x1="1134" y1="140.239" x2="1134" y2="108.239" style="stroke:#000000; stroke-width:1.6; stroke-opacity:1"/>
<line clip-path="url(#clip1002)" x1="1159.91" y1="140.239" x2="1159.91" y2="108.239" style="stroke:#000000; stroke-width:1.6; stroke-opacity:1"/>
<line clip-path="url(#clip1002)" x1="1195.34" y1="140.239" x2="1195.34" y2="108.239" style="stroke:#000000; stroke-width:1.6; stroke-opacity:1"/>
<line clip-path="url(#clip1002)" x1="1247.56" y1="140.239" x2="1247.56" y2="108.239" style="stroke:#000000; stroke-width:1.6; stroke-opacity:1"/>
<line clip-path="url(#clip1002)" x1="1271.56" y1="140.239" x2="1271.56" y2="108.239" style="stroke:#000000; stroke-width:1.6; stroke-opacity:1"/>
<line clip-path="url(#clip1002)" x1="1369.09" y1="140.239" x2="1369.09" y2="108.239" style="stroke:#000000; stroke-width:1.6; stroke-opacity:1"/>
<line clip-path="url(#clip1002)" x1="1372.47" y1="140.239" x2="1372.47" y2="108.239" style="stroke:#000000; stroke-width:1.6; stroke-opacity:1"/>
<line clip-path="url(#clip1002)" x1="1489.37" y1="140.239" x2="1489.37" y2="108.239" style="stroke:#000000; stroke-width:1.6; stroke-opacity:1"/>
<line clip-path="url(#clip1002)" x1="1563.31" y1="140.239" x2="1563.31" y2="108.239" style="stroke:#000000; stroke-width:1.6; stroke-opacity:1"/>
<line clip-path="url(#clip1002)" x1="1635.44" y1="140.239" x2="1635.44" y2="108.239" style="stroke:#000000; stroke-width:1.6; stroke-opacity:1"/>
<line clip-path="url(#clip1002)" x1="1647.49" y1="140.239" x2="1647.49" y2="108.239" style="stroke:#000000; stroke-width:1.6; stroke-opacity:1"/>
<line clip-path="url(#clip1002)" x1="1682.02" y1="140.239" x2="1682.02" y2="108.239" style="stroke:#000000; stroke-width:1.6; stroke-opacity:1"/>
<line clip-path="url(#clip1002)" x1="1815.22" y1="140.239" x2="1815.22" y2="108.239" style="stroke:#000000; stroke-width:1.6; stroke-opacity:1"/>
<line clip-path="url(#clip1002)" x1="1856.13" y1="140.239" x2="1856.13" y2="108.239" style="stroke:#000000; stroke-width:1.6; stroke-opacity:1"/>
<line clip-path="url(#clip1002)" x1="305.937" y1="79.6132" x2="305.937" y2="47.6132" style="stroke:#000000; stroke-width:1.6; stroke-opacity:1"/>
<line clip-path="url(#clip1002)" x1="355.59" y1="79.6132" x2="355.59" y2="47.6132" style="stroke:#000000; stroke-width:1.6; stroke-opacity:1"/>
<line clip-path="url(#clip1002)" x1="441.712" y1="79.6132" x2="441.712" y2="47.6132" style="stroke:#000000; stroke-width:1.6; stroke-opacity:1"/>
<line clip-path="url(#clip1002)" x1="515.618" y1="79.6132" x2="515.618" y2="47.6132" style="stroke:#000000; stroke-width:1.6; stroke-opacity:1"/>
<line clip-path="url(#clip1002)" x1="681.617" y1="79.6132" x2="681.617" y2="47.6132" style="stroke:#000000; stroke-width:1.6; stroke-opacity:1"/>
<line clip-path="url(#clip1002)" x1="706.926" y1="79.6132" x2="706.926" y2="47.6132" style="stroke:#000000; stroke-width:1.6; stroke-opacity:1"/>
<line clip-path="url(#clip1002)" x1="737.087" y1="79.6132" x2="737.087" y2="47.6132" style="stroke:#000000; stroke-width:1.6; stroke-opacity:1"/>
<line clip-path="url(#clip1002)" x1="764.627" y1="79.6132" x2="764.627" y2="47.6132" style="stroke:#000000; stroke-width:1.6; stroke-opacity:1"/>
<line clip-path="url(#clip1002)" x1="822.545" y1="79.6132" x2="822.545" y2="47.6132" style="stroke:#000000; stroke-width:1.6; stroke-opacity:1"/>
<line clip-path="url(#clip1002)" x1="919.75" y1="79.6132" x2="919.75" y2="47.6132" style="stroke:#000000; stroke-width:1.6; stroke-opacity:1"/>
<line clip-path="url(#clip1002)" x1="973.379" y1="79.6132" x2="973.379" y2="47.6132" style="stroke:#000000; stroke-width:1.6; stroke-opacity:1"/>
<line clip-path="url(#clip1002)" x1="1013.76" y1="79.6132" x2="1013.76" y2="47.6132" style="stroke:#000000; stroke-width:1.6; stroke-opacity:1"/>
<line clip-path="url(#clip1002)" x1="1041.28" y1="79.6132" x2="1041.28" y2="47.6132" style="stroke:#000000; stroke-width:1.6; stroke-opacity:1"/>
<line clip-path="url(#clip1002)" x1="1072.21" y1="79.6132" x2="1072.21" y2="47.6132" style="stroke:#000000; stroke-width:1.6; stroke-opacity:1"/>
<line clip-path="url(#clip1002)" x1="1155.25" y1="79.6132" x2="1155.25" y2="47.6132" style="stroke:#000000; stroke-width:1.6; stroke-opacity:1"/>
<line clip-path="url(#clip1002)" x1="1276.84" y1="79.6132" x2="1276.84" y2="47.6132" style="stroke:#000000; stroke-width:1.6; stroke-opacity:1"/>
<line clip-path="url(#clip1002)" x1="1280.02" y1="79.6132" x2="1280.02" y2="47.6132" style="stroke:#000000; stroke-width:1.6; stroke-opacity:1"/>
<line clip-path="url(#clip1002)" x1="1298.51" y1="79.6132" x2="1298.51" y2="47.6132" style="stroke:#000000; stroke-width:1.6; stroke-opacity:1"/>
<line clip-path="url(#clip1002)" x1="1325.32" y1="79.6132" x2="1325.32" y2="47.6132" style="stroke:#000000; stroke-width:1.6; stroke-opacity:1"/>
<line clip-path="url(#clip1002)" x1="1398.9" y1="79.6132" x2="1398.9" y2="47.6132" style="stroke:#000000; stroke-width:1.6; stroke-opacity:1"/>
<line clip-path="url(#clip1002)" x1="1438.79" y1="79.6132" x2="1438.79" y2="47.6132" style="stroke:#000000; stroke-width:1.6; stroke-opacity:1"/>
<line clip-path="url(#clip1002)" x1="1469.97" y1="79.6132" x2="1469.97" y2="47.6132" style="stroke:#000000; stroke-width:1.6; stroke-opacity:1"/>
<line clip-path="url(#clip1002)" x1="1507.97" y1="79.6132" x2="1507.97" y2="47.6132" style="stroke:#000000; stroke-width:1.6; stroke-opacity:1"/>
<line clip-path="url(#clip1002)" x1="1514.17" y1="79.6132" x2="1514.17" y2="47.6132" style="stroke:#000000; stroke-width:1.6; stroke-opacity:1"/>
<line clip-path="url(#clip1002)" x1="1534.62" y1="79.6132" x2="1534.62" y2="47.6132" style="stroke:#000000; stroke-width:1.6; stroke-opacity:1"/>
<line clip-path="url(#clip1002)" x1="1545.74" y1="79.6132" x2="1545.74" y2="47.6132" style="stroke:#000000; stroke-width:1.6; stroke-opacity:1"/>
<line clip-path="url(#clip1002)" x1="1602.85" y1="79.6132" x2="1602.85" y2="47.6132" style="stroke:#000000; stroke-width:1.6; stroke-opacity:1"/>
<line clip-path="url(#clip1002)" x1="1605.24" y1="79.6132" x2="1605.24" y2="47.6132" style="stroke:#000000; stroke-width:1.6; stroke-opacity:1"/>
<line clip-path="url(#clip1002)" x1="1612.53" y1="79.6132" x2="1612.53" y2="47.6132" style="stroke:#000000; stroke-width:1.6; stroke-opacity:1"/>
<line clip-path="url(#clip1002)" x1="1762.97" y1="79.6132" x2="1762.97" y2="47.6132" style="stroke:#000000; stroke-width:1.6; stroke-opacity:1"/>
<line clip-path="url(#clip1002)" x1="1843.8" y1="79.6132" x2="1843.8" y2="47.6132" style="stroke:#000000; stroke-width:1.6; stroke-opacity:1"/>
<line clip-path="url(#clip1002)" x1="1884.48" y1="79.6132" x2="1884.48" y2="47.6132" style="stroke:#000000; stroke-width:1.6; stroke-opacity:1"/>
</svg>
