<?xml version="1.0" encoding="utf-8"?>
<svg xmlns="http://www.w3.org/2000/svg" xmlns:xlink="http://www.w3.org/1999/xlink" width="500" height="200" viewBox="0 0 2000 800">
<defs>
  <clipPath id="clip1400">
    <rect x="0" y="0" width="2000" height="800"/>
  </clipPath>
</defs>
<path clip-path="url(#clip1400)" d="
M0 800 L2000 800 L2000 0 L0 0  Z
  " fill="#ffffff" fill-rule="evenodd" fill-opacity="1"/>
<defs>
  <clipPath id="clip1401">
    <rect x="400" y="0" width="1401" height="800"/>
  </clipPath>
</defs>
<path clip-path="url(#clip1400)" d="
M193.762 637.583 L1952.76 637.583 L1952.76 47.2441 L193.762 47.2441  Z
  " fill="#ffffff" fill-rule="evenodd" fill-opacity="1"/>
<defs>
  <clipPath id="clip1402">
    <rect x="193" y="47" width="1760" height="591"/>
  </clipPath>
</defs>
<polyline clip-path="url(#clip1402)" style="stroke:#000000; stroke-width:2; stroke-opacity:0.1; fill:none" points="
  223.349,637.583 223.349,47.2441 
  "/>
<polyline clip-path="url(#clip1402)" style="stroke:#000000; stroke-width:2; stroke-opacity:0.1; fill:none" points="
  644.097,637.583 644.097,47.2441 
  "/>
<polyline clip-path="url(#clip1402)" style="stroke:#000000; stroke-width:2; stroke-opacity:0.1; fill:none" points="
  1064.84,637.583 1064.84,47.2441 
  "/>
<polyline clip-path="url(#clip1402)" style="stroke:#000000; stroke-width:2; stroke-opacity:0.1; fill:none" points="
  1485.59,637.583 1485.59,47.2441 
  "/>
<polyline clip-path="url(#clip1402)" style="stroke:#000000; stroke-width:2; stroke-opacity:0.1; fill:none" points="
  1906.34,637.583 1906.34,47.2441 
  "/>
<polyline clip-path="url(#clip1402)" style="stroke:#000000; stroke-width:2; stroke-opacity:0.1; fill:none" points="
  193.762,558.995 1952.76,558.995 
  "/>
<polyline clip-path="url(#clip1402)" style="stroke:#000000; stroke-width:2; stroke-opacity:0.1; fill:none" points="
  193.762,435.234 1952.76,435.234 
  "/>
<polyline clip-path="url(#clip1402)" style="stroke:#000000; stroke-width:2; stroke-opacity:0.1; fill:none" points="
  193.762,311.473 1952.76,311.473 
  "/>
<polyline clip-path="url(#clip1402)" style="stroke:#000000; stroke-width:2; stroke-opacity:0.1; fill:none" points="
  193.762,187.713 1952.76,187.713 
  "/>
<polyline clip-path="url(#clip1402)" style="stroke:#000000; stroke-width:2; stroke-opacity:0.1; fill:none" points="
  193.762,63.9518 1952.76,63.9518 
  "/>
<polyline clip-path="url(#clip1400)" style="stroke:#000000; stroke-width:4; stroke-opacity:1; fill:none" points="
  193.762,637.583 1952.76,637.583 
  "/>
<polyline clip-path="url(#clip1400)" style="stroke:#000000; stroke-width:4; stroke-opacity:1; fill:none" points="
  193.762,637.583 193.762,47.2441 
  "/>
<polyline clip-path="url(#clip1400)" style="stroke:#000000; stroke-width:4; stroke-opacity:1; fill:none" points="
  223.349,637.583 223.349,630.499 
  "/>
<polyline clip-path="url(#clip1400)" style="stroke:#000000; stroke-width:4; stroke-opacity:1; fill:none" points="
  644.097,637.583 644.097,630.499 
  "/>
<polyline clip-path="url(#clip1400)" style="stroke:#000000; stroke-width:4; stroke-opacity:1; fill:none" points="
  1064.84,637.583 1064.84,630.499 
  "/>
<polyline clip-path="url(#clip1400)" style="stroke:#000000; stroke-width:4; stroke-opacity:1; fill:none" points="
  1485.59,637.583 1485.59,630.499 
  "/>
<polyline clip-path="url(#clip1400)" style="stroke:#000000; stroke-width:4; stroke-opacity:1; fill:none" points="
  1906.34,637.583 1906.34,630.499 
  "/>
<polyline clip-path="url(#clip1400)" style="stroke:#000000; stroke-width:4; stroke-opacity:1; fill:none" points="
  193.762,558.995 214.87,558.995 
  "/>
<polyline clip-path="url(#clip1400)" style="stroke:#000000; stroke-width:4; stroke-opacity:1; fill:none" points="
  193.762,435.234 214.87,435.234 
  "/>
<polyline clip-path="url(#clip1400)" style="stroke:#000000; stroke-width:4; stroke-opacity:1; fill:none" points="
  193.762,311.473 214.87,311.473 
  "/>
<polyline clip-path="url(#clip1400)" style="stroke:#000000; stroke-width:4; stroke-opacity:1; fill:none" points="
  193.762,187.713 214.87,187.713 
  "/>
<polyline clip-path="url(#clip1400)" style="stroke:#000000; stroke-width:4; stroke-opacity:1; fill:none" points="
  193.762,63.9518 214.87,63.9518 
  "/>
<g clip-path="url(#clip1400)">
<text style="fill:#000000; fill-opacity:1; font-family:Arial,Helvetica Neue,Helvetica,sans-serif; font-size:48px; text-anchor:middle;" transform="rotate(0, 223.349, 689.583)" x="223.349" y="689.583">0</text>
</g>
<g clip-path="url(#clip1400)">
<text style="fill:#000000; fill-opacity:1; font-family:Arial,Helvetica Neue,Helvetica,sans-serif; font-size:48px; text-anchor:middle;" transform="rotate(0, 644.097, 689.583)" x="644.097" y="689.583">250</text>
</g>
<g clip-path="url(#clip1400)">
<text style="fill:#000000; fill-opacity:1; font-family:Arial,Helvetica Neue,Helvetica,sans-serif; font-size:48px; text-anchor:middle;" transform="rotate(0, 1064.84, 689.583)" x="1064.84" y="689.583">500</text>
</g>
<g clip-path="url(#clip1400)">
<text style="fill:#000000; fill-opacity:1; font-family:Arial,Helvetica Neue,Helvetica,sans-serif; font-size:48px; text-anchor:middle;" transform="rotate(0, 1485.59, 689.583)" x="1485.59" y="689.583">750</text>
</g>
<g clip-path="url(#clip1400)">
<text style="fill:#000000; fill-opacity:1; font-family:Arial,Helvetica Neue,Helvetica,sans-serif; font-size:48px; text-anchor:middle;" transform="rotate(0, 1906.34, 689.583)" x="1906.34" y="689.583">1000</text>
</g>
<g clip-path="url(#clip1400)">
<text style="fill:#000000; fill-opacity:1; font-family:Arial,Helvetica Neue,Helvetica,sans-serif; font-size:48px; text-anchor:end;" transform="rotate(0, 173.762, 576.495)" x="173.762" y="576.495">2</text>
</g>
<g clip-path="url(#clip1400)">
<text style="fill:#000000; fill-opacity:1; font-family:Arial,Helvetica Neue,Helvetica,sans-serif; font-size:48px; text-anchor:end;" transform="rotate(0, 173.762, 452.734)" x="173.762" y="452.734">4</text>
</g>
<g clip-path="url(#clip1400)">
<text style="fill:#000000; fill-opacity:1; font-family:Arial,Helvetica Neue,Helvetica,sans-serif; font-size:48px; text-anchor:end;" transform="rotate(0, 173.762, 328.973)" x="173.762" y="328.973">6</text>
</g>
<g clip-path="url(#clip1400)">
<text style="fill:#000000; fill-opacity:1; font-family:Arial,Helvetica Neue,Helvetica,sans-serif; font-size:48px; text-anchor:end;" transform="rotate(0, 173.762, 205.213)" x="173.762" y="205.213">8</text>
</g>
<g clip-path="url(#clip1400)">
<text style="fill:#000000; fill-opacity:1; font-family:Arial,Helvetica Neue,Helvetica,sans-serif; font-size:48px; text-anchor:end;" transform="rotate(0, 173.762, 81.4518)" x="173.762" y="81.4518">10</text>
</g>
<g clip-path="url(#clip1400)">
<text style="fill:#000000; fill-opacity:1; font-family:Arial,Helvetica Neue,Helvetica,sans-serif; font-size:66px; text-anchor:middle;" transform="rotate(0, 1073.26, 767.445)" x="1073.26" y="767.445">Time (ms)</text>
</g>
<g clip-path="url(#clip1400)">
<text style="fill:#000000; fill-opacity:1; font-family:Arial,Helvetica Neue,Helvetica,sans-serif; font-size:66px; text-anchor:middle;" transform="rotate(-90, 88.6753, 342.413)" x="88.6753" y="342.413">Neuron index</text>
</g>
<line clip-path="url(#clip1402)" x1="265.424" y1="636.875" x2="265.424" y2="604.875" style="stroke:#000000; stroke-width:1.6; stroke-opacity:1"/>
<line clip-path="url(#clip1402)" x1="400.063" y1="636.875" x2="400.063" y2="604.875" style="stroke:#000000; stroke-width:1.6; stroke-opacity:1"/>
<line clip-path="url(#clip1402)" x1="450.553" y1="636.875" x2="450.553" y2="604.875" style="stroke:#000000; stroke-width:1.6; stroke-opacity:1"/>
<line clip-path="url(#clip1402)" x1="469.066" y1="636.875" x2="469.066" y2="604.875" style="stroke:#000000; stroke-width:1.6; stroke-opacity:1"/>
<line clip-path="url(#clip1402)" x1="512.823" y1="636.875" x2="512.823" y2="604.875" style="stroke:#000000; stroke-width:1.6; stroke-opacity:1"/>
<line clip-path="url(#clip1402)" x1="524.604" y1="636.875" x2="524.604" y2="604.875" style="stroke:#000000; stroke-width:1.6; stroke-opacity:1"/>
<line clip-path="url(#clip1402)" x1="571.728" y1="636.875" x2="571.728" y2="604.875" style="stroke:#000000; stroke-width:1.6; stroke-opacity:1"/>
<line clip-path="url(#clip1402)" x1="590.241" y1="636.875" x2="590.241" y2="604.875" style="stroke:#000000; stroke-width:1.6; stroke-opacity:1"/>
<line clip-path="url(#clip1402)" x1="632.316" y1="636.875" x2="632.316" y2="604.875" style="stroke:#000000; stroke-width:1.6; stroke-opacity:1"/>
<line clip-path="url(#clip1402)" x1="709.733" y1="636.875" x2="709.733" y2="604.875" style="stroke:#000000; stroke-width:1.6; stroke-opacity:1"/>
<line clip-path="url(#clip1402)" x1="792.2" y1="636.875" x2="792.2" y2="604.875" style="stroke:#000000; stroke-width:1.6; stroke-opacity:1"/>
<line clip-path="url(#clip1402)" x1="915.058" y1="636.875" x2="915.058" y2="604.875" style="stroke:#000000; stroke-width:1.6; stroke-opacity:1"/>
<line clip-path="url(#clip1402)" x1="970.597" y1="636.875" x2="970.597" y2="604.875" style="stroke:#000000; stroke-width:1.6; stroke-opacity:1"/>
<line clip-path="url(#clip1402)" x1="1009.31" y1="636.875" x2="1009.31" y2="604.875" style="stroke:#000000; stroke-width:1.6; stroke-opacity:1"/>
<line clip-path="url(#clip1402)" x1="1029.5" y1="636.875" x2="1029.5" y2="604.875" style="stroke:#000000; stroke-width:1.6; stroke-opacity:1"/>
<line clip-path="url(#clip1402)" x1="1106.92" y1="636.875" x2="1106.92" y2="604.875" style="stroke:#000000; stroke-width:1.6; stroke-opacity:1"/>
<line clip-path="url(#clip1402)" x1="1143.94" y1="636.875" x2="1143.94" y2="604.875" style="stroke:#000000; stroke-width:1.6; stroke-opacity:1"/>
<line clip-path="url(#clip1402)" x1="1155.73" y1="636.875" x2="1155.73" y2="604.875" style="stroke:#000000; stroke-width:1.6; stroke-opacity:1"/>
<line clip-path="url(#clip1402)" x1="1238.19" y1="636.875" x2="1238.19" y2="604.875" style="stroke:#000000; stroke-width:1.6; stroke-opacity:1"/>
<line clip-path="url(#clip1402)" x1="1266.8" y1="636.875" x2="1266.8" y2="604.875" style="stroke:#000000; stroke-width:1.6; stroke-opacity:1"/>
<line clip-path="url(#clip1402)" x1="1318.98" y1="636.875" x2="1318.98" y2="604.875" style="stroke:#000000; stroke-width:1.6; stroke-opacity:1"/>
<line clip-path="url(#clip1402)" x1="1357.68" y1="636.875" x2="1357.68" y2="604.875" style="stroke:#000000; stroke-width:1.6; stroke-opacity:1"/>
<line clip-path="url(#clip1402)" x1="1488.96" y1="636.875" x2="1488.96" y2="604.875" style="stroke:#000000; stroke-width:1.6; stroke-opacity:1"/>
<line clip-path="url(#clip1402)" x1="1561.33" y1="636.875" x2="1561.33" y2="604.875" style="stroke:#000000; stroke-width:1.6; stroke-opacity:1"/>
<line clip-path="url(#clip1402)" x1="1601.72" y1="636.875" x2="1601.72" y2="604.875" style="stroke:#000000; stroke-width:1.6; stroke-opacity:1"/>
<line clip-path="url(#clip1402)" x1="1707.75" y1="636.875" x2="1707.75" y2="604.875" style="stroke:#000000; stroke-width:1.6; stroke-opacity:1"/>
<line clip-path="url(#clip1402)" x1="1741.41" y1="636.875" x2="1741.41" y2="604.875" style="stroke:#000000; stroke-width:1.6; stroke-opacity:1"/>
<line clip-path="url(#clip1402)" x1="1820.51" y1="636.875" x2="1820.51" y2="604.875" style="stroke:#000000; stroke-width:1.6; stroke-opacity:1"/>
<line clip-path="url(#clip1402)" x1="1869.31" y1="636.875" x2="1869.31" y2="604.875" style="stroke:#000000; stroke-width:1.6; stroke-opacity:1"/>
<line clip-path="url(#clip1402)" x1="255.326" y1="574.995" x2="255.326" y2="542.995" style="stroke:#000000; stroke-width:1.6; stroke-opacity:1"/>
<line clip-path="url(#clip1402)" x1="270.473" y1="574.995" x2="270.473" y2="542.995" style="stroke:#000000; stroke-width:1.6; stroke-opacity:1"/>
<line clip-path="url(#clip1402)" x1="460.651" y1="574.995" x2="460.651" y2="542.995" style="stroke:#000000; stroke-width:1.6; stroke-opacity:1"/>
<line clip-path="url(#clip1402)" x1="536.385" y1="574.995" x2="536.385" y2="542.995" style="stroke:#000000; stroke-width:1.6; stroke-opacity:1"/>
<line clip-path="url(#clip1402)" x1="593.607" y1="574.995" x2="593.607" y2="542.995" style="stroke:#000000; stroke-width:1.6; stroke-opacity:1"/>
<line clip-path="url(#clip1402)" x1="633.999" y1="574.995" x2="633.999" y2="542.995" style="stroke:#000000; stroke-width:1.6; stroke-opacity:1"/>
<line clip-path="url(#clip1402)" x1="667.658" y1="574.995" x2="667.658" y2="542.995" style="stroke:#000000; stroke-width:1.6; stroke-opacity:1"/>
<line clip-path="url(#clip1402)" x1="691.22" y1="574.995" x2="691.22" y2="542.995" style="stroke:#000000; stroke-width:1.6; stroke-opacity:1"/>
<line clip-path="url(#clip1402)" x1="743.393" y1="574.995" x2="743.393" y2="542.995" style="stroke:#000000; stroke-width:1.6; stroke-opacity:1"/>
<line clip-path="url(#clip1402)" x1="780.419" y1="574.995" x2="780.419" y2="542.995" style="stroke:#000000; stroke-width:1.6; stroke-opacity:1"/>
<line clip-path="url(#clip1402)" x1="810.713" y1="574.995" x2="810.713" y2="542.995" style="stroke:#000000; stroke-width:1.6; stroke-opacity:1"/>
<line clip-path="url(#clip1402)" x1="824.176" y1="574.995" x2="824.176" y2="542.995" style="stroke:#000000; stroke-width:1.6; stroke-opacity:1"/>
<line clip-path="url(#clip1402)" x1="913.375" y1="574.995" x2="913.375" y2="542.995" style="stroke:#000000; stroke-width:1.6; stroke-opacity:1"/>
<line clip-path="url(#clip1402)" x1="936.937" y1="574.995" x2="936.937" y2="542.995" style="stroke:#000000; stroke-width:1.6; stroke-opacity:1"/>
<line clip-path="url(#clip1402)" x1="957.133" y1="574.995" x2="957.133" y2="542.995" style="stroke:#000000; stroke-width:1.6; stroke-opacity:1"/>
<line clip-path="url(#clip1402)" x1="1004.26" y1="574.995" x2="1004.26" y2="542.995" style="stroke:#000000; stroke-width:1.6; stroke-opacity:1"/>
<line clip-path="url(#clip1402)" x1="1048.01" y1="574.995" x2="1048.01" y2="542.995" style="stroke:#000000; stroke-width:1.6; stroke-opacity:1"/>
<line clip-path="url(#clip1402)" x1="1096.82" y1="574.995" x2="1096.82" y2="542.995" style="stroke:#000000; stroke-width:1.6; stroke-opacity:1"/>
<line clip-path="url(#clip1402)" x1="1113.65" y1="574.995" x2="1113.65" y2="542.995" style="stroke:#000000; stroke-width:1.6; stroke-opacity:1"/>
<line clip-path="url(#clip1402)" x1="1138.9" y1="574.995" x2="1138.9" y2="542.995" style="stroke:#000000; stroke-width:1.6; stroke-opacity:1"/>
<line clip-path="url(#clip1402)" x1="1154.04" y1="574.995" x2="1154.04" y2="542.995" style="stroke:#000000; stroke-width:1.6; stroke-opacity:1"/>
<line clip-path="url(#clip1402)" x1="1229.78" y1="574.995" x2="1229.78" y2="542.995" style="stroke:#000000; stroke-width:1.6; stroke-opacity:1"/>
<line clip-path="url(#clip1402)" x1="1248.29" y1="574.995" x2="1248.29" y2="542.995" style="stroke:#000000; stroke-width:1.6; stroke-opacity:1"/>
<line clip-path="url(#clip1402)" x1="1330.76" y1="574.995" x2="1330.76" y2="542.995" style="stroke:#000000; stroke-width:1.6; stroke-opacity:1"/>
<line clip-path="url(#clip1402)" x1="1374.51" y1="574.995" x2="1374.51" y2="542.995" style="stroke:#000000; stroke-width:1.6; stroke-opacity:1"/>
<line clip-path="url(#clip1402)" x1="1398.08" y1="574.995" x2="1398.08" y2="542.995" style="stroke:#000000; stroke-width:1.6; stroke-opacity:1"/>
<line clip-path="url(#clip1402)" x1="1465.4" y1="574.995" x2="1465.4" y2="542.995" style="stroke:#000000; stroke-width:1.6; stroke-opacity:1"/>
<line clip-path="url(#clip1402)" x1="1600.03" y1="574.995" x2="1600.03" y2="542.995" style="stroke:#000000; stroke-width:1.6; stroke-opacity:1"/>
<line clip-path="url(#clip1402)" x1="1790.21" y1="574.995" x2="1790.21" y2="542.995" style="stroke:#000000; stroke-width:1.6; stroke-opacity:1"/>
<line clip-path="url(#clip1402)" x1="1835.65" y1="574.995" x2="1835.65" y2="542.995" style="stroke:#000000; stroke-width:1.6; stroke-opacity:1"/>
<line clip-path="url(#clip1402)" x1="1887.83" y1="574.995" x2="1887.83" y2="542.995" style="stroke:#000000; stroke-width:1.6; stroke-opacity:1"/>
<line clip-path="url(#clip1402)" x1="342.841" y1="513.114" x2="342.841" y2="481.114" style="stroke:#000000; stroke-width:1.6; stroke-opacity:1"/>
<line clip-path="url(#clip1402)" x1="371.452" y1="513.114" x2="371.452" y2="481.114" style="stroke:#000000; stroke-width:1.6; stroke-opacity:1"/>
<line clip-path="url(#clip1402)" x1="465.7" y1="513.114" x2="465.7" y2="481.114" style="stroke:#000000; stroke-width:1.6; stroke-opacity:1"/>
<line clip-path="url(#clip1402)" x1="479.164" y1="513.114" x2="479.164" y2="481.114" style="stroke:#000000; stroke-width:1.6; stroke-opacity:1"/>
<line clip-path="url(#clip1402)" x1="549.849" y1="513.114" x2="549.849" y2="481.114" style="stroke:#000000; stroke-width:1.6; stroke-opacity:1"/>
<line clip-path="url(#clip1402)" x1="559.947" y1="513.114" x2="559.947" y2="481.114" style="stroke:#000000; stroke-width:1.6; stroke-opacity:1"/>
<line clip-path="url(#clip1402)" x1="588.558" y1="513.114" x2="588.558" y2="481.114" style="stroke:#000000; stroke-width:1.6; stroke-opacity:1"/>
<line clip-path="url(#clip1402)" x1="623.901" y1="513.114" x2="623.901" y2="481.114" style="stroke:#000000; stroke-width:1.6; stroke-opacity:1"/>
<line clip-path="url(#clip1402)" x1="805.664" y1="513.114" x2="805.664" y2="481.114" style="stroke:#000000; stroke-width:1.6; stroke-opacity:1"/>
<line clip-path="url(#clip1402)" x1="931.888" y1="513.114" x2="931.888" y2="481.114" style="stroke:#000000; stroke-width:1.6; stroke-opacity:1"/>
<line clip-path="url(#clip1402)" x1="967.231" y1="513.114" x2="967.231" y2="481.114" style="stroke:#000000; stroke-width:1.6; stroke-opacity:1"/>
<line clip-path="url(#clip1402)" x1="1019.4" y1="513.114" x2="1019.4" y2="481.114" style="stroke:#000000; stroke-width:1.6; stroke-opacity:1"/>
<line clip-path="url(#clip1402)" x1="1053.06" y1="513.114" x2="1053.06" y2="481.114" style="stroke:#000000; stroke-width:1.6; stroke-opacity:1"/>
<line clip-path="url(#clip1402)" x1="1170.87" y1="513.114" x2="1170.87" y2="481.114" style="stroke:#000000; stroke-width:1.6; stroke-opacity:1"/>
<line clip-path="url(#clip1402)" x1="1206.22" y1="513.114" x2="1206.22" y2="481.114" style="stroke:#000000; stroke-width:1.6; stroke-opacity:1"/>
<line clip-path="url(#clip1402)" x1="1218" y1="513.114" x2="1218" y2="481.114" style="stroke:#000000; stroke-width:1.6; stroke-opacity:1"/>
<line clip-path="url(#clip1402)" x1="1251.66" y1="513.114" x2="1251.66" y2="481.114" style="stroke:#000000; stroke-width:1.6; stroke-opacity:1"/>
<line clip-path="url(#clip1402)" x1="1287" y1="513.114" x2="1287" y2="481.114" style="stroke:#000000; stroke-width:1.6; stroke-opacity:1"/>
<line clip-path="url(#clip1402)" x1="1318.98" y1="513.114" x2="1318.98" y2="481.114" style="stroke:#000000; stroke-width:1.6; stroke-opacity:1"/>
<line clip-path="url(#clip1402)" x1="1347.59" y1="513.114" x2="1347.59" y2="481.114" style="stroke:#000000; stroke-width:1.6; stroke-opacity:1"/>
<line clip-path="url(#clip1402)" x1="1359.37" y1="513.114" x2="1359.37" y2="481.114" style="stroke:#000000; stroke-width:1.6; stroke-opacity:1"/>
<line clip-path="url(#clip1402)" x1="1381.25" y1="513.114" x2="1381.25" y2="481.114" style="stroke:#000000; stroke-width:1.6; stroke-opacity:1"/>
<line clip-path="url(#clip1402)" x1="1398.08" y1="513.114" x2="1398.08" y2="481.114" style="stroke:#000000; stroke-width:1.6; stroke-opacity:1"/>
<line clip-path="url(#clip1402)" x1="1473.81" y1="513.114" x2="1473.81" y2="481.114" style="stroke:#000000; stroke-width:1.6; stroke-opacity:1"/>
<line clip-path="url(#clip1402)" x1="1613.5" y1="513.114" x2="1613.5" y2="481.114" style="stroke:#000000; stroke-width:1.6; stroke-opacity:1"/>
<line clip-path="url(#clip1402)" x1="1692.6" y1="513.114" x2="1692.6" y2="481.114" style="stroke:#000000; stroke-width:1.6; stroke-opacity:1"/>
<line clip-path="url(#clip1402)" x1="1840.7" y1="513.114" x2="1840.7" y2="481.114" style="stroke:#000000; stroke-width:1.6; stroke-opacity:1"/>
<line clip-path="url(#clip1402)" x1="1876.05" y1="513.114" x2="1876.05" y2="481.114" style="stroke:#000000; stroke-width:1.6; stroke-opacity:1"/>
<line clip-path="url(#clip1402)" x1="305.816" y1="451.234" x2="305.816" y2="419.234" style="stroke:#000000; stroke-width:1.6; stroke-opacity:1"/>
<line clip-path="url(#clip1402)" x1="405.112" y1="451.234" x2="405.112" y2="419.234" style="stroke:#000000; stroke-width:1.6; stroke-opacity:1"/>
<line clip-path="url(#clip1402)" x1="465.7" y1="451.234" x2="465.7" y2="419.234" style="stroke:#000000; stroke-width:1.6; stroke-opacity:1"/>
<line clip-path="url(#clip1402)" x1="509.457" y1="451.234" x2="509.457" y2="419.234" style="stroke:#000000; stroke-width:1.6; stroke-opacity:1"/>
<line clip-path="url(#clip1402)" x1="539.751" y1="451.234" x2="539.751" y2="419.234" style="stroke:#000000; stroke-width:1.6; stroke-opacity:1"/>
<line clip-path="url(#clip1402)" x1="652.512" y1="451.234" x2="652.512" y2="419.234" style="stroke:#000000; stroke-width:1.6; stroke-opacity:1"/>
<line clip-path="url(#clip1402)" x1="709.733" y1="451.234" x2="709.733" y2="419.234" style="stroke:#000000; stroke-width:1.6; stroke-opacity:1"/>
<line clip-path="url(#clip1402)" x1="728.246" y1="451.234" x2="728.246" y2="419.234" style="stroke:#000000; stroke-width:1.6; stroke-opacity:1"/>
<line clip-path="url(#clip1402)" x1="775.37" y1="451.234" x2="775.37" y2="419.234" style="stroke:#000000; stroke-width:1.6; stroke-opacity:1"/>
<line clip-path="url(#clip1402)" x1="827.542" y1="451.234" x2="827.542" y2="419.234" style="stroke:#000000; stroke-width:1.6; stroke-opacity:1"/>
<line clip-path="url(#clip1402)" x1="898.228" y1="451.234" x2="898.228" y2="419.234" style="stroke:#000000; stroke-width:1.6; stroke-opacity:1"/>
<line clip-path="url(#clip1402)" x1="1074.94" y1="451.234" x2="1074.94" y2="419.234" style="stroke:#000000; stroke-width:1.6; stroke-opacity:1"/>
<line clip-path="url(#clip1402)" x1="1098.5" y1="451.234" x2="1098.5" y2="419.234" style="stroke:#000000; stroke-width:1.6; stroke-opacity:1"/>
<line clip-path="url(#clip1402)" x1="1201.17" y1="451.234" x2="1201.17" y2="419.234" style="stroke:#000000; stroke-width:1.6; stroke-opacity:1"/>
<line clip-path="url(#clip1402)" x1="1467.08" y1="451.234" x2="1467.08" y2="419.234" style="stroke:#000000; stroke-width:1.6; stroke-opacity:1"/>
<line clip-path="url(#clip1402)" x1="1483.91" y1="451.234" x2="1483.91" y2="419.234" style="stroke:#000000; stroke-width:1.6; stroke-opacity:1"/>
<line clip-path="url(#clip1402)" x1="1589.94" y1="451.234" x2="1589.94" y2="419.234" style="stroke:#000000; stroke-width:1.6; stroke-opacity:1"/>
<line clip-path="url(#clip1402)" x1="1606.77" y1="451.234" x2="1606.77" y2="419.234" style="stroke:#000000; stroke-width:1.6; stroke-opacity:1"/>
<line clip-path="url(#clip1402)" x1="1687.55" y1="451.234" x2="1687.55" y2="419.234" style="stroke:#000000; stroke-width:1.6; stroke-opacity:1"/>
<line clip-path="url(#clip1402)" x1="1699.33" y1="451.234" x2="1699.33" y2="419.234" style="stroke:#000000; stroke-width:1.6; stroke-opacity:1"/>
<line clip-path="url(#clip1402)" x1="1741.41" y1="451.234" x2="1741.41" y2="419.234" style="stroke:#000000; stroke-width:1.6; stroke-opacity:1"/>
<line clip-path="url(#clip1402)" x1="1805.36" y1="451.234" x2="1805.36" y2="419.234" style="stroke:#000000; stroke-width:1.6; stroke-opacity:1"/>
<line clip-path="url(#clip1402)" x1="1827.24" y1="451.234" x2="1827.24" y2="419.234" style="stroke:#000000; stroke-width:1.6; stroke-opacity:1"/>
<line clip-path="url(#clip1402)" x1="1864.26" y1="451.234" x2="1864.26" y2="419.234" style="stroke:#000000; stroke-width:1.6; stroke-opacity:1"/>
<line clip-path="url(#clip1402)" x1="307.499" y1="389.354" x2="307.499" y2="357.354" style="stroke:#000000; stroke-width:1.6; stroke-opacity:1"/>
<line clip-path="url(#clip1402)" x1="319.279" y1="389.354" x2="319.279" y2="357.354" style="stroke:#000000; stroke-width:1.6; stroke-opacity:1"/>
<line clip-path="url(#clip1402)" x1="356.305" y1="389.354" x2="356.305" y2="357.354" style="stroke:#000000; stroke-width:1.6; stroke-opacity:1"/>
<line clip-path="url(#clip1402)" x1="371.452" y1="389.354" x2="371.452" y2="357.354" style="stroke:#000000; stroke-width:1.6; stroke-opacity:1"/>
<line clip-path="url(#clip1402)" x1="411.844" y1="389.354" x2="411.844" y2="357.354" style="stroke:#000000; stroke-width:1.6; stroke-opacity:1"/>
<line clip-path="url(#clip1402)" x1="495.993" y1="389.354" x2="495.993" y2="357.354" style="stroke:#000000; stroke-width:1.6; stroke-opacity:1"/>
<line clip-path="url(#clip1402)" x1="519.555" y1="389.354" x2="519.555" y2="357.354" style="stroke:#000000; stroke-width:1.6; stroke-opacity:1"/>
<line clip-path="url(#clip1402)" x1="551.532" y1="389.354" x2="551.532" y2="357.354" style="stroke:#000000; stroke-width:1.6; stroke-opacity:1"/>
<line clip-path="url(#clip1402)" x1="633.999" y1="389.354" x2="633.999" y2="357.354" style="stroke:#000000; stroke-width:1.6; stroke-opacity:1"/>
<line clip-path="url(#clip1402)" x1="655.877" y1="389.354" x2="655.877" y2="357.354" style="stroke:#000000; stroke-width:1.6; stroke-opacity:1"/>
<line clip-path="url(#clip1402)" x1="677.756" y1="389.354" x2="677.756" y2="357.354" style="stroke:#000000; stroke-width:1.6; stroke-opacity:1"/>
<line clip-path="url(#clip1402)" x1="701.318" y1="389.354" x2="701.318" y2="357.354" style="stroke:#000000; stroke-width:1.6; stroke-opacity:1"/>
<line clip-path="url(#clip1402)" x1="714.782" y1="389.354" x2="714.782" y2="357.354" style="stroke:#000000; stroke-width:1.6; stroke-opacity:1"/>
<line clip-path="url(#clip1402)" x1="751.808" y1="389.354" x2="751.808" y2="357.354" style="stroke:#000000; stroke-width:1.6; stroke-opacity:1"/>
<line clip-path="url(#clip1402)" x1="817.445" y1="389.354" x2="817.445" y2="357.354" style="stroke:#000000; stroke-width:1.6; stroke-opacity:1"/>
<line clip-path="url(#clip1402)" x1="881.398" y1="389.354" x2="881.398" y2="357.354" style="stroke:#000000; stroke-width:1.6; stroke-opacity:1"/>
<line clip-path="url(#clip1402)" x1="977.329" y1="389.354" x2="977.329" y2="357.354" style="stroke:#000000; stroke-width:1.6; stroke-opacity:1"/>
<line clip-path="url(#clip1402)" x1="1265.12" y1="389.354" x2="1265.12" y2="357.354" style="stroke:#000000; stroke-width:1.6; stroke-opacity:1"/>
<line clip-path="url(#clip1402)" x1="1312.24" y1="389.354" x2="1312.24" y2="357.354" style="stroke:#000000; stroke-width:1.6; stroke-opacity:1"/>
<line clip-path="url(#clip1402)" x1="1391.34" y1="389.354" x2="1391.34" y2="357.354" style="stroke:#000000; stroke-width:1.6; stroke-opacity:1"/>
<line clip-path="url(#clip1402)" x1="1409.86" y1="389.354" x2="1409.86" y2="357.354" style="stroke:#000000; stroke-width:1.6; stroke-opacity:1"/>
<line clip-path="url(#clip1402)" x1="1428.37" y1="389.354" x2="1428.37" y2="357.354" style="stroke:#000000; stroke-width:1.6; stroke-opacity:1"/>
<line clip-path="url(#clip1402)" x1="1462.03" y1="389.354" x2="1462.03" y2="357.354" style="stroke:#000000; stroke-width:1.6; stroke-opacity:1"/>
<line clip-path="url(#clip1402)" x1="1505.79" y1="389.354" x2="1505.79" y2="357.354" style="stroke:#000000; stroke-width:1.6; stroke-opacity:1"/>
<line clip-path="url(#clip1402)" x1="1613.5" y1="389.354" x2="1613.5" y2="357.354" style="stroke:#000000; stroke-width:1.6; stroke-opacity:1"/>
<line clip-path="url(#clip1402)" x1="1628.65" y1="389.354" x2="1628.65" y2="357.354" style="stroke:#000000; stroke-width:1.6; stroke-opacity:1"/>
<line clip-path="url(#clip1402)" x1="1692.6" y1="389.354" x2="1692.6" y2="357.354" style="stroke:#000000; stroke-width:1.6; stroke-opacity:1"/>
<line clip-path="url(#clip1402)" x1="1864.26" y1="389.354" x2="1864.26" y2="357.354" style="stroke:#000000; stroke-width:1.6; stroke-opacity:1"/>
<line clip-path="url(#clip1402)" x1="1902.97" y1="389.354" x2="1902.97" y2="357.354" style="stroke:#000000; stroke-width:1.6; stroke-opacity:1"/>
<line clip-path="url(#clip1402)" x1="253.643" y1="327.473" x2="253.643" y2="295.473" style="stroke:#000000; stroke-width:1.6; stroke-opacity:1"/>
<line clip-path="url(#clip1402)" x1="329.377" y1="327.473" x2="329.377" y2="295.473" style="stroke:#000000; stroke-width:1.6; stroke-opacity:1"/>
<line clip-path="url(#clip1402)" x1="507.774" y1="327.473" x2="507.774" y2="295.473" style="stroke:#000000; stroke-width:1.6; stroke-opacity:1"/>
<line clip-path="url(#clip1402)" x1="522.921" y1="327.473" x2="522.921" y2="295.473" style="stroke:#000000; stroke-width:1.6; stroke-opacity:1"/>
<line clip-path="url(#clip1402)" x1="549.849" y1="327.473" x2="549.849" y2="295.473" style="stroke:#000000; stroke-width:1.6; stroke-opacity:1"/>
<line clip-path="url(#clip1402)" x1="573.411" y1="327.473" x2="573.411" y2="295.473" style="stroke:#000000; stroke-width:1.6; stroke-opacity:1"/>
<line clip-path="url(#clip1402)" x1="640.731" y1="327.473" x2="640.731" y2="295.473" style="stroke:#000000; stroke-width:1.6; stroke-opacity:1"/>
<line clip-path="url(#clip1402)" x1="676.073" y1="327.473" x2="676.073" y2="295.473" style="stroke:#000000; stroke-width:1.6; stroke-opacity:1"/>
<line clip-path="url(#clip1402)" x1="723.197" y1="327.473" x2="723.197" y2="295.473" style="stroke:#000000; stroke-width:1.6; stroke-opacity:1"/>
<line clip-path="url(#clip1402)" x1="745.076" y1="327.473" x2="745.076" y2="295.473" style="stroke:#000000; stroke-width:1.6; stroke-opacity:1"/>
<line clip-path="url(#clip1402)" x1="819.128" y1="327.473" x2="819.128" y2="295.473" style="stroke:#000000; stroke-width:1.6; stroke-opacity:1"/>
<line clip-path="url(#clip1402)" x1="926.839" y1="327.473" x2="926.839" y2="295.473" style="stroke:#000000; stroke-width:1.6; stroke-opacity:1"/>
<line clip-path="url(#clip1402)" x1="943.669" y1="327.473" x2="943.669" y2="295.473" style="stroke:#000000; stroke-width:1.6; stroke-opacity:1"/>
<line clip-path="url(#clip1402)" x1="1002.57" y1="327.473" x2="1002.57" y2="295.473" style="stroke:#000000; stroke-width:1.6; stroke-opacity:1"/>
<line clip-path="url(#clip1402)" x1="1051.38" y1="327.473" x2="1051.38" y2="295.473" style="stroke:#000000; stroke-width:1.6; stroke-opacity:1"/>
<line clip-path="url(#clip1402)" x1="1103.55" y1="327.473" x2="1103.55" y2="295.473" style="stroke:#000000; stroke-width:1.6; stroke-opacity:1"/>
<line clip-path="url(#clip1402)" x1="1135.53" y1="327.473" x2="1135.53" y2="295.473" style="stroke:#000000; stroke-width:1.6; stroke-opacity:1"/>
<line clip-path="url(#clip1402)" x1="1239.88" y1="327.473" x2="1239.88" y2="295.473" style="stroke:#000000; stroke-width:1.6; stroke-opacity:1"/>
<line clip-path="url(#clip1402)" x1="1366.1" y1="327.473" x2="1366.1" y2="295.473" style="stroke:#000000; stroke-width:1.6; stroke-opacity:1"/>
<line clip-path="url(#clip1402)" x1="1497.37" y1="327.473" x2="1497.37" y2="295.473" style="stroke:#000000; stroke-width:1.6; stroke-opacity:1"/>
<line clip-path="url(#clip1402)" x1="1537.76" y1="327.473" x2="1537.76" y2="295.473" style="stroke:#000000; stroke-width:1.6; stroke-opacity:1"/>
<line clip-path="url(#clip1402)" x1="1566.38" y1="327.473" x2="1566.38" y2="295.473" style="stroke:#000000; stroke-width:1.6; stroke-opacity:1"/>
<line clip-path="url(#clip1402)" x1="1586.57" y1="327.473" x2="1586.57" y2="295.473" style="stroke:#000000; stroke-width:1.6; stroke-opacity:1"/>
<line clip-path="url(#clip1402)" x1="1655.57" y1="327.473" x2="1655.57" y2="295.473" style="stroke:#000000; stroke-width:1.6; stroke-opacity:1"/>
<line clip-path="url(#clip1402)" x1="1729.63" y1="327.473" x2="1729.63" y2="295.473" style="stroke:#000000; stroke-width:1.6; stroke-opacity:1"/>
<line clip-path="url(#clip1402)" x1="1798.63" y1="327.473" x2="1798.63" y2="295.473" style="stroke:#000000; stroke-width:1.6; stroke-opacity:1"/>
<line clip-path="url(#clip1402)" x1="1835.65" y1="327.473" x2="1835.65" y2="295.473" style="stroke:#000000; stroke-width:1.6; stroke-opacity:1"/>
<line clip-path="url(#clip1402)" x1="1882.78" y1="327.473" x2="1882.78" y2="295.473" style="stroke:#000000; stroke-width:1.6; stroke-opacity:1"/>
<line clip-path="url(#clip1402)" x1="455.602" y1="265.593" x2="455.602" y2="233.593" style="stroke:#000000; stroke-width:1.6; stroke-opacity:1"/>
<line clip-path="url(#clip1402)" x1="549.849" y1="265.593" x2="549.849" y2="233.593" style="stroke:#000000; stroke-width:1.6; stroke-opacity:1"/>
<line clip-path="url(#clip1402)" x1="578.46" y1="265.593" x2="578.46" y2="233.593" style="stroke:#000000; stroke-width:1.6; stroke-opacity:1"/>
<line clip-path="url(#clip1402)" x1="660.926" y1="265.593" x2="660.926" y2="233.593" style="stroke:#000000; stroke-width:1.6; stroke-opacity:1"/>
<line clip-path="url(#clip1402)" x1="743.393" y1="265.593" x2="743.393" y2="233.593" style="stroke:#000000; stroke-width:1.6; stroke-opacity:1"/>
<line clip-path="url(#clip1402)" x1="773.687" y1="265.593" x2="773.687" y2="233.593" style="stroke:#000000; stroke-width:1.6; stroke-opacity:1"/>
<line clip-path="url(#clip1402)" x1="830.908" y1="265.593" x2="830.908" y2="233.593" style="stroke:#000000; stroke-width:1.6; stroke-opacity:1"/>
<line clip-path="url(#clip1402)" x1="883.081" y1="265.593" x2="883.081" y2="233.593" style="stroke:#000000; stroke-width:1.6; stroke-opacity:1"/>
<line clip-path="url(#clip1402)" x1="943.669" y1="265.593" x2="943.669" y2="233.593" style="stroke:#000000; stroke-width:1.6; stroke-opacity:1"/>
<line clip-path="url(#clip1402)" x1="1010.99" y1="265.593" x2="1010.99" y2="233.593" style="stroke:#000000; stroke-width:1.6; stroke-opacity:1"/>
<line clip-path="url(#clip1402)" x1="1037.92" y1="265.593" x2="1037.92" y2="233.593" style="stroke:#000000; stroke-width:1.6; stroke-opacity:1"/>
<line clip-path="url(#clip1402)" x1="1051.38" y1="265.593" x2="1051.38" y2="233.593" style="stroke:#000000; stroke-width:1.6; stroke-opacity:1"/>
<line clip-path="url(#clip1402)" x1="1103.55" y1="265.593" x2="1103.55" y2="233.593" style="stroke:#000000; stroke-width:1.6; stroke-opacity:1"/>
<line clip-path="url(#clip1402)" x1="1117.02" y1="265.593" x2="1117.02" y2="233.593" style="stroke:#000000; stroke-width:1.6; stroke-opacity:1"/>
<line clip-path="url(#clip1402)" x1="1199.48" y1="265.593" x2="1199.48" y2="233.593" style="stroke:#000000; stroke-width:1.6; stroke-opacity:1"/>
<line clip-path="url(#clip1402)" x1="1226.41" y1="265.593" x2="1226.41" y2="233.593" style="stroke:#000000; stroke-width:1.6; stroke-opacity:1"/>
<line clip-path="url(#clip1402)" x1="1236.51" y1="265.593" x2="1236.51" y2="233.593" style="stroke:#000000; stroke-width:1.6; stroke-opacity:1"/>
<line clip-path="url(#clip1402)" x1="1258.39" y1="265.593" x2="1258.39" y2="233.593" style="stroke:#000000; stroke-width:1.6; stroke-opacity:1"/>
<line clip-path="url(#clip1402)" x1="1293.73" y1="265.593" x2="1293.73" y2="233.593" style="stroke:#000000; stroke-width:1.6; stroke-opacity:1"/>
<line clip-path="url(#clip1402)" x1="1366.1" y1="265.593" x2="1366.1" y2="233.593" style="stroke:#000000; stroke-width:1.6; stroke-opacity:1"/>
<line clip-path="url(#clip1402)" x1="1576.47" y1="265.593" x2="1576.47" y2="233.593" style="stroke:#000000; stroke-width:1.6; stroke-opacity:1"/>
<line clip-path="url(#clip1402)" x1="1620.23" y1="265.593" x2="1620.23" y2="233.593" style="stroke:#000000; stroke-width:1.6; stroke-opacity:1"/>
<line clip-path="url(#clip1402)" x1="1662.31" y1="265.593" x2="1662.31" y2="233.593" style="stroke:#000000; stroke-width:1.6; stroke-opacity:1"/>
<line clip-path="url(#clip1402)" x1="1827.24" y1="265.593" x2="1827.24" y2="233.593" style="stroke:#000000; stroke-width:1.6; stroke-opacity:1"/>
<line clip-path="url(#clip1402)" x1="243.545" y1="203.713" x2="243.545" y2="171.713" style="stroke:#000000; stroke-width:1.6; stroke-opacity:1"/>
<line clip-path="url(#clip1402)" x1="300.767" y1="203.713" x2="300.767" y2="171.713" style="stroke:#000000; stroke-width:1.6; stroke-opacity:1"/>
<line clip-path="url(#clip1402)" x1="327.694" y1="203.713" x2="327.694" y2="171.713" style="stroke:#000000; stroke-width:1.6; stroke-opacity:1"/>
<line clip-path="url(#clip1402)" x1="485.896" y1="203.713" x2="485.896" y2="171.713" style="stroke:#000000; stroke-width:1.6; stroke-opacity:1"/>
<line clip-path="url(#clip1402)" x1="775.37" y1="203.713" x2="775.37" y2="171.713" style="stroke:#000000; stroke-width:1.6; stroke-opacity:1"/>
<line clip-path="url(#clip1402)" x1="888.13" y1="203.713" x2="888.13" y2="171.713" style="stroke:#000000; stroke-width:1.6; stroke-opacity:1"/>
<line clip-path="url(#clip1402)" x1="958.816" y1="203.713" x2="958.816" y2="171.713" style="stroke:#000000; stroke-width:1.6; stroke-opacity:1"/>
<line clip-path="url(#clip1402)" x1="985.744" y1="203.713" x2="985.744" y2="171.713" style="stroke:#000000; stroke-width:1.6; stroke-opacity:1"/>
<line clip-path="url(#clip1402)" x1="1000.89" y1="203.713" x2="1000.89" y2="171.713" style="stroke:#000000; stroke-width:1.6; stroke-opacity:1"/>
<line clip-path="url(#clip1402)" x1="1074.94" y1="203.713" x2="1074.94" y2="171.713" style="stroke:#000000; stroke-width:1.6; stroke-opacity:1"/>
<line clip-path="url(#clip1402)" x1="1118.7" y1="203.713" x2="1118.7" y2="171.713" style="stroke:#000000; stroke-width:1.6; stroke-opacity:1"/>
<line clip-path="url(#clip1402)" x1="1150.68" y1="203.713" x2="1150.68" y2="171.713" style="stroke:#000000; stroke-width:1.6; stroke-opacity:1"/>
<line clip-path="url(#clip1402)" x1="1303.83" y1="203.713" x2="1303.83" y2="171.713" style="stroke:#000000; stroke-width:1.6; stroke-opacity:1"/>
<line clip-path="url(#clip1402)" x1="1320.66" y1="203.713" x2="1320.66" y2="171.713" style="stroke:#000000; stroke-width:1.6; stroke-opacity:1"/>
<line clip-path="url(#clip1402)" x1="1371.15" y1="203.713" x2="1371.15" y2="171.713" style="stroke:#000000; stroke-width:1.6; stroke-opacity:1"/>
<line clip-path="url(#clip1402)" x1="1414.91" y1="203.713" x2="1414.91" y2="171.713" style="stroke:#000000; stroke-width:1.6; stroke-opacity:1"/>
<line clip-path="url(#clip1402)" x1="1455.3" y1="203.713" x2="1455.3" y2="171.713" style="stroke:#000000; stroke-width:1.6; stroke-opacity:1"/>
<line clip-path="url(#clip1402)" x1="1490.64" y1="203.713" x2="1490.64" y2="171.713" style="stroke:#000000; stroke-width:1.6; stroke-opacity:1"/>
<line clip-path="url(#clip1402)" x1="1539.45" y1="203.713" x2="1539.45" y2="171.713" style="stroke:#000000; stroke-width:1.6; stroke-opacity:1"/>
<line clip-path="url(#clip1402)" x1="1576.47" y1="203.713" x2="1576.47" y2="171.713" style="stroke:#000000; stroke-width:1.6; stroke-opacity:1"/>
<line clip-path="url(#clip1402)" x1="1606.77" y1="203.713" x2="1606.77" y2="171.713" style="stroke:#000000; stroke-width:1.6; stroke-opacity:1"/>
<line clip-path="url(#clip1402)" x1="1633.69" y1="203.713" x2="1633.69" y2="171.713" style="stroke:#000000; stroke-width:1.6; stroke-opacity:1"/>
<line clip-path="url(#clip1402)" x1="1719.53" y1="203.713" x2="1719.53" y2="171.713" style="stroke:#000000; stroke-width:1.6; stroke-opacity:1"/>
<line clip-path="url(#clip1402)" x1="1761.6" y1="203.713" x2="1761.6" y2="171.713" style="stroke:#000000; stroke-width:1.6; stroke-opacity:1"/>
<line clip-path="url(#clip1402)" x1="1820.51" y1="203.713" x2="1820.51" y2="171.713" style="stroke:#000000; stroke-width:1.6; stroke-opacity:1"/>
<line clip-path="url(#clip1402)" x1="1874.36" y1="203.713" x2="1874.36" y2="171.713" style="stroke:#000000; stroke-width:1.6; stroke-opacity:1"/>
<line clip-path="url(#clip1402)" x1="1886.14" y1="203.713" x2="1886.14" y2="171.713" style="stroke:#000000; stroke-width:1.6; stroke-opacity:1"/>
<line clip-path="url(#clip1402)" x1="320.962" y1="141.832" x2="320.962" y2="109.832" style="stroke:#000000; stroke-width:1.6; stroke-opacity:1"/>
<line clip-path="url(#clip1402)" x1="361.354" y1="141.832" x2="361.354" y2="109.832" style="stroke:#000000; stroke-width:1.6; stroke-opacity:1"/>
<line clip-path="url(#clip1402)" x1="435.406" y1="141.832" x2="435.406" y2="109.832" style="stroke:#000000; stroke-width:1.6; stroke-opacity:1"/>
<line clip-path="url(#clip1402)" x1="519.555" y1="141.832" x2="519.555" y2="109.832" style="stroke:#000000; stroke-width:1.6; stroke-opacity:1"/>
<line clip-path="url(#clip1402)" x1="558.264" y1="141.832" x2="558.264" y2="109.832" style="stroke:#000000; stroke-width:1.6; stroke-opacity:1"/>
<line clip-path="url(#clip1402)" x1="679.439" y1="141.832" x2="679.439" y2="109.832" style="stroke:#000000; stroke-width:1.6; stroke-opacity:1"/>
<line clip-path="url(#clip1402)" x1="758.54" y1="141.832" x2="758.54" y2="109.832" style="stroke:#000000; stroke-width:1.6; stroke-opacity:1"/>
<line clip-path="url(#clip1402)" x1="788.834" y1="141.832" x2="788.834" y2="109.832" style="stroke:#000000; stroke-width:1.6; stroke-opacity:1"/>
<line clip-path="url(#clip1402)" x1="879.715" y1="141.832" x2="879.715" y2="109.832" style="stroke:#000000; stroke-width:1.6; stroke-opacity:1"/>
<line clip-path="url(#clip1402)" x1="904.96" y1="141.832" x2="904.96" y2="109.832" style="stroke:#000000; stroke-width:1.6; stroke-opacity:1"/>
<line clip-path="url(#clip1402)" x1="920.107" y1="141.832" x2="920.107" y2="109.832" style="stroke:#000000; stroke-width:1.6; stroke-opacity:1"/>
<line clip-path="url(#clip1402)" x1="1005.94" y1="141.832" x2="1005.94" y2="109.832" style="stroke:#000000; stroke-width:1.6; stroke-opacity:1"/>
<line clip-path="url(#clip1402)" x1="1069.89" y1="141.832" x2="1069.89" y2="109.832" style="stroke:#000000; stroke-width:1.6; stroke-opacity:1"/>
<line clip-path="url(#clip1402)" x1="1090.09" y1="141.832" x2="1090.09" y2="109.832" style="stroke:#000000; stroke-width:1.6; stroke-opacity:1"/>
<line clip-path="url(#clip1402)" x1="1157.41" y1="141.832" x2="1157.41" y2="109.832" style="stroke:#000000; stroke-width:1.6; stroke-opacity:1"/>
<line clip-path="url(#clip1402)" x1="1177.6" y1="141.832" x2="1177.6" y2="109.832" style="stroke:#000000; stroke-width:1.6; stroke-opacity:1"/>
<line clip-path="url(#clip1402)" x1="1251.66" y1="141.832" x2="1251.66" y2="109.832" style="stroke:#000000; stroke-width:1.6; stroke-opacity:1"/>
<line clip-path="url(#clip1402)" x1="1364.42" y1="141.832" x2="1364.42" y2="109.832" style="stroke:#000000; stroke-width:1.6; stroke-opacity:1"/>
<line clip-path="url(#clip1402)" x1="1398.08" y1="141.832" x2="1398.08" y2="109.832" style="stroke:#000000; stroke-width:1.6; stroke-opacity:1"/>
<line clip-path="url(#clip1402)" x1="1430.05" y1="141.832" x2="1430.05" y2="109.832" style="stroke:#000000; stroke-width:1.6; stroke-opacity:1"/>
<line clip-path="url(#clip1402)" x1="1497.37" y1="141.832" x2="1497.37" y2="109.832" style="stroke:#000000; stroke-width:1.6; stroke-opacity:1"/>
<line clip-path="url(#clip1402)" x1="1525.98" y1="141.832" x2="1525.98" y2="109.832" style="stroke:#000000; stroke-width:1.6; stroke-opacity:1"/>
<line clip-path="url(#clip1402)" x1="1542.81" y1="141.832" x2="1542.81" y2="109.832" style="stroke:#000000; stroke-width:1.6; stroke-opacity:1"/>
<line clip-path="url(#clip1402)" x1="1591.62" y1="141.832" x2="1591.62" y2="109.832" style="stroke:#000000; stroke-width:1.6; stroke-opacity:1"/>
<line clip-path="url(#clip1402)" x1="1601.72" y1="141.832" x2="1601.72" y2="109.832" style="stroke:#000000; stroke-width:1.6; stroke-opacity:1"/>
<line clip-path="url(#clip1402)" x1="1669.04" y1="141.832" x2="1669.04" y2="109.832" style="stroke:#000000; stroke-width:1.6; stroke-opacity:1"/>
<line clip-path="url(#clip1402)" x1="1714.48" y1="141.832" x2="1714.48" y2="109.832" style="stroke:#000000; stroke-width:1.6; stroke-opacity:1"/>
<line clip-path="url(#clip1402)" x1="1828.92" y1="141.832" x2="1828.92" y2="109.832" style="stroke:#000000; stroke-width:1.6; stroke-opacity:1"/>
<line clip-path="url(#clip1402)" x1="300.767" y1="79.9518" x2="300.767" y2="47.9518" style="stroke:#000000; stroke-width:1.6; stroke-opacity:1"/>
<line clip-path="url(#clip1402)" x1="354.622" y1="79.9518" x2="354.622" y2="47.9518" style="stroke:#000000; stroke-width:1.6; stroke-opacity:1"/>
<line clip-path="url(#clip1402)" x1="388.282" y1="79.9518" x2="388.282" y2="47.9518" style="stroke:#000000; stroke-width:1.6; stroke-opacity:1"/>
<line clip-path="url(#clip1402)" x1="561.63" y1="79.9518" x2="561.63" y2="47.9518" style="stroke:#000000; stroke-width:1.6; stroke-opacity:1"/>
<line clip-path="url(#clip1402)" x1="627.267" y1="79.9518" x2="627.267" y2="47.9518" style="stroke:#000000; stroke-width:1.6; stroke-opacity:1"/>
<line clip-path="url(#clip1402)" x1="743.393" y1="79.9518" x2="743.393" y2="47.9518" style="stroke:#000000; stroke-width:1.6; stroke-opacity:1"/>
<line clip-path="url(#clip1402)" x1="795.566" y1="79.9518" x2="795.566" y2="47.9518" style="stroke:#000000; stroke-width:1.6; stroke-opacity:1"/>
<line clip-path="url(#clip1402)" x1="869.617" y1="79.9518" x2="869.617" y2="47.9518" style="stroke:#000000; stroke-width:1.6; stroke-opacity:1"/>
<line clip-path="url(#clip1402)" x1="903.277" y1="79.9518" x2="903.277" y2="47.9518" style="stroke:#000000; stroke-width:1.6; stroke-opacity:1"/>
<line clip-path="url(#clip1402)" x1="979.012" y1="79.9518" x2="979.012" y2="47.9518" style="stroke:#000000; stroke-width:1.6; stroke-opacity:1"/>
<line clip-path="url(#clip1402)" x1="1103.55" y1="79.9518" x2="1103.55" y2="47.9518" style="stroke:#000000; stroke-width:1.6; stroke-opacity:1"/>
<line clip-path="url(#clip1402)" x1="1216.31" y1="79.9518" x2="1216.31" y2="47.9518" style="stroke:#000000; stroke-width:1.6; stroke-opacity:1"/>
<line clip-path="url(#clip1402)" x1="1285.32" y1="79.9518" x2="1285.32" y2="47.9518" style="stroke:#000000; stroke-width:1.6; stroke-opacity:1"/>
<line clip-path="url(#clip1402)" x1="1317.29" y1="79.9518" x2="1317.29" y2="47.9518" style="stroke:#000000; stroke-width:1.6; stroke-opacity:1"/>
<line clip-path="url(#clip1402)" x1="1366.1" y1="79.9518" x2="1366.1" y2="47.9518" style="stroke:#000000; stroke-width:1.6; stroke-opacity:1"/>
<line clip-path="url(#clip1402)" x1="1483.91" y1="79.9518" x2="1483.91" y2="47.9518" style="stroke:#000000; stroke-width:1.6; stroke-opacity:1"/>
<line clip-path="url(#clip1402)" x1="1663.99" y1="79.9518" x2="1663.99" y2="47.9518" style="stroke:#000000; stroke-width:1.6; stroke-opacity:1"/>
<line clip-path="url(#clip1402)" x1="1746.45" y1="79.9518" x2="1746.45" y2="47.9518" style="stroke:#000000; stroke-width:1.6; stroke-opacity:1"/>
<line clip-path="url(#clip1402)" x1="1879.41" y1="79.9518" x2="1879.41" y2="47.9518" style="stroke:#000000; stroke-width:1.6; stroke-opacity:1"/>
</svg>
