<?xml version="1.0" encoding="utf-8"?>
<svg xmlns="http://www.w3.org/2000/svg" xmlns:xlink="http://www.w3.org/1999/xlink" width="500" height="300" viewBox="0 0 2000 1200">
<defs>
  <clipPath id="clip8300">
    <rect x="0" y="0" width="2000" height="1200"/>
  </clipPath>
</defs>
<path clip-path="url(#clip8300)" d="
M0 1200 L2000 1200 L2000 0 L0 0  Z
  " fill="#ffffff" fill-rule="evenodd" fill-opacity="1"/>
<defs>
  <clipPath id="clip8301">
    <rect x="400" y="0" width="1401" height="1200"/>
  </clipPath>
</defs>
<path clip-path="url(#clip8300)" d="
M179.93 487.182 L1952.76 487.182 L1952.76 47.2441 L179.93 47.2441  Z
  " fill="#ffffff" fill-rule="evenodd" fill-opacity="1"/>
<defs>
  <clipPath id="clip8302">
    <rect x="179" y="47" width="1774" height="441"/>
  </clipPath>
</defs>
<polyline clip-path="url(#clip8302)" style="stroke:#000000; stroke-width:2; stroke-opacity:0.1; fill:none" points="
  179.93,487.182 179.93,47.2441 
  "/>
<polyline clip-path="url(#clip8302)" style="stroke:#000000; stroke-width:2; stroke-opacity:0.1; fill:none" points="
  618.748,487.182 618.748,47.2441 
  "/>
<polyline clip-path="url(#clip8302)" style="stroke:#000000; stroke-width:2; stroke-opacity:0.1; fill:none" points="
  1057.57,487.182 1057.57,47.2441 
  "/>
<polyline clip-path="url(#clip8302)" style="stroke:#000000; stroke-width:2; stroke-opacity:0.1; fill:none" points="
  1496.38,487.182 1496.38,47.2441 
  "/>
<polyline clip-path="url(#clip8302)" style="stroke:#000000; stroke-width:2; stroke-opacity:0.1; fill:none" points="
  1935.2,487.182 1935.2,47.2441 
  "/>
<polyline clip-path="url(#clip8302)" style="stroke:#000000; stroke-width:2; stroke-opacity:0.1; fill:none" points="
  179.93,474.732 1952.76,474.732 
  "/>
<polyline clip-path="url(#clip8302)" style="stroke:#000000; stroke-width:2; stroke-opacity:0.1; fill:none" points="
  179.93,336.386 1952.76,336.386 
  "/>
<polyline clip-path="url(#clip8302)" style="stroke:#000000; stroke-width:2; stroke-opacity:0.1; fill:none" points="
  179.93,198.04 1952.76,198.04 
  "/>
<polyline clip-path="url(#clip8302)" style="stroke:#000000; stroke-width:2; stroke-opacity:0.1; fill:none" points="
  179.93,59.6949 1952.76,59.6949 
  "/>
<polyline clip-path="url(#clip8300)" style="stroke:#000000; stroke-width:4; stroke-opacity:1; fill:none" points="
  179.93,487.182 1952.76,487.182 
  "/>
<polyline clip-path="url(#clip8300)" style="stroke:#000000; stroke-width:4; stroke-opacity:1; fill:none" points="
  179.93,487.182 179.93,47.2441 
  "/>
<polyline clip-path="url(#clip8300)" style="stroke:#000000; stroke-width:4; stroke-opacity:1; fill:none" points="
  179.93,487.182 179.93,481.902 
  "/>
<polyline clip-path="url(#clip8300)" style="stroke:#000000; stroke-width:4; stroke-opacity:1; fill:none" points="
  618.748,487.182 618.748,481.902 
  "/>
<polyline clip-path="url(#clip8300)" style="stroke:#000000; stroke-width:4; stroke-opacity:1; fill:none" points="
  1057.57,487.182 1057.57,481.902 
  "/>
<polyline clip-path="url(#clip8300)" style="stroke:#000000; stroke-width:4; stroke-opacity:1; fill:none" points="
  1496.38,487.182 1496.38,481.902 
  "/>
<polyline clip-path="url(#clip8300)" style="stroke:#000000; stroke-width:4; stroke-opacity:1; fill:none" points="
  1935.2,487.182 1935.2,481.902 
  "/>
<polyline clip-path="url(#clip8300)" style="stroke:#000000; stroke-width:4; stroke-opacity:1; fill:none" points="
  179.93,474.732 201.204,474.732 
  "/>
<polyline clip-path="url(#clip8300)" style="stroke:#000000; stroke-width:4; stroke-opacity:1; fill:none" points="
  179.93,336.386 201.204,336.386 
  "/>
<polyline clip-path="url(#clip8300)" style="stroke:#000000; stroke-width:4; stroke-opacity:1; fill:none" points="
  179.93,198.04 201.204,198.04 
  "/>
<polyline clip-path="url(#clip8300)" style="stroke:#000000; stroke-width:4; stroke-opacity:1; fill:none" points="
  179.93,59.6949 201.204,59.6949 
  "/>
<g clip-path="url(#clip8300)">
<text style="fill:#000000; fill-opacity:1; font-family:Arial,Helvetica Neue,Helvetica,sans-serif; font-size:48px; text-anchor:middle;" transform="rotate(0, 179.93, 539.182)" x="179.93" y="539.182">0</text>
</g>
<g clip-path="url(#clip8300)">
<text style="fill:#000000; fill-opacity:1; font-family:Arial,Helvetica Neue,Helvetica,sans-serif; font-size:48px; text-anchor:middle;" transform="rotate(0, 618.748, 539.182)" x="618.748" y="539.182">250</text>
</g>
<g clip-path="url(#clip8300)">
<text style="fill:#000000; fill-opacity:1; font-family:Arial,Helvetica Neue,Helvetica,sans-serif; font-size:48px; text-anchor:middle;" transform="rotate(0, 1057.57, 539.182)" x="1057.57" y="539.182">500</text>
</g>
<g clip-path="url(#clip8300)">
<text style="fill:#000000; fill-opacity:1; font-family:Arial,Helvetica Neue,Helvetica,sans-serif; font-size:48px; text-anchor:middle;" transform="rotate(0, 1496.38, 539.182)" x="1496.38" y="539.182">750</text>
</g>
<g clip-path="url(#clip8300)">
<text style="fill:#000000; fill-opacity:1; font-family:Arial,Helvetica Neue,Helvetica,sans-serif; font-size:48px; text-anchor:middle;" transform="rotate(0, 1935.2, 539.182)" x="1935.2" y="539.182">1000</text>
</g>
<g clip-path="url(#clip8300)">
<text style="fill:#000000; fill-opacity:1; font-family:Arial,Helvetica Neue,Helvetica,sans-serif; font-size:48px; text-anchor:end;" transform="rotate(0, 159.93, 492.232)" x="159.93" y="492.232">0</text>
</g>
<g clip-path="url(#clip8300)">
<text style="fill:#000000; fill-opacity:1; font-family:Arial,Helvetica Neue,Helvetica,sans-serif; font-size:48px; text-anchor:end;" transform="rotate(0, 159.93, 353.886)" x="159.93" y="353.886">10</text>
</g>
<g clip-path="url(#clip8300)">
<text style="fill:#000000; fill-opacity:1; font-family:Arial,Helvetica Neue,Helvetica,sans-serif; font-size:48px; text-anchor:end;" transform="rotate(0, 159.93, 215.54)" x="159.93" y="215.54">20</text>
</g>
<g clip-path="url(#clip8300)">
<text style="fill:#000000; fill-opacity:1; font-family:Arial,Helvetica Neue,Helvetica,sans-serif; font-size:48px; text-anchor:end;" transform="rotate(0, 159.93, 77.1949)" x="159.93" y="77.1949">30</text>
</g>
<g clip-path="url(#clip8300)">
<text style="fill:#000000; fill-opacity:1; font-family:Arial,Helvetica Neue,Helvetica,sans-serif; font-size:66px; text-anchor:middle;" transform="rotate(-90, 74.8429, 267.213)" x="74.8429" y="267.213">Firing rate (Hz)</text>
</g>
<polyline clip-path="url(#clip8302)" style="stroke:#009af9; stroke-width:4; stroke-opacity:1; fill:none" points="
  181.685,474.69 183.44,474.566 185.196,474.358 186.951,474.068 188.706,473.695 190.461,473.239 192.217,472.701 193.972,472.081 195.727,471.379 197.482,470.595 
  199.238,469.73 200.993,468.784 202.748,467.757 204.504,466.65 206.259,465.463 208.014,464.197 209.769,462.852 211.525,461.429 213.28,459.928 215.035,458.35 
  216.79,456.696 218.546,454.966 220.301,453.161 222.056,451.281 223.812,449.328 225.567,447.302 227.322,445.203 229.077,443.034 230.833,440.795 232.588,438.485 
  234.343,436.108 236.098,433.663 237.854,431.151 239.609,428.574 241.364,425.932 243.12,423.227 244.875,420.459 246.63,417.63 248.385,414.741 250.141,411.793 
  251.896,408.787 253.651,405.724 255.406,402.606 257.162,399.434 258.917,396.209 260.672,392.932 262.428,389.605 264.183,386.229 265.938,382.806 267.693,379.336 
  269.449,375.821 271.204,372.263 272.959,368.663 274.714,365.022 276.47,361.343 278.225,357.625 279.98,353.872 281.736,350.083 283.491,346.262 285.246,342.409 
  287.001,338.526 288.757,334.614 290.512,330.676 292.267,326.712 294.022,322.724 295.778,318.714 297.533,314.684 299.288,310.634 301.044,306.567 302.799,302.485 
  304.554,298.388 306.309,294.279 308.065,290.158 309.82,286.029 311.575,281.892 313.33,277.75 315.086,273.603 316.841,269.454 318.596,265.303 320.352,261.154 
  322.107,257.007 323.862,252.864 325.617,248.726 327.373,244.596 329.128,240.476 330.883,236.365 332.638,232.268 334.394,228.184 336.149,224.116 337.904,220.065 
  339.66,216.032 341.415,212.021 343.17,208.031 344.925,204.065 346.681,200.125 348.436,196.211 350.191,192.325 351.946,188.47 353.702,184.646 355.457,180.855 
  357.212,177.099 358.968,173.378 360.723,169.696 362.478,166.052 364.233,162.448 365.989,158.887 367.744,155.369 369.499,151.895 371.254,148.468 373.01,145.088 
  374.765,141.758 376.52,138.477 378.276,135.248 380.031,132.071 381.786,128.949 383.541,125.882 385.297,122.871 387.052,119.918 388.807,117.024 390.563,114.191 
  392.318,111.418 394.073,108.708 395.828,106.061 397.584,103.478 399.339,100.961 401.094,98.5108 402.849,96.1278 404.605,93.8132 406.36,91.568 408.115,89.3931 
  409.871,87.2893 411.626,85.2574 413.381,83.2984 415.136,81.4129 416.892,79.6017 418.647,77.8655 420.402,76.2051 422.157,74.6211 423.913,73.1141 425.668,71.6848 
  427.423,70.3337 429.179,69.0613 430.934,67.8682 432.689,66.7548 434.444,65.7216 436.2,64.769 437.955,63.8974 439.71,63.1071 441.465,62.3984 443.221,61.7716 
  444.976,61.2271 446.731,60.7649 448.487,60.3853 450.242,60.0884 451.997,59.8744 453.752,59.7433 455.508,59.6952 457.263,59.73 459.018,59.8479 460.773,60.0488 
  462.529,60.3324 464.284,60.6989 466.039,61.1479 467.795,61.6794 469.55,62.2931 471.305,62.9887 473.06,63.766 474.816,64.6247 476.571,65.5645 478.326,66.5849 
  480.081,67.6855 481.837,68.866 483.592,70.1258 485.347,71.4644 487.103,72.8813 488.858,74.3759 490.613,75.9477 492.368,77.596 494.124,79.3201 495.879,81.1194 
  497.634,82.9931 499.389,84.9405 501.145,86.9608 502.9,89.0532 504.655,91.2169 506.411,93.451 508.166,95.7546 509.921,98.1267 511.676,100.566 513.432,103.073 
  515.187,105.645 516.942,108.282 518.697,110.982 520.453,113.745 522.208,116.569 523.963,119.453 525.719,122.397 527.474,125.398 529.229,128.457 530.984,131.57 
  532.74,134.738 534.495,137.959 536.25,141.232 538.005,144.555 539.761,147.927 541.516,151.346 543.271,154.813 545.027,158.324 546.782,161.878 548.537,165.475 
  550.292,169.113 552.048,172.789 553.803,176.504 555.558,180.255 557.313,184.04 559.069,187.859 560.824,191.709 562.579,195.59 564.335,199.5 566.09,203.436 
  567.845,207.398 569.6,211.384 571.356,215.392 573.111,219.421 574.866,223.469 576.621,227.535 578.377,231.616 580.132,235.712 581.887,239.82 583.643,243.94 
  585.398,248.068 587.153,252.204 588.908,256.347 590.664,260.493 592.419,264.642 594.174,268.793 595.93,272.942 597.685,277.09 599.44,281.233 601.195,285.371 
  602.951,289.501 604.706,293.623 606.461,297.734 608.216,301.833 609.972,305.918 611.727,309.987 613.482,314.04 615.238,318.074 616.993,322.087 618.748,326.078 
  620.503,330.046 622.259,333.989 624.014,337.905 625.769,341.793 627.524,345.651 629.28,349.477 631.035,353.271 632.79,357.03 634.546,360.753 636.301,364.439 
  638.056,368.086 639.811,371.693 641.567,375.257 643.322,378.779 645.077,382.256 646.832,385.687 648.588,389.071 650.343,392.405 652.098,395.69 653.854,398.924 
  655.609,402.104 657.364,405.231 659.119,408.303 660.875,411.318 662.63,414.275 664.385,417.174 666.14,420.012 667.896,422.79 669.651,425.505 671.406,428.157 
  673.162,430.745 674.917,433.267 676.672,435.723 678.427,438.111 680.183,440.431 681.938,442.682 683.693,444.863 685.448,446.972 687.204,449.01 688.959,450.975 
  690.714,452.866 692.47,454.683 694.225,456.425 695.98,458.092 697.735,459.682 699.491,461.195 701.246,462.631 703.001,463.988 704.756,465.267 706.512,466.466 
  708.267,467.586 710.022,468.625 711.778,469.585 713.533,470.463 715.288,471.259 717.043,471.975 718.799,472.608 720.554,473.159 722.309,473.628 724.064,474.014 
  725.82,474.317 727.575,474.538 729.33,474.676 731.086,474.73 732.841,474.702 734.596,474.591 736.351,474.397 738.107,474.12 739.862,473.76 741.617,473.317 
  743.372,472.792 745.128,472.185 746.883,471.496 748.638,470.725 750.394,469.873 752.149,468.94 753.904,467.926 755.659,466.831 757.415,465.657 759.17,464.404 
  760.925,463.072 762.68,461.661 764.436,460.172 766.191,458.607 767.946,456.964 769.702,455.246 771.457,453.453 773.212,451.585 774.967,449.644 776.723,447.629 
  778.478,445.542 780.233,443.384 781.988,441.156 783.744,438.858 785.499,436.491 787.254,434.057 789.01,431.556 790.765,428.989 792.52,426.357 794.275,423.662 
  796.031,420.904 797.786,418.085 799.541,415.205 801.296,412.266 803.052,409.269 804.807,406.215 806.562,403.106 808.318,399.943 810.073,396.726 811.828,393.457 
  813.583,390.138 815.339,386.77 817.094,383.354 818.849,379.891 820.605,376.384 822.36,372.833 824.115,369.239 825.87,365.605 827.626,361.931 829.381,358.22 
  831.136,354.472 832.891,350.689 834.647,346.873 836.402,343.025 838.157,339.146 839.913,335.239 841.668,331.305 843.423,327.345 845.178,323.361 846.934,319.354 
  848.689,315.327 850.444,311.28 852.199,307.216 853.955,303.136 855.71,299.041 857.465,294.934 859.221,290.815 860.976,286.687 862.731,282.552 864.486,278.41 
  866.242,274.264 867.997,270.115 869.752,265.964 871.507,261.815 873.263,257.667 875.018,253.523 876.773,249.385 878.529,245.254 880.284,241.131 882.039,237.019 
  883.794,232.919 885.55,228.833 887.305,224.762 889.06,220.709 890.815,216.673 892.571,212.658 894.326,208.665 896.081,204.695 897.837,200.751 899.592,196.832 
  901.347,192.942 903.102,189.082 904.858,185.253 906.613,181.457 908.368,177.695 910.123,173.968 911.879,170.28 913.634,166.629 915.389,163.02 917.145,159.451 
  918.9,155.926 920.655,152.446 922.41,149.011 924.166,145.623 925.921,142.285 927.676,138.996 929.431,135.758 931.187,132.573 932.942,129.442 934.697,126.366 
  936.453,123.347 938.208,120.385 939.963,117.481 941.718,114.638 943.474,111.855 945.229,109.135 946.984,106.478 948.739,103.885 950.495,101.358 952.25,98.8966 
  954.005,96.5028 955.761,94.1772 957.516,91.9209 959.271,89.7348 961.026,87.6196 962.782,85.5762 964.537,83.6055 966.292,81.7082 968.047,79.8851 969.803,78.137 
  971.558,76.4645 973.313,74.8683 975.069,73.349 976.824,71.9072 978.579,70.5436 980.334,69.2587 982.09,68.0529 983.845,66.9268 985.6,65.8808 987.355,64.9153 
  989.111,64.0307 990.866,63.2275 992.621,62.5058 994.377,61.866 996.132,61.3083 997.887,60.833 999.642,60.4402 1001.4,60.1301 1003.15,59.9029 1004.91,59.7586 
  1006.66,59.6973 1008.42,59.7189 1010.17,59.8236 1011.93,60.0112 1013.68,60.2817 1015.44,60.635 1017.2,61.0709 1018.95,61.5892 1020.71,62.1898 1022.46,62.8724 
  1024.22,63.6368 1025.97,64.4825 1027.73,65.4094 1029.48,66.417 1031.24,67.5049 1032.99,68.6726 1034.75,69.9198 1036.5,71.2459 1038.26,72.6504 1040.01,74.1327 
  1041.77,75.6923 1043.52,77.3284 1045.28,79.0405 1047.03,80.8278 1048.79,82.6898 1050.55,84.6255 1052.3,86.6342 1054.06,88.7152 1055.81,90.8676 1057.57,93.0905 
  1059.32,95.3831 1061.08,97.7443 1062.83,100.173 1064.59,102.669 1066.34,105.231 1068.1,107.858 1069.85,110.548 1071.61,113.301 1073.36,116.115 1075.12,118.99 
  1076.87,121.924 1078.63,124.916 1080.38,127.966 1082.14,131.071 1083.9,134.23 1085.65,137.443 1087.41,140.707 1089.16,144.022 1090.92,147.386 1092.67,150.799 
  1094.43,154.258 1096.18,157.762 1097.94,161.309 1099.69,164.9 1101.45,168.531 1103.2,172.201 1104.96,175.91 1106.71,179.655 1108.47,183.435 1110.22,187.248 
  1111.98,191.094 1113.74,194.97 1115.49,198.875 1117.25,202.807 1119,206.765 1120.76,210.748 1122.51,214.752 1124.27,218.778 1126.02,222.823 1127.78,226.886 
  1129.53,230.965 1131.29,235.059 1133.04,239.165 1134.8,243.283 1136.55,247.41 1138.31,251.545 1140.06,255.686 1141.82,259.832 1143.57,263.981 1145.33,268.132 
  1147.09,272.281 1148.84,276.429 1150.6,280.573 1152.35,284.712 1154.11,288.844 1155.86,292.967 1157.62,297.08 1159.37,301.181 1161.13,305.268 1162.88,309.34 
  1164.64,313.396 1166.39,317.432 1168.15,321.449 1169.9,325.444 1171.66,329.416 1173.41,333.363 1175.17,337.283 1176.93,341.175 1178.68,345.038 1180.44,348.87 
  1182.19,352.669 1183.95,356.434 1185.7,360.163 1187.46,363.855 1189.21,367.508 1190.97,371.121 1192.72,374.693 1194.48,378.221 1196.23,381.705 1197.99,385.144 
  1199.74,388.535 1201.5,391.878 1203.25,395.17 1205.01,398.412 1206.76,401.601 1208.52,404.737 1210.28,407.817 1212.03,410.841 1213.79,413.808 1215.54,416.716 
  1217.3,419.564 1219.05,422.352 1220.81,425.077 1222.56,427.739 1224.32,430.337 1226.07,432.87 1227.83,435.336 1229.58,437.736 1231.34,440.067 1233.09,442.328 
  1234.85,444.52 1236.6,446.641 1238.36,448.69 1240.11,450.667 1241.87,452.57 1243.63,454.399 1245.38,456.153 1247.14,457.832 1248.89,459.434 1250.65,460.959 
  1252.4,462.407 1254.16,463.777 1255.91,465.068 1257.67,466.28 1259.42,467.413 1261.18,468.465 1262.93,469.437 1264.69,470.328 1266.44,471.138 1268.2,471.866 
  1269.95,472.513 1271.71,473.077 1273.47,473.559 1275.22,473.958 1276.98,474.275 1278.73,474.508 1280.49,474.659 1282.24,474.727 1284,474.712 1285.75,474.614 
  1287.51,474.433 1289.26,474.169 1291.02,473.823 1292.77,473.393 1294.53,472.881 1296.28,472.287 1298.04,471.611 1299.79,470.854 1301.55,470.014 1303.3,469.094 
  1305.06,468.093 1306.82,467.011 1308.57,465.85 1310.33,464.609 1312.08,463.289 1313.84,461.891 1315.59,460.415 1317.35,458.861 1319.1,457.231 1320.86,455.525 
  1322.61,453.744 1324.37,451.888 1326.12,449.958 1327.88,447.955 1329.63,445.88 1331.39,443.733 1333.14,441.516 1334.9,439.228 1336.65,436.873 1338.41,434.449 
  1340.17,431.958 1341.92,429.402 1343.68,426.78 1345.43,424.095 1347.19,421.347 1348.94,418.538 1350.7,415.668 1352.45,412.738 1354.21,409.75 1355.96,406.706 
  1357.72,403.605 1359.47,400.45 1361.23,397.242 1362.98,393.981 1364.74,390.67 1366.49,387.31 1368.25,383.901 1370.01,380.446 1371.76,376.946 1373.52,373.401 
  1375.27,369.814 1377.03,366.186 1378.78,362.519 1380.54,358.813 1382.29,355.071 1384.05,351.294 1385.8,347.483 1387.56,343.64 1389.31,339.766 1391.07,335.863 
  1392.82,331.933 1394.58,327.977 1396.33,323.997 1398.09,319.994 1399.84,315.97 1401.6,311.926 1403.36,307.864 1405.11,303.787 1406.87,299.694 1408.62,295.589 
  1410.38,291.472 1412.13,287.345 1413.89,283.211 1415.64,279.07 1417.4,274.924 1419.15,270.775 1420.91,266.625 1422.66,262.475 1424.42,258.327 1426.17,254.183 
  1427.93,250.043 1429.68,245.911 1431.44,241.787 1433.19,237.673 1434.95,233.571 1436.71,229.483 1438.46,225.41 1440.22,221.353 1441.97,217.315 1443.73,213.296 
  1445.48,209.3 1447.24,205.326 1448.99,201.377 1450.75,197.455 1452.5,193.56 1454.26,189.695 1456.01,185.861 1457.77,182.059 1459.52,178.291 1461.28,174.559 
  1463.03,170.864 1464.79,167.208 1466.55,163.592 1468.3,160.017 1470.06,156.485 1471.81,152.997 1473.57,149.555 1475.32,146.16 1477.08,142.813 1478.83,139.516 
  1480.59,136.271 1482.34,133.077 1484.1,129.937 1485.85,126.853 1487.61,123.824 1489.36,120.852 1491.12,117.94 1492.87,115.087 1494.63,112.294 1496.38,109.564 
  1498.14,106.897 1499.9,104.294 1501.65,101.756 1503.41,99.284 1505.16,96.8795 1506.92,94.543 1508.67,92.2756 1510.43,90.0782 1512.18,87.9516 1513.94,85.8968 
  1515.69,83.9144 1517.45,82.0054 1519.2,80.1705 1520.96,78.4104 1522.71,76.7258 1524.47,75.1173 1526.22,73.5858 1527.98,72.1316 1529.73,70.7555 1531.49,69.458 
  1533.25,68.2396 1535,67.1008 1536.76,66.042 1538.51,65.0637 1540.27,64.1662 1542.02,63.3499 1543.78,62.6152 1545.53,61.9624 1547.29,61.3916 1549.04,60.9031 
  1550.8,60.4972 1552.55,60.174 1554.31,59.9335 1556.06,59.776 1557.82,59.7015 1559.57,59.7099 1561.33,59.8014 1563.09,59.9758 1564.84,60.2331 1566.6,60.5732 
  1568.35,60.9959 1570.11,61.5012 1571.86,62.0887 1573.62,62.7582 1575.37,63.5096 1577.13,64.3424 1578.88,65.2564 1580.64,66.2511 1582.39,67.3262 1584.15,68.4813 
  1585.9,69.7159 1587.66,71.0295 1589.41,72.4215 1591.17,73.8914 1592.92,75.4387 1594.68,77.0627 1596.44,78.7628 1598.19,80.5382 1599.95,82.3883 1601.7,84.3123 
  1603.46,86.3094 1605.21,88.379 1606.97,90.52 1608.72,92.7318 1610.48,95.0133 1612.23,97.3637 1613.99,99.7821 1615.74,102.267 1617.5,104.819 1619.25,107.435 
  1621.01,110.115 1622.76,112.858 1624.52,115.663 1626.28,118.528 1628.03,121.453 1629.79,124.436 1631.54,127.476 1633.3,130.572 1635.05,133.723 1636.81,136.927 
  1638.56,140.184 1640.32,143.491 1642.07,146.847 1643.83,150.252 1645.58,153.704 1647.34,157.201 1649.09,160.741 1650.85,164.325 1652.6,167.95 1654.36,171.614 
  1656.11,175.317 1657.87,179.056 1659.63,182.831 1661.38,186.639 1663.14,190.48 1664.89,194.351 1666.65,198.251 1668.4,202.179 1670.16,206.133 1671.91,210.112 
  1673.67,214.113 1675.42,218.136 1677.18,222.178 1678.93,226.238 1680.69,230.315 1682.44,234.406 1684.2,238.51 1685.95,242.626 1687.71,246.752 1689.46,250.886 
  1691.22,255.027 1692.98,259.172 1694.73,263.32 1696.49,267.471 1698.24,271.621 1700,275.769 1701.75,279.914 1703.51,284.054 1705.26,288.187 1707.02,292.311 
  1708.77,296.426 1710.53,300.529 1712.28,304.618 1714.04,308.693 1715.79,312.751 1717.55,316.791 1719.3,320.811 1721.06,324.809 1722.82,328.785 1724.57,332.736 
  1726.33,336.661 1728.08,340.557 1729.84,344.425 1731.59,348.262 1733.35,352.066 1735.1,355.836 1736.86,359.571 1738.61,363.269 1740.37,366.929 1742.12,370.548 
  1743.88,374.127 1745.63,377.662 1747.39,381.153 1749.14,384.599 1750.9,387.998 1752.65,391.349 1754.41,394.649 1756.17,397.899 1757.92,401.097 1759.68,404.241 
  1761.43,407.33 1763.19,410.364 1764.94,413.339 1766.7,416.257 1768.45,419.115 1770.21,421.912 1771.96,424.647 1773.72,427.32 1775.47,429.928 1777.23,432.471 
  1778.98,434.948 1780.74,437.358 1782.49,439.7 1784.25,441.973 1786,444.176 1787.76,446.308 1789.52,448.369 1791.27,450.357 1793.03,452.272 1794.78,454.113 
  1796.54,455.879 1798.29,457.569 1800.05,459.184 1801.8,460.722 1803.56,462.182 1805.31,463.564 1807.07,464.868 1808.82,466.093 1810.58,467.238 1812.33,468.303 
  1814.09,469.288 1815.84,470.192 1817.6,471.014 1819.36,471.756 1821.11,472.415 1822.87,472.992 1824.62,473.487 1826.38,473.9 1828.13,474.23 1829.89,474.477 
  1831.64,474.641 1833.4,474.722 1835.15,474.72 1836.91,474.635 1838.66,474.468 1840.42,474.217 1842.17,473.883 1843.93,473.467 1845.68,472.969 1847.44,472.388 
  1849.19,471.725 1850.95,470.98 1852.71,470.153 1854.46,469.246 1856.22,468.257 1857.97,467.189 1859.73,466.04 1861.48,464.812 1863.24,463.504 1864.99,462.119 
  1866.75,460.655 1868.5,459.114 1870.26,457.496 1872.01,455.802 1873.77,454.032 1875.52,452.188 1877.28,450.27 1879.03,448.279 1880.79,446.215 1882.54,444.079 
  1884.3,441.873 1886.06,439.597 1887.81,437.252 1889.57,434.839 1891.32,432.359 1893.08,429.813 1894.83,427.202 1896.59,424.527 1898.34,421.789 1900.1,418.989 
  1901.85,416.129 1903.61,413.209 1905.36,410.23 1907.12,407.194 1908.87,404.103 1910.63,400.956 1912.38,397.756 1914.14,394.504 1915.9,391.201 1917.65,387.848 
  1919.41,384.447 1921.16,380.999 1922.92,377.506 1924.67,373.969 1926.43,370.388 1928.18,366.767 1929.94,363.106 1931.69,359.406 1933.45,355.67 1935.2,351.898 
  
  "/>
<path clip-path="url(#clip8300)" d="
M179.93 1065.48 L1952.76 1065.48 L1952.76 625.538 L179.93 625.538  Z
  " fill="#ffffff" fill-rule="evenodd" fill-opacity="1"/>
<defs>
  <clipPath id="clip8303">
    <rect x="179" y="625" width="1774" height="441"/>
  </clipPath>
</defs>
<polyline clip-path="url(#clip8303)" style="stroke:#000000; stroke-width:2; stroke-opacity:0.1; fill:none" points="
  179.93,1065.48 179.93,625.538 
  "/>
<polyline clip-path="url(#clip8303)" style="stroke:#000000; stroke-width:2; stroke-opacity:0.1; fill:none" points="
  618.748,1065.48 618.748,625.538 
  "/>
<polyline clip-path="url(#clip8303)" style="stroke:#000000; stroke-width:2; stroke-opacity:0.1; fill:none" points="
  1057.57,1065.48 1057.57,625.538 
  "/>
<polyline clip-path="url(#clip8303)" style="stroke:#000000; stroke-width:2; stroke-opacity:0.1; fill:none" points="
  1496.38,1065.48 1496.38,625.538 
  "/>
<polyline clip-path="url(#clip8303)" style="stroke:#000000; stroke-width:2; stroke-opacity:0.1; fill:none" points="
  1935.2,1065.48 1935.2,625.538 
  "/>
<polyline clip-path="url(#clip8303)" style="stroke:#000000; stroke-width:2; stroke-opacity:0.1; fill:none" points="
  179.93,1006.91 1952.76,1006.91 
  "/>
<polyline clip-path="url(#clip8303)" style="stroke:#000000; stroke-width:2; stroke-opacity:0.1; fill:none" points="
  179.93,914.679 1952.76,914.679 
  "/>
<polyline clip-path="url(#clip8303)" style="stroke:#000000; stroke-width:2; stroke-opacity:0.1; fill:none" points="
  179.93,822.449 1952.76,822.449 
  "/>
<polyline clip-path="url(#clip8303)" style="stroke:#000000; stroke-width:2; stroke-opacity:0.1; fill:none" points="
  179.93,730.219 1952.76,730.219 
  "/>
<polyline clip-path="url(#clip8303)" style="stroke:#000000; stroke-width:2; stroke-opacity:0.1; fill:none" points="
  179.93,637.989 1952.76,637.989 
  "/>
<polyline clip-path="url(#clip8300)" style="stroke:#000000; stroke-width:4; stroke-opacity:1; fill:none" points="
  179.93,1065.48 1952.76,1065.48 
  "/>
<polyline clip-path="url(#clip8300)" style="stroke:#000000; stroke-width:4; stroke-opacity:1; fill:none" points="
  179.93,1065.48 179.93,625.538 
  "/>
<polyline clip-path="url(#clip8300)" style="stroke:#000000; stroke-width:4; stroke-opacity:1; fill:none" points="
  179.93,1065.48 179.93,1060.2 
  "/>
<polyline clip-path="url(#clip8300)" style="stroke:#000000; stroke-width:4; stroke-opacity:1; fill:none" points="
  618.748,1065.48 618.748,1060.2 
  "/>
<polyline clip-path="url(#clip8300)" style="stroke:#000000; stroke-width:4; stroke-opacity:1; fill:none" points="
  1057.57,1065.48 1057.57,1060.2 
  "/>
<polyline clip-path="url(#clip8300)" style="stroke:#000000; stroke-width:4; stroke-opacity:1; fill:none" points="
  1496.38,1065.48 1496.38,1060.2 
  "/>
<polyline clip-path="url(#clip8300)" style="stroke:#000000; stroke-width:4; stroke-opacity:1; fill:none" points="
  1935.2,1065.48 1935.2,1060.2 
  "/>
<polyline clip-path="url(#clip8300)" style="stroke:#000000; stroke-width:4; stroke-opacity:1; fill:none" points="
  179.93,1006.91 201.204,1006.91 
  "/>
<polyline clip-path="url(#clip8300)" style="stroke:#000000; stroke-width:4; stroke-opacity:1; fill:none" points="
  179.93,914.679 201.204,914.679 
  "/>
<polyline clip-path="url(#clip8300)" style="stroke:#000000; stroke-width:4; stroke-opacity:1; fill:none" points="
  179.93,822.449 201.204,822.449 
  "/>
<polyline clip-path="url(#clip8300)" style="stroke:#000000; stroke-width:4; stroke-opacity:1; fill:none" points="
  179.93,730.219 201.204,730.219 
  "/>
<polyline clip-path="url(#clip8300)" style="stroke:#000000; stroke-width:4; stroke-opacity:1; fill:none" points="
  179.93,637.989 201.204,637.989 
  "/>
<g clip-path="url(#clip8300)">
<text style="fill:#000000; fill-opacity:1; font-family:Arial,Helvetica Neue,Helvetica,sans-serif; font-size:48px; text-anchor:middle;" transform="rotate(0, 179.93, 1117.48)" x="179.93" y="1117.48">0</text>
</g>
<g clip-path="url(#clip8300)">
<text style="fill:#000000; fill-opacity:1; font-family:Arial,Helvetica Neue,Helvetica,sans-serif; font-size:48px; text-anchor:middle;" transform="rotate(0, 618.748, 1117.48)" x="618.748" y="1117.48">250</text>
</g>
<g clip-path="url(#clip8300)">
<text style="fill:#000000; fill-opacity:1; font-family:Arial,Helvetica Neue,Helvetica,sans-serif; font-size:48px; text-anchor:middle;" transform="rotate(0, 1057.57, 1117.48)" x="1057.57" y="1117.48">500</text>
</g>
<g clip-path="url(#clip8300)">
<text style="fill:#000000; fill-opacity:1; font-family:Arial,Helvetica Neue,Helvetica,sans-serif; font-size:48px; text-anchor:middle;" transform="rotate(0, 1496.38, 1117.48)" x="1496.38" y="1117.48">750</text>
</g>
<g clip-path="url(#clip8300)">
<text style="fill:#000000; fill-opacity:1; font-family:Arial,Helvetica Neue,Helvetica,sans-serif; font-size:48px; text-anchor:middle;" transform="rotate(0, 1935.2, 1117.48)" x="1935.2" y="1117.48">1000</text>
</g>
<g clip-path="url(#clip8300)">
<text style="fill:#000000; fill-opacity:1; font-family:Arial,Helvetica Neue,Helvetica,sans-serif; font-size:48px; text-anchor:end;" transform="rotate(0, 159.93, 1024.41)" x="159.93" y="1024.41">2</text>
</g>
<g clip-path="url(#clip8300)">
<text style="fill:#000000; fill-opacity:1; font-family:Arial,Helvetica Neue,Helvetica,sans-serif; font-size:48px; text-anchor:end;" transform="rotate(0, 159.93, 932.179)" x="159.93" y="932.179">4</text>
</g>
<g clip-path="url(#clip8300)">
<text style="fill:#000000; fill-opacity:1; font-family:Arial,Helvetica Neue,Helvetica,sans-serif; font-size:48px; text-anchor:end;" transform="rotate(0, 159.93, 839.949)" x="159.93" y="839.949">6</text>
</g>
<g clip-path="url(#clip8300)">
<text style="fill:#000000; fill-opacity:1; font-family:Arial,Helvetica Neue,Helvetica,sans-serif; font-size:48px; text-anchor:end;" transform="rotate(0, 159.93, 747.719)" x="159.93" y="747.719">8</text>
</g>
<g clip-path="url(#clip8300)">
<text style="fill:#000000; fill-opacity:1; font-family:Arial,Helvetica Neue,Helvetica,sans-serif; font-size:48px; text-anchor:end;" transform="rotate(0, 159.93, 655.489)" x="159.93" y="655.489">10</text>
</g>
<g clip-path="url(#clip8300)">
<text style="fill:#000000; fill-opacity:1; font-family:Arial,Helvetica Neue,Helvetica,sans-serif; font-size:66px; text-anchor:middle;" transform="rotate(0, 1066.34, 1195.34)" x="1066.34" y="1195.34">Time (ms)</text>
</g>
<g clip-path="url(#clip8300)">
<text style="fill:#000000; fill-opacity:1; font-family:Arial,Helvetica Neue,Helvetica,sans-serif; font-size:66px; text-anchor:middle;" transform="rotate(-90, 74.8429, 845.506)" x="74.8429" y="845.506">Neuron index</text>
</g>
<line clip-path="url(#clip8303)" x1="387.052" y1="1069.02" x2="387.052" y2="1037.02" style="stroke:#000000; stroke-width:2.4; stroke-opacity:1"/>
<line clip-path="url(#clip8303)" x1="488.858" y1="1069.02" x2="488.858" y2="1037.02" style="stroke:#000000; stroke-width:2.4; stroke-opacity:1"/>
<line clip-path="url(#clip8303)" x1="499.389" y1="1069.02" x2="499.389" y2="1037.02" style="stroke:#000000; stroke-width:2.4; stroke-opacity:1"/>
<line clip-path="url(#clip8303)" x1="983.845" y1="1069.02" x2="983.845" y2="1037.02" style="stroke:#000000; stroke-width:2.4; stroke-opacity:1"/>
<line clip-path="url(#clip8303)" x1="987.355" y1="1069.02" x2="987.355" y2="1037.02" style="stroke:#000000; stroke-width:2.4; stroke-opacity:1"/>
<line clip-path="url(#clip8303)" x1="1029.48" y1="1069.02" x2="1029.48" y2="1037.02" style="stroke:#000000; stroke-width:2.4; stroke-opacity:1"/>
<line clip-path="url(#clip8303)" x1="1048.79" y1="1069.02" x2="1048.79" y2="1037.02" style="stroke:#000000; stroke-width:2.4; stroke-opacity:1"/>
<line clip-path="url(#clip8303)" x1="1549.04" y1="1069.02" x2="1549.04" y2="1037.02" style="stroke:#000000; stroke-width:2.4; stroke-opacity:1"/>
<line clip-path="url(#clip8303)" x1="1557.82" y1="1069.02" x2="1557.82" y2="1037.02" style="stroke:#000000; stroke-width:2.4; stroke-opacity:1"/>
<line clip-path="url(#clip8303)" x1="1592.92" y1="1069.02" x2="1592.92" y2="1037.02" style="stroke:#000000; stroke-width:2.4; stroke-opacity:1"/>
<line clip-path="url(#clip8303)" x1="1617.5" y1="1069.02" x2="1617.5" y2="1037.02" style="stroke:#000000; stroke-width:2.4; stroke-opacity:1"/>
<line clip-path="url(#clip8303)" x1="381.786" y1="1022.91" x2="381.786" y2="990.909" style="stroke:#000000; stroke-width:2.4; stroke-opacity:1"/>
<line clip-path="url(#clip8303)" x1="634.546" y1="1022.91" x2="634.546" y2="990.909" style="stroke:#000000; stroke-width:2.4; stroke-opacity:1"/>
<line clip-path="url(#clip8303)" x1="841.668" y1="1022.91" x2="841.668" y2="990.909" style="stroke:#000000; stroke-width:2.4; stroke-opacity:1"/>
<line clip-path="url(#clip8303)" x1="885.55" y1="1022.91" x2="885.55" y2="990.909" style="stroke:#000000; stroke-width:2.4; stroke-opacity:1"/>
<line clip-path="url(#clip8303)" x1="938.208" y1="1022.91" x2="938.208" y2="990.909" style="stroke:#000000; stroke-width:2.4; stroke-opacity:1"/>
<line clip-path="url(#clip8303)" x1="941.718" y1="1022.91" x2="941.718" y2="990.909" style="stroke:#000000; stroke-width:2.4; stroke-opacity:1"/>
<line clip-path="url(#clip8303)" x1="971.558" y1="1022.91" x2="971.558" y2="990.909" style="stroke:#000000; stroke-width:2.4; stroke-opacity:1"/>
<line clip-path="url(#clip8303)" x1="1025.97" y1="1022.91" x2="1025.97" y2="990.909" style="stroke:#000000; stroke-width:2.4; stroke-opacity:1"/>
<line clip-path="url(#clip8303)" x1="1059.32" y1="1022.91" x2="1059.32" y2="990.909" style="stroke:#000000; stroke-width:2.4; stroke-opacity:1"/>
<line clip-path="url(#clip8303)" x1="1080.38" y1="1022.91" x2="1080.38" y2="990.909" style="stroke:#000000; stroke-width:2.4; stroke-opacity:1"/>
<line clip-path="url(#clip8303)" x1="1427.93" y1="1022.91" x2="1427.93" y2="990.909" style="stroke:#000000; stroke-width:2.4; stroke-opacity:1"/>
<line clip-path="url(#clip8303)" x1="1505.16" y1="1022.91" x2="1505.16" y2="990.909" style="stroke:#000000; stroke-width:2.4; stroke-opacity:1"/>
<line clip-path="url(#clip8303)" x1="1512.18" y1="1022.91" x2="1512.18" y2="990.909" style="stroke:#000000; stroke-width:2.4; stroke-opacity:1"/>
<line clip-path="url(#clip8303)" x1="1542.02" y1="1022.91" x2="1542.02" y2="990.909" style="stroke:#000000; stroke-width:2.4; stroke-opacity:1"/>
<line clip-path="url(#clip8303)" x1="1550.8" y1="1022.91" x2="1550.8" y2="990.909" style="stroke:#000000; stroke-width:2.4; stroke-opacity:1"/>
<line clip-path="url(#clip8303)" x1="1568.35" y1="1022.91" x2="1568.35" y2="990.909" style="stroke:#000000; stroke-width:2.4; stroke-opacity:1"/>
<line clip-path="url(#clip8303)" x1="313.33" y1="976.794" x2="313.33" y2="944.794" style="stroke:#000000; stroke-width:2.4; stroke-opacity:1"/>
<line clip-path="url(#clip8303)" x1="367.744" y1="976.794" x2="367.744" y2="944.794" style="stroke:#000000; stroke-width:2.4; stroke-opacity:1"/>
<line clip-path="url(#clip8303)" x1="466.039" y1="976.794" x2="466.039" y2="944.794" style="stroke:#000000; stroke-width:2.4; stroke-opacity:1"/>
<line clip-path="url(#clip8303)" x1="480.081" y1="976.794" x2="480.081" y2="944.794" style="stroke:#000000; stroke-width:2.4; stroke-opacity:1"/>
<line clip-path="url(#clip8303)" x1="536.25" y1="976.794" x2="536.25" y2="944.794" style="stroke:#000000; stroke-width:2.4; stroke-opacity:1"/>
<line clip-path="url(#clip8303)" x1="882.039" y1="976.794" x2="882.039" y2="944.794" style="stroke:#000000; stroke-width:2.4; stroke-opacity:1"/>
<line clip-path="url(#clip8303)" x1="918.9" y1="976.794" x2="918.9" y2="944.794" style="stroke:#000000; stroke-width:2.4; stroke-opacity:1"/>
<line clip-path="url(#clip8303)" x1="938.208" y1="976.794" x2="938.208" y2="944.794" style="stroke:#000000; stroke-width:2.4; stroke-opacity:1"/>
<line clip-path="url(#clip8303)" x1="943.474" y1="976.794" x2="943.474" y2="944.794" style="stroke:#000000; stroke-width:2.4; stroke-opacity:1"/>
<line clip-path="url(#clip8303)" x1="1015.44" y1="976.794" x2="1015.44" y2="944.794" style="stroke:#000000; stroke-width:2.4; stroke-opacity:1"/>
<line clip-path="url(#clip8303)" x1="1171.66" y1="976.794" x2="1171.66" y2="944.794" style="stroke:#000000; stroke-width:2.4; stroke-opacity:1"/>
<line clip-path="url(#clip8303)" x1="1384.05" y1="976.794" x2="1384.05" y2="944.794" style="stroke:#000000; stroke-width:2.4; stroke-opacity:1"/>
<line clip-path="url(#clip8303)" x1="1424.42" y1="976.794" x2="1424.42" y2="944.794" style="stroke:#000000; stroke-width:2.4; stroke-opacity:1"/>
<line clip-path="url(#clip8303)" x1="1535" y1="976.794" x2="1535" y2="944.794" style="stroke:#000000; stroke-width:2.4; stroke-opacity:1"/>
<line clip-path="url(#clip8303)" x1="1645.58" y1="976.794" x2="1645.58" y2="944.794" style="stroke:#000000; stroke-width:2.4; stroke-opacity:1"/>
<line clip-path="url(#clip8303)" x1="1680.69" y1="976.794" x2="1680.69" y2="944.794" style="stroke:#000000; stroke-width:2.4; stroke-opacity:1"/>
<line clip-path="url(#clip8303)" x1="1910.63" y1="976.794" x2="1910.63" y2="944.794" style="stroke:#000000; stroke-width:2.4; stroke-opacity:1"/>
<line clip-path="url(#clip8303)" x1="1924.67" y1="976.794" x2="1924.67" y2="944.794" style="stroke:#000000; stroke-width:2.4; stroke-opacity:1"/>
<line clip-path="url(#clip8303)" x1="337.904" y1="930.679" x2="337.904" y2="898.679" style="stroke:#000000; stroke-width:2.4; stroke-opacity:1"/>
<line clip-path="url(#clip8303)" x1="348.436" y1="930.679" x2="348.436" y2="898.679" style="stroke:#000000; stroke-width:2.4; stroke-opacity:1"/>
<line clip-path="url(#clip8303)" x1="394.073" y1="930.679" x2="394.073" y2="898.679" style="stroke:#000000; stroke-width:2.4; stroke-opacity:1"/>
<line clip-path="url(#clip8303)" x1="416.892" y1="930.679" x2="416.892" y2="898.679" style="stroke:#000000; stroke-width:2.4; stroke-opacity:1"/>
<line clip-path="url(#clip8303)" x1="494.124" y1="930.679" x2="494.124" y2="898.679" style="stroke:#000000; stroke-width:2.4; stroke-opacity:1"/>
<line clip-path="url(#clip8303)" x1="882.039" y1="930.679" x2="882.039" y2="898.679" style="stroke:#000000; stroke-width:2.4; stroke-opacity:1"/>
<line clip-path="url(#clip8303)" x1="975.069" y1="930.679" x2="975.069" y2="898.679" style="stroke:#000000; stroke-width:2.4; stroke-opacity:1"/>
<line clip-path="url(#clip8303)" x1="1025.97" y1="930.679" x2="1025.97" y2="898.679" style="stroke:#000000; stroke-width:2.4; stroke-opacity:1"/>
<line clip-path="url(#clip8303)" x1="1101.45" y1="930.679" x2="1101.45" y2="898.679" style="stroke:#000000; stroke-width:2.4; stroke-opacity:1"/>
<line clip-path="url(#clip8303)" x1="1654.36" y1="930.679" x2="1654.36" y2="898.679" style="stroke:#000000; stroke-width:2.4; stroke-opacity:1"/>
<line clip-path="url(#clip8303)" x1="250.141" y1="884.564" x2="250.141" y2="852.564" style="stroke:#000000; stroke-width:2.4; stroke-opacity:1"/>
<line clip-path="url(#clip8303)" x1="341.415" y1="884.564" x2="341.415" y2="852.564" style="stroke:#000000; stroke-width:2.4; stroke-opacity:1"/>
<line clip-path="url(#clip8303)" x1="357.212" y1="884.564" x2="357.212" y2="852.564" style="stroke:#000000; stroke-width:2.4; stroke-opacity:1"/>
<line clip-path="url(#clip8303)" x1="423.913" y1="884.564" x2="423.913" y2="852.564" style="stroke:#000000; stroke-width:2.4; stroke-opacity:1"/>
<line clip-path="url(#clip8303)" x1="488.858" y1="884.564" x2="488.858" y2="852.564" style="stroke:#000000; stroke-width:2.4; stroke-opacity:1"/>
<line clip-path="url(#clip8303)" x1="536.25" y1="884.564" x2="536.25" y2="852.564" style="stroke:#000000; stroke-width:2.4; stroke-opacity:1"/>
<line clip-path="url(#clip8303)" x1="664.385" y1="884.564" x2="664.385" y2="852.564" style="stroke:#000000; stroke-width:2.4; stroke-opacity:1"/>
<line clip-path="url(#clip8303)" x1="825.87" y1="884.564" x2="825.87" y2="852.564" style="stroke:#000000; stroke-width:2.4; stroke-opacity:1"/>
<line clip-path="url(#clip8303)" x1="1013.68" y1="884.564" x2="1013.68" y2="852.564" style="stroke:#000000; stroke-width:2.4; stroke-opacity:1"/>
<line clip-path="url(#clip8303)" x1="1040.01" y1="884.564" x2="1040.01" y2="852.564" style="stroke:#000000; stroke-width:2.4; stroke-opacity:1"/>
<line clip-path="url(#clip8303)" x1="1264.69" y1="884.564" x2="1264.69" y2="852.564" style="stroke:#000000; stroke-width:2.4; stroke-opacity:1"/>
<line clip-path="url(#clip8303)" x1="1550.8" y1="884.564" x2="1550.8" y2="852.564" style="stroke:#000000; stroke-width:2.4; stroke-opacity:1"/>
<line clip-path="url(#clip8303)" x1="1649.09" y1="884.564" x2="1649.09" y2="852.564" style="stroke:#000000; stroke-width:2.4; stroke-opacity:1"/>
<line clip-path="url(#clip8303)" x1="1800.05" y1="884.564" x2="1800.05" y2="852.564" style="stroke:#000000; stroke-width:2.4; stroke-opacity:1"/>
<line clip-path="url(#clip8303)" x1="274.714" y1="838.449" x2="274.714" y2="806.449" style="stroke:#000000; stroke-width:2.4; stroke-opacity:1"/>
<line clip-path="url(#clip8303)" x1="316.841" y1="838.449" x2="316.841" y2="806.449" style="stroke:#000000; stroke-width:2.4; stroke-opacity:1"/>
<line clip-path="url(#clip8303)" x1="441.465" y1="838.449" x2="441.465" y2="806.449" style="stroke:#000000; stroke-width:2.4; stroke-opacity:1"/>
<line clip-path="url(#clip8303)" x1="499.389" y1="838.449" x2="499.389" y2="806.449" style="stroke:#000000; stroke-width:2.4; stroke-opacity:1"/>
<line clip-path="url(#clip8303)" x1="578.377" y1="838.449" x2="578.377" y2="806.449" style="stroke:#000000; stroke-width:2.4; stroke-opacity:1"/>
<line clip-path="url(#clip8303)" x1="602.951" y1="838.449" x2="602.951" y2="806.449" style="stroke:#000000; stroke-width:2.4; stroke-opacity:1"/>
<line clip-path="url(#clip8303)" x1="938.208" y1="838.449" x2="938.208" y2="806.449" style="stroke:#000000; stroke-width:2.4; stroke-opacity:1"/>
<line clip-path="url(#clip8303)" x1="989.111" y1="838.449" x2="989.111" y2="806.449" style="stroke:#000000; stroke-width:2.4; stroke-opacity:1"/>
<line clip-path="url(#clip8303)" x1="1071.61" y1="838.449" x2="1071.61" y2="806.449" style="stroke:#000000; stroke-width:2.4; stroke-opacity:1"/>
<line clip-path="url(#clip8303)" x1="1096.18" y1="838.449" x2="1096.18" y2="806.449" style="stroke:#000000; stroke-width:2.4; stroke-opacity:1"/>
<line clip-path="url(#clip8303)" x1="1143.57" y1="838.449" x2="1143.57" y2="806.449" style="stroke:#000000; stroke-width:2.4; stroke-opacity:1"/>
<line clip-path="url(#clip8303)" x1="1578.88" y1="838.449" x2="1578.88" y2="806.449" style="stroke:#000000; stroke-width:2.4; stroke-opacity:1"/>
<line clip-path="url(#clip8303)" x1="1591.17" y1="838.449" x2="1591.17" y2="806.449" style="stroke:#000000; stroke-width:2.4; stroke-opacity:1"/>
<line clip-path="url(#clip8303)" x1="1642.07" y1="838.449" x2="1642.07" y2="806.449" style="stroke:#000000; stroke-width:2.4; stroke-opacity:1"/>
<line clip-path="url(#clip8303)" x1="330.883" y1="792.334" x2="330.883" y2="760.334" style="stroke:#000000; stroke-width:2.4; stroke-opacity:1"/>
<line clip-path="url(#clip8303)" x1="360.723" y1="792.334" x2="360.723" y2="760.334" style="stroke:#000000; stroke-width:2.4; stroke-opacity:1"/>
<line clip-path="url(#clip8303)" x1="371.254" y1="792.334" x2="371.254" y2="760.334" style="stroke:#000000; stroke-width:2.4; stroke-opacity:1"/>
<line clip-path="url(#clip8303)" x1="437.955" y1="792.334" x2="437.955" y2="760.334" style="stroke:#000000; stroke-width:2.4; stroke-opacity:1"/>
<line clip-path="url(#clip8303)" x1="504.655" y1="792.334" x2="504.655" y2="760.334" style="stroke:#000000; stroke-width:2.4; stroke-opacity:1"/>
<line clip-path="url(#clip8303)" x1="515.187" y1="792.334" x2="515.187" y2="760.334" style="stroke:#000000; stroke-width:2.4; stroke-opacity:1"/>
<line clip-path="url(#clip8303)" x1="996.132" y1="792.334" x2="996.132" y2="760.334" style="stroke:#000000; stroke-width:2.4; stroke-opacity:1"/>
<line clip-path="url(#clip8303)" x1="1057.57" y1="792.334" x2="1057.57" y2="760.334" style="stroke:#000000; stroke-width:2.4; stroke-opacity:1"/>
<line clip-path="url(#clip8303)" x1="1059.32" y1="792.334" x2="1059.32" y2="760.334" style="stroke:#000000; stroke-width:2.4; stroke-opacity:1"/>
<line clip-path="url(#clip8303)" x1="1062.83" y1="792.334" x2="1062.83" y2="760.334" style="stroke:#000000; stroke-width:2.4; stroke-opacity:1"/>
<line clip-path="url(#clip8303)" x1="1484.1" y1="792.334" x2="1484.1" y2="760.334" style="stroke:#000000; stroke-width:2.4; stroke-opacity:1"/>
<line clip-path="url(#clip8303)" x1="1547.29" y1="792.334" x2="1547.29" y2="760.334" style="stroke:#000000; stroke-width:2.4; stroke-opacity:1"/>
<line clip-path="url(#clip8303)" x1="1559.57" y1="792.334" x2="1559.57" y2="760.334" style="stroke:#000000; stroke-width:2.4; stroke-opacity:1"/>
<line clip-path="url(#clip8303)" x1="1561.33" y1="792.334" x2="1561.33" y2="760.334" style="stroke:#000000; stroke-width:2.4; stroke-opacity:1"/>
<line clip-path="url(#clip8303)" x1="1566.6" y1="792.334" x2="1566.6" y2="760.334" style="stroke:#000000; stroke-width:2.4; stroke-opacity:1"/>
<line clip-path="url(#clip8303)" x1="1596.44" y1="792.334" x2="1596.44" y2="760.334" style="stroke:#000000; stroke-width:2.4; stroke-opacity:1"/>
<line clip-path="url(#clip8303)" x1="1615.74" y1="792.334" x2="1615.74" y2="760.334" style="stroke:#000000; stroke-width:2.4; stroke-opacity:1"/>
<line clip-path="url(#clip8303)" x1="1640.32" y1="792.334" x2="1640.32" y2="760.334" style="stroke:#000000; stroke-width:2.4; stroke-opacity:1"/>
<line clip-path="url(#clip8303)" x1="1712.28" y1="792.334" x2="1712.28" y2="760.334" style="stroke:#000000; stroke-width:2.4; stroke-opacity:1"/>
<line clip-path="url(#clip8303)" x1="258.917" y1="746.219" x2="258.917" y2="714.219" style="stroke:#000000; stroke-width:2.4; stroke-opacity:1"/>
<line clip-path="url(#clip8303)" x1="451.997" y1="746.219" x2="451.997" y2="714.219" style="stroke:#000000; stroke-width:2.4; stroke-opacity:1"/>
<line clip-path="url(#clip8303)" x1="476.571" y1="746.219" x2="476.571" y2="714.219" style="stroke:#000000; stroke-width:2.4; stroke-opacity:1"/>
<line clip-path="url(#clip8303)" x1="494.124" y1="746.219" x2="494.124" y2="714.219" style="stroke:#000000; stroke-width:2.4; stroke-opacity:1"/>
<line clip-path="url(#clip8303)" x1="832.891" y1="746.219" x2="832.891" y2="714.219" style="stroke:#000000; stroke-width:2.4; stroke-opacity:1"/>
<line clip-path="url(#clip8303)" x1="922.41" y1="746.219" x2="922.41" y2="714.219" style="stroke:#000000; stroke-width:2.4; stroke-opacity:1"/>
<line clip-path="url(#clip8303)" x1="1010.17" y1="746.219" x2="1010.17" y2="714.219" style="stroke:#000000; stroke-width:2.4; stroke-opacity:1"/>
<line clip-path="url(#clip8303)" x1="1029.48" y1="746.219" x2="1029.48" y2="714.219" style="stroke:#000000; stroke-width:2.4; stroke-opacity:1"/>
<line clip-path="url(#clip8303)" x1="1040.01" y1="746.219" x2="1040.01" y2="714.219" style="stroke:#000000; stroke-width:2.4; stroke-opacity:1"/>
<line clip-path="url(#clip8303)" x1="1076.87" y1="746.219" x2="1076.87" y2="714.219" style="stroke:#000000; stroke-width:2.4; stroke-opacity:1"/>
<line clip-path="url(#clip8303)" x1="1106.71" y1="746.219" x2="1106.71" y2="714.219" style="stroke:#000000; stroke-width:2.4; stroke-opacity:1"/>
<line clip-path="url(#clip8303)" x1="1147.09" y1="746.219" x2="1147.09" y2="714.219" style="stroke:#000000; stroke-width:2.4; stroke-opacity:1"/>
<line clip-path="url(#clip8303)" x1="1178.68" y1="746.219" x2="1178.68" y2="714.219" style="stroke:#000000; stroke-width:2.4; stroke-opacity:1"/>
<line clip-path="url(#clip8303)" x1="1477.08" y1="746.219" x2="1477.08" y2="714.219" style="stroke:#000000; stroke-width:2.4; stroke-opacity:1"/>
<line clip-path="url(#clip8303)" x1="1670.16" y1="746.219" x2="1670.16" y2="714.219" style="stroke:#000000; stroke-width:2.4; stroke-opacity:1"/>
<line clip-path="url(#clip8303)" x1="348.436" y1="700.104" x2="348.436" y2="668.104" style="stroke:#000000; stroke-width:2.4; stroke-opacity:1"/>
<line clip-path="url(#clip8303)" x1="380.031" y1="700.104" x2="380.031" y2="668.104" style="stroke:#000000; stroke-width:2.4; stroke-opacity:1"/>
<line clip-path="url(#clip8303)" x1="406.36" y1="700.104" x2="406.36" y2="668.104" style="stroke:#000000; stroke-width:2.4; stroke-opacity:1"/>
<line clip-path="url(#clip8303)" x1="481.837" y1="700.104" x2="481.837" y2="668.104" style="stroke:#000000; stroke-width:2.4; stroke-opacity:1"/>
<line clip-path="url(#clip8303)" x1="497.634" y1="700.104" x2="497.634" y2="668.104" style="stroke:#000000; stroke-width:2.4; stroke-opacity:1"/>
<line clip-path="url(#clip8303)" x1="511.676" y1="700.104" x2="511.676" y2="668.104" style="stroke:#000000; stroke-width:2.4; stroke-opacity:1"/>
<line clip-path="url(#clip8303)" x1="552.048" y1="700.104" x2="552.048" y2="668.104" style="stroke:#000000; stroke-width:2.4; stroke-opacity:1"/>
<line clip-path="url(#clip8303)" x1="555.558" y1="700.104" x2="555.558" y2="668.104" style="stroke:#000000; stroke-width:2.4; stroke-opacity:1"/>
<line clip-path="url(#clip8303)" x1="562.579" y1="700.104" x2="562.579" y2="668.104" style="stroke:#000000; stroke-width:2.4; stroke-opacity:1"/>
<line clip-path="url(#clip8303)" x1="624.014" y1="700.104" x2="624.014" y2="668.104" style="stroke:#000000; stroke-width:2.4; stroke-opacity:1"/>
<line clip-path="url(#clip8303)" x1="1068.1" y1="700.104" x2="1068.1" y2="668.104" style="stroke:#000000; stroke-width:2.4; stroke-opacity:1"/>
<line clip-path="url(#clip8303)" x1="1162.88" y1="700.104" x2="1162.88" y2="668.104" style="stroke:#000000; stroke-width:2.4; stroke-opacity:1"/>
<line clip-path="url(#clip8303)" x1="1448.99" y1="700.104" x2="1448.99" y2="668.104" style="stroke:#000000; stroke-width:2.4; stroke-opacity:1"/>
<line clip-path="url(#clip8303)" x1="1520.96" y1="700.104" x2="1520.96" y2="668.104" style="stroke:#000000; stroke-width:2.4; stroke-opacity:1"/>
<line clip-path="url(#clip8303)" x1="1538.51" y1="700.104" x2="1538.51" y2="668.104" style="stroke:#000000; stroke-width:2.4; stroke-opacity:1"/>
<line clip-path="url(#clip8303)" x1="1603.46" y1="700.104" x2="1603.46" y2="668.104" style="stroke:#000000; stroke-width:2.4; stroke-opacity:1"/>
<line clip-path="url(#clip8303)" x1="267.693" y1="653.989" x2="267.693" y2="621.989" style="stroke:#000000; stroke-width:2.4; stroke-opacity:1"/>
<line clip-path="url(#clip8303)" x1="292.267" y1="653.989" x2="292.267" y2="621.989" style="stroke:#000000; stroke-width:2.4; stroke-opacity:1"/>
<line clip-path="url(#clip8303)" x1="422.157" y1="653.989" x2="422.157" y2="621.989" style="stroke:#000000; stroke-width:2.4; stroke-opacity:1"/>
<line clip-path="url(#clip8303)" x1="1024.22" y1="653.989" x2="1024.22" y2="621.989" style="stroke:#000000; stroke-width:2.4; stroke-opacity:1"/>
<line clip-path="url(#clip8303)" x1="1036.5" y1="653.989" x2="1036.5" y2="621.989" style="stroke:#000000; stroke-width:2.4; stroke-opacity:1"/>
<line clip-path="url(#clip8303)" x1="1099.69" y1="653.989" x2="1099.69" y2="621.989" style="stroke:#000000; stroke-width:2.4; stroke-opacity:1"/>
<line clip-path="url(#clip8303)" x1="1104.96" y1="653.989" x2="1104.96" y2="621.989" style="stroke:#000000; stroke-width:2.4; stroke-opacity:1"/>
<line clip-path="url(#clip8303)" x1="1485.85" y1="653.989" x2="1485.85" y2="621.989" style="stroke:#000000; stroke-width:2.4; stroke-opacity:1"/>
<line clip-path="url(#clip8303)" x1="1487.61" y1="653.989" x2="1487.61" y2="621.989" style="stroke:#000000; stroke-width:2.4; stroke-opacity:1"/>
<line clip-path="url(#clip8303)" x1="1533.25" y1="653.989" x2="1533.25" y2="621.989" style="stroke:#000000; stroke-width:2.4; stroke-opacity:1"/>
<line clip-path="url(#clip8303)" x1="1573.62" y1="653.989" x2="1573.62" y2="621.989" style="stroke:#000000; stroke-width:2.4; stroke-opacity:1"/>
<line clip-path="url(#clip8303)" x1="1598.19" y1="653.989" x2="1598.19" y2="621.989" style="stroke:#000000; stroke-width:2.4; stroke-opacity:1"/>
<line clip-path="url(#clip8303)" x1="1606.97" y1="653.989" x2="1606.97" y2="621.989" style="stroke:#000000; stroke-width:2.4; stroke-opacity:1"/>
<line clip-path="url(#clip8303)" x1="1682.44" y1="653.989" x2="1682.44" y2="621.989" style="stroke:#000000; stroke-width:2.4; stroke-opacity:1"/>
<line clip-path="url(#clip8303)" x1="1728.08" y1="653.989" x2="1728.08" y2="621.989" style="stroke:#000000; stroke-width:2.4; stroke-opacity:1"/>
</svg>
