<?xml version="1.0" encoding="utf-8"?>
<svg xmlns="http://www.w3.org/2000/svg" xmlns:xlink="http://www.w3.org/1999/xlink" width="500" height="200" viewBox="0 0 2000 800">
<defs>
  <clipPath id="clip520">
    <rect x="0" y="0" width="2000" height="800"/>
  </clipPath>
</defs>
<path clip-path="url(#clip520)" d="
M0 800 L2000 800 L2000 0 L0 0  Z
  " fill="#ffffff" fill-rule="evenodd" fill-opacity="1"/>
<defs>
  <clipPath id="clip521">
    <rect x="400" y="0" width="1401" height="800"/>
  </clipPath>
</defs>
<path clip-path="url(#clip520)" d="
M174.844 664.012 L1952.76 664.012 L1952.76 47.2441 L174.844 47.2441  Z
  " fill="#ffffff" fill-rule="evenodd" fill-opacity="1"/>
<defs>
  <clipPath id="clip522">
    <rect x="174" y="47" width="1779" height="618"/>
  </clipPath>
</defs>
<polyline clip-path="url(#clip522)" style="stroke:#000000; stroke-width:2; stroke-opacity:0.1; fill:none" points="
  218.386,664.012 218.386,47.2441 
  "/>
<polyline clip-path="url(#clip522)" style="stroke:#000000; stroke-width:2; stroke-opacity:0.1; fill:none" points="
  641.94,664.012 641.94,47.2441 
  "/>
<polyline clip-path="url(#clip522)" style="stroke:#000000; stroke-width:2; stroke-opacity:0.1; fill:none" points="
  1065.49,664.012 1065.49,47.2441 
  "/>
<polyline clip-path="url(#clip522)" style="stroke:#000000; stroke-width:2; stroke-opacity:0.1; fill:none" points="
  1489.05,664.012 1489.05,47.2441 
  "/>
<polyline clip-path="url(#clip522)" style="stroke:#000000; stroke-width:2; stroke-opacity:0.1; fill:none" points="
  1912.6,664.012 1912.6,47.2441 
  "/>
<polyline clip-path="url(#clip522)" style="stroke:#000000; stroke-width:2; stroke-opacity:0.1; fill:none" points="
  174.844,581.905 1952.76,581.905 
  "/>
<polyline clip-path="url(#clip522)" style="stroke:#000000; stroke-width:2; stroke-opacity:0.1; fill:none" points="
  174.844,452.604 1952.76,452.604 
  "/>
<polyline clip-path="url(#clip522)" style="stroke:#000000; stroke-width:2; stroke-opacity:0.1; fill:none" points="
  174.844,323.303 1952.76,323.303 
  "/>
<polyline clip-path="url(#clip522)" style="stroke:#000000; stroke-width:2; stroke-opacity:0.1; fill:none" points="
  174.844,194.001 1952.76,194.001 
  "/>
<polyline clip-path="url(#clip522)" style="stroke:#000000; stroke-width:2; stroke-opacity:0.1; fill:none" points="
  174.844,64.6998 1952.76,64.6998 
  "/>
<polyline clip-path="url(#clip520)" style="stroke:#000000; stroke-width:4; stroke-opacity:1; fill:none" points="
  174.844,664.012 1952.76,664.012 
  "/>
<polyline clip-path="url(#clip520)" style="stroke:#000000; stroke-width:4; stroke-opacity:1; fill:none" points="
  174.844,664.012 174.844,47.2441 
  "/>
<polyline clip-path="url(#clip520)" style="stroke:#000000; stroke-width:4; stroke-opacity:1; fill:none" points="
  218.386,664.012 218.386,656.611 
  "/>
<polyline clip-path="url(#clip520)" style="stroke:#000000; stroke-width:4; stroke-opacity:1; fill:none" points="
  641.94,664.012 641.94,656.611 
  "/>
<polyline clip-path="url(#clip520)" style="stroke:#000000; stroke-width:4; stroke-opacity:1; fill:none" points="
  1065.49,664.012 1065.49,656.611 
  "/>
<polyline clip-path="url(#clip520)" style="stroke:#000000; stroke-width:4; stroke-opacity:1; fill:none" points="
  1489.05,664.012 1489.05,656.611 
  "/>
<polyline clip-path="url(#clip520)" style="stroke:#000000; stroke-width:4; stroke-opacity:1; fill:none" points="
  1912.6,664.012 1912.6,656.611 
  "/>
<polyline clip-path="url(#clip520)" style="stroke:#000000; stroke-width:4; stroke-opacity:1; fill:none" points="
  174.844,581.905 196.179,581.905 
  "/>
<polyline clip-path="url(#clip520)" style="stroke:#000000; stroke-width:4; stroke-opacity:1; fill:none" points="
  174.844,452.604 196.179,452.604 
  "/>
<polyline clip-path="url(#clip520)" style="stroke:#000000; stroke-width:4; stroke-opacity:1; fill:none" points="
  174.844,323.303 196.179,323.303 
  "/>
<polyline clip-path="url(#clip520)" style="stroke:#000000; stroke-width:4; stroke-opacity:1; fill:none" points="
  174.844,194.001 196.179,194.001 
  "/>
<polyline clip-path="url(#clip520)" style="stroke:#000000; stroke-width:4; stroke-opacity:1; fill:none" points="
  174.844,64.6998 196.179,64.6998 
  "/>
<path clip-path="url(#clip520)" d="M 0 0 M218.386 684.003 Q214.775 684.003 212.946 687.567 Q211.141 691.109 211.141 698.239 Q211.141 705.345 212.946 708.91 Q214.775 712.451 218.386 712.451 Q222.02 712.451 223.826 708.91 Q225.654 705.345 225.654 698.239 Q225.654 691.109 223.826 687.567 Q222.02 684.003 218.386 684.003 M218.386 680.299 Q224.196 680.299 227.252 684.905 Q230.33 689.489 230.33 698.239 Q230.33 706.965 227.252 711.572 Q224.196 716.155 218.386 716.155 Q212.576 716.155 209.497 711.572 Q206.441 706.965 206.441 698.239 Q206.441 689.489 209.497 684.905 Q212.576 680.299 218.386 680.299 Z" fill="#000000" fill-rule="evenodd" fill-opacity="1" /><path clip-path="url(#clip520)" d="M 0 0 M610.077 711.549 L626.396 711.549 L626.396 715.484 L604.452 715.484 L604.452 711.549 Q607.114 708.794 611.697 704.164 Q616.304 699.512 617.484 698.169 Q619.73 695.646 620.609 693.91 Q621.512 692.151 621.512 690.461 Q621.512 687.706 619.568 685.97 Q617.646 684.234 614.544 684.234 Q612.345 684.234 609.892 684.998 Q607.461 685.762 604.683 687.313 L604.683 682.591 Q607.507 681.456 609.961 680.878 Q612.415 680.299 614.452 680.299 Q619.822 680.299 623.017 682.984 Q626.211 685.669 626.211 690.16 Q626.211 692.29 625.401 694.211 Q624.614 696.109 622.507 698.702 Q621.929 699.373 618.827 702.59 Q615.725 705.785 610.077 711.549 Z" fill="#000000" fill-rule="evenodd" fill-opacity="1" /><path clip-path="url(#clip520)" d="M 0 0 M631.512 680.924 L649.868 680.924 L649.868 684.859 L635.794 684.859 L635.794 693.331 Q636.813 692.984 637.831 692.822 Q638.85 692.637 639.868 692.637 Q645.655 692.637 649.035 695.808 Q652.415 698.979 652.415 704.396 Q652.415 709.975 648.942 713.076 Q645.47 716.155 639.151 716.155 Q636.975 716.155 634.706 715.785 Q632.461 715.414 630.054 714.674 L630.054 709.975 Q632.137 711.109 634.359 711.664 Q636.581 712.22 639.058 712.22 Q643.063 712.22 645.401 710.114 Q647.739 708.007 647.739 704.396 Q647.739 700.785 645.401 698.678 Q643.063 696.572 639.058 696.572 Q637.183 696.572 635.308 696.989 Q633.456 697.405 631.512 698.285 L631.512 680.924 Z" fill="#000000" fill-rule="evenodd" fill-opacity="1" /><path clip-path="url(#clip520)" d="M 0 0 M667.484 684.003 Q663.873 684.003 662.044 687.567 Q660.239 691.109 660.239 698.239 Q660.239 705.345 662.044 708.91 Q663.873 712.451 667.484 712.451 Q671.118 712.451 672.924 708.91 Q674.752 705.345 674.752 698.239 Q674.752 691.109 672.924 687.567 Q671.118 684.003 667.484 684.003 M667.484 680.299 Q673.294 680.299 676.35 684.905 Q679.428 689.489 679.428 698.239 Q679.428 706.965 676.35 711.572 Q673.294 716.155 667.484 716.155 Q661.674 716.155 658.595 711.572 Q655.54 706.965 655.54 698.239 Q655.54 689.489 658.595 684.905 Q661.674 680.299 667.484 680.299 Z" fill="#000000" fill-rule="evenodd" fill-opacity="1" /><path clip-path="url(#clip520)" d="M 0 0 M1028.76 680.924 L1047.11 680.924 L1047.11 684.859 L1033.04 684.859 L1033.04 693.331 Q1034.06 692.984 1035.08 692.822 Q1036.1 692.637 1037.11 692.637 Q1042.9 692.637 1046.28 695.808 Q1049.66 698.979 1049.66 704.396 Q1049.66 709.975 1046.19 713.076 Q1042.72 716.155 1036.4 716.155 Q1034.22 716.155 1031.95 715.785 Q1029.71 715.414 1027.3 714.674 L1027.3 709.975 Q1029.38 711.109 1031.61 711.664 Q1033.83 712.22 1036.3 712.22 Q1040.31 712.22 1042.65 710.114 Q1044.99 708.007 1044.99 704.396 Q1044.99 700.785 1042.65 698.678 Q1040.31 696.572 1036.3 696.572 Q1034.43 696.572 1032.55 696.989 Q1030.7 697.405 1028.76 698.285 L1028.76 680.924 Z" fill="#000000" fill-rule="evenodd" fill-opacity="1" /><path clip-path="url(#clip520)" d="M 0 0 M1064.73 684.003 Q1061.12 684.003 1059.29 687.567 Q1057.49 691.109 1057.49 698.239 Q1057.49 705.345 1059.29 708.91 Q1061.12 712.451 1064.73 712.451 Q1068.36 712.451 1070.17 708.91 Q1072 705.345 1072 698.239 Q1072 691.109 1070.17 687.567 Q1068.36 684.003 1064.73 684.003 M1064.73 680.299 Q1070.54 680.299 1073.6 684.905 Q1076.67 689.489 1076.67 698.239 Q1076.67 706.965 1073.6 711.572 Q1070.54 716.155 1064.73 716.155 Q1058.92 716.155 1055.84 711.572 Q1052.79 706.965 1052.79 698.239 Q1052.79 689.489 1055.84 684.905 Q1058.92 680.299 1064.73 680.299 Z" fill="#000000" fill-rule="evenodd" fill-opacity="1" /><path clip-path="url(#clip520)" d="M 0 0 M1091.74 684.003 Q1088.13 684.003 1086.3 687.567 Q1084.5 691.109 1084.5 698.239 Q1084.5 705.345 1086.3 708.91 Q1088.13 712.451 1091.74 712.451 Q1095.38 712.451 1097.18 708.91 Q1099.01 705.345 1099.01 698.239 Q1099.01 691.109 1097.18 687.567 Q1095.38 684.003 1091.74 684.003 M1091.74 680.299 Q1097.55 680.299 1100.61 684.905 Q1103.69 689.489 1103.69 698.239 Q1103.69 706.965 1100.61 711.572 Q1097.55 716.155 1091.74 716.155 Q1085.93 716.155 1082.86 711.572 Q1079.8 706.965 1079.8 698.239 Q1079.8 689.489 1082.86 684.905 Q1085.93 680.299 1091.74 680.299 Z" fill="#000000" fill-rule="evenodd" fill-opacity="1" /><path clip-path="url(#clip520)" d="M 0 0 M1451.42 680.924 L1473.64 680.924 L1473.64 682.915 L1461.1 715.484 L1456.21 715.484 L1468.02 684.859 L1451.42 684.859 L1451.42 680.924 Z" fill="#000000" fill-rule="evenodd" fill-opacity="1" /><path clip-path="url(#clip520)" d="M 0 0 M1478.76 680.924 L1497.12 680.924 L1497.12 684.859 L1483.04 684.859 L1483.04 693.331 Q1484.06 692.984 1485.08 692.822 Q1486.1 692.637 1487.12 692.637 Q1492.9 692.637 1496.28 695.808 Q1499.66 698.979 1499.66 704.396 Q1499.66 709.975 1496.19 713.076 Q1492.72 716.155 1486.4 716.155 Q1484.22 716.155 1481.95 715.785 Q1479.71 715.414 1477.3 714.674 L1477.3 709.975 Q1479.38 711.109 1481.61 711.664 Q1483.83 712.22 1486.31 712.22 Q1490.31 712.22 1492.65 710.114 Q1494.99 708.007 1494.99 704.396 Q1494.99 700.785 1492.65 698.678 Q1490.31 696.572 1486.31 696.572 Q1484.43 696.572 1482.56 696.989 Q1480.7 697.405 1478.76 698.285 L1478.76 680.924 Z" fill="#000000" fill-rule="evenodd" fill-opacity="1" /><path clip-path="url(#clip520)" d="M 0 0 M1514.73 684.003 Q1511.12 684.003 1509.29 687.567 Q1507.49 691.109 1507.49 698.239 Q1507.49 705.345 1509.29 708.91 Q1511.12 712.451 1514.73 712.451 Q1518.37 712.451 1520.17 708.91 Q1522 705.345 1522 698.239 Q1522 691.109 1520.17 687.567 Q1518.37 684.003 1514.73 684.003 M1514.73 680.299 Q1520.54 680.299 1523.6 684.905 Q1526.68 689.489 1526.68 698.239 Q1526.68 706.965 1523.6 711.572 Q1520.54 716.155 1514.73 716.155 Q1508.92 716.155 1505.84 711.572 Q1502.79 706.965 1502.79 698.239 Q1502.79 689.489 1505.84 684.905 Q1508.92 680.299 1514.73 680.299 Z" fill="#000000" fill-rule="evenodd" fill-opacity="1" /><path clip-path="url(#clip520)" d="M 0 0 M1862.46 711.549 L1870.1 711.549 L1870.1 685.183 L1861.79 686.85 L1861.79 682.591 L1870.06 680.924 L1874.73 680.924 L1874.73 711.549 L1882.37 711.549 L1882.37 715.484 L1862.46 715.484 L1862.46 711.549 Z" fill="#000000" fill-rule="evenodd" fill-opacity="1" /><path clip-path="url(#clip520)" d="M 0 0 M1897.44 684.003 Q1893.83 684.003 1892 687.567 Q1890.2 691.109 1890.2 698.239 Q1890.2 705.345 1892 708.91 Q1893.83 712.451 1897.44 712.451 Q1901.08 712.451 1902.88 708.91 Q1904.71 705.345 1904.71 698.239 Q1904.71 691.109 1902.88 687.567 Q1901.08 684.003 1897.44 684.003 M1897.44 680.299 Q1903.25 680.299 1906.31 684.905 Q1909.39 689.489 1909.39 698.239 Q1909.39 706.965 1906.31 711.572 Q1903.25 716.155 1897.44 716.155 Q1891.63 716.155 1888.55 711.572 Q1885.5 706.965 1885.5 698.239 Q1885.5 689.489 1888.55 684.905 Q1891.63 680.299 1897.44 680.299 Z" fill="#000000" fill-rule="evenodd" fill-opacity="1" /><path clip-path="url(#clip520)" d="M 0 0 M1924.45 684.003 Q1920.84 684.003 1919.01 687.567 Q1917.21 691.109 1917.21 698.239 Q1917.21 705.345 1919.01 708.91 Q1920.84 712.451 1924.45 712.451 Q1928.09 712.451 1929.89 708.91 Q1931.72 705.345 1931.72 698.239 Q1931.72 691.109 1929.89 687.567 Q1928.09 684.003 1924.45 684.003 M1924.45 680.299 Q1930.26 680.299 1933.32 684.905 Q1936.4 689.489 1936.4 698.239 Q1936.4 706.965 1933.32 711.572 Q1930.26 716.155 1924.45 716.155 Q1918.64 716.155 1915.57 711.572 Q1912.51 706.965 1912.51 698.239 Q1912.51 689.489 1915.57 684.905 Q1918.64 680.299 1924.45 680.299 Z" fill="#000000" fill-rule="evenodd" fill-opacity="1" /><path clip-path="url(#clip520)" d="M 0 0 M1951.47 684.003 Q1947.86 684.003 1946.03 687.567 Q1944.22 691.109 1944.22 698.239 Q1944.22 705.345 1946.03 708.91 Q1947.86 712.451 1951.47 712.451 Q1955.1 712.451 1956.91 708.91 Q1958.74 705.345 1958.74 698.239 Q1958.74 691.109 1956.91 687.567 Q1955.1 684.003 1951.47 684.003 M1951.47 680.299 Q1957.28 680.299 1960.33 684.905 Q1963.41 689.489 1963.41 698.239 Q1963.41 706.965 1960.33 711.572 Q1957.28 716.155 1951.47 716.155 Q1945.66 716.155 1942.58 711.572 Q1939.52 706.965 1939.52 698.239 Q1939.52 689.489 1942.58 684.905 Q1945.66 680.299 1951.47 680.299 Z" fill="#000000" fill-rule="evenodd" fill-opacity="1" /><path clip-path="url(#clip520)" d="M 0 0 M138.525 595.25 L154.844 595.25 L154.844 599.185 L132.9 599.185 L132.9 595.25 Q135.562 592.496 140.145 587.866 Q144.752 583.213 145.933 581.871 Q148.178 579.348 149.057 577.611 Q149.96 575.852 149.96 574.162 Q149.96 571.408 148.016 569.672 Q146.095 567.936 142.993 567.936 Q140.794 567.936 138.34 568.699 Q135.909 569.463 133.132 571.014 L133.132 566.292 Q135.956 565.158 138.409 564.579 Q140.863 564 142.9 564 Q148.27 564 151.465 566.686 Q154.659 569.371 154.659 573.862 Q154.659 575.991 153.849 577.912 Q153.062 579.811 150.956 582.403 Q150.377 583.074 147.275 586.292 Q144.173 589.486 138.525 595.25 Z" fill="#000000" fill-rule="evenodd" fill-opacity="1" /><path clip-path="url(#clip520)" d="M 0 0 M145.261 439.398 L133.456 457.847 L145.261 457.847 L145.261 439.398 M144.034 435.324 L149.914 435.324 L149.914 457.847 L154.844 457.847 L154.844 461.736 L149.914 461.736 L149.914 469.884 L145.261 469.884 L145.261 461.736 L129.659 461.736 L129.659 457.222 L144.034 435.324 Z" fill="#000000" fill-rule="evenodd" fill-opacity="1" /><path clip-path="url(#clip520)" d="M 0 0 M143.317 321.439 Q140.169 321.439 138.317 323.592 Q136.488 325.745 136.488 329.495 Q136.488 333.222 138.317 335.397 Q140.169 337.55 143.317 337.55 Q146.465 337.55 148.294 335.397 Q150.145 333.222 150.145 329.495 Q150.145 325.745 148.294 323.592 Q146.465 321.439 143.317 321.439 M152.599 306.786 L152.599 311.046 Q150.84 310.212 149.034 309.773 Q147.252 309.333 145.493 309.333 Q140.863 309.333 138.409 312.458 Q135.979 315.583 135.632 321.902 Q136.997 319.888 139.058 318.823 Q141.118 317.736 143.595 317.736 Q148.803 317.736 151.812 320.907 Q154.844 324.055 154.844 329.495 Q154.844 334.819 151.696 338.036 Q148.548 341.254 143.317 341.254 Q137.321 341.254 134.15 336.671 Q130.979 332.064 130.979 323.337 Q130.979 315.143 134.868 310.282 Q138.757 305.398 145.308 305.398 Q147.067 305.398 148.849 305.745 Q150.655 306.092 152.599 306.786 Z" fill="#000000" fill-rule="evenodd" fill-opacity="1" /><path clip-path="url(#clip520)" d="M 0 0 M142.993 194.869 Q139.659 194.869 137.738 196.652 Q135.84 198.434 135.84 201.559 Q135.84 204.684 137.738 206.466 Q139.659 208.249 142.993 208.249 Q146.326 208.249 148.247 206.466 Q150.169 204.661 150.169 201.559 Q150.169 198.434 148.247 196.652 Q146.349 194.869 142.993 194.869 M138.317 192.879 Q135.308 192.138 133.618 190.078 Q131.951 188.017 131.951 185.054 Q131.951 180.911 134.891 178.504 Q137.854 176.096 142.993 176.096 Q148.155 176.096 151.095 178.504 Q154.034 180.911 154.034 185.054 Q154.034 188.017 152.345 190.078 Q150.678 192.138 147.692 192.879 Q151.071 193.666 152.946 195.957 Q154.844 198.249 154.844 201.559 Q154.844 206.582 151.766 209.267 Q148.71 211.952 142.993 211.952 Q137.275 211.952 134.196 209.267 Q131.141 206.582 131.141 201.559 Q131.141 198.249 133.039 195.957 Q134.937 193.666 138.317 192.879 M136.604 185.494 Q136.604 188.179 138.271 189.684 Q139.96 191.189 142.993 191.189 Q146.002 191.189 147.692 189.684 Q149.405 188.179 149.405 185.494 Q149.405 182.809 147.692 181.305 Q146.002 179.8 142.993 179.8 Q139.96 179.8 138.271 181.305 Q136.604 182.809 136.604 185.494 Z" fill="#000000" fill-rule="evenodd" fill-opacity="1" /><path clip-path="url(#clip520)" d="M 0 0 M107.923 78.0446 L115.562 78.0446 L115.562 51.679 L107.252 53.3457 L107.252 49.0864 L115.516 47.4198 L120.192 47.4198 L120.192 78.0446 L127.831 78.0446 L127.831 81.9798 L107.923 81.9798 L107.923 78.0446 Z" fill="#000000" fill-rule="evenodd" fill-opacity="1" /><path clip-path="url(#clip520)" d="M 0 0 M142.9 50.4985 Q139.289 50.4985 137.46 54.0633 Q135.655 57.6049 135.655 64.7345 Q135.655 71.841 137.46 75.4057 Q139.289 78.9474 142.9 78.9474 Q146.534 78.9474 148.34 75.4057 Q150.169 71.841 150.169 64.7345 Q150.169 57.6049 148.34 54.0633 Q146.534 50.4985 142.9 50.4985 M142.9 46.7948 Q148.71 46.7948 151.766 51.4012 Q154.844 55.9846 154.844 64.7345 Q154.844 73.4613 151.766 78.0678 Q148.71 82.6511 142.9 82.6511 Q137.09 82.6511 134.011 78.0678 Q130.956 73.4613 130.956 64.7345 Q130.956 55.9846 134.011 51.4012 Q137.09 46.7948 142.9 46.7948 Z" fill="#000000" fill-rule="evenodd" fill-opacity="1" /><path clip-path="url(#clip520)" d="M 0 0 M916.657 745.356 L956.856 745.356 L956.856 750.767 L939.987 750.767 L939.987 792.876 L933.526 792.876 L933.526 750.767 L916.657 750.767 L916.657 745.356 Z" fill="#000000" fill-rule="evenodd" fill-opacity="1" /><path clip-path="url(#clip520)" d="M 0 0 M960.994 757.228 L966.85 757.228 L966.85 792.876 L960.994 792.876 L960.994 757.228 M960.994 743.351 L966.85 743.351 L966.85 750.767 L960.994 750.767 L960.994 743.351 Z" fill="#000000" fill-rule="evenodd" fill-opacity="1" /><path clip-path="url(#clip520)" d="M 0 0 M1000.75 764.071 Q1002.94 760.124 1006 758.246 Q1009.06 756.369 1013.19 756.369 Q1018.76 756.369 1021.79 760.283 Q1024.81 764.167 1024.81 771.36 L1024.81 792.876 L1018.92 792.876 L1018.92 771.551 Q1018.92 766.426 1017.11 763.944 Q1015.29 761.461 1011.57 761.461 Q1007.02 761.461 1004.38 764.485 Q1001.73 767.509 1001.73 772.728 L1001.73 792.876 L995.846 792.876 L995.846 771.551 Q995.846 766.395 994.032 763.944 Q992.218 761.461 988.43 761.461 Q983.942 761.461 981.301 764.517 Q978.659 767.54 978.659 772.728 L978.659 792.876 L972.771 792.876 L972.771 757.228 L978.659 757.228 L978.659 762.766 Q980.664 759.488 983.465 757.928 Q986.266 756.369 990.117 756.369 Q994 756.369 996.706 758.342 Q999.443 760.315 1000.75 764.071 Z" fill="#000000" fill-rule="evenodd" fill-opacity="1" /><path clip-path="url(#clip520)" d="M 0 0 M1061.44 773.588 L1061.44 776.452 L1034.52 776.452 Q1034.9 782.5 1038.15 785.683 Q1041.42 788.834 1047.25 788.834 Q1050.62 788.834 1053.77 788.006 Q1056.96 787.179 1060.08 785.523 L1060.08 791.062 Q1056.93 792.398 1053.62 793.099 Q1050.3 793.799 1046.9 793.799 Q1038.37 793.799 1033.37 788.834 Q1028.41 783.868 1028.41 775.402 Q1028.41 766.649 1033.12 761.525 Q1037.86 756.369 1045.88 756.369 Q1053.07 756.369 1057.24 761.015 Q1061.44 765.631 1061.44 773.588 M1055.59 771.869 Q1055.52 767.063 1052.88 764.198 Q1050.27 761.334 1045.94 761.334 Q1041.04 761.334 1038.08 764.103 Q1035.15 766.872 1034.71 771.901 L1055.59 771.869 Z" fill="#000000" fill-rule="evenodd" fill-opacity="1" /><path clip-path="url(#clip520)" d="M 0 0 M1102.38 743.414 Q1098.11 750.735 1096.04 757.896 Q1093.97 765.058 1093.97 772.41 Q1093.97 779.762 1096.04 786.988 Q1098.14 794.181 1102.38 801.47 L1097.28 801.47 Q1092.51 793.99 1090.12 786.765 Q1087.77 779.54 1087.77 772.41 Q1087.77 765.312 1090.12 758.119 Q1092.48 750.926 1097.28 743.414 L1102.38 743.414 Z" fill="#000000" fill-rule="evenodd" fill-opacity="1" /><path clip-path="url(#clip520)" d="M 0 0 M1136.27 764.071 Q1138.47 760.124 1141.53 758.246 Q1144.58 756.369 1148.72 756.369 Q1154.29 756.369 1157.31 760.283 Q1160.34 764.167 1160.34 771.36 L1160.34 792.876 L1154.45 792.876 L1154.45 771.551 Q1154.45 766.426 1152.63 763.944 Q1150.82 761.461 1147.1 761.461 Q1142.54 761.461 1139.9 764.485 Q1137.26 767.509 1137.26 772.728 L1137.26 792.876 L1131.37 792.876 L1131.37 771.551 Q1131.37 766.395 1129.56 763.944 Q1127.74 761.461 1123.96 761.461 Q1119.47 761.461 1116.83 764.517 Q1114.18 767.54 1114.18 772.728 L1114.18 792.876 L1108.3 792.876 L1108.3 757.228 L1114.18 757.228 L1114.18 762.766 Q1116.19 759.488 1118.99 757.928 Q1121.79 756.369 1125.64 756.369 Q1129.53 756.369 1132.23 758.342 Q1134.97 760.315 1136.27 764.071 Z" fill="#000000" fill-rule="evenodd" fill-opacity="1" /><path clip-path="url(#clip520)" d="M 0 0 M1189.2 758.278 L1189.2 763.816 Q1186.72 762.543 1184.05 761.907 Q1181.37 761.27 1178.51 761.27 Q1174.15 761.27 1171.95 762.607 Q1169.79 763.944 1169.79 766.617 Q1169.79 768.654 1171.35 769.832 Q1172.91 770.978 1177.62 772.028 L1179.62 772.474 Q1185.86 773.811 1188.47 776.261 Q1191.11 778.68 1191.11 783.041 Q1191.11 788.006 1187.17 790.902 Q1183.25 793.799 1176.38 793.799 Q1173.51 793.799 1170.39 793.226 Q1167.31 792.685 1163.87 791.571 L1163.87 785.523 Q1167.12 787.21 1170.27 788.07 Q1173.42 788.897 1176.51 788.897 Q1180.64 788.897 1182.87 787.497 Q1185.1 786.065 1185.1 783.486 Q1185.1 781.099 1183.48 779.826 Q1181.88 778.553 1176.44 777.375 L1174.4 776.898 Q1168.96 775.752 1166.54 773.397 Q1164.12 771.01 1164.12 766.872 Q1164.12 761.843 1167.69 759.106 Q1171.25 756.369 1177.81 756.369 Q1181.06 756.369 1183.92 756.846 Q1186.79 757.323 1189.2 758.278 Z" fill="#000000" fill-rule="evenodd" fill-opacity="1" /><path clip-path="url(#clip520)" d="M 0 0 M1196.33 743.414 L1201.43 743.414 Q1206.2 750.926 1208.56 758.119 Q1210.94 765.312 1210.94 772.41 Q1210.94 779.54 1208.56 786.765 Q1206.2 793.99 1201.43 801.47 L1196.33 801.47 Q1200.57 794.181 1202.64 786.988 Q1204.74 779.762 1204.74 772.41 Q1204.74 765.058 1202.64 757.896 Q1200.57 750.735 1196.33 743.414 Z" fill="#000000" fill-rule="evenodd" fill-opacity="1" /><path clip-path="url(#clip520)" d="M 0 0 M25.4762 546.297 L25.4762 537.639 L65.23 516.569 L25.4762 516.569 L25.4762 510.331 L72.9962 510.331 L72.9962 518.988 L33.2423 540.058 L72.9962 540.058 L72.9962 546.297 L25.4762 546.297 Z" fill="#000000" fill-rule="evenodd" fill-opacity="1" /><path clip-path="url(#clip520)" d="M 0 0 M53.7081 473.696 L56.5726 473.696 L56.5726 500.623 Q62.6201 500.241 65.8029 496.994 Q68.9539 493.716 68.9539 487.891 Q68.9539 484.518 68.1264 481.367 Q67.2989 478.184 65.6438 475.065 L71.1819 475.065 Q72.5187 478.216 73.219 481.526 Q73.9192 484.836 73.9192 488.242 Q73.9192 496.772 68.9539 501.769 Q63.9887 506.734 55.5223 506.734 Q46.7694 506.734 41.6451 502.023 Q36.4888 497.281 36.4888 489.26 Q36.4888 482.067 41.1358 477.897 Q45.7509 473.696 53.7081 473.696 M51.9893 479.552 Q47.1832 479.616 44.3186 482.258 Q41.4541 484.868 41.4541 489.196 Q41.4541 494.098 44.2232 497.058 Q46.9922 499.986 52.0212 500.432 L51.9893 479.552 Z" fill="#000000" fill-rule="evenodd" fill-opacity="1" /><path clip-path="url(#clip520)" d="M 0 0 M58.9279 468.158 L37.3482 468.158 L37.3482 462.301 L58.7051 462.301 Q63.7659 462.301 66.3122 460.328 Q68.8266 458.355 68.8266 454.408 Q68.8266 449.665 65.8029 446.928 Q62.7792 444.159 57.5593 444.159 L37.3482 444.159 L37.3482 438.303 L72.9962 438.303 L72.9962 444.159 L67.5216 444.159 Q70.7682 446.292 72.3596 449.124 Q73.9192 451.925 73.9192 455.649 Q73.9192 461.792 70.0998 464.975 Q66.2803 468.158 58.9279 468.158 M36.4888 453.421 L36.4888 453.421 Z" fill="#000000" fill-rule="evenodd" fill-opacity="1" /><path clip-path="url(#clip520)" d="M 0 0 M42.8227 411.503 Q42.2498 412.49 41.9952 413.667 Q41.7087 414.813 41.7087 416.214 Q41.7087 421.179 44.9552 423.852 Q48.1699 426.494 54.2173 426.494 L72.9962 426.494 L72.9962 432.382 L37.3482 432.382 L37.3482 426.494 L42.8864 426.494 Q39.6399 424.648 38.0803 421.688 Q36.4888 418.728 36.4888 414.495 Q36.4888 413.89 36.5843 413.158 Q36.648 412.426 36.8071 411.535 L42.8227 411.503 Z" fill="#000000" fill-rule="evenodd" fill-opacity="1" /><path clip-path="url(#clip520)" d="M 0 0 M41.4541 392.979 Q41.4541 397.689 45.1462 400.427 Q48.8065 403.164 55.204 403.164 Q61.6015 403.164 65.2937 400.458 Q68.9539 397.721 68.9539 392.979 Q68.9539 388.3 65.2618 385.563 Q61.5697 382.825 55.204 382.825 Q48.8701 382.825 45.178 385.563 Q41.4541 388.3 41.4541 392.979 M36.4888 392.979 Q36.4888 385.34 41.4541 380.979 Q46.4193 376.619 55.204 376.619 Q63.9569 376.619 68.9539 380.979 Q73.9192 385.34 73.9192 392.979 Q73.9192 400.649 68.9539 405.01 Q63.9569 409.339 55.204 409.339 Q46.4193 409.339 41.4541 405.01 Q36.4888 400.649 36.4888 392.979 Z" fill="#000000" fill-rule="evenodd" fill-opacity="1" /><path clip-path="url(#clip520)" d="M 0 0 M51.4801 340.844 L72.9962 340.844 L72.9962 346.7 L51.671 346.7 Q46.6103 346.7 44.0958 348.673 Q41.5814 350.647 41.5814 354.594 Q41.5814 359.336 44.6051 362.073 Q47.6288 364.811 52.8487 364.811 L72.9962 364.811 L72.9962 370.699 L37.3482 370.699 L37.3482 364.811 L42.8864 364.811 Q39.6717 362.71 38.0803 359.877 Q36.4888 357.013 36.4888 353.289 Q36.4888 347.146 40.3083 343.995 Q44.0958 340.844 51.4801 340.844 Z" fill="#000000" fill-rule="evenodd" fill-opacity="1" /><path clip-path="url(#clip520)" d="M 0 0 M37.3482 313.98 L37.3482 308.124 L72.9962 308.124 L72.9962 313.98 L37.3482 313.98 M23.471 313.98 L23.471 308.124 L30.887 308.124 L30.887 313.98 L23.471 313.98 Z" fill="#000000" fill-rule="evenodd" fill-opacity="1" /><path clip-path="url(#clip520)" d="M 0 0 M51.4801 272.349 L72.9962 272.349 L72.9962 278.205 L51.671 278.205 Q46.6103 278.205 44.0958 280.178 Q41.5814 282.152 41.5814 286.099 Q41.5814 290.841 44.6051 293.578 Q47.6288 296.315 52.8487 296.315 L72.9962 296.315 L72.9962 302.204 L37.3482 302.204 L37.3482 296.315 L42.8864 296.315 Q39.6717 294.215 38.0803 291.382 Q36.4888 288.518 36.4888 284.794 Q36.4888 278.651 40.3083 275.5 Q44.0958 272.349 51.4801 272.349 Z" fill="#000000" fill-rule="evenodd" fill-opacity="1" /><path clip-path="url(#clip520)" d="M 0 0 M42.7591 242.748 L23.471 242.748 L23.471 236.892 L72.9962 236.892 L72.9962 242.748 L67.649 242.748 Q70.8318 244.594 72.3914 247.427 Q73.9192 250.228 73.9192 254.175 Q73.9192 260.636 68.763 264.71 Q63.6067 268.752 55.204 268.752 Q46.8013 268.752 41.6451 264.71 Q36.4888 260.636 36.4888 254.175 Q36.4888 250.228 38.0484 247.427 Q39.5762 244.594 42.7591 242.748 M55.204 262.705 Q61.6652 262.705 65.3573 260.063 Q69.0176 257.389 69.0176 252.742 Q69.0176 248.095 65.3573 245.422 Q61.6652 242.748 55.204 242.748 Q48.7428 242.748 45.0825 245.422 Q41.3904 248.095 41.3904 252.742 Q41.3904 257.389 45.0825 260.063 Q48.7428 262.705 55.204 262.705 Z" fill="#000000" fill-rule="evenodd" fill-opacity="1" /><path clip-path="url(#clip520)" d="M 0 0 M53.7081 200.257 L56.5726 200.257 L56.5726 227.184 Q62.6201 226.802 65.8029 223.555 Q68.9539 220.277 68.9539 214.453 Q68.9539 211.079 68.1264 207.928 Q67.2989 204.745 65.6438 201.626 L71.1819 201.626 Q72.5187 204.777 73.219 208.087 Q73.9192 211.397 73.9192 214.803 Q73.9192 223.333 68.9539 228.33 Q63.9887 233.295 55.5223 233.295 Q46.7694 233.295 41.6451 228.584 Q36.4888 223.842 36.4888 215.821 Q36.4888 208.628 41.1358 204.458 Q45.7509 200.257 53.7081 200.257 M51.9893 206.113 Q47.1832 206.177 44.3186 208.819 Q41.4541 211.429 41.4541 215.757 Q41.4541 220.659 44.2232 223.619 Q46.9922 226.547 52.0212 226.993 L51.9893 206.113 Z" fill="#000000" fill-rule="evenodd" fill-opacity="1" /><path clip-path="url(#clip520)" d="M 0 0 M37.3482 165.628 L54.6948 178.518 L72.9962 164.959 L72.9962 171.866 L58.9916 182.242 L72.9962 192.618 L72.9962 199.525 L54.3446 185.68 L37.3482 198.347 L37.3482 191.44 L50.0478 181.987 L37.3482 172.534 L37.3482 165.628 Z" fill="#000000" fill-rule="evenodd" fill-opacity="1" /><line clip-path="url(#clip522)" x1="418.303" y1="662.556" x2="418.303" y2="630.556" style="stroke:#000000; stroke-width:1.6; stroke-opacity:1"/>
<line clip-path="url(#clip522)" x1="516.568" y1="662.556" x2="516.568" y2="630.556" style="stroke:#000000; stroke-width:1.6; stroke-opacity:1"/>
<line clip-path="url(#clip522)" x1="526.733" y1="662.556" x2="526.733" y2="630.556" style="stroke:#000000; stroke-width:1.6; stroke-opacity:1"/>
<line clip-path="url(#clip522)" x1="626.692" y1="662.556" x2="626.692" y2="630.556" style="stroke:#000000; stroke-width:1.6; stroke-opacity:1"/>
<line clip-path="url(#clip522)" x1="679.213" y1="662.556" x2="679.213" y2="630.556" style="stroke:#000000; stroke-width:1.6; stroke-opacity:1"/>
<line clip-path="url(#clip522)" x1="994.337" y1="662.556" x2="994.337" y2="630.556" style="stroke:#000000; stroke-width:1.6; stroke-opacity:1"/>
<line clip-path="url(#clip522)" x1="997.726" y1="662.556" x2="997.726" y2="630.556" style="stroke:#000000; stroke-width:1.6; stroke-opacity:1"/>
<line clip-path="url(#clip522)" x1="1038.39" y1="662.556" x2="1038.39" y2="630.556" style="stroke:#000000; stroke-width:1.6; stroke-opacity:1"/>
<line clip-path="url(#clip522)" x1="1057.02" y1="662.556" x2="1057.02" y2="630.556" style="stroke:#000000; stroke-width:1.6; stroke-opacity:1"/>
<line clip-path="url(#clip522)" x1="1175.62" y1="662.556" x2="1175.62" y2="630.556" style="stroke:#000000; stroke-width:1.6; stroke-opacity:1"/>
<line clip-path="url(#clip522)" x1="1199.34" y1="662.556" x2="1199.34" y2="630.556" style="stroke:#000000; stroke-width:1.6; stroke-opacity:1"/>
<line clip-path="url(#clip522)" x1="1265.41" y1="662.556" x2="1265.41" y2="630.556" style="stroke:#000000; stroke-width:1.6; stroke-opacity:1"/>
<line clip-path="url(#clip522)" x1="1278.97" y1="662.556" x2="1278.97" y2="630.556" style="stroke:#000000; stroke-width:1.6; stroke-opacity:1"/>
<line clip-path="url(#clip522)" x1="1409.42" y1="662.556" x2="1409.42" y2="630.556" style="stroke:#000000; stroke-width:1.6; stroke-opacity:1"/>
<line clip-path="url(#clip522)" x1="1539.88" y1="662.556" x2="1539.88" y2="630.556" style="stroke:#000000; stroke-width:1.6; stroke-opacity:1"/>
<line clip-path="url(#clip522)" x1="1548.35" y1="662.556" x2="1548.35" y2="630.556" style="stroke:#000000; stroke-width:1.6; stroke-opacity:1"/>
<line clip-path="url(#clip522)" x1="1582.23" y1="662.556" x2="1582.23" y2="630.556" style="stroke:#000000; stroke-width:1.6; stroke-opacity:1"/>
<line clip-path="url(#clip522)" x1="1605.95" y1="662.556" x2="1605.95" y2="630.556" style="stroke:#000000; stroke-width:1.6; stroke-opacity:1"/>
<line clip-path="url(#clip522)" x1="1697.44" y1="662.556" x2="1697.44" y2="630.556" style="stroke:#000000; stroke-width:1.6; stroke-opacity:1"/>
<line clip-path="url(#clip522)" x1="1700.83" y1="662.556" x2="1700.83" y2="630.556" style="stroke:#000000; stroke-width:1.6; stroke-opacity:1"/>
<line clip-path="url(#clip522)" x1="1748.26" y1="662.556" x2="1748.26" y2="630.556" style="stroke:#000000; stroke-width:1.6; stroke-opacity:1"/>
<line clip-path="url(#clip522)" x1="1878.72" y1="662.556" x2="1878.72" y2="630.556" style="stroke:#000000; stroke-width:1.6; stroke-opacity:1"/>
<line clip-path="url(#clip522)" x1="287.849" y1="597.905" x2="287.849" y2="565.905" style="stroke:#000000; stroke-width:1.6; stroke-opacity:1"/>
<line clip-path="url(#clip522)" x1="343.758" y1="597.905" x2="343.758" y2="565.905" style="stroke:#000000; stroke-width:1.6; stroke-opacity:1"/>
<line clip-path="url(#clip522)" x1="413.221" y1="597.905" x2="413.221" y2="565.905" style="stroke:#000000; stroke-width:1.6; stroke-opacity:1"/>
<line clip-path="url(#clip522)" x1="657.188" y1="597.905" x2="657.188" y2="565.905" style="stroke:#000000; stroke-width:1.6; stroke-opacity:1"/>
<line clip-path="url(#clip522)" x1="796.114" y1="597.905" x2="796.114" y2="565.905" style="stroke:#000000; stroke-width:1.6; stroke-opacity:1"/>
<line clip-path="url(#clip522)" x1="857.106" y1="597.905" x2="857.106" y2="565.905" style="stroke:#000000; stroke-width:1.6; stroke-opacity:1"/>
<line clip-path="url(#clip522)" x1="899.461" y1="597.905" x2="899.461" y2="565.905" style="stroke:#000000; stroke-width:1.6; stroke-opacity:1"/>
<line clip-path="url(#clip522)" x1="950.288" y1="597.905" x2="950.288" y2="565.905" style="stroke:#000000; stroke-width:1.6; stroke-opacity:1"/>
<line clip-path="url(#clip522)" x1="951.982" y1="597.905" x2="951.982" y2="565.905" style="stroke:#000000; stroke-width:1.6; stroke-opacity:1"/>
<line clip-path="url(#clip522)" x1="953.676" y1="597.905" x2="953.676" y2="565.905" style="stroke:#000000; stroke-width:1.6; stroke-opacity:1"/>
<line clip-path="url(#clip522)" x1="982.478" y1="597.905" x2="982.478" y2="565.905" style="stroke:#000000; stroke-width:1.6; stroke-opacity:1"/>
<line clip-path="url(#clip522)" x1="1035" y1="597.905" x2="1035" y2="565.905" style="stroke:#000000; stroke-width:1.6; stroke-opacity:1"/>
<line clip-path="url(#clip522)" x1="1067.19" y1="597.905" x2="1067.19" y2="565.905" style="stroke:#000000; stroke-width:1.6; stroke-opacity:1"/>
<line clip-path="url(#clip522)" x1="1087.52" y1="597.905" x2="1087.52" y2="565.905" style="stroke:#000000; stroke-width:1.6; stroke-opacity:1"/>
<line clip-path="url(#clip522)" x1="1163.76" y1="597.905" x2="1163.76" y2="565.905" style="stroke:#000000; stroke-width:1.6; stroke-opacity:1"/>
<line clip-path="url(#clip522)" x1="1260.33" y1="597.905" x2="1260.33" y2="565.905" style="stroke:#000000; stroke-width:1.6; stroke-opacity:1"/>
<line clip-path="url(#clip522)" x1="1380.62" y1="597.905" x2="1380.62" y2="565.905" style="stroke:#000000; stroke-width:1.6; stroke-opacity:1"/>
<line clip-path="url(#clip522)" x1="1394.17" y1="597.905" x2="1394.17" y2="565.905" style="stroke:#000000; stroke-width:1.6; stroke-opacity:1"/>
<line clip-path="url(#clip522)" x1="1422.97" y1="597.905" x2="1422.97" y2="565.905" style="stroke:#000000; stroke-width:1.6; stroke-opacity:1"/>
<line clip-path="url(#clip522)" x1="1497.52" y1="597.905" x2="1497.52" y2="565.905" style="stroke:#000000; stroke-width:1.6; stroke-opacity:1"/>
<line clip-path="url(#clip522)" x1="1504.3" y1="597.905" x2="1504.3" y2="565.905" style="stroke:#000000; stroke-width:1.6; stroke-opacity:1"/>
<line clip-path="url(#clip522)" x1="1533.1" y1="597.905" x2="1533.1" y2="565.905" style="stroke:#000000; stroke-width:1.6; stroke-opacity:1"/>
<line clip-path="url(#clip522)" x1="1541.57" y1="597.905" x2="1541.57" y2="565.905" style="stroke:#000000; stroke-width:1.6; stroke-opacity:1"/>
<line clip-path="url(#clip522)" x1="1558.51" y1="597.905" x2="1558.51" y2="565.905" style="stroke:#000000; stroke-width:1.6; stroke-opacity:1"/>
<line clip-path="url(#clip522)" x1="1661.86" y1="597.905" x2="1661.86" y2="565.905" style="stroke:#000000; stroke-width:1.6; stroke-opacity:1"/>
<line clip-path="url(#clip522)" x1="1699.13" y1="597.905" x2="1699.13" y2="565.905" style="stroke:#000000; stroke-width:1.6; stroke-opacity:1"/>
<line clip-path="url(#clip522)" x1="1799.09" y1="597.905" x2="1799.09" y2="565.905" style="stroke:#000000; stroke-width:1.6; stroke-opacity:1"/>
<line clip-path="url(#clip522)" x1="1804.17" y1="597.905" x2="1804.17" y2="565.905" style="stroke:#000000; stroke-width:1.6; stroke-opacity:1"/>
<line clip-path="url(#clip522)" x1="1805.87" y1="597.905" x2="1805.87" y2="565.905" style="stroke:#000000; stroke-width:1.6; stroke-opacity:1"/>
<line clip-path="url(#clip522)" x1="1819.42" y1="597.905" x2="1819.42" y2="565.905" style="stroke:#000000; stroke-width:1.6; stroke-opacity:1"/>
<line clip-path="url(#clip522)" x1="1893.97" y1="597.905" x2="1893.97" y2="565.905" style="stroke:#000000; stroke-width:1.6; stroke-opacity:1"/>
<line clip-path="url(#clip522)" x1="1900.74" y1="597.905" x2="1900.74" y2="565.905" style="stroke:#000000; stroke-width:1.6; stroke-opacity:1"/>
<line clip-path="url(#clip522)" x1="235.328" y1="533.255" x2="235.328" y2="501.255" style="stroke:#000000; stroke-width:1.6; stroke-opacity:1"/>
<line clip-path="url(#clip522)" x1="321.733" y1="533.255" x2="321.733" y2="501.255" style="stroke:#000000; stroke-width:1.6; stroke-opacity:1"/>
<line clip-path="url(#clip522)" x1="338.675" y1="533.255" x2="338.675" y2="501.255" style="stroke:#000000; stroke-width:1.6; stroke-opacity:1"/>
<line clip-path="url(#clip522)" x1="347.146" y1="533.255" x2="347.146" y2="501.255" style="stroke:#000000; stroke-width:1.6; stroke-opacity:1"/>
<line clip-path="url(#clip522)" x1="399.667" y1="533.255" x2="399.667" y2="501.255" style="stroke:#000000; stroke-width:1.6; stroke-opacity:1"/>
<line clip-path="url(#clip522)" x1="494.543" y1="533.255" x2="494.543" y2="501.255" style="stroke:#000000; stroke-width:1.6; stroke-opacity:1"/>
<line clip-path="url(#clip522)" x1="508.097" y1="533.255" x2="508.097" y2="501.255" style="stroke:#000000; stroke-width:1.6; stroke-opacity:1"/>
<line clip-path="url(#clip522)" x1="543.676" y1="533.255" x2="543.676" y2="501.255" style="stroke:#000000; stroke-width:1.6; stroke-opacity:1"/>
<line clip-path="url(#clip522)" x1="562.312" y1="533.255" x2="562.312" y2="501.255" style="stroke:#000000; stroke-width:1.6; stroke-opacity:1"/>
<line clip-path="url(#clip522)" x1="628.386" y1="533.255" x2="628.386" y2="501.255" style="stroke:#000000; stroke-width:1.6; stroke-opacity:1"/>
<line clip-path="url(#clip522)" x1="850.329" y1="533.255" x2="850.329" y2="501.255" style="stroke:#000000; stroke-width:1.6; stroke-opacity:1"/>
<line clip-path="url(#clip522)" x1="896.073" y1="533.255" x2="896.073" y2="501.255" style="stroke:#000000; stroke-width:1.6; stroke-opacity:1"/>
<line clip-path="url(#clip522)" x1="931.651" y1="533.255" x2="931.651" y2="501.255" style="stroke:#000000; stroke-width:1.6; stroke-opacity:1"/>
<line clip-path="url(#clip522)" x1="950.288" y1="533.255" x2="950.288" y2="501.255" style="stroke:#000000; stroke-width:1.6; stroke-opacity:1"/>
<line clip-path="url(#clip522)" x1="955.37" y1="533.255" x2="955.37" y2="501.255" style="stroke:#000000; stroke-width:1.6; stroke-opacity:1"/>
<line clip-path="url(#clip522)" x1="1024.83" y1="533.255" x2="1024.83" y2="501.255" style="stroke:#000000; stroke-width:1.6; stroke-opacity:1"/>
<line clip-path="url(#clip522)" x1="1140.04" y1="533.255" x2="1140.04" y2="501.255" style="stroke:#000000; stroke-width:1.6; stroke-opacity:1"/>
<line clip-path="url(#clip522)" x1="1175.62" y1="533.255" x2="1175.62" y2="501.255" style="stroke:#000000; stroke-width:1.6; stroke-opacity:1"/>
<line clip-path="url(#clip522)" x1="1229.83" y1="533.255" x2="1229.83" y2="501.255" style="stroke:#000000; stroke-width:1.6; stroke-opacity:1"/>
<line clip-path="url(#clip522)" x1="1289.13" y1="533.255" x2="1289.13" y2="501.255" style="stroke:#000000; stroke-width:1.6; stroke-opacity:1"/>
<line clip-path="url(#clip522)" x1="1380.62" y1="533.255" x2="1380.62" y2="501.255" style="stroke:#000000; stroke-width:1.6; stroke-opacity:1"/>
<line clip-path="url(#clip522)" x1="1395.87" y1="533.255" x2="1395.87" y2="501.255" style="stroke:#000000; stroke-width:1.6; stroke-opacity:1"/>
<line clip-path="url(#clip522)" x1="1419.59" y1="533.255" x2="1419.59" y2="501.255" style="stroke:#000000; stroke-width:1.6; stroke-opacity:1"/>
<line clip-path="url(#clip522)" x1="1526.32" y1="533.255" x2="1526.32" y2="501.255" style="stroke:#000000; stroke-width:1.6; stroke-opacity:1"/>
<line clip-path="url(#clip522)" x1="1633.06" y1="533.255" x2="1633.06" y2="501.255" style="stroke:#000000; stroke-width:1.6; stroke-opacity:1"/>
<line clip-path="url(#clip522)" x1="1666.94" y1="533.255" x2="1666.94" y2="501.255" style="stroke:#000000; stroke-width:1.6; stroke-opacity:1"/>
<line clip-path="url(#clip522)" x1="1710.99" y1="533.255" x2="1710.99" y2="501.255" style="stroke:#000000; stroke-width:1.6; stroke-opacity:1"/>
<line clip-path="url(#clip522)" x1="1716.07" y1="533.255" x2="1716.07" y2="501.255" style="stroke:#000000; stroke-width:1.6; stroke-opacity:1"/>
<line clip-path="url(#clip522)" x1="1749.96" y1="533.255" x2="1749.96" y2="501.255" style="stroke:#000000; stroke-width:1.6; stroke-opacity:1"/>
<line clip-path="url(#clip522)" x1="1768.59" y1="533.255" x2="1768.59" y2="501.255" style="stroke:#000000; stroke-width:1.6; stroke-opacity:1"/>
<line clip-path="url(#clip522)" x1="1785.54" y1="533.255" x2="1785.54" y2="501.255" style="stroke:#000000; stroke-width:1.6; stroke-opacity:1"/>
<line clip-path="url(#clip522)" x1="1855" y1="533.255" x2="1855" y2="501.255" style="stroke:#000000; stroke-width:1.6; stroke-opacity:1"/>
<line clip-path="url(#clip522)" x1="1870.25" y1="533.255" x2="1870.25" y2="501.255" style="stroke:#000000; stroke-width:1.6; stroke-opacity:1"/>
<line clip-path="url(#clip522)" x1="1888.88" y1="533.255" x2="1888.88" y2="501.255" style="stroke:#000000; stroke-width:1.6; stroke-opacity:1"/>
<line clip-path="url(#clip522)" x1="1902.44" y1="533.255" x2="1902.44" y2="501.255" style="stroke:#000000; stroke-width:1.6; stroke-opacity:1"/>
<line clip-path="url(#clip522)" x1="357.312" y1="468.604" x2="357.312" y2="436.604" style="stroke:#000000; stroke-width:1.6; stroke-opacity:1"/>
<line clip-path="url(#clip522)" x1="365.783" y1="468.604" x2="365.783" y2="436.604" style="stroke:#000000; stroke-width:1.6; stroke-opacity:1"/>
<line clip-path="url(#clip522)" x1="370.865" y1="468.604" x2="370.865" y2="436.604" style="stroke:#000000; stroke-width:1.6; stroke-opacity:1"/>
<line clip-path="url(#clip522)" x1="381.031" y1="468.604" x2="381.031" y2="436.604" style="stroke:#000000; stroke-width:1.6; stroke-opacity:1"/>
<line clip-path="url(#clip522)" x1="425.08" y1="468.604" x2="425.08" y2="436.604" style="stroke:#000000; stroke-width:1.6; stroke-opacity:1"/>
<line clip-path="url(#clip522)" x1="447.105" y1="468.604" x2="447.105" y2="436.604" style="stroke:#000000; stroke-width:1.6; stroke-opacity:1"/>
<line clip-path="url(#clip522)" x1="521.651" y1="468.604" x2="521.651" y2="436.604" style="stroke:#000000; stroke-width:1.6; stroke-opacity:1"/>
<line clip-path="url(#clip522)" x1="670.742" y1="468.604" x2="670.742" y2="436.604" style="stroke:#000000; stroke-width:1.6; stroke-opacity:1"/>
<line clip-path="url(#clip522)" x1="682.601" y1="468.604" x2="682.601" y2="436.604" style="stroke:#000000; stroke-width:1.6; stroke-opacity:1"/>
<line clip-path="url(#clip522)" x1="689.378" y1="468.604" x2="689.378" y2="436.604" style="stroke:#000000; stroke-width:1.6; stroke-opacity:1"/>
<line clip-path="url(#clip522)" x1="730.039" y1="468.604" x2="730.039" y2="436.604" style="stroke:#000000; stroke-width:1.6; stroke-opacity:1"/>
<line clip-path="url(#clip522)" x1="826.61" y1="468.604" x2="826.61" y2="436.604" style="stroke:#000000; stroke-width:1.6; stroke-opacity:1"/>
<line clip-path="url(#clip522)" x1="846.94" y1="468.604" x2="846.94" y2="436.604" style="stroke:#000000; stroke-width:1.6; stroke-opacity:1"/>
<line clip-path="url(#clip522)" x1="896.073" y1="468.604" x2="896.073" y2="436.604" style="stroke:#000000; stroke-width:1.6; stroke-opacity:1"/>
<line clip-path="url(#clip522)" x1="985.866" y1="468.604" x2="985.866" y2="436.604" style="stroke:#000000; stroke-width:1.6; stroke-opacity:1"/>
<line clip-path="url(#clip522)" x1="1035" y1="468.604" x2="1035" y2="436.604" style="stroke:#000000; stroke-width:1.6; stroke-opacity:1"/>
<line clip-path="url(#clip522)" x1="1107.85" y1="468.604" x2="1107.85" y2="436.604" style="stroke:#000000; stroke-width:1.6; stroke-opacity:1"/>
<line clip-path="url(#clip522)" x1="1126.49" y1="468.604" x2="1126.49" y2="436.604" style="stroke:#000000; stroke-width:1.6; stroke-opacity:1"/>
<line clip-path="url(#clip522)" x1="1170.54" y1="468.604" x2="1170.54" y2="436.604" style="stroke:#000000; stroke-width:1.6; stroke-opacity:1"/>
<line clip-path="url(#clip522)" x1="1207.81" y1="468.604" x2="1207.81" y2="436.604" style="stroke:#000000; stroke-width:1.6; stroke-opacity:1"/>
<line clip-path="url(#clip522)" x1="1221.36" y1="468.604" x2="1221.36" y2="436.604" style="stroke:#000000; stroke-width:1.6; stroke-opacity:1"/>
<line clip-path="url(#clip522)" x1="1246.78" y1="468.604" x2="1246.78" y2="436.604" style="stroke:#000000; stroke-width:1.6; stroke-opacity:1"/>
<line clip-path="url(#clip522)" x1="1272.19" y1="468.604" x2="1272.19" y2="436.604" style="stroke:#000000; stroke-width:1.6; stroke-opacity:1"/>
<line clip-path="url(#clip522)" x1="1641.53" y1="468.604" x2="1641.53" y2="436.604" style="stroke:#000000; stroke-width:1.6; stroke-opacity:1"/>
<line clip-path="url(#clip522)" x1="1726.24" y1="468.604" x2="1726.24" y2="436.604" style="stroke:#000000; stroke-width:1.6; stroke-opacity:1"/>
<line clip-path="url(#clip522)" x1="1741.49" y1="468.604" x2="1741.49" y2="436.604" style="stroke:#000000; stroke-width:1.6; stroke-opacity:1"/>
<line clip-path="url(#clip522)" x1="1751.65" y1="468.604" x2="1751.65" y2="436.604" style="stroke:#000000; stroke-width:1.6; stroke-opacity:1"/>
<line clip-path="url(#clip522)" x1="1771.98" y1="468.604" x2="1771.98" y2="436.604" style="stroke:#000000; stroke-width:1.6; stroke-opacity:1"/>
<line clip-path="url(#clip522)" x1="1785.54" y1="468.604" x2="1785.54" y2="436.604" style="stroke:#000000; stroke-width:1.6; stroke-opacity:1"/>
<line clip-path="url(#clip522)" x1="1824.5" y1="468.604" x2="1824.5" y2="436.604" style="stroke:#000000; stroke-width:1.6; stroke-opacity:1"/>
<line clip-path="url(#clip522)" x1="1841.45" y1="468.604" x2="1841.45" y2="436.604" style="stroke:#000000; stroke-width:1.6; stroke-opacity:1"/>
<line clip-path="url(#clip522)" x1="225.163" y1="403.953" x2="225.163" y2="371.953" style="stroke:#000000; stroke-width:1.6; stroke-opacity:1"/>
<line clip-path="url(#clip522)" x1="286.155" y1="403.953" x2="286.155" y2="371.953" style="stroke:#000000; stroke-width:1.6; stroke-opacity:1"/>
<line clip-path="url(#clip522)" x1="301.403" y1="403.953" x2="301.403" y2="371.953" style="stroke:#000000; stroke-width:1.6; stroke-opacity:1"/>
<line clip-path="url(#clip522)" x1="374.254" y1="403.953" x2="374.254" y2="371.953" style="stroke:#000000; stroke-width:1.6; stroke-opacity:1"/>
<line clip-path="url(#clip522)" x1="389.502" y1="403.953" x2="389.502" y2="371.953" style="stroke:#000000; stroke-width:1.6; stroke-opacity:1"/>
<line clip-path="url(#clip522)" x1="453.882" y1="403.953" x2="453.882" y2="371.953" style="stroke:#000000; stroke-width:1.6; stroke-opacity:1"/>
<line clip-path="url(#clip522)" x1="516.568" y1="403.953" x2="516.568" y2="371.953" style="stroke:#000000; stroke-width:1.6; stroke-opacity:1"/>
<line clip-path="url(#clip522)" x1="562.312" y1="403.953" x2="562.312" y2="371.953" style="stroke:#000000; stroke-width:1.6; stroke-opacity:1"/>
<line clip-path="url(#clip522)" x1="611.444" y1="403.953" x2="611.444" y2="371.953" style="stroke:#000000; stroke-width:1.6; stroke-opacity:1"/>
<line clip-path="url(#clip522)" x1="685.99" y1="403.953" x2="685.99" y2="371.953" style="stroke:#000000; stroke-width:1.6; stroke-opacity:1"/>
<line clip-path="url(#clip522)" x1="687.684" y1="403.953" x2="687.684" y2="371.953" style="stroke:#000000; stroke-width:1.6; stroke-opacity:1"/>
<line clip-path="url(#clip522)" x1="814.75" y1="403.953" x2="814.75" y2="371.953" style="stroke:#000000; stroke-width:1.6; stroke-opacity:1"/>
<line clip-path="url(#clip522)" x1="841.858" y1="403.953" x2="841.858" y2="371.953" style="stroke:#000000; stroke-width:1.6; stroke-opacity:1"/>
<line clip-path="url(#clip522)" x1="918.098" y1="403.953" x2="918.098" y2="371.953" style="stroke:#000000; stroke-width:1.6; stroke-opacity:1"/>
<line clip-path="url(#clip522)" x1="948.593" y1="403.953" x2="948.593" y2="371.953" style="stroke:#000000; stroke-width:1.6; stroke-opacity:1"/>
<line clip-path="url(#clip522)" x1="1023.14" y1="403.953" x2="1023.14" y2="371.953" style="stroke:#000000; stroke-width:1.6; stroke-opacity:1"/>
<line clip-path="url(#clip522)" x1="1048.55" y1="403.953" x2="1048.55" y2="371.953" style="stroke:#000000; stroke-width:1.6; stroke-opacity:1"/>
<line clip-path="url(#clip522)" x1="1112.93" y1="403.953" x2="1112.93" y2="371.953" style="stroke:#000000; stroke-width:1.6; stroke-opacity:1"/>
<line clip-path="url(#clip522)" x1="1265.41" y1="403.953" x2="1265.41" y2="371.953" style="stroke:#000000; stroke-width:1.6; stroke-opacity:1"/>
<line clip-path="url(#clip522)" x1="1278.97" y1="403.953" x2="1278.97" y2="371.953" style="stroke:#000000; stroke-width:1.6; stroke-opacity:1"/>
<line clip-path="url(#clip522)" x1="1289.13" y1="403.953" x2="1289.13" y2="371.953" style="stroke:#000000; stroke-width:1.6; stroke-opacity:1"/>
<line clip-path="url(#clip522)" x1="1317.93" y1="403.953" x2="1317.93" y2="371.953" style="stroke:#000000; stroke-width:1.6; stroke-opacity:1"/>
<line clip-path="url(#clip522)" x1="1338.26" y1="403.953" x2="1338.26" y2="371.953" style="stroke:#000000; stroke-width:1.6; stroke-opacity:1"/>
<line clip-path="url(#clip522)" x1="1365.37" y1="403.953" x2="1365.37" y2="371.953" style="stroke:#000000; stroke-width:1.6; stroke-opacity:1"/>
<line clip-path="url(#clip522)" x1="1443.3" y1="403.953" x2="1443.3" y2="371.953" style="stroke:#000000; stroke-width:1.6; stroke-opacity:1"/>
<line clip-path="url(#clip522)" x1="1541.57" y1="403.953" x2="1541.57" y2="371.953" style="stroke:#000000; stroke-width:1.6; stroke-opacity:1"/>
<line clip-path="url(#clip522)" x1="1636.45" y1="403.953" x2="1636.45" y2="371.953" style="stroke:#000000; stroke-width:1.6; stroke-opacity:1"/>
<line clip-path="url(#clip522)" x1="1729.63" y1="403.953" x2="1729.63" y2="371.953" style="stroke:#000000; stroke-width:1.6; stroke-opacity:1"/>
<line clip-path="url(#clip522)" x1="1770.29" y1="403.953" x2="1770.29" y2="371.953" style="stroke:#000000; stroke-width:1.6; stroke-opacity:1"/>
<line clip-path="url(#clip522)" x1="1771.98" y1="403.953" x2="1771.98" y2="371.953" style="stroke:#000000; stroke-width:1.6; stroke-opacity:1"/>
<line clip-path="url(#clip522)" x1="1782.15" y1="403.953" x2="1782.15" y2="371.953" style="stroke:#000000; stroke-width:1.6; stroke-opacity:1"/>
<line clip-path="url(#clip522)" x1="1849.92" y1="403.953" x2="1849.92" y2="371.953" style="stroke:#000000; stroke-width:1.6; stroke-opacity:1"/>
<line clip-path="url(#clip522)" x1="267.518" y1="339.303" x2="267.518" y2="307.303" style="stroke:#000000; stroke-width:1.6; stroke-opacity:1"/>
<line clip-path="url(#clip522)" x1="309.874" y1="339.303" x2="309.874" y2="307.303" style="stroke:#000000; stroke-width:1.6; stroke-opacity:1"/>
<line clip-path="url(#clip522)" x1="316.65" y1="339.303" x2="316.65" y2="307.303" style="stroke:#000000; stroke-width:1.6; stroke-opacity:1"/>
<line clip-path="url(#clip522)" x1="350.535" y1="339.303" x2="350.535" y2="307.303" style="stroke:#000000; stroke-width:1.6; stroke-opacity:1"/>
<line clip-path="url(#clip522)" x1="470.824" y1="339.303" x2="470.824" y2="307.303" style="stroke:#000000; stroke-width:1.6; stroke-opacity:1"/>
<line clip-path="url(#clip522)" x1="526.733" y1="339.303" x2="526.733" y2="307.303" style="stroke:#000000; stroke-width:1.6; stroke-opacity:1"/>
<line clip-path="url(#clip522)" x1="547.064" y1="339.303" x2="547.064" y2="307.303" style="stroke:#000000; stroke-width:1.6; stroke-opacity:1"/>
<line clip-path="url(#clip522)" x1="601.279" y1="339.303" x2="601.279" y2="307.303" style="stroke:#000000; stroke-width:1.6; stroke-opacity:1"/>
<line clip-path="url(#clip522)" x1="602.973" y1="339.303" x2="602.973" y2="307.303" style="stroke:#000000; stroke-width:1.6; stroke-opacity:1"/>
<line clip-path="url(#clip522)" x1="608.056" y1="339.303" x2="608.056" y2="307.303" style="stroke:#000000; stroke-width:1.6; stroke-opacity:1"/>
<line clip-path="url(#clip522)" x1="626.692" y1="339.303" x2="626.692" y2="307.303" style="stroke:#000000; stroke-width:1.6; stroke-opacity:1"/>
<line clip-path="url(#clip522)" x1="696.155" y1="339.303" x2="696.155" y2="307.303" style="stroke:#000000; stroke-width:1.6; stroke-opacity:1"/>
<line clip-path="url(#clip522)" x1="738.511" y1="339.303" x2="738.511" y2="307.303" style="stroke:#000000; stroke-width:1.6; stroke-opacity:1"/>
<line clip-path="url(#clip522)" x1="757.147" y1="339.303" x2="757.147" y2="307.303" style="stroke:#000000; stroke-width:1.6; stroke-opacity:1"/>
<line clip-path="url(#clip522)" x1="923.18" y1="339.303" x2="923.18" y2="307.303" style="stroke:#000000; stroke-width:1.6; stroke-opacity:1"/>
<line clip-path="url(#clip522)" x1="950.288" y1="339.303" x2="950.288" y2="307.303" style="stroke:#000000; stroke-width:1.6; stroke-opacity:1"/>
<line clip-path="url(#clip522)" x1="999.42" y1="339.303" x2="999.42" y2="307.303" style="stroke:#000000; stroke-width:1.6; stroke-opacity:1"/>
<line clip-path="url(#clip522)" x1="1079.05" y1="339.303" x2="1079.05" y2="307.303" style="stroke:#000000; stroke-width:1.6; stroke-opacity:1"/>
<line clip-path="url(#clip522)" x1="1102.77" y1="339.303" x2="1102.77" y2="307.303" style="stroke:#000000; stroke-width:1.6; stroke-opacity:1"/>
<line clip-path="url(#clip522)" x1="1118.02" y1="339.303" x2="1118.02" y2="307.303" style="stroke:#000000; stroke-width:1.6; stroke-opacity:1"/>
<line clip-path="url(#clip522)" x1="1148.51" y1="339.303" x2="1148.51" y2="307.303" style="stroke:#000000; stroke-width:1.6; stroke-opacity:1"/>
<line clip-path="url(#clip522)" x1="1233.22" y1="339.303" x2="1233.22" y2="307.303" style="stroke:#000000; stroke-width:1.6; stroke-opacity:1"/>
<line clip-path="url(#clip522)" x1="1273.88" y1="339.303" x2="1273.88" y2="307.303" style="stroke:#000000; stroke-width:1.6; stroke-opacity:1"/>
<line clip-path="url(#clip522)" x1="1351.82" y1="339.303" x2="1351.82" y2="307.303" style="stroke:#000000; stroke-width:1.6; stroke-opacity:1"/>
<line clip-path="url(#clip522)" x1="1568.68" y1="339.303" x2="1568.68" y2="307.303" style="stroke:#000000; stroke-width:1.6; stroke-opacity:1"/>
<line clip-path="url(#clip522)" x1="1580.54" y1="339.303" x2="1580.54" y2="307.303" style="stroke:#000000; stroke-width:1.6; stroke-opacity:1"/>
<line clip-path="url(#clip522)" x1="1629.67" y1="339.303" x2="1629.67" y2="307.303" style="stroke:#000000; stroke-width:1.6; stroke-opacity:1"/>
<line clip-path="url(#clip522)" x1="1665.25" y1="339.303" x2="1665.25" y2="307.303" style="stroke:#000000; stroke-width:1.6; stroke-opacity:1"/>
<line clip-path="url(#clip522)" x1="1743.18" y1="339.303" x2="1743.18" y2="307.303" style="stroke:#000000; stroke-width:1.6; stroke-opacity:1"/>
<line clip-path="url(#clip522)" x1="1748.26" y1="339.303" x2="1748.26" y2="307.303" style="stroke:#000000; stroke-width:1.6; stroke-opacity:1"/>
<line clip-path="url(#clip522)" x1="1839.75" y1="339.303" x2="1839.75" y2="307.303" style="stroke:#000000; stroke-width:1.6; stroke-opacity:1"/>
<line clip-path="url(#clip522)" x1="1865.16" y1="339.303" x2="1865.16" y2="307.303" style="stroke:#000000; stroke-width:1.6; stroke-opacity:1"/>
<line clip-path="url(#clip522)" x1="247.188" y1="274.652" x2="247.188" y2="242.652" style="stroke:#000000; stroke-width:1.6; stroke-opacity:1"/>
<line clip-path="url(#clip522)" x1="253.964" y1="274.652" x2="253.964" y2="242.652" style="stroke:#000000; stroke-width:1.6; stroke-opacity:1"/>
<line clip-path="url(#clip522)" x1="279.378" y1="274.652" x2="279.378" y2="242.652" style="stroke:#000000; stroke-width:1.6; stroke-opacity:1"/>
<line clip-path="url(#clip522)" x1="357.312" y1="274.652" x2="357.312" y2="242.652" style="stroke:#000000; stroke-width:1.6; stroke-opacity:1"/>
<line clip-path="url(#clip522)" x1="364.089" y1="274.652" x2="364.089" y2="242.652" style="stroke:#000000; stroke-width:1.6; stroke-opacity:1"/>
<line clip-path="url(#clip522)" x1="392.89" y1="274.652" x2="392.89" y2="242.652" style="stroke:#000000; stroke-width:1.6; stroke-opacity:1"/>
<line clip-path="url(#clip522)" x1="403.056" y1="274.652" x2="403.056" y2="242.652" style="stroke:#000000; stroke-width:1.6; stroke-opacity:1"/>
<line clip-path="url(#clip522)" x1="467.436" y1="274.652" x2="467.436" y2="242.652" style="stroke:#000000; stroke-width:1.6; stroke-opacity:1"/>
<line clip-path="url(#clip522)" x1="531.816" y1="274.652" x2="531.816" y2="242.652" style="stroke:#000000; stroke-width:1.6; stroke-opacity:1"/>
<line clip-path="url(#clip522)" x1="541.981" y1="274.652" x2="541.981" y2="242.652" style="stroke:#000000; stroke-width:1.6; stroke-opacity:1"/>
<line clip-path="url(#clip522)" x1="743.593" y1="274.652" x2="743.593" y2="242.652" style="stroke:#000000; stroke-width:1.6; stroke-opacity:1"/>
<line clip-path="url(#clip522)" x1="748.676" y1="274.652" x2="748.676" y2="242.652" style="stroke:#000000; stroke-width:1.6; stroke-opacity:1"/>
<line clip-path="url(#clip522)" x1="823.221" y1="274.652" x2="823.221" y2="242.652" style="stroke:#000000; stroke-width:1.6; stroke-opacity:1"/>
<line clip-path="url(#clip522)" x1="926.569" y1="274.652" x2="926.569" y2="242.652" style="stroke:#000000; stroke-width:1.6; stroke-opacity:1"/>
<line clip-path="url(#clip522)" x1="1006.2" y1="274.652" x2="1006.2" y2="242.652" style="stroke:#000000; stroke-width:1.6; stroke-opacity:1"/>
<line clip-path="url(#clip522)" x1="1065.49" y1="274.652" x2="1065.49" y2="242.652" style="stroke:#000000; stroke-width:1.6; stroke-opacity:1"/>
<line clip-path="url(#clip522)" x1="1067.19" y1="274.652" x2="1067.19" y2="242.652" style="stroke:#000000; stroke-width:1.6; stroke-opacity:1"/>
<line clip-path="url(#clip522)" x1="1070.58" y1="274.652" x2="1070.58" y2="242.652" style="stroke:#000000; stroke-width:1.6; stroke-opacity:1"/>
<line clip-path="url(#clip522)" x1="1095.99" y1="274.652" x2="1095.99" y2="242.652" style="stroke:#000000; stroke-width:1.6; stroke-opacity:1"/>
<line clip-path="url(#clip522)" x1="1146.82" y1="274.652" x2="1146.82" y2="242.652" style="stroke:#000000; stroke-width:1.6; stroke-opacity:1"/>
<line clip-path="url(#clip522)" x1="1187.48" y1="274.652" x2="1187.48" y2="242.652" style="stroke:#000000; stroke-width:1.6; stroke-opacity:1"/>
<line clip-path="url(#clip522)" x1="1358.59" y1="274.652" x2="1358.59" y2="242.652" style="stroke:#000000; stroke-width:1.6; stroke-opacity:1"/>
<line clip-path="url(#clip522)" x1="1456.86" y1="274.652" x2="1456.86" y2="242.652" style="stroke:#000000; stroke-width:1.6; stroke-opacity:1"/>
<line clip-path="url(#clip522)" x1="1477.19" y1="274.652" x2="1477.19" y2="242.652" style="stroke:#000000; stroke-width:1.6; stroke-opacity:1"/>
<line clip-path="url(#clip522)" x1="1538.18" y1="274.652" x2="1538.18" y2="242.652" style="stroke:#000000; stroke-width:1.6; stroke-opacity:1"/>
<line clip-path="url(#clip522)" x1="1550.04" y1="274.652" x2="1550.04" y2="242.652" style="stroke:#000000; stroke-width:1.6; stroke-opacity:1"/>
<line clip-path="url(#clip522)" x1="1551.73" y1="274.652" x2="1551.73" y2="242.652" style="stroke:#000000; stroke-width:1.6; stroke-opacity:1"/>
<line clip-path="url(#clip522)" x1="1556.82" y1="274.652" x2="1556.82" y2="242.652" style="stroke:#000000; stroke-width:1.6; stroke-opacity:1"/>
<line clip-path="url(#clip522)" x1="1585.62" y1="274.652" x2="1585.62" y2="242.652" style="stroke:#000000; stroke-width:1.6; stroke-opacity:1"/>
<line clip-path="url(#clip522)" x1="1604.26" y1="274.652" x2="1604.26" y2="242.652" style="stroke:#000000; stroke-width:1.6; stroke-opacity:1"/>
<line clip-path="url(#clip522)" x1="1627.97" y1="274.652" x2="1627.97" y2="242.652" style="stroke:#000000; stroke-width:1.6; stroke-opacity:1"/>
<line clip-path="url(#clip522)" x1="1697.44" y1="274.652" x2="1697.44" y2="242.652" style="stroke:#000000; stroke-width:1.6; stroke-opacity:1"/>
<line clip-path="url(#clip522)" x1="1802.48" y1="274.652" x2="1802.48" y2="242.652" style="stroke:#000000; stroke-width:1.6; stroke-opacity:1"/>
<line clip-path="url(#clip522)" x1="1865.16" y1="274.652" x2="1865.16" y2="242.652" style="stroke:#000000; stroke-width:1.6; stroke-opacity:1"/>
<line clip-path="url(#clip522)" x1="1866.86" y1="274.652" x2="1866.86" y2="242.652" style="stroke:#000000; stroke-width:1.6; stroke-opacity:1"/>
<line clip-path="url(#clip522)" x1="1877.02" y1="274.652" x2="1877.02" y2="242.652" style="stroke:#000000; stroke-width:1.6; stroke-opacity:1"/>
<line clip-path="url(#clip522)" x1="238.716" y1="210.001" x2="238.716" y2="178.001" style="stroke:#000000; stroke-width:1.6; stroke-opacity:1"/>
<line clip-path="url(#clip522)" x1="294.626" y1="210.001" x2="294.626" y2="178.001" style="stroke:#000000; stroke-width:1.6; stroke-opacity:1"/>
<line clip-path="url(#clip522)" x1="350.535" y1="210.001" x2="350.535" y2="178.001" style="stroke:#000000; stroke-width:1.6; stroke-opacity:1"/>
<line clip-path="url(#clip522)" x1="480.99" y1="210.001" x2="480.99" y2="178.001" style="stroke:#000000; stroke-width:1.6; stroke-opacity:1"/>
<line clip-path="url(#clip522)" x1="504.709" y1="210.001" x2="504.709" y2="178.001" style="stroke:#000000; stroke-width:1.6; stroke-opacity:1"/>
<line clip-path="url(#clip522)" x1="521.651" y1="210.001" x2="521.651" y2="178.001" style="stroke:#000000; stroke-width:1.6; stroke-opacity:1"/>
<line clip-path="url(#clip522)" x1="757.147" y1="210.001" x2="757.147" y2="178.001" style="stroke:#000000; stroke-width:1.6; stroke-opacity:1"/>
<line clip-path="url(#clip522)" x1="819.833" y1="210.001" x2="819.833" y2="178.001" style="stroke:#000000; stroke-width:1.6; stroke-opacity:1"/>
<line clip-path="url(#clip522)" x1="848.635" y1="210.001" x2="848.635" y2="178.001" style="stroke:#000000; stroke-width:1.6; stroke-opacity:1"/>
<line clip-path="url(#clip522)" x1="868.965" y1="210.001" x2="868.965" y2="178.001" style="stroke:#000000; stroke-width:1.6; stroke-opacity:1"/>
<line clip-path="url(#clip522)" x1="935.04" y1="210.001" x2="935.04" y2="178.001" style="stroke:#000000; stroke-width:1.6; stroke-opacity:1"/>
<line clip-path="url(#clip522)" x1="1019.75" y1="210.001" x2="1019.75" y2="178.001" style="stroke:#000000; stroke-width:1.6; stroke-opacity:1"/>
<line clip-path="url(#clip522)" x1="1038.39" y1="210.001" x2="1038.39" y2="178.001" style="stroke:#000000; stroke-width:1.6; stroke-opacity:1"/>
<line clip-path="url(#clip522)" x1="1048.55" y1="210.001" x2="1048.55" y2="178.001" style="stroke:#000000; stroke-width:1.6; stroke-opacity:1"/>
<line clip-path="url(#clip522)" x1="1084.13" y1="210.001" x2="1084.13" y2="178.001" style="stroke:#000000; stroke-width:1.6; stroke-opacity:1"/>
<line clip-path="url(#clip522)" x1="1112.93" y1="210.001" x2="1112.93" y2="178.001" style="stroke:#000000; stroke-width:1.6; stroke-opacity:1"/>
<line clip-path="url(#clip522)" x1="1151.9" y1="210.001" x2="1151.9" y2="178.001" style="stroke:#000000; stroke-width:1.6; stroke-opacity:1"/>
<line clip-path="url(#clip522)" x1="1177.31" y1="210.001" x2="1177.31" y2="178.001" style="stroke:#000000; stroke-width:1.6; stroke-opacity:1"/>
<line clip-path="url(#clip522)" x1="1182.4" y1="210.001" x2="1182.4" y2="178.001" style="stroke:#000000; stroke-width:1.6; stroke-opacity:1"/>
<line clip-path="url(#clip522)" x1="1260.33" y1="210.001" x2="1260.33" y2="178.001" style="stroke:#000000; stroke-width:1.6; stroke-opacity:1"/>
<line clip-path="url(#clip522)" x1="1470.41" y1="210.001" x2="1470.41" y2="178.001" style="stroke:#000000; stroke-width:1.6; stroke-opacity:1"/>
<line clip-path="url(#clip522)" x1="1583.92" y1="210.001" x2="1583.92" y2="178.001" style="stroke:#000000; stroke-width:1.6; stroke-opacity:1"/>
<line clip-path="url(#clip522)" x1="1604.26" y1="210.001" x2="1604.26" y2="178.001" style="stroke:#000000; stroke-width:1.6; stroke-opacity:1"/>
<line clip-path="url(#clip522)" x1="1639.83" y1="210.001" x2="1639.83" y2="178.001" style="stroke:#000000; stroke-width:1.6; stroke-opacity:1"/>
<line clip-path="url(#clip522)" x1="1656.78" y1="210.001" x2="1656.78" y2="178.001" style="stroke:#000000; stroke-width:1.6; stroke-opacity:1"/>
<line clip-path="url(#clip522)" x1="1812.64" y1="210.001" x2="1812.64" y2="178.001" style="stroke:#000000; stroke-width:1.6; stroke-opacity:1"/>
<line clip-path="url(#clip522)" x1="1871.94" y1="210.001" x2="1871.94" y2="178.001" style="stroke:#000000; stroke-width:1.6; stroke-opacity:1"/>
<line clip-path="url(#clip522)" x1="281.072" y1="145.35" x2="281.072" y2="113.35" style="stroke:#000000; stroke-width:1.6; stroke-opacity:1"/>
<line clip-path="url(#clip522)" x1="282.766" y1="145.35" x2="282.766" y2="113.35" style="stroke:#000000; stroke-width:1.6; stroke-opacity:1"/>
<line clip-path="url(#clip522)" x1="381.031" y1="145.35" x2="381.031" y2="113.35" style="stroke:#000000; stroke-width:1.6; stroke-opacity:1"/>
<line clip-path="url(#clip522)" x1="411.527" y1="145.35" x2="411.527" y2="113.35" style="stroke:#000000; stroke-width:1.6; stroke-opacity:1"/>
<line clip-path="url(#clip522)" x1="436.94" y1="145.35" x2="436.94" y2="113.35" style="stroke:#000000; stroke-width:1.6; stroke-opacity:1"/>
<line clip-path="url(#clip522)" x1="509.791" y1="145.35" x2="509.791" y2="113.35" style="stroke:#000000; stroke-width:1.6; stroke-opacity:1"/>
<line clip-path="url(#clip522)" x1="525.039" y1="145.35" x2="525.039" y2="113.35" style="stroke:#000000; stroke-width:1.6; stroke-opacity:1"/>
<line clip-path="url(#clip522)" x1="538.593" y1="145.35" x2="538.593" y2="113.35" style="stroke:#000000; stroke-width:1.6; stroke-opacity:1"/>
<line clip-path="url(#clip522)" x1="577.56" y1="145.35" x2="577.56" y2="113.35" style="stroke:#000000; stroke-width:1.6; stroke-opacity:1"/>
<line clip-path="url(#clip522)" x1="580.948" y1="145.35" x2="580.948" y2="113.35" style="stroke:#000000; stroke-width:1.6; stroke-opacity:1"/>
<line clip-path="url(#clip522)" x1="587.725" y1="145.35" x2="587.725" y2="113.35" style="stroke:#000000; stroke-width:1.6; stroke-opacity:1"/>
<line clip-path="url(#clip522)" x1="647.023" y1="145.35" x2="647.023" y2="113.35" style="stroke:#000000; stroke-width:1.6; stroke-opacity:1"/>
<line clip-path="url(#clip522)" x1="650.411" y1="145.35" x2="650.411" y2="113.35" style="stroke:#000000; stroke-width:1.6; stroke-opacity:1"/>
<line clip-path="url(#clip522)" x1="721.568" y1="145.35" x2="721.568" y2="113.35" style="stroke:#000000; stroke-width:1.6; stroke-opacity:1"/>
<line clip-path="url(#clip522)" x1="802.891" y1="145.35" x2="802.891" y2="113.35" style="stroke:#000000; stroke-width:1.6; stroke-opacity:1"/>
<line clip-path="url(#clip522)" x1="858.8" y1="145.35" x2="858.8" y2="113.35" style="stroke:#000000; stroke-width:1.6; stroke-opacity:1"/>
<line clip-path="url(#clip522)" x1="1075.66" y1="145.35" x2="1075.66" y2="113.35" style="stroke:#000000; stroke-width:1.6; stroke-opacity:1"/>
<line clip-path="url(#clip522)" x1="1145.12" y1="145.35" x2="1145.12" y2="113.35" style="stroke:#000000; stroke-width:1.6; stroke-opacity:1"/>
<line clip-path="url(#clip522)" x1="1167.15" y1="145.35" x2="1167.15" y2="113.35" style="stroke:#000000; stroke-width:1.6; stroke-opacity:1"/>
<line clip-path="url(#clip522)" x1="1216.28" y1="145.35" x2="1216.28" y2="113.35" style="stroke:#000000; stroke-width:1.6; stroke-opacity:1"/>
<line clip-path="url(#clip522)" x1="1394.17" y1="145.35" x2="1394.17" y2="113.35" style="stroke:#000000; stroke-width:1.6; stroke-opacity:1"/>
<line clip-path="url(#clip522)" x1="1443.3" y1="145.35" x2="1443.3" y2="113.35" style="stroke:#000000; stroke-width:1.6; stroke-opacity:1"/>
<line clip-path="url(#clip522)" x1="1446.69" y1="145.35" x2="1446.69" y2="113.35" style="stroke:#000000; stroke-width:1.6; stroke-opacity:1"/>
<line clip-path="url(#clip522)" x1="1512.77" y1="145.35" x2="1512.77" y2="113.35" style="stroke:#000000; stroke-width:1.6; stroke-opacity:1"/>
<line clip-path="url(#clip522)" x1="1529.71" y1="145.35" x2="1529.71" y2="113.35" style="stroke:#000000; stroke-width:1.6; stroke-opacity:1"/>
<line clip-path="url(#clip522)" x1="1592.4" y1="145.35" x2="1592.4" y2="113.35" style="stroke:#000000; stroke-width:1.6; stroke-opacity:1"/>
<line clip-path="url(#clip522)" x1="1673.72" y1="145.35" x2="1673.72" y2="113.35" style="stroke:#000000; stroke-width:1.6; stroke-opacity:1"/>
<line clip-path="url(#clip522)" x1="1722.85" y1="145.35" x2="1722.85" y2="113.35" style="stroke:#000000; stroke-width:1.6; stroke-opacity:1"/>
<line clip-path="url(#clip522)" x1="1821.12" y1="145.35" x2="1821.12" y2="113.35" style="stroke:#000000; stroke-width:1.6; stroke-opacity:1"/>
<line clip-path="url(#clip522)" x1="237.022" y1="80.6998" x2="237.022" y2="48.6998" style="stroke:#000000; stroke-width:1.6; stroke-opacity:1"/>
<line clip-path="url(#clip522)" x1="242.105" y1="80.6998" x2="242.105" y2="48.6998" style="stroke:#000000; stroke-width:1.6; stroke-opacity:1"/>
<line clip-path="url(#clip522)" x1="303.097" y1="80.6998" x2="303.097" y2="48.6998" style="stroke:#000000; stroke-width:1.6; stroke-opacity:1"/>
<line clip-path="url(#clip522)" x1="326.816" y1="80.6998" x2="326.816" y2="48.6998" style="stroke:#000000; stroke-width:1.6; stroke-opacity:1"/>
<line clip-path="url(#clip522)" x1="452.188" y1="80.6998" x2="452.188" y2="48.6998" style="stroke:#000000; stroke-width:1.6; stroke-opacity:1"/>
<line clip-path="url(#clip522)" x1="730.039" y1="80.6998" x2="730.039" y2="48.6998" style="stroke:#000000; stroke-width:1.6; stroke-opacity:1"/>
<line clip-path="url(#clip522)" x1="821.527" y1="80.6998" x2="821.527" y2="48.6998" style="stroke:#000000; stroke-width:1.6; stroke-opacity:1"/>
<line clip-path="url(#clip522)" x1="885.907" y1="80.6998" x2="885.907" y2="48.6998" style="stroke:#000000; stroke-width:1.6; stroke-opacity:1"/>
<line clip-path="url(#clip522)" x1="1033.3" y1="80.6998" x2="1033.3" y2="48.6998" style="stroke:#000000; stroke-width:1.6; stroke-opacity:1"/>
<line clip-path="url(#clip522)" x1="1045.16" y1="80.6998" x2="1045.16" y2="48.6998" style="stroke:#000000; stroke-width:1.6; stroke-opacity:1"/>
<line clip-path="url(#clip522)" x1="1106.16" y1="80.6998" x2="1106.16" y2="48.6998" style="stroke:#000000; stroke-width:1.6; stroke-opacity:1"/>
<line clip-path="url(#clip522)" x1="1111.24" y1="80.6998" x2="1111.24" y2="48.6998" style="stroke:#000000; stroke-width:1.6; stroke-opacity:1"/>
<line clip-path="url(#clip522)" x1="1131.57" y1="80.6998" x2="1131.57" y2="48.6998" style="stroke:#000000; stroke-width:1.6; stroke-opacity:1"/>
<line clip-path="url(#clip522)" x1="1187.48" y1="80.6998" x2="1187.48" y2="48.6998" style="stroke:#000000; stroke-width:1.6; stroke-opacity:1"/>
<line clip-path="url(#clip522)" x1="1194.25" y1="80.6998" x2="1194.25" y2="48.6998" style="stroke:#000000; stroke-width:1.6; stroke-opacity:1"/>
<line clip-path="url(#clip522)" x1="1240" y1="80.6998" x2="1240" y2="48.6998" style="stroke:#000000; stroke-width:1.6; stroke-opacity:1"/>
<line clip-path="url(#clip522)" x1="1478.88" y1="80.6998" x2="1478.88" y2="48.6998" style="stroke:#000000; stroke-width:1.6; stroke-opacity:1"/>
<line clip-path="url(#clip522)" x1="1480.58" y1="80.6998" x2="1480.58" y2="48.6998" style="stroke:#000000; stroke-width:1.6; stroke-opacity:1"/>
<line clip-path="url(#clip522)" x1="1524.63" y1="80.6998" x2="1524.63" y2="48.6998" style="stroke:#000000; stroke-width:1.6; stroke-opacity:1"/>
<line clip-path="url(#clip522)" x1="1563.59" y1="80.6998" x2="1563.59" y2="48.6998" style="stroke:#000000; stroke-width:1.6; stroke-opacity:1"/>
<line clip-path="url(#clip522)" x1="1587.31" y1="80.6998" x2="1587.31" y2="48.6998" style="stroke:#000000; stroke-width:1.6; stroke-opacity:1"/>
<line clip-path="url(#clip522)" x1="1595.78" y1="80.6998" x2="1595.78" y2="48.6998" style="stroke:#000000; stroke-width:1.6; stroke-opacity:1"/>
<line clip-path="url(#clip522)" x1="1641.53" y1="80.6998" x2="1641.53" y2="48.6998" style="stroke:#000000; stroke-width:1.6; stroke-opacity:1"/>
<line clip-path="url(#clip522)" x1="1668.64" y1="80.6998" x2="1668.64" y2="48.6998" style="stroke:#000000; stroke-width:1.6; stroke-opacity:1"/>
<line clip-path="url(#clip522)" x1="1680.5" y1="80.6998" x2="1680.5" y2="48.6998" style="stroke:#000000; stroke-width:1.6; stroke-opacity:1"/>
<line clip-path="url(#clip522)" x1="1705.91" y1="80.6998" x2="1705.91" y2="48.6998" style="stroke:#000000; stroke-width:1.6; stroke-opacity:1"/>
<line clip-path="url(#clip522)" x1="1712.69" y1="80.6998" x2="1712.69" y2="48.6998" style="stroke:#000000; stroke-width:1.6; stroke-opacity:1"/>
<line clip-path="url(#clip522)" x1="1870.25" y1="80.6998" x2="1870.25" y2="48.6998" style="stroke:#000000; stroke-width:1.6; stroke-opacity:1"/>
</svg>
