<?xml version="1.0" encoding="utf-8"?>
<svg xmlns="http://www.w3.org/2000/svg" xmlns:xlink="http://www.w3.org/1999/xlink" width="500" height="200" viewBox="0 0 2000 800">
<defs>
  <clipPath id="clip790">
    <rect x="0" y="0" width="2000" height="800"/>
  </clipPath>
</defs>
<path clip-path="url(#clip790)" d="
M0 800 L2000 800 L2000 0 L0 0  Z
  " fill="#ffffff" fill-rule="evenodd" fill-opacity="1"/>
<defs>
  <clipPath id="clip791">
    <rect x="400" y="0" width="1401" height="800"/>
  </clipPath>
</defs>
<path clip-path="url(#clip790)" d="
M174.844 664.012 L1952.76 664.012 L1952.76 47.2441 L174.844 47.2441  Z
  " fill="#ffffff" fill-rule="evenodd" fill-opacity="1"/>
<defs>
  <clipPath id="clip792">
    <rect x="174" y="47" width="1779" height="618"/>
  </clipPath>
</defs>
<polyline clip-path="url(#clip792)" style="stroke:#000000; stroke-width:2; stroke-opacity:0.1; fill:none" points="
  174.844,664.012 174.844,47.2441 
  "/>
<polyline clip-path="url(#clip792)" style="stroke:#000000; stroke-width:2; stroke-opacity:0.1; fill:none" points="
  614.922,664.012 614.922,47.2441 
  "/>
<polyline clip-path="url(#clip792)" style="stroke:#000000; stroke-width:2; stroke-opacity:0.1; fill:none" points="
  1055,664.012 1055,47.2441 
  "/>
<polyline clip-path="url(#clip792)" style="stroke:#000000; stroke-width:2; stroke-opacity:0.1; fill:none" points="
  1495.08,664.012 1495.08,47.2441 
  "/>
<polyline clip-path="url(#clip792)" style="stroke:#000000; stroke-width:2; stroke-opacity:0.1; fill:none" points="
  1935.15,664.012 1935.15,47.2441 
  "/>
<polyline clip-path="url(#clip792)" style="stroke:#000000; stroke-width:2; stroke-opacity:0.1; fill:none" points="
  174.844,581.905 1952.76,581.905 
  "/>
<polyline clip-path="url(#clip792)" style="stroke:#000000; stroke-width:2; stroke-opacity:0.1; fill:none" points="
  174.844,452.604 1952.76,452.604 
  "/>
<polyline clip-path="url(#clip792)" style="stroke:#000000; stroke-width:2; stroke-opacity:0.1; fill:none" points="
  174.844,323.303 1952.76,323.303 
  "/>
<polyline clip-path="url(#clip792)" style="stroke:#000000; stroke-width:2; stroke-opacity:0.1; fill:none" points="
  174.844,194.001 1952.76,194.001 
  "/>
<polyline clip-path="url(#clip792)" style="stroke:#000000; stroke-width:2; stroke-opacity:0.1; fill:none" points="
  174.844,64.6998 1952.76,64.6998 
  "/>
<polyline clip-path="url(#clip790)" style="stroke:#000000; stroke-width:4; stroke-opacity:1; fill:none" points="
  174.844,664.012 1952.76,664.012 
  "/>
<polyline clip-path="url(#clip790)" style="stroke:#000000; stroke-width:4; stroke-opacity:1; fill:none" points="
  174.844,664.012 174.844,47.2441 
  "/>
<polyline clip-path="url(#clip790)" style="stroke:#000000; stroke-width:4; stroke-opacity:1; fill:none" points="
  174.844,664.012 174.844,656.611 
  "/>
<polyline clip-path="url(#clip790)" style="stroke:#000000; stroke-width:4; stroke-opacity:1; fill:none" points="
  614.922,664.012 614.922,656.611 
  "/>
<polyline clip-path="url(#clip790)" style="stroke:#000000; stroke-width:4; stroke-opacity:1; fill:none" points="
  1055,664.012 1055,656.611 
  "/>
<polyline clip-path="url(#clip790)" style="stroke:#000000; stroke-width:4; stroke-opacity:1; fill:none" points="
  1495.08,664.012 1495.08,656.611 
  "/>
<polyline clip-path="url(#clip790)" style="stroke:#000000; stroke-width:4; stroke-opacity:1; fill:none" points="
  1935.15,664.012 1935.15,656.611 
  "/>
<polyline clip-path="url(#clip790)" style="stroke:#000000; stroke-width:4; stroke-opacity:1; fill:none" points="
  174.844,581.905 196.179,581.905 
  "/>
<polyline clip-path="url(#clip790)" style="stroke:#000000; stroke-width:4; stroke-opacity:1; fill:none" points="
  174.844,452.604 196.179,452.604 
  "/>
<polyline clip-path="url(#clip790)" style="stroke:#000000; stroke-width:4; stroke-opacity:1; fill:none" points="
  174.844,323.303 196.179,323.303 
  "/>
<polyline clip-path="url(#clip790)" style="stroke:#000000; stroke-width:4; stroke-opacity:1; fill:none" points="
  174.844,194.001 196.179,194.001 
  "/>
<polyline clip-path="url(#clip790)" style="stroke:#000000; stroke-width:4; stroke-opacity:1; fill:none" points="
  174.844,64.6998 196.179,64.6998 
  "/>
<path clip-path="url(#clip790)" d="M 0 0 M174.844 684.003 Q171.233 684.003 169.405 687.567 Q167.599 691.109 167.599 698.239 Q167.599 705.345 169.405 708.91 Q171.233 712.451 174.844 712.451 Q178.479 712.451 180.284 708.91 Q182.113 705.345 182.113 698.239 Q182.113 691.109 180.284 687.567 Q178.479 684.003 174.844 684.003 M174.844 680.299 Q180.655 680.299 183.71 684.905 Q186.789 689.489 186.789 698.239 Q186.789 706.965 183.71 711.572 Q180.655 716.155 174.844 716.155 Q169.034 716.155 165.956 711.572 Q162.9 706.965 162.9 698.239 Q162.9 689.489 165.956 684.905 Q169.034 680.299 174.844 680.299 Z" fill="#000000" fill-rule="evenodd" fill-opacity="1" /><path clip-path="url(#clip790)" d="M 0 0 M583.058 711.549 L599.378 711.549 L599.378 715.484 L577.433 715.484 L577.433 711.549 Q580.095 708.794 584.679 704.164 Q589.285 699.512 590.466 698.169 Q592.711 695.646 593.591 693.91 Q594.493 692.151 594.493 690.461 Q594.493 687.706 592.549 685.97 Q590.628 684.234 587.526 684.234 Q585.327 684.234 582.873 684.998 Q580.443 685.762 577.665 687.313 L577.665 682.591 Q580.489 681.456 582.943 680.878 Q585.396 680.299 587.433 680.299 Q592.804 680.299 595.998 682.984 Q599.192 685.669 599.192 690.16 Q599.192 692.29 598.382 694.211 Q597.595 696.109 595.489 698.702 Q594.91 699.373 591.808 702.59 Q588.706 705.785 583.058 711.549 Z" fill="#000000" fill-rule="evenodd" fill-opacity="1" /><path clip-path="url(#clip790)" d="M 0 0 M604.493 680.924 L622.85 680.924 L622.85 684.859 L608.776 684.859 L608.776 693.331 Q609.794 692.984 610.813 692.822 Q611.831 692.637 612.85 692.637 Q618.637 692.637 622.016 695.808 Q625.396 698.979 625.396 704.396 Q625.396 709.975 621.924 713.076 Q618.452 716.155 612.132 716.155 Q609.956 716.155 607.688 715.785 Q605.442 715.414 603.035 714.674 L603.035 709.975 Q605.118 711.109 607.341 711.664 Q609.563 712.22 612.04 712.22 Q616.044 712.22 618.382 710.114 Q620.72 708.007 620.72 704.396 Q620.72 700.785 618.382 698.678 Q616.044 696.572 612.04 696.572 Q610.165 696.572 608.29 696.989 Q606.438 697.405 604.493 698.285 L604.493 680.924 Z" fill="#000000" fill-rule="evenodd" fill-opacity="1" /><path clip-path="url(#clip790)" d="M 0 0 M640.465 684.003 Q636.854 684.003 635.026 687.567 Q633.22 691.109 633.22 698.239 Q633.22 705.345 635.026 708.91 Q636.854 712.451 640.465 712.451 Q644.1 712.451 645.905 708.91 Q647.734 705.345 647.734 698.239 Q647.734 691.109 645.905 687.567 Q644.1 684.003 640.465 684.003 M640.465 680.299 Q646.276 680.299 649.331 684.905 Q652.41 689.489 652.41 698.239 Q652.41 706.965 649.331 711.572 Q646.276 716.155 640.465 716.155 Q634.655 716.155 631.577 711.572 Q628.521 706.965 628.521 698.239 Q628.521 689.489 631.577 684.905 Q634.655 680.299 640.465 680.299 Z" fill="#000000" fill-rule="evenodd" fill-opacity="1" /><path clip-path="url(#clip790)" d="M 0 0 M1018.26 680.924 L1036.62 680.924 L1036.62 684.859 L1022.55 684.859 L1022.55 693.331 Q1023.56 692.984 1024.58 692.822 Q1025.6 692.637 1026.62 692.637 Q1032.41 692.637 1035.79 695.808 Q1039.17 698.979 1039.17 704.396 Q1039.17 709.975 1035.69 713.076 Q1032.22 716.155 1025.9 716.155 Q1023.73 716.155 1021.46 715.785 Q1019.21 715.414 1016.8 714.674 L1016.8 709.975 Q1018.89 711.109 1021.11 711.664 Q1023.33 712.22 1025.81 712.22 Q1029.81 712.22 1032.15 710.114 Q1034.49 708.007 1034.49 704.396 Q1034.49 700.785 1032.15 698.678 Q1029.81 696.572 1025.81 696.572 Q1023.93 696.572 1022.06 696.989 Q1020.21 697.405 1018.26 698.285 L1018.26 680.924 Z" fill="#000000" fill-rule="evenodd" fill-opacity="1" /><path clip-path="url(#clip790)" d="M 0 0 M1054.23 684.003 Q1050.62 684.003 1048.79 687.567 Q1046.99 691.109 1046.99 698.239 Q1046.99 705.345 1048.79 708.91 Q1050.62 712.451 1054.23 712.451 Q1057.87 712.451 1059.67 708.91 Q1061.5 705.345 1061.5 698.239 Q1061.5 691.109 1059.67 687.567 Q1057.87 684.003 1054.23 684.003 M1054.23 680.299 Q1060.04 680.299 1063.1 684.905 Q1066.18 689.489 1066.18 698.239 Q1066.18 706.965 1063.1 711.572 Q1060.04 716.155 1054.23 716.155 Q1048.42 716.155 1045.35 711.572 Q1042.29 706.965 1042.29 698.239 Q1042.29 689.489 1045.35 684.905 Q1048.42 680.299 1054.23 680.299 Z" fill="#000000" fill-rule="evenodd" fill-opacity="1" /><path clip-path="url(#clip790)" d="M 0 0 M1081.25 684.003 Q1077.64 684.003 1075.81 687.567 Q1074 691.109 1074 698.239 Q1074 705.345 1075.81 708.91 Q1077.64 712.451 1081.25 712.451 Q1084.88 712.451 1086.69 708.91 Q1088.52 705.345 1088.52 698.239 Q1088.52 691.109 1086.69 687.567 Q1084.88 684.003 1081.25 684.003 M1081.25 680.299 Q1087.06 680.299 1090.11 684.905 Q1093.19 689.489 1093.19 698.239 Q1093.19 706.965 1090.11 711.572 Q1087.06 716.155 1081.25 716.155 Q1075.44 716.155 1072.36 711.572 Q1069.3 706.965 1069.3 698.239 Q1069.3 689.489 1072.36 684.905 Q1075.44 680.299 1081.25 680.299 Z" fill="#000000" fill-rule="evenodd" fill-opacity="1" /><path clip-path="url(#clip790)" d="M 0 0 M1457.45 680.924 L1479.67 680.924 L1479.67 682.915 L1467.12 715.484 L1462.24 715.484 L1474.05 684.859 L1457.45 684.859 L1457.45 680.924 Z" fill="#000000" fill-rule="evenodd" fill-opacity="1" /><path clip-path="url(#clip790)" d="M 0 0 M1484.79 680.924 L1503.14 680.924 L1503.14 684.859 L1489.07 684.859 L1489.07 693.331 Q1490.09 692.984 1491.11 692.822 Q1492.12 692.637 1493.14 692.637 Q1498.93 692.637 1502.31 695.808 Q1505.69 698.979 1505.69 704.396 Q1505.69 709.975 1502.22 713.076 Q1498.74 716.155 1492.43 716.155 Q1490.25 716.155 1487.98 715.785 Q1485.74 715.414 1483.33 714.674 L1483.33 709.975 Q1485.41 711.109 1487.63 711.664 Q1489.86 712.22 1492.33 712.22 Q1496.34 712.22 1498.68 710.114 Q1501.01 708.007 1501.01 704.396 Q1501.01 700.785 1498.68 698.678 Q1496.34 696.572 1492.33 696.572 Q1490.46 696.572 1488.58 696.989 Q1486.73 697.405 1484.79 698.285 L1484.79 680.924 Z" fill="#000000" fill-rule="evenodd" fill-opacity="1" /><path clip-path="url(#clip790)" d="M 0 0 M1520.76 684.003 Q1517.15 684.003 1515.32 687.567 Q1513.51 691.109 1513.51 698.239 Q1513.51 705.345 1515.32 708.91 Q1517.15 712.451 1520.76 712.451 Q1524.39 712.451 1526.2 708.91 Q1528.03 705.345 1528.03 698.239 Q1528.03 691.109 1526.2 687.567 Q1524.39 684.003 1520.76 684.003 M1520.76 680.299 Q1526.57 680.299 1529.62 684.905 Q1532.7 689.489 1532.7 698.239 Q1532.7 706.965 1529.62 711.572 Q1526.57 716.155 1520.76 716.155 Q1514.95 716.155 1511.87 711.572 Q1508.81 706.965 1508.81 698.239 Q1508.81 689.489 1511.87 684.905 Q1514.95 680.299 1520.76 680.299 Z" fill="#000000" fill-rule="evenodd" fill-opacity="1" /><path clip-path="url(#clip790)" d="M 0 0 M1885.01 711.549 L1892.65 711.549 L1892.65 685.183 L1884.34 686.85 L1884.34 682.591 L1892.61 680.924 L1897.28 680.924 L1897.28 711.549 L1904.92 711.549 L1904.92 715.484 L1885.01 715.484 L1885.01 711.549 Z" fill="#000000" fill-rule="evenodd" fill-opacity="1" /><path clip-path="url(#clip790)" d="M 0 0 M1919.99 684.003 Q1916.38 684.003 1914.55 687.567 Q1912.75 691.109 1912.75 698.239 Q1912.75 705.345 1914.55 708.91 Q1916.38 712.451 1919.99 712.451 Q1923.63 712.451 1925.43 708.91 Q1927.26 705.345 1927.26 698.239 Q1927.26 691.109 1925.43 687.567 Q1923.63 684.003 1919.99 684.003 M1919.99 680.299 Q1925.8 680.299 1928.86 684.905 Q1931.94 689.489 1931.94 698.239 Q1931.94 706.965 1928.86 711.572 Q1925.8 716.155 1919.99 716.155 Q1914.18 716.155 1911.1 711.572 Q1908.05 706.965 1908.05 698.239 Q1908.05 689.489 1911.1 684.905 Q1914.18 680.299 1919.99 680.299 Z" fill="#000000" fill-rule="evenodd" fill-opacity="1" /><path clip-path="url(#clip790)" d="M 0 0 M1947 684.003 Q1943.39 684.003 1941.56 687.567 Q1939.76 691.109 1939.76 698.239 Q1939.76 705.345 1941.56 708.91 Q1943.39 712.451 1947 712.451 Q1950.64 712.451 1952.44 708.91 Q1954.27 705.345 1954.27 698.239 Q1954.27 691.109 1952.44 687.567 Q1950.64 684.003 1947 684.003 M1947 680.299 Q1952.81 680.299 1955.87 684.905 Q1958.95 689.489 1958.95 698.239 Q1958.95 706.965 1955.87 711.572 Q1952.81 716.155 1947 716.155 Q1941.19 716.155 1938.12 711.572 Q1935.06 706.965 1935.06 698.239 Q1935.06 689.489 1938.12 684.905 Q1941.19 680.299 1947 680.299 Z" fill="#000000" fill-rule="evenodd" fill-opacity="1" /><path clip-path="url(#clip790)" d="M 0 0 M1974.02 684.003 Q1970.41 684.003 1968.58 687.567 Q1966.77 691.109 1966.77 698.239 Q1966.77 705.345 1968.58 708.91 Q1970.41 712.451 1974.02 712.451 Q1977.65 712.451 1979.46 708.91 Q1981.29 705.345 1981.29 698.239 Q1981.29 691.109 1979.46 687.567 Q1977.65 684.003 1974.02 684.003 M1974.02 680.299 Q1979.83 680.299 1982.88 684.905 Q1985.96 689.489 1985.96 698.239 Q1985.96 706.965 1982.88 711.572 Q1979.83 716.155 1974.02 716.155 Q1968.21 716.155 1965.13 711.572 Q1962.07 706.965 1962.07 698.239 Q1962.07 689.489 1965.13 684.905 Q1968.21 680.299 1974.02 680.299 Z" fill="#000000" fill-rule="evenodd" fill-opacity="1" /><path clip-path="url(#clip790)" d="M 0 0 M138.525 595.25 L154.844 595.25 L154.844 599.185 L132.9 599.185 L132.9 595.25 Q135.562 592.496 140.145 587.866 Q144.752 583.213 145.933 581.871 Q148.178 579.348 149.057 577.611 Q149.96 575.852 149.96 574.162 Q149.96 571.408 148.016 569.672 Q146.095 567.936 142.993 567.936 Q140.794 567.936 138.34 568.699 Q135.909 569.463 133.132 571.014 L133.132 566.292 Q135.956 565.158 138.409 564.579 Q140.863 564 142.9 564 Q148.27 564 151.465 566.686 Q154.659 569.371 154.659 573.862 Q154.659 575.991 153.849 577.912 Q153.062 579.811 150.956 582.403 Q150.377 583.074 147.275 586.292 Q144.173 589.486 138.525 595.25 Z" fill="#000000" fill-rule="evenodd" fill-opacity="1" /><path clip-path="url(#clip790)" d="M 0 0 M145.261 439.398 L133.456 457.847 L145.261 457.847 L145.261 439.398 M144.034 435.324 L149.914 435.324 L149.914 457.847 L154.844 457.847 L154.844 461.736 L149.914 461.736 L149.914 469.884 L145.261 469.884 L145.261 461.736 L129.659 461.736 L129.659 457.222 L144.034 435.324 Z" fill="#000000" fill-rule="evenodd" fill-opacity="1" /><path clip-path="url(#clip790)" d="M 0 0 M143.317 321.439 Q140.169 321.439 138.317 323.592 Q136.488 325.745 136.488 329.495 Q136.488 333.222 138.317 335.397 Q140.169 337.55 143.317 337.55 Q146.465 337.55 148.294 335.397 Q150.145 333.222 150.145 329.495 Q150.145 325.745 148.294 323.592 Q146.465 321.439 143.317 321.439 M152.599 306.786 L152.599 311.046 Q150.84 310.212 149.034 309.773 Q147.252 309.333 145.493 309.333 Q140.863 309.333 138.409 312.458 Q135.979 315.583 135.632 321.902 Q136.997 319.888 139.058 318.823 Q141.118 317.736 143.595 317.736 Q148.803 317.736 151.812 320.907 Q154.844 324.055 154.844 329.495 Q154.844 334.819 151.696 338.036 Q148.548 341.254 143.317 341.254 Q137.321 341.254 134.15 336.671 Q130.979 332.064 130.979 323.337 Q130.979 315.143 134.868 310.282 Q138.757 305.398 145.308 305.398 Q147.067 305.398 148.849 305.745 Q150.655 306.092 152.599 306.786 Z" fill="#000000" fill-rule="evenodd" fill-opacity="1" /><path clip-path="url(#clip790)" d="M 0 0 M142.993 194.869 Q139.659 194.869 137.738 196.652 Q135.84 198.434 135.84 201.559 Q135.84 204.684 137.738 206.466 Q139.659 208.249 142.993 208.249 Q146.326 208.249 148.247 206.466 Q150.169 204.661 150.169 201.559 Q150.169 198.434 148.247 196.652 Q146.349 194.869 142.993 194.869 M138.317 192.879 Q135.308 192.138 133.618 190.078 Q131.951 188.017 131.951 185.054 Q131.951 180.911 134.891 178.504 Q137.854 176.096 142.993 176.096 Q148.155 176.096 151.095 178.504 Q154.034 180.911 154.034 185.054 Q154.034 188.017 152.345 190.078 Q150.678 192.138 147.692 192.879 Q151.071 193.666 152.946 195.957 Q154.844 198.249 154.844 201.559 Q154.844 206.582 151.766 209.267 Q148.71 211.952 142.993 211.952 Q137.275 211.952 134.196 209.267 Q131.141 206.582 131.141 201.559 Q131.141 198.249 133.039 195.957 Q134.937 193.666 138.317 192.879 M136.604 185.494 Q136.604 188.179 138.271 189.684 Q139.96 191.189 142.993 191.189 Q146.002 191.189 147.692 189.684 Q149.405 188.179 149.405 185.494 Q149.405 182.809 147.692 181.305 Q146.002 179.8 142.993 179.8 Q139.96 179.8 138.271 181.305 Q136.604 182.809 136.604 185.494 Z" fill="#000000" fill-rule="evenodd" fill-opacity="1" /><path clip-path="url(#clip790)" d="M 0 0 M107.923 78.0446 L115.562 78.0446 L115.562 51.679 L107.252 53.3457 L107.252 49.0864 L115.516 47.4198 L120.192 47.4198 L120.192 78.0446 L127.831 78.0446 L127.831 81.9798 L107.923 81.9798 L107.923 78.0446 Z" fill="#000000" fill-rule="evenodd" fill-opacity="1" /><path clip-path="url(#clip790)" d="M 0 0 M142.9 50.4985 Q139.289 50.4985 137.46 54.0633 Q135.655 57.6049 135.655 64.7345 Q135.655 71.841 137.46 75.4057 Q139.289 78.9474 142.9 78.9474 Q146.534 78.9474 148.34 75.4057 Q150.169 71.841 150.169 64.7345 Q150.169 57.6049 148.34 54.0633 Q146.534 50.4985 142.9 50.4985 M142.9 46.7948 Q148.71 46.7948 151.766 51.4012 Q154.844 55.9846 154.844 64.7345 Q154.844 73.4613 151.766 78.0678 Q148.71 82.6511 142.9 82.6511 Q137.09 82.6511 134.011 78.0678 Q130.956 73.4613 130.956 64.7345 Q130.956 55.9846 134.011 51.4012 Q137.09 46.7948 142.9 46.7948 Z" fill="#000000" fill-rule="evenodd" fill-opacity="1" /><path clip-path="url(#clip790)" d="M 0 0 M916.657 745.356 L956.856 745.356 L956.856 750.767 L939.987 750.767 L939.987 792.876 L933.526 792.876 L933.526 750.767 L916.657 750.767 L916.657 745.356 Z" fill="#000000" fill-rule="evenodd" fill-opacity="1" /><path clip-path="url(#clip790)" d="M 0 0 M960.994 757.228 L966.85 757.228 L966.85 792.876 L960.994 792.876 L960.994 757.228 M960.994 743.351 L966.85 743.351 L966.85 750.767 L960.994 750.767 L960.994 743.351 Z" fill="#000000" fill-rule="evenodd" fill-opacity="1" /><path clip-path="url(#clip790)" d="M 0 0 M1000.75 764.071 Q1002.94 760.124 1006 758.246 Q1009.06 756.369 1013.19 756.369 Q1018.76 756.369 1021.79 760.283 Q1024.81 764.167 1024.81 771.36 L1024.81 792.876 L1018.92 792.876 L1018.92 771.551 Q1018.92 766.426 1017.11 763.944 Q1015.29 761.461 1011.57 761.461 Q1007.02 761.461 1004.38 764.485 Q1001.73 767.509 1001.73 772.728 L1001.73 792.876 L995.846 792.876 L995.846 771.551 Q995.846 766.395 994.032 763.944 Q992.218 761.461 988.43 761.461 Q983.942 761.461 981.301 764.517 Q978.659 767.54 978.659 772.728 L978.659 792.876 L972.771 792.876 L972.771 757.228 L978.659 757.228 L978.659 762.766 Q980.664 759.488 983.465 757.928 Q986.266 756.369 990.117 756.369 Q994 756.369 996.706 758.342 Q999.443 760.315 1000.75 764.071 Z" fill="#000000" fill-rule="evenodd" fill-opacity="1" /><path clip-path="url(#clip790)" d="M 0 0 M1061.44 773.588 L1061.44 776.452 L1034.52 776.452 Q1034.9 782.5 1038.15 785.683 Q1041.42 788.834 1047.25 788.834 Q1050.62 788.834 1053.77 788.006 Q1056.96 787.179 1060.08 785.523 L1060.08 791.062 Q1056.93 792.398 1053.62 793.099 Q1050.3 793.799 1046.9 793.799 Q1038.37 793.799 1033.37 788.834 Q1028.41 783.868 1028.41 775.402 Q1028.41 766.649 1033.12 761.525 Q1037.86 756.369 1045.88 756.369 Q1053.07 756.369 1057.24 761.015 Q1061.44 765.631 1061.44 773.588 M1055.59 771.869 Q1055.52 767.063 1052.88 764.198 Q1050.27 761.334 1045.94 761.334 Q1041.04 761.334 1038.08 764.103 Q1035.15 766.872 1034.71 771.901 L1055.59 771.869 Z" fill="#000000" fill-rule="evenodd" fill-opacity="1" /><path clip-path="url(#clip790)" d="M 0 0 M1102.38 743.414 Q1098.11 750.735 1096.04 757.896 Q1093.97 765.058 1093.97 772.41 Q1093.97 779.762 1096.04 786.988 Q1098.14 794.181 1102.38 801.47 L1097.28 801.47 Q1092.51 793.99 1090.12 786.765 Q1087.77 779.54 1087.77 772.41 Q1087.77 765.312 1090.12 758.119 Q1092.48 750.926 1097.28 743.414 L1102.38 743.414 Z" fill="#000000" fill-rule="evenodd" fill-opacity="1" /><path clip-path="url(#clip790)" d="M 0 0 M1136.27 764.071 Q1138.47 760.124 1141.53 758.246 Q1144.58 756.369 1148.72 756.369 Q1154.29 756.369 1157.31 760.283 Q1160.34 764.167 1160.34 771.36 L1160.34 792.876 L1154.45 792.876 L1154.45 771.551 Q1154.45 766.426 1152.63 763.944 Q1150.82 761.461 1147.1 761.461 Q1142.54 761.461 1139.9 764.485 Q1137.26 767.509 1137.26 772.728 L1137.26 792.876 L1131.37 792.876 L1131.37 771.551 Q1131.37 766.395 1129.56 763.944 Q1127.74 761.461 1123.96 761.461 Q1119.47 761.461 1116.83 764.517 Q1114.18 767.54 1114.18 772.728 L1114.18 792.876 L1108.3 792.876 L1108.3 757.228 L1114.18 757.228 L1114.18 762.766 Q1116.19 759.488 1118.99 757.928 Q1121.79 756.369 1125.64 756.369 Q1129.53 756.369 1132.23 758.342 Q1134.97 760.315 1136.27 764.071 Z" fill="#000000" fill-rule="evenodd" fill-opacity="1" /><path clip-path="url(#clip790)" d="M 0 0 M1189.2 758.278 L1189.2 763.816 Q1186.72 762.543 1184.05 761.907 Q1181.37 761.27 1178.51 761.27 Q1174.15 761.27 1171.95 762.607 Q1169.79 763.944 1169.79 766.617 Q1169.79 768.654 1171.35 769.832 Q1172.91 770.978 1177.62 772.028 L1179.62 772.474 Q1185.86 773.811 1188.47 776.261 Q1191.11 778.68 1191.11 783.041 Q1191.11 788.006 1187.17 790.902 Q1183.25 793.799 1176.38 793.799 Q1173.51 793.799 1170.39 793.226 Q1167.31 792.685 1163.87 791.571 L1163.87 785.523 Q1167.12 787.21 1170.27 788.07 Q1173.42 788.897 1176.51 788.897 Q1180.64 788.897 1182.87 787.497 Q1185.1 786.065 1185.1 783.486 Q1185.1 781.099 1183.48 779.826 Q1181.88 778.553 1176.44 777.375 L1174.4 776.898 Q1168.96 775.752 1166.54 773.397 Q1164.12 771.01 1164.12 766.872 Q1164.12 761.843 1167.69 759.106 Q1171.25 756.369 1177.81 756.369 Q1181.06 756.369 1183.92 756.846 Q1186.79 757.323 1189.2 758.278 Z" fill="#000000" fill-rule="evenodd" fill-opacity="1" /><path clip-path="url(#clip790)" d="M 0 0 M1196.33 743.414 L1201.43 743.414 Q1206.2 750.926 1208.56 758.119 Q1210.94 765.312 1210.94 772.41 Q1210.94 779.54 1208.56 786.765 Q1206.2 793.99 1201.43 801.47 L1196.33 801.47 Q1200.57 794.181 1202.64 786.988 Q1204.74 779.762 1204.74 772.41 Q1204.74 765.058 1202.64 757.896 Q1200.57 750.735 1196.33 743.414 Z" fill="#000000" fill-rule="evenodd" fill-opacity="1" /><path clip-path="url(#clip790)" d="M 0 0 M25.4762 546.297 L25.4762 537.639 L65.23 516.569 L25.4762 516.569 L25.4762 510.331 L72.9962 510.331 L72.9962 518.988 L33.2423 540.058 L72.9962 540.058 L72.9962 546.297 L25.4762 546.297 Z" fill="#000000" fill-rule="evenodd" fill-opacity="1" /><path clip-path="url(#clip790)" d="M 0 0 M53.7081 473.696 L56.5726 473.696 L56.5726 500.623 Q62.6201 500.241 65.8029 496.994 Q68.9539 493.716 68.9539 487.891 Q68.9539 484.518 68.1264 481.367 Q67.2989 478.184 65.6438 475.065 L71.1819 475.065 Q72.5187 478.216 73.219 481.526 Q73.9192 484.836 73.9192 488.242 Q73.9192 496.772 68.9539 501.769 Q63.9887 506.734 55.5223 506.734 Q46.7694 506.734 41.6451 502.023 Q36.4888 497.281 36.4888 489.26 Q36.4888 482.067 41.1358 477.897 Q45.7509 473.696 53.7081 473.696 M51.9893 479.552 Q47.1832 479.616 44.3186 482.258 Q41.4541 484.868 41.4541 489.196 Q41.4541 494.098 44.2232 497.058 Q46.9922 499.986 52.0212 500.432 L51.9893 479.552 Z" fill="#000000" fill-rule="evenodd" fill-opacity="1" /><path clip-path="url(#clip790)" d="M 0 0 M58.9279 468.158 L37.3482 468.158 L37.3482 462.301 L58.7051 462.301 Q63.7659 462.301 66.3122 460.328 Q68.8266 458.355 68.8266 454.408 Q68.8266 449.665 65.8029 446.928 Q62.7792 444.159 57.5593 444.159 L37.3482 444.159 L37.3482 438.303 L72.9962 438.303 L72.9962 444.159 L67.5216 444.159 Q70.7682 446.292 72.3596 449.124 Q73.9192 451.925 73.9192 455.649 Q73.9192 461.792 70.0998 464.975 Q66.2803 468.158 58.9279 468.158 M36.4888 453.421 L36.4888 453.421 Z" fill="#000000" fill-rule="evenodd" fill-opacity="1" /><path clip-path="url(#clip790)" d="M 0 0 M42.8227 411.503 Q42.2498 412.49 41.9952 413.667 Q41.7087 414.813 41.7087 416.214 Q41.7087 421.179 44.9552 423.852 Q48.1699 426.494 54.2173 426.494 L72.9962 426.494 L72.9962 432.382 L37.3482 432.382 L37.3482 426.494 L42.8864 426.494 Q39.6399 424.648 38.0803 421.688 Q36.4888 418.728 36.4888 414.495 Q36.4888 413.89 36.5843 413.158 Q36.648 412.426 36.8071 411.535 L42.8227 411.503 Z" fill="#000000" fill-rule="evenodd" fill-opacity="1" /><path clip-path="url(#clip790)" d="M 0 0 M41.4541 392.979 Q41.4541 397.689 45.1462 400.427 Q48.8065 403.164 55.204 403.164 Q61.6015 403.164 65.2937 400.458 Q68.9539 397.721 68.9539 392.979 Q68.9539 388.3 65.2618 385.563 Q61.5697 382.825 55.204 382.825 Q48.8701 382.825 45.178 385.563 Q41.4541 388.3 41.4541 392.979 M36.4888 392.979 Q36.4888 385.34 41.4541 380.979 Q46.4193 376.619 55.204 376.619 Q63.9569 376.619 68.9539 380.979 Q73.9192 385.34 73.9192 392.979 Q73.9192 400.649 68.9539 405.01 Q63.9569 409.339 55.204 409.339 Q46.4193 409.339 41.4541 405.01 Q36.4888 400.649 36.4888 392.979 Z" fill="#000000" fill-rule="evenodd" fill-opacity="1" /><path clip-path="url(#clip790)" d="M 0 0 M51.4801 340.844 L72.9962 340.844 L72.9962 346.7 L51.671 346.7 Q46.6103 346.7 44.0958 348.673 Q41.5814 350.647 41.5814 354.594 Q41.5814 359.336 44.6051 362.073 Q47.6288 364.811 52.8487 364.811 L72.9962 364.811 L72.9962 370.699 L37.3482 370.699 L37.3482 364.811 L42.8864 364.811 Q39.6717 362.71 38.0803 359.877 Q36.4888 357.013 36.4888 353.289 Q36.4888 347.146 40.3083 343.995 Q44.0958 340.844 51.4801 340.844 Z" fill="#000000" fill-rule="evenodd" fill-opacity="1" /><path clip-path="url(#clip790)" d="M 0 0 M37.3482 313.98 L37.3482 308.124 L72.9962 308.124 L72.9962 313.98 L37.3482 313.98 M23.471 313.98 L23.471 308.124 L30.887 308.124 L30.887 313.98 L23.471 313.98 Z" fill="#000000" fill-rule="evenodd" fill-opacity="1" /><path clip-path="url(#clip790)" d="M 0 0 M51.4801 272.349 L72.9962 272.349 L72.9962 278.205 L51.671 278.205 Q46.6103 278.205 44.0958 280.178 Q41.5814 282.152 41.5814 286.099 Q41.5814 290.841 44.6051 293.578 Q47.6288 296.315 52.8487 296.315 L72.9962 296.315 L72.9962 302.204 L37.3482 302.204 L37.3482 296.315 L42.8864 296.315 Q39.6717 294.215 38.0803 291.382 Q36.4888 288.518 36.4888 284.794 Q36.4888 278.651 40.3083 275.5 Q44.0958 272.349 51.4801 272.349 Z" fill="#000000" fill-rule="evenodd" fill-opacity="1" /><path clip-path="url(#clip790)" d="M 0 0 M42.7591 242.748 L23.471 242.748 L23.471 236.892 L72.9962 236.892 L72.9962 242.748 L67.649 242.748 Q70.8318 244.594 72.3914 247.427 Q73.9192 250.228 73.9192 254.175 Q73.9192 260.636 68.763 264.71 Q63.6067 268.752 55.204 268.752 Q46.8013 268.752 41.6451 264.71 Q36.4888 260.636 36.4888 254.175 Q36.4888 250.228 38.0484 247.427 Q39.5762 244.594 42.7591 242.748 M55.204 262.705 Q61.6652 262.705 65.3573 260.063 Q69.0176 257.389 69.0176 252.742 Q69.0176 248.095 65.3573 245.422 Q61.6652 242.748 55.204 242.748 Q48.7428 242.748 45.0825 245.422 Q41.3904 248.095 41.3904 252.742 Q41.3904 257.389 45.0825 260.063 Q48.7428 262.705 55.204 262.705 Z" fill="#000000" fill-rule="evenodd" fill-opacity="1" /><path clip-path="url(#clip790)" d="M 0 0 M53.7081 200.257 L56.5726 200.257 L56.5726 227.184 Q62.6201 226.802 65.8029 223.555 Q68.9539 220.277 68.9539 214.453 Q68.9539 211.079 68.1264 207.928 Q67.2989 204.745 65.6438 201.626 L71.1819 201.626 Q72.5187 204.777 73.219 208.087 Q73.9192 211.397 73.9192 214.803 Q73.9192 223.333 68.9539 228.33 Q63.9887 233.295 55.5223 233.295 Q46.7694 233.295 41.6451 228.584 Q36.4888 223.842 36.4888 215.821 Q36.4888 208.628 41.1358 204.458 Q45.7509 200.257 53.7081 200.257 M51.9893 206.113 Q47.1832 206.177 44.3186 208.819 Q41.4541 211.429 41.4541 215.757 Q41.4541 220.659 44.2232 223.619 Q46.9922 226.547 52.0212 226.993 L51.9893 206.113 Z" fill="#000000" fill-rule="evenodd" fill-opacity="1" /><path clip-path="url(#clip790)" d="M 0 0 M37.3482 165.628 L54.6948 178.518 L72.9962 164.959 L72.9962 171.866 L58.9916 182.242 L72.9962 192.618 L72.9962 199.525 L54.3446 185.68 L37.3482 198.347 L37.3482 191.44 L50.0478 181.987 L37.3482 172.534 L37.3482 165.628 Z" fill="#000000" fill-rule="evenodd" fill-opacity="1" /><line clip-path="url(#clip792)" x1="220.753" y1="662.556" x2="220.753" y2="630.556" style="stroke:#000000; stroke-width:1.6; stroke-opacity:1"/>
<line clip-path="url(#clip792)" x1="281.79" y1="662.556" x2="281.79" y2="630.556" style="stroke:#000000; stroke-width:1.6; stroke-opacity:1"/>
<line clip-path="url(#clip792)" x1="301.17" y1="662.556" x2="301.17" y2="630.556" style="stroke:#000000; stroke-width:1.6; stroke-opacity:1"/>
<line clip-path="url(#clip792)" x1="309.823" y1="662.556" x2="309.823" y2="630.556" style="stroke:#000000; stroke-width:1.6; stroke-opacity:1"/>
<line clip-path="url(#clip792)" x1="340.582" y1="662.556" x2="340.582" y2="630.556" style="stroke:#000000; stroke-width:1.6; stroke-opacity:1"/>
<line clip-path="url(#clip792)" x1="389.343" y1="662.556" x2="389.343" y2="630.556" style="stroke:#000000; stroke-width:1.6; stroke-opacity:1"/>
<line clip-path="url(#clip792)" x1="410.931" y1="662.556" x2="410.931" y2="630.556" style="stroke:#000000; stroke-width:1.6; stroke-opacity:1"/>
<line clip-path="url(#clip792)" x1="412.651" y1="662.556" x2="412.651" y2="630.556" style="stroke:#000000; stroke-width:1.6; stroke-opacity:1"/>
<line clip-path="url(#clip792)" x1="488.421" y1="662.556" x2="488.421" y2="630.556" style="stroke:#000000; stroke-width:1.6; stroke-opacity:1"/>
<line clip-path="url(#clip792)" x1="516.767" y1="662.556" x2="516.767" y2="630.556" style="stroke:#000000; stroke-width:1.6; stroke-opacity:1"/>
<line clip-path="url(#clip792)" x1="584.758" y1="662.556" x2="584.758" y2="630.556" style="stroke:#000000; stroke-width:1.6; stroke-opacity:1"/>
<line clip-path="url(#clip792)" x1="695.284" y1="662.556" x2="695.284" y2="630.556" style="stroke:#000000; stroke-width:1.6; stroke-opacity:1"/>
<line clip-path="url(#clip792)" x1="801.191" y1="662.556" x2="801.191" y2="630.556" style="stroke:#000000; stroke-width:1.6; stroke-opacity:1"/>
<line clip-path="url(#clip792)" x1="859.91" y1="662.556" x2="859.91" y2="630.556" style="stroke:#000000; stroke-width:1.6; stroke-opacity:1"/>
<line clip-path="url(#clip792)" x1="877.671" y1="662.556" x2="877.671" y2="630.556" style="stroke:#000000; stroke-width:1.6; stroke-opacity:1"/>
<line clip-path="url(#clip792)" x1="884.977" y1="662.556" x2="884.977" y2="630.556" style="stroke:#000000; stroke-width:1.6; stroke-opacity:1"/>
<line clip-path="url(#clip792)" x1="1017.54" y1="662.556" x2="1017.54" y2="630.556" style="stroke:#000000; stroke-width:1.6; stroke-opacity:1"/>
<line clip-path="url(#clip792)" x1="1228.59" y1="662.556" x2="1228.59" y2="630.556" style="stroke:#000000; stroke-width:1.6; stroke-opacity:1"/>
<line clip-path="url(#clip792)" x1="1374.23" y1="662.556" x2="1374.23" y2="630.556" style="stroke:#000000; stroke-width:1.6; stroke-opacity:1"/>
<line clip-path="url(#clip792)" x1="1381.67" y1="662.556" x2="1381.67" y2="630.556" style="stroke:#000000; stroke-width:1.6; stroke-opacity:1"/>
<line clip-path="url(#clip792)" x1="1470.45" y1="662.556" x2="1470.45" y2="630.556" style="stroke:#000000; stroke-width:1.6; stroke-opacity:1"/>
<line clip-path="url(#clip792)" x1="1475.15" y1="662.556" x2="1475.15" y2="630.556" style="stroke:#000000; stroke-width:1.6; stroke-opacity:1"/>
<line clip-path="url(#clip792)" x1="1491.48" y1="662.556" x2="1491.48" y2="630.556" style="stroke:#000000; stroke-width:1.6; stroke-opacity:1"/>
<line clip-path="url(#clip792)" x1="1700.67" y1="662.556" x2="1700.67" y2="630.556" style="stroke:#000000; stroke-width:1.6; stroke-opacity:1"/>
<line clip-path="url(#clip792)" x1="1705.13" y1="662.556" x2="1705.13" y2="630.556" style="stroke:#000000; stroke-width:1.6; stroke-opacity:1"/>
<line clip-path="url(#clip792)" x1="1728.72" y1="662.556" x2="1728.72" y2="630.556" style="stroke:#000000; stroke-width:1.6; stroke-opacity:1"/>
<line clip-path="url(#clip792)" x1="1731.33" y1="662.556" x2="1731.33" y2="630.556" style="stroke:#000000; stroke-width:1.6; stroke-opacity:1"/>
<line clip-path="url(#clip792)" x1="1753.34" y1="662.556" x2="1753.34" y2="630.556" style="stroke:#000000; stroke-width:1.6; stroke-opacity:1"/>
<line clip-path="url(#clip792)" x1="1784.03" y1="662.556" x2="1784.03" y2="630.556" style="stroke:#000000; stroke-width:1.6; stroke-opacity:1"/>
<line clip-path="url(#clip792)" x1="1801.35" y1="662.556" x2="1801.35" y2="630.556" style="stroke:#000000; stroke-width:1.6; stroke-opacity:1"/>
<line clip-path="url(#clip792)" x1="1858.07" y1="662.556" x2="1858.07" y2="630.556" style="stroke:#000000; stroke-width:1.6; stroke-opacity:1"/>
<line clip-path="url(#clip792)" x1="1869.49" y1="662.556" x2="1869.49" y2="630.556" style="stroke:#000000; stroke-width:1.6; stroke-opacity:1"/>
<line clip-path="url(#clip792)" x1="1921.81" y1="662.556" x2="1921.81" y2="630.556" style="stroke:#000000; stroke-width:1.6; stroke-opacity:1"/>
<line clip-path="url(#clip792)" x1="195.576" y1="597.905" x2="195.576" y2="565.905" style="stroke:#000000; stroke-width:1.6; stroke-opacity:1"/>
<line clip-path="url(#clip792)" x1="228.498" y1="597.905" x2="228.498" y2="565.905" style="stroke:#000000; stroke-width:1.6; stroke-opacity:1"/>
<line clip-path="url(#clip792)" x1="342.682" y1="597.905" x2="342.682" y2="565.905" style="stroke:#000000; stroke-width:1.6; stroke-opacity:1"/>
<line clip-path="url(#clip792)" x1="444.524" y1="597.905" x2="444.524" y2="565.905" style="stroke:#000000; stroke-width:1.6; stroke-opacity:1"/>
<line clip-path="url(#clip792)" x1="489.764" y1="597.905" x2="489.764" y2="565.905" style="stroke:#000000; stroke-width:1.6; stroke-opacity:1"/>
<line clip-path="url(#clip792)" x1="578.873" y1="597.905" x2="578.873" y2="565.905" style="stroke:#000000; stroke-width:1.6; stroke-opacity:1"/>
<line clip-path="url(#clip792)" x1="615.291" y1="597.905" x2="615.291" y2="565.905" style="stroke:#000000; stroke-width:1.6; stroke-opacity:1"/>
<line clip-path="url(#clip792)" x1="659.96" y1="597.905" x2="659.96" y2="565.905" style="stroke:#000000; stroke-width:1.6; stroke-opacity:1"/>
<line clip-path="url(#clip792)" x1="743.327" y1="597.905" x2="743.327" y2="565.905" style="stroke:#000000; stroke-width:1.6; stroke-opacity:1"/>
<line clip-path="url(#clip792)" x1="804" y1="597.905" x2="804" y2="565.905" style="stroke:#000000; stroke-width:1.6; stroke-opacity:1"/>
<line clip-path="url(#clip792)" x1="805.682" y1="597.905" x2="805.682" y2="565.905" style="stroke:#000000; stroke-width:1.6; stroke-opacity:1"/>
<line clip-path="url(#clip792)" x1="911.469" y1="597.905" x2="911.469" y2="565.905" style="stroke:#000000; stroke-width:1.6; stroke-opacity:1"/>
<line clip-path="url(#clip792)" x1="941.377" y1="597.905" x2="941.377" y2="565.905" style="stroke:#000000; stroke-width:1.6; stroke-opacity:1"/>
<line clip-path="url(#clip792)" x1="1094.9" y1="597.905" x2="1094.9" y2="565.905" style="stroke:#000000; stroke-width:1.6; stroke-opacity:1"/>
<line clip-path="url(#clip792)" x1="1118.66" y1="597.905" x2="1118.66" y2="565.905" style="stroke:#000000; stroke-width:1.6; stroke-opacity:1"/>
<line clip-path="url(#clip792)" x1="1346.85" y1="597.905" x2="1346.85" y2="565.905" style="stroke:#000000; stroke-width:1.6; stroke-opacity:1"/>
<line clip-path="url(#clip792)" x1="1416.41" y1="597.905" x2="1416.41" y2="565.905" style="stroke:#000000; stroke-width:1.6; stroke-opacity:1"/>
<line clip-path="url(#clip792)" x1="1499.52" y1="597.905" x2="1499.52" y2="565.905" style="stroke:#000000; stroke-width:1.6; stroke-opacity:1"/>
<line clip-path="url(#clip792)" x1="1688.68" y1="597.905" x2="1688.68" y2="565.905" style="stroke:#000000; stroke-width:1.6; stroke-opacity:1"/>
<line clip-path="url(#clip792)" x1="1691.15" y1="597.905" x2="1691.15" y2="565.905" style="stroke:#000000; stroke-width:1.6; stroke-opacity:1"/>
<line clip-path="url(#clip792)" x1="1724.36" y1="597.905" x2="1724.36" y2="565.905" style="stroke:#000000; stroke-width:1.6; stroke-opacity:1"/>
<line clip-path="url(#clip792)" x1="1736.69" y1="597.905" x2="1736.69" y2="565.905" style="stroke:#000000; stroke-width:1.6; stroke-opacity:1"/>
<line clip-path="url(#clip792)" x1="1818.79" y1="597.905" x2="1818.79" y2="565.905" style="stroke:#000000; stroke-width:1.6; stroke-opacity:1"/>
<line clip-path="url(#clip792)" x1="1840.65" y1="597.905" x2="1840.65" y2="565.905" style="stroke:#000000; stroke-width:1.6; stroke-opacity:1"/>
<line clip-path="url(#clip792)" x1="1849.61" y1="597.905" x2="1849.61" y2="565.905" style="stroke:#000000; stroke-width:1.6; stroke-opacity:1"/>
<line clip-path="url(#clip792)" x1="1869.31" y1="597.905" x2="1869.31" y2="565.905" style="stroke:#000000; stroke-width:1.6; stroke-opacity:1"/>
<line clip-path="url(#clip792)" x1="208.806" y1="533.255" x2="208.806" y2="501.255" style="stroke:#000000; stroke-width:1.6; stroke-opacity:1"/>
<line clip-path="url(#clip792)" x1="222.263" y1="533.255" x2="222.263" y2="501.255" style="stroke:#000000; stroke-width:1.6; stroke-opacity:1"/>
<line clip-path="url(#clip792)" x1="289.338" y1="533.255" x2="289.338" y2="501.255" style="stroke:#000000; stroke-width:1.6; stroke-opacity:1"/>
<line clip-path="url(#clip792)" x1="321.936" y1="533.255" x2="321.936" y2="501.255" style="stroke:#000000; stroke-width:1.6; stroke-opacity:1"/>
<line clip-path="url(#clip792)" x1="330.86" y1="533.255" x2="330.86" y2="501.255" style="stroke:#000000; stroke-width:1.6; stroke-opacity:1"/>
<line clip-path="url(#clip792)" x1="336.747" y1="533.255" x2="336.747" y2="501.255" style="stroke:#000000; stroke-width:1.6; stroke-opacity:1"/>
<line clip-path="url(#clip792)" x1="348.436" y1="533.255" x2="348.436" y2="501.255" style="stroke:#000000; stroke-width:1.6; stroke-opacity:1"/>
<line clip-path="url(#clip792)" x1="489.224" y1="533.255" x2="489.224" y2="501.255" style="stroke:#000000; stroke-width:1.6; stroke-opacity:1"/>
<line clip-path="url(#clip792)" x1="555.86" y1="533.255" x2="555.86" y2="501.255" style="stroke:#000000; stroke-width:1.6; stroke-opacity:1"/>
<line clip-path="url(#clip792)" x1="711.412" y1="533.255" x2="711.412" y2="501.255" style="stroke:#000000; stroke-width:1.6; stroke-opacity:1"/>
<line clip-path="url(#clip792)" x1="816.703" y1="533.255" x2="816.703" y2="501.255" style="stroke:#000000; stroke-width:1.6; stroke-opacity:1"/>
<line clip-path="url(#clip792)" x1="843.458" y1="533.255" x2="843.458" y2="501.255" style="stroke:#000000; stroke-width:1.6; stroke-opacity:1"/>
<line clip-path="url(#clip792)" x1="877.276" y1="533.255" x2="877.276" y2="501.255" style="stroke:#000000; stroke-width:1.6; stroke-opacity:1"/>
<line clip-path="url(#clip792)" x1="908.51" y1="533.255" x2="908.51" y2="501.255" style="stroke:#000000; stroke-width:1.6; stroke-opacity:1"/>
<line clip-path="url(#clip792)" x1="1012.12" y1="533.255" x2="1012.12" y2="501.255" style="stroke:#000000; stroke-width:1.6; stroke-opacity:1"/>
<line clip-path="url(#clip792)" x1="1039.6" y1="533.255" x2="1039.6" y2="501.255" style="stroke:#000000; stroke-width:1.6; stroke-opacity:1"/>
<line clip-path="url(#clip792)" x1="1116.73" y1="533.255" x2="1116.73" y2="501.255" style="stroke:#000000; stroke-width:1.6; stroke-opacity:1"/>
<line clip-path="url(#clip792)" x1="1116.75" y1="533.255" x2="1116.75" y2="501.255" style="stroke:#000000; stroke-width:1.6; stroke-opacity:1"/>
<line clip-path="url(#clip792)" x1="1174.33" y1="533.255" x2="1174.33" y2="501.255" style="stroke:#000000; stroke-width:1.6; stroke-opacity:1"/>
<line clip-path="url(#clip792)" x1="1414.93" y1="533.255" x2="1414.93" y2="501.255" style="stroke:#000000; stroke-width:1.6; stroke-opacity:1"/>
<line clip-path="url(#clip792)" x1="1451.76" y1="533.255" x2="1451.76" y2="501.255" style="stroke:#000000; stroke-width:1.6; stroke-opacity:1"/>
<line clip-path="url(#clip792)" x1="1496.11" y1="533.255" x2="1496.11" y2="501.255" style="stroke:#000000; stroke-width:1.6; stroke-opacity:1"/>
<line clip-path="url(#clip792)" x1="1679.53" y1="533.255" x2="1679.53" y2="501.255" style="stroke:#000000; stroke-width:1.6; stroke-opacity:1"/>
<line clip-path="url(#clip792)" x1="1718.45" y1="533.255" x2="1718.45" y2="501.255" style="stroke:#000000; stroke-width:1.6; stroke-opacity:1"/>
<line clip-path="url(#clip792)" x1="1727.45" y1="533.255" x2="1727.45" y2="501.255" style="stroke:#000000; stroke-width:1.6; stroke-opacity:1"/>
<line clip-path="url(#clip792)" x1="1796.68" y1="533.255" x2="1796.68" y2="501.255" style="stroke:#000000; stroke-width:1.6; stroke-opacity:1"/>
<line clip-path="url(#clip792)" x1="1856.8" y1="533.255" x2="1856.8" y2="501.255" style="stroke:#000000; stroke-width:1.6; stroke-opacity:1"/>
<line clip-path="url(#clip792)" x1="1878.03" y1="533.255" x2="1878.03" y2="501.255" style="stroke:#000000; stroke-width:1.6; stroke-opacity:1"/>
<line clip-path="url(#clip792)" x1="1882.96" y1="533.255" x2="1882.96" y2="501.255" style="stroke:#000000; stroke-width:1.6; stroke-opacity:1"/>
<line clip-path="url(#clip792)" x1="1891.37" y1="533.255" x2="1891.37" y2="501.255" style="stroke:#000000; stroke-width:1.6; stroke-opacity:1"/>
<line clip-path="url(#clip792)" x1="197.041" y1="468.604" x2="197.041" y2="436.604" style="stroke:#000000; stroke-width:1.6; stroke-opacity:1"/>
<line clip-path="url(#clip792)" x1="262.309" y1="468.604" x2="262.309" y2="436.604" style="stroke:#000000; stroke-width:1.6; stroke-opacity:1"/>
<line clip-path="url(#clip792)" x1="366.348" y1="468.604" x2="366.348" y2="436.604" style="stroke:#000000; stroke-width:1.6; stroke-opacity:1"/>
<line clip-path="url(#clip792)" x1="382.003" y1="468.604" x2="382.003" y2="436.604" style="stroke:#000000; stroke-width:1.6; stroke-opacity:1"/>
<line clip-path="url(#clip792)" x1="403.694" y1="468.604" x2="403.694" y2="436.604" style="stroke:#000000; stroke-width:1.6; stroke-opacity:1"/>
<line clip-path="url(#clip792)" x1="427.707" y1="468.604" x2="427.707" y2="436.604" style="stroke:#000000; stroke-width:1.6; stroke-opacity:1"/>
<line clip-path="url(#clip792)" x1="458.609" y1="468.604" x2="458.609" y2="436.604" style="stroke:#000000; stroke-width:1.6; stroke-opacity:1"/>
<line clip-path="url(#clip792)" x1="492.139" y1="468.604" x2="492.139" y2="436.604" style="stroke:#000000; stroke-width:1.6; stroke-opacity:1"/>
<line clip-path="url(#clip792)" x1="584.478" y1="468.604" x2="584.478" y2="436.604" style="stroke:#000000; stroke-width:1.6; stroke-opacity:1"/>
<line clip-path="url(#clip792)" x1="694.47" y1="468.604" x2="694.47" y2="436.604" style="stroke:#000000; stroke-width:1.6; stroke-opacity:1"/>
<line clip-path="url(#clip792)" x1="740.921" y1="468.604" x2="740.921" y2="436.604" style="stroke:#000000; stroke-width:1.6; stroke-opacity:1"/>
<line clip-path="url(#clip792)" x1="746.999" y1="468.604" x2="746.999" y2="436.604" style="stroke:#000000; stroke-width:1.6; stroke-opacity:1"/>
<line clip-path="url(#clip792)" x1="846.091" y1="468.604" x2="846.091" y2="436.604" style="stroke:#000000; stroke-width:1.6; stroke-opacity:1"/>
<line clip-path="url(#clip792)" x1="894.55" y1="468.604" x2="894.55" y2="436.604" style="stroke:#000000; stroke-width:1.6; stroke-opacity:1"/>
<line clip-path="url(#clip792)" x1="900.591" y1="468.604" x2="900.591" y2="436.604" style="stroke:#000000; stroke-width:1.6; stroke-opacity:1"/>
<line clip-path="url(#clip792)" x1="989.612" y1="468.604" x2="989.612" y2="436.604" style="stroke:#000000; stroke-width:1.6; stroke-opacity:1"/>
<line clip-path="url(#clip792)" x1="1099.6" y1="468.604" x2="1099.6" y2="436.604" style="stroke:#000000; stroke-width:1.6; stroke-opacity:1"/>
<line clip-path="url(#clip792)" x1="1129.78" y1="468.604" x2="1129.78" y2="436.604" style="stroke:#000000; stroke-width:1.6; stroke-opacity:1"/>
<line clip-path="url(#clip792)" x1="1143.41" y1="468.604" x2="1143.41" y2="436.604" style="stroke:#000000; stroke-width:1.6; stroke-opacity:1"/>
<line clip-path="url(#clip792)" x1="1182.2" y1="468.604" x2="1182.2" y2="436.604" style="stroke:#000000; stroke-width:1.6; stroke-opacity:1"/>
<line clip-path="url(#clip792)" x1="1221.79" y1="468.604" x2="1221.79" y2="436.604" style="stroke:#000000; stroke-width:1.6; stroke-opacity:1"/>
<line clip-path="url(#clip792)" x1="1256.78" y1="468.604" x2="1256.78" y2="436.604" style="stroke:#000000; stroke-width:1.6; stroke-opacity:1"/>
<line clip-path="url(#clip792)" x1="1272.13" y1="468.604" x2="1272.13" y2="436.604" style="stroke:#000000; stroke-width:1.6; stroke-opacity:1"/>
<line clip-path="url(#clip792)" x1="1420.93" y1="468.604" x2="1420.93" y2="436.604" style="stroke:#000000; stroke-width:1.6; stroke-opacity:1"/>
<line clip-path="url(#clip792)" x1="1606.01" y1="468.604" x2="1606.01" y2="436.604" style="stroke:#000000; stroke-width:1.6; stroke-opacity:1"/>
<line clip-path="url(#clip792)" x1="1608.31" y1="468.604" x2="1608.31" y2="436.604" style="stroke:#000000; stroke-width:1.6; stroke-opacity:1"/>
<line clip-path="url(#clip792)" x1="1678.47" y1="468.604" x2="1678.47" y2="436.604" style="stroke:#000000; stroke-width:1.6; stroke-opacity:1"/>
<line clip-path="url(#clip792)" x1="1692.34" y1="468.604" x2="1692.34" y2="436.604" style="stroke:#000000; stroke-width:1.6; stroke-opacity:1"/>
<line clip-path="url(#clip792)" x1="1698.95" y1="468.604" x2="1698.95" y2="436.604" style="stroke:#000000; stroke-width:1.6; stroke-opacity:1"/>
<line clip-path="url(#clip792)" x1="1729.06" y1="468.604" x2="1729.06" y2="436.604" style="stroke:#000000; stroke-width:1.6; stroke-opacity:1"/>
<line clip-path="url(#clip792)" x1="1935.02" y1="468.604" x2="1935.02" y2="436.604" style="stroke:#000000; stroke-width:1.6; stroke-opacity:1"/>
<line clip-path="url(#clip792)" x1="1939.84" y1="468.604" x2="1939.84" y2="436.604" style="stroke:#000000; stroke-width:1.6; stroke-opacity:1"/>
<line clip-path="url(#clip792)" x1="243.031" y1="403.953" x2="243.031" y2="371.953" style="stroke:#000000; stroke-width:1.6; stroke-opacity:1"/>
<line clip-path="url(#clip792)" x1="456.735" y1="403.953" x2="456.735" y2="371.953" style="stroke:#000000; stroke-width:1.6; stroke-opacity:1"/>
<line clip-path="url(#clip792)" x1="651.031" y1="403.953" x2="651.031" y2="371.953" style="stroke:#000000; stroke-width:1.6; stroke-opacity:1"/>
<line clip-path="url(#clip792)" x1="799.925" y1="403.953" x2="799.925" y2="371.953" style="stroke:#000000; stroke-width:1.6; stroke-opacity:1"/>
<line clip-path="url(#clip792)" x1="872.955" y1="403.953" x2="872.955" y2="371.953" style="stroke:#000000; stroke-width:1.6; stroke-opacity:1"/>
<line clip-path="url(#clip792)" x1="906.263" y1="403.953" x2="906.263" y2="371.953" style="stroke:#000000; stroke-width:1.6; stroke-opacity:1"/>
<line clip-path="url(#clip792)" x1="1019.67" y1="403.953" x2="1019.67" y2="371.953" style="stroke:#000000; stroke-width:1.6; stroke-opacity:1"/>
<line clip-path="url(#clip792)" x1="1050.12" y1="403.953" x2="1050.12" y2="371.953" style="stroke:#000000; stroke-width:1.6; stroke-opacity:1"/>
<line clip-path="url(#clip792)" x1="1052.69" y1="403.953" x2="1052.69" y2="371.953" style="stroke:#000000; stroke-width:1.6; stroke-opacity:1"/>
<line clip-path="url(#clip792)" x1="1086.42" y1="403.953" x2="1086.42" y2="371.953" style="stroke:#000000; stroke-width:1.6; stroke-opacity:1"/>
<line clip-path="url(#clip792)" x1="1123.12" y1="403.953" x2="1123.12" y2="371.953" style="stroke:#000000; stroke-width:1.6; stroke-opacity:1"/>
<line clip-path="url(#clip792)" x1="1151.73" y1="403.953" x2="1151.73" y2="371.953" style="stroke:#000000; stroke-width:1.6; stroke-opacity:1"/>
<line clip-path="url(#clip792)" x1="1186.17" y1="403.953" x2="1186.17" y2="371.953" style="stroke:#000000; stroke-width:1.6; stroke-opacity:1"/>
<line clip-path="url(#clip792)" x1="1331.17" y1="403.953" x2="1331.17" y2="371.953" style="stroke:#000000; stroke-width:1.6; stroke-opacity:1"/>
<line clip-path="url(#clip792)" x1="1458.17" y1="403.953" x2="1458.17" y2="371.953" style="stroke:#000000; stroke-width:1.6; stroke-opacity:1"/>
<line clip-path="url(#clip792)" x1="1497.41" y1="403.953" x2="1497.41" y2="371.953" style="stroke:#000000; stroke-width:1.6; stroke-opacity:1"/>
<line clip-path="url(#clip792)" x1="1529.86" y1="403.953" x2="1529.86" y2="371.953" style="stroke:#000000; stroke-width:1.6; stroke-opacity:1"/>
<line clip-path="url(#clip792)" x1="1532.51" y1="403.953" x2="1532.51" y2="371.953" style="stroke:#000000; stroke-width:1.6; stroke-opacity:1"/>
<line clip-path="url(#clip792)" x1="1557.57" y1="403.953" x2="1557.57" y2="371.953" style="stroke:#000000; stroke-width:1.6; stroke-opacity:1"/>
<line clip-path="url(#clip792)" x1="1733.71" y1="403.953" x2="1733.71" y2="371.953" style="stroke:#000000; stroke-width:1.6; stroke-opacity:1"/>
<line clip-path="url(#clip792)" x1="1806.43" y1="403.953" x2="1806.43" y2="371.953" style="stroke:#000000; stroke-width:1.6; stroke-opacity:1"/>
<line clip-path="url(#clip792)" x1="1944.08" y1="403.953" x2="1944.08" y2="371.953" style="stroke:#000000; stroke-width:1.6; stroke-opacity:1"/>
<line clip-path="url(#clip792)" x1="237.551" y1="339.303" x2="237.551" y2="307.303" style="stroke:#000000; stroke-width:1.6; stroke-opacity:1"/>
<line clip-path="url(#clip792)" x1="240.898" y1="339.303" x2="240.898" y2="307.303" style="stroke:#000000; stroke-width:1.6; stroke-opacity:1"/>
<line clip-path="url(#clip792)" x1="268.179" y1="339.303" x2="268.179" y2="307.303" style="stroke:#000000; stroke-width:1.6; stroke-opacity:1"/>
<line clip-path="url(#clip792)" x1="275.261" y1="339.303" x2="275.261" y2="307.303" style="stroke:#000000; stroke-width:1.6; stroke-opacity:1"/>
<line clip-path="url(#clip792)" x1="307.433" y1="339.303" x2="307.433" y2="307.303" style="stroke:#000000; stroke-width:1.6; stroke-opacity:1"/>
<line clip-path="url(#clip792)" x1="308.291" y1="339.303" x2="308.291" y2="307.303" style="stroke:#000000; stroke-width:1.6; stroke-opacity:1"/>
<line clip-path="url(#clip792)" x1="350.956" y1="339.303" x2="350.956" y2="307.303" style="stroke:#000000; stroke-width:1.6; stroke-opacity:1"/>
<line clip-path="url(#clip792)" x1="390.926" y1="339.303" x2="390.926" y2="307.303" style="stroke:#000000; stroke-width:1.6; stroke-opacity:1"/>
<line clip-path="url(#clip792)" x1="395.291" y1="339.303" x2="395.291" y2="307.303" style="stroke:#000000; stroke-width:1.6; stroke-opacity:1"/>
<line clip-path="url(#clip792)" x1="434.771" y1="339.303" x2="434.771" y2="307.303" style="stroke:#000000; stroke-width:1.6; stroke-opacity:1"/>
<line clip-path="url(#clip792)" x1="478.15" y1="339.303" x2="478.15" y2="307.303" style="stroke:#000000; stroke-width:1.6; stroke-opacity:1"/>
<line clip-path="url(#clip792)" x1="489.765" y1="339.303" x2="489.765" y2="307.303" style="stroke:#000000; stroke-width:1.6; stroke-opacity:1"/>
<line clip-path="url(#clip792)" x1="492.504" y1="339.303" x2="492.504" y2="307.303" style="stroke:#000000; stroke-width:1.6; stroke-opacity:1"/>
<line clip-path="url(#clip792)" x1="499.929" y1="339.303" x2="499.929" y2="307.303" style="stroke:#000000; stroke-width:1.6; stroke-opacity:1"/>
<line clip-path="url(#clip792)" x1="528.639" y1="339.303" x2="528.639" y2="307.303" style="stroke:#000000; stroke-width:1.6; stroke-opacity:1"/>
<line clip-path="url(#clip792)" x1="594.682" y1="339.303" x2="594.682" y2="307.303" style="stroke:#000000; stroke-width:1.6; stroke-opacity:1"/>
<line clip-path="url(#clip792)" x1="682.829" y1="339.303" x2="682.829" y2="307.303" style="stroke:#000000; stroke-width:1.6; stroke-opacity:1"/>
<line clip-path="url(#clip792)" x1="706.737" y1="339.303" x2="706.737" y2="307.303" style="stroke:#000000; stroke-width:1.6; stroke-opacity:1"/>
<line clip-path="url(#clip792)" x1="740.943" y1="339.303" x2="740.943" y2="307.303" style="stroke:#000000; stroke-width:1.6; stroke-opacity:1"/>
<line clip-path="url(#clip792)" x1="813.98" y1="339.303" x2="813.98" y2="307.303" style="stroke:#000000; stroke-width:1.6; stroke-opacity:1"/>
<line clip-path="url(#clip792)" x1="880.69" y1="339.303" x2="880.69" y2="307.303" style="stroke:#000000; stroke-width:1.6; stroke-opacity:1"/>
<line clip-path="url(#clip792)" x1="882.537" y1="339.303" x2="882.537" y2="307.303" style="stroke:#000000; stroke-width:1.6; stroke-opacity:1"/>
<line clip-path="url(#clip792)" x1="911.566" y1="339.303" x2="911.566" y2="307.303" style="stroke:#000000; stroke-width:1.6; stroke-opacity:1"/>
<line clip-path="url(#clip792)" x1="933.397" y1="339.303" x2="933.397" y2="307.303" style="stroke:#000000; stroke-width:1.6; stroke-opacity:1"/>
<line clip-path="url(#clip792)" x1="1104.96" y1="339.303" x2="1104.96" y2="307.303" style="stroke:#000000; stroke-width:1.6; stroke-opacity:1"/>
<line clip-path="url(#clip792)" x1="1289.52" y1="339.303" x2="1289.52" y2="307.303" style="stroke:#000000; stroke-width:1.6; stroke-opacity:1"/>
<line clip-path="url(#clip792)" x1="1540.33" y1="339.303" x2="1540.33" y2="307.303" style="stroke:#000000; stroke-width:1.6; stroke-opacity:1"/>
<line clip-path="url(#clip792)" x1="1580.82" y1="339.303" x2="1580.82" y2="307.303" style="stroke:#000000; stroke-width:1.6; stroke-opacity:1"/>
<line clip-path="url(#clip792)" x1="1612.74" y1="339.303" x2="1612.74" y2="307.303" style="stroke:#000000; stroke-width:1.6; stroke-opacity:1"/>
<line clip-path="url(#clip792)" x1="1671" y1="339.303" x2="1671" y2="307.303" style="stroke:#000000; stroke-width:1.6; stroke-opacity:1"/>
<line clip-path="url(#clip792)" x1="1728.31" y1="339.303" x2="1728.31" y2="307.303" style="stroke:#000000; stroke-width:1.6; stroke-opacity:1"/>
<line clip-path="url(#clip792)" x1="1880.1" y1="339.303" x2="1880.1" y2="307.303" style="stroke:#000000; stroke-width:1.6; stroke-opacity:1"/>
<line clip-path="url(#clip792)" x1="1925.73" y1="339.303" x2="1925.73" y2="307.303" style="stroke:#000000; stroke-width:1.6; stroke-opacity:1"/>
<line clip-path="url(#clip792)" x1="1931.98" y1="339.303" x2="1931.98" y2="307.303" style="stroke:#000000; stroke-width:1.6; stroke-opacity:1"/>
<line clip-path="url(#clip792)" x1="1947.69" y1="339.303" x2="1947.69" y2="307.303" style="stroke:#000000; stroke-width:1.6; stroke-opacity:1"/>
<line clip-path="url(#clip792)" x1="197.894" y1="274.652" x2="197.894" y2="242.652" style="stroke:#000000; stroke-width:1.6; stroke-opacity:1"/>
<line clip-path="url(#clip792)" x1="202.455" y1="274.652" x2="202.455" y2="242.652" style="stroke:#000000; stroke-width:1.6; stroke-opacity:1"/>
<line clip-path="url(#clip792)" x1="208.849" y1="274.652" x2="208.849" y2="242.652" style="stroke:#000000; stroke-width:1.6; stroke-opacity:1"/>
<line clip-path="url(#clip792)" x1="262.156" y1="274.652" x2="262.156" y2="242.652" style="stroke:#000000; stroke-width:1.6; stroke-opacity:1"/>
<line clip-path="url(#clip792)" x1="278.419" y1="274.652" x2="278.419" y2="242.652" style="stroke:#000000; stroke-width:1.6; stroke-opacity:1"/>
<line clip-path="url(#clip792)" x1="403.699" y1="274.652" x2="403.699" y2="242.652" style="stroke:#000000; stroke-width:1.6; stroke-opacity:1"/>
<line clip-path="url(#clip792)" x1="491.537" y1="274.652" x2="491.537" y2="242.652" style="stroke:#000000; stroke-width:1.6; stroke-opacity:1"/>
<line clip-path="url(#clip792)" x1="546.662" y1="274.652" x2="546.662" y2="242.652" style="stroke:#000000; stroke-width:1.6; stroke-opacity:1"/>
<line clip-path="url(#clip792)" x1="613.52" y1="274.652" x2="613.52" y2="242.652" style="stroke:#000000; stroke-width:1.6; stroke-opacity:1"/>
<line clip-path="url(#clip792)" x1="621.455" y1="274.652" x2="621.455" y2="242.652" style="stroke:#000000; stroke-width:1.6; stroke-opacity:1"/>
<line clip-path="url(#clip792)" x1="775.85" y1="274.652" x2="775.85" y2="242.652" style="stroke:#000000; stroke-width:1.6; stroke-opacity:1"/>
<line clip-path="url(#clip792)" x1="836.722" y1="274.652" x2="836.722" y2="242.652" style="stroke:#000000; stroke-width:1.6; stroke-opacity:1"/>
<line clip-path="url(#clip792)" x1="845.767" y1="274.652" x2="845.767" y2="242.652" style="stroke:#000000; stroke-width:1.6; stroke-opacity:1"/>
<line clip-path="url(#clip792)" x1="884.74" y1="274.652" x2="884.74" y2="242.652" style="stroke:#000000; stroke-width:1.6; stroke-opacity:1"/>
<line clip-path="url(#clip792)" x1="899.917" y1="274.652" x2="899.917" y2="242.652" style="stroke:#000000; stroke-width:1.6; stroke-opacity:1"/>
<line clip-path="url(#clip792)" x1="901.693" y1="274.652" x2="901.693" y2="242.652" style="stroke:#000000; stroke-width:1.6; stroke-opacity:1"/>
<line clip-path="url(#clip792)" x1="945.127" y1="274.652" x2="945.127" y2="242.652" style="stroke:#000000; stroke-width:1.6; stroke-opacity:1"/>
<line clip-path="url(#clip792)" x1="1032.85" y1="274.652" x2="1032.85" y2="242.652" style="stroke:#000000; stroke-width:1.6; stroke-opacity:1"/>
<line clip-path="url(#clip792)" x1="1066.83" y1="274.652" x2="1066.83" y2="242.652" style="stroke:#000000; stroke-width:1.6; stroke-opacity:1"/>
<line clip-path="url(#clip792)" x1="1117.44" y1="274.652" x2="1117.44" y2="242.652" style="stroke:#000000; stroke-width:1.6; stroke-opacity:1"/>
<line clip-path="url(#clip792)" x1="1386.78" y1="274.652" x2="1386.78" y2="242.652" style="stroke:#000000; stroke-width:1.6; stroke-opacity:1"/>
<line clip-path="url(#clip792)" x1="1786.69" y1="274.652" x2="1786.69" y2="242.652" style="stroke:#000000; stroke-width:1.6; stroke-opacity:1"/>
<line clip-path="url(#clip792)" x1="1798.2" y1="274.652" x2="1798.2" y2="242.652" style="stroke:#000000; stroke-width:1.6; stroke-opacity:1"/>
<line clip-path="url(#clip792)" x1="1862.57" y1="274.652" x2="1862.57" y2="242.652" style="stroke:#000000; stroke-width:1.6; stroke-opacity:1"/>
<line clip-path="url(#clip792)" x1="1886.63" y1="274.652" x2="1886.63" y2="242.652" style="stroke:#000000; stroke-width:1.6; stroke-opacity:1"/>
<line clip-path="url(#clip792)" x1="1899.46" y1="274.652" x2="1899.46" y2="242.652" style="stroke:#000000; stroke-width:1.6; stroke-opacity:1"/>
<line clip-path="url(#clip792)" x1="1916.48" y1="274.652" x2="1916.48" y2="242.652" style="stroke:#000000; stroke-width:1.6; stroke-opacity:1"/>
<line clip-path="url(#clip792)" x1="202.548" y1="210.001" x2="202.548" y2="178.001" style="stroke:#000000; stroke-width:1.6; stroke-opacity:1"/>
<line clip-path="url(#clip792)" x1="358.211" y1="210.001" x2="358.211" y2="178.001" style="stroke:#000000; stroke-width:1.6; stroke-opacity:1"/>
<line clip-path="url(#clip792)" x1="529.334" y1="210.001" x2="529.334" y2="178.001" style="stroke:#000000; stroke-width:1.6; stroke-opacity:1"/>
<line clip-path="url(#clip792)" x1="589.537" y1="210.001" x2="589.537" y2="178.001" style="stroke:#000000; stroke-width:1.6; stroke-opacity:1"/>
<line clip-path="url(#clip792)" x1="604.805" y1="210.001" x2="604.805" y2="178.001" style="stroke:#000000; stroke-width:1.6; stroke-opacity:1"/>
<line clip-path="url(#clip792)" x1="679.774" y1="210.001" x2="679.774" y2="178.001" style="stroke:#000000; stroke-width:1.6; stroke-opacity:1"/>
<line clip-path="url(#clip792)" x1="701.42" y1="210.001" x2="701.42" y2="178.001" style="stroke:#000000; stroke-width:1.6; stroke-opacity:1"/>
<line clip-path="url(#clip792)" x1="710.612" y1="210.001" x2="710.612" y2="178.001" style="stroke:#000000; stroke-width:1.6; stroke-opacity:1"/>
<line clip-path="url(#clip792)" x1="752.756" y1="210.001" x2="752.756" y2="178.001" style="stroke:#000000; stroke-width:1.6; stroke-opacity:1"/>
<line clip-path="url(#clip792)" x1="774.783" y1="210.001" x2="774.783" y2="178.001" style="stroke:#000000; stroke-width:1.6; stroke-opacity:1"/>
<line clip-path="url(#clip792)" x1="876.228" y1="210.001" x2="876.228" y2="178.001" style="stroke:#000000; stroke-width:1.6; stroke-opacity:1"/>
<line clip-path="url(#clip792)" x1="916.252" y1="210.001" x2="916.252" y2="178.001" style="stroke:#000000; stroke-width:1.6; stroke-opacity:1"/>
<line clip-path="url(#clip792)" x1="1018.88" y1="210.001" x2="1018.88" y2="178.001" style="stroke:#000000; stroke-width:1.6; stroke-opacity:1"/>
<line clip-path="url(#clip792)" x1="1095.97" y1="210.001" x2="1095.97" y2="178.001" style="stroke:#000000; stroke-width:1.6; stroke-opacity:1"/>
<line clip-path="url(#clip792)" x1="1145.31" y1="210.001" x2="1145.31" y2="178.001" style="stroke:#000000; stroke-width:1.6; stroke-opacity:1"/>
<line clip-path="url(#clip792)" x1="1178.14" y1="210.001" x2="1178.14" y2="178.001" style="stroke:#000000; stroke-width:1.6; stroke-opacity:1"/>
<line clip-path="url(#clip792)" x1="1225.38" y1="210.001" x2="1225.38" y2="178.001" style="stroke:#000000; stroke-width:1.6; stroke-opacity:1"/>
<line clip-path="url(#clip792)" x1="1355.08" y1="210.001" x2="1355.08" y2="178.001" style="stroke:#000000; stroke-width:1.6; stroke-opacity:1"/>
<line clip-path="url(#clip792)" x1="1394.16" y1="210.001" x2="1394.16" y2="178.001" style="stroke:#000000; stroke-width:1.6; stroke-opacity:1"/>
<line clip-path="url(#clip792)" x1="1406.48" y1="210.001" x2="1406.48" y2="178.001" style="stroke:#000000; stroke-width:1.6; stroke-opacity:1"/>
<line clip-path="url(#clip792)" x1="1410.76" y1="210.001" x2="1410.76" y2="178.001" style="stroke:#000000; stroke-width:1.6; stroke-opacity:1"/>
<line clip-path="url(#clip792)" x1="1417.8" y1="210.001" x2="1417.8" y2="178.001" style="stroke:#000000; stroke-width:1.6; stroke-opacity:1"/>
<line clip-path="url(#clip792)" x1="1468.05" y1="210.001" x2="1468.05" y2="178.001" style="stroke:#000000; stroke-width:1.6; stroke-opacity:1"/>
<line clip-path="url(#clip792)" x1="1475.65" y1="210.001" x2="1475.65" y2="178.001" style="stroke:#000000; stroke-width:1.6; stroke-opacity:1"/>
<line clip-path="url(#clip792)" x1="1546.16" y1="210.001" x2="1546.16" y2="178.001" style="stroke:#000000; stroke-width:1.6; stroke-opacity:1"/>
<line clip-path="url(#clip792)" x1="1563.05" y1="210.001" x2="1563.05" y2="178.001" style="stroke:#000000; stroke-width:1.6; stroke-opacity:1"/>
<line clip-path="url(#clip792)" x1="1712.04" y1="210.001" x2="1712.04" y2="178.001" style="stroke:#000000; stroke-width:1.6; stroke-opacity:1"/>
<line clip-path="url(#clip792)" x1="1729.42" y1="210.001" x2="1729.42" y2="178.001" style="stroke:#000000; stroke-width:1.6; stroke-opacity:1"/>
<line clip-path="url(#clip792)" x1="1798.86" y1="210.001" x2="1798.86" y2="178.001" style="stroke:#000000; stroke-width:1.6; stroke-opacity:1"/>
<line clip-path="url(#clip792)" x1="1804.27" y1="210.001" x2="1804.27" y2="178.001" style="stroke:#000000; stroke-width:1.6; stroke-opacity:1"/>
<line clip-path="url(#clip792)" x1="1842.94" y1="210.001" x2="1842.94" y2="178.001" style="stroke:#000000; stroke-width:1.6; stroke-opacity:1"/>
<line clip-path="url(#clip792)" x1="1881.72" y1="210.001" x2="1881.72" y2="178.001" style="stroke:#000000; stroke-width:1.6; stroke-opacity:1"/>
<line clip-path="url(#clip792)" x1="1911.27" y1="210.001" x2="1911.27" y2="178.001" style="stroke:#000000; stroke-width:1.6; stroke-opacity:1"/>
<line clip-path="url(#clip792)" x1="256.895" y1="145.35" x2="256.895" y2="113.35" style="stroke:#000000; stroke-width:1.6; stroke-opacity:1"/>
<line clip-path="url(#clip792)" x1="470.555" y1="145.35" x2="470.555" y2="113.35" style="stroke:#000000; stroke-width:1.6; stroke-opacity:1"/>
<line clip-path="url(#clip792)" x1="500.209" y1="145.35" x2="500.209" y2="113.35" style="stroke:#000000; stroke-width:1.6; stroke-opacity:1"/>
<line clip-path="url(#clip792)" x1="629.47" y1="145.35" x2="629.47" y2="113.35" style="stroke:#000000; stroke-width:1.6; stroke-opacity:1"/>
<line clip-path="url(#clip792)" x1="793.861" y1="145.35" x2="793.861" y2="113.35" style="stroke:#000000; stroke-width:1.6; stroke-opacity:1"/>
<line clip-path="url(#clip792)" x1="829.704" y1="145.35" x2="829.704" y2="113.35" style="stroke:#000000; stroke-width:1.6; stroke-opacity:1"/>
<line clip-path="url(#clip792)" x1="852.35" y1="145.35" x2="852.35" y2="113.35" style="stroke:#000000; stroke-width:1.6; stroke-opacity:1"/>
<line clip-path="url(#clip792)" x1="902.339" y1="145.35" x2="902.339" y2="113.35" style="stroke:#000000; stroke-width:1.6; stroke-opacity:1"/>
<line clip-path="url(#clip792)" x1="985.26" y1="145.35" x2="985.26" y2="113.35" style="stroke:#000000; stroke-width:1.6; stroke-opacity:1"/>
<line clip-path="url(#clip792)" x1="1092.74" y1="145.35" x2="1092.74" y2="113.35" style="stroke:#000000; stroke-width:1.6; stroke-opacity:1"/>
<line clip-path="url(#clip792)" x1="1119.37" y1="145.35" x2="1119.37" y2="113.35" style="stroke:#000000; stroke-width:1.6; stroke-opacity:1"/>
<line clip-path="url(#clip792)" x1="1209.94" y1="145.35" x2="1209.94" y2="113.35" style="stroke:#000000; stroke-width:1.6; stroke-opacity:1"/>
<line clip-path="url(#clip792)" x1="1259.86" y1="145.35" x2="1259.86" y2="113.35" style="stroke:#000000; stroke-width:1.6; stroke-opacity:1"/>
<line clip-path="url(#clip792)" x1="1415.17" y1="145.35" x2="1415.17" y2="113.35" style="stroke:#000000; stroke-width:1.6; stroke-opacity:1"/>
<line clip-path="url(#clip792)" x1="1514.67" y1="145.35" x2="1514.67" y2="113.35" style="stroke:#000000; stroke-width:1.6; stroke-opacity:1"/>
<line clip-path="url(#clip792)" x1="1585.76" y1="145.35" x2="1585.76" y2="113.35" style="stroke:#000000; stroke-width:1.6; stroke-opacity:1"/>
<line clip-path="url(#clip792)" x1="1602.43" y1="145.35" x2="1602.43" y2="113.35" style="stroke:#000000; stroke-width:1.6; stroke-opacity:1"/>
<line clip-path="url(#clip792)" x1="1612.35" y1="145.35" x2="1612.35" y2="113.35" style="stroke:#000000; stroke-width:1.6; stroke-opacity:1"/>
<line clip-path="url(#clip792)" x1="1873.38" y1="145.35" x2="1873.38" y2="113.35" style="stroke:#000000; stroke-width:1.6; stroke-opacity:1"/>
<line clip-path="url(#clip792)" x1="461.702" y1="80.6998" x2="461.702" y2="48.6998" style="stroke:#000000; stroke-width:1.6; stroke-opacity:1"/>
<line clip-path="url(#clip792)" x1="476.22" y1="80.6998" x2="476.22" y2="48.6998" style="stroke:#000000; stroke-width:1.6; stroke-opacity:1"/>
<line clip-path="url(#clip792)" x1="500.337" y1="80.6998" x2="500.337" y2="48.6998" style="stroke:#000000; stroke-width:1.6; stroke-opacity:1"/>
<line clip-path="url(#clip792)" x1="531.614" y1="80.6998" x2="531.614" y2="48.6998" style="stroke:#000000; stroke-width:1.6; stroke-opacity:1"/>
<line clip-path="url(#clip792)" x1="534.664" y1="80.6998" x2="534.664" y2="48.6998" style="stroke:#000000; stroke-width:1.6; stroke-opacity:1"/>
<line clip-path="url(#clip792)" x1="539.365" y1="80.6998" x2="539.365" y2="48.6998" style="stroke:#000000; stroke-width:1.6; stroke-opacity:1"/>
<line clip-path="url(#clip792)" x1="548.936" y1="80.6998" x2="548.936" y2="48.6998" style="stroke:#000000; stroke-width:1.6; stroke-opacity:1"/>
<line clip-path="url(#clip792)" x1="550.228" y1="80.6998" x2="550.228" y2="48.6998" style="stroke:#000000; stroke-width:1.6; stroke-opacity:1"/>
<line clip-path="url(#clip792)" x1="557.491" y1="80.6998" x2="557.491" y2="48.6998" style="stroke:#000000; stroke-width:1.6; stroke-opacity:1"/>
<line clip-path="url(#clip792)" x1="559.579" y1="80.6998" x2="559.579" y2="48.6998" style="stroke:#000000; stroke-width:1.6; stroke-opacity:1"/>
<line clip-path="url(#clip792)" x1="575.245" y1="80.6998" x2="575.245" y2="48.6998" style="stroke:#000000; stroke-width:1.6; stroke-opacity:1"/>
<line clip-path="url(#clip792)" x1="662.565" y1="80.6998" x2="662.565" y2="48.6998" style="stroke:#000000; stroke-width:1.6; stroke-opacity:1"/>
<line clip-path="url(#clip792)" x1="696.094" y1="80.6998" x2="696.094" y2="48.6998" style="stroke:#000000; stroke-width:1.6; stroke-opacity:1"/>
<line clip-path="url(#clip792)" x1="709.344" y1="80.6998" x2="709.344" y2="48.6998" style="stroke:#000000; stroke-width:1.6; stroke-opacity:1"/>
<line clip-path="url(#clip792)" x1="754.994" y1="80.6998" x2="754.994" y2="48.6998" style="stroke:#000000; stroke-width:1.6; stroke-opacity:1"/>
<line clip-path="url(#clip792)" x1="860.187" y1="80.6998" x2="860.187" y2="48.6998" style="stroke:#000000; stroke-width:1.6; stroke-opacity:1"/>
<line clip-path="url(#clip792)" x1="910.621" y1="80.6998" x2="910.621" y2="48.6998" style="stroke:#000000; stroke-width:1.6; stroke-opacity:1"/>
<line clip-path="url(#clip792)" x1="916.886" y1="80.6998" x2="916.886" y2="48.6998" style="stroke:#000000; stroke-width:1.6; stroke-opacity:1"/>
<line clip-path="url(#clip792)" x1="994.942" y1="80.6998" x2="994.942" y2="48.6998" style="stroke:#000000; stroke-width:1.6; stroke-opacity:1"/>
<line clip-path="url(#clip792)" x1="1082.42" y1="80.6998" x2="1082.42" y2="48.6998" style="stroke:#000000; stroke-width:1.6; stroke-opacity:1"/>
<line clip-path="url(#clip792)" x1="1157.49" y1="80.6998" x2="1157.49" y2="48.6998" style="stroke:#000000; stroke-width:1.6; stroke-opacity:1"/>
<line clip-path="url(#clip792)" x1="1326.1" y1="80.6998" x2="1326.1" y2="48.6998" style="stroke:#000000; stroke-width:1.6; stroke-opacity:1"/>
<line clip-path="url(#clip792)" x1="1351.8" y1="80.6998" x2="1351.8" y2="48.6998" style="stroke:#000000; stroke-width:1.6; stroke-opacity:1"/>
<line clip-path="url(#clip792)" x1="1382.44" y1="80.6998" x2="1382.44" y2="48.6998" style="stroke:#000000; stroke-width:1.6; stroke-opacity:1"/>
<line clip-path="url(#clip792)" x1="1410.41" y1="80.6998" x2="1410.41" y2="48.6998" style="stroke:#000000; stroke-width:1.6; stroke-opacity:1"/>
<line clip-path="url(#clip792)" x1="1469.24" y1="80.6998" x2="1469.24" y2="48.6998" style="stroke:#000000; stroke-width:1.6; stroke-opacity:1"/>
<line clip-path="url(#clip792)" x1="1567.97" y1="80.6998" x2="1567.97" y2="48.6998" style="stroke:#000000; stroke-width:1.6; stroke-opacity:1"/>
<line clip-path="url(#clip792)" x1="1622.45" y1="80.6998" x2="1622.45" y2="48.6998" style="stroke:#000000; stroke-width:1.6; stroke-opacity:1"/>
<line clip-path="url(#clip792)" x1="1663.46" y1="80.6998" x2="1663.46" y2="48.6998" style="stroke:#000000; stroke-width:1.6; stroke-opacity:1"/>
<line clip-path="url(#clip792)" x1="1691.42" y1="80.6998" x2="1691.42" y2="48.6998" style="stroke:#000000; stroke-width:1.6; stroke-opacity:1"/>
<line clip-path="url(#clip792)" x1="1722.83" y1="80.6998" x2="1722.83" y2="48.6998" style="stroke:#000000; stroke-width:1.6; stroke-opacity:1"/>
<line clip-path="url(#clip792)" x1="1807.18" y1="80.6998" x2="1807.18" y2="48.6998" style="stroke:#000000; stroke-width:1.6; stroke-opacity:1"/>
<line clip-path="url(#clip792)" x1="1930.68" y1="80.6998" x2="1930.68" y2="48.6998" style="stroke:#000000; stroke-width:1.6; stroke-opacity:1"/>
<line clip-path="url(#clip792)" x1="1933.91" y1="80.6998" x2="1933.91" y2="48.6998" style="stroke:#000000; stroke-width:1.6; stroke-opacity:1"/>
<line clip-path="url(#clip792)" x1="1952.69" y1="80.6998" x2="1952.69" y2="48.6998" style="stroke:#000000; stroke-width:1.6; stroke-opacity:1"/>
</svg>
