<?xml version="1.0" encoding="utf-8"?>
<svg xmlns="http://www.w3.org/2000/svg" xmlns:xlink="http://www.w3.org/1999/xlink" width="500" height="300" viewBox="0 0 2000 1200">
<defs>
  <clipPath id="clip720">
    <rect x="0" y="0" width="2000" height="1200"/>
  </clipPath>
</defs>
<path clip-path="url(#clip720)" d="
M0 1200 L2000 1200 L2000 0 L0 0  Z
  " fill="#ffffff" fill-rule="evenodd" fill-opacity="1"/>
<defs>
  <clipPath id="clip721">
    <rect x="400" y="0" width="1401" height="1200"/>
  </clipPath>
</defs>
<path clip-path="url(#clip720)" d="
M191.276 464.646 L1952.76 464.646 L1952.76 47.2441 L191.276 47.2441  Z
  " fill="#ffffff" fill-rule="evenodd" fill-opacity="1"/>
<defs>
  <clipPath id="clip722">
    <rect x="191" y="47" width="1762" height="418"/>
  </clipPath>
</defs>
<polyline clip-path="url(#clip722)" style="stroke:#000000; stroke-width:2; stroke-opacity:0.1; fill:none" points="
  191.276,464.646 191.276,47.2441 
  "/>
<polyline clip-path="url(#clip722)" style="stroke:#000000; stroke-width:2; stroke-opacity:0.1; fill:none" points="
  627.286,464.646 627.286,47.2441 
  "/>
<polyline clip-path="url(#clip722)" style="stroke:#000000; stroke-width:2; stroke-opacity:0.1; fill:none" points="
  1063.3,464.646 1063.3,47.2441 
  "/>
<polyline clip-path="url(#clip722)" style="stroke:#000000; stroke-width:2; stroke-opacity:0.1; fill:none" points="
  1499.31,464.646 1499.31,47.2441 
  "/>
<polyline clip-path="url(#clip722)" style="stroke:#000000; stroke-width:2; stroke-opacity:0.1; fill:none" points="
  1935.32,464.646 1935.32,47.2441 
  "/>
<polyline clip-path="url(#clip720)" style="stroke:#000000; stroke-width:4; stroke-opacity:1; fill:none" points="
  191.276,464.646 1952.76,464.646 
  "/>
<polyline clip-path="url(#clip720)" style="stroke:#000000; stroke-width:4; stroke-opacity:1; fill:none" points="
  191.276,464.646 191.276,459.637 
  "/>
<polyline clip-path="url(#clip720)" style="stroke:#000000; stroke-width:4; stroke-opacity:1; fill:none" points="
  627.286,464.646 627.286,459.637 
  "/>
<polyline clip-path="url(#clip720)" style="stroke:#000000; stroke-width:4; stroke-opacity:1; fill:none" points="
  1063.3,464.646 1063.3,459.637 
  "/>
<polyline clip-path="url(#clip720)" style="stroke:#000000; stroke-width:4; stroke-opacity:1; fill:none" points="
  1499.31,464.646 1499.31,459.637 
  "/>
<polyline clip-path="url(#clip720)" style="stroke:#000000; stroke-width:4; stroke-opacity:1; fill:none" points="
  1935.32,464.646 1935.32,459.637 
  "/>
<path clip-path="url(#clip720)" d="M 0 0 M191.276 490.637 Q187.665 490.637 185.837 494.201 Q184.031 497.743 184.031 504.873 Q184.031 511.979 185.837 515.544 Q187.665 519.085 191.276 519.085 Q194.911 519.085 196.716 515.544 Q198.545 511.979 198.545 504.873 Q198.545 497.743 196.716 494.201 Q194.911 490.637 191.276 490.637 M191.276 486.933 Q197.087 486.933 200.142 491.539 Q203.221 496.123 203.221 504.873 Q203.221 513.599 200.142 518.206 Q197.087 522.789 191.276 522.789 Q185.466 522.789 182.388 518.206 Q179.332 513.599 179.332 504.873 Q179.332 496.123 182.388 491.539 Q185.466 486.933 191.276 486.933 Z" fill="#000000" fill-rule="evenodd" fill-opacity="1" /><path clip-path="url(#clip720)" d="M 0 0 M595.423 518.183 L611.742 518.183 L611.742 522.118 L589.798 522.118 L589.798 518.183 Q592.46 515.428 597.043 510.798 Q601.65 506.146 602.83 504.803 Q605.076 502.28 605.955 500.544 Q606.858 498.785 606.858 497.095 Q606.858 494.34 604.914 492.604 Q602.992 490.868 599.89 490.868 Q597.691 490.868 595.238 491.632 Q592.807 492.396 590.029 493.947 L590.029 489.225 Q592.853 488.09 595.307 487.512 Q597.761 486.933 599.798 486.933 Q605.168 486.933 608.363 489.618 Q611.557 492.303 611.557 496.794 Q611.557 498.924 610.747 500.845 Q609.96 502.743 607.853 505.336 Q607.275 506.007 604.173 509.224 Q601.071 512.419 595.423 518.183 Z" fill="#000000" fill-rule="evenodd" fill-opacity="1" /><path clip-path="url(#clip720)" d="M 0 0 M616.858 487.558 L635.214 487.558 L635.214 491.493 L621.14 491.493 L621.14 499.965 Q622.159 499.618 623.177 499.456 Q624.196 499.271 625.214 499.271 Q631.001 499.271 634.381 502.442 Q637.761 505.613 637.761 511.03 Q637.761 516.609 634.288 519.71 Q630.816 522.789 624.497 522.789 Q622.321 522.789 620.052 522.419 Q617.807 522.048 615.4 521.308 L615.4 516.609 Q617.483 517.743 619.705 518.298 Q621.927 518.854 624.404 518.854 Q628.409 518.854 630.747 516.748 Q633.085 514.641 633.085 511.03 Q633.085 507.419 630.747 505.312 Q628.409 503.206 624.404 503.206 Q622.529 503.206 620.654 503.623 Q618.802 504.039 616.858 504.919 L616.858 487.558 Z" fill="#000000" fill-rule="evenodd" fill-opacity="1" /><path clip-path="url(#clip720)" d="M 0 0 M652.83 490.637 Q649.219 490.637 647.39 494.201 Q645.585 497.743 645.585 504.873 Q645.585 511.979 647.39 515.544 Q649.219 519.085 652.83 519.085 Q656.464 519.085 658.27 515.544 Q660.099 511.979 660.099 504.873 Q660.099 497.743 658.27 494.201 Q656.464 490.637 652.83 490.637 M652.83 486.933 Q658.64 486.933 661.696 491.539 Q664.774 496.123 664.774 504.873 Q664.774 513.599 661.696 518.206 Q658.64 522.789 652.83 522.789 Q647.02 522.789 643.941 518.206 Q640.886 513.599 640.886 504.873 Q640.886 496.123 643.941 491.539 Q647.02 486.933 652.83 486.933 Z" fill="#000000" fill-rule="evenodd" fill-opacity="1" /><path clip-path="url(#clip720)" d="M 0 0 M1026.56 487.558 L1044.92 487.558 L1044.92 491.493 L1030.84 491.493 L1030.84 499.965 Q1031.86 499.618 1032.88 499.456 Q1033.9 499.271 1034.92 499.271 Q1040.7 499.271 1044.08 502.442 Q1047.46 505.613 1047.46 511.03 Q1047.46 516.609 1043.99 519.71 Q1040.52 522.789 1034.2 522.789 Q1032.02 522.789 1029.75 522.419 Q1027.51 522.048 1025.1 521.308 L1025.1 516.609 Q1027.19 517.743 1029.41 518.298 Q1031.63 518.854 1034.11 518.854 Q1038.11 518.854 1040.45 516.748 Q1042.79 514.641 1042.79 511.03 Q1042.79 507.419 1040.45 505.312 Q1038.11 503.206 1034.11 503.206 Q1032.23 503.206 1030.36 503.623 Q1028.5 504.039 1026.56 504.919 L1026.56 487.558 Z" fill="#000000" fill-rule="evenodd" fill-opacity="1" /><path clip-path="url(#clip720)" d="M 0 0 M1062.53 490.637 Q1058.92 490.637 1057.09 494.201 Q1055.29 497.743 1055.29 504.873 Q1055.29 511.979 1057.09 515.544 Q1058.92 519.085 1062.53 519.085 Q1066.17 519.085 1067.97 515.544 Q1069.8 511.979 1069.8 504.873 Q1069.8 497.743 1067.97 494.201 Q1066.17 490.637 1062.53 490.637 M1062.53 486.933 Q1068.34 486.933 1071.4 491.539 Q1074.48 496.123 1074.48 504.873 Q1074.48 513.599 1071.4 518.206 Q1068.34 522.789 1062.53 522.789 Q1056.72 522.789 1053.64 518.206 Q1050.59 513.599 1050.59 504.873 Q1050.59 496.123 1053.64 491.539 Q1056.72 486.933 1062.53 486.933 Z" fill="#000000" fill-rule="evenodd" fill-opacity="1" /><path clip-path="url(#clip720)" d="M 0 0 M1089.55 490.637 Q1085.93 490.637 1084.11 494.201 Q1082.3 497.743 1082.3 504.873 Q1082.3 511.979 1084.11 515.544 Q1085.93 519.085 1089.55 519.085 Q1093.18 519.085 1094.99 515.544 Q1096.81 511.979 1096.81 504.873 Q1096.81 497.743 1094.99 494.201 Q1093.18 490.637 1089.55 490.637 M1089.55 486.933 Q1095.36 486.933 1098.41 491.539 Q1101.49 496.123 1101.49 504.873 Q1101.49 513.599 1098.41 518.206 Q1095.36 522.789 1089.55 522.789 Q1083.74 522.789 1080.66 518.206 Q1077.6 513.599 1077.6 504.873 Q1077.6 496.123 1080.66 491.539 Q1083.74 486.933 1089.55 486.933 Z" fill="#000000" fill-rule="evenodd" fill-opacity="1" /><path clip-path="url(#clip720)" d="M 0 0 M1461.68 487.558 L1483.9 487.558 L1483.9 489.549 L1471.35 522.118 L1466.47 522.118 L1478.28 491.493 L1461.68 491.493 L1461.68 487.558 Z" fill="#000000" fill-rule="evenodd" fill-opacity="1" /><path clip-path="url(#clip720)" d="M 0 0 M1489.02 487.558 L1507.37 487.558 L1507.37 491.493 L1493.3 491.493 L1493.3 499.965 Q1494.32 499.618 1495.34 499.456 Q1496.35 499.271 1497.37 499.271 Q1503.16 499.271 1506.54 502.442 Q1509.92 505.613 1509.92 511.03 Q1509.92 516.609 1506.45 519.71 Q1502.97 522.789 1496.66 522.789 Q1494.48 522.789 1492.21 522.419 Q1489.97 522.048 1487.56 521.308 L1487.56 516.609 Q1489.64 517.743 1491.86 518.298 Q1494.09 518.854 1496.56 518.854 Q1500.57 518.854 1502.91 516.748 Q1505.24 514.641 1505.24 511.03 Q1505.24 507.419 1502.91 505.312 Q1500.57 503.206 1496.56 503.206 Q1494.69 503.206 1492.81 503.623 Q1490.96 504.039 1489.02 504.919 L1489.02 487.558 Z" fill="#000000" fill-rule="evenodd" fill-opacity="1" /><path clip-path="url(#clip720)" d="M 0 0 M1524.99 490.637 Q1521.38 490.637 1519.55 494.201 Q1517.74 497.743 1517.74 504.873 Q1517.74 511.979 1519.55 515.544 Q1521.38 519.085 1524.99 519.085 Q1528.62 519.085 1530.43 515.544 Q1532.26 511.979 1532.26 504.873 Q1532.26 497.743 1530.43 494.201 Q1528.62 490.637 1524.99 490.637 M1524.99 486.933 Q1530.8 486.933 1533.85 491.539 Q1536.93 496.123 1536.93 504.873 Q1536.93 513.599 1533.85 518.206 Q1530.8 522.789 1524.99 522.789 Q1519.18 522.789 1516.1 518.206 Q1513.04 513.599 1513.04 504.873 Q1513.04 496.123 1516.1 491.539 Q1519.18 486.933 1524.99 486.933 Z" fill="#000000" fill-rule="evenodd" fill-opacity="1" /><path clip-path="url(#clip720)" d="M 0 0 M1885.18 518.183 L1892.82 518.183 L1892.82 491.817 L1884.51 493.484 L1884.51 489.225 L1892.77 487.558 L1897.45 487.558 L1897.45 518.183 L1905.08 518.183 L1905.08 522.118 L1885.18 522.118 L1885.18 518.183 Z" fill="#000000" fill-rule="evenodd" fill-opacity="1" /><path clip-path="url(#clip720)" d="M 0 0 M1920.15 490.637 Q1916.54 490.637 1914.71 494.201 Q1912.91 497.743 1912.91 504.873 Q1912.91 511.979 1914.71 515.544 Q1916.54 519.085 1920.15 519.085 Q1923.79 519.085 1925.59 515.544 Q1927.42 511.979 1927.42 504.873 Q1927.42 497.743 1925.59 494.201 Q1923.79 490.637 1920.15 490.637 M1920.15 486.933 Q1925.96 486.933 1929.02 491.539 Q1932.1 496.123 1932.1 504.873 Q1932.1 513.599 1929.02 518.206 Q1925.96 522.789 1920.15 522.789 Q1914.34 522.789 1911.26 518.206 Q1908.21 513.599 1908.21 504.873 Q1908.21 496.123 1911.26 491.539 Q1914.34 486.933 1920.15 486.933 Z" fill="#000000" fill-rule="evenodd" fill-opacity="1" /><path clip-path="url(#clip720)" d="M 0 0 M1947.17 490.637 Q1943.56 490.637 1941.73 494.201 Q1939.92 497.743 1939.92 504.873 Q1939.92 511.979 1941.73 515.544 Q1943.56 519.085 1947.17 519.085 Q1950.8 519.085 1952.61 515.544 Q1954.44 511.979 1954.44 504.873 Q1954.44 497.743 1952.61 494.201 Q1950.8 490.637 1947.17 490.637 M1947.17 486.933 Q1952.98 486.933 1956.03 491.539 Q1959.11 496.123 1959.11 504.873 Q1959.11 513.599 1956.03 518.206 Q1952.98 522.789 1947.17 522.789 Q1941.36 522.789 1938.28 518.206 Q1935.22 513.599 1935.22 504.873 Q1935.22 496.123 1938.28 491.539 Q1941.36 486.933 1947.17 486.933 Z" fill="#000000" fill-rule="evenodd" fill-opacity="1" /><path clip-path="url(#clip720)" d="M 0 0 M1974.18 490.637 Q1970.57 490.637 1968.74 494.201 Q1966.94 497.743 1966.94 504.873 Q1966.94 511.979 1968.74 515.544 Q1970.57 519.085 1974.18 519.085 Q1977.82 519.085 1979.62 515.544 Q1981.45 511.979 1981.45 504.873 Q1981.45 497.743 1979.62 494.201 Q1977.82 490.637 1974.18 490.637 M1974.18 486.933 Q1979.99 486.933 1983.05 491.539 Q1986.13 496.123 1986.13 504.873 Q1986.13 513.599 1983.05 518.206 Q1979.99 522.789 1974.18 522.789 Q1968.37 522.789 1965.29 518.206 Q1962.24 513.599 1962.24 504.873 Q1962.24 496.123 1965.29 491.539 Q1968.37 486.933 1974.18 486.933 Z" fill="#000000" fill-rule="evenodd" fill-opacity="1" /><polyline clip-path="url(#clip722)" style="stroke:#000000; stroke-width:2; stroke-opacity:0.1; fill:none" points="
  191.276,452.834 1952.76,452.834 
  "/>
<polyline clip-path="url(#clip722)" style="stroke:#000000; stroke-width:2; stroke-opacity:0.1; fill:none" points="
  191.276,321.575 1952.76,321.575 
  "/>
<polyline clip-path="url(#clip722)" style="stroke:#000000; stroke-width:2; stroke-opacity:0.1; fill:none" points="
  191.276,190.316 1952.76,190.316 
  "/>
<polyline clip-path="url(#clip722)" style="stroke:#000000; stroke-width:2; stroke-opacity:0.1; fill:none" points="
  191.276,59.0571 1952.76,59.0571 
  "/>
<polyline clip-path="url(#clip720)" style="stroke:#000000; stroke-width:4; stroke-opacity:1; fill:none" points="
  191.276,464.646 191.276,47.2441 
  "/>
<polyline clip-path="url(#clip720)" style="stroke:#000000; stroke-width:4; stroke-opacity:1; fill:none" points="
  191.276,452.834 212.414,452.834 
  "/>
<polyline clip-path="url(#clip720)" style="stroke:#000000; stroke-width:4; stroke-opacity:1; fill:none" points="
  191.276,321.575 212.414,321.575 
  "/>
<polyline clip-path="url(#clip720)" style="stroke:#000000; stroke-width:4; stroke-opacity:1; fill:none" points="
  191.276,190.316 212.414,190.316 
  "/>
<polyline clip-path="url(#clip720)" style="stroke:#000000; stroke-width:4; stroke-opacity:1; fill:none" points="
  191.276,59.0571 212.414,59.0571 
  "/>
<path clip-path="url(#clip720)" d="M 0 0 M149.332 438.632 Q145.721 438.632 143.892 442.197 Q142.087 445.739 142.087 452.868 Q142.087 459.975 143.892 463.54 Q145.721 467.081 149.332 467.081 Q152.966 467.081 154.772 463.54 Q156.601 459.975 156.601 452.868 Q156.601 445.739 154.772 442.197 Q152.966 438.632 149.332 438.632 M149.332 434.929 Q155.142 434.929 158.198 439.535 Q161.276 444.118 161.276 452.868 Q161.276 461.595 158.198 466.202 Q155.142 470.785 149.332 470.785 Q143.522 470.785 140.443 466.202 Q137.388 461.595 137.388 452.868 Q137.388 444.118 140.443 439.535 Q143.522 434.929 149.332 434.929 Z" fill="#000000" fill-rule="evenodd" fill-opacity="1" /><path clip-path="url(#clip720)" d="M 0 0 M114.355 334.92 L121.994 334.92 L121.994 308.554 L113.684 310.221 L113.684 305.961 L121.948 304.295 L126.624 304.295 L126.624 334.92 L134.263 334.92 L134.263 338.855 L114.355 338.855 L114.355 334.92 Z" fill="#000000" fill-rule="evenodd" fill-opacity="1" /><path clip-path="url(#clip720)" d="M 0 0 M149.332 307.373 Q145.721 307.373 143.892 310.938 Q142.087 314.48 142.087 321.609 Q142.087 328.716 143.892 332.281 Q145.721 335.822 149.332 335.822 Q152.966 335.822 154.772 332.281 Q156.601 328.716 156.601 321.609 Q156.601 314.48 154.772 310.938 Q152.966 307.373 149.332 307.373 M149.332 303.67 Q155.142 303.67 158.198 308.276 Q161.276 312.86 161.276 321.609 Q161.276 330.336 158.198 334.943 Q155.142 339.526 149.332 339.526 Q143.522 339.526 140.443 334.943 Q137.388 330.336 137.388 321.609 Q137.388 312.86 140.443 308.276 Q143.522 303.67 149.332 303.67 Z" fill="#000000" fill-rule="evenodd" fill-opacity="1" /><path clip-path="url(#clip720)" d="M 0 0 M117.943 203.661 L134.263 203.661 L134.263 207.596 L112.318 207.596 L112.318 203.661 Q114.98 200.906 119.564 196.277 Q124.17 191.624 125.351 190.281 Q127.596 187.758 128.476 186.022 Q129.378 184.263 129.378 182.573 Q129.378 179.818 127.434 178.082 Q125.513 176.346 122.411 176.346 Q120.212 176.346 117.758 177.11 Q115.328 177.874 112.55 179.425 L112.55 174.703 Q115.374 173.568 117.828 172.99 Q120.281 172.411 122.318 172.411 Q127.689 172.411 130.883 175.096 Q134.077 177.781 134.077 182.272 Q134.077 184.402 133.267 186.323 Q132.48 188.221 130.374 190.814 Q129.795 191.485 126.693 194.702 Q123.591 197.897 117.943 203.661 Z" fill="#000000" fill-rule="evenodd" fill-opacity="1" /><path clip-path="url(#clip720)" d="M 0 0 M149.332 176.115 Q145.721 176.115 143.892 179.679 Q142.087 183.221 142.087 190.351 Q142.087 197.457 143.892 201.022 Q145.721 204.564 149.332 204.564 Q152.966 204.564 154.772 201.022 Q156.601 197.457 156.601 190.351 Q156.601 183.221 154.772 179.679 Q152.966 176.115 149.332 176.115 M149.332 172.411 Q155.142 172.411 158.198 177.017 Q161.276 181.601 161.276 190.351 Q161.276 199.077 158.198 203.684 Q155.142 208.267 149.332 208.267 Q143.522 208.267 140.443 203.684 Q137.388 199.077 137.388 190.351 Q137.388 181.601 140.443 177.017 Q143.522 172.411 149.332 172.411 Z" fill="#000000" fill-rule="evenodd" fill-opacity="1" /><path clip-path="url(#clip720)" d="M 0 0 M127.133 57.7029 Q130.49 58.4205 132.365 60.689 Q134.263 62.9575 134.263 66.2909 Q134.263 71.4066 130.744 74.2075 Q127.226 77.0084 120.744 77.0084 Q118.568 77.0084 116.254 76.5686 Q113.962 76.1519 111.508 75.2954 L111.508 70.7816 Q113.453 71.9158 115.767 72.4945 Q118.082 73.0732 120.605 73.0732 Q125.003 73.0732 127.295 71.3371 Q129.61 69.601 129.61 66.2909 Q129.61 63.2353 127.457 61.5224 Q125.328 59.7863 121.508 59.7863 L117.48 59.7863 L117.48 55.9437 L121.693 55.9437 Q125.142 55.9437 126.971 54.578 Q128.8 53.1891 128.8 50.5965 Q128.8 47.9345 126.902 46.5224 Q125.027 45.0873 121.508 45.0873 Q119.587 45.0873 117.388 45.5039 Q115.189 45.9206 112.55 46.8002 L112.55 42.6336 Q115.212 41.8928 117.527 41.5225 Q119.865 41.1521 121.925 41.1521 Q127.249 41.1521 130.351 43.5826 Q133.452 45.99 133.452 50.1104 Q133.452 52.9807 131.809 54.9715 Q130.165 56.9391 127.133 57.7029 Z" fill="#000000" fill-rule="evenodd" fill-opacity="1" /><path clip-path="url(#clip720)" d="M 0 0 M149.332 44.8558 Q145.721 44.8558 143.892 48.4206 Q142.087 51.9622 142.087 59.0918 Q142.087 66.1983 143.892 69.7631 Q145.721 73.3047 149.332 73.3047 Q152.966 73.3047 154.772 69.7631 Q156.601 66.1983 156.601 59.0918 Q156.601 51.9622 154.772 48.4206 Q152.966 44.8558 149.332 44.8558 M149.332 41.1521 Q155.142 41.1521 158.198 45.7586 Q161.276 50.3419 161.276 59.0918 Q161.276 67.8186 158.198 72.4251 Q155.142 77.0084 149.332 77.0084 Q143.522 77.0084 140.443 72.4251 Q137.388 67.8186 137.388 59.0918 Q137.388 50.3419 140.443 45.7586 Q143.522 41.1521 149.332 41.1521 Z" fill="#000000" fill-rule="evenodd" fill-opacity="1" /><path clip-path="url(#clip720)" d="M 0 0 M19.7322 466.729 L19.7322 439.421 L25.143 439.421 L25.143 460.3 L39.1476 460.3 L39.1476 441.458 L44.5584 441.458 L44.5584 460.3 L67.2522 460.3 L67.2522 466.729 L19.7322 466.729 Z" fill="#000000" fill-rule="evenodd" fill-opacity="1" /><path clip-path="url(#clip720)" d="M 0 0 M31.6042 438.02 L31.6042 432.164 L67.2522 432.164 L67.2522 438.02 L31.6042 438.02 M17.727 438.02 L17.727 432.164 L25.143 432.164 L25.143 438.02 L17.727 438.02 Z" fill="#000000" fill-rule="evenodd" fill-opacity="1" /><path clip-path="url(#clip720)" d="M 0 0 M37.0787 405.364 Q36.5058 406.351 36.2512 407.528 Q35.9647 408.674 35.9647 410.075 Q35.9647 415.04 39.2112 417.713 Q42.4259 420.355 48.4733 420.355 L67.2522 420.355 L67.2522 426.244 L31.6042 426.244 L31.6042 420.355 L37.1424 420.355 Q33.8959 418.509 32.3363 415.549 Q30.7448 412.589 30.7448 408.356 Q30.7448 407.751 30.8403 407.019 Q30.904 406.287 31.0631 405.396 L37.0787 405.364 Z" fill="#000000" fill-rule="evenodd" fill-opacity="1" /><path clip-path="url(#clip720)" d="M 0 0 M31.6042 399.221 L31.6042 393.365 L67.2522 393.365 L67.2522 399.221 L31.6042 399.221 M17.727 399.221 L17.727 393.365 L25.143 393.365 L25.143 399.221 L17.727 399.221 Z" fill="#000000" fill-rule="evenodd" fill-opacity="1" /><path clip-path="url(#clip720)" d="M 0 0 M45.7361 357.589 L67.2522 357.589 L67.2522 363.446 L45.927 363.446 Q40.8663 363.446 38.3518 365.419 Q35.8374 367.393 35.8374 371.339 Q35.8374 376.082 38.8611 378.819 Q41.8848 381.556 47.1047 381.556 L67.2522 381.556 L67.2522 387.445 L31.6042 387.445 L31.6042 381.556 L37.1424 381.556 Q33.9277 379.456 32.3363 376.623 Q30.7448 373.758 30.7448 370.034 Q30.7448 363.891 34.5643 360.74 Q38.3518 357.589 45.7361 357.589 Z" fill="#000000" fill-rule="evenodd" fill-opacity="1" /><path clip-path="url(#clip720)" d="M 0 0 M49.0144 327.989 Q42.6487 327.989 39.1476 330.631 Q35.6464 333.241 35.6464 337.983 Q35.6464 342.694 39.1476 345.335 Q42.6487 347.945 49.0144 347.945 Q55.3483 347.945 58.8494 345.335 Q62.3506 342.694 62.3506 337.983 Q62.3506 333.241 58.8494 330.631 Q55.3483 327.989 49.0144 327.989 M62.828 322.132 Q71.931 322.132 76.3551 326.175 Q80.8111 330.217 80.8111 338.556 Q80.8111 341.643 80.3337 344.381 Q79.8881 347.118 78.9332 349.696 L73.2359 349.696 Q74.6364 347.118 75.3048 344.603 Q75.9732 342.089 75.9732 339.479 Q75.9732 333.718 72.9495 330.853 Q69.9576 327.989 63.8783 327.989 L60.9819 327.989 Q64.133 329.803 65.6926 332.636 Q67.2522 335.469 67.2522 339.415 Q67.2522 345.972 62.2551 349.982 Q57.258 353.993 49.0144 353.993 Q40.739 353.993 35.7419 349.982 Q30.7448 345.972 30.7448 339.415 Q30.7448 335.469 32.3044 332.636 Q33.864 329.803 37.0151 327.989 L31.6042 327.989 L31.6042 322.132 L62.828 322.132 Z" fill="#000000" fill-rule="evenodd" fill-opacity="1" /><path clip-path="url(#clip720)" d="M 0 0 M37.0787 274.612 Q36.5058 275.599 36.2512 276.777 Q35.9647 277.923 35.9647 279.323 Q35.9647 284.288 39.2112 286.962 Q42.4259 289.604 48.4733 289.604 L67.2522 289.604 L67.2522 295.492 L31.6042 295.492 L31.6042 289.604 L37.1424 289.604 Q33.8959 287.758 32.3363 284.798 Q30.7448 281.837 30.7448 277.604 Q30.7448 277 30.8403 276.267 Q30.904 275.535 31.0631 274.644 L37.0787 274.612 Z" fill="#000000" fill-rule="evenodd" fill-opacity="1" /><path clip-path="url(#clip720)" d="M 0 0 M49.3327 252.269 Q49.3327 259.367 50.9559 262.104 Q52.5792 264.841 56.4941 264.841 Q59.6133 264.841 61.4594 262.804 Q63.2736 260.735 63.2736 257.202 Q63.2736 252.332 59.8361 249.404 Q56.3668 246.444 50.6377 246.444 L49.3327 246.444 L49.3327 252.269 M46.9137 240.588 L67.2522 240.588 L67.2522 246.444 L61.8413 246.444 Q65.0878 248.449 66.6474 251.441 Q68.1752 254.433 68.1752 258.762 Q68.1752 264.236 65.1196 267.483 Q62.0323 270.698 56.8761 270.698 Q50.8605 270.698 47.8049 266.687 Q44.7494 262.645 44.7494 254.656 L44.7494 246.444 L44.1765 246.444 Q40.1342 246.444 37.9381 249.118 Q35.7101 251.76 35.7101 256.566 Q35.7101 259.621 36.4421 262.518 Q37.1742 265.414 38.6383 268.088 L33.2275 268.088 Q31.9861 264.873 31.3814 261.849 Q30.7448 258.825 30.7448 255.961 Q30.7448 248.227 34.7552 244.407 Q38.7656 240.588 46.9137 240.588 Z" fill="#000000" fill-rule="evenodd" fill-opacity="1" /><path clip-path="url(#clip720)" d="M 0 0 M21.4827 228.652 L31.6042 228.652 L31.6042 216.589 L36.1557 216.589 L36.1557 228.652 L55.5074 228.652 Q59.8679 228.652 61.1093 227.474 Q62.3506 226.265 62.3506 222.605 L62.3506 216.589 L67.2522 216.589 L67.2522 222.605 Q67.2522 229.384 64.7377 231.962 Q62.1914 234.54 55.5074 234.54 L36.1557 234.54 L36.1557 238.837 L31.6042 238.837 L31.6042 234.54 L21.4827 234.54 L21.4827 228.652 Z" fill="#000000" fill-rule="evenodd" fill-opacity="1" /><path clip-path="url(#clip720)" d="M 0 0 M47.9641 179.954 L50.8286 179.954 L50.8286 206.881 Q56.8761 206.499 60.0589 203.253 Q63.2099 199.975 63.2099 194.15 Q63.2099 190.776 62.3824 187.625 Q61.5549 184.442 59.8998 181.323 L65.4379 181.323 Q66.7747 184.474 67.475 187.784 Q68.1752 191.094 68.1752 194.5 Q68.1752 203.03 63.2099 208.027 Q58.2447 212.992 49.7783 212.992 Q41.0254 212.992 35.9011 208.282 Q30.7448 203.539 30.7448 195.519 Q30.7448 188.325 35.3918 184.156 Q40.0069 179.954 47.9641 179.954 M46.2453 185.811 Q41.4392 185.874 38.5746 188.516 Q35.7101 191.126 35.7101 195.455 Q35.7101 200.356 38.4792 203.316 Q41.2482 206.245 46.2772 206.69 L46.2453 185.811 Z" fill="#000000" fill-rule="evenodd" fill-opacity="1" /><path clip-path="url(#clip720)" d="M 0 0 M17.7906 139.023 Q25.1112 143.288 32.2726 145.357 Q39.434 147.426 46.7864 147.426 Q54.1388 147.426 61.3639 145.357 Q68.5571 143.256 75.8459 139.023 L75.8459 144.115 Q68.3662 148.89 61.1411 151.277 Q53.916 153.632 46.7864 153.632 Q39.6886 153.632 32.4954 151.277 Q25.3022 148.922 17.7906 144.115 L17.7906 139.023 Z" fill="#000000" fill-rule="evenodd" fill-opacity="1" /><path clip-path="url(#clip720)" d="M 0 0 M19.7322 132.625 L19.7322 126.196 L39.2112 126.196 L39.2112 102.834 L19.7322 102.834 L19.7322 96.4045 L67.2522 96.4045 L67.2522 102.834 L44.6221 102.834 L44.6221 126.196 L67.2522 126.196 L67.2522 132.625 L19.7322 132.625 Z" fill="#000000" fill-rule="evenodd" fill-opacity="1" /><path clip-path="url(#clip720)" d="M 0 0 M31.6042 92.8078 L31.6042 64.9897 L36.9514 64.9897 L62.5734 87.015 L62.5734 64.9897 L67.2522 64.9897 L67.2522 93.6035 L61.905 93.6035 L36.283 71.5782 L36.283 92.8078 L31.6042 92.8078 Z" fill="#000000" fill-rule="evenodd" fill-opacity="1" /><path clip-path="url(#clip720)" d="M 0 0 M17.7906 59.7698 L17.7906 54.6772 Q25.3022 49.903 32.4954 47.5477 Q39.6886 45.1605 46.7864 45.1605 Q53.916 45.1605 61.1411 47.5477 Q68.3662 49.903 75.8459 54.6772 L75.8459 59.7698 Q68.5571 55.5366 61.3639 53.4678 Q54.1388 51.3671 46.7864 51.3671 Q39.434 51.3671 32.2726 53.4678 Q25.1112 55.5366 17.7906 59.7698 Z" fill="#000000" fill-rule="evenodd" fill-opacity="1" /><polyline clip-path="url(#clip722)" style="stroke:#009af9; stroke-width:4; stroke-opacity:1; fill:none" points="
  193.02,452.794 194.764,452.676 196.509,452.479 198.253,452.204 199.997,451.85 201.741,451.418 203.485,450.907 205.229,450.319 206.973,449.653 208.717,448.909 
  210.461,448.088 212.205,447.19 213.949,446.216 215.693,445.166 217.437,444.04 219.181,442.839 220.925,441.563 222.669,440.212 224.413,438.789 226.157,437.291 
  227.901,435.722 229.645,434.08 231.389,432.368 233.133,430.584 234.877,428.731 236.621,426.809 238.365,424.818 240.11,422.76 241.854,420.635 243.598,418.444 
  245.342,416.188 247.086,413.869 248.83,411.486 250.574,409.04 252.318,406.534 254.062,403.967 255.806,401.341 257.55,398.657 259.294,395.916 261.038,393.119 
  262.782,390.267 264.526,387.361 266.27,384.403 268.014,381.393 269.758,378.333 271.502,375.224 273.246,372.068 274.99,368.865 276.734,365.617 278.478,362.325 
  280.222,358.99 281.966,355.614 283.71,352.199 285.455,348.744 287.199,345.253 288.943,341.726 290.687,338.165 292.431,334.571 294.175,330.945 295.919,327.289 
  297.663,323.605 299.407,319.894 301.151,316.157 302.895,312.396 304.639,308.613 306.383,304.808 308.127,300.984 309.871,297.142 311.615,293.283 313.359,289.41 
  315.103,285.523 316.847,281.624 318.591,277.715 320.335,273.798 322.079,269.873 323.823,265.942 325.567,262.008 327.311,258.071 329.055,254.133 330.8,250.196 
  332.544,246.262 334.288,242.331 336.032,238.405 337.776,234.487 339.52,230.577 341.264,226.678 343.008,222.79 344.752,218.915 346.496,215.055 348.24,211.212 
  349.984,207.386 351.728,203.58 353.472,199.795 355.216,196.032 356.96,192.293 358.704,188.58 360.448,184.894 362.192,181.236 363.936,177.608 365.68,174.011 
  367.424,170.447 369.168,166.917 370.912,163.423 372.656,159.966 374.401,156.547 376.145,153.168 377.889,149.83 379.633,146.535 381.377,143.283 383.121,140.076 
  384.865,136.916 386.609,133.803 388.353,130.74 390.097,127.726 391.841,124.763 393.585,121.853 395.329,118.997 397.073,116.196 398.817,113.45 400.561,110.761 
  402.305,108.131 404.049,105.559 405.793,103.048 407.537,100.598 409.281,98.2096 411.025,95.8846 412.769,93.6237 414.513,91.4277 416.257,89.2976 418.001,87.234 
  419.746,85.238 421.49,83.3102 423.234,81.4515 424.978,79.6626 426.722,77.9442 428.466,76.297 430.21,74.7216 431.954,73.2187 433.698,71.789 435.442,70.4328 
  437.186,69.1509 438.93,67.9437 440.674,66.8117 442.418,65.7554 444.162,64.7751 445.906,63.8713 447.65,63.0443 449.394,62.2945 451.138,61.6221 452.882,61.0275 
  454.626,60.5108 456.37,60.0723 458.114,59.7121 459.858,59.4304 461.602,59.2274 463.347,59.103 465.091,59.0574 466.835,59.0905 468.579,59.2023 470.323,59.3928 
  472.067,59.662 473.811,60.0097 475.555,60.4357 477.299,60.9399 479.043,61.5222 480.787,62.1822 482.531,62.9197 484.275,63.7344 486.019,64.626 487.763,65.5941 
  489.507,66.6384 491.251,67.7584 492.995,68.9536 494.739,70.2237 496.483,71.568 498.227,72.9861 499.971,74.4774 501.715,76.0412 503.459,77.677 505.203,79.3842 
  506.947,81.1619 508.692,83.0095 510.436,84.9264 512.18,86.9116 513.924,88.9644 515.668,91.084 517.412,93.2696 519.156,95.5203 520.9,97.8351 522.644,100.213 
  524.388,102.653 526.132,105.155 527.876,107.717 529.62,110.338 531.364,113.018 533.108,115.754 534.852,118.547 536.596,121.395 538.34,124.296 540.084,127.251 
  541.828,130.256 543.572,133.312 545.316,136.417 547.06,139.57 548.804,142.769 550.548,146.014 552.293,149.302 554.037,152.634 555.781,156.006 557.525,159.419 
  559.269,162.87 561.013,166.358 562.757,169.882 564.501,173.441 566.245,177.033 567.989,180.656 569.733,184.309 571.477,187.991 573.221,191.7 574.965,195.435 
  576.709,199.194 578.453,202.976 580.197,206.779 581.941,210.601 583.685,214.442 585.429,218.299 587.173,222.172 588.917,226.058 590.661,229.956 592.405,233.864 
  594.149,237.781 595.893,241.705 597.638,245.635 599.382,249.569 601.126,253.506 602.87,257.444 604.614,261.381 606.358,265.316 608.102,269.247 609.846,273.173 
  611.59,277.092 613.334,281.002 615.078,284.903 616.822,288.792 618.566,292.667 620.31,296.529 622.054,300.373 623.798,304.2 625.542,308.008 627.286,311.795 
  629.03,315.56 630.774,319.3 632.518,323.016 634.262,326.704 636.006,330.365 637.75,333.995 639.494,337.595 641.238,341.161 642.983,344.694 644.727,348.191 
  646.471,351.651 648.215,355.073 649.959,358.455 651.703,361.796 653.447,365.095 655.191,368.35 656.935,371.561 658.679,374.725 660.423,377.841 662.167,380.909 
  663.911,383.927 665.655,386.893 667.399,389.807 669.143,392.668 670.887,395.474 672.631,398.224 674.375,400.918 676.119,403.553 677.863,406.129 679.607,408.645 
  681.351,411.1 683.095,413.493 684.839,415.823 686.584,418.089 688.328,420.29 690.072,422.426 691.816,424.495 693.56,426.496 695.304,428.429 697.048,430.294 
  698.792,432.088 700.536,433.812 702.28,435.465 704.024,437.046 705.768,438.555 707.512,439.991 709.256,441.353 711,442.64 712.744,443.854 714.488,444.992 
  716.232,446.054 717.976,447.04 719.72,447.95 721.464,448.783 723.208,449.539 724.952,450.218 726.696,450.819 728.44,451.342 730.184,451.786 731.929,452.153 
  733.673,452.441 735.417,452.65 737.161,452.781 738.905,452.833 740.649,452.806 742.393,452.7 744.137,452.516 745.881,452.253 747.625,451.912 749.369,451.492 
  751.113,450.994 752.857,450.418 754.601,449.764 756.345,449.033 758.089,448.224 759.833,447.338 761.577,446.376 763.321,445.338 765.065,444.224 766.809,443.035 
  768.553,441.771 770.297,440.432 772.041,439.02 773.785,437.535 775.53,435.977 777.274,434.347 779.018,432.645 780.762,430.873 782.506,429.031 784.25,427.12 
  785.994,425.14 787.738,423.092 789.482,420.978 791.226,418.798 792.97,416.552 794.714,414.242 796.458,411.869 798.202,409.434 799.946,406.937 801.69,404.38 
  803.434,401.763 805.178,399.088 806.922,396.356 808.666,393.568 810.41,390.725 812.154,387.827 813.898,384.877 815.642,381.876 817.386,378.824 819.13,375.723 
  820.875,372.574 822.619,369.378 824.363,366.137 826.107,362.852 827.851,359.524 829.595,356.155 831.339,352.745 833.083,349.297 834.827,345.812 836.571,342.29 
  838.315,338.734 840.059,335.145 841.803,331.524 843.547,327.873 845.291,324.194 847.035,320.487 848.779,316.754 850.523,312.997 852.267,309.217 854.011,305.415 
  855.755,301.594 857.499,297.755 859.243,293.899 860.987,290.028 862.731,286.143 864.476,282.246 866.22,278.338 867.964,274.422 869.708,270.498 871.452,266.569 
  873.196,262.635 874.94,258.698 876.684,254.76 878.428,250.823 880.172,246.888 881.916,242.957 883.66,239.03 885.404,235.111 887.148,231.199 888.892,227.298 
  890.636,223.408 892.38,219.531 894.124,215.669 895.868,211.823 897.612,207.994 899.356,204.185 901.1,200.396 902.844,196.63 904.588,192.887 906.332,189.17 
  908.076,185.479 909.821,181.816 911.565,178.183 913.309,174.582 915.053,171.012 916.797,167.477 918.541,163.977 920.285,160.514 922.029,157.089 923.773,153.704 
  925.517,150.359 927.261,147.057 929.005,143.798 930.749,140.584 932.493,137.416 934.237,134.296 935.981,131.224 937.725,128.202 939.469,125.232 941.213,122.313 
  942.957,119.448 944.701,116.638 946.445,113.883 948.189,111.186 949.933,108.546 951.677,105.965 953.421,103.444 955.166,100.984 956.91,98.5857 958.654,96.2507 
  960.398,93.9795 962.142,91.7731 963.886,89.6324 965.63,87.5582 967.374,85.5513 969.118,83.6126 970.862,81.7429 972.606,79.9428 974.35,78.2131 976.094,76.5545 
  977.838,74.9677 979.582,73.4532 981.326,72.0118 983.07,70.6439 984.814,69.3501 986.558,68.131 988.302,66.987 990.046,65.9185 991.79,64.9261 993.534,64.0101 
  995.278,63.1709 997.022,62.4087 998.767,61.724 1000.51,61.117 1002.25,60.5878 1004,60.1369 1005.74,59.7642 1007.49,59.47 1009.23,59.2545 1010.97,59.1175 
  1012.72,59.0593 1014.46,59.0799 1016.21,59.1792 1017.95,59.3572 1019.69,59.6139 1021.44,59.949 1023.18,60.3626 1024.93,60.8544 1026.67,61.4242 1028.42,62.0719 
  1030.16,62.7971 1031.9,63.5995 1033.65,64.4789 1035.39,65.4349 1037.14,66.467 1038.88,67.575 1040.62,68.7583 1042.37,70.0164 1044.11,71.349 1045.86,72.7554 
  1047.6,74.235 1049.34,75.7873 1051.09,77.4117 1052.83,79.1075 1054.58,80.8741 1056.32,82.7106 1058.06,84.6165 1059.81,86.5909 1061.55,88.633 1063.3,90.742 
  1065.04,92.9172 1066.78,95.1575 1068.53,97.4621 1070.27,99.8302 1072.02,102.261 1073.76,104.753 1075.5,107.305 1077.25,109.917 1078.99,112.587 1080.74,115.315 
  1082.48,118.099 1084.22,120.938 1085.97,123.831 1087.71,126.777 1089.46,129.774 1091.2,132.822 1092.94,135.919 1094.69,139.065 1096.43,142.257 1098.18,145.494 
  1099.92,148.776 1101.66,152.1 1103.41,155.466 1105.15,158.873 1106.9,162.318 1108.64,165.8 1110.39,169.319 1112.13,172.872 1113.87,176.459 1115.62,180.077 
  1117.36,183.725 1119.11,187.403 1120.85,191.108 1122.59,194.839 1124.34,198.594 1126.08,202.372 1127.83,206.172 1129.57,209.991 1131.31,213.829 1133.06,217.684 
  1134.8,221.554 1136.55,225.438 1138.29,229.334 1140.03,233.241 1141.78,237.157 1143.52,241.08 1145.27,245.009 1147.01,248.943 1148.75,252.879 1150.5,256.817 
  1152.24,260.754 1153.99,264.689 1155.73,268.621 1157.47,272.548 1159.22,276.468 1160.96,280.38 1162.71,284.282 1164.45,288.173 1166.19,292.051 1167.94,295.915 
  1169.68,299.762 1171.43,303.592 1173.17,307.403 1174.91,311.193 1176.66,314.962 1178.4,318.706 1180.15,322.426 1181.89,326.119 1183.63,329.784 1185.38,333.419 
  1187.12,337.023 1188.87,340.595 1190.61,344.133 1192.35,347.636 1194.1,351.102 1195.84,354.53 1197.59,357.919 1199.33,361.267 1201.08,364.573 1202.82,367.835 
  1204.56,371.052 1206.31,374.224 1208.05,377.348 1209.8,380.424 1211.54,383.449 1213.28,386.424 1215.03,389.347 1216.77,392.216 1218.52,395.031 1220.26,397.79 
  1222,400.492 1223.75,403.137 1225.49,405.723 1227.24,408.248 1228.98,410.713 1230.72,413.116 1232.47,415.456 1234.21,417.733 1235.96,419.944 1237.7,422.09 
  1239.44,424.17 1241.19,426.182 1242.93,428.126 1244.68,430.001 1246.42,431.807 1248.16,433.542 1249.91,435.207 1251.65,436.799 1253.4,438.32 1255.14,439.767 
  1256.88,441.141 1258.63,442.44 1260.37,443.665 1262.12,444.815 1263.86,445.89 1265.6,446.888 1267.35,447.81 1269.09,448.656 1270.84,449.424 1272.58,450.115 
  1274.32,450.728 1276.07,451.264 1277.81,451.721 1279.56,452.1 1281.3,452.4 1283.04,452.622 1284.79,452.765 1286.53,452.83 1288.28,452.815 1290.02,452.722 
  1291.77,452.551 1293.51,452.3 1295.25,451.971 1297,451.564 1298.74,451.078 1300.49,450.515 1302.23,449.873 1303.97,449.154 1305.72,448.358 1307.46,447.485 
  1309.21,446.535 1310.95,445.509 1312.69,444.407 1314.44,443.229 1316.18,441.977 1317.93,440.651 1319.67,439.25 1321.41,437.776 1323.16,436.23 1324.9,434.611 
  1326.65,432.921 1328.39,431.16 1330.13,429.329 1331.88,427.429 1333.62,425.46 1335.37,423.423 1337.11,421.319 1338.85,419.149 1340.6,416.914 1342.34,414.614 
  1344.09,412.251 1345.83,409.826 1347.57,407.339 1349.32,404.791 1351.06,402.184 1352.81,399.518 1354.55,396.795 1356.29,394.016 1358.04,391.181 1359.78,388.292 
  1361.53,385.351 1363.27,382.357 1365.01,379.313 1366.76,376.22 1368.5,373.078 1370.25,369.89 1371.99,366.656 1373.73,363.378 1375.48,360.057 1377.22,356.694 
  1378.97,353.291 1380.71,349.849 1382.46,346.369 1384.2,342.853 1385.94,339.303 1387.69,335.719 1389.43,332.103 1391.18,328.457 1392.92,324.782 1394.66,321.079 
  1396.41,317.35 1398.15,313.597 1399.9,309.82 1401.64,306.022 1403.38,302.204 1405.13,298.368 1406.87,294.514 1408.62,290.645 1410.36,286.762 1412.1,282.867 
  1413.85,278.961 1415.59,275.046 1417.34,271.124 1419.08,267.195 1420.82,263.261 1422.57,259.325 1424.31,255.388 1426.06,251.45 1427.8,247.515 1429.54,243.582 
  1431.29,239.655 1433.03,235.734 1434.78,231.822 1436.52,227.919 1438.26,224.027 1440.01,220.148 1441.75,216.283 1443.5,212.434 1445.24,208.603 1446.98,204.79 
  1448.73,200.998 1450.47,197.228 1452.22,193.482 1453.96,189.76 1455.7,186.065 1457.45,182.398 1459.19,178.76 1460.94,175.153 1462.68,171.579 1464.42,168.038 
  1466.17,164.532 1467.91,161.063 1469.66,157.632 1471.4,154.24 1473.15,150.889 1474.89,147.58 1476.63,144.314 1478.38,141.093 1480.12,137.918 1481.87,134.79 
  1483.61,131.71 1485.35,128.68 1487.1,125.701 1488.84,122.775 1490.59,119.901 1492.33,117.082 1494.07,114.318 1495.82,111.611 1497.56,108.962 1499.31,106.372 
  1501.05,103.841 1502.79,101.371 1504.54,98.9634 1506.28,96.6183 1508.03,94.3369 1509.77,92.1201 1511.51,89.9689 1513.26,87.884 1515,85.8664 1516.75,83.9168 
  1518.49,82.036 1520.23,80.2248 1521.98,78.4838 1523.72,76.8139 1525.47,75.2156 1527.21,73.6895 1528.95,72.2364 1530.7,70.8568 1532.44,69.5512 1534.19,68.3201 
  1535.93,67.1641 1537.67,66.0836 1539.42,65.0791 1541.16,64.1509 1542.91,63.2994 1544.65,62.5249 1546.39,61.8279 1548.14,61.2084 1549.88,60.6669 1551.63,60.2035 
  1553.37,59.8183 1555.11,59.5116 1556.86,59.2835 1558.6,59.1341 1560.35,59.0633 1562.09,59.0714 1563.84,59.1581 1565.58,59.3236 1567.32,59.5677 1569.07,59.8904 
  1570.81,60.2915 1572.56,60.7709 1574.3,61.3283 1576.04,61.9635 1577.79,62.6764 1579.53,63.4666 1581.28,64.3337 1583.02,65.2775 1584.76,66.2975 1586.51,67.3935 
  1588.25,68.5648 1590,69.8111 1591.74,71.1318 1593.48,72.5264 1595.23,73.9945 1596.97,75.5353 1598.72,77.1482 1600.46,78.8327 1602.2,80.588 1603.95,82.4135 
  1605.69,84.3083 1607.44,86.2719 1609.18,88.3032 1610.92,90.4017 1612.67,92.5663 1614.41,94.7963 1616.16,97.0908 1617.9,99.4488 1619.64,101.869 1621.39,104.352 
  1623.13,106.895 1624.88,109.497 1626.62,112.158 1628.36,114.877 1630.11,117.652 1631.85,120.482 1633.6,123.366 1635.34,126.304 1637.08,129.293 1638.83,132.333 
  1640.57,135.423 1642.32,138.561 1644.06,141.745 1645.81,144.976 1647.55,148.25 1649.29,151.568 1651.04,154.928 1652.78,158.328 1654.53,161.766 1656.27,165.243 
  1658.01,168.756 1659.76,172.304 1661.5,175.885 1663.25,179.498 1664.99,183.142 1666.73,186.815 1668.48,190.516 1670.22,194.243 1671.97,197.994 1673.71,201.769 
  1675.45,205.565 1677.2,209.382 1678.94,213.217 1680.69,217.069 1682.43,220.937 1684.17,224.819 1685.92,228.713 1687.66,232.618 1689.41,236.532 1691.15,240.455 
  1692.89,244.383 1694.64,248.316 1696.38,252.252 1698.13,256.19 1699.87,260.127 1701.61,264.063 1703.36,267.995 1705.1,271.923 1706.85,275.844 1708.59,279.758 
  1710.33,283.662 1712.08,287.554 1713.82,291.434 1715.57,295.3 1717.31,299.151 1719.05,302.983 1720.8,306.797 1722.54,310.591 1724.29,314.363 1726.03,318.112 
  1727.77,321.835 1729.52,325.533 1731.26,329.202 1733.01,332.842 1734.75,336.452 1736.5,340.029 1738.24,343.572 1739.98,347.081 1741.73,350.553 1743.47,353.987 
  1745.22,357.382 1746.96,360.737 1748.7,364.049 1750.45,367.318 1752.19,370.543 1753.94,373.722 1755.68,376.854 1757.42,379.937 1759.17,382.971 1760.91,385.954 
  1762.66,388.885 1764.4,391.763 1766.14,394.586 1767.89,397.354 1769.63,400.066 1771.38,402.72 1773.12,405.315 1774.86,407.85 1776.61,410.325 1778.35,412.738 
  1780.1,415.088 1781.84,417.374 1783.58,419.596 1785.33,421.753 1787.07,423.843 1788.82,425.866 1790.56,427.821 1792.3,429.707 1794.05,431.524 1795.79,433.271 
  1797.54,434.946 1799.28,436.55 1801.02,438.082 1802.77,439.541 1804.51,440.927 1806.26,442.238 1808,443.475 1809.74,444.637 1811.49,445.724 1813.23,446.734 
  1814.98,447.669 1816.72,448.526 1818.46,449.307 1820.21,450.01 1821.95,450.636 1823.7,451.184 1825.44,451.653 1827.19,452.045 1828.93,452.358 1830.67,452.592 
  1832.42,452.748 1834.16,452.825 1835.91,452.823 1837.65,452.742 1839.39,452.583 1841.14,452.345 1842.88,452.029 1844.63,451.634 1846.37,451.161 1848.11,450.61 
  1849.86,449.981 1851.6,449.274 1853.35,448.49 1855.09,447.629 1856.83,446.691 1858.58,445.677 1860.32,444.587 1862.07,443.422 1863.81,442.182 1865.55,440.867 
  1867.3,439.478 1869.04,438.016 1870.79,436.481 1872.53,434.874 1874.27,433.195 1876.02,431.445 1877.76,429.625 1879.51,427.736 1881.25,425.778 1882.99,423.752 
  1884.74,421.659 1886.48,419.499 1888.23,417.274 1889.97,414.985 1891.71,412.632 1893.46,410.216 1895.2,407.739 1896.95,405.201 1898.69,402.603 1900.43,399.947 
  1902.18,397.233 1903.92,394.462 1905.67,391.636 1907.41,388.756 1909.15,385.823 1910.9,382.837 1912.64,379.801 1914.39,376.716 1916.13,373.582 1917.88,370.401 
  1919.62,367.174 1921.36,363.903 1923.11,360.588 1924.85,357.232 1926.6,353.835 1928.34,350.399 1930.08,346.926 1931.83,343.416 1933.57,339.871 1935.32,336.292 
  
  "/>
<path clip-path="url(#clip720)" d="
M191.276 1035.39 L1952.76 1035.39 L1952.76 617.986 L191.276 617.986  Z
  " fill="#ffffff" fill-rule="evenodd" fill-opacity="1"/>
<defs>
  <clipPath id="clip723">
    <rect x="191" y="617" width="1762" height="418"/>
  </clipPath>
</defs>
<polyline clip-path="url(#clip723)" style="stroke:#000000; stroke-width:2; stroke-opacity:0.1; fill:none" points="
  191.276,1035.39 191.276,617.986 
  "/>
<polyline clip-path="url(#clip723)" style="stroke:#000000; stroke-width:2; stroke-opacity:0.1; fill:none" points="
  627.286,1035.39 627.286,617.986 
  "/>
<polyline clip-path="url(#clip723)" style="stroke:#000000; stroke-width:2; stroke-opacity:0.1; fill:none" points="
  1063.3,1035.39 1063.3,617.986 
  "/>
<polyline clip-path="url(#clip723)" style="stroke:#000000; stroke-width:2; stroke-opacity:0.1; fill:none" points="
  1499.31,1035.39 1499.31,617.986 
  "/>
<polyline clip-path="url(#clip723)" style="stroke:#000000; stroke-width:2; stroke-opacity:0.1; fill:none" points="
  1935.32,1035.39 1935.32,617.986 
  "/>
<polyline clip-path="url(#clip720)" style="stroke:#000000; stroke-width:4; stroke-opacity:1; fill:none" points="
  191.276,1035.39 1952.76,1035.39 
  "/>
<polyline clip-path="url(#clip720)" style="stroke:#000000; stroke-width:4; stroke-opacity:1; fill:none" points="
  191.276,1035.39 191.276,1030.38 
  "/>
<polyline clip-path="url(#clip720)" style="stroke:#000000; stroke-width:4; stroke-opacity:1; fill:none" points="
  627.286,1035.39 627.286,1030.38 
  "/>
<polyline clip-path="url(#clip720)" style="stroke:#000000; stroke-width:4; stroke-opacity:1; fill:none" points="
  1063.3,1035.39 1063.3,1030.38 
  "/>
<polyline clip-path="url(#clip720)" style="stroke:#000000; stroke-width:4; stroke-opacity:1; fill:none" points="
  1499.31,1035.39 1499.31,1030.38 
  "/>
<polyline clip-path="url(#clip720)" style="stroke:#000000; stroke-width:4; stroke-opacity:1; fill:none" points="
  1935.32,1035.39 1935.32,1030.38 
  "/>
<path clip-path="url(#clip720)" d="M 0 0 M191.276 1061.38 Q187.665 1061.38 185.837 1064.94 Q184.031 1068.48 184.031 1075.61 Q184.031 1082.72 185.837 1086.29 Q187.665 1089.83 191.276 1089.83 Q194.911 1089.83 196.716 1086.29 Q198.545 1082.72 198.545 1075.61 Q198.545 1068.48 196.716 1064.94 Q194.911 1061.38 191.276 1061.38 M191.276 1057.67 Q197.087 1057.67 200.142 1062.28 Q203.221 1066.86 203.221 1075.61 Q203.221 1084.34 200.142 1088.95 Q197.087 1093.53 191.276 1093.53 Q185.466 1093.53 182.388 1088.95 Q179.332 1084.34 179.332 1075.61 Q179.332 1066.86 182.388 1062.28 Q185.466 1057.67 191.276 1057.67 Z" fill="#000000" fill-rule="evenodd" fill-opacity="1" /><path clip-path="url(#clip720)" d="M 0 0 M595.423 1088.92 L611.742 1088.92 L611.742 1092.86 L589.798 1092.86 L589.798 1088.92 Q592.46 1086.17 597.043 1081.54 Q601.65 1076.89 602.83 1075.55 Q605.076 1073.02 605.955 1071.29 Q606.858 1069.53 606.858 1067.84 Q606.858 1065.08 604.914 1063.35 Q602.992 1061.61 599.89 1061.61 Q597.691 1061.61 595.238 1062.37 Q592.807 1063.14 590.029 1064.69 L590.029 1059.97 Q592.853 1058.83 595.307 1058.25 Q597.761 1057.67 599.798 1057.67 Q605.168 1057.67 608.363 1060.36 Q611.557 1063.05 611.557 1067.54 Q611.557 1069.67 610.747 1071.59 Q609.96 1073.48 607.853 1076.08 Q607.275 1076.75 604.173 1079.97 Q601.071 1083.16 595.423 1088.92 Z" fill="#000000" fill-rule="evenodd" fill-opacity="1" /><path clip-path="url(#clip720)" d="M 0 0 M616.858 1058.3 L635.214 1058.3 L635.214 1062.24 L621.14 1062.24 L621.14 1070.71 Q622.159 1070.36 623.177 1070.2 Q624.196 1070.01 625.214 1070.01 Q631.001 1070.01 634.381 1073.18 Q637.761 1076.36 637.761 1081.77 Q637.761 1087.35 634.288 1090.45 Q630.816 1093.53 624.497 1093.53 Q622.321 1093.53 620.052 1093.16 Q617.807 1092.79 615.4 1092.05 L615.4 1087.35 Q617.483 1088.48 619.705 1089.04 Q621.927 1089.6 624.404 1089.6 Q628.409 1089.6 630.747 1087.49 Q633.085 1085.38 633.085 1081.77 Q633.085 1078.16 630.747 1076.05 Q628.409 1073.95 624.404 1073.95 Q622.529 1073.95 620.654 1074.36 Q618.802 1074.78 616.858 1075.66 L616.858 1058.3 Z" fill="#000000" fill-rule="evenodd" fill-opacity="1" /><path clip-path="url(#clip720)" d="M 0 0 M652.83 1061.38 Q649.219 1061.38 647.39 1064.94 Q645.585 1068.48 645.585 1075.61 Q645.585 1082.72 647.39 1086.29 Q649.219 1089.83 652.83 1089.83 Q656.464 1089.83 658.27 1086.29 Q660.099 1082.72 660.099 1075.61 Q660.099 1068.48 658.27 1064.94 Q656.464 1061.38 652.83 1061.38 M652.83 1057.67 Q658.64 1057.67 661.696 1062.28 Q664.774 1066.86 664.774 1075.61 Q664.774 1084.34 661.696 1088.95 Q658.64 1093.53 652.83 1093.53 Q647.02 1093.53 643.941 1088.95 Q640.886 1084.34 640.886 1075.61 Q640.886 1066.86 643.941 1062.28 Q647.02 1057.67 652.83 1057.67 Z" fill="#000000" fill-rule="evenodd" fill-opacity="1" /><path clip-path="url(#clip720)" d="M 0 0 M1026.56 1058.3 L1044.92 1058.3 L1044.92 1062.24 L1030.84 1062.24 L1030.84 1070.71 Q1031.86 1070.36 1032.88 1070.2 Q1033.9 1070.01 1034.92 1070.01 Q1040.7 1070.01 1044.08 1073.18 Q1047.46 1076.36 1047.46 1081.77 Q1047.46 1087.35 1043.99 1090.45 Q1040.52 1093.53 1034.2 1093.53 Q1032.02 1093.53 1029.75 1093.16 Q1027.51 1092.79 1025.1 1092.05 L1025.1 1087.35 Q1027.19 1088.48 1029.41 1089.04 Q1031.63 1089.6 1034.11 1089.6 Q1038.11 1089.6 1040.45 1087.49 Q1042.79 1085.38 1042.79 1081.77 Q1042.79 1078.16 1040.45 1076.05 Q1038.11 1073.95 1034.11 1073.95 Q1032.23 1073.95 1030.36 1074.36 Q1028.5 1074.78 1026.56 1075.66 L1026.56 1058.3 Z" fill="#000000" fill-rule="evenodd" fill-opacity="1" /><path clip-path="url(#clip720)" d="M 0 0 M1062.53 1061.38 Q1058.92 1061.38 1057.09 1064.94 Q1055.29 1068.48 1055.29 1075.61 Q1055.29 1082.72 1057.09 1086.29 Q1058.92 1089.83 1062.53 1089.83 Q1066.17 1089.83 1067.97 1086.29 Q1069.8 1082.72 1069.8 1075.61 Q1069.8 1068.48 1067.97 1064.94 Q1066.17 1061.38 1062.53 1061.38 M1062.53 1057.67 Q1068.34 1057.67 1071.4 1062.28 Q1074.48 1066.86 1074.48 1075.61 Q1074.48 1084.34 1071.4 1088.95 Q1068.34 1093.53 1062.53 1093.53 Q1056.72 1093.53 1053.64 1088.95 Q1050.59 1084.34 1050.59 1075.61 Q1050.59 1066.86 1053.64 1062.28 Q1056.72 1057.67 1062.53 1057.67 Z" fill="#000000" fill-rule="evenodd" fill-opacity="1" /><path clip-path="url(#clip720)" d="M 0 0 M1089.55 1061.38 Q1085.93 1061.38 1084.11 1064.94 Q1082.3 1068.48 1082.3 1075.61 Q1082.3 1082.72 1084.11 1086.29 Q1085.93 1089.83 1089.55 1089.83 Q1093.18 1089.83 1094.99 1086.29 Q1096.81 1082.72 1096.81 1075.61 Q1096.81 1068.48 1094.99 1064.94 Q1093.18 1061.38 1089.55 1061.38 M1089.55 1057.67 Q1095.36 1057.67 1098.41 1062.28 Q1101.49 1066.86 1101.49 1075.61 Q1101.49 1084.34 1098.41 1088.95 Q1095.36 1093.53 1089.55 1093.53 Q1083.74 1093.53 1080.66 1088.95 Q1077.6 1084.34 1077.6 1075.61 Q1077.6 1066.86 1080.66 1062.28 Q1083.74 1057.67 1089.55 1057.67 Z" fill="#000000" fill-rule="evenodd" fill-opacity="1" /><path clip-path="url(#clip720)" d="M 0 0 M1461.68 1058.3 L1483.9 1058.3 L1483.9 1060.29 L1471.35 1092.86 L1466.47 1092.86 L1478.28 1062.24 L1461.68 1062.24 L1461.68 1058.3 Z" fill="#000000" fill-rule="evenodd" fill-opacity="1" /><path clip-path="url(#clip720)" d="M 0 0 M1489.02 1058.3 L1507.37 1058.3 L1507.37 1062.24 L1493.3 1062.24 L1493.3 1070.71 Q1494.32 1070.36 1495.34 1070.2 Q1496.35 1070.01 1497.37 1070.01 Q1503.16 1070.01 1506.54 1073.18 Q1509.92 1076.36 1509.92 1081.77 Q1509.92 1087.35 1506.45 1090.45 Q1502.97 1093.53 1496.66 1093.53 Q1494.48 1093.53 1492.21 1093.16 Q1489.97 1092.79 1487.56 1092.05 L1487.56 1087.35 Q1489.64 1088.48 1491.86 1089.04 Q1494.09 1089.6 1496.56 1089.6 Q1500.57 1089.6 1502.91 1087.49 Q1505.24 1085.38 1505.24 1081.77 Q1505.24 1078.16 1502.91 1076.05 Q1500.57 1073.95 1496.56 1073.95 Q1494.69 1073.95 1492.81 1074.36 Q1490.96 1074.78 1489.02 1075.66 L1489.02 1058.3 Z" fill="#000000" fill-rule="evenodd" fill-opacity="1" /><path clip-path="url(#clip720)" d="M 0 0 M1524.99 1061.38 Q1521.38 1061.38 1519.55 1064.94 Q1517.74 1068.48 1517.74 1075.61 Q1517.74 1082.72 1519.55 1086.29 Q1521.38 1089.83 1524.99 1089.83 Q1528.62 1089.83 1530.43 1086.29 Q1532.26 1082.72 1532.26 1075.61 Q1532.26 1068.48 1530.43 1064.94 Q1528.62 1061.38 1524.99 1061.38 M1524.99 1057.67 Q1530.8 1057.67 1533.85 1062.28 Q1536.93 1066.86 1536.93 1075.61 Q1536.93 1084.34 1533.85 1088.95 Q1530.8 1093.53 1524.99 1093.53 Q1519.18 1093.53 1516.1 1088.95 Q1513.04 1084.34 1513.04 1075.61 Q1513.04 1066.86 1516.1 1062.28 Q1519.18 1057.67 1524.99 1057.67 Z" fill="#000000" fill-rule="evenodd" fill-opacity="1" /><path clip-path="url(#clip720)" d="M 0 0 M1885.18 1088.92 L1892.82 1088.92 L1892.82 1062.56 L1884.51 1064.23 L1884.51 1059.97 L1892.77 1058.3 L1897.45 1058.3 L1897.45 1088.92 L1905.08 1088.92 L1905.08 1092.86 L1885.18 1092.86 L1885.18 1088.92 Z" fill="#000000" fill-rule="evenodd" fill-opacity="1" /><path clip-path="url(#clip720)" d="M 0 0 M1920.15 1061.38 Q1916.54 1061.38 1914.71 1064.94 Q1912.91 1068.48 1912.91 1075.61 Q1912.91 1082.72 1914.71 1086.29 Q1916.54 1089.83 1920.15 1089.83 Q1923.79 1089.83 1925.59 1086.29 Q1927.42 1082.72 1927.42 1075.61 Q1927.42 1068.48 1925.59 1064.94 Q1923.79 1061.38 1920.15 1061.38 M1920.15 1057.67 Q1925.96 1057.67 1929.02 1062.28 Q1932.1 1066.86 1932.1 1075.61 Q1932.1 1084.34 1929.02 1088.95 Q1925.96 1093.53 1920.15 1093.53 Q1914.34 1093.53 1911.26 1088.95 Q1908.21 1084.34 1908.21 1075.61 Q1908.21 1066.86 1911.26 1062.28 Q1914.34 1057.67 1920.15 1057.67 Z" fill="#000000" fill-rule="evenodd" fill-opacity="1" /><path clip-path="url(#clip720)" d="M 0 0 M1947.17 1061.38 Q1943.56 1061.38 1941.73 1064.94 Q1939.92 1068.48 1939.92 1075.61 Q1939.92 1082.72 1941.73 1086.29 Q1943.56 1089.83 1947.17 1089.83 Q1950.8 1089.83 1952.61 1086.29 Q1954.44 1082.72 1954.44 1075.61 Q1954.44 1068.48 1952.61 1064.94 Q1950.8 1061.38 1947.17 1061.38 M1947.17 1057.67 Q1952.98 1057.67 1956.03 1062.28 Q1959.11 1066.86 1959.11 1075.61 Q1959.11 1084.34 1956.03 1088.95 Q1952.98 1093.53 1947.17 1093.53 Q1941.36 1093.53 1938.28 1088.95 Q1935.22 1084.34 1935.22 1075.61 Q1935.22 1066.86 1938.28 1062.28 Q1941.36 1057.67 1947.17 1057.67 Z" fill="#000000" fill-rule="evenodd" fill-opacity="1" /><path clip-path="url(#clip720)" d="M 0 0 M1974.18 1061.38 Q1970.57 1061.38 1968.74 1064.94 Q1966.94 1068.48 1966.94 1075.61 Q1966.94 1082.72 1968.74 1086.29 Q1970.57 1089.83 1974.18 1089.83 Q1977.82 1089.83 1979.62 1086.29 Q1981.45 1082.72 1981.45 1075.61 Q1981.45 1068.48 1979.62 1064.94 Q1977.82 1061.38 1974.18 1061.38 M1974.18 1057.67 Q1979.99 1057.67 1983.05 1062.28 Q1986.13 1066.86 1986.13 1075.61 Q1986.13 1084.34 1983.05 1088.95 Q1979.99 1093.53 1974.18 1093.53 Q1968.37 1093.53 1965.29 1088.95 Q1962.24 1084.34 1962.24 1075.61 Q1962.24 1066.86 1965.29 1062.28 Q1968.37 1057.67 1974.18 1057.67 Z" fill="#000000" fill-rule="evenodd" fill-opacity="1" /><path clip-path="url(#clip720)" d="M 0 0 M924.873 1126.73 L965.072 1126.73 L965.072 1132.14 L948.203 1132.14 L948.203 1174.25 L941.742 1174.25 L941.742 1132.14 L924.873 1132.14 L924.873 1126.73 Z" fill="#000000" fill-rule="evenodd" fill-opacity="1" /><path clip-path="url(#clip720)" d="M 0 0 M969.21 1138.6 L975.066 1138.6 L975.066 1174.25 L969.21 1174.25 L969.21 1138.6 M969.21 1124.73 L975.066 1124.73 L975.066 1132.14 L969.21 1132.14 L969.21 1124.73 Z" fill="#000000" fill-rule="evenodd" fill-opacity="1" /><path clip-path="url(#clip720)" d="M 0 0 M1008.96 1145.45 Q1011.16 1141.5 1014.22 1139.62 Q1017.27 1137.74 1021.41 1137.74 Q1026.98 1137.74 1030 1141.66 Q1033.03 1145.54 1033.03 1152.74 L1033.03 1174.25 L1027.14 1174.25 L1027.14 1152.93 Q1027.14 1147.8 1025.32 1145.32 Q1023.51 1142.84 1019.79 1142.84 Q1015.23 1142.84 1012.59 1145.86 Q1009.95 1148.88 1009.95 1154.1 L1009.95 1174.25 L1004.06 1174.25 L1004.06 1152.93 Q1004.06 1147.77 1002.25 1145.32 Q1000.43 1142.84 996.646 1142.84 Q992.158 1142.84 989.517 1145.89 Q986.875 1148.92 986.875 1154.1 L986.875 1174.25 L980.987 1174.25 L980.987 1138.6 L986.875 1138.6 L986.875 1144.14 Q988.88 1140.86 991.681 1139.3 Q994.482 1137.74 998.333 1137.74 Q1002.22 1137.74 1004.92 1139.72 Q1007.66 1141.69 1008.96 1145.45 Z" fill="#000000" fill-rule="evenodd" fill-opacity="1" /><path clip-path="url(#clip720)" d="M 0 0 M1069.66 1154.96 L1069.66 1157.83 L1042.73 1157.83 Q1043.12 1163.88 1046.36 1167.06 Q1049.64 1170.21 1055.47 1170.21 Q1058.84 1170.21 1061.99 1169.38 Q1065.17 1168.55 1068.29 1166.9 L1068.29 1172.44 Q1065.14 1173.77 1061.83 1174.47 Q1058.52 1175.17 1055.12 1175.17 Q1046.59 1175.17 1041.59 1170.21 Q1036.62 1165.24 1036.62 1156.78 Q1036.62 1148.03 1041.33 1142.9 Q1046.08 1137.74 1054.1 1137.74 Q1061.29 1137.74 1065.46 1142.39 Q1069.66 1147.01 1069.66 1154.96 M1063.8 1153.25 Q1063.74 1148.44 1061.1 1145.57 Q1058.49 1142.71 1054.16 1142.71 Q1049.26 1142.71 1046.3 1145.48 Q1043.37 1148.25 1042.92 1153.28 L1063.8 1153.25 Z" fill="#000000" fill-rule="evenodd" fill-opacity="1" /><path clip-path="url(#clip720)" d="M 0 0 M1110.59 1124.79 Q1106.33 1132.11 1104.26 1139.27 Q1102.19 1146.43 1102.19 1153.79 Q1102.19 1161.14 1104.26 1168.36 Q1106.36 1175.56 1110.59 1182.85 L1105.5 1182.85 Q1100.73 1175.37 1098.34 1168.14 Q1095.98 1160.92 1095.98 1153.79 Q1095.98 1146.69 1098.34 1139.5 Q1100.69 1132.3 1105.5 1124.79 L1110.59 1124.79 Z" fill="#000000" fill-rule="evenodd" fill-opacity="1" /><path clip-path="url(#clip720)" d="M 0 0 M1144.49 1145.45 Q1146.69 1141.5 1149.74 1139.62 Q1152.8 1137.74 1156.93 1137.74 Q1162.5 1137.74 1165.53 1141.66 Q1168.55 1145.54 1168.55 1152.74 L1168.55 1174.25 L1162.66 1174.25 L1162.66 1152.93 Q1162.66 1147.8 1160.85 1145.32 Q1159.04 1142.84 1155.31 1142.84 Q1150.76 1142.84 1148.12 1145.86 Q1145.48 1148.88 1145.48 1154.1 L1145.48 1174.25 L1139.59 1174.25 L1139.59 1152.93 Q1139.59 1147.77 1137.77 1145.32 Q1135.96 1142.84 1132.17 1142.84 Q1127.68 1142.84 1125.04 1145.89 Q1122.4 1148.92 1122.4 1154.1 L1122.4 1174.25 L1116.51 1174.25 L1116.51 1138.6 L1122.4 1138.6 L1122.4 1144.14 Q1124.41 1140.86 1127.21 1139.3 Q1130.01 1137.74 1133.86 1137.74 Q1137.74 1137.74 1140.45 1139.72 Q1143.18 1141.69 1144.49 1145.45 Z" fill="#000000" fill-rule="evenodd" fill-opacity="1" /><path clip-path="url(#clip720)" d="M 0 0 M1197.42 1139.65 L1197.42 1145.19 Q1194.94 1143.92 1192.26 1143.28 Q1189.59 1142.65 1186.73 1142.65 Q1182.37 1142.65 1180.17 1143.98 Q1178.01 1145.32 1178.01 1147.99 Q1178.01 1150.03 1179.56 1151.21 Q1181.12 1152.35 1185.83 1153.4 L1187.84 1153.85 Q1194.08 1155.19 1196.69 1157.64 Q1199.33 1160.06 1199.33 1164.42 Q1199.33 1169.38 1195.38 1172.28 Q1191.47 1175.17 1184.59 1175.17 Q1181.73 1175.17 1178.61 1174.6 Q1175.52 1174.06 1172.09 1172.95 L1172.09 1166.9 Q1175.33 1168.59 1178.48 1169.45 Q1181.63 1170.27 1184.72 1170.27 Q1188.86 1170.27 1191.09 1168.87 Q1193.31 1167.44 1193.31 1164.86 Q1193.31 1162.48 1191.69 1161.2 Q1190.1 1159.93 1184.66 1158.75 L1182.62 1158.27 Q1177.18 1157.13 1174.76 1154.77 Q1172.34 1152.39 1172.34 1148.25 Q1172.34 1143.22 1175.9 1140.48 Q1179.47 1137.74 1186.03 1137.74 Q1189.27 1137.74 1192.14 1138.22 Q1195 1138.7 1197.42 1139.65 Z" fill="#000000" fill-rule="evenodd" fill-opacity="1" /><path clip-path="url(#clip720)" d="M 0 0 M1204.55 1124.79 L1209.64 1124.79 Q1214.42 1132.3 1216.77 1139.5 Q1219.16 1146.69 1219.16 1153.79 Q1219.16 1160.92 1216.77 1168.14 Q1214.42 1175.37 1209.64 1182.85 L1204.55 1182.85 Q1208.78 1175.56 1210.85 1168.36 Q1212.95 1161.14 1212.95 1153.79 Q1212.95 1146.43 1210.85 1139.27 Q1208.78 1132.11 1204.55 1124.79 Z" fill="#000000" fill-rule="evenodd" fill-opacity="1" /><polyline clip-path="url(#clip723)" style="stroke:#000000; stroke-width:2; stroke-opacity:0.1; fill:none" points="
  191.276,979.822 1952.76,979.822 
  "/>
<polyline clip-path="url(#clip723)" style="stroke:#000000; stroke-width:2; stroke-opacity:0.1; fill:none" points="
  191.276,892.316 1952.76,892.316 
  "/>
<polyline clip-path="url(#clip723)" style="stroke:#000000; stroke-width:2; stroke-opacity:0.1; fill:none" points="
  191.276,804.811 1952.76,804.811 
  "/>
<polyline clip-path="url(#clip723)" style="stroke:#000000; stroke-width:2; stroke-opacity:0.1; fill:none" points="
  191.276,717.305 1952.76,717.305 
  "/>
<polyline clip-path="url(#clip723)" style="stroke:#000000; stroke-width:2; stroke-opacity:0.1; fill:none" points="
  191.276,629.799 1952.76,629.799 
  "/>
<polyline clip-path="url(#clip720)" style="stroke:#000000; stroke-width:4; stroke-opacity:1; fill:none" points="
  191.276,1035.39 191.276,617.986 
  "/>
<polyline clip-path="url(#clip720)" style="stroke:#000000; stroke-width:4; stroke-opacity:1; fill:none" points="
  191.276,979.822 212.414,979.822 
  "/>
<polyline clip-path="url(#clip720)" style="stroke:#000000; stroke-width:4; stroke-opacity:1; fill:none" points="
  191.276,892.316 212.414,892.316 
  "/>
<polyline clip-path="url(#clip720)" style="stroke:#000000; stroke-width:4; stroke-opacity:1; fill:none" points="
  191.276,804.811 212.414,804.811 
  "/>
<polyline clip-path="url(#clip720)" style="stroke:#000000; stroke-width:4; stroke-opacity:1; fill:none" points="
  191.276,717.305 212.414,717.305 
  "/>
<polyline clip-path="url(#clip720)" style="stroke:#000000; stroke-width:4; stroke-opacity:1; fill:none" points="
  191.276,629.799 212.414,629.799 
  "/>
<path clip-path="url(#clip720)" d="M 0 0 M144.957 993.167 L161.276 993.167 L161.276 997.102 L139.332 997.102 L139.332 993.167 Q141.994 990.412 146.577 985.782 Q151.184 981.13 152.364 979.787 Q154.61 977.264 155.489 975.528 Q156.392 973.769 156.392 972.079 Q156.392 969.324 154.448 967.588 Q152.526 965.852 149.425 965.852 Q147.226 965.852 144.772 966.616 Q142.341 967.38 139.564 968.931 L139.564 964.208 Q142.388 963.074 144.841 962.495 Q147.295 961.917 149.332 961.917 Q154.702 961.917 157.897 964.602 Q161.091 967.287 161.091 971.778 Q161.091 973.907 160.281 975.829 Q159.494 977.727 157.388 980.319 Q156.809 980.991 153.707 984.208 Q150.605 987.403 144.957 993.167 Z" fill="#000000" fill-rule="evenodd" fill-opacity="1" /><path clip-path="url(#clip720)" d="M 0 0 M151.693 879.11 L139.888 897.559 L151.693 897.559 L151.693 879.11 M150.466 875.036 L156.346 875.036 L156.346 897.559 L161.276 897.559 L161.276 901.448 L156.346 901.448 L156.346 909.596 L151.693 909.596 L151.693 901.448 L136.091 901.448 L136.091 896.934 L150.466 875.036 Z" fill="#000000" fill-rule="evenodd" fill-opacity="1" /><path clip-path="url(#clip720)" d="M 0 0 M149.749 802.947 Q146.601 802.947 144.749 805.1 Q142.92 807.253 142.92 811.003 Q142.92 814.729 144.749 816.905 Q146.601 819.058 149.749 819.058 Q152.897 819.058 154.726 816.905 Q156.577 814.729 156.577 811.003 Q156.577 807.253 154.726 805.1 Q152.897 802.947 149.749 802.947 M159.031 788.294 L159.031 792.554 Q157.272 791.72 155.466 791.281 Q153.684 790.841 151.925 790.841 Q147.295 790.841 144.841 793.966 Q142.411 797.091 142.064 803.41 Q143.429 801.396 145.489 800.331 Q147.55 799.243 150.026 799.243 Q155.235 799.243 158.244 802.415 Q161.276 805.563 161.276 811.003 Q161.276 816.327 158.128 819.544 Q154.98 822.762 149.749 822.762 Q143.753 822.762 140.582 818.179 Q137.411 813.572 137.411 804.845 Q137.411 796.651 141.3 791.79 Q145.189 786.906 151.739 786.906 Q153.499 786.906 155.281 787.253 Q157.087 787.6 159.031 788.294 Z" fill="#000000" fill-rule="evenodd" fill-opacity="1" /><path clip-path="url(#clip720)" d="M 0 0 M149.425 718.173 Q146.091 718.173 144.17 719.955 Q142.272 721.738 142.272 724.863 Q142.272 727.988 144.17 729.77 Q146.091 731.553 149.425 731.553 Q152.758 731.553 154.679 729.77 Q156.601 727.965 156.601 724.863 Q156.601 721.738 154.679 719.955 Q152.781 718.173 149.425 718.173 M144.749 716.182 Q141.739 715.442 140.05 713.381 Q138.383 711.321 138.383 708.358 Q138.383 704.215 141.323 701.807 Q144.286 699.4 149.425 699.4 Q154.587 699.4 157.526 701.807 Q160.466 704.215 160.466 708.358 Q160.466 711.321 158.776 713.381 Q157.11 715.442 154.124 716.182 Q157.503 716.969 159.378 719.261 Q161.276 721.553 161.276 724.863 Q161.276 729.886 158.198 732.571 Q155.142 735.256 149.425 735.256 Q143.707 735.256 140.628 732.571 Q137.573 729.886 137.573 724.863 Q137.573 721.553 139.471 719.261 Q141.369 716.969 144.749 716.182 M143.036 708.798 Q143.036 711.483 144.702 712.988 Q146.392 714.492 149.425 714.492 Q152.434 714.492 154.124 712.988 Q155.837 711.483 155.837 708.798 Q155.837 706.113 154.124 704.608 Q152.434 703.104 149.425 703.104 Q146.392 703.104 144.702 704.608 Q143.036 706.113 143.036 708.798 Z" fill="#000000" fill-rule="evenodd" fill-opacity="1" /><path clip-path="url(#clip720)" d="M 0 0 M114.355 643.144 L121.994 643.144 L121.994 616.779 L113.684 618.445 L113.684 614.186 L121.948 612.519 L126.624 612.519 L126.624 643.144 L134.263 643.144 L134.263 647.079 L114.355 647.079 L114.355 643.144 Z" fill="#000000" fill-rule="evenodd" fill-opacity="1" /><path clip-path="url(#clip720)" d="M 0 0 M149.332 615.598 Q145.721 615.598 143.892 619.163 Q142.087 622.704 142.087 629.834 Q142.087 636.941 143.892 640.505 Q145.721 644.047 149.332 644.047 Q152.966 644.047 154.772 640.505 Q156.601 636.941 156.601 629.834 Q156.601 622.704 154.772 619.163 Q152.966 615.598 149.332 615.598 M149.332 611.894 Q155.142 611.894 158.198 616.501 Q161.276 621.084 161.276 629.834 Q161.276 638.561 158.198 643.167 Q155.142 647.751 149.332 647.751 Q143.522 647.751 140.443 643.167 Q137.388 638.561 137.388 629.834 Q137.388 621.084 140.443 616.501 Q143.522 611.894 149.332 611.894 Z" fill="#000000" fill-rule="evenodd" fill-opacity="1" /><path clip-path="url(#clip720)" d="M 0 0 M21.9081 1017.36 L21.9081 1008.7 L61.6619 987.628 L21.9081 987.628 L21.9081 981.39 L69.4281 981.39 L69.4281 990.047 L29.6742 1011.12 L69.4281 1011.12 L69.4281 1017.36 L21.9081 1017.36 Z" fill="#000000" fill-rule="evenodd" fill-opacity="1" /><path clip-path="url(#clip720)" d="M 0 0 M50.14 944.755 L53.0045 944.755 L53.0045 971.682 Q59.052 971.3 62.2348 968.053 Q65.3858 964.775 65.3858 958.95 Q65.3858 955.577 64.5583 952.426 Q63.7308 949.243 62.0757 946.124 L67.6138 946.124 Q68.9506 949.275 69.6509 952.585 Q70.3511 955.895 70.3511 959.301 Q70.3511 967.831 65.3858 972.828 Q60.4206 977.793 51.9542 977.793 Q43.2014 977.793 38.077 973.082 Q32.9207 968.34 32.9207 960.319 Q32.9207 953.126 37.5677 948.956 Q42.1828 944.755 50.14 944.755 M48.4212 950.611 Q43.6151 950.675 40.7506 953.317 Q37.886 955.927 37.886 960.255 Q37.886 965.157 40.6551 968.117 Q43.4242 971.045 48.4531 971.491 L48.4212 950.611 Z" fill="#000000" fill-rule="evenodd" fill-opacity="1" /><path clip-path="url(#clip720)" d="M 0 0 M55.3599 939.217 L33.7801 939.217 L33.7801 933.36 L55.1371 933.36 Q60.1978 933.36 62.7441 931.387 Q65.2585 929.414 65.2585 925.467 Q65.2585 920.724 62.2348 917.987 Q59.2111 915.218 53.9912 915.218 L33.7801 915.218 L33.7801 909.362 L69.4281 909.362 L69.4281 915.218 L63.9536 915.218 Q67.2001 917.351 68.7915 920.183 Q70.3511 922.984 70.3511 926.708 Q70.3511 932.851 66.5317 936.034 Q62.7123 939.217 55.3599 939.217 M32.9207 924.48 L32.9207 924.48 Z" fill="#000000" fill-rule="evenodd" fill-opacity="1" /><path clip-path="url(#clip720)" d="M 0 0 M39.2546 882.562 Q38.6817 883.549 38.4271 884.726 Q38.1406 885.872 38.1406 887.273 Q38.1406 892.238 41.3871 894.911 Q44.6018 897.553 50.6492 897.553 L69.4281 897.553 L69.4281 903.441 L33.7801 903.441 L33.7801 897.553 L39.3183 897.553 Q36.0718 895.707 34.5122 892.747 Q32.9207 889.787 32.9207 885.554 Q32.9207 884.949 33.0162 884.217 Q33.0799 883.485 33.239 882.594 L39.2546 882.562 Z" fill="#000000" fill-rule="evenodd" fill-opacity="1" /><path clip-path="url(#clip720)" d="M 0 0 M37.886 864.038 Q37.886 868.748 41.5781 871.486 Q45.2384 874.223 51.6359 874.223 Q58.0335 874.223 61.7256 871.517 Q65.3858 868.78 65.3858 864.038 Q65.3858 859.359 61.6937 856.622 Q58.0016 853.884 51.6359 853.884 Q45.302 853.884 41.6099 856.622 Q37.886 859.359 37.886 864.038 M32.9207 864.038 Q32.9207 856.399 37.886 852.038 Q42.8512 847.678 51.6359 847.678 Q60.3888 847.678 65.3858 852.038 Q70.3511 856.399 70.3511 864.038 Q70.3511 871.708 65.3858 876.069 Q60.3888 880.398 51.6359 880.398 Q42.8512 880.398 37.886 876.069 Q32.9207 871.708 32.9207 864.038 Z" fill="#000000" fill-rule="evenodd" fill-opacity="1" /><path clip-path="url(#clip720)" d="M 0 0 M47.912 811.903 L69.4281 811.903 L69.4281 817.759 L48.103 817.759 Q43.0422 817.759 40.5278 819.732 Q38.0133 821.706 38.0133 825.653 Q38.0133 830.395 41.037 833.132 Q44.0607 835.869 49.2806 835.869 L69.4281 835.869 L69.4281 841.758 L33.7801 841.758 L33.7801 835.869 L39.3183 835.869 Q36.1036 833.769 34.5122 830.936 Q32.9207 828.072 32.9207 824.348 Q32.9207 818.205 36.7402 815.054 Q40.5278 811.903 47.912 811.903 Z" fill="#000000" fill-rule="evenodd" fill-opacity="1" /><path clip-path="url(#clip720)" d="M 0 0 M33.7801 785.039 L33.7801 779.183 L69.4281 779.183 L69.4281 785.039 L33.7801 785.039 M19.9029 785.039 L19.9029 779.183 L27.3189 779.183 L27.3189 785.039 L19.9029 785.039 Z" fill="#000000" fill-rule="evenodd" fill-opacity="1" /><path clip-path="url(#clip720)" d="M 0 0 M47.912 743.408 L69.4281 743.408 L69.4281 749.264 L48.103 749.264 Q43.0422 749.264 40.5278 751.237 Q38.0133 753.211 38.0133 757.158 Q38.0133 761.9 41.037 764.637 Q44.0607 767.374 49.2806 767.374 L69.4281 767.374 L69.4281 773.263 L33.7801 773.263 L33.7801 767.374 L39.3183 767.374 Q36.1036 765.274 34.5122 762.441 Q32.9207 759.576 32.9207 755.853 Q32.9207 749.71 36.7402 746.559 Q40.5278 743.408 47.912 743.408 Z" fill="#000000" fill-rule="evenodd" fill-opacity="1" /><path clip-path="url(#clip720)" d="M 0 0 M39.191 713.807 L19.9029 713.807 L19.9029 707.951 L69.4281 707.951 L69.4281 713.807 L64.0809 713.807 Q67.2637 715.653 68.8233 718.486 Q70.3511 721.287 70.3511 725.234 Q70.3511 731.695 65.1949 735.769 Q60.0387 739.811 51.6359 739.811 Q43.2332 739.811 38.077 735.769 Q32.9207 731.695 32.9207 725.234 Q32.9207 721.287 34.4803 718.486 Q36.0081 715.653 39.191 713.807 M51.6359 733.764 Q58.0971 733.764 61.7892 731.122 Q65.4495 728.448 65.4495 723.801 Q65.4495 719.154 61.7892 716.481 Q58.0971 713.807 51.6359 713.807 Q45.1747 713.807 41.5144 716.481 Q37.8223 719.154 37.8223 723.801 Q37.8223 728.448 41.5144 731.122 Q45.1747 733.764 51.6359 733.764 Z" fill="#000000" fill-rule="evenodd" fill-opacity="1" /><path clip-path="url(#clip720)" d="M 0 0 M50.14 671.316 L53.0045 671.316 L53.0045 698.243 Q59.052 697.861 62.2348 694.614 Q65.3858 691.336 65.3858 685.512 Q65.3858 682.138 64.5583 678.987 Q63.7308 675.804 62.0757 672.685 L67.6138 672.685 Q68.9506 675.836 69.6509 679.146 Q70.3511 682.456 70.3511 685.862 Q70.3511 694.392 65.3858 699.389 Q60.4206 704.354 51.9542 704.354 Q43.2014 704.354 38.077 699.643 Q32.9207 694.901 32.9207 686.88 Q32.9207 679.687 37.5677 675.517 Q42.1828 671.316 50.14 671.316 M48.4212 677.172 Q43.6151 677.236 40.7506 679.878 Q37.886 682.488 37.886 686.816 Q37.886 691.718 40.6551 694.678 Q43.4242 697.606 48.4531 698.052 L48.4212 677.172 Z" fill="#000000" fill-rule="evenodd" fill-opacity="1" /><path clip-path="url(#clip720)" d="M 0 0 M33.7801 636.687 L51.1267 649.577 L69.4281 636.018 L69.4281 642.925 L55.4235 653.301 L69.4281 663.677 L69.4281 670.584 L50.7766 656.739 L33.7801 669.406 L33.7801 662.499 L46.4797 653.046 L33.7801 643.593 L33.7801 636.687 Z" fill="#000000" fill-rule="evenodd" fill-opacity="1" /><line clip-path="url(#clip723)" x1="397.073" y1="1039.57" x2="397.073" y2="1007.57" style="stroke:#000000; stroke-width:2.4; stroke-opacity:1"/>
<line clip-path="url(#clip723)" x1="498.227" y1="1039.57" x2="498.227" y2="1007.57" style="stroke:#000000; stroke-width:2.4; stroke-opacity:1"/>
<line clip-path="url(#clip723)" x1="508.692" y1="1039.57" x2="508.692" y2="1007.57" style="stroke:#000000; stroke-width:2.4; stroke-opacity:1"/>
<line clip-path="url(#clip723)" x1="990.046" y1="1039.57" x2="990.046" y2="1007.57" style="stroke:#000000; stroke-width:2.4; stroke-opacity:1"/>
<line clip-path="url(#clip723)" x1="993.534" y1="1039.57" x2="993.534" y2="1007.57" style="stroke:#000000; stroke-width:2.4; stroke-opacity:1"/>
<line clip-path="url(#clip723)" x1="1035.39" y1="1039.57" x2="1035.39" y2="1007.57" style="stroke:#000000; stroke-width:2.4; stroke-opacity:1"/>
<line clip-path="url(#clip723)" x1="1054.58" y1="1039.57" x2="1054.58" y2="1007.57" style="stroke:#000000; stroke-width:2.4; stroke-opacity:1"/>
<line clip-path="url(#clip723)" x1="1551.63" y1="1039.57" x2="1551.63" y2="1007.57" style="stroke:#000000; stroke-width:2.4; stroke-opacity:1"/>
<line clip-path="url(#clip723)" x1="1560.35" y1="1039.57" x2="1560.35" y2="1007.57" style="stroke:#000000; stroke-width:2.4; stroke-opacity:1"/>
<line clip-path="url(#clip723)" x1="1595.23" y1="1039.57" x2="1595.23" y2="1007.57" style="stroke:#000000; stroke-width:2.4; stroke-opacity:1"/>
<line clip-path="url(#clip723)" x1="1619.64" y1="1039.57" x2="1619.64" y2="1007.57" style="stroke:#000000; stroke-width:2.4; stroke-opacity:1"/>
<line clip-path="url(#clip723)" x1="391.841" y1="995.822" x2="391.841" y2="963.822" style="stroke:#000000; stroke-width:2.4; stroke-opacity:1"/>
<line clip-path="url(#clip723)" x1="642.983" y1="995.822" x2="642.983" y2="963.822" style="stroke:#000000; stroke-width:2.4; stroke-opacity:1"/>
<line clip-path="url(#clip723)" x1="848.779" y1="995.822" x2="848.779" y2="963.822" style="stroke:#000000; stroke-width:2.4; stroke-opacity:1"/>
<line clip-path="url(#clip723)" x1="892.38" y1="995.822" x2="892.38" y2="963.822" style="stroke:#000000; stroke-width:2.4; stroke-opacity:1"/>
<line clip-path="url(#clip723)" x1="944.701" y1="995.822" x2="944.701" y2="963.822" style="stroke:#000000; stroke-width:2.4; stroke-opacity:1"/>
<line clip-path="url(#clip723)" x1="948.189" y1="995.822" x2="948.189" y2="963.822" style="stroke:#000000; stroke-width:2.4; stroke-opacity:1"/>
<line clip-path="url(#clip723)" x1="977.838" y1="995.822" x2="977.838" y2="963.822" style="stroke:#000000; stroke-width:2.4; stroke-opacity:1"/>
<line clip-path="url(#clip723)" x1="1031.9" y1="995.822" x2="1031.9" y2="963.822" style="stroke:#000000; stroke-width:2.4; stroke-opacity:1"/>
<line clip-path="url(#clip723)" x1="1065.04" y1="995.822" x2="1065.04" y2="963.822" style="stroke:#000000; stroke-width:2.4; stroke-opacity:1"/>
<line clip-path="url(#clip723)" x1="1085.97" y1="995.822" x2="1085.97" y2="963.822" style="stroke:#000000; stroke-width:2.4; stroke-opacity:1"/>
<line clip-path="url(#clip723)" x1="1431.29" y1="995.822" x2="1431.29" y2="963.822" style="stroke:#000000; stroke-width:2.4; stroke-opacity:1"/>
<line clip-path="url(#clip723)" x1="1508.03" y1="995.822" x2="1508.03" y2="963.822" style="stroke:#000000; stroke-width:2.4; stroke-opacity:1"/>
<line clip-path="url(#clip723)" x1="1515" y1="995.822" x2="1515" y2="963.822" style="stroke:#000000; stroke-width:2.4; stroke-opacity:1"/>
<line clip-path="url(#clip723)" x1="1544.65" y1="995.822" x2="1544.65" y2="963.822" style="stroke:#000000; stroke-width:2.4; stroke-opacity:1"/>
<line clip-path="url(#clip723)" x1="1553.37" y1="995.822" x2="1553.37" y2="963.822" style="stroke:#000000; stroke-width:2.4; stroke-opacity:1"/>
<line clip-path="url(#clip723)" x1="1570.81" y1="995.822" x2="1570.81" y2="963.822" style="stroke:#000000; stroke-width:2.4; stroke-opacity:1"/>
<line clip-path="url(#clip723)" x1="323.823" y1="952.069" x2="323.823" y2="920.069" style="stroke:#000000; stroke-width:2.4; stroke-opacity:1"/>
<line clip-path="url(#clip723)" x1="377.889" y1="952.069" x2="377.889" y2="920.069" style="stroke:#000000; stroke-width:2.4; stroke-opacity:1"/>
<line clip-path="url(#clip723)" x1="475.555" y1="952.069" x2="475.555" y2="920.069" style="stroke:#000000; stroke-width:2.4; stroke-opacity:1"/>
<line clip-path="url(#clip723)" x1="489.507" y1="952.069" x2="489.507" y2="920.069" style="stroke:#000000; stroke-width:2.4; stroke-opacity:1"/>
<line clip-path="url(#clip723)" x1="545.316" y1="952.069" x2="545.316" y2="920.069" style="stroke:#000000; stroke-width:2.4; stroke-opacity:1"/>
<line clip-path="url(#clip723)" x1="888.892" y1="952.069" x2="888.892" y2="920.069" style="stroke:#000000; stroke-width:2.4; stroke-opacity:1"/>
<line clip-path="url(#clip723)" x1="925.517" y1="952.069" x2="925.517" y2="920.069" style="stroke:#000000; stroke-width:2.4; stroke-opacity:1"/>
<line clip-path="url(#clip723)" x1="944.701" y1="952.069" x2="944.701" y2="920.069" style="stroke:#000000; stroke-width:2.4; stroke-opacity:1"/>
<line clip-path="url(#clip723)" x1="949.933" y1="952.069" x2="949.933" y2="920.069" style="stroke:#000000; stroke-width:2.4; stroke-opacity:1"/>
<line clip-path="url(#clip723)" x1="1021.44" y1="952.069" x2="1021.44" y2="920.069" style="stroke:#000000; stroke-width:2.4; stroke-opacity:1"/>
<line clip-path="url(#clip723)" x1="1176.66" y1="952.069" x2="1176.66" y2="920.069" style="stroke:#000000; stroke-width:2.4; stroke-opacity:1"/>
<line clip-path="url(#clip723)" x1="1387.69" y1="952.069" x2="1387.69" y2="920.069" style="stroke:#000000; stroke-width:2.4; stroke-opacity:1"/>
<line clip-path="url(#clip723)" x1="1427.8" y1="952.069" x2="1427.8" y2="920.069" style="stroke:#000000; stroke-width:2.4; stroke-opacity:1"/>
<line clip-path="url(#clip723)" x1="1537.67" y1="952.069" x2="1537.67" y2="920.069" style="stroke:#000000; stroke-width:2.4; stroke-opacity:1"/>
<line clip-path="url(#clip723)" x1="1647.55" y1="952.069" x2="1647.55" y2="920.069" style="stroke:#000000; stroke-width:2.4; stroke-opacity:1"/>
<line clip-path="url(#clip723)" x1="1682.43" y1="952.069" x2="1682.43" y2="920.069" style="stroke:#000000; stroke-width:2.4; stroke-opacity:1"/>
<line clip-path="url(#clip723)" x1="1910.9" y1="952.069" x2="1910.9" y2="920.069" style="stroke:#000000; stroke-width:2.4; stroke-opacity:1"/>
<line clip-path="url(#clip723)" x1="1924.85" y1="952.069" x2="1924.85" y2="920.069" style="stroke:#000000; stroke-width:2.4; stroke-opacity:1"/>
<line clip-path="url(#clip723)" x1="348.24" y1="908.316" x2="348.24" y2="876.316" style="stroke:#000000; stroke-width:2.4; stroke-opacity:1"/>
<line clip-path="url(#clip723)" x1="358.704" y1="908.316" x2="358.704" y2="876.316" style="stroke:#000000; stroke-width:2.4; stroke-opacity:1"/>
<line clip-path="url(#clip723)" x1="404.049" y1="908.316" x2="404.049" y2="876.316" style="stroke:#000000; stroke-width:2.4; stroke-opacity:1"/>
<line clip-path="url(#clip723)" x1="426.722" y1="908.316" x2="426.722" y2="876.316" style="stroke:#000000; stroke-width:2.4; stroke-opacity:1"/>
<line clip-path="url(#clip723)" x1="503.459" y1="908.316" x2="503.459" y2="876.316" style="stroke:#000000; stroke-width:2.4; stroke-opacity:1"/>
<line clip-path="url(#clip723)" x1="888.892" y1="908.316" x2="888.892" y2="876.316" style="stroke:#000000; stroke-width:2.4; stroke-opacity:1"/>
<line clip-path="url(#clip723)" x1="981.326" y1="908.316" x2="981.326" y2="876.316" style="stroke:#000000; stroke-width:2.4; stroke-opacity:1"/>
<line clip-path="url(#clip723)" x1="1031.9" y1="908.316" x2="1031.9" y2="876.316" style="stroke:#000000; stroke-width:2.4; stroke-opacity:1"/>
<line clip-path="url(#clip723)" x1="1106.9" y1="908.316" x2="1106.9" y2="876.316" style="stroke:#000000; stroke-width:2.4; stroke-opacity:1"/>
<line clip-path="url(#clip723)" x1="1656.27" y1="908.316" x2="1656.27" y2="876.316" style="stroke:#000000; stroke-width:2.4; stroke-opacity:1"/>
<line clip-path="url(#clip723)" x1="261.038" y1="864.563" x2="261.038" y2="832.563" style="stroke:#000000; stroke-width:2.4; stroke-opacity:1"/>
<line clip-path="url(#clip723)" x1="351.728" y1="864.563" x2="351.728" y2="832.563" style="stroke:#000000; stroke-width:2.4; stroke-opacity:1"/>
<line clip-path="url(#clip723)" x1="367.424" y1="864.563" x2="367.424" y2="832.563" style="stroke:#000000; stroke-width:2.4; stroke-opacity:1"/>
<line clip-path="url(#clip723)" x1="433.698" y1="864.563" x2="433.698" y2="832.563" style="stroke:#000000; stroke-width:2.4; stroke-opacity:1"/>
<line clip-path="url(#clip723)" x1="498.227" y1="864.563" x2="498.227" y2="832.563" style="stroke:#000000; stroke-width:2.4; stroke-opacity:1"/>
<line clip-path="url(#clip723)" x1="545.316" y1="864.563" x2="545.316" y2="832.563" style="stroke:#000000; stroke-width:2.4; stroke-opacity:1"/>
<line clip-path="url(#clip723)" x1="672.631" y1="864.563" x2="672.631" y2="832.563" style="stroke:#000000; stroke-width:2.4; stroke-opacity:1"/>
<line clip-path="url(#clip723)" x1="833.083" y1="864.563" x2="833.083" y2="832.563" style="stroke:#000000; stroke-width:2.4; stroke-opacity:1"/>
<line clip-path="url(#clip723)" x1="1019.69" y1="864.563" x2="1019.69" y2="832.563" style="stroke:#000000; stroke-width:2.4; stroke-opacity:1"/>
<line clip-path="url(#clip723)" x1="1045.86" y1="864.563" x2="1045.86" y2="832.563" style="stroke:#000000; stroke-width:2.4; stroke-opacity:1"/>
<line clip-path="url(#clip723)" x1="1269.09" y1="864.563" x2="1269.09" y2="832.563" style="stroke:#000000; stroke-width:2.4; stroke-opacity:1"/>
<line clip-path="url(#clip723)" x1="1553.37" y1="864.563" x2="1553.37" y2="832.563" style="stroke:#000000; stroke-width:2.4; stroke-opacity:1"/>
<line clip-path="url(#clip723)" x1="1651.04" y1="864.563" x2="1651.04" y2="832.563" style="stroke:#000000; stroke-width:2.4; stroke-opacity:1"/>
<line clip-path="url(#clip723)" x1="1801.02" y1="864.563" x2="1801.02" y2="832.563" style="stroke:#000000; stroke-width:2.4; stroke-opacity:1"/>
<line clip-path="url(#clip723)" x1="285.455" y1="820.811" x2="285.455" y2="788.811" style="stroke:#000000; stroke-width:2.4; stroke-opacity:1"/>
<line clip-path="url(#clip723)" x1="327.311" y1="820.811" x2="327.311" y2="788.811" style="stroke:#000000; stroke-width:2.4; stroke-opacity:1"/>
<line clip-path="url(#clip723)" x1="451.138" y1="820.811" x2="451.138" y2="788.811" style="stroke:#000000; stroke-width:2.4; stroke-opacity:1"/>
<line clip-path="url(#clip723)" x1="508.692" y1="820.811" x2="508.692" y2="788.811" style="stroke:#000000; stroke-width:2.4; stroke-opacity:1"/>
<line clip-path="url(#clip723)" x1="587.173" y1="820.811" x2="587.173" y2="788.811" style="stroke:#000000; stroke-width:2.4; stroke-opacity:1"/>
<line clip-path="url(#clip723)" x1="611.59" y1="820.811" x2="611.59" y2="788.811" style="stroke:#000000; stroke-width:2.4; stroke-opacity:1"/>
<line clip-path="url(#clip723)" x1="944.701" y1="820.811" x2="944.701" y2="788.811" style="stroke:#000000; stroke-width:2.4; stroke-opacity:1"/>
<line clip-path="url(#clip723)" x1="995.278" y1="820.811" x2="995.278" y2="788.811" style="stroke:#000000; stroke-width:2.4; stroke-opacity:1"/>
<line clip-path="url(#clip723)" x1="1077.25" y1="820.811" x2="1077.25" y2="788.811" style="stroke:#000000; stroke-width:2.4; stroke-opacity:1"/>
<line clip-path="url(#clip723)" x1="1101.66" y1="820.811" x2="1101.66" y2="788.811" style="stroke:#000000; stroke-width:2.4; stroke-opacity:1"/>
<line clip-path="url(#clip723)" x1="1148.75" y1="820.811" x2="1148.75" y2="788.811" style="stroke:#000000; stroke-width:2.4; stroke-opacity:1"/>
<line clip-path="url(#clip723)" x1="1581.28" y1="820.811" x2="1581.28" y2="788.811" style="stroke:#000000; stroke-width:2.4; stroke-opacity:1"/>
<line clip-path="url(#clip723)" x1="1593.48" y1="820.811" x2="1593.48" y2="788.811" style="stroke:#000000; stroke-width:2.4; stroke-opacity:1"/>
<line clip-path="url(#clip723)" x1="1644.06" y1="820.811" x2="1644.06" y2="788.811" style="stroke:#000000; stroke-width:2.4; stroke-opacity:1"/>
<line clip-path="url(#clip723)" x1="341.264" y1="777.058" x2="341.264" y2="745.058" style="stroke:#000000; stroke-width:2.4; stroke-opacity:1"/>
<line clip-path="url(#clip723)" x1="370.912" y1="777.058" x2="370.912" y2="745.058" style="stroke:#000000; stroke-width:2.4; stroke-opacity:1"/>
<line clip-path="url(#clip723)" x1="381.377" y1="777.058" x2="381.377" y2="745.058" style="stroke:#000000; stroke-width:2.4; stroke-opacity:1"/>
<line clip-path="url(#clip723)" x1="447.65" y1="777.058" x2="447.65" y2="745.058" style="stroke:#000000; stroke-width:2.4; stroke-opacity:1"/>
<line clip-path="url(#clip723)" x1="513.924" y1="777.058" x2="513.924" y2="745.058" style="stroke:#000000; stroke-width:2.4; stroke-opacity:1"/>
<line clip-path="url(#clip723)" x1="524.388" y1="777.058" x2="524.388" y2="745.058" style="stroke:#000000; stroke-width:2.4; stroke-opacity:1"/>
<line clip-path="url(#clip723)" x1="1002.25" y1="777.058" x2="1002.25" y2="745.058" style="stroke:#000000; stroke-width:2.4; stroke-opacity:1"/>
<line clip-path="url(#clip723)" x1="1063.3" y1="777.058" x2="1063.3" y2="745.058" style="stroke:#000000; stroke-width:2.4; stroke-opacity:1"/>
<line clip-path="url(#clip723)" x1="1065.04" y1="777.058" x2="1065.04" y2="745.058" style="stroke:#000000; stroke-width:2.4; stroke-opacity:1"/>
<line clip-path="url(#clip723)" x1="1068.53" y1="777.058" x2="1068.53" y2="745.058" style="stroke:#000000; stroke-width:2.4; stroke-opacity:1"/>
<line clip-path="url(#clip723)" x1="1487.1" y1="777.058" x2="1487.1" y2="745.058" style="stroke:#000000; stroke-width:2.4; stroke-opacity:1"/>
<line clip-path="url(#clip723)" x1="1549.88" y1="777.058" x2="1549.88" y2="745.058" style="stroke:#000000; stroke-width:2.4; stroke-opacity:1"/>
<line clip-path="url(#clip723)" x1="1562.09" y1="777.058" x2="1562.09" y2="745.058" style="stroke:#000000; stroke-width:2.4; stroke-opacity:1"/>
<line clip-path="url(#clip723)" x1="1563.84" y1="777.058" x2="1563.84" y2="745.058" style="stroke:#000000; stroke-width:2.4; stroke-opacity:1"/>
<line clip-path="url(#clip723)" x1="1569.07" y1="777.058" x2="1569.07" y2="745.058" style="stroke:#000000; stroke-width:2.4; stroke-opacity:1"/>
<line clip-path="url(#clip723)" x1="1598.72" y1="777.058" x2="1598.72" y2="745.058" style="stroke:#000000; stroke-width:2.4; stroke-opacity:1"/>
<line clip-path="url(#clip723)" x1="1617.9" y1="777.058" x2="1617.9" y2="745.058" style="stroke:#000000; stroke-width:2.4; stroke-opacity:1"/>
<line clip-path="url(#clip723)" x1="1642.32" y1="777.058" x2="1642.32" y2="745.058" style="stroke:#000000; stroke-width:2.4; stroke-opacity:1"/>
<line clip-path="url(#clip723)" x1="1713.82" y1="777.058" x2="1713.82" y2="745.058" style="stroke:#000000; stroke-width:2.4; stroke-opacity:1"/>
<line clip-path="url(#clip723)" x1="269.758" y1="733.305" x2="269.758" y2="701.305" style="stroke:#000000; stroke-width:2.4; stroke-opacity:1"/>
<line clip-path="url(#clip723)" x1="461.602" y1="733.305" x2="461.602" y2="701.305" style="stroke:#000000; stroke-width:2.4; stroke-opacity:1"/>
<line clip-path="url(#clip723)" x1="486.019" y1="733.305" x2="486.019" y2="701.305" style="stroke:#000000; stroke-width:2.4; stroke-opacity:1"/>
<line clip-path="url(#clip723)" x1="503.459" y1="733.305" x2="503.459" y2="701.305" style="stroke:#000000; stroke-width:2.4; stroke-opacity:1"/>
<line clip-path="url(#clip723)" x1="840.059" y1="733.305" x2="840.059" y2="701.305" style="stroke:#000000; stroke-width:2.4; stroke-opacity:1"/>
<line clip-path="url(#clip723)" x1="929.005" y1="733.305" x2="929.005" y2="701.305" style="stroke:#000000; stroke-width:2.4; stroke-opacity:1"/>
<line clip-path="url(#clip723)" x1="1016.21" y1="733.305" x2="1016.21" y2="701.305" style="stroke:#000000; stroke-width:2.4; stroke-opacity:1"/>
<line clip-path="url(#clip723)" x1="1035.39" y1="733.305" x2="1035.39" y2="701.305" style="stroke:#000000; stroke-width:2.4; stroke-opacity:1"/>
<line clip-path="url(#clip723)" x1="1045.86" y1="733.305" x2="1045.86" y2="701.305" style="stroke:#000000; stroke-width:2.4; stroke-opacity:1"/>
<line clip-path="url(#clip723)" x1="1082.48" y1="733.305" x2="1082.48" y2="701.305" style="stroke:#000000; stroke-width:2.4; stroke-opacity:1"/>
<line clip-path="url(#clip723)" x1="1112.13" y1="733.305" x2="1112.13" y2="701.305" style="stroke:#000000; stroke-width:2.4; stroke-opacity:1"/>
<line clip-path="url(#clip723)" x1="1152.24" y1="733.305" x2="1152.24" y2="701.305" style="stroke:#000000; stroke-width:2.4; stroke-opacity:1"/>
<line clip-path="url(#clip723)" x1="1183.63" y1="733.305" x2="1183.63" y2="701.305" style="stroke:#000000; stroke-width:2.4; stroke-opacity:1"/>
<line clip-path="url(#clip723)" x1="1480.12" y1="733.305" x2="1480.12" y2="701.305" style="stroke:#000000; stroke-width:2.4; stroke-opacity:1"/>
<line clip-path="url(#clip723)" x1="1671.97" y1="733.305" x2="1671.97" y2="701.305" style="stroke:#000000; stroke-width:2.4; stroke-opacity:1"/>
<line clip-path="url(#clip723)" x1="358.704" y1="689.552" x2="358.704" y2="657.552" style="stroke:#000000; stroke-width:2.4; stroke-opacity:1"/>
<line clip-path="url(#clip723)" x1="390.097" y1="689.552" x2="390.097" y2="657.552" style="stroke:#000000; stroke-width:2.4; stroke-opacity:1"/>
<line clip-path="url(#clip723)" x1="416.257" y1="689.552" x2="416.257" y2="657.552" style="stroke:#000000; stroke-width:2.4; stroke-opacity:1"/>
<line clip-path="url(#clip723)" x1="491.251" y1="689.552" x2="491.251" y2="657.552" style="stroke:#000000; stroke-width:2.4; stroke-opacity:1"/>
<line clip-path="url(#clip723)" x1="506.947" y1="689.552" x2="506.947" y2="657.552" style="stroke:#000000; stroke-width:2.4; stroke-opacity:1"/>
<line clip-path="url(#clip723)" x1="520.9" y1="689.552" x2="520.9" y2="657.552" style="stroke:#000000; stroke-width:2.4; stroke-opacity:1"/>
<line clip-path="url(#clip723)" x1="561.013" y1="689.552" x2="561.013" y2="657.552" style="stroke:#000000; stroke-width:2.4; stroke-opacity:1"/>
<line clip-path="url(#clip723)" x1="564.501" y1="689.552" x2="564.501" y2="657.552" style="stroke:#000000; stroke-width:2.4; stroke-opacity:1"/>
<line clip-path="url(#clip723)" x1="571.477" y1="689.552" x2="571.477" y2="657.552" style="stroke:#000000; stroke-width:2.4; stroke-opacity:1"/>
<line clip-path="url(#clip723)" x1="632.518" y1="689.552" x2="632.518" y2="657.552" style="stroke:#000000; stroke-width:2.4; stroke-opacity:1"/>
<line clip-path="url(#clip723)" x1="1073.76" y1="689.552" x2="1073.76" y2="657.552" style="stroke:#000000; stroke-width:2.4; stroke-opacity:1"/>
<line clip-path="url(#clip723)" x1="1167.94" y1="689.552" x2="1167.94" y2="657.552" style="stroke:#000000; stroke-width:2.4; stroke-opacity:1"/>
<line clip-path="url(#clip723)" x1="1452.22" y1="689.552" x2="1452.22" y2="657.552" style="stroke:#000000; stroke-width:2.4; stroke-opacity:1"/>
<line clip-path="url(#clip723)" x1="1523.72" y1="689.552" x2="1523.72" y2="657.552" style="stroke:#000000; stroke-width:2.4; stroke-opacity:1"/>
<line clip-path="url(#clip723)" x1="1541.16" y1="689.552" x2="1541.16" y2="657.552" style="stroke:#000000; stroke-width:2.4; stroke-opacity:1"/>
<line clip-path="url(#clip723)" x1="1605.69" y1="689.552" x2="1605.69" y2="657.552" style="stroke:#000000; stroke-width:2.4; stroke-opacity:1"/>
<line clip-path="url(#clip723)" x1="278.478" y1="645.799" x2="278.478" y2="613.799" style="stroke:#000000; stroke-width:2.4; stroke-opacity:1"/>
<line clip-path="url(#clip723)" x1="302.895" y1="645.799" x2="302.895" y2="613.799" style="stroke:#000000; stroke-width:2.4; stroke-opacity:1"/>
<line clip-path="url(#clip723)" x1="431.954" y1="645.799" x2="431.954" y2="613.799" style="stroke:#000000; stroke-width:2.4; stroke-opacity:1"/>
<line clip-path="url(#clip723)" x1="1030.16" y1="645.799" x2="1030.16" y2="613.799" style="stroke:#000000; stroke-width:2.4; stroke-opacity:1"/>
<line clip-path="url(#clip723)" x1="1042.37" y1="645.799" x2="1042.37" y2="613.799" style="stroke:#000000; stroke-width:2.4; stroke-opacity:1"/>
<line clip-path="url(#clip723)" x1="1105.15" y1="645.799" x2="1105.15" y2="613.799" style="stroke:#000000; stroke-width:2.4; stroke-opacity:1"/>
<line clip-path="url(#clip723)" x1="1110.39" y1="645.799" x2="1110.39" y2="613.799" style="stroke:#000000; stroke-width:2.4; stroke-opacity:1"/>
<line clip-path="url(#clip723)" x1="1488.84" y1="645.799" x2="1488.84" y2="613.799" style="stroke:#000000; stroke-width:2.4; stroke-opacity:1"/>
<line clip-path="url(#clip723)" x1="1490.59" y1="645.799" x2="1490.59" y2="613.799" style="stroke:#000000; stroke-width:2.4; stroke-opacity:1"/>
<line clip-path="url(#clip723)" x1="1535.93" y1="645.799" x2="1535.93" y2="613.799" style="stroke:#000000; stroke-width:2.4; stroke-opacity:1"/>
<line clip-path="url(#clip723)" x1="1576.04" y1="645.799" x2="1576.04" y2="613.799" style="stroke:#000000; stroke-width:2.4; stroke-opacity:1"/>
<line clip-path="url(#clip723)" x1="1600.46" y1="645.799" x2="1600.46" y2="613.799" style="stroke:#000000; stroke-width:2.4; stroke-opacity:1"/>
<line clip-path="url(#clip723)" x1="1609.18" y1="645.799" x2="1609.18" y2="613.799" style="stroke:#000000; stroke-width:2.4; stroke-opacity:1"/>
<line clip-path="url(#clip723)" x1="1684.17" y1="645.799" x2="1684.17" y2="613.799" style="stroke:#000000; stroke-width:2.4; stroke-opacity:1"/>
<line clip-path="url(#clip723)" x1="1729.52" y1="645.799" x2="1729.52" y2="613.799" style="stroke:#000000; stroke-width:2.4; stroke-opacity:1"/>
</svg>
